<svg xmlns="http://www.w3.org/2000/svg" xmlns:xlink="http://www.w3.org/1999/xlink" width="289" height="289" viewBox="0 0 289 289">
  <defs>
    <filter id="Ellipse_116" x="0" y="0" width="289" height="289" filterUnits="userSpaceOnUse">
      <feOffset dy="3" input="SourceAlpha"/>
      <feGaussianBlur stdDeviation="3" result="blur"/>
      <feFlood flood-color="#e2e2e2"/>
      <feComposite operator="in" in2="blur"/>
      <feComposite in="SourceGraphic"/>
    </filter>
  </defs>
  <g id="Group_1588" data-name="Group 1588" transform="translate(-132.064 -3838.691)">
    <g transform="matrix(1, 0, 0, 1, 132.06, 3838.69)" filter="url(#Ellipse_116)">
      <g id="Ellipse_116-2" data-name="Ellipse 116" transform="translate(9 6)" fill="#fff4ea" stroke="#b45d0e" stroke-width="1">
        <circle cx="135.5" cy="135.5" r="135.5" stroke="none"/>
        <circle cx="135.5" cy="135.5" r="135" fill="none"/>
      </g>
    </g>
    <g id="Certification-pana" transform="translate(32.957 3792.922)">
      <g id="freepik--Certification--inject-4" transform="translate(133.341 78.09)">
        <path id="Path_8227" data-name="Path 8227" d="M243.58,77.224H209.9V65.352A15.411,15.411,0,0,1,225.055,49.9l18.526.291Z" transform="translate(-209.9 -49.398)" fill="#e0e0e0"/>
        <path id="Path_8228" data-name="Path 8228" d="M233.19,49.668s19.17-1.741,19.17,23.259V267.383H402.794V65.858A16.524,16.524,0,0,0,386.239,49.34Z" transform="translate(-218.76 -49.185)" fill="#fff"/>
        <path id="Path_8229" data-name="Path 8229" d="M233.144,49.573l111.3-.359,26.952-.074,14.331-.043A16.641,16.641,0,0,1,402.4,61.841a15.116,15.116,0,0,1,.353,1.915c.087.62.081,1.295.124,1.945V267.449H252.135V267.3c0-67.324.043-124.493.062-164.809v-27c0-1.97,0-3.866-.112-5.682a34.564,34.564,0,0,0-.719-5.18,26.9,26.9,0,0,0-1.475-4.542,20.787,20.787,0,0,0-2.156-3.717,16.425,16.425,0,0,0-5.434-4.653,17.868,17.868,0,0,0-4.957-1.747,18.2,18.2,0,0,0-3.185-.359h-1.09a9.16,9.16,0,0,1,1.09,0,18.364,18.364,0,0,1,3.2.335,17.844,17.844,0,0,1,4.957,1.735,16.388,16.388,0,0,1,5.471,4.659,20.97,20.97,0,0,1,2.181,3.718,27.122,27.122,0,0,1,1.493,4.56,34.688,34.688,0,0,1,.731,5.2c.136,1.822.118,3.717.118,5.688v27c0,40.341.031,97.51.056,164.809l-.149-.143H402.65l-.161.161V69.6c-.037-2.608.192-5.223-.465-7.7a16.057,16.057,0,0,0-16.276-12.516H371.386l-27,.043Z" transform="translate(-218.714 -49.09)" fill="#263238"/>
        <path id="Path_8230" data-name="Path 8230" d="M342.952,145.021c0,.087-9.151.161-20.446.161s-20.446-.074-20.446-.161,9.145-.161,20.446-.161S342.952,144.947,342.952,145.021Z" transform="translate(-244.959 -85.522)" fill="#263238"/>
        <path id="Path_8231" data-name="Path 8231" d="M352.129,152.9c0,.093-11.2.161-25.013.161s-25.006-.068-25.006-.161,11.2-.161,25.006-.161S352.129,152.814,352.129,152.9Z" transform="translate(-244.978 -88.52)" fill="#263238"/>
        <path id="Path_8232" data-name="Path 8232" d="M356.428,183.951c0,.087-11.561.161-25.824.161s-25.824-.074-25.824-.161,11.561-.161,25.824-.161S356.428,183.858,356.428,183.951Z" transform="translate(-245.994 -100.332)" fill="#263238"/>
        <path id="Path_8233" data-name="Path 8233" d="M389.575,214.211c0,.087-19.331.161-43.172.161s-43.172-.074-43.172-.161,19.325-.161,43.172-.161S389.575,214.118,389.575,214.211Z" transform="translate(-245.404 -111.844)" fill="#263238"/>
        <path id="Path_8234" data-name="Path 8234" d="M389.575,223.231c0,.093-19.331.161-43.172.161s-43.172-.068-43.172-.161,19.325-.161,43.172-.161S389.575,223.144,389.575,223.231Z" transform="translate(-245.404 -115.275)" fill="#263238"/>
        <path id="Path_8235" data-name="Path 8235" d="M389.575,232.261c0,.093-19.331.161-43.172.161s-43.172-.068-43.172-.161,19.325-.161,43.172-.161S389.575,232.174,389.575,232.261Z" transform="translate(-245.404 -118.71)" fill="#263238"/>
        <path id="Path_8236" data-name="Path 8236" d="M389.575,241.291c0,.087-19.331.161-43.172.161s-43.172-.074-43.172-.161,19.325-.161,43.172-.161S389.575,241.2,389.575,241.291Z" transform="translate(-245.404 -122.145)" fill="#263238"/>
        <path id="Path_8237" data-name="Path 8237" d="M389.575,250.321c0,.087-19.331.161-43.172.161s-43.172-.074-43.172-.161,19.325-.161,43.172-.161S389.575,250.228,389.575,250.321Z" transform="translate(-245.404 -125.58)" fill="#263238"/>
        <path id="Path_8238" data-name="Path 8238" d="M335.975,259.351c0,.087-7.336.161-16.376.161s-16.369-.074-16.369-.161,7.33-.161,16.369-.161S335.975,259.258,335.975,259.351Z" transform="translate(-245.404 -129.016)" fill="#263238"/>
        <path id="Path_8239" data-name="Path 8239" d="M325.21,96.325a3.476,3.476,0,0,1,3.717-3.5,3.556,3.556,0,0,1,2.893,1.239l-1.208,1.1a2,2,0,0,0-1.586-.787,1.921,1.921,0,1,0,0,3.841,2,2,0,0,0,1.586-.787l1.208,1.09a3.556,3.556,0,0,1-2.893,1.27,3.476,3.476,0,0,1-3.717-3.463Z" transform="translate(-253.766 -65.724)" fill="#263238"/>
        <path id="Path_8240" data-name="Path 8240" d="M342.607,98.3v1.468h-5.4V93.05h5.273v1.468h-3.4v1.134h2.993v1.425h-2.993v1.239Z" transform="translate(-258.331 -65.813)" fill="#263238"/>
        <path id="Path_8241" data-name="Path 8241" d="M350.567,97.976h-1.035V99.76h-1.9V93.05h3.1c1.859,0,2.986.948,2.986,2.478a2.231,2.231,0,0,1-1.32,2.119l1.456,2.113h-2.038Zm0-3.439h-1.053v1.97h1.053c.787,0,1.183-.366,1.183-.979s-.378-.979-1.165-.979Z" transform="translate(-262.295 -65.813)" fill="#263238"/>
        <path id="Path_8242" data-name="Path 8242" d="M359.983,94.556H357.92V93.05h6.022v1.506h-2.057v5.217h-1.9Z" transform="translate(-266.209 -65.813)" fill="#263238"/>
        <path id="Path_8243" data-name="Path 8243" d="M368.79,93.05h1.9v6.722h-1.9Z" transform="translate(-270.345 -65.813)" fill="#263238"/>
        <path id="Path_8244" data-name="Path 8244" d="M375.952,94.518V96h2.968v1.468h-2.968v2.3h-1.9V93.05h5.273v1.468Z" transform="translate(-272.346 -65.813)" fill="#263238"/>
        <path id="Path_8245" data-name="Path 8245" d="M384,93.05h1.9v6.722H384Z" transform="translate(-276.131 -65.813)" fill="#263238"/>
        <path id="Path_8246" data-name="Path 8246" d="M388.7,96.326a3.482,3.482,0,0,1,3.717-3.5,3.544,3.544,0,0,1,2.887,1.239l-1.208,1.1a1.989,1.989,0,0,0-1.586-.787,1.921,1.921,0,1,0,0,3.841,1.989,1.989,0,0,0,1.586-.787l1.208,1.09a3.544,3.544,0,0,1-2.887,1.27A3.442,3.442,0,0,1,388.7,96.326Z" transform="translate(-277.919 -65.724)" fill="#263238"/>
        <path id="Path_8247" data-name="Path 8247" d="M404.52,98.465h-2.838l-.533,1.307H399.21l2.968-6.722h1.859l2.974,6.722h-1.976Zm-.551-1.4-.867-2.15-.867,2.15Z" transform="translate(-281.917 -65.813)" fill="#263238"/>
        <path id="Path_8248" data-name="Path 8248" d="M413.2,94.556H411.14V93.05h6.022v1.506h-2.057v5.217h-1.9Z" transform="translate(-286.455 -65.813)" fill="#263238"/>
        <path id="Path_8249" data-name="Path 8249" d="M422,93.05h1.9v6.722H422Z" transform="translate(-290.587 -65.813)" fill="#263238"/>
        <path id="Path_8250" data-name="Path 8250" d="M426.7,96.331a3.725,3.725,0,1,1,3.717,3.494A3.513,3.513,0,0,1,426.7,96.331Zm5.576,0a1.815,1.815,0,1,0-1.815,1.921,1.8,1.8,0,0,0,1.791-1.921Z" transform="translate(-292.375 -65.729)" fill="#263238"/>
        <path id="Path_8251" data-name="Path 8251" d="M446.774,93.05v6.722h-1.568l-2.968-3.581v3.581H440.38V93.05h1.561l2.968,3.581V93.05Z" transform="translate(-297.579 -65.813)" fill="#263238"/>
        <path id="Path_8252" data-name="Path 8252" d="M439.486,297.461c0,.087-8.575.161-19.145.161s-19.151-.074-19.151-.161,8.575-.161,19.151-.161S439.486,297.374,439.486,297.461Z" transform="translate(-282.67 -143.513)" fill="#263238"/>
        <path id="Path_8253" data-name="Path 8253" d="M439.486,306.173c0,.087-8.575.161-19.145.161s-19.151-.074-19.151-.161,8.556-.173,19.157-.173S439.486,306.087,439.486,306.173Z" transform="translate(-282.67 -146.823)" fill="#263238"/>
        <path id="Path_8254" data-name="Path 8254" d="M438.437,333.9a1.357,1.357,0,0,1,0-.273c0-.192-.031-.452-.056-.787a4.973,4.973,0,0,0-.037-.576,5.119,5.119,0,0,0-.105-.694,12.227,12.227,0,0,0-.353-1.71,15.608,15.608,0,0,0-1.859-4.393,16.468,16.468,0,0,0-19.783-7.02,17.2,17.2,0,0,0-2.144.942,17.959,17.959,0,0,0-2.02,1.295,18.7,18.7,0,0,0-1.859,1.586,19.127,19.127,0,0,0-1.611,1.908,15.812,15.812,0,0,0-2.348,4.529,16.283,16.283,0,0,0,0,10.378,15.813,15.813,0,0,0,2.348,4.529,19.136,19.136,0,0,0,1.611,1.908,18.7,18.7,0,0,0,1.859,1.586,15.438,15.438,0,0,0,4.164,2.243,16.462,16.462,0,0,0,19.777-7.026,15.606,15.606,0,0,0,1.859-4.393,12.041,12.041,0,0,0,.353-1.71c.037-.248.081-.477.105-.688s0-.409.037-.582c0-.335.043-.62.056-.787a1.238,1.238,0,0,1,0-.266,1.423,1.423,0,0,1,0,.266v1.375a5.326,5.326,0,0,1-.093.7,11.257,11.257,0,0,1-.322,1.722,15.683,15.683,0,0,1-1.809,4.455,16.654,16.654,0,0,1-20.037,7.212,17.436,17.436,0,0,1-2.187-.954,16.783,16.783,0,0,1-2.057-1.32,18.631,18.631,0,0,1-1.908-1.611,19.212,19.212,0,0,1-1.642-1.945,16.108,16.108,0,0,1-2.4-4.616,16.555,16.555,0,0,1,0-10.576,16.19,16.19,0,0,1,2.4-4.616,18.391,18.391,0,0,1,1.648-1.939,18.744,18.744,0,0,1,1.9-1.617,16.679,16.679,0,0,1,24.281,4.957,15.755,15.755,0,0,1,1.809,4.455,11.185,11.185,0,0,1,.322,1.729c.037.254.074.483.093.694s0,.409,0,.589v.787A1.516,1.516,0,0,1,438.437,333.9Z" transform="translate(-284.161 -151.074)" fill="#d16800"/>
        <circle id="Ellipse_105" data-name="Ellipse 105" cx="10.669" cy="10.669" r="10.669" transform="matrix(0.231, -0.973, 0.973, 0.231, 124.817, 190.726)" fill="#d16800"/>
        <path id="Path_8255" data-name="Path 8255" d="M434.207,329.34l-.446.248-1.332.706-5.124,2.67-8.1,4.219a8.153,8.153,0,0,1-2.633.843,3.581,3.581,0,0,1-2.8-.855,2.621,2.621,0,0,1-.824-1.332,1.691,1.691,0,0,1,.353-1.568,2.224,2.224,0,0,1,1.493-.719,1.394,1.394,0,0,1,1.462.818v.043a7.36,7.36,0,0,1-1.791,4.876,6.933,6.933,0,0,1-4.957,2.478A7.515,7.515,0,0,1,404,339.78a5.006,5.006,0,0,1-1.586-2.67,2.553,2.553,0,0,1,.211-1.611,2.3,2.3,0,0,1,1.2-1.128,1.729,1.729,0,0,1,1.654.229,2.8,2.8,0,0,1,.936,1.388,4.957,4.957,0,0,1,.254,1.642,4.645,4.645,0,0,1,0,.83,5.342,5.342,0,0,1-.105.83A9.634,9.634,0,0,1,403.11,345a8.445,8.445,0,0,1-6.568,1.859,9.474,9.474,0,0,1-6.01-3.656,9,9,0,0,1-1.722-3.717,6.921,6.921,0,0,1,.3-4.04,3.426,3.426,0,0,1,1.326-1.561,2.844,2.844,0,0,1,2.007-.378,2.367,2.367,0,0,1,1.586,1.239,7.281,7.281,0,0,1,.657,1.859,13.259,13.259,0,0,1-.458,7.54,10.774,10.774,0,0,1-4.554,5.576,10.532,10.532,0,0,1-6.71,1.468,8.754,8.754,0,0,1-3.178-1.029,8.612,8.612,0,0,1-2.478-2.1,8.934,8.934,0,0,1-2.051-5.688,7.522,7.522,0,0,1,.62-2.838,3.445,3.445,0,0,1,1.921-1.976,2.534,2.534,0,0,1,1.375-.037,2.936,2.936,0,0,1,1.134.688,5.422,5.422,0,0,1,1.307,2.144,7,7,0,0,1,.415,2.323c0,.384,0,.756,0,1.128a10.288,10.288,0,0,1-.068,1.084,18.619,18.619,0,0,1-2.088,6.958,18.093,18.093,0,0,1-2.652,3.761c-.353.39-.651.663-.849.849s-.3.273-.3.273.093-.105.285-.3.471-.471.818-.867a19.01,19.01,0,0,0,2.59-3.773,18.724,18.724,0,0,0,2.02-6.915c.037-.353.056-.713.062-1.078s0-.737,0-1.115a6.9,6.9,0,0,0-.415-2.261,5.217,5.217,0,0,0-1.239-2.051,2.671,2.671,0,0,0-1.047-.62,2.28,2.28,0,0,0-1.239.037,3.228,3.228,0,0,0-1.778,1.859,7.355,7.355,0,0,0-.564,2.739,8.742,8.742,0,0,0,2.007,5.52,8.147,8.147,0,0,0,5.471,3.011,10.273,10.273,0,0,0,6.524-1.437,10.465,10.465,0,0,0,4.418-5.446,12.912,12.912,0,0,0,.44-7.361,6.871,6.871,0,0,0-.62-1.778,2.063,2.063,0,0,0-1.382-1.1,2.478,2.478,0,0,0-1.772.347,2.986,2.986,0,0,0-1.2,1.419,6.531,6.531,0,0,0-.285,3.841,8.674,8.674,0,0,0,1.667,3.587,9.182,9.182,0,0,0,5.8,3.532,8.154,8.154,0,0,0,6.32-1.815,9.294,9.294,0,0,0,3.346-5.514,7.437,7.437,0,0,0,.124-1.6,4.629,4.629,0,0,0-.235-1.549,2.572,2.572,0,0,0-.824-1.239,1.431,1.431,0,0,0-1.369-.186,2.026,2.026,0,0,0-1.041.979,2.255,2.255,0,0,0-.186,1.425,4.7,4.7,0,0,0,1.5,2.478,7.212,7.212,0,0,0,5.285,1.927,6.636,6.636,0,0,0,4.752-2.379,7.119,7.119,0,0,0,1.747-4.7v.043a1.134,1.134,0,0,0-1.239-.663,1.964,1.964,0,0,0-1.326.62,1.468,1.468,0,0,0-.31,1.363,2.386,2.386,0,0,0,.756,1.239,3.315,3.315,0,0,0,2.621.805,7.845,7.845,0,0,0,2.571-.805l8.117-4.133,5.161-2.608,1.345-.675Z" transform="translate(-272.806 -155.702)" fill="#263238"/>
        <path id="Path_8256" data-name="Path 8256" d="M344.874,82.551c0,.093-13.1.167-29.269.167s-29.275-.074-29.275-.167,13.1-.161,29.275-.161S344.874,82.464,344.874,82.551Z" transform="translate(-238.975 -61.758)" fill="#e0e0e0"/>
        <path id="Path_8257" data-name="Path 8257" d="M394.074,82.551a12.429,12.429,0,0,1-4.064,0,12.9,12.9,0,0,1,4.064,0Z" transform="translate(-278.417 -61.758)" fill="#e0e0e0"/>
        <path id="Path_8258" data-name="Path 8258" d="M457.846,82.551c0,.093-11.958.167-26.7.167s-26.7-.074-26.7-.167,11.946-.161,26.7-.161S457.846,82.464,457.846,82.551Z" transform="translate(-283.91 -61.758)" fill="#e0e0e0"/>
        <path id="Path_8259" data-name="Path 8259" d="M344.874,108.841c0,.093-13.1.161-29.269.161s-29.275-.068-29.275-.161,13.1-.161,29.275-.161S344.874,108.754,344.874,108.841Z" transform="translate(-238.975 -71.759)" fill="#e0e0e0"/>
        <path id="Path_8260" data-name="Path 8260" d="M394.074,108.841a12.9,12.9,0,0,1-4.064,0,12.9,12.9,0,0,1,4.064,0Z" transform="translate(-278.417 -71.759)" fill="#e0e0e0"/>
        <path id="Path_8261" data-name="Path 8261" d="M457.846,108.841c0,.093-11.958.161-26.7.161s-26.7-.068-26.7-.161,11.946-.161,26.7-.161S457.846,108.754,457.846,108.841Z" transform="translate(-283.91 -71.759)" fill="#e0e0e0"/>
      </g>
      <g id="freepik--Label--inject-4" transform="translate(273.559 113.387)">
        <path id="Path_8262" data-name="Path 8262" d="M458.032,213l-15.359,35.694a.9.9,0,0,0,1.19,1.183l11.84-5.229a.9.9,0,0,1,1.239.545l4,11.989a.9.9,0,0,0,1.7,0l14.442-38.5Z" transform="translate(-438.639 -146.741)" fill="#d16800"/>
        <path id="Path_8263" data-name="Path 8263" d="M499.82,218.967l7.354,38.154a.9.9,0,0,0,1.654.31l6.853-10.973a.9.9,0,0,1,1.313-.242l10.044,7.677a.9.9,0,0,0,1.425-.929L518.761,213Z" transform="translate(-460.408 -146.741)" fill="#d16800"/>
        <g id="Group_1460" data-name="Group 1460" transform="translate(3.956 66.259)" opacity="0.3">
          <path id="Path_8264" data-name="Path 8264" d="M458.032,213l-15.359,35.694a.9.9,0,0,0,1.19,1.183l11.84-5.229a.9.9,0,0,1,1.239.545l4,11.989a.9.9,0,0,0,1.7,0l14.442-38.5Z" transform="translate(-442.596 -213)"/>
        </g>
        <g id="Group_1461" data-name="Group 1461" transform="translate(39.412 66.259)" opacity="0.3">
          <path id="Path_8265" data-name="Path 8265" d="M499.82,218.967l7.354,38.154a.9.9,0,0,0,1.654.31l6.853-10.973a.9.9,0,0,1,1.313-.242l10.044,7.677a.9.9,0,0,0,1.425-.929L518.761,213Z" transform="translate(-499.82 -213)"/>
        </g>
        <path id="Path_8266" data-name="Path 8266" d="M476.365,109.785l5.043-3.705,3.965,4.839,5.805-2.33,2.633,5.675,6.208-.818,1.134,6.152,6.214.75-.428,6.245,5.83,2.268-1.964,5.942,5.081,3.656-3.377,5.266,4.015,4.8-4.591,4.263,2.7,5.644-5.5,2.986,1.208,6.14-6.072,1.524-.359,6.245-6.258-.031-1.9,5.96-6.053-1.586-3.327,5.3-5.465-3.042-4.542,4.306-4.535-4.306-5.465,3.042-3.327-5.3-6.053,1.586-1.9-5.96-6.258.031-.359-6.245-6.072-1.524,1.208-6.14-5.5-2.986,2.7-5.644-4.585-4.263,4.015-4.8-3.377-5.266,5.081-3.656-1.97-5.942,5.836-2.268-.427-6.245,6.214-.75,1.134-6.152,6.208.818,2.633-5.675,5.806,2.33,3.959-4.839Z" transform="translate(-436.21 -106.067)" fill="#d16800"/>
        <circle id="Ellipse_106" data-name="Ellipse 106" cx="28.346" cy="28.346" r="28.346" transform="translate(0.069 40.087) rotate(-45)" fill="#fff"/>
        <path id="Path_8267" data-name="Path 8267" d="M498.25,154.659l7.6,1.115a1.524,1.524,0,0,1,.843,2.6l-5.508,5.359a1.518,1.518,0,0,0-.44,1.351l1.295,7.59a1.524,1.524,0,0,1-2.212,1.6l-6.815-3.587a1.512,1.512,0,0,0-1.419,0l-6.815,3.569a1.524,1.524,0,0,1-2.206-1.611l1.307-7.571a1.53,1.53,0,0,0-.434-1.351l-5.5-5.372a1.524,1.524,0,0,1,.849-2.6l7.608-1.1a1.506,1.506,0,0,0,1.146-.83l3.414-6.89a1.524,1.524,0,0,1,2.732,0l3.389,6.9A1.518,1.518,0,0,0,498.25,154.659Z" transform="translate(-451.911 -121.288)" fill="#d16800"/>
      </g>
    </g>
  </g>
</svg>
