<svg xmlns="http://www.w3.org/2000/svg" xmlns:xlink="http://www.w3.org/1999/xlink" width="289" height="289" viewBox="0 0 289 289">
  <defs>
    <filter id="Ellipse_125" x="0" y="0" width="289" height="289" filterUnits="userSpaceOnUse">
      <feOffset dy="3" input="SourceAlpha"/>
      <feGaussianBlur stdDeviation="3" result="blur"/>
      <feFlood flood-color="#e2e2e2"/>
      <feComposite operator="in" in2="blur"/>
      <feComposite in="SourceGraphic"/>
    </filter>
  </defs>
  <g id="Group_1583" data-name="Group 1583" transform="translate(-1676.5 -3416.854)">
    <g transform="matrix(1, 0, 0, 1, 1676.5, 3416.85)" filter="url(#Ellipse_125)">
      <g id="Ellipse_125-2" data-name="Ellipse 125" transform="translate(9 6)" fill="#fff4ea" stroke="#b45d0e" stroke-width="1">
        <circle cx="135.5" cy="135.5" r="135.5" stroke="none"/>
        <circle cx="135.5" cy="135.5" r="135" fill="none"/>
      </g>
    </g>
    <g id="Phone_maintenance-pana" data-name="Phone maintenance-pana" transform="translate(1693.586 3373.092)">
      <g id="freepik--Device--inject-427" transform="translate(110.913 65.54)">
        <path id="Path_9437" data-name="Path 9437" d="M257.5,302.182l-76.505-.047c-9.2,0-16.66-7.846-16.654-17.516l.035-201.57c0-9.675,7.469-17.516,16.678-17.51l76.505.047c9.2,0,16.66,7.846,16.654,17.516l-.035,201.581C274.178,294.348,266.709,302.188,257.5,302.182Z" transform="translate(-164.34 -65.54)" fill="#263238"/>
        <path id="Path_9438" data-name="Path 9438" d="M261,77.692H246.171a3.793,3.793,0,0,0-3.6,3.953V84.47a3.79,3.79,0,0,1-3.6,3.959H210.06a3.79,3.79,0,0,1-3.6-3.959V81.639a3.793,3.793,0,0,0-3.6-3.959h-18.2c-6.448,0-11.681,5.487-11.681,12.265l-.035,196.75c0,6.773,5.221,12.265,11.663,12.265l76.358.047c6.448,0,11.675-5.487,11.675-12.265l.041-196.779C272.678,83.178,267.451,77.7,261,77.692Z" transform="translate(-167.866 -70.518)" fill="#fff"/>
        <path id="Path_9439" data-name="Path 9439" d="M273.859,237.78a5.31,5.31,0,1,1-5.31-5.31A5.31,5.31,0,0,1,273.859,237.78Z" transform="translate(-204.894 -133.989)" fill="#d16800"/>
        <ellipse id="Ellipse_126" data-name="Ellipse 126" cx="5.664" cy="5.675" rx="5.664" ry="5.675" transform="translate(42.194 98.115)" fill="#d16800"/>
        <ellipse id="Ellipse_127" data-name="Ellipse 127" cx="6.012" cy="6.023" rx="6.012" ry="6.023" transform="translate(29.71 87.726)" fill="#d16800"/>
        <ellipse id="Ellipse_128" data-name="Ellipse 128" cx="6.277" cy="6.295" rx="6.277" ry="6.295" transform="translate(26.985 72.01)" fill="#d16800"/>
        <ellipse id="Ellipse_129" data-name="Ellipse 129" cx="6.489" cy="6.507" rx="6.489" ry="6.507" transform="translate(34.459 58.282)" fill="#d16800"/>
        <ellipse id="Ellipse_130" data-name="Ellipse 130" cx="7.074" cy="7.091" rx="7.074" ry="7.091" transform="translate(48.654 52.353)" fill="#d16800"/>
        <path id="Path_9440" data-name="Path 9440" d="M293.677,220.66a5.138,5.138,0,1,1-5.139-5.15A5.139,5.139,0,0,1,293.677,220.66Z" transform="translate(-213.16 -127.035)" fill="#d16800"/>
        <ellipse id="Ellipse_131" data-name="Ellipse 131" cx="4.767" cy="4.779" rx="4.767" ry="4.779" transform="translate(73.361 73.355)" fill="#d16800"/>
        <ellipse id="Ellipse_132" data-name="Ellipse 132" cx="4.354" cy="4.366" rx="4.354" ry="4.366" transform="translate(65.845 60.24)" fill="#d16800"/>
        <g id="Group_1521" data-name="Group 1521" transform="translate(58.346 98.481)" opacity="0.5">
          <path id="Path_9441" data-name="Path 9441" d="M273.859,237.78a5.31,5.31,0,1,1-5.31-5.31A5.31,5.31,0,0,1,273.859,237.78Z" transform="translate(-263.24 -232.47)" fill="#fff"/>
        </g>
        <g id="Group_1522" data-name="Group 1522" transform="translate(42.194 98.115)" opacity="0.4">
          <ellipse id="Ellipse_133" data-name="Ellipse 133" cx="5.664" cy="5.675" rx="5.664" ry="5.675" transform="translate(0 0)" fill="#fff"/>
        </g>
        <g id="Group_1523" data-name="Group 1523" transform="translate(29.71 87.726)" opacity="0.3">
          <ellipse id="Ellipse_134" data-name="Ellipse 134" cx="6.012" cy="6.023" rx="6.012" ry="6.023" fill="#fff"/>
        </g>
        <g id="Group_1524" data-name="Group 1524" transform="translate(26.985 72.01)" opacity="0.2">
          <ellipse id="Ellipse_135" data-name="Ellipse 135" cx="6.277" cy="6.295" rx="6.277" ry="6.295" transform="translate(0 0)" fill="#fff"/>
        </g>
        <g id="Group_1525" data-name="Group 1525" transform="translate(34.459 58.282)" opacity="0.1">
          <ellipse id="Ellipse_136" data-name="Ellipse 136" cx="6.489" cy="6.507" rx="6.489" ry="6.507" fill="#fff"/>
        </g>
        <g id="Group_1526" data-name="Group 1526" transform="translate(48.654 52.353)" opacity="0.2">
          <ellipse id="Ellipse_137" data-name="Ellipse 137" cx="7.074" cy="7.091" rx="7.074" ry="7.091" fill="#fff"/>
        </g>
        <g id="Group_1527" data-name="Group 1527" transform="translate(70.24 88.475)" opacity="0.6">
          <path id="Path_9442" data-name="Path 9442" d="M293.677,220.66a5.138,5.138,0,1,1-5.139-5.15A5.139,5.139,0,0,1,293.677,220.66Z" transform="translate(-283.4 -215.51)" fill="#fff"/>
        </g>
        <g id="Group_1528" data-name="Group 1528" transform="translate(73.361 73.355)" opacity="0.7">
          <ellipse id="Ellipse_138" data-name="Ellipse 138" cx="4.767" cy="4.779" rx="4.767" ry="4.779" fill="#fff"/>
        </g>
        <g id="Group_1529" data-name="Group 1529" transform="translate(65.845 60.24)" opacity="0.8">
          <ellipse id="Ellipse_139" data-name="Ellipse 139" cx="4.354" cy="4.366" rx="4.354" ry="4.366" fill="#fff"/>
        </g>
        <path id="Path_9443" data-name="Path 9443" d="M230.06,326.674a1.876,1.876,0,0,1,1.959-1.906,1.817,1.817,0,0,1,1.369.549l-.254.248a1.492,1.492,0,0,0-1.1-.442,1.552,1.552,0,1,0,0,3.1,1.475,1.475,0,0,0,1.1-.448l.254.248a1.829,1.829,0,0,1-1.375.555,1.876,1.876,0,0,1-1.953-1.906Z" transform="translate(-191.288 -171.835)" fill="#263238"/>
        <path id="Path_9444" data-name="Path 9444" d="M240.234,324.77v3.746h-.389v-1.729h-2.36v1.729h-.4V324.77h.4v1.675h2.36V324.77Z" transform="translate(-194.171 -171.836)" fill="#263238"/>
        <path id="Path_9445" data-name="Path 9445" d="M247.163,328.174v.342H244.52V324.77h2.56v.342h-2.165v1.333h1.935v.342h-1.935v1.386Z" transform="translate(-197.217 -171.836)" fill="#263238"/>
        <path id="Path_9446" data-name="Path 9446" d="M249.94,326.674a1.876,1.876,0,0,1,1.959-1.906,1.817,1.817,0,0,1,1.369.549l-.254.248a1.493,1.493,0,0,0-1.1-.442,1.552,1.552,0,1,0,0,3.1,1.475,1.475,0,0,0,1.1-.448l.254.248a1.829,1.829,0,0,1-1.375.555,1.876,1.876,0,0,1-1.953-1.906Z" transform="translate(-199.44 -171.835)" fill="#263238"/>
        <path id="Path_9447" data-name="Path 9447" d="M258.18,326.758l-.767.779v.979H257V324.77h.4v2.265l2.195-2.265h.454l-1.616,1.7,1.729,2.047h-.466Z" transform="translate(-202.335 -171.836)" fill="#263238"/>
        <path id="Path_9448" data-name="Path 9448" d="M263.44,324.77h.4v3.746h-.4Z" transform="translate(-204.976 -171.836)" fill="#263238"/>
        <path id="Path_9449" data-name="Path 9449" d="M269.291,324.77v3.746h-.324l-2.4-3.021v3.038h-.4v-3.746h.324l2.407,3.044v-3.044Z" transform="translate(-206.095 -171.836)" fill="#263238"/>
        <path id="Path_9450" data-name="Path 9450" d="M275.987,326.674h.378V328.1a2.047,2.047,0,0,1-1.369.478,1.906,1.906,0,0,1,0-3.811,1.846,1.846,0,0,1,1.392.543l-.248.248a1.581,1.581,0,1,0-1.133,2.667,1.634,1.634,0,0,0,.979-.289Z" transform="translate(-208.933 -171.835)" fill="#263238"/>
        <path id="Path_9451" data-name="Path 9451" d="M280.06,330.469a.283.283,0,0,1,.283-.289.289.289,0,0,1,.289.289.3.3,0,0,1-.289.295.289.289,0,0,1-.283-.295Z" transform="translate(-211.79 -174.055)" fill="#263238"/>
        <path id="Path_9452" data-name="Path 9452" d="M282,330.469a.283.283,0,0,1,.283-.289.289.289,0,0,1,.289.289.3.3,0,0,1-.289.295.283.283,0,0,1-.283-.295Z" transform="translate(-212.586 -174.055)" fill="#263238"/>
        <path id="Path_9453" data-name="Path 9453" d="M283.9,330.469a.283.283,0,1,1,.566,0,.289.289,0,0,1-.283.295.283.283,0,0,1-.283-.295Z" transform="translate(-213.365 -174.055)" fill="#263238"/>
        <rect id="Rectangle_1199" data-name="Rectangle 1199" width="72.016" height="14.336" rx="7.168" transform="translate(18.961 131.259)" fill="#f5f5f5"/>
        <rect id="Rectangle_1200" data-name="Rectangle 1200" width="40.034" height="14.336" rx="7.168" transform="translate(18.961 131.259)" fill="#d16800"/>
        <path id="Path_9454" data-name="Path 9454" d="M291.359,299.806c0,.743-.513,1.31-1.552,1.31a2.112,2.112,0,0,1-1.557-.59l.165-.248a1.858,1.858,0,0,0,1.386.549c.82,0,1.239-.413,1.239-1s-.389-1.021-1.593-1.021h-.9l.236-2.153h2.36v.295H289.07l-.171,1.563h.631C290.869,298.479,291.359,298.992,291.359,299.806Z" transform="translate(-215.149 -160.306)" fill="#d16800"/>
        <path id="Path_9455" data-name="Path 9455" d="M297.3,299.806c0,.743-.513,1.31-1.552,1.31a2.112,2.112,0,0,1-1.557-.59l.165-.248a1.858,1.858,0,0,0,1.386.549c.82,0,1.233-.413,1.233-1s-.383-1.021-1.587-1.021h-.9l.23-2.153h2.36v.295H295l-.165,1.563h.631C296.8,298.479,297.3,298.992,297.3,299.806Z" transform="translate(-217.584 -160.306)" fill="#d16800"/>
        <path id="Path_9456" data-name="Path 9456" d="M300.28,297.77c0-.72.4-1.18.973-1.18a1.2,1.2,0,0,1,0,2.36C300.675,298.95,300.28,298.5,300.28,297.77Zm1.717,0c0-.59-.3-.979-.743-.979s-.732.372-.732.979.295.985.732.985S302,298.383,302,297.77Zm1.959-1.18h.289l-3.026,4.442h-.271Zm-1.027,3.268c0-.726.4-1.18.979-1.18s.973.472.973,1.18-.4,1.18-.973,1.18-.979-.448-.979-1.174Zm1.711,0c0-.59-.295-.985-.732-.985s-.743.372-.743.985.3.985.743.985.732-.372.732-.979Z" transform="translate(-220.082 -160.281)" fill="#d16800"/>
        <g id="Group_1530" data-name="Group 1530" transform="translate(30.99 131.259)" opacity="0.2">
          <path id="Path_9457" data-name="Path 9457" d="M222.25,288.03l-5.38,14.165h3.953l5.021-14.165Z" transform="translate(-216.87 -288.03)" fill="#fff"/>
        </g>
        <g id="Group_1531" data-name="Group 1531" transform="translate(40.695 131.259)" opacity="0.2">
          <path id="Path_9458" data-name="Path 9458" d="M238.706,288.03l-5.386,14.165h3.959l5.015-14.165Z" transform="translate(-233.32 -288.03)" fill="#fff"/>
        </g>
        <g id="Group_1532" data-name="Group 1532" transform="translate(50.577 132.327)" opacity="0.2">
          <path id="Path_9459" data-name="Path 9459" d="M255.085,289.84l-5.015,13.186h2.36a9.283,9.283,0,0,0,1.817-.59l3.451-9.77A7.67,7.67,0,0,0,255.085,289.84Z" transform="translate(-250.07 -289.84)" fill="#fff"/>
        </g>
        <g id="Group_1533" data-name="Group 1533" transform="translate(21.988 131.241)" opacity="0.2">
          <path id="Path_9460" data-name="Path 9460" d="M206.56,288l-4.95,13.026a7.079,7.079,0,0,0,3.54,1.139l5.021-14.159Z" transform="translate(-201.61 -288)" fill="#fff"/>
        </g>
        <path id="Path_9461" data-name="Path 9461" d="M261.643,302.185a9.538,9.538,0,0,0,1.611-.236,6.714,6.714,0,0,0,3.776-2.566,6.566,6.566,0,0,0,1.221-3.091,12.193,12.193,0,0,0,.047-1.929,6.524,6.524,0,0,0-.4-2.024,6.643,6.643,0,0,0-5.192-4.289,18.542,18.542,0,0,0-2.649-.089l-56.931.047a7.4,7.4,0,0,0-2,.307,7.081,7.081,0,0,0-1.8.9,6.6,6.6,0,0,0-2.36,3.127,7.771,7.771,0,0,0,1.18,7.4,6.608,6.608,0,0,0,3.162,2.029,13.929,13.929,0,0,0,3.758.26h7.4l25.592.029,17.256.053h4.72l-4.72.03-17.256.047-25.592.035h-9.292a7.467,7.467,0,0,1-1.935-.271,6.9,6.9,0,0,1-4.944-5.77,13.028,13.028,0,0,1-.047-2.035,6.6,6.6,0,0,1,.407-2.024,6.92,6.92,0,0,1,2.507-3.28,7.384,7.384,0,0,1,1.882-.938,7.67,7.67,0,0,1,2.094-.324l56.931.041a18.289,18.289,0,0,1,2.69.2,6.8,6.8,0,0,1,5.31,4.436,8.012,8.012,0,0,1-.932,7.174,6.719,6.719,0,0,1-3.858,2.56,4.655,4.655,0,0,1-.7.124,2.867,2.867,0,0,1-.513.041A3.721,3.721,0,0,1,261.643,302.185Z" transform="translate(-177.415 -156.591)" fill="#263238"/>
        <path id="Path_9462" data-name="Path 9462" d="M204.924,420.942v4.814a.531.531,0,0,1-.814.448l-3.788-2.407a.537.537,0,0,1,0-.9l3.788-2.407a.531.531,0,0,1,.814.448Z" transform="translate(-178.995 -211.054)" fill="#e0e0e0"/>
        <path id="Path_9463" data-name="Path 9463" d="M256.383,423a3.321,3.321,0,1,1-.971-2.352A3.321,3.321,0,0,1,256.383,423Z" transform="translate(-199.358 -210.749)" fill="#e0e0e0"/>
        <rect id="Rectangle_1201" data-name="Rectangle 1201" width="6.124" height="6.141" rx="1.87" transform="translate(80.883 209.357)" fill="#e0e0e0"/>
      </g>
      <g id="freepik--character-1--inject-427" transform="translate(34.044 94.511)">
        <path id="Path_9532" data-name="Path 9532" d="M75.136,424.53l-3.575,12.584s11.392,7.9,10.955,10.283L58.24,441.243l4.785-19.793Z" transform="translate(-43.966 -240.451)" fill="#455a64"/>
        <path id="Path_9533" data-name="Path 9533" d="M67.868,442.905a1.032,1.032,0,0,0-.968.973,1,1,0,0,0,.944.985,1.091,1.091,0,0,0,1.021-1.038,1.011,1.011,0,0,0-1.091-.909" transform="translate(-47.517 -249.246)" fill="#e0e0e0"/>
        <g id="Group_1539" data-name="Group 1539" transform="translate(14.274 198.816)" opacity="0.6">
          <path id="Path_9534" data-name="Path 9534" d="M58.24,453.626l.56-1.976,23.067,6.637s.962.755.649,1.493Z" transform="translate(-58.24 -451.65)" fill="#fff"/>
        </g>
        <path id="Path_9535" data-name="Path 9535" d="M79.769,447.721c-.035.118-.637,0-1.316.266s-1.115.661-1.215.59.254-.726,1.08-1S79.822,447.621,79.769,447.721Z" transform="translate(-51.749 -251.118)" fill="#263238"/>
        <path id="Path_9536" data-name="Path 9536" d="M84,450.734c0,.118-.59.195-1.091.59s-.779.914-.9.879,0-.737.643-1.227S84.024,450.616,84,450.734Z" transform="translate(-53.697 -252.414)" fill="#263238"/>
        <path id="Path_9537" data-name="Path 9537" d="M86.522,455.375c-.118,0-.13-.643.336-1.221s1.086-.7,1.109-.59-.407.378-.779.855S86.64,455.393,86.522,455.375Z" transform="translate(-55.534 -253.604)" fill="#263238"/>
        <path id="Path_9538" data-name="Path 9538" d="M80.614,442.344c-.077.094-.59-.206-1.263-.33s-1.257-.041-1.292-.159.59-.425,1.375-.265S80.7,442.261,80.614,442.344Z" transform="translate(-52.092 -248.69)" fill="#263238"/>
        <path id="Path_9539" data-name="Path 9539" d="M63.738,431.59l-.59,13.05s12.908,4.967,13.038,7.392l-25-.195.053-20.377Z" transform="translate(-41.075 -244.555)" fill="#455a64"/>
        <path id="Path_9540" data-name="Path 9540" d="M57.892,451.84a1.038,1.038,0,0,0-.714,1.18.991.991,0,0,0,1.145.732,1.091,1.091,0,0,0,.749-1.227A1.009,1.009,0,0,0,57.8,451.9" transform="translate(-43.523 -252.912)" fill="#e0e0e0"/>
        <g id="Group_1540" data-name="Group 1540" transform="translate(10.115 205.229)" opacity="0.6">
          <path id="Path_9541" data-name="Path 9541" d="M51.19,464.573l.083-2.053,23.958.956s1.109.5.979,1.3Z" transform="translate(-51.19 -462.52)" fill="#fff"/>
        </g>
        <path id="Path_9542" data-name="Path 9542" d="M70.6,453.519c0,.124-.59.177-1.221.59s-.926.914-1.038.861.077-.761.814-1.221S70.628,453.407,70.6,453.519Z" transform="translate(-48.094 -253.559)" fill="#263238"/>
        <path id="Path_9543" data-name="Path 9543" d="M75.467,455.455c0,.118-.507.324-.926.85s-.543,1.074-.661,1.062-.195-.7.336-1.339S75.462,455.337,75.467,455.455Z" transform="translate(-50.344 -254.374)" fill="#263238"/>
        <path id="Path_9544" data-name="Path 9544" d="M79.01,459.427c-.112,0-.277-.59.041-1.274s.9-.938.944-.838-.3.466-.555,1.026S79.134,459.416,79.01,459.427Z" transform="translate(-52.423 -255.148)" fill="#263238"/>
        <path id="Path_9545" data-name="Path 9545" d="M70.052,448.214c-.053.112-.59-.059-1.3,0s-1.227.26-1.292.153.46-.549,1.274-.59S70.135,448.12,70.052,448.214Z" transform="translate(-47.742 -251.245)" fill="#263238"/>
        <path id="Path_9546" data-name="Path 9546" d="M46.009,269.75v10.324l2.737,40.211S47.059,339.8,46,350.81c-.909,9.563.59,26.218.59,26.218H62.515l5.7-55.544,3.54-34.642,6.136-15.764Z" transform="translate(-38.825 -178.247)" fill="#263238"/>
        <path id="Path_9547" data-name="Path 9547" d="M94.045,269.75l1.54,41.916c-.106,7.864-2.271,22.548-5.085,29.881L77.7,369.659l-.737,2.531-9.516-2.33,7.074-99.372Z" transform="translate(-47.742 -178.247)" fill="#263238"/>
        <path id="Path_9548" data-name="Path 9548" d="M85.76,288.57a1.356,1.356,0,0,1,0,.254v3.563c0,2.46,0,6.018-.077,10.413s-.212,9.628-.525,15.433a124.478,124.478,0,0,1-2.094,18.79c-1.2,6.59-2.525,12.843-3.7,18.53s-2.23,10.814-3.015,15.138-1.357,7.835-1.7,10.271c-.183,1.215-.277,2.165-.366,2.8-.041.313-.077.555-.1.732a1.181,1.181,0,0,1-.047.248,1.362,1.362,0,0,1,0-.254c0-.177.035-.419.065-.732.071-.643.147-1.593.313-2.814.289-2.442.814-5.959,1.569-10.295s1.77-9.439,2.95-15.156,2.5-11.941,3.758-18.53a129.1,129.1,0,0,0,2.112-18.749c.342-5.77.484-11.026.59-15.421s.147-7.947.177-10.407v-3.563A2.018,2.018,0,0,1,85.76,288.57Z" transform="translate(-50.477 -185.964)" fill="#455a64"/>
        <path id="Path_9549" data-name="Path 9549" d="M119.825,250.2a7.144,7.144,0,0,1,.236,2.413c-.118,1.233-.177,4.277-3.469,5.31s-6.4-1.434-7.4-2.549-.891-4.767-.891-4.767l5.41-2.407Z" transform="translate(-64.49 -169.41)" fill="#d16800"/>
        <path id="Path_9550" data-name="Path 9550" d="M54.834,172.606l-2.737,4.4L41,181.726l2.779,45.55,1.994,8.259,36.949-1.227.914-6.4V197.2c-.838-7.882-4.643-12.778-8.177-14.719l-2.307-1.581-.885-2.9-3.257-3.05L58.575,172.24Z" transform="translate(-36.896 -138.263)" fill="#d16800"/>
        <g id="Group_1541" data-name="Group 1541" transform="translate(5.655 77.681)" opacity="0.3">
          <path id="Path_9551" data-name="Path 9551" d="M43.63,254.19a11.321,11.321,0,0,0,11.162,4.967c3.711-.625,6.843-3.074,10.4-4.295,6.189-2.136,13.25-.437,19.351-2.814.118-1.05.047-2.36.118-3.056-3.05-.159-6.3-.33-9-1.77l-2.448-.9Z" transform="translate(-43.63 -246.32)"/>
        </g>
        <path id="Path_9552" data-name="Path 9552" d="M38.207,188.33s-5.268,4.507-3.74,16.259c1.416,10.914,3.929,26.123,7.28,27.887s10.584.879,15.876-2.118,20.648-11.115,20.648-11.115l-6.354-11.292-20.466,7.941s-2.649-18.112-4.236-21.238" transform="translate(-34.103 -144.861)" fill="#d16800"/>
        <path id="Path_9553" data-name="Path 9553" d="M47.156,194.724s.059.112.159.342c.047.118.118.26.183.437l.2.619c.3.932.661,2.36,1.05,4.171.791,3.664,1.77,9,2.749,15.64l-.147-.088L71.8,207.88l.112-.047.065.106c2.006,3.569,4.13,7.363,6.354,11.286l.077.136-.147.1L65.144,226.54,58.708,230a30.281,30.281,0,0,1-3.2,1.628,27.066,27.066,0,0,1-3.345,1.18,22.147,22.147,0,0,1-6.826.791,9.994,9.994,0,0,1-3.28-.69l-.383-.171a3.539,3.539,0,0,1-.372-.23,4.128,4.128,0,0,1-.59-.59,8.164,8.164,0,0,1-.867-1.392,31.78,31.78,0,0,1-2.047-5.9c-.519-1.965-.926-3.894-1.292-5.758-.726-3.74-1.263-7.245-1.711-10.448a49.531,49.531,0,0,1-.726-8.7,21.7,21.7,0,0,1,1.18-6.49,14.159,14.159,0,0,1,1.941-3.687,7.911,7.911,0,0,1,.7-.826,2.2,2.2,0,0,1,.271-.248l-.254.265c-.159.183-.4.46-.673.844a14.968,14.968,0,0,0-1.876,3.693,21.675,21.675,0,0,0-1.1,6.448,50.221,50.221,0,0,0,.767,8.666c.46,3.2,1.015,6.7,1.77,10.424.372,1.864.785,3.788,1.3,5.74a31.333,31.333,0,0,0,2.041,5.864,8.129,8.129,0,0,0,.838,1.345,3.711,3.711,0,0,0,.549.549,2.512,2.512,0,0,0,.324.2l.366.165a9.593,9.593,0,0,0,3.186.661,21.616,21.616,0,0,0,6.7-.9,26.388,26.388,0,0,0,3.3-1.145c1.08-.466,2.106-1.05,3.168-1.616l6.442-3.469,13.126-7.079-.059.206L71.734,208.08l.171.059L51.428,216.05l-.124.053v-.142c-.979-6.637-1.9-11.982-2.649-15.64-.372-1.835-.714-3.245-.991-4.183-.071-.236-.13-.442-.189-.625l-.165-.437A3.289,3.289,0,0,1,47.156,194.724Z" transform="translate(-34.044 -144.918)" fill="#263238"/>
        <path id="Path_9554" data-name="Path 9554" d="M59.26,209.8l13.292-.873,2.938,5.528-14.9,2.678Z" transform="translate(-44.384 -153.308)" fill="#d16800"/>
        <path id="Path_9555" data-name="Path 9555" d="M59.248,209.7a4.842,4.842,0,0,1,.124.531c.071.372.171.861.295,1.475.248,1.292.59,3.1,1.027,5.31l-.136-.094,13.41-2.448,1.487-.265-.112.218c-1.027-1.947-2.018-3.805-2.95-5.528l.136.071-9.522.555-2.761.147H59.23a1.414,1.414,0,0,1,.236,0l.708-.065,2.726-.218,9.61-.7H72.6l.041.083,2.95,5.522.1.183-.206.041-1.481.265-13.427,2.36h-.112v-.112c-.378-2.254-.69-4.094-.914-5.41-.1-.59-.177-1.091-.236-1.451A4.13,4.13,0,0,1,59.248,209.7Z" transform="translate(-44.372 -153.209)" fill="#263238"/>
        <path id="Path_9556" data-name="Path 9556" d="M60.932,235.05c.083.065-1.109,1.463-2.1,3.457s-1.416,3.788-1.522,3.758a4.088,4.088,0,0,1,.224-1.18,14.613,14.613,0,0,1,1.021-2.714,14.336,14.336,0,0,1,1.552-2.448,3.964,3.964,0,0,1,.826-.873Z" transform="translate(-43.584 -164.018)" fill="#263238"/>
        <path id="Path_9557" data-name="Path 9557" d="M75.32,187.486a4.583,4.583,0,0,1-.737-.525l-1.929-1.534h.165a17.864,17.864,0,0,1-2.637,3.31l-.094.094-.106-.088-2.035-1.693c-2.183-1.77-4.224-3.327-5.711-4.425l-1.77-1.3a4.129,4.129,0,0,1-.625-.5,4.158,4.158,0,0,1,.7.407c.437.277,1.062.69,1.823,1.221,1.522,1.056,3.587,2.578,5.776,4.366.714.59,1.4,1.18,2.035,1.7h-.206a19.375,19.375,0,0,0,2.655-3.221l.071-.112.094.089,1.9,1.587a6.238,6.238,0,0,1,.637.625Z" transform="translate(-44.622 -141.781)" fill="#263238"/>
        <path id="Path_9558" data-name="Path 9558" d="M91.871,186.874a2.124,2.124,0,0,1,.106.737,10.76,10.76,0,0,1-.065,1.97l-.041.348-.2-.295a24.244,24.244,0,0,0-1.581-2.041c-.236-.277-.478-.537-.714-.785a4.834,4.834,0,0,0-.342-.348c-.118-.077-.1-.077-.206.035l-.979,1.363a7.783,7.783,0,0,1-.968,1.221,7.964,7.964,0,0,1,.791-1.345l.932-1.41a.383.383,0,0,1,.59-.094c.153.13.248.236.378.366.242.248.49.513.732.8a18.383,18.383,0,0,1,1.569,2.094l-.248.059C91.889,187.96,91.806,186.874,91.871,186.874Z" transform="translate(-55.709 -143.96)" fill="#263238"/>
        <path id="Path_9559" data-name="Path 9559" d="M50.332,192.956a7.3,7.3,0,0,1-.826-.979,10.672,10.672,0,0,0-2.177-2.112,7.115,7.115,0,0,0-2.8-1.038,9.036,9.036,0,0,1-1.263-.195,3.829,3.829,0,0,1,1.292,0,6.49,6.49,0,0,1,2.95,1.056,9.009,9.009,0,0,1,2.183,2.23,4.383,4.383,0,0,1,.637,1.038Z" transform="translate(-37.827 -144.962)" fill="#263238"/>
        <path id="Path_9560" data-name="Path 9560" d="M102.931,205.842a14.75,14.75,0,0,1-1.05-2.832,15.18,15.18,0,0,1-.761-2.95,28.857,28.857,0,0,1,1.811,5.782Z" transform="translate(-61.548 -149.671)" fill="#263238"/>
        <path id="Path_9561" data-name="Path 9561" d="M112.989,254a5.108,5.108,0,0,1,.118,1.18c.047.72.13,1.711.177,2.814a18.556,18.556,0,0,1-.059,2.838,3.3,3.3,0,0,1-.254,1.18,7.332,7.332,0,0,1,.035-1.18v-2.808c0-1.1-.094-2.094-.083-2.82A3.7,3.7,0,0,1,112.989,254Z" transform="translate(-66.38 -171.789)" fill="#263238"/>
        <path id="Path_9562" data-name="Path 9562" d="M72.034,216.846a.714.714,0,1,0,.177-.136" transform="translate(-49.541 -156.462)" fill="#e0e0e0"/>
        <g id="Group_1542" data-name="Group 1542" transform="translate(13.991 52.513)" opacity="0.3">
          <path id="Path_9563" data-name="Path 9563" d="M57.76,203.66,61.489,214.7,73.777,212.5,61.931,217.14l-1,3.829Z" transform="translate(-57.76 -203.66)"/>
        </g>
        <g id="Group_1543" data-name="Group 1543" transform="translate(15.537 39.233)" opacity="0.3">
          <path id="Path_9564" data-name="Path 9564" d="M60.38,181.15l10.985,9.941,1.7-4.649,1.77.59-1.906-1.581s-2.088,3.209-2.643,3.268Z" transform="translate(-60.38 -181.15)"/>
        </g>
        <path id="Path_9565" data-name="Path 9565" d="M91.966,209.725a3.146,3.146,0,0,1-.224-.667c-.136-.5-.313-1.115-.519-1.847-.437-1.557-1.068-3.7-1.841-6.047s-1.552-4.436-2.13-5.953c-.265-.708-.5-1.3-.678-1.77a3.492,3.492,0,0,1-.224-.673,3.126,3.126,0,0,1,.33.625c.195.407.46,1.009.779,1.77.625,1.493,1.434,3.587,2.212,5.935s1.38,4.513,1.77,6.088c.195.785.336,1.428.425,1.87a2.885,2.885,0,0,1,.1.667Z" transform="translate(-55.492 -146.681)" fill="#263238"/>
        <path id="Path_9566" data-name="Path 9566" d="M95.411,199.621c2.077,2.071,7.339,7.475,7.339,7.475l1.41-.85-7.416-7.917a.932.932,0,0,0-1.18-.142h0a.926.926,0,0,0-.153,1.434Z" transform="translate(-59.096 -148.842)" fill="#263238"/>
        <path id="Path_9567" data-name="Path 9567" d="M98.14,216.8l1.77-4.979a2.8,2.8,0,0,1,2.555-1.911,1.335,1.335,0,0,1,.265,0c1.062.118,6.49.472,6.49.472l2.094,2.36a1.091,1.091,0,0,1,0,1.422h0l.59,4.23-1.18.808.118,2.95s-1.062.708-1.528.472l-.472-.236-.708-.708-2,2.826-2.767,1.6Z" transform="translate(-60.326 -153.705)" fill="#ffbe9d"/>
        <path id="Path_9568" data-name="Path 9568" d="M115.547,216a9.481,9.481,0,0,0-.761-.826,3.6,3.6,0,0,0-1.009-.59,7.756,7.756,0,0,0-1.463-.2,25.367,25.367,0,0,1-3.864-.513,23.969,23.969,0,0,1,3.894.206,6.726,6.726,0,0,1,1.528.242,3.239,3.239,0,0,1,1.062.714A1.858,1.858,0,0,1,115.547,216Z" transform="translate(-64.554 -155.331)" fill="#eb996e"/>
        <path id="Path_9569" data-name="Path 9569" d="M115.782,221.619a8.386,8.386,0,0,0-.437-1.086,4.2,4.2,0,0,0-2.088-1.77,8.106,8.106,0,0,0-2.767-.466,5.954,5.954,0,0,1-1.18-.035,3.433,3.433,0,0,1,1.18-.177,6.82,6.82,0,0,1,2.885.4,4.094,4.094,0,0,1,2.171,1.935,1.852,1.852,0,0,1,.236,1.2Z" transform="translate(-64.907 -157.053)" fill="#eb996e"/>
        <path id="Path_9570" data-name="Path 9570" d="M115.448,227.527a2.26,2.26,0,0,1-.283-1.18,3.9,3.9,0,0,0-.265-1.215,1.522,1.522,0,0,0-1.115-.844,20.789,20.789,0,0,0-2.814-.407,3.085,3.085,0,0,1-1.18-.271,9.119,9.119,0,0,1,1.18.059,13.65,13.65,0,0,1,2.879.324,2.272,2.272,0,0,1,.8.366,1.616,1.616,0,0,1,.5.661,3.658,3.658,0,0,1,.218,1.31C115.383,227.078,115.483,227.509,115.448,227.527Z" transform="translate(-65.103 -159.327)" fill="#eb996e"/>
        <path id="Path_9571" data-name="Path 9571" d="M108.157,214.4,84.83,238.494l.9.909,16.713-1.882,22.489-21.427-.024-1.027Z" transform="translate(-54.869 -155.551)" fill="#455a64"/>
        <g id="Group_1544" data-name="Group 1544" transform="translate(46.378 72.842)" opacity="0.3">
          <path id="Path_9572" data-name="Path 9572" d="M121.077,239.264a4.4,4.4,0,0,0-3.369-1.127,6.177,6.177,0,0,0-3.321,1.4,4.484,4.484,0,0,0-1.652,2.36,4.042,4.042,0,0,0,2.23,4.224l.206-.242,5.746-4.613a1.617,1.617,0,0,0,.667-.85,1.345,1.345,0,0,0-.507-1.156Z" transform="translate(-112.657 -238.118)"/>
        </g>
        <path id="Path_9573" data-name="Path 9573" d="M118.712,236.24a11.275,11.275,0,0,1,3,.413,20.1,20.1,0,0,1,2.767,2.531s0,1.469-.59,1.528a5.563,5.563,0,0,1,.118,1,1.647,1.647,0,0,1-.944,2s.118,1.357-.295,1.7a8.007,8.007,0,0,1-.879.649s-1.292,1.587-2.059,1.469-1.87.826-1.87.826-4.13-1.723-3.717-2.212l1.439-1.593s-2.849-2.077-2.79-2.726.295-.7.295-.7-.118-1.239.879-1.357c0,0,.767-1.528,1.528-1.587S121.532,240,121.532,240l-1.941-1.646s-1.941-.295-1.882-.938S118.712,236.24,118.712,236.24Z" transform="translate(-66.374 -164.506)" fill="#ffbe9d"/>
        <path id="Path_9574" data-name="Path 9574" d="M118.521,247.613c-.047.071-1.18-.59-2.619-1.274a26.982,26.982,0,0,1-2.631-1.268,9.287,9.287,0,0,1,2.761.991A9,9,0,0,1,118.521,247.613Z" transform="translate(-66.53 -168.127)" fill="#eb996e"/>
        <path id="Path_9575" data-name="Path 9575" d="M122.123,244.6a20.009,20.009,0,0,1-3.375-1.091,20.056,20.056,0,0,1-3.268-1.386,21.094,21.094,0,0,1,3.375,1.109A21.056,21.056,0,0,1,122.123,244.6Z" transform="translate(-67.437 -166.917)" fill="#eb996e"/>
        <path id="Path_9576" data-name="Path 9576" d="M125.472,216.827a1.769,1.769,0,0,1-.307,0h-.891l-3.345-.041-11.628-.224.106-.041-5.846,6.088c-4.72,4.867-9,9.262-12.118,12.478l-3.7,3.752-1,1a3.2,3.2,0,0,1-.372.336,3.212,3.212,0,0,1,.33-.383l.973-1.05,3.628-3.823,12.053-12.537,5.858-6.047.041-.047h.065l11.628.336,3.339.124.891.041a1.068,1.068,0,0,1,.295.035Z" transform="translate(-55.5 -156.326)" fill="#263238"/>
        <path id="Path_9577" data-name="Path 9577" d="M100.237,134.778a4.425,4.425,0,0,0-2.867-1.475,2.814,2.814,0,0,0-1.858.142,2.224,2.224,0,0,0-.956,2.147,8.961,8.961,0,0,0,.714,2.36,4.265,4.265,0,0,1,.336,2.425l2.118,5.044a2.672,2.672,0,0,0,1.369-3.847,2.584,2.584,0,0,0,.761-3.917A2,2,0,0,0,100.237,134.778Z" transform="translate(-58.848 -122.258)" fill="#263238"/>
        <path id="Path_9578" data-name="Path 9578" d="M64.8,150.9,64.55,140.7,58.1,140.41a2.153,2.153,0,0,0-.773,3.805,2.655,2.655,0,0,0,.383,4.979,2.661,2.661,0,0,0,1.711,4.307,2.912,2.912,0,0,0,1.829,2.832A2.858,2.858,0,0,0,64.3,154.64,8.24,8.24,0,0,0,64.8,150.9Z" transform="translate(-42.948 -125.211)" fill="#263238"/>
        <path id="Path_9579" data-name="Path 9579" d="M59.42,135.224s.637,8.436,1.463,11.009a26.058,26.058,0,0,0,2.643,5.345l19.681-6.112c.667-4.554,1.357-9.132,1.074-12.719L78,130.51Z" transform="translate(-44.449 -121.152)" fill="#263238"/>
        <path id="Path_9580" data-name="Path 9580" d="M64.981,145.568a42.477,42.477,0,0,1-1.917-6.944,14.525,14.525,0,0,1,.472-7.115c.118-.348,1.18-2.655,1.534-2.619.26,0-.378,2.165-.242,2.389a12.389,12.389,0,0,1,1.493,7.186,32.814,32.814,0,0,1-1.339,7.079" transform="translate(-45.845 -120.487)" fill="#263238"/>
        <path id="Path_9581" data-name="Path 9581" d="M79.869,158.733v-5.711s5.817-.673,6.112-6.448c.147-2.79,0-8.56-.242-13.775A10.773,10.773,0,0,0,75.391,122.48h-.555c-6.023.112-9.292,5.31-9.009,11.315v19.563l11.893,8.566Z" transform="translate(-47.07 -117.859)" fill="#ffbe9d"/>
        <path id="Path_9582" data-name="Path 9582" d="M84.493,172.507A13.958,13.958,0,0,1,77.06,170s1.67,4.277,7.457,3.982Z" transform="translate(-51.683 -137.345)" fill="#eb996e"/>
        <path id="Path_9583" data-name="Path 9583" d="M95.262,147.79a.826.826,0,0,1-.832.8.785.785,0,0,1-.82-.773.826.826,0,0,1,.82-.82.785.785,0,0,1,.832.791Z" transform="translate(-58.469 -127.913)" fill="#263238"/>
        <path id="Path_9584" data-name="Path 9584" d="M95.083,143.35c-.106.1-.714-.383-1.6-.419s-1.557.389-1.646.277.065-.242.36-.437a2.247,2.247,0,0,1,1.322-.354,2.165,2.165,0,0,1,1.268.466C95.048,143.073,95.136,143.274,95.083,143.35Z" transform="translate(-57.73 -126.034)" fill="#263238"/>
        <path id="Path_9585" data-name="Path 9585" d="M81.772,148.038a.826.826,0,0,1-.826.8.8.8,0,0,1-.826-.779.832.832,0,0,1,.832-.8.791.791,0,0,1,.82.779Z" transform="translate(-52.937 -128.02)" fill="#263238"/>
        <path id="Path_9586" data-name="Path 9586" d="M80.312,143.351c-.106.106-.714-.383-1.6-.413s-1.552.383-1.646.271.065-.242.36-.437a2.272,2.272,0,0,1,1.321-.354,2.224,2.224,0,0,1,1.274.466C80.276,143.1,80.365,143.292,80.312,143.351Z" transform="translate(-51.672 -126.034)" fill="#263238"/>
        <path id="Path_9587" data-name="Path 9587" d="M87.459,150.593a5.729,5.729,0,0,1,1.451-.207c.224,0,.442-.047.49-.2a1.18,1.18,0,0,0-.13-.678q-.283-.838-.59-1.77a29.956,29.956,0,0,1-1.327-4.578,29.42,29.42,0,0,1,1.693,4.46c.2.59.4,1.18.59,1.77a1.345,1.345,0,0,1,.088.9.59.59,0,0,1-.389.319,1.564,1.564,0,0,1-.389.035A6.129,6.129,0,0,1,87.459,150.593Z" transform="translate(-55.898 -126.339)" fill="#263238"/>
        <path id="Path_9588" data-name="Path 9588" d="M82.954,156.63c.142,0,.106.962.9,1.675s1.829.649,1.835.785-.236.177-.673.171a2.36,2.36,0,0,1-1.528-.59,2.094,2.094,0,0,1-.7-1.4C82.771,156.848,82.913,156.618,82.954,156.63Z" transform="translate(-54.031 -131.862)" fill="#263238"/>
        <path id="Path_9589" data-name="Path 9589" d="M80.454,138.3c-.094.236-.979.088-2.024.171s-1.9.336-2.029.118c-.059-.106.094-.33.442-.549a3.386,3.386,0,0,1,1.522-.466,3.309,3.309,0,0,1,1.569.248C80.289,137.984,80.5,138.185,80.454,138.3Z" transform="translate(-51.408 -124.043)" fill="#263238"/>
        <path id="Path_9590" data-name="Path 9590" d="M94.832,138.238c-.165.195-.767-.035-1.5-.077s-1.363.083-1.5-.136c-.059-.1.047-.3.33-.478a2.047,2.047,0,0,1,1.233-.283,2.106,2.106,0,0,1,1.18.448C94.826,137.931,94.9,138.143,94.832,138.238Z" transform="translate(-57.732 -123.918)" fill="#263238"/>
        <path id="Path_9591" data-name="Path 9591" d="M63.623,148.746c-.094-.047-3.923-1.333-3.953,2.625s3.947,3.168,3.959,3.056S63.623,148.746,63.623,148.746Z" transform="translate(-44.552 -128.533)" fill="#ffbe9d"/>
        <path id="Path_9592" data-name="Path 9592" d="M63.126,153.817a1.431,1.431,0,0,1-.189.1.655.655,0,0,1-.513,0,1.687,1.687,0,0,1-.779-1.534,2.3,2.3,0,0,1,.2-.985.8.8,0,0,1,.519-.525.354.354,0,0,1,.407.195c.053.106,0,.189.047.195s.088-.065.053-.23a.413.413,0,0,0-.153-.248.531.531,0,0,0-.378-.106.974.974,0,0,0-.726.59,2.36,2.36,0,0,0-.248,1.1,1.8,1.8,0,0,0,1,1.717.767.767,0,0,0,.631-.1C63.114,153.9,63.138,153.817,63.126,153.817Z" transform="translate(-45.247 -129.421)" fill="#eb996e"/>
        <path id="Path_9593" data-name="Path 9593" d="M82.07,125.749c.643-.354-1.28-2.425-2.855-3.139-2.36-1.074-6.012-1.734-8.206-1.109a9.533,9.533,0,0,0-6.147,4.478,15.534,15.534,0,0,0-1.734,7.947,4.72,4.72,0,0,0,.59,2.413c.555.873,1.616,1.422,1.569,2.631a1.675,1.675,0,0,0,.413,1.18c.726.773,1.611.047,2.018-.678a11.426,11.426,0,0,0,1.032-5.18,11.628,11.628,0,0,0-.254-3.758c-.195-.661-.507-1.28-.667-1.953a2.407,2.407,0,0,1,.277-1.976,2.767,2.767,0,0,1,.324-.324,4.13,4.13,0,0,1,4.053-.761c2.23.785,6.035,1.953,7.026,1.18a6.141,6.141,0,0,0,1.77-1.77Z" transform="translate(-45.961 -117.359)" fill="#263238"/>
        <path id="Path_9594" data-name="Path 9594" d="M68.562,114.7c-.277.029-7.044,1.321-8.9,6.271s-1.4,6.49-1.4,6.49a3.139,3.139,0,0,0-.72.59c-.289.319.065,1.906.944,1.77,6.661-2.684,14.436-2.714,23.079-2.159l6.625.142c1.847.277,2.519-.195,1.77-.684-.59-.378-5.782-2.667-5.782-2.667l-1.038-.8-2.608-3.882s.354-.519-.3-.979S74.066,114.124,68.562,114.7Z" transform="translate(-43.639 -114.648)" fill="#d16800"/>
        <path id="Path_9595" data-name="Path 9595" d="M83.684,129.746a2.148,2.148,0,0,1-.26,0l-.737-.041c-.643-.047-1.569-.071-2.72-.083a51.62,51.62,0,0,0-8.914.767,78.421,78.421,0,0,0-8.72,2.1c-1.1.319-1.988.59-2.6.791l-.708.212-.254.071.242-.089.7-.236c.59-.2,1.5-.5,2.6-.826a73.506,73.506,0,0,1,8.725-2.13,49.284,49.284,0,0,1,8.944-.773C82.28,129.569,83.684,129.746,83.684,129.746Z" transform="translate(-44.183 -120.741)" fill="#263238"/>
        <g id="Group_1545" data-name="Group 1545" transform="translate(18.693 1.365)" opacity="0.3">
          <path id="Path_9596" data-name="Path 9596" d="M65.73,118.394s7.274-.926,10.466.743l-.372-.2,3.044,1.445a1.906,1.906,0,0,0,1.616.248,14.283,14.283,0,0,0-4.584-2.649C72.886,116.854,68.09,116.252,65.73,118.394Z" transform="translate(-65.73 -116.961)"/>
        </g>
        <path id="Path_9597" data-name="Path 9597" d="M65.55,118.4a4.644,4.644,0,0,1,.661-.4,8.885,8.885,0,0,1,1.97-.767,10.8,10.8,0,0,1,3.115-.336,8.973,8.973,0,0,1,3.734.861,15.693,15.693,0,0,1,1.723,1c.531.354,1.062.673,1.54,1.027a10.751,10.751,0,0,0,1.375.938,3.215,3.215,0,0,0,1.392.324c1.77.089,2.879-.248,2.808-.36a.324.324,0,0,1-.147.136,2.666,2.666,0,0,1-.555.165,9.734,9.734,0,0,1-2.112.142,3.233,3.233,0,0,1-1.428-.324,10.293,10.293,0,0,1-1.392-.938c-.472-.348-1.009-.667-1.54-1.021a16.617,16.617,0,0,0-1.711-.991,8.926,8.926,0,0,0-3.687-.861,10.931,10.931,0,0,0-3.1.313,9.756,9.756,0,0,0-1.97.726c-.224.112-.389.206-.5.271Z" transform="translate(-46.963 -115.566)" fill="#263238"/>
        <g id="Group_1546" data-name="Group 1546" transform="translate(14.988 5.942)" opacity="0.3">
          <path id="Path_9598" data-name="Path 9598" d="M59.774,127.168a16.035,16.035,0,0,0,3.593-.507c1.38-.254,2.749-.442,4.13-.761a5.9,5.9,0,0,0,2.95-1.18,1.516,1.516,0,0,1-.507,1.392,7.31,7.31,0,0,1-2.23.9,38.494,38.494,0,0,1-8.259,1.31,8.408,8.408,0,0,1,.33-1.18" transform="translate(-59.45 -124.72)"/>
        </g>
        <path id="Path_9599" data-name="Path 9599" d="M60.626,123.9c-.832.33-1.345.555-1.392,1.251-.041.59.053,1.3.625,1.422a1.61,1.61,0,0,0,.531,0l9.015-1.5a1.351,1.351,0,0,0,.838-.354.9.9,0,0,0-.265-1.239,2.478,2.478,0,0,0-1.363-.354,29.887,29.887,0,0,0-7.988.8" transform="translate(-44.37 -118.113)" fill="#d16800"/>
        <path id="Path_9600" data-name="Path 9600" d="M70.636,124.534a.867.867,0,0,0,.254-.383,1.127,1.127,0,0,0-.33-1.145,2.79,2.79,0,0,0-1.77-.46c-.72,0-1.51.035-2.36.089a24,24,0,0,0-4.206.59c-.525.124-.95.26-1.239.348l-.336.106-.118.035a.239.239,0,0,0,.112-.053l.33-.13a12.006,12.006,0,0,1,1.233-.383,21.7,21.7,0,0,1,4.218-.637c.832-.053,1.628-.071,2.36-.077a2.838,2.838,0,0,1,1.841.5,1.18,1.18,0,0,1,.319,1.215.8.8,0,0,1-.195.3Z" transform="translate(-44.905 -117.837)" fill="#263238"/>
        <path id="Path_9601" data-name="Path 9601" d="M94.068,125.177l-5.628-.307.419,1.6,6.136.077Z" transform="translate(-56.349 -118.839)" fill="#fff"/>
        <path id="Path_9602" data-name="Path 9602" d="M83.25,132.62s2.519-.3,5.634-.59,5.652-.531,5.652-.5-2.519.3-5.64.59S83.25,132.649,83.25,132.62Z" transform="translate(-54.221 -121.568)" fill="#263238"/>
        <rect id="Rectangle_1202" data-name="Rectangle 1202" width="43.344" height="7.239" transform="translate(4.499 90.66)" fill="#455a64"/>
        <path id="Path_9603" data-name="Path 9603" d="M43.92,274.25H63.978v20.342a4.082,4.082,0,0,1-4.082,4.083H48a4.083,4.083,0,0,1-4.082-4.082Z" transform="translate(-38.094 -180.092)" fill="#455a64"/>
        <path id="Path_9604" data-name="Path 9604" d="M63.937,280.277a8.646,8.646,0,0,1-.083-1.257,14.607,14.607,0,0,0-.442-3.369,2.283,2.283,0,0,0-.519-.932,5.617,5.617,0,0,0-.944-.737,5.976,5.976,0,0,0-2.513-.8c-1.888-.142-4.006-.077-6.212-.059a31.722,31.722,0,0,0-6.183.23,4.053,4.053,0,0,0-2.3,1.18,3.965,3.965,0,0,0-.732,2.142c-.136,1.434-.106,2.608-.13,3.416v.932a2.024,2.024,0,0,1,0,.324,1.18,1.18,0,0,1-.035-.324c0-.248,0-.555-.029-.932,0-.808-.071-1.976.035-3.434a4.212,4.212,0,0,1,.749-2.283,4.259,4.259,0,0,1,2.442-1.28,13.241,13.241,0,0,1,3.021-.26h3.221c2.212,0,4.307-.077,6.242.083a6.2,6.2,0,0,1,2.613.861,5.68,5.68,0,0,1,.979.79,2.407,2.407,0,0,1,.59,1.032,13.256,13.256,0,0,1,.354,3.428v.932A1.863,1.863,0,0,1,63.937,280.277Z" transform="translate(-38.041 -179.505)" fill="#263238"/>
        <path id="Path_9605" data-name="Path 9605" d="M63.986,288.983c0,.089-4.413.153-9.858.153s-9.858-.065-9.858-.153,4.413-.153,9.858-.153S63.986,288.93,63.986,288.983Z" transform="translate(-38.237 -186.07)" fill="#263238"/>
        <path id="Path_9606" data-name="Path 9606" d="M53.553,304.916c-.088,0-.153-3.569-.153-7.97s.065-7.976.153-7.976.153,3.569.153,7.976S53.636,304.916,53.553,304.916Z" transform="translate(-41.981 -186.128)" fill="#263238"/>
        <path id="Path_9607" data-name="Path 9607" d="M68.893,304.933c-.083,0-.153-3.54-.153-7.894s.071-7.9.153-7.9.153,3.54.153,7.9S68.976,304.933,68.893,304.933Z" transform="translate(-48.271 -186.197)" fill="#263238"/>
        <path id="Path_9608" data-name="Path 9608" d="M114.082,268.32l2.5,3.5s2.236,20.849,1.239,21.828-4.348.956-4.348.956l-.914-24.961Z" transform="translate(-66.239 -177.66)" fill="#455a64"/>
        <path id="Path_9609" data-name="Path 9609" d="M101.607,275.212a22.92,22.92,0,0,1-.094-7.032,32.806,32.806,0,0,1,.083,3.54A32.444,32.444,0,0,1,101.607,275.212Z" transform="translate(-61.617 -177.603)" fill="#263238"/>
        <path id="Path_9610" data-name="Path 9610" d="M114.281,268.52a4.194,4.194,0,0,1,.265,1.18c.118.731.236,1.77.3,2.885a6.088,6.088,0,0,1-.065,1.616,2.047,2.047,0,0,1-.678,1.18,1.392,1.392,0,0,1-.844.342c-.224,0-.33-.053-.33-.065a1.7,1.7,0,0,0,1.027-.442,1.87,1.87,0,0,0,.549-1.062,6.679,6.679,0,0,0,.035-1.552C114.423,270.343,114.193,268.532,114.281,268.52Z" transform="translate(-66.391 -177.742)" fill="#263238"/>
      </g>
    </g>
  </g>
</svg>
