<svg xmlns="http://www.w3.org/2000/svg" xmlns:xlink="http://www.w3.org/1999/xlink" width="289" height="289" viewBox="0 0 289 289">
  <defs>
    <filter id="Ellipse_124" x="0" y="0" width="289" height="289" filterUnits="userSpaceOnUse">
      <feOffset dy="3" input="SourceAlpha"/>
      <feGaussianBlur stdDeviation="3" result="blur"/>
      <feFlood flood-color="#e2e2e2"/>
      <feComposite operator="in" in2="blur"/>
      <feComposite in="SourceGraphic"/>
    </filter>
  </defs>
  <g id="Group_1591" data-name="Group 1591" transform="translate(-1304.936 -3838.691)">
    <g transform="matrix(1, 0, 0, 1, 1304.94, 3838.69)" filter="url(#Ellipse_124)">
      <g id="Ellipse_124-2" data-name="Ellipse 124" transform="translate(9 6)" fill="#fff4ea" stroke="#b45d0e" stroke-width="1">
        <circle cx="135.5" cy="135.5" r="135.5" stroke="none"/>
        <circle cx="135.5" cy="135.5" r="135" fill="none"/>
      </g>
    </g>
    <g id="Deadline-pana" transform="translate(1301.629 3847.803)">
      <g id="freepik--Clock--inject-232" transform="translate(33.195 -1.711)">
        <rect id="Rectangle_1196" data-name="Rectangle 1196" width="10.091" height="15.742" transform="translate(114.524 25.974)" fill="#263238"/>
        <path id="Path_9286" data-name="Path 9286" d="M263.136,40.226H242.36V23.273a39.634,39.634,0,0,1,20.776,0Z" transform="translate(-133.116 -9.562)" fill="#d16800"/>
        <path id="Path_9287" data-name="Path 9287" d="M263.31,24.675a3.614,3.614,0,0,1-.768.381,19.221,19.221,0,0,1-2.162.83,25.557,25.557,0,0,1-3.369.8,29.174,29.174,0,0,1-4.23.36,28.725,28.725,0,0,1-4.23-.319,25.456,25.456,0,0,1-3.379-.768,20.046,20.046,0,0,1-2.194-.783,4.026,4.026,0,0,1-.768-.371c0-.063,1.144.407,3.034.914a29.158,29.158,0,0,0,3.353.684,31.462,31.462,0,0,0,4.178.287,30.2,30.2,0,0,0,4.178-.329,28.67,28.67,0,0,0,3.353-.716C262.166,25.1,263.284,24.612,263.31,24.675Z" transform="translate(-133.045 -10.891)" fill="#263238"/>
        <path id="Path_9288" data-name="Path 9288" d="M255.338,43.686c-.1,0-.178-3.259-.178-7.275s.078-7.281.178-7.281.178,3.259.178,7.281S255.437,43.686,255.338,43.686Z" transform="translate(-139.231 -13.022)" fill="#263238"/>
        <path id="Path_9289" data-name="Path 9289" d="M262.908,43.754c-.1,0-.178-3.269-.178-7.312s.078-7.312.178-7.312.178,3.269.178,7.312S263.007,43.754,262.908,43.754Z" transform="translate(-142.848 -13.022)" fill="#263238"/>
        <path id="Path_9290" data-name="Path 9290" d="M270.478,43.624c-.1,0-.178-3.275-.178-7.312s.078-7.312.178-7.312.178,3.269.178,7.312S270.577,43.624,270.478,43.624Z" transform="translate(-146.464 -12.96)" fill="#263238"/>
        <path id="Path_9291" data-name="Path 9291" d="M276.778,42.549c-.1,0-.178-3.536-.178-7.9s.078-7.9.178-7.9.178,3.536.178,7.9S276.877,42.549,276.778,42.549Z" transform="translate(-149.473 -11.885)" fill="#263238"/>
        <path id="Path_9292" data-name="Path 9292" d="M248.178,42.364c-.1,0-.178-3.541-.178-7.9s.078-7.9.178-7.9.178,3.541.178,7.9S248.277,42.364,248.178,42.364Z" transform="translate(-135.811 -11.794)" fill="#263238"/>
        <rect id="Rectangle_1197" data-name="Rectangle 1197" width="7.296" height="11.386" transform="matrix(0.691, 0.723, -0.723, 0.691, 177.018, 46.224)" fill="#263238"/>
        <path id="Path_9293" data-name="Path 9293" d="M372.738,89.121,362.36,78.247l8.879-8.477a28.585,28.585,0,0,1,10.383,10.863Z" transform="translate(-190.442 -32.436)" fill="#d16800"/>
        <path id="Path_9294" data-name="Path 9294" d="M365.679,81.368c-.057-.063,1.953-2.089,4.492-4.554s4.648-4.392,4.7-4.335-1.953,2.089-4.492,4.554S365.736,81.431,365.679,81.368Z" transform="translate(-192.027 -33.73)" fill="#263238"/>
        <path id="Path_9295" data-name="Path 9295" d="M369.47,85.354a12.078,12.078,0,0,1,1.353-1.368c.857-.815,2.058-1.927,3.39-3.134l3.431-3.1,1.045-.935c.251-.219.376-.334.387-.334a39.91,39.91,0,0,1-4.659,4.6c-1.332,1.222-2.554,2.308-3.452,3.081A11.93,11.93,0,0,1,369.47,85.354Z" transform="translate(-193.839 -35.642)" fill="#263238"/>
        <path id="Path_9296" data-name="Path 9296" d="M374.51,90.576a12.8,12.8,0,0,1,1.374-1.374c.867-.82,2.089-1.938,3.442-3.165l3.489-3.134,1.045-.93a4.308,4.308,0,0,1,.4-.324,8,8,0,0,1-1.327,1.415c-.862.83-2.089,1.953-3.431,3.181s-2.611,2.314-3.5,3.1a11.79,11.79,0,0,1-1.489,1.233Z" transform="translate(-196.247 -38.112)" fill="#263238"/>
        <path id="Path_9297" data-name="Path 9297" d="M379.229,95.475c-.057-.063,1.979-2.089,4.554-4.523s4.7-4.366,4.758-4.3-1.979,2.089-4.554,4.523S379.286,95.533,379.229,95.475Z" transform="translate(-198.5 -40.499)" fill="#263238"/>
        <rect id="Rectangle_1198" data-name="Rectangle 1198" width="7.296" height="11.386" transform="translate(49.468 55.556) rotate(-41.43)" fill="#263238"/>
        <path id="Path_9298" data-name="Path 9298" d="M130.577,86.962l-11.266,9.923L111.19,87.7a28.431,28.431,0,0,1,11.271-9.923Z" transform="translate(-70.454 -36.263)" fill="#d16800"/>
        <path id="Path_9299" data-name="Path 9299" d="M122.563,102.486c-.063.057-2.016-2.032-4.372-4.669S114.013,93,114.05,92.949s2.016,2.032,4.372,4.669S122.625,102.434,122.563,102.486Z" transform="translate(-71.82 -43.509)" fill="#263238"/>
        <path id="Path_9300" data-name="Path 9300" d="M126.688,98.476a12.733,12.733,0,0,1-1.285-1.4c-.778-.893-1.844-2.136-3.008-3.515l-2.967-3.552-.919-1.081c-.209-.261-.319-.387-.319-.4a40.964,40.964,0,0,1,4.413,4.836c1.165,1.384,2.2,2.648,2.94,3.572a11.766,11.766,0,0,1,1.144,1.541Z" transform="translate(-73.798 -41.395)" fill="#263238"/>
        <path id="Path_9301" data-name="Path 9301" d="M132.153,93.492a12.561,12.561,0,0,1-1.321-1.421c-.783-.9-1.854-2.162-3.024-3.567L124.836,84.9l-.888-1.107a2.783,2.783,0,0,1-.308-.418A8.4,8.4,0,0,1,125,84.754c.8.9,1.875,2.152,3.045,3.557S130.257,91,131,91.935A12.421,12.421,0,0,1,132.153,93.492Z" transform="translate(-76.402 -38.933)" fill="#263238"/>
        <path id="Path_9302" data-name="Path 9302" d="M137.2,89.425c-.063.052-2.011-2.089-4.34-4.7a56.942,56.942,0,0,1-4.11-4.925c.068-.052,2.006,2.058,4.335,4.7S137.262,89.367,137.2,89.425Z" transform="translate(-78.841 -37.227)" fill="#263238"/>
        <circle id="Ellipse_121" data-name="Ellipse 121" cx="83.163" cy="83.163" r="83.163" transform="translate(0 117.611) rotate(-45)" fill="#d16800"/>
        <circle id="Ellipse_122" data-name="Ellipse 122" cx="76.405" cy="76.405" r="76.405" transform="translate(9.558 117.611) rotate(-45)" fill="#fff"/>
        <path id="Path_9303" data-name="Path 9303" d="M188.256,230.012a76.666,76.666,0,1,1,76.666-76.666A76.753,76.753,0,0,1,188.256,230.012Zm0-152.81A76.144,76.144,0,1,0,264.4,153.346,76.229,76.229,0,0,0,188.256,77.2Z" transform="translate(-70.645 -35.737)" fill="#263238"/>
        <path id="Path_9304" data-name="Path 9304" d="M166.58,138.03c3.181-9.882,9.7-16.567,18.348-22.317s20.426-7.913,30.773-7.035v61.577Z" transform="translate(-96.915 -50.933)" fill="#d16800"/>
        <g id="Group_1515" data-name="Group 1515" transform="translate(69.665 57.556)" opacity="0.8">
          <path id="Path_9305" data-name="Path 9305" d="M166.58,138.03c3.181-9.882,9.7-16.567,18.348-22.317s20.426-7.913,30.773-7.035v61.577Z" transform="translate(-166.58 -108.489)" fill="#fff"/>
        </g>
        <path id="Path_9306" data-name="Path 9306" d="M216.531,201.689l-34.371-26.7,40.252,18.557,1.18,7.051Z" transform="translate(-104.358 -82.702)" fill="#d16800"/>
        <g id="Group_1516" data-name="Group 1516" transform="translate(77.802 92.288)" opacity="0.4">
          <path id="Path_9307" data-name="Path 9307" d="M182.16,174.99l35.891,21.1,4.361-2.544Z" transform="translate(-182.16 -174.99)"/>
        </g>
        <circle id="Ellipse_123" data-name="Ellipse 123" cx="7.15" cy="7.15" r="7.15" transform="translate(109.924 114.123) rotate(-22.3)" fill="#fafafa"/>
        <path id="Path_9308" data-name="Path 9308" d="M254.839,210.532a15.956,15.956,0,0,0-1.729.292,7.032,7.032,0,0,0-4.836,9.224,6.456,6.456,0,0,0,.956,1.765,6.528,6.528,0,0,0,1.483,1.478,6.962,6.962,0,0,0,8.247,0,6.449,6.449,0,0,0,1.488-1.478,6.6,6.6,0,0,0,.956-1.765,7.035,7.035,0,0,0,.313-3.656,6.942,6.942,0,0,0-1.3-2.961,7.108,7.108,0,0,0-3.854-2.611,16.194,16.194,0,0,0-1.729-.292,5.541,5.541,0,0,1,1.76.157A7.218,7.218,0,0,1,262,216.334a7.3,7.3,0,0,1-11.5,7.244,6.936,6.936,0,0,1-1.567-1.567,6.837,6.837,0,0,1-.987-1.854,7.312,7.312,0,0,1-.3-3.839,7.218,7.218,0,0,1,5.406-5.651A5.572,5.572,0,0,1,254.839,210.532Z" transform="translate(-135.583 -99.671)" fill="#263238"/>
        <path id="Path_9309" data-name="Path 9309" d="M256.662,214.05a5.327,5.327,0,1,1-5.322,5.327A5.327,5.327,0,0,1,256.662,214.05Z" transform="translate(-137.406 -101.361)" fill="#263238"/>
        <path id="Path_9310" data-name="Path 9310" d="M260.4,169.224s-1.462-46.05.669-55.764C261.071,113.46,264.659,141.376,260.4,169.224Z" transform="translate(-141.502 -53.308)" fill="#263238"/>
        <path id="Path_9311" data-name="Path 9311" d="M192.535,231.422h-.089l.2-5.745h.162Zm28.668-4.659-2.141-5.327.157-.063,2.063,5.364Zm-56.861-2.737-.089-.047,2.559-5.145.141.073Zm81.215-13.214-4.095-4.027.11-.11,4.058,4.063Zm-103.934-5-.089-.11,4.455-3.656.073.094Zm119.744-19.486-5.385-2,.057-.151,5.364,2.063Zm-133.12-6.4-.042-.146,5.552-1.483v.094Zm131.835-22.082v-.089l5.745-.345v.162Zm0-.1v-.131l5.745-.345v.136Zm-127.844-6.043-5.677-.862v-.131l5.682.867Zm120.809-19.774-.052-.1,5.1-2.643.063.12ZM141.685,126.71l-4.831-3.134.063-.1,4.842,3.092Zm94.434-15.47-.1-.078,3.588-4.486.1.078Zm-75.637-3.578-3.134-4.81.089-.052,3.186,4.779ZM212.23,99.18l-.11-.026,1.442-5.562.141.037ZM185.4,97.932l-.935-5.672h.125l.93,5.672Z" transform="translate(-77.797 -43.18)" fill="#263238"/>
      </g>
      <g id="freepik--Lines--inject-232" transform="translate(34.138 156.776)">
        <path id="Path_9312" data-name="Path 9312" d="M407.865,353.576c0,.073-7.082.136-15.815.136s-15.82-.063-15.82-.136,7.082-.136,15.82-.136S407.865,353.5,407.865,353.576Z" transform="translate(-198.011 -326.438)" fill="#263238"/>
        <path id="Path_9313" data-name="Path 9313" d="M426.925,346.786c0,.078-7.082.136-15.815.136s-15.82-.057-15.82-.136,7.077-.136,15.82-.136S426.925,346.713,426.925,346.786Z" transform="translate(-207.117 -323.194)" fill="#263238"/>
        <path id="Path_9314" data-name="Path 9314" d="M64.331,308.7c0,.078-6.57.136-14.671.136S35,308.79,35,308.7s6.57-.136,14.676-.136S64.331,308.623,64.331,308.7Z" transform="translate(-35 -304.998)" fill="#263238"/>
        <path id="Path_9315" data-name="Path 9315" d="M82,301.876c0,.073-6.57.136-14.671.136s-14.676-.063-14.676-.136,6.57-.136,14.676-.136S82,301.824,82,301.876Z" transform="translate(-43.432 -301.74)" fill="#263238"/>
      </g>
      <g id="freepik--Character--inject-232" transform="translate(73.56 89.193)">
        <path id="Path_9316" data-name="Path 9316" d="M323.149,173.341a2.392,2.392,0,0,1,2.758-.219,3.259,3.259,0,0,1,3.713,1.541,2.909,2.909,0,0,1,3.212,3.818,2.429,2.429,0,0,1,.475,4.58,2.335,2.335,0,0,1-2.575,3.865l-8.174-10.895A2.387,2.387,0,0,1,323.149,173.341Z" transform="translate(-211.704 -172.553)" fill="#263238"/>
        <path id="Path_9317" data-name="Path 9317" d="M317.066,189.049a9.923,9.923,0,0,0-5.85-12.086l-.48-.188c-5.265-1.724-9.667,1.786-11.24,7.1l-6,17.423-.141,2.434,5.343,8.054,4.549-2.089,2.611-4.878s5.223,1.175,7.255-3.745C314.063,198.7,315.677,193.645,317.066,189.049Z" transform="translate(-197.845 -174.248)" fill="#ffbf9d"/>
        <path id="Path_9318" data-name="Path 9318" d="M312.114,226.835a12.921,12.921,0,0,1-5.745-4.445s-.209,4.413,4.9,5.912Z" transform="translate(-204.059 -196.25)" fill="#ff9a6c"/>
        <path id="Path_9319" data-name="Path 9319" d="M331.212,207.485a.752.752,0,0,1-.961.444.721.721,0,0,1-.475-.919.757.757,0,0,1,.961-.449.726.726,0,0,1,.475.924Z" transform="translate(-215.223 -188.668)" fill="#263238"/>
        <path id="Path_9320" data-name="Path 9320" d="M332.268,203.688c-.12.057-.522-.522-1.264-.846s-1.468-.136-1.509-.261.131-.188.439-.272a2.089,2.089,0,0,1,2.22.883C332.315,203.485,332.33,203.688,332.268,203.688Z" transform="translate(-215.104 -186.631)" fill="#263238"/>
        <path id="Path_9321" data-name="Path 9321" d="M318.5,203.206a.752.752,0,0,1-.961.444.726.726,0,0,1-.481-.919.763.763,0,0,1,.961-.449.731.731,0,0,1,.48.924Z" transform="translate(-209.149 -186.624)" fill="#263238"/>
        <path id="Path_9322" data-name="Path 9322" d="M318.458,198.052c-.12.057-.522-.548-1.264-.846s-1.468-.136-1.509-.261.125-.188.439-.266a2.089,2.089,0,0,1,1.259.094,2.006,2.006,0,0,1,.961.789C318.489,197.828,318.5,198.026,318.458,198.052Z" transform="translate(-208.506 -183.941)" fill="#263238"/>
        <path id="Path_9323" data-name="Path 9323" d="M321.52,206.081a5.181,5.181,0,0,1,1.327.261c.2.057.4.089.486-.026a1.086,1.086,0,0,0,.094-.627c0-.522,0-1.112,0-1.708a26.923,26.923,0,0,1,.235-4.371,27.051,27.051,0,0,1,.12,4.382c0,.6-.026,1.159-.037,1.7a1.2,1.2,0,0,1-.2.8.522.522,0,0,1-.428.157,1.436,1.436,0,0,1-.35-.084A5.636,5.636,0,0,1,321.52,206.081Z" transform="translate(-211.297 -185.368)" fill="#263238"/>
        <path id="Path_9324" data-name="Path 9324" d="M319.207,193.85c-.146.183-.778-.178-1.609-.381s-1.567-.209-1.6-.434c0-.11.178-.256.522-.355a2.507,2.507,0,0,1,1.311,0,2.434,2.434,0,0,1,1.133.627C319.191,193.568,319.275,193.787,319.207,193.85Z" transform="translate(-208.66 -182.016)" fill="#263238"/>
        <path id="Path_9325" data-name="Path 9325" d="M331.41,197.9c.193-.131.669.23,1.306.449s1.227.272,1.29.522c.026.11-.12.256-.413.345a2.006,2.006,0,0,1-2.089-.763C331.331,198.176,331.321,197.967,331.41,197.9Z" transform="translate(-215.996 -184.54)" fill="#263238"/>
        <path id="Path_9326" data-name="Path 9326" d="M321.214,185.878s-.084-3.609-1.3-4.92c-1.462-1.567-3.024.094-4.554-1.045s-2.93-2.679-5.223-2.037c-2.5.7-2,2.089-2.982,4.225-3.99,8.675-6.6,10.566-5.4,6.179.131-.48-1-1.348-.428-3.358.747-2.611,1.849-5.7,3.134-7.27a7.487,7.487,0,0,1,4.319-2.559c3.134-.857,6.492.418,8.665,1.536S322.948,182.071,321.214,185.878Z" transform="translate(-201.574 -173.522)" fill="#263238"/>
        <path id="Path_9327" data-name="Path 9327" d="M299.281,198.775a1.442,1.442,0,0,0-.94-1.865c-.956-.272-2.188-.151-2.878,1.776-1.222,3.426,2.47,3.943,2.507,3.849S298.785,200.212,299.281,198.775Z" transform="translate(-198.731 -184.027)" fill="#ffbf9d"/>
        <path id="Path_9328" data-name="Path 9328" d="M298.9,202.091a.85.85,0,0,0-.193.031.637.637,0,0,1-.449-.151,1.567,1.567,0,0,1-.209-1.567,2.088,2.088,0,0,1,.47-.794.731.731,0,0,1,.611-.3.329.329,0,0,1,.3.292c0,.11-.037.172,0,.183s.094-.031.115-.183a.392.392,0,0,0-.057-.261.465.465,0,0,0-.3-.2.867.867,0,0,0-.81.308,2.09,2.09,0,0,0-.548.877,1.65,1.65,0,0,0,.339,1.791.7.7,0,0,0,.58.1A.275.275,0,0,0,298.9,202.091Z" transform="translate(-199.92 -185.138)" fill="#ff9a6c"/>
        <path id="Path_9329" data-name="Path 9329" d="M305.9,180.567a3.468,3.468,0,0,0,1.175,1.222,1.18,1.18,0,0,0,1.525-.292c.136-.219.183-.522.407-.637s.585.057.857.2a2.319,2.319,0,0,0,2.852-.669.971.971,0,0,0,1.17.6,5.248,5.248,0,0,0,1.306-.622,1.489,1.489,0,0,1,1.389-.125c.235.131.413.371.674.449.46.136.877-.3,1.118-.716s.5-.9.966-1a1.9,1.9,0,0,1,1.222.444c.386.219.951.329,1.212,0a.862.862,0,0,0,.089-.674,2.35,2.35,0,0,0-2.256-1.88,3.191,3.191,0,0,0-5.223-2.721,3.238,3.238,0,0,0-5.249-.794,2.345,2.345,0,0,0-3.708,2.2,2.23,2.23,0,0,0-1.791,1.206,1.275,1.275,0,0,0,.867,1.739,1.3,1.3,0,0,0,1.619,2.026" transform="translate(-202.709 -172.341)" fill="#263238"/>
        <path id="Path_9330" data-name="Path 9330" d="M304.811,184a.846.846,0,0,0-.047.731,1.159,1.159,0,0,0,.522.674,1.29,1.29,0,0,0,1.076.1l-.136-.078a3.6,3.6,0,0,0,.345,1.107,2.131,2.131,0,0,0,.465.627,1.452,1.452,0,0,0,.658.329,1.426,1.426,0,0,0,1.191-.178,2.057,2.057,0,0,0,.554-.6.737.737,0,0,0,.131-.261,2.84,2.84,0,0,0-.2.214,2.439,2.439,0,0,1-.564.522,1.483,1.483,0,0,1-2.047-.752,3.625,3.625,0,0,1-.334-1.045v-.125l-.115.047a1.1,1.1,0,0,1-.919-.063,1.071,1.071,0,0,1-.486-.559A1.76,1.76,0,0,1,304.811,184Z" transform="translate(-203.263 -177.911)" fill="#455a64"/>
        <path id="Path_9331" data-name="Path 9331" d="M323,173.992s.078.063.2.183a1.217,1.217,0,0,1,.35.653v.084l.073-.047a4.507,4.507,0,0,1,2.157-.679,3.447,3.447,0,0,1,1.442.23,2.941,2.941,0,0,1,1.274.971,3.045,3.045,0,0,1,.522,1.144,2.5,2.5,0,0,1,0,1.165l-.031.115h.11a2,2,0,0,1,1.786,1.849,2.809,2.809,0,0,1-.183,1.086,1.009,1.009,0,0,0,.146-.261,1.959,1.959,0,0,0,.151-.83,2.089,2.089,0,0,0-.434-1.222,2.22,2.22,0,0,0-1.447-.815l.084.125a2.637,2.637,0,0,0,.042-1.264,3.134,3.134,0,0,0-1.932-2.261,3.594,3.594,0,0,0-1.525-.225,4.434,4.434,0,0,0-2.209.768l.089.037a1.217,1.217,0,0,0-.423-.674A.616.616,0,0,0,323,173.992Z" transform="translate(-212.004 -173.126)" fill="#455a64"/>
        <path id="Path_9332" data-name="Path 9332" d="M319.193,215.759a13.033,13.033,0,0,0-1.013-1.139c-.632-.548-1.311-.736-1.29-.82a2.651,2.651,0,0,1,2.3,1.959Z" transform="translate(-209.085 -192.147)" fill="#263238"/>
        <path id="Path_9333" data-name="Path 9333" d="M386.91,266.553a56.732,56.732,0,0,1,6.236.763.977.977,0,0,1-1.086,1.2c-1.306-.042-5.594-.381-5.594-.381l-2.758,1.212-.909-.4Z" transform="translate(-240.572 -217.339)" fill="#ff9a6c"/>
        <path id="Path_9334" data-name="Path 9334" d="M368.46,268.384l8.033.763,1.253.151s2.961-1.076,3.5-1.17,5.526,2.611,5.526,2.611.188,1.154-1.2.857a15.6,15.6,0,0,1-3.076-1.149s-4.507,2.089-5.406,2.512-6.267.376-6.267.376l-1.9,1.243Z" transform="translate(-233.721 -218.099)" fill="#ffbf9d"/>
        <path id="Path_9335" data-name="Path 9335" d="M374.51,285.44l3.275-2.089,11.266-4.011s.987-.9.481-1.264-12.5,1.436-12.5,1.436l-2.517,1.421Z" transform="translate(-236.612 -222.83)" fill="#ffbf9d"/>
        <path id="Path_9336" data-name="Path 9336" d="M289.533,271.044c0,.627-9.793,16.781-12.582,20.818-4.126,5.985-8.263,6.732-8.263,6.732l-5.489-4.586,22.6-24.485,6.711-4.894Z" transform="translate(-183.437 -216.429)" fill="#455a64"/>
        <path id="Path_9337" data-name="Path 9337" d="M303.92,285.03s8.8,3.969,12.091,4.539c3.875.663,25.138-.836,25.138-.836l-.4-8.461-31.071-.71-3.713-.982Z" transform="translate(-202.89 -223.093)" fill="#455a64"/>
        <g id="Group_1517" data-name="Group 1517" transform="translate(80.202 55.133)" opacity="0.3">
          <path id="Path_9338" data-name="Path 9338" d="M287.773,278.022c-.642.292-1.008,1.99-1.494,2.5-5.15,5.406-8.921,11.49-14.237,16.4-2.293,2.089-4.889,3.907-8,3.755l3.175,2.695c2.648-.052,4.4-1.3,6.393-3.034s2.846-4.236,4.382-6.388c3.51-4.9,6.941-10.383,10.446-15.287C288.263,277.98,288.415,277.735,287.773,278.022Z" transform="translate(-264.04 -277.904)"/>
        </g>
        <path id="Path_9339" data-name="Path 9339" d="M246.915,271.32s4.591.35,6.325-.721c2.089-1.285,20.416-25.341,20.416-25.341l.162-18.8-10.352-9.876L262.4,218.2l-22.014,25.127-14.1,13.4,16.932,9.1Z" transform="translate(-165.8 -193.475)" fill="#e0e0e0"/>
        <path id="Path_9340" data-name="Path 9340" d="M260.049,245.383c-.548.658.329,10.132-12.012,11.454-10.414,1.112-32.126-.047-38.649-.433a3.04,3.04,0,0,1-2.909-3.134,2.611,2.611,0,0,1,1.045-1.912c2.309-1.885,4.732-1.3,6.168-5.176s.778-5.306,3.3-6.842c3.567-2.167,12.3,1.807,12.3,1.807,2.194-3.322,3.348-6.267,6.435-10.216,2.491-3.2,5.87-7.589,8.612-9.14a35.111,35.111,0,0,1,5.05-2l1.692-.3,1.1-1.5c1.661,1.692,7.871,7.416,8.968,9.4l1.259,7.312Z" transform="translate(-156.339 -194.153)" fill="#455a64"/>
        <g id="Group_1518" data-name="Group 1518" transform="translate(105.313 55.398)" opacity="0.3">
          <path id="Path_9341" data-name="Path 9341" d="M339.514,281.664a185.805,185.805,0,0,1-26.772-3.254l-.622,1.358c5.823,3.656,9.855,3.766,14.269,4.084s8.518-.36,12.785-.36A2.69,2.69,0,0,0,339.514,281.664Z" transform="translate(-312.12 -278.41)"/>
        </g>
        <g id="Group_1519" data-name="Group 1519" transform="translate(84.239 39.515)" opacity="0.3">
          <path id="Path_9342" data-name="Path 9342" d="M275.086,248l-3.316.209c1.379,4.5,3.6,6.017,7.39,8.806s4.4,3.6,8.686,5.526c.413.183,3.656,2.209,3.755,1.776C284.237,259.793,279.991,255.108,275.086,248Z" transform="translate(-271.77 -248)"/>
        </g>
        <path id="Path_9343" data-name="Path 9343" d="M271.569,237.005c-1.2,3.348.977,4.889.977,4.889s17.758,16.128,24.929,16.943,25.968-.183,25.968-.183V249.9l-22.9-2.46s-9.213-10.858-14.311-16.3" transform="translate(-187.262 -200.43)" fill="#455a64"/>
        <path id="Path_9344" data-name="Path 9344" d="M286.231,231.14s.1.089.277.272l.778.825c.679.726,1.677,1.807,2.93,3.207,2.517,2.8,6.09,6.878,10.409,11.929l-.073-.037,22.9,2.434h.12v9h-.125l-4.11.188c-5.813.23-11.428.381-16.713.277l-1.969-.063c-.653-.042-1.3-.068-1.938-.115a16.8,16.8,0,0,1-1.906-.23c-.308-.073-.616-.157-.914-.245a8.892,8.892,0,0,1-.883-.319,37.115,37.115,0,0,1-6.231-3.431,120.989,120.989,0,0,1-9.688-7.249c-2.705-2.225-4.92-4.178-6.581-5.667h0a3.619,3.619,0,0,1-1.212-1.938,4.245,4.245,0,0,1-.078-1.671,5.008,5.008,0,0,1,.23-1c.073-.219.115-.324.115-.324a1.063,1.063,0,0,1-.084.334,5.008,5.008,0,0,0-.2.992,4.246,4.246,0,0,0,.1,1.64,3.541,3.541,0,0,0,1.2,1.875h0c1.671,1.488,3.9,3.405,6.617,5.609s5.933,4.7,9.7,7.2a36.9,36.9,0,0,0,6.21,3.411c.282.115.58.2.867.308a7.509,7.509,0,0,0,.893.24,16.578,16.578,0,0,0,1.875.219c.637.052,1.28.073,1.927.115l1.964.057c5.286.1,10.9-.057,16.713-.287l4.105-.188-.131.136V249.9l.12.131-22.9-2.486H300.5v-.031c-4.3-5.061-7.834-9.161-10.336-12.013l-2.888-3.243-.757-.846A1.464,1.464,0,0,1,286.231,231.14Z" transform="translate(-187.248 -200.43)" fill="#263238"/>
        <path id="Path_9345" data-name="Path 9345" d="M300.694,280.73a6.4,6.4,0,0,1-.491.783l-1.379,2.089c-1.154,1.786-2.716,4.283-4.429,7.046s-3.269,5.259-4.424,7.051c-.58.9-1.045,1.619-1.389,2.089a6.267,6.267,0,0,1-.522.752,5.985,5.985,0,0,1,.454-.81l1.311-2.152,4.361-7.1c1.713-2.763,3.3-5.223,4.5-7.009.6-.883,1.1-1.567,1.452-2.063A5.968,5.968,0,0,1,300.694,280.73Z" transform="translate(-195.313 -224.12)" fill="#263238"/>
        <path id="Path_9346" data-name="Path 9346" d="M393.625,275.046l-21.45,3.306a.742.742,0,0,1-.857-.627l-.037-.219a.757.757,0,0,1,.632-.862l22.772-3.374-.282,1.1A.924.924,0,0,1,393.625,275.046Z" transform="translate(-235.065 -220.557)" fill="#e0e0e0"/>
        <path id="Path_9347" data-name="Path 9347" d="M393.5,274.988a.987.987,0,0,0,.757-.877c.063-.272.136-.585.219-.93l.063.068c-3.792.611-12.352,1.912-22.3,3.384a4.887,4.887,0,0,0-.6.1.632.632,0,0,0-.35.366.706.706,0,0,0-.031.256,1.884,1.884,0,0,0,.042.292.637.637,0,0,0,.287.413.694.694,0,0,0,.522.063l.606-.094,1.206-.183,4.6-.695,7.787-1.165,5.259-.757,1.431-.193.371-.047h.131l-.125.031-.371.073-1.421.245-5.223.846-7.782,1.217-4.6.71-1.206.188-.611.094a.956.956,0,0,1-.689-.1.882.882,0,0,1-.413-.585,2.514,2.514,0,0,0-.052-.329.862.862,0,0,1,.047-.366.9.9,0,0,1,.522-.522,4.312,4.312,0,0,1,.658-.12c9.923-1.478,18.515-2.716,22.322-3.228h.084v.084l-.251.924a1.133,1.133,0,0,1-.319.627.836.836,0,0,1-.376.209A1.006,1.006,0,0,1,393.5,274.988Z" transform="translate(-234.941 -220.499)" fill="#263238"/>
        <path id="Path_9348" data-name="Path 9348" d="M412.88,253.321l6.435-21.649a.763.763,0,0,1,.956-.522l.188.057a.768.768,0,0,1,.522.956l-6.79,22.192Z" transform="translate(-254.942 -200.419)" fill="#e0e0e0"/>
        <path id="Path_9349" data-name="Path 9349" d="M412.866,253.178l.094.063.256.193.992.752h-.078c.966-3.353,3.656-12.143,6.722-22.338a.653.653,0,0,0-.167-.491.961.961,0,0,0-.522-.24.648.648,0,0,0-.783.522c-.24.8-.475,1.6-.71,2.376l-1.342,4.486c-.862,2.857-1.64,5.437-2.3,7.6s-1.2,3.907-1.567,5.144c-.188.59-.334,1.045-.439,1.4-.052.151-.089.272-.125.371a.477.477,0,0,1-.047.125v-.12a1.931,1.931,0,0,1,.1-.36l.386-1.389c.36-1.238.862-2.993,1.483-5.145s1.4-4.779,2.241-7.657c.423-1.441.872-2.951,1.332-4.523.235-.783.47-1.567.71-2.387a.961.961,0,0,1,.392-.6.888.888,0,0,1,.716-.125c.125.037.2.052.329.1a.976.976,0,0,1,.308.219.919.919,0,0,1,.24.695,4.2,4.2,0,0,1-.136.522l-.146.475c-.1.319-.193.637-.292.951-.188.627-.381,1.248-.569,1.859l-1.06,3.6c-.71,2.308-1.379,4.466-1.974,6.408-1.206,3.844-2.147,6.842-2.685,8.565v.068l-.057-.047-.971-.8A2.336,2.336,0,0,1,412.866,253.178Z" transform="translate(-254.927 -200.277)" fill="#263238"/>
        <path id="Path_9350" data-name="Path 9350" d="M300.769,230.056c-.037,0-.439-.569-1.139-1.494a41.773,41.773,0,0,0-2.92-3.437c-1.212-1.285-2.382-2.376-3.228-3.165a14.038,14.038,0,0,1-1.353-1.3,2.2,2.2,0,0,1,.418.287c.256.2.622.5,1.045.872a41.452,41.452,0,0,1,3.29,3.134,29.593,29.593,0,0,1,2.883,3.51c.334.475.585.872.747,1.154a1.838,1.838,0,0,1,.256.439Z" transform="translate(-197.257 -195.424)" fill="#263238"/>
        <g id="Group_1520" data-name="Group 1520" transform="translate(50.089 48.13)" opacity="0.3">
          <path id="Path_9351" data-name="Path 9351" d="M252.108,278.176c-1.52.4-13.538-.413-19.565-2.34a40.479,40.479,0,0,1-11.4-5.348,22.9,22.9,0,0,1-5.651-5.944c-.695-.4-1.149,1.692-1.426,2.554s-.851,3.134-2.444,4.178c-1.953,1.269-4.951,1.687-5.223,4.283a2.964,2.964,0,0,0,2.94,3.05c5.144.251,19.324.935,23.127.93C237.113,279.513,247.068,279.78,252.108,278.176Z" transform="translate(-206.384 -264.495)"/>
        </g>
        <path id="Path_9352" data-name="Path 9352" d="M262.13,276.895a3.253,3.253,0,0,1-.334.287,4.491,4.491,0,0,1-1.165.522,15.726,15.726,0,0,1-4.643.292c-1.969-.094-4.293-.386-6.863-.752a69.725,69.725,0,0,1-8.294-1.614,37.6,37.6,0,0,1-7.892-3.029,26.588,26.588,0,0,1-5.646-3.975,20.892,20.892,0,0,1-3.061-3.51c-.308-.454-.522-.815-.674-1.071a2.962,2.962,0,0,1-.209-.387,2.189,2.189,0,0,1,.256.36c.151.245.392.6.716,1.045a22.393,22.393,0,0,0,3.1,3.426,27.311,27.311,0,0,0,5.63,3.9,38.125,38.125,0,0,0,7.871,2.94,72.241,72.241,0,0,0,8.263,1.624c2.57.381,4.883.695,6.837.815a16.562,16.562,0,0,0,4.607-.209,4.789,4.789,0,0,0,1.159-.454,3.63,3.63,0,0,1,.34-.209Z" transform="translate(-164.4 -215.966)" fill="#263238"/>
        <path id="Path_9353" data-name="Path 9353" d="M300.983,281.925c-.052.052-.413-.246-.8-.663s-.658-.8-.6-.846.413.245.8.663S301.04,281.878,300.983,281.925Z" transform="translate(-200.814 -223.968)" fill="#263238"/>
        <path id="Path_9354" data-name="Path 9354" d="M284.642,229.272a19.825,19.825,0,0,0-1.985-.491,9.5,9.5,0,0,0-8.821,3.207c-.82.961-1.159,1.682-1.206,1.656a1.922,1.922,0,0,1,.219-.522,7.994,7.994,0,0,1,.841-1.264,9.177,9.177,0,0,1,9-3.275,8.355,8.355,0,0,1,1.457.428A1.639,1.639,0,0,1,284.642,229.272Z" transform="translate(-187.942 -199.121)" fill="#263238"/>
        <path id="Path_9355" data-name="Path 9355" d="M268.964,269.74a.711.711,0,0,1-.2.084,4.905,4.905,0,0,1-.585.188,8.257,8.257,0,0,1-2.251.245,11.939,11.939,0,0,1-3.311-.59,18.919,18.919,0,0,1-3.734-1.718c-1.254-.747-2.392-1.541-3.426-2.256s-1.964-1.353-2.773-1.849-1.483-.867-1.953-1.107a5.308,5.308,0,0,1-.731-.386.9.9,0,0,1,.2.063c.131.052.329.12.569.23a19.087,19.087,0,0,1,2.011,1.045c1.666.935,3.766,2.538,6.236,4.032a19.845,19.845,0,0,0,3.656,1.713,12.056,12.056,0,0,0,3.238.637A11.338,11.338,0,0,0,268.964,269.74Z" transform="translate(-177.131 -215.34)" fill="#263238"/>
        <path id="Path_9356" data-name="Path 9356" d="M262.758,276.756a3.25,3.25,0,0,1-.4,0l-1.139-.063c-.491-.026-1.1-.068-1.8-.141s-1.5-.131-2.376-.256-1.844-.23-2.867-.413-2.12-.381-3.27-.616a64.459,64.459,0,0,1-7.343-2.032,56.641,56.641,0,0,1-7-3.014c-1.045-.564-2.016-1.081-2.893-1.645-.439-.282-.877-.522-1.274-.8l-1.144-.794c-.742-.486-1.353-1.008-1.912-1.431-.277-.219-.522-.418-.768-.611l-.622-.522-.851-.763a2.217,2.217,0,0,1-.282-.282,2.907,2.907,0,0,1,.319.24l.883.721.632.522c.235.188.522.376.778.59.569.413,1.186.919,1.932,1.395l1.149.773c.4.272.836.522,1.28.789.877.554,1.865,1.045,2.888,1.619A59.106,59.106,0,0,0,243.658,273a68.469,68.469,0,0,0,7.312,2.047c1.144.24,2.23.47,3.254.632s1.979.324,2.857.449,1.671.2,2.366.293,1.3.141,1.791.188l1.133.11a1.831,1.831,0,0,1,.386.042Z" transform="translate(-166.058 -215.827)" fill="#263238"/>
        <path id="Path_9357" data-name="Path 9357" d="M282.721,447.33l-.851,14.149,21.414.162c-.11-2.047-11.166-6.267-11.166-6.267l.329-7.672Z" transform="translate(-192.356 -303.708)" fill="#d16800"/>
        <path id="Path_9358" data-name="Path 9358" d="M288.278,460.907a.872.872,0,0,0-.611.992.836.836,0,0,0,.977.616.93.93,0,0,0,.648-1.045.872.872,0,0,0-1.092-.522" transform="translate(-195.118 -310.193)" fill="#e0e0e0"/>
        <path id="Path_9359" data-name="Path 9359" d="M281.87,472.786V471l20.6.94s.951.428.83,1.1Z" transform="translate(-192.356 -315.016)" fill="#263238"/>
        <path id="Path_9360" data-name="Path 9360" d="M300.4,462.482c0,.1-.522.146-1.045.48s-.794.768-.888.726.063-.642.695-1.045S300.426,462.383,300.4,462.482Z" transform="translate(-200.273 -310.895)" fill="#e0e0e0"/>
        <path id="Path_9361" data-name="Path 9361" d="M305.17,464.351c0,.1-.428.277-.789.716s-.465.909-.569.9-.167-.6.293-1.139S305.17,464.252,305.17,464.351Z" transform="translate(-202.802 -311.819)" fill="#e0e0e0"/>
        <path id="Path_9362" data-name="Path 9362" d="M308.779,467.915c-.094,0-.235-.522.037-1.076s.763-.794.81-.705-.261.392-.481.862S308.883,467.9,308.779,467.915Z" transform="translate(-205.153 -312.682)" fill="#e0e0e0"/>
        <path id="Path_9363" data-name="Path 9363" d="M299.83,457.408c-.047.094-.522-.052-1.118,0s-1.045.219-1.107.131.392-.46,1.092-.491S299.9,457.325,299.83,457.408Z" transform="translate(-199.87 -308.349)" fill="#e0e0e0"/>
        <path id="Path_9364" data-name="Path 9364" d="M297.956,451.274a2.058,2.058,0,0,1-1.076,0,4.964,4.964,0,0,1-1.118-.355,5.108,5.108,0,0,1-.616-.334,1.3,1.3,0,0,1-.324-.251.46.46,0,0,1-.042-.559.559.559,0,0,1,.46-.235,1.312,1.312,0,0,1,.4.057,3.754,3.754,0,0,1,1.65.893c.5.46.663.857.627.872s-.287-.292-.794-.679a4.343,4.343,0,0,0-.951-.522,4.254,4.254,0,0,0-.616-.2c-.225-.057-.418-.063-.475.037s-.026.057,0,.12a1.044,1.044,0,0,0,.235.188,5.828,5.828,0,0,0,.564.329,6.27,6.27,0,0,0,1.045.407,7.083,7.083,0,0,1,1.029.23Z" transform="translate(-198.488 -304.764)" fill="#e0e0e0"/>
        <path id="Path_9365" data-name="Path 9365" d="M300.408,450.05a1.713,1.713,0,0,1-.272-1.045,3.358,3.358,0,0,1,.433-1.823.872.872,0,0,1,.689-.522.522.522,0,0,1,.444.3,1.594,1.594,0,0,1,.11.392,2.613,2.613,0,0,1,0,.726,2.46,2.46,0,0,1-.47,1.1c-.423.554-.862.674-.867.642a4.349,4.349,0,0,0,.653-.783,2.528,2.528,0,0,0,.35-1.008,2.262,2.262,0,0,0,0-.622c-.031-.23-.115-.413-.2-.392a.771.771,0,0,0-.376.35,4.138,4.138,0,0,0-.272.58,3.846,3.846,0,0,0-.214,1.071C300.356,449.637,300.465,450.034,300.408,450.05Z" transform="translate(-201.08 -303.388)" fill="#e0e0e0"/>
        <path id="Path_9366" data-name="Path 9366" d="M128.011,379.734,114.186,376.6l-3.656,21.121c2.037.225,7.97-10.007,7.97-10.007l7.516,1.567Z" transform="translate(-110.504 -269.919)" fill="#d16800"/>
        <path id="Path_9367" data-name="Path 9367" d="M128.265,384.978a.877.877,0,0,0-.877-.768.841.841,0,0,0-.768.867.924.924,0,0,0,.935.81.872.872,0,0,0,.7-.992" transform="translate(-118.19 -273.554)" fill="#e0e0e0"/>
        <path id="Path_9368" data-name="Path 9368" d="M114.183,376.6l1.786.287L111.7,397.068s-.575.862-1.217.637Z" transform="translate(-110.48 -269.919)" fill="#263238"/>
        <path id="Path_9369" data-name="Path 9369" d="M125.192,396.629c-.1,0-.057-.522-.3-1.107s-.632-.909-.575-1,.627.167.909.857S125.265,396.671,125.192,396.629Z" transform="translate(-117.086 -278.474)" fill="#e0e0e0"/>
        <path id="Path_9370" data-name="Path 9370" d="M122.218,401c-.1,0-.2-.47-.58-.893s-.82-.606-.8-.71.616-.068,1.076.47S122.317,401.016,122.218,401Z" transform="translate(-115.428 -280.787)" fill="#e0e0e0"/>
        <path id="Path_9371" data-name="Path 9371" d="M118,403.983c0-.1.522-.151,1.045.209s.663.883.569.914-.345-.324-.773-.616S118,404.088,118,403.983Z" transform="translate(-114.072 -282.965)" fill="#e0e0e0"/>
        <path id="Path_9372" data-name="Path 9372" d="M130.771,396.973c-.089-.063.136-.522.2-1.1s-.047-1.081.052-1.118.392.465.308,1.154S130.844,397.056,130.771,396.973Z" transform="translate(-120.164 -278.593)" fill="#e0e0e0"/>
        <path id="Path_9373" data-name="Path 9373" d="M135.677,396.163a2.089,2.089,0,0,1,.188-1.045,4.972,4.972,0,0,1,.522-1.045,5.091,5.091,0,0,1,.428-.554,1.458,1.458,0,0,1,.3-.277.454.454,0,0,1,.554.047.58.58,0,0,1,.162.5,1.4,1.4,0,0,1-.125.386,3.475,3.475,0,0,1-.339.616,3.728,3.728,0,0,1-.8.867,1.823,1.823,0,0,1-.966.475c-.026-.052.334-.235.794-.674a4.112,4.112,0,0,0,.695-.851,3.484,3.484,0,0,0,.292-.575c.1-.214.131-.4.042-.475s-.047-.037-.12,0a1.1,1.1,0,0,0-.225.2,5.158,5.158,0,0,0-.413.522,5.867,5.867,0,0,0-.569.956A6.713,6.713,0,0,1,135.677,396.163Z" transform="translate(-122.479 -277.835)" fill="#e0e0e0"/>
        <path id="Path_9374" data-name="Path 9374" d="M135.52,398.463a1.723,1.723,0,0,1,1.045-.1,3.447,3.447,0,0,1,1.133.34,3.733,3.733,0,0,1,.6.381.909.909,0,0,1,.418.768.522.522,0,0,1-.371.392,1.458,1.458,0,0,1-.407.042,2.611,2.611,0,0,1-.716-.12,2.512,2.512,0,0,1-1.013-.642c-.475-.522-.522-.961-.491-.961a4.33,4.33,0,0,0,.669.773,2.412,2.412,0,0,0,.935.522,2.172,2.172,0,0,0,.616.089c.23,0,.423-.052.418-.136a.8.8,0,0,0-.282-.434,3.417,3.417,0,0,0-.522-.36,3.761,3.761,0,0,0-1.045-.386C135.927,398.479,135.525,398.526,135.52,398.463Z" transform="translate(-122.442 -280.297)" fill="#e0e0e0"/>
        <path id="Path_9375" data-name="Path 9375" d="M178.777,296.86c-.768,1.222-8.7,5.4-8.508,17.826l-5.192,27.164-30.94-2.9-2.867,12.42,39.27,6.476s5.541,1.337,8.79-5.16,11.939-30.167,12.127-30.742S197,307.421,197,307.421Z" transform="translate(-120.412 -231.826)" fill="#263238"/>
        <path id="Path_9376" data-name="Path 9376" d="M210.994,306.114c-.068.366-2.12,8.236,5.985,14.1S248.8,341.18,248.8,341.18l.627,2.5L247.3,380.5l13.438.261s3.922-36.215,4.032-39.955-.293-8.879-5.082-13l-25.111-21.685s-16.9-9.354-16.713-9.255S211.991,300.625,210.994,306.114Z" transform="translate(-158.363 -231.825)" fill="#263238"/>
        <path id="Path_9377" data-name="Path 9377" d="M222.23,294.658l1.8-2.408a75.27,75.27,0,0,1,12.942,6.884c3.243,2.345,7.98,5.489,7.557,8.821Z" transform="translate(-163.865 -229.624)" fill="#263238"/>
        <path id="Path_9378" data-name="Path 9378" d="M248.7,345.26a.689.689,0,0,1-.136-.073l-.386-.235-1.483-.924-5.406-3.442c-4.554-2.925-10.848-6.957-17.721-11.537-1.724-1.144-3.343-2.345-4.956-3.442a34.506,34.506,0,0,1-4.408-3.494,11.024,11.024,0,0,1-3.687-8.555,13.641,13.641,0,0,1,1.478-6.21,9.868,9.868,0,0,1,.935-1.473l.292-.35a.973.973,0,0,1,.1-.115s-.026.047-.084.131l-.266.366a11.492,11.492,0,0,0-.888,1.489,13.778,13.778,0,0,0-1.379,6.163,11.871,11.871,0,0,0,.783,4.293,11.725,11.725,0,0,0,2.883,4.069,34.822,34.822,0,0,0,4.392,3.463c1.609,1.092,3.233,2.293,4.951,3.431,6.894,4.586,13.162,8.644,17.674,11.61l5.359,3.515,1.452.966.376.261C248.667,345.224,248.709,345.255,248.7,345.26Z" transform="translate(-158.27 -235.91)" fill="#455a64"/>
        <path id="Path_9379" data-name="Path 9379" d="M265.988,324.442a1.327,1.327,0,0,1-.235-.167l-.632-.522-2.267-1.9-7.49-6.4a59.845,59.845,0,0,0-7.834-5.949c-1.045-.695-1.912-1.238-2.507-1.614l-.684-.439c-.157-.1-.235-.157-.23-.167a1.5,1.5,0,0,1,.256.12c.167.089.407.219.71.392.616.35,1.494.872,2.559,1.567a54.412,54.412,0,0,1,7.907,5.886l7.432,6.461,2.23,1.979.6.548A1.681,1.681,0,0,1,265.988,324.442Z" transform="translate(-174.317 -236.804)" fill="#455a64"/>
        <path id="Path_9380" data-name="Path 9380" d="M200.661,390.943a36,36,0,0,1-2.523-3.713,37.683,37.683,0,0,1-2.3-3.86,37.225,37.225,0,0,1,2.528,3.713,38.836,38.836,0,0,1,2.293,3.86Z" transform="translate(-151.258 -273.153)" fill="#455a64"/>
        <path id="Path_9381" data-name="Path 9381" d="M203.645,388.646a29.248,29.248,0,0,1-3.186-2.429,28.728,28.728,0,0,1-3.019-2.638,29.57,29.57,0,0,1,3.191,2.429,28.957,28.957,0,0,1,3.014,2.638Z" transform="translate(-152.022 -273.254)" fill="#455a64"/>
        <path id="Path_9382" data-name="Path 9382" d="M289.846,377.13c0,.078-1.567.522-3.463,1.128s-3.452,1.154-3.484,1.081a4.242,4.242,0,0,1,.966-.465c.616-.251,1.473-.569,2.434-.877s1.844-.522,2.486-.689a4.076,4.076,0,0,1,1.06-.178Z" transform="translate(-192.848 -270.172)" fill="#455a64"/>
        <path id="Path_9383" data-name="Path 9383" d="M291.777,385.466a208.948,208.948,0,0,1-6.607.418,14.876,14.876,0,0,1,3.29-.454A14.625,14.625,0,0,1,291.777,385.466Z" transform="translate(-193.932 -274.1)" fill="#455a64"/>
      </g>
      <g id="freepik--Documents--inject-232" transform="translate(50.443 162.657)">
        <path id="Path_9384" data-name="Path 9384" d="M115.616,435.469a29.073,29.073,0,0,1,19.277-9.328c-1.833-2.857-5.092-8.424-6.925-11.281-9.761.047-17.345,5.552-22.458,13.757C109.1,431.213,112.033,432.874,115.616,435.469Z" transform="translate(-84.989 -361.66)" fill="#e0e0e0"/>
        <path id="Path_9385" data-name="Path 9385" d="M115.482,435.345l-.178-.11-.522-.36-2.021-1.353c-1.76-1.175-4.377-2.758-7.453-4.951l-.078-.052.052-.078a39.723,39.723,0,0,1,3.134-4.345,30.249,30.249,0,0,1,4.387-4.225,25.16,25.16,0,0,1,5.745-3.4,23.862,23.862,0,0,1,6.931-1.739,11.016,11.016,0,0,1,1.17-.089l1.154-.042h.078l.037.068c2.528,3.99,4.753,7.876,6.92,11.292l.11.167h-.2a30.408,30.408,0,0,0-8.6,1.964,28.2,28.2,0,0,0-6.043,3.3,36.8,36.8,0,0,0-3.473,2.841l-.872.83-.219.2q-.078.073-.078.063l.073-.084.214-.225c.188-.193.454-.486.825-.846a33.886,33.886,0,0,1,3.442-2.9,27.43,27.43,0,0,1,6.053-3.369,30.209,30.209,0,0,1,8.659-2.021l-.094.188c-2.183-3.411-4.419-7.312-6.936-11.276l.115.063-1.149.042a8.639,8.639,0,0,0-1.154.084,23.7,23.7,0,0,0-6.816,1.734,24.882,24.882,0,0,0-5.709,3.353,30.686,30.686,0,0,0-4.372,4.178,41.661,41.661,0,0,0-3.134,4.3v-.136c3.055,2.2,5.662,3.818,7.4,5.019.877.6,1.567,1.076,2,1.4l.522.376Z" transform="translate(-84.856 -361.536)" fill="#263238"/>
        <path id="Path_9386" data-name="Path 9386" d="M114.06,437.14a34.852,34.852,0,0,1,3.52,2.507,35.466,35.466,0,0,1,3.358,2.726,32.923,32.923,0,0,1-3.52-2.507A35.477,35.477,0,0,1,114.06,437.14Z" transform="translate(-89.074 -372.304)" fill="#263238"/>
        <path id="Path_9387" data-name="Path 9387" d="M117.89,432.29a33.868,33.868,0,0,1,3.285,2.81,34.811,34.811,0,0,1,3.1,3.014,69.165,69.165,0,0,1-6.382-5.823Z" transform="translate(-90.904 -369.987)" fill="#263238"/>
        <path id="Path_9388" data-name="Path 9388" d="M123.6,427.75a6.325,6.325,0,0,1,.883.893c.522.569,1.253,1.348,2.089,2.2s1.541,1.645,2.032,2.246a4.805,4.805,0,0,1,.742,1.013,6.428,6.428,0,0,1-.883-.888l-2.089-2.183c-.815-.857-1.53-1.661-2.016-2.267a5.248,5.248,0,0,1-.757-1.018Z" transform="translate(-93.631 -367.818)" fill="#263238"/>
        <path id="Path_9389" data-name="Path 9389" d="M134.991,431.759a5.267,5.267,0,0,1-.857-.914c-.491-.6-1.139-1.447-1.791-2.429s-1.2-1.891-1.593-2.559a5.742,5.742,0,0,1-.58-1.107,40.178,40.178,0,0,1,2.4,3.515c.653.977,1.269,1.844,1.718,2.465A6.132,6.132,0,0,1,134.991,431.759Z" transform="translate(-96.77 -366.385)" fill="#263238"/>
        <path id="Path_9390" data-name="Path 9390" d="M140.407,430.06a4.972,4.972,0,0,1-.705-.9c-.407-.585-.935-1.41-1.462-2.356s-.956-1.823-1.243-2.47a4.7,4.7,0,0,1-.4-1.081c.073-.031.825,1.567,1.88,3.421S140.465,430.013,140.407,430.06Z" transform="translate(-99.842 -365.668)" fill="#263238"/>
        <path id="Path_9391" data-name="Path 9391" d="M146.107,428.134a5.062,5.062,0,0,1-.726-.919c-.413-.59-.966-1.426-1.541-2.366s-1.045-1.812-1.395-2.455a4.7,4.7,0,0,1-.486-1.045,5.358,5.358,0,0,1,.653.971l1.462,2.408c.522.888,1.045,1.692,1.468,2.4A4.7,4.7,0,0,1,146.107,428.134Z" transform="translate(-102.402 -364.761)" fill="#263238"/>
        <path id="Path_9392" data-name="Path 9392" d="M183.773,320.961a31.685,31.685,0,0,1-22.124-7.531c-.763,3.625-2.5,10.446-3.27,14.076,7.636,7.437,17.721,8.978,28,6.539C185.565,329.26,184.578,325.74,183.773,320.961Z" transform="translate(-110.246 -313.205)" fill="#fafafa"/>
        <path id="Path_9393" data-name="Path 9393" d="M183.644,320.756a.788.788,0,0,0,.052.225c.052.151.078.392.136.684.12.611.3,1.483.522,2.611.46,2.262,1.274,5.494,1.99,9.558v.094h-.094a43.872,43.872,0,0,1-5.74.966,33.462,33.462,0,0,1-6.649-.078,27.6,27.6,0,0,1-7.077-1.781,25.958,25.958,0,0,1-6.711-3.959,10.569,10.569,0,0,1-.971-.83l-.935-.851-.057-.047v-.078c1.1-5.035,2.35-9.756,3.285-14.07l.047-.2.157.131a33.071,33.071,0,0,0,8.189,5.066,30.485,30.485,0,0,0,7.223,2.089,40.553,40.553,0,0,0,4.878.454h1.3c-.3,0-.726.026-1.29,0a36.358,36.358,0,0,1-4.9-.386,30.027,30.027,0,0,1-7.281-2.026,33.149,33.149,0,0,1-8.273-5.066l.2-.068c-.924,4.325-2.167,9.051-3.264,14.076l-.037-.125.924.846c.308.282.622.564.961.82a25.921,25.921,0,0,0,6.643,3.922,27.253,27.253,0,0,0,7.009,1.771,33,33,0,0,0,6.6.1,45.644,45.644,0,0,0,5.745-.919l-.073.11c-.684-4.053-1.473-7.312-1.9-9.563-.225-1.133-.376-2.016-.475-2.611-.047-.287-.078-.522-.1-.679a1.51,1.51,0,0,1-.026-.188Z" transform="translate(-110.117 -313)" fill="#263238"/>
        <path id="Path_9394" data-name="Path 9394" d="M200.991,340.919a40.831,40.831,0,0,1-.8-4.648,41.256,41.256,0,0,1-.522-4.7,40.828,40.828,0,0,1,.8,4.648,41.256,41.256,0,0,1,.522,4.7Z" transform="translate(-129.971 -321.871)" fill="#263238"/>
        <path id="Path_9395" data-name="Path 9395" d="M195.038,341.711a41.812,41.812,0,0,1-.381-4.7,39.966,39.966,0,0,1-.11-4.7,81.76,81.76,0,0,1,.491,9.4Z" transform="translate(-127.512 -322.225)" fill="#263238"/>
        <path id="Path_9396" data-name="Path 9396" d="M187.569,340.928a6.919,6.919,0,0,1,0-1.374c.031-.841.063-2.006.084-3.3s.063-2.455.136-3.3a6.267,6.267,0,0,1,.193-1.358,7.888,7.888,0,0,1,0,1.368c0,.94-.037,2.058-.057,3.3s-.084,2.46-.167,3.306a6.623,6.623,0,0,1-.188,1.358Z" transform="translate(-124.174 -321.886)" fill="#263238"/>
        <path id="Path_9397" data-name="Path 9397" d="M181.824,329.25a5.824,5.824,0,0,1-.042,1.363,32.7,32.7,0,0,1-.475,3.259c-.24,1.264-.522,2.392-.721,3.212a7.244,7.244,0,0,1-.386,1.306,6.366,6.366,0,0,1,.2-1.353c.183-.914.4-2.006.642-3.217s.428-2.4.548-3.228A7.9,7.9,0,0,1,181.824,329.25Z" transform="translate(-120.67 -320.763)" fill="#263238"/>
        <path id="Path_9398" data-name="Path 9398" d="M176.3,327.27a5.191,5.191,0,0,1-.151,1.243c-.136.763-.36,1.807-.674,2.946s-.653,2.152-.924,2.873a5.082,5.082,0,0,1-.522,1.144,6.751,6.751,0,0,1,.329-1.206c.225-.736.522-1.75.846-2.883s.564-2.162.747-2.914a5.985,5.985,0,0,1,.35-1.2Z" transform="translate(-117.723 -319.817)" fill="#263238"/>
        <path id="Path_9399" data-name="Path 9399" d="M170.4,324.17a5.746,5.746,0,0,1-.151,1.269c-.131.778-.345,1.849-.616,3.019s-.564,2.22-.794,2.972a5.572,5.572,0,0,1-.434,1.206,6.1,6.1,0,0,1,.245-1.253c.209-.862.449-1.875.716-2.987s.5-2.131.695-2.993a6.226,6.226,0,0,1,.339-1.233Z" transform="translate(-115.033 -318.336)" fill="#263238"/>
        <path id="Path_9400" data-name="Path 9400" d="M216.185,412.81a29.483,29.483,0,0,1-17.935,12.206c2.261,2.611,6.351,7.693,8.612,10.284,9.777-1.5,16.556-8.142,20.484-17.12C223.346,416.106,220.186,414.878,216.185,412.81Z" transform="translate(-129.293 -360.681)" fill="#ebebeb"/>
        <path id="Path_9401" data-name="Path 9401" d="M215.97,412.8a1.248,1.248,0,0,1,.193.084l.585.282,2.225,1.045c1.932.919,4.789,2.12,8.2,3.86l.089.042-.042.084a40.907,40.907,0,0,1-2.512,4.821,30.816,30.816,0,0,1-3.771,4.889,25.428,25.428,0,0,1-5.275,4.272,24.272,24.272,0,0,1-6.685,2.773,10.93,10.93,0,0,1-1.159.256l-1.154.219h-.073l-.047-.057c-3.134-3.656-5.933-7.192-8.607-10.289l-.136-.157.2-.047a30.63,30.63,0,0,0,8.33-3.249,28.105,28.105,0,0,0,5.568-4.2,36.268,36.268,0,0,0,3.061-3.363l.747-.956.193-.24c.042-.052.063-.078.068-.073l-.063.094-.183.256c-.162.225-.381.554-.705.971A33.689,33.689,0,0,1,212,417.532a28.256,28.256,0,0,1-5.568,4.278,30.691,30.691,0,0,1-8.357,3.306l.068-.2c2.69,3.1,5.5,6.654,8.623,10.273l-.125-.047,1.144-.214a10.656,10.656,0,0,0,1.144-.256,23.989,23.989,0,0,0,6.617-2.737,25.2,25.2,0,0,0,5.223-4.21,30.773,30.773,0,0,0,3.76-4.831,42.307,42.307,0,0,0,2.523-4.779l.047.131c-3.39-1.755-6.236-2.987-8.158-3.933-.966-.47-1.708-.846-2.2-1.107l-.554-.308Z" transform="translate(-129.078 -360.671)" fill="#263238"/>
        <path id="Path_9402" data-name="Path 9402" d="M238.992,424.56a37.149,37.149,0,0,1-3.9-2,35.185,35.185,0,0,1-3.766-2.235,36.567,36.567,0,0,1,3.9,2A35.194,35.194,0,0,1,238.992,424.56Z" transform="translate(-145.096 -364.273)" fill="#263238"/>
        <path id="Path_9403" data-name="Path 9403" d="M236.2,429.379a68.909,68.909,0,0,1-7.26-4.889,35.325,35.325,0,0,1,3.687,2.356A35.251,35.251,0,0,1,236.2,429.379Z" transform="translate(-143.954 -366.261)" fill="#263238"/>
        <path id="Path_9404" data-name="Path 9404" d="M231.68,434.2a6.059,6.059,0,0,1-1.013-.768c-.611-.491-1.457-1.165-2.4-1.9s-1.791-1.421-2.376-1.948a5.066,5.066,0,0,1-.893-.909,6.745,6.745,0,0,1,1.018.757l2.418,1.885c.945.736,1.776,1.436,2.355,1.964A5.221,5.221,0,0,1,231.68,434.2Z" transform="translate(-142.072 -368.262)" fill="#263238"/>
        <path id="Path_9405" data-name="Path 9405" d="M220.41,431.15a5.391,5.391,0,0,1,.992.789,30.146,30.146,0,0,1,2.157,2.167c.8.888,1.489,1.724,1.974,2.329a5.808,5.808,0,0,1,.747,1.045c-.063.057-1.337-1.4-2.925-3.17-.794-.877-1.567-1.656-2.089-2.209a6.406,6.406,0,0,1-.857-.951Z" transform="translate(-139.879 -369.442)" fill="#263238"/>
        <path id="Path_9406" data-name="Path 9406" d="M216.188,433.71a4.59,4.59,0,0,1,.841.8c.491.522,1.144,1.274,1.812,2.141s1.233,1.687,1.614,2.293a4.529,4.529,0,0,1,.559,1.045c-.068.042-1.045-1.426-2.387-3.134S216.125,433.762,216.188,433.71Z" transform="translate(-137.861 -370.665)" fill="#263238"/>
        <path id="Path_9407" data-name="Path 9407" d="M210.45,436.55a4.9,4.9,0,0,1,.862.815c.522.522,1.18,1.285,1.9,2.141s1.332,1.661,1.765,2.251a4.606,4.606,0,0,1,.642,1,5.49,5.49,0,0,1-.794-.877l-1.823-2.2c-.679-.81-1.29-1.567-1.828-2.183a5.815,5.815,0,0,1-.721-.945Z" transform="translate(-135.121 -372.022)" fill="#263238"/>
        <path id="Path_9408" data-name="Path 9408" d="M329.364,396.331a29.426,29.426,0,0,1,20.923-5.625c-1.28-3.186-3.468-9.338-4.748-12.535-9.709-1.8-18.28,2.241-24.939,9.4C323.7,390.868,326.272,393.066,329.364,396.331Z" transform="translate(-187.742 -343.93)" fill="#fafafa"/>
        <path id="Path_9409" data-name="Path 9409" d="M329.24,396.228a1.179,1.179,0,0,1-.151-.141l-.465-.46-1.75-1.729c-1.525-1.5-3.823-3.567-6.471-6.33l-.063-.068.063-.068a40.42,40.42,0,0,1,3.954-3.719,31,31,0,0,1,5.16-3.374,25.44,25.44,0,0,1,6.367-2.288,24.026,24.026,0,0,1,7.223-.418,11.239,11.239,0,0,1,1.175.136l1.159.172h.073v.073c1.755,4.45,3.233,8.733,4.737,12.535l.078.188h-.2a30.684,30.684,0,0,0-8.921.329,28.3,28.3,0,0,0-6.633,2.136,36.037,36.037,0,0,0-3.99,2.167l-1.045.658-.256.162c-.057.037-.089.052-.089.047l.089-.068.256-.183c.225-.157.522-.4.982-.684a33.706,33.706,0,0,1,3.969-2.235,27.778,27.778,0,0,1,6.7-2.235,30.691,30.691,0,0,1,8.988-.371l-.131.167c-1.52-3.8-3.008-8.085-4.758-12.535l.1.078-1.149-.167a9.487,9.487,0,0,0-1.159-.136,24.023,24.023,0,0,0-7.14.407,25.447,25.447,0,0,0-6.309,2.251,31.25,31.25,0,0,0-5.134,3.327,42.72,42.72,0,0,0-3.948,3.656v-.136c2.611,2.768,4.9,4.862,6.4,6.388.757.757,1.332,1.358,1.713,1.771l.428.465a1.632,1.632,0,0,1,.146.23Z" transform="translate(-187.617 -343.827)" fill="#263238"/>
        <path id="Path_9410" data-name="Path 9410" d="M329.9,394.21a36.122,36.122,0,0,1,3.024,3.16,34.381,34.381,0,0,1,2.82,3.348,35.777,35.777,0,0,1-3.024-3.165,34.714,34.714,0,0,1-2.82-3.343Z" transform="translate(-192.184 -351.795)" fill="#263238"/>
        <path id="Path_9411" data-name="Path 9411" d="M334.62,390.12a34.08,34.08,0,0,1,2.732,3.416,35.509,35.509,0,0,1,2.512,3.578,35.925,35.925,0,0,1-2.732-3.416A36.555,36.555,0,0,1,334.62,390.12Z" transform="translate(-194.439 -349.842)" fill="#263238"/>
        <path id="Path_9412" data-name="Path 9412" d="M341.16,386.68a6.708,6.708,0,0,1,.705,1.045c.413.669.987,1.567,1.635,2.58s1.222,1.927,1.6,2.611a5.032,5.032,0,0,1,.548,1.154,7.14,7.14,0,0,1-.71-1.045l-1.666-2.564c-.648-1.008-1.2-1.943-1.567-2.611A5.5,5.5,0,0,1,341.16,386.68Z" transform="translate(-197.563 -348.198)" fill="#263238"/>
        <path id="Path_9413" data-name="Path 9413" d="M351.718,392.819a5.345,5.345,0,0,1-.679-1.045c-.376-.684-.857-1.656-1.321-2.752s-.836-2.089-1.1-2.846a5.868,5.868,0,0,1-.371-1.206,39.891,39.891,0,0,1,1.718,3.948c.465,1.092.909,2.089,1.243,2.768A6.408,6.408,0,0,1,351.718,392.819Z" transform="translate(-200.95 -347.381)" fill="#263238"/>
        <path id="Path_9414" data-name="Path 9414" d="M357.436,392.145a5.005,5.005,0,0,1-.522-1.045c-.292-.653-.658-1.567-1-2.611s-.606-2-.768-2.69a4.413,4.413,0,0,1-.193-1.149c.073,0,.522,1.692,1.217,3.755S357.509,392.145,357.436,392.145Z" transform="translate(-204.151 -347.228)" fill="#263238"/>
        <path id="Path_9415" data-name="Path 9415" d="M363.48,391.317a5.162,5.162,0,0,1-.522-1.045c-.3-.663-.695-1.593-1.086-2.638s-.71-2.006-.919-2.705a4.66,4.66,0,0,1-.282-1.149,5.5,5.5,0,0,1,.46,1.092l1,2.664c.376.987.71,1.885,1.008,2.664A5.148,5.148,0,0,1,363.48,391.317Z" transform="translate(-206.884 -346.813)" fill="#263238"/>
        <path id="Path_9416" data-name="Path 9416" d="M227.809,375.729c2.742,2.037,6.565,2.089,9.8,1s6.038-3.134,8.806-5.16,5.635-4.006,8.931-4.915l-7.688-15.4s-7.364,2.893-12.284,8.471c-3.98,4.513-13.057,2.46-13.057,2.46Z" transform="translate(-140.792 -331.277)" fill="#fafafa"/>
        <path id="Path_9417" data-name="Path 9417" d="M227.68,375.547s-.042-.073-.11-.23-.167-.4-.292-.689l-1.112-2.679c-.961-2.345-2.34-5.745-4.048-9.923l-.068-.172.183.037a23.136,23.136,0,0,0,6.058.4,15.334,15.334,0,0,0,3.285-.616,8.356,8.356,0,0,0,3.04-1.708c.434-.4.857-.851,1.285-1.316s.893-.888,1.363-1.321a33.749,33.749,0,0,1,3.061-2.423,38.947,38.947,0,0,1,7.16-3.969l.11-.052.057.115c.319.632.658,1.316,1,2,2.355,4.7,4.617,9.25,6.685,13.4l.068.136-.151.042a21.69,21.69,0,0,0-5.792,2.742c-1.734,1.112-3.3,2.3-4.826,3.374a37.385,37.385,0,0,1-4.45,2.784,16.525,16.525,0,0,1-4.22,1.567,12.457,12.457,0,0,1-3.656.235,9.807,9.807,0,0,1-2.653-.611,8.244,8.244,0,0,1-1.515-.768l-.355-.256c-.078-.057-.12-.089-.115-.094a9.614,9.614,0,0,0,2.016,1.045,10.024,10.024,0,0,0,2.611.564,12.452,12.452,0,0,0,3.6-.266,16.557,16.557,0,0,0,4.178-1.567,36.608,36.608,0,0,0,4.408-2.789c1.515-1.076,3.081-2.272,4.826-3.4a21.619,21.619,0,0,1,5.85-2.784l-.078.183-6.675-13.4c-.345-.684-.684-1.363-1-2l.172.068a39.171,39.171,0,0,0-7.108,3.917,33.421,33.421,0,0,0-3.04,2.4c-.465.428-.924.857-1.353,1.306s-.841.9-1.3,1.327a8.644,8.644,0,0,1-3.134,1.75,15.638,15.638,0,0,1-3.343.616,23.341,23.341,0,0,1-6.121-.434l.115-.131c1.671,4.178,3.019,7.563,3.959,9.923.46,1.165.815,2.089,1.045,2.7.115.3.2.522.272.71A2.2,2.2,0,0,0,227.68,375.547Z" transform="translate(-140.663 -331.096)" fill="#263238"/>
        <path id="Path_9418" data-name="Path 9418" d="M237.752,387.111c-.068.026-1.092-2.183-2.282-4.936s-2.089-5.019-2.032-5.045a53.965,53.965,0,0,1,2.282,4.936C236.911,384.823,237.82,387.079,237.752,387.111Z" transform="translate(-146.101 -343.636)" fill="#263238"/>
        <path id="Path_9419" data-name="Path 9419" d="M243.567,386.86a51.316,51.316,0,0,1-2.58-4.7c-1.358-2.611-2.4-4.768-2.34-4.8a51.616,51.616,0,0,1,2.58,4.7A52.625,52.625,0,0,1,243.567,386.86Z" transform="translate(-148.59 -343.746)" fill="#263238"/>
        <path id="Path_9420" data-name="Path 9420" d="M248.281,385.209a9.551,9.551,0,0,1-.726-1.358c-.423-.846-1.018-2.011-1.7-3.285s-1.327-2.413-1.8-3.238a10.173,10.173,0,0,1-.721-1.358,8.125,8.125,0,0,1,.888,1.259c.522.8,1.186,1.927,1.87,3.207s1.248,2.465,1.63,3.337A7.463,7.463,0,0,1,248.281,385.209Z" transform="translate(-150.833 -343.082)" fill="#263238"/>
        <path id="Path_9421" data-name="Path 9421" d="M252.752,381.743a8.3,8.3,0,0,1-.82-1.217l-1.9-2.977-1.948-2.946a8.31,8.31,0,0,1-.778-1.243,7.433,7.433,0,0,1,.935,1.133c.522.726,1.264,1.744,2.021,2.909s1.389,2.235,1.833,3.024A7.531,7.531,0,0,1,252.752,381.743Z" transform="translate(-152.73 -341.835)" fill="#263238"/>
        <path id="Path_9422" data-name="Path 9422" d="M257.269,378.217a8.053,8.053,0,0,1-.956-1.139c-.564-.726-1.316-1.75-2.089-2.909s-1.473-2.23-1.948-3.019a8.143,8.143,0,0,1-.716-1.311,8.906,8.906,0,0,1,.877,1.206c.564.836,1.248,1.849,2.011,2.967l2.032,2.951a8.537,8.537,0,0,1,.789,1.253Z" transform="translate(-154.76 -340.153)" fill="#263238"/>
        <path id="Path_9423" data-name="Path 9423" d="M261.219,374.6a7.458,7.458,0,0,1-.961-1.139c-.564-.726-1.316-1.755-2.089-2.909s-1.473-2.23-1.948-3.019a7.351,7.351,0,0,1-.71-1.311,8.351,8.351,0,0,1,.872,1.207l2.011,2.967c.768,1.118,1.462,2.126,2.037,2.951A8.771,8.771,0,0,1,261.219,374.6Z" transform="translate(-156.647 -338.424)" fill="#263238"/>
        <path id="Path_9424" data-name="Path 9424" d="M265.434,371.733a93.47,93.47,0,0,1-5.834-8.263,46.527,46.527,0,0,1,3.029,4.053,47.611,47.611,0,0,1,2.8,4.21Z" transform="translate(-158.601 -337.11)" fill="#263238"/>
        <path id="Path_9425" data-name="Path 9425" d="M269.8,369.07a8.566,8.566,0,0,1-.768-1.389c-.475-.961-1.045-2.141-1.718-3.452s-1.311-2.544-1.812-3.39a13.8,13.8,0,0,1-.81-1.379,6.433,6.433,0,0,1,.971,1.274,35.446,35.446,0,0,1,1.9,3.374c.674,1.347,1.243,2.611,1.65,3.489A11.314,11.314,0,0,1,269.8,369.07Z" transform="translate(-161.03 -335.195)" fill="#263238"/>
        <path id="Path_9426" data-name="Path 9426" d="M71.994,345.744c2.742,2.037,6.565,2.089,9.8,1s6.043-3.134,8.806-5.16,5.635-4.006,8.931-4.915l-7.693-15.4a36.7,36.7,0,0,0-12.263,8.471c-3.98,4.513-13.057,2.46-13.057,2.46Z" transform="translate(-66.363 -316.951)" fill="#fafafa"/>
        <path id="Path_9427" data-name="Path 9427" d="M71.85,345.572l-.1-.23-.3-.695c-.256-.622-.632-1.52-1.107-2.674l-4.053-9.923-.068-.172.183.037a23.612,23.612,0,0,0,6.058.4,15.667,15.667,0,0,0,3.285-.616,8.534,8.534,0,0,0,3.04-1.708c.439-.4.857-.857,1.285-1.316s.893-.888,1.363-1.321a34.737,34.737,0,0,1,3.061-2.429,39.434,39.434,0,0,1,7.2-3.964l.115-.047.057.115,1,2c2.35,4.7,4.612,9.255,6.68,13.4l.068.141-.151.042a21.488,21.488,0,0,0-5.787,2.737c-1.734,1.112-3.306,2.3-4.831,3.379a37.018,37.018,0,0,1-4.46,2.784,16.713,16.713,0,0,1-4.225,1.567,12.619,12.619,0,0,1-3.656.23,9.922,9.922,0,0,1-2.648-.606,7.58,7.58,0,0,1-1.515-.773l-.36-.256-.115-.089a9.924,9.924,0,0,0,2.016,1.045,10.044,10.044,0,0,0,2.611.559,12.43,12.43,0,0,0,3.6-.261,16.477,16.477,0,0,0,4.178-1.567,37.273,37.273,0,0,0,4.408-2.789c1.515-1.076,3.087-2.277,4.826-3.4a21.779,21.779,0,0,1,5.85-2.789l-.078.183-6.7-13.4-1-2,.172.063a39.381,39.381,0,0,0-7.108,3.938,34.958,34.958,0,0,0-3.04,2.4c-.465.428-.924.857-1.353,1.3s-.841.9-1.3,1.327a8.691,8.691,0,0,1-3.134,1.755,15.894,15.894,0,0,1-3.343.611,23.31,23.31,0,0,1-6.116-.428l.115-.136,3.954,9.923c.46,1.165.82,2.089,1.045,2.705l.272.705a2.133,2.133,0,0,1,.1.24Z" transform="translate(-66.22 -316.779)" fill="#263238"/>
        <path id="Path_9428" data-name="Path 9428" d="M81.964,357.121a52.358,52.358,0,0,1-2.282-4.936,53.093,53.093,0,0,1-2.032-5.045c.068-.026,1.086,2.183,2.282,4.936S82.011,357.094,81.964,357.121Z" transform="translate(-71.68 -329.309)" fill="#263238"/>
        <path id="Path_9429" data-name="Path 9429" d="M87.775,356.889a52.423,52.423,0,0,1-2.575-4.674,51.009,51.009,0,0,1-2.34-4.805,52.2,52.2,0,0,1,2.58,4.7,51.994,51.994,0,0,1,2.335,4.779Z" transform="translate(-74.169 -329.438)" fill="#263238"/>
        <path id="Path_9430" data-name="Path 9430" d="M92.476,355.224a9.543,9.543,0,0,1-.731-1.353c-.423-.846-1.013-2.016-1.7-3.29s-1.321-2.413-1.791-3.233a9.921,9.921,0,0,1-.726-1.358,7.506,7.506,0,0,1,.888,1.259c.522.8,1.186,1.927,1.87,3.207s1.253,2.465,1.635,3.332a8.1,8.1,0,0,1,.554,1.436Z" transform="translate(-76.4 -328.76)" fill="#263238"/>
        <path id="Path_9431" data-name="Path 9431" d="M96.957,351.758a8.786,8.786,0,0,1-.825-1.217l-1.9-2.982-1.948-2.94a8.4,8.4,0,0,1-.778-1.248,7.4,7.4,0,0,1,.935,1.133c.522.726,1.269,1.75,2.021,2.909s1.394,2.235,1.833,3.029A7.182,7.182,0,0,1,96.957,351.758Z" transform="translate(-78.301 -327.508)" fill="#263238"/>
        <path id="Path_9432" data-name="Path 9432" d="M101.479,348.237a7.459,7.459,0,0,1-.961-1.139c-.564-.731-1.311-1.755-2.089-2.914s-1.473-2.23-1.948-3.014a7.35,7.35,0,0,1-.71-1.311,8.355,8.355,0,0,1,.872,1.207c.564.83,1.253,1.844,2.011,2.967l2.037,2.951a8.771,8.771,0,0,1,.789,1.254Z" transform="translate(-80.337 -325.831)" fill="#263238"/>
        <path id="Path_9433" data-name="Path 9433" d="M105.419,344.612a7.156,7.156,0,0,1-.961-1.139c-.559-.726-1.311-1.75-2.089-2.909s-1.473-2.23-1.948-3.019a8.158,8.158,0,0,1-.71-1.306,8.479,8.479,0,0,1,.872,1.2l2.011,2.972,2.037,2.951A8.356,8.356,0,0,1,105.419,344.612Z" transform="translate(-82.219 -324.102)" fill="#263238"/>
        <path id="Path_9434" data-name="Path 9434" d="M109.664,341.742a47.186,47.186,0,0,1-3.024-4.053,48.469,48.469,0,0,1-2.81-4.21,46.261,46.261,0,0,1,3.029,4.053,46.254,46.254,0,0,1,2.8,4.21Z" transform="translate(-84.187 -322.784)" fill="#263238"/>
        <path id="Path_9435" data-name="Path 9435" d="M113.972,339.09a8.584,8.584,0,0,1-.789-1.394l-1.724-3.447c-.674-1.347-1.311-2.549-1.812-3.395a15.7,15.7,0,0,1-.81-1.374,6.315,6.315,0,0,1,.977,1.274,35.917,35.917,0,0,1,1.891,3.369c.674,1.353,1.243,2.611,1.65,3.489a9.4,9.4,0,0,1,.616,1.478Z" transform="translate(-86.578 -320.873)" fill="#263238"/>
      </g>
    </g>
  </g>
</svg>
