<svg xmlns="http://www.w3.org/2000/svg" xmlns:xlink="http://www.w3.org/1999/xlink" width="289" height="289" viewBox="0 0 289 289">
  <defs>
    <filter id="Ellipse_63" x="0" y="0" width="289" height="289" filterUnits="userSpaceOnUse">
      <feOffset dy="3" input="SourceAlpha"/>
      <feGaussianBlur stdDeviation="3" result="blur"/>
      <feFlood flood-color="#e2e2e2"/>
      <feComposite operator="in" in2="blur"/>
      <feComposite in="SourceGraphic"/>
    </filter>
  </defs>
  <g id="Group_1587" data-name="Group 1587" transform="translate(-124.064 -3417.183)">
    <g transform="matrix(1, 0, 0, 1, 124.06, 3417.18)" filter="url(#Ellipse_63)">
      <g id="Ellipse_63-2" data-name="Ellipse 63" transform="translate(9 6)" fill="#fff4ea" stroke="#b45d0e" stroke-width="1">
        <circle cx="135.5" cy="135.5" r="135.5" stroke="none"/>
        <circle cx="135.5" cy="135.5" r="135" fill="none"/>
      </g>
    </g>
    <g id="Signing_a_contract-pana" data-name="Signing a contract-pana" transform="translate(105.051 3387.84)">
      <g id="freepik--Contract--inject-31" transform="translate(40.31 48.28)">
        <path id="Path_8873" data-name="Path 8873" d="M183.041,72.858l26.8-1.114a8.7,8.7,0,0,1,9.057,8.495l.947,41.392a8.7,8.7,0,0,1-7.8,8.845h0a2.885,2.885,0,0,0-2.585,2.98l3.37,87.452a10.851,10.851,0,0,1-10.361,11.252L100.09,236.7a2.885,2.885,0,0,1-3.013-2.785L92.559,82.088a2.885,2.885,0,0,1,2.679-2.963Z" transform="translate(-63.455 -58.671)" fill="#d16800"/>
        <g id="Group_1489" data-name="Group 1489" transform="translate(33.544 13.251)" opacity="0.3">
          <path id="Path_8874" data-name="Path 8874" d="M100.53,231.138l.089,2.869,110.211-10.132-2.106-151.8s-26.737,4.055-27.238,4.055S100.53,231.138,100.53,231.138Z" transform="translate(-100.53 -72.07)"/>
        </g>
        <path id="Path_8875" data-name="Path 8875" d="M155.3,57.57l31.984-1.95,3.3,157.341L78.017,224.38,61.44,67.863Z" transform="translate(-49.67 -51.531)" fill="#ebebeb"/>
        <path id="Path_8876" data-name="Path 8876" d="M155.256,57.525s-.557.072-1.671.195l-4.868.557-18.7,2.078-68.641,7.57.095-.117C65.927,109.74,71.7,164.216,78.086,224.33l-.162-.128,25.233-2.557,87.346-8.851-.128.139c-1.409-68.8-2.568-125.223-3.231-157.346l.072.067-23.8,1.42-6.127.351-2.072.111s.7-.056,2.067-.145L163.41,57l23.8-1.482h.067v.067c.691,32.129,1.9,88.566,3.376,157.346v.123h-.123l-87.34,8.862L77.958,224.48h-.145v-.139C71.463,164.233,65.7,109.757,61.27,67.819v-.111h.106l68.619-7.464,18.7-2.022,4.868-.518C154.665,57.575,155.256,57.525,155.256,57.525Z" transform="translate(-49.595 -51.487)" fill="#263238"/>
        <path id="Path_8877" data-name="Path 8877" d="M51.39,59.48,66.63,217.829l117.9-11.107L167.528,48.49Z" transform="translate(-45.218 -48.373)" fill="#fff"/>
        <path id="Path_8878" data-name="Path 8878" d="M51.39,59.381l116.127-11.1h.117V48.4c4.785,44.417,10.672,99.149,17.034,158.232v.145h-.145l-.836.078L66.641,217.87h-.128v-.134C57.556,123.99,51.5,60.54,51.39,59.381,51.5,60.54,57.662,124,66.764,217.725l-.145-.117,117.063-11.04.836-.084-.128.162c-6.344-59.1-12.21-113.815-16.978-158.238l.128.106Z" transform="translate(-45.218 -48.28)" fill="#263238"/>
        <path id="Path_8879" data-name="Path 8879" d="M213.72,270.034a17.379,17.379,0,1,1,17.34,17.424A17.379,17.379,0,0,1,213.72,270.034Zm34.435.084a17.009,17.009,0,1,0,0,.017Z" transform="translate(-117.127 -138.834)" fill="#e0e0e0"/>
        <path id="Path_8880" data-name="Path 8880" d="M217.28,271.807A15.156,15.156,0,1,1,232.4,287a15.156,15.156,0,0,1-15.117-15.2Zm28.074.067a12.876,12.876,0,1,0,0,.028Z" transform="translate(-118.705 -140.602)" fill="#e0e0e0"/>
        <path id="Path_8881" data-name="Path 8881" d="M224,280.243a11.14,11.14,0,0,1,1.2-5.013l1.994,1.008a8.818,8.818,0,0,0-.958,4.022,8.985,8.985,0,0,0,13.636,7.653l1.17,1.9A11.218,11.218,0,0,1,224,280.243Z" transform="translate(-121.681 -148.815)" fill="#e0e0e0"/>
        <path id="Path_8882" data-name="Path 8882" d="M234.81,265.412a11.213,11.213,0,0,1,14.666,15.92l-1.888-1.192a8.979,8.979,0,0,0-11.742-12.733Z" transform="translate(-126.47 -143.904)" fill="#e0e0e0"/>
        <path id="Path_8883" data-name="Path 8883" d="M113.165,92.576a3.119,3.119,0,0,1,2.974-3.454,3.208,3.208,0,0,1,2.7.863l-.98,1.114a1.8,1.8,0,0,0-1.482-.557,1.722,1.722,0,0,0,.345,3.426,1.794,1.794,0,0,0,1.359-.875l1.175.863A3.164,3.164,0,0,1,116.8,95.35a3.114,3.114,0,0,1-3.632-2.774Z" transform="translate(-72.576 -66.357)" fill="#263238"/>
        <path id="Path_8884" data-name="Path 8884" d="M124.276,91.447a3.352,3.352,0,1,1,3.648,2.785A3.161,3.161,0,0,1,124.276,91.447Zm4.946-.507a1.626,1.626,0,1,0-1.443,1.877,1.61,1.61,0,0,0,1.443-1.877Z" transform="translate(-77.498 -65.863)" fill="#263238"/>
        <path id="Path_8885" data-name="Path 8885" d="M142.979,86.4l.613,5.994-1.393.139-2.974-2.919.329,3.192-1.671.167-.613-5.988,1.393-.145,2.974,2.924-.329-3.192Z" transform="translate(-83.262 -65.166)" fill="#263238"/>
        <path id="Path_8886" data-name="Path 8886" d="M150.637,87l-1.838.189-.139-1.342,5.364-.557.139,1.342-1.833.189.473,4.646-1.671.173Z" transform="translate(-88.307 -64.675)" fill="#263238"/>
        <path id="Path_8887" data-name="Path 8887" d="M162.517,89.073l-.925.095.162,1.593-1.671.173-.613-5.994,2.735-.279c1.638-.167,2.752.557,2.891,1.944a2,2,0,0,1-.98,2.011l1.487,1.755-1.816.184Zm-.3-3.064-.941.095.184,1.755.941-.095c.7-.072,1.019-.434.964-.98s-.446-.83-1.147-.774Z" transform="translate(-93.096 -64.386)" fill="#263238"/>
        <path id="Path_8888" data-name="Path 8888" d="M175.222,88.195l-2.534.256-.351,1.214-1.727.178,2.028-6.261,1.671-.173,3.264,5.721-1.732.178ZM174.6,87l-.986-1.866-.557,1.994Z" transform="translate(-98.031 -63.842)" fill="#263238"/>
        <path id="Path_8889" data-name="Path 8889" d="M182.7,85.466a3.119,3.119,0,0,1,2.98-3.454,3.2,3.2,0,0,1,2.69.863l-.98,1.114a1.794,1.794,0,0,0-1.482-.557,1.722,1.722,0,0,0,.351,3.426,1.782,1.782,0,0,0,1.337-.847l1.181.863a3.186,3.186,0,0,1-2.462,1.393,3.114,3.114,0,0,1-3.615-2.8Z" transform="translate(-103.377 -63.208)" fill="#263238"/>
        <path id="Path_8890" data-name="Path 8890" d="M194.95,82.47l-1.838.189L193,81.317l5.364-.557L198.5,82.1l-1.833.189.473,4.646-1.671.173Z" transform="translate(-107.949 -62.668)" fill="#263238"/>
        <path id="Path_8891" data-name="Path 8891" d="M175.825,121.618c0,.084-22.242,2.228-49.686,4.84S76.426,131.088,76.42,131s22.236-2.228,49.692-4.835S175.82,121.54,175.825,121.618Z" transform="translate(-56.306 -80.767)" fill="#263238"/>
        <path id="Path_8892" data-name="Path 8892" d="M121.507,119.386c0,.078-10.26,1.114-22.932,2.312s-22.949,2.1-22.955,2.022,10.255-1.114,22.932-2.312S121.507,119.308,121.507,119.386Z" transform="translate(-55.952 -79.777)" fill="#263238"/>
        <path id="Path_8893" data-name="Path 8893" d="M176.6,133.208c0,.078-22.242,2.228-49.692,4.835S77.2,142.672,77.19,142.594s22.236-2.228,49.7-4.84S176.59,133.124,176.6,133.208Z" transform="translate(-56.647 -85.9)" fill="#263238"/>
        <path id="Path_8894" data-name="Path 8894" d="M177.394,144.788c0,.078-22.242,2.228-49.692,4.835S78,154.252,78,154.174s22.236-2.228,49.692-4.835S177.383,144.71,177.394,144.788Z" transform="translate(-57.006 -91.03)" fill="#263238"/>
        <path id="Path_8895" data-name="Path 8895" d="M178.155,156.368c0,.084-22.242,2.228-49.686,4.84s-49.714,4.629-49.719,4.545,22.236-2.228,49.692-4.835S178.15,156.29,178.155,156.368Z" transform="translate(-57.338 -96.16)" fill="#263238"/>
        <path id="Path_8896" data-name="Path 8896" d="M178.941,168c0,.078-22.242,2.228-49.686,4.835s-49.719,4.634-49.725,4.529,22.236-2.228,49.692-4.84S178.941,167.891,178.941,168Z" transform="translate(-57.684 -101.311)" fill="#263238"/>
        <path id="Path_8897" data-name="Path 8897" d="M179.715,179.538c0,.078-22.242,2.228-49.686,4.835S80.316,189,80.31,188.924,102.546,186.7,130,184.089,179.71,179.46,179.715,179.538Z" transform="translate(-58.029 -106.424)" fill="#263238"/>
        <path id="Path_8898" data-name="Path 8898" d="M181.541,191.119c0,.084-21.952,2.228-49.018,4.779s-49.062,4.568-49.073,4.484,21.947-2.228,49.045-4.774S181.53,191.052,181.541,191.119Z" transform="translate(-59.42 -111.554)" fill="#263238"/>
        <path id="Path_8899" data-name="Path 8899" d="M143.673,213.4c0,.084-13.246,1.342-29.605,2.785s-29.622,2.629-29.628,2.562,13.246-1.337,29.605-2.785S143.668,213.319,143.673,213.4Z" transform="translate(-59.859 -121.422)" fill="#263238"/>
        <path id="Path_8900" data-name="Path 8900" d="M133.206,309.135c0,.084-8.06.83-18.014,1.671s-18.036,1.465-18.042,1.387,8.06-.83,18.02-1.671S133.2,309.057,133.206,309.135Z" transform="translate(-65.489 -163.831)"/>
        <path id="Path_8901" data-name="Path 8901" d="M117.972,320.191c0,.084-4.523.529-10.11,1s-10.127.8-10.132.719,4.517-.557,10.11-1S117.961,320.113,117.972,320.191Z" transform="translate(-65.746 -168.727)"/>
        <path id="Path_8902" data-name="Path 8902" d="M112.9,238.673c0,.078-5.32.668-11.892,1.32s-11.915,1.114-11.926,1.025,5.32-.668,11.9-1.315S112.887,238.6,112.9,238.673Z" transform="translate(-61.914 -132.617)" fill="#d16800"/>
        <g id="Group_1490" data-name="Group 1490" transform="translate(18.61 131.445)" opacity="0.3">
          <path id="Path_8903" data-name="Path 8903" d="M74.093,295.478l10.823-2.094,6.055-9.124L73.72,289.925Z" transform="translate(-73.72 -284.26)"/>
        </g>
        <path id="Path_8904" data-name="Path 8904" d="M40.31,281.291l28.9-2.741,6.963,3.181-5.553,6.25-29.355,3.164Z" transform="translate(-40.31 -150.285)" fill="#d16800"/>
        <path id="Path_8905" data-name="Path 8905" d="M60.912,286.73l.368,3.7-.858.089L60.272,289l-1.671.167.15,1.521-.858.084-.373-3.7.858-.084.15,1.459,1.671-.167-.145-1.465Z" transform="translate(-47.934 -153.909)" fill="#fff"/>
        <path id="Path_8906" data-name="Path 8906" d="M68.123,289.333l-2.156.212a.763.763,0,0,0,.875.49.947.947,0,0,0,.685-.345l.49.435a1.515,1.515,0,0,1-1.114.557,1.487,1.487,0,0,1-1.771-1.3,1.454,1.454,0,0,1,1.37-1.621,1.415,1.415,0,0,1,1.632,1.326A2.018,2.018,0,0,0,68.123,289.333Zm-2.228-.267,1.4-.139a.713.713,0,0,0-1.4.139Z" transform="translate(-51.301 -154.356)" fill="#fff"/>
        <path id="Path_8907" data-name="Path 8907" d="M73,287.12l.078.763h-.189a.7.7,0,0,0-.668.88l.134,1.342-.824.084-.29-2.846.791-.078.039.373A1.153,1.153,0,0,1,73,287.12Z" transform="translate(-54.011 -154.082)" fill="#fff"/>
        <path id="Path_8908" data-name="Path 8908" d="M78.134,288.324l-2.156.217a.769.769,0,0,0,.875.49.964.964,0,0,0,.685-.345l.49.429a1.5,1.5,0,0,1-1.114.557,1.482,1.482,0,0,1-1.771-1.3,1.459,1.459,0,0,1,1.37-1.621,1.42,1.42,0,0,1,1.632,1.331A1.932,1.932,0,0,0,78.134,288.324Zm-2.228-.262,1.4-.145a.706.706,0,0,0-1.387.145Z" transform="translate(-55.736 -153.91)" fill="#fff"/>
        <path id="Path_8909" data-name="Path 8909" d="M160.728,237.4a.523.523,0,0,1,.1.033,1.477,1.477,0,0,1,.284.134,3.866,3.866,0,0,1,.93.785,13.313,13.313,0,0,1,2.339,4.038,16.928,16.928,0,0,1,1.214,7.269,10.924,10.924,0,0,1-.4,2.228,14.538,14.538,0,0,1-.886,2.228,14.945,14.945,0,0,1-3.086,4.167,15.391,15.391,0,0,1-4.774,3.125,13.045,13.045,0,0,1-6.1.941,13.368,13.368,0,0,1-10.706-7.642,10.828,10.828,0,0,1-.969-3.543,8.2,8.2,0,0,1,.39-3.732,6,6,0,0,1,2.228-3.119,4.266,4.266,0,0,1,1.855-.691,4.456,4.456,0,0,1,1.983.228,5.854,5.854,0,0,1,3.052,2.534,9.414,9.414,0,0,1,1.214,3.866,16.872,16.872,0,0,1-1.2,8.094,15.925,15.925,0,0,1-4.9,6.562,14.7,14.7,0,0,1-7.375,2.963,13.82,13.82,0,0,1-7.564-1.231,12.923,12.923,0,0,1-5.386-5.013,12.522,12.522,0,0,1-1.816-6.751,9.062,9.062,0,0,1,.646-3.342,6.64,6.64,0,0,1,1.9-2.674,3.927,3.927,0,0,1,3.019-.891,4.489,4.489,0,0,1,2.663,1.482,5.615,5.615,0,0,1,1.337,2.612,7.353,7.353,0,0,1,0,2.785,14.655,14.655,0,0,1-1.983,4.79,22.837,22.837,0,0,1-2.785,3.7,23.673,23.673,0,0,1-5.782,4.607,21.6,21.6,0,0,1-4.278,1.888c-1.019.323-1.571.434-1.571.434l.4-.123c.262-.089.657-.178,1.159-.368a22.409,22.409,0,0,0,4.239-1.933,23.578,23.578,0,0,0,5.715-4.545,23.318,23.318,0,0,0,2.741-3.687,14.232,14.232,0,0,0,1.938-4.735,7.141,7.141,0,0,0,0-2.729,5.47,5.47,0,0,0-1.292-2.507,4.323,4.323,0,0,0-2.529-1.4,3.71,3.71,0,0,0-2.841.852,6.328,6.328,0,0,0-1.827,2.579,9.018,9.018,0,0,0-.624,3.236,12.3,12.3,0,0,0,1.8,6.612,12.611,12.611,0,0,0,5.275,4.885,13.535,13.535,0,0,0,7.414,1.2,14.427,14.427,0,0,0,7.241-2.913,15.675,15.675,0,0,0,4.807-6.445,16.51,16.51,0,0,0,1.17-7.965,9.074,9.074,0,0,0-1.17-3.743,5.526,5.526,0,0,0-2.9-2.412,4.14,4.14,0,0,0-1.855-.223,4.089,4.089,0,0,0-1.732.646,5.721,5.721,0,0,0-2.117,2.974,8.088,8.088,0,0,0-.384,3.615,10.807,10.807,0,0,0,.941,3.459,13.14,13.14,0,0,0,10.455,7.514,12.812,12.812,0,0,0,5.988-.925,15.239,15.239,0,0,0,4.718-3.064,14.71,14.71,0,0,0,3.064-4.105,14.194,14.194,0,0,0,.886-2.189,10.894,10.894,0,0,0,.4-2.178,16.905,16.905,0,0,0-1.159-7.241,13.552,13.552,0,0,0-2.278-4.038,4.318,4.318,0,0,0-.9-.8A3.716,3.716,0,0,0,160.728,237.4Z" transform="translate(-73.104 -132.057)"/>
        <path id="Path_8910" data-name="Path 8910" d="M164.363,85.058a1.432,1.432,0,0,0-.039-.273c-.039-.178-.05-.451-.089-.791-.078-.707-.195-1.732-.345-3.064-.29-2.674-.713-6.567-1.248-11.491l.1.078-60.152,6.344h0l.128-.162c.557,5.364,1.114,10.583,1.632,15.63l-.156-.128,42.924-4.417L159.762,85.5l3.409-.34.891-.084h.306l-.29.039-.869.1-3.37.373-12.605,1.354-43.013,4.562h-.139v-.139c-.524-5.013-1.075-10.266-1.632-15.6v-.145h.145L162.753,69.4h.089v.084c.5,4.952.886,8.868,1.153,11.553.134,1.326.228,2.345.3,3.047.028.334.056.6.072.78Z" transform="translate(-67.837 -57.636)" fill="#455a64"/>
      </g>
      <g id="freepik--Character--inject-31" transform="translate(127.823 84.056)">
        <path id="Path_8911" data-name="Path 8911" d="M334.552,131.05a1.482,1.482,0,0,1,.524-.841,3.609,3.609,0,0,1,2.228-.557,9.346,9.346,0,0,0,.891-2.941,1.838,1.838,0,0,1-1.042-.3.508.508,0,0,1-.173-.05,1.47,1.47,0,0,1-.345-2.122,4.206,4.206,0,0,1,2.033-1.309,6.969,6.969,0,0,0-1.576.557c-.557.167-1.292,0-1.354-.557a1.3,1.3,0,0,1,.084-.5l.317-.986a1.114,1.114,0,0,1,.434-.691,2.423,2.423,0,0,1,.557-.139c.629-.167.952-.93,1.576-1.114a2.885,2.885,0,0,1,1.4.206c.462.111,1.081,0,1.225-.434a4.523,4.523,0,0,1-1.593-1.348,1.521,1.521,0,0,1,.15-1.927,2.228,2.228,0,0,1,1.571-.323c.613,0,1.376.167,1.537.758a1.593,1.593,0,0,1,1.955,1.248l1.582-.156c-.44-.473-1.069-.763-1.448-1.287s-.312-1.465.323-1.6c.228-.05.485.028.7-.061s.29-.206.462-.212a.618.618,0,0,1,.34.134l3.342,2.172c-.3-.7-.6-1.393-.9-2.094s-.5-1.532.084-1.927,1.37.167,1.487.836a4.2,4.2,0,0,0,2.561,1.372,1.114,1.114,0,0,1,.045,1.3,3.13,3.13,0,0,1,1.587.473.958.958,0,0,1,1.543-.657,1.67,1.67,0,0,1,.245-.947.557.557,0,0,1,.863-.1,1.114,1.114,0,0,1,1.8-1.114l.557-.663a1.454,1.454,0,0,1,1.393.758c.234.512-.156,1.253-.719,1.2.4,0,.306.624.078.947l-.964,1.337a1.237,1.237,0,0,1,1.526-.134.958.958,0,0,1,1.381,0,.774.774,0,0,1,1.393.234c.095-.256.451-.273.724-.245a1.81,1.81,0,0,1,1.114.379c.284.279.279.858-.089,1,.334-.189.769.178.774.557a1.387,1.387,0,0,1-.557.98,3.153,3.153,0,0,0-.8.836,1.6,1.6,0,0,1,1.114-.234,4.183,4.183,0,0,1,2.016.4c.123-.273.5-.284.791-.228a4.79,4.79,0,0,1,2.406,1.309,1.109,1.109,0,0,1,.373,1.164,1.164,1.164,0,0,1-.446.39l-2.139,1.326a5.815,5.815,0,0,1,2.924,2.072c.429.251.975.279,1.359.585s.356,1.114-.134,1.114a.914.914,0,0,1,.262,1.053.964.964,0,0,1-.334.368,1.315,1.315,0,0,1-.234.262,1.671,1.671,0,0,1-.557.3,1.114,1.114,0,0,1-.958.446,4.455,4.455,0,0,1,1.014,1.2,1.894,1.894,0,0,1,0,1.961.558.558,0,0,1-.078.084.947.947,0,0,1-.407.6.83.83,0,0,1,.078.518,2.089,2.089,0,0,1,.468,3.66c-.5.351-1.4.284-1.454-.318a1.615,1.615,0,0,1-1.231.9,1.571,1.571,0,0,1-.824,2.167,1.671,1.671,0,0,1-.529,2.746,1.287,1.287,0,1,1-2.429.841,2.707,2.707,0,0,1-.958,1.2.941.941,0,0,1-1.331-.345,1.766,1.766,0,0,1-2.6.841,1.138,1.138,0,1,1-2.267.2l-2.947-.028a10.826,10.826,0,0,1-1.95-.145,5.247,5.247,0,0,1-2.228-1.036,1.242,1.242,0,0,0-1.582-.279,4.768,4.768,0,0,1-4.534-1.069,2.328,2.328,0,0,0-.6-.473,2.072,2.072,0,0,0-.869-.123,8.707,8.707,0,0,1-2.145-.306,2.273,2.273,0,0,1-1.51-1c-.284-.557.05-1.4.668-1.393a1.326,1.326,0,0,0-.329-1.114.8.8,0,0,0-1.114-.045.557.557,0,0,0,.262.936,1.186,1.186,0,0,1-1.716-.991,1.587,1.587,0,0,1,1.593-1.487,3.71,3.71,0,0,1-.045-1.782,1.309,1.309,0,0,1-1.782.2,2.267,2.267,0,0,1-1.465,1.053,1.354,1.354,0,0,1-1.493-.819.975.975,0,0,1,.925-1.253,1.164,1.164,0,0,1,1.036-1.671,1.822,1.822,0,0,1,1.114-1.927.947.947,0,0,1-1.354-.524c-.373.59-1.292.446-1.894.095a1.276,1.276,0,0,1-.8-1.348Z" transform="translate(-258.162 -112.511)" fill="#263238"/>
        <path id="Path_8912" data-name="Path 8912" d="M334.533,131.047a.874.874,0,0,0-.033.24,1.042,1.042,0,0,0,.228.68,2.228,2.228,0,0,0,.98.674,1.849,1.849,0,0,0,.763.128.947.947,0,0,0,.774-.407h-.061a.991.991,0,0,0,1.409.557l-.033-.078a1.86,1.86,0,0,0-1.142,1.972l.056-.056a1.114,1.114,0,0,0-1.014.557,1.147,1.147,0,0,0-.078,1.22l.056-.084a.98.98,0,0,0-.986.741,1.075,1.075,0,0,0,.5,1.22,1.543,1.543,0,0,0,1.42.134,2.5,2.5,0,0,0,1.153-.98h-.1a1.387,1.387,0,0,0,1.888-.212l-.134-.061a3.828,3.828,0,0,0,.045,1.821l.072-.1a1.8,1.8,0,0,0-1.114.407,1.5,1.5,0,0,0-.557,1.064,1.248,1.248,0,0,0,.557,1.114,1.114,1.114,0,0,0,1.264.067l.189-.128-.228-.028c-.223,0-.368-.306-.329-.557a.512.512,0,0,1,.557-.407.785.785,0,0,1,.668.407,1.386,1.386,0,0,1,.161.8l.089-.078a.741.741,0,0,0-.585.273,1.114,1.114,0,0,0-.262.557,1.154,1.154,0,0,0,.078.641,1.542,1.542,0,0,0,.4.507,3.08,3.08,0,0,0,1.114.557,8.467,8.467,0,0,0,1.242.256c.83.178,1.794-.162,2.339.607a4.746,4.746,0,0,0,2.379,1.225,4.98,4.98,0,0,0,1.381.084,7.133,7.133,0,0,0,1.354-.3.819.819,0,0,1,.607.067,4.769,4.769,0,0,1,.557.407,5.571,5.571,0,0,0,1.287.763,7.515,7.515,0,0,0,2.88.412l2.952.033-.106-.095a1.253,1.253,0,0,0,2.5-.223l-.184.095a1.883,1.883,0,0,0,2.785-.9h-.223a.869.869,0,0,0,.629.524,1.264,1.264,0,0,0,.83-.095,2.785,2.785,0,0,0,1.047-1.27h-.217a1.465,1.465,0,0,0,1.732.886,1.443,1.443,0,0,0,.919-1.8l-.072.15a1.8,1.8,0,0,0,.557-2.952l-.039.212a1.7,1.7,0,0,0,.891-2.345l-.089.184a1.755,1.755,0,0,0,1.315-1l-.234-.045a.624.624,0,0,0,.195.407.824.824,0,0,0,.384.2,1.393,1.393,0,0,0,.824-.067,2.1,2.1,0,0,0,1.058-1.22,2.133,2.133,0,0,0-.084-1.671,2.278,2.278,0,0,0-1.225-1.114l.078.145a.913.913,0,0,0-.084-.6l-.05.162a1.053,1.053,0,0,0,.468-.674v.056a1.855,1.855,0,0,0,.24-1.86,4.066,4.066,0,0,0-1.186-1.565l-.095.217a1.242,1.242,0,0,0,1.069-.49l-.067.045a1.593,1.593,0,0,0,.88-.618l-.039.039a.947.947,0,0,0,.462-.769,1.036,1.036,0,0,0-.379-.858l-.078.223a.473.473,0,0,0,.4-.2.713.713,0,0,0,.128-.4.925.925,0,0,0-.312-.746c-.44-.34-.98-.356-1.37-.59l.039.033a5.993,5.993,0,0,0-2.991-2.122l.028.234.98-.607.741-.462a5.415,5.415,0,0,0,.746-.5.763.763,0,0,0,.239-.451.963.963,0,0,0-.078-.49,2.122,2.122,0,0,0-.557-.724,4.78,4.78,0,0,0-2.345-1.2,1.226,1.226,0,0,0-.474,0,.557.557,0,0,0-.423.312l.178-.061a3.666,3.666,0,0,0-1.621-.4h-.824a1.37,1.37,0,0,0-.83.262l.189.156c.24-.473.824-.724,1.17-1.253a.958.958,0,0,0,.111-.941.835.835,0,0,0-.351-.356.557.557,0,0,0-.529,0l.1.228a.59.59,0,0,0,.34-.362.836.836,0,0,0,0-.468.824.824,0,0,0-.234-.4,1.114,1.114,0,0,0-.379-.228,3.21,3.21,0,0,0-.808-.167,1.443,1.443,0,0,0-.435,0,.512.512,0,0,0-.384.306l.24.033a.9.9,0,0,0-1.627-.279h.206a1.081,1.081,0,0,0-1.571,0h.167a1.359,1.359,0,0,0-1.671.145l.189.162.813-1.114a1.581,1.581,0,0,0,.345-.657.884.884,0,0,0,0-.4.4.4,0,0,0-.134-.206.4.4,0,0,0-.24-.078v.245a.835.835,0,0,0,.791-.485,1.047,1.047,0,0,0,.039-.919,1.6,1.6,0,0,0-1.521-.78h-.056l-.033.045-.557.663h.167a1.237,1.237,0,0,0-2,1.214l.212-.1a.591.591,0,0,0-.557-.189.791.791,0,0,0-.485.3,1.805,1.805,0,0,0-.262,1l.2-.078a1.069,1.069,0,0,0-1.743.746l.178-.106a3.247,3.247,0,0,0-1.643-.49l.089.189a1.214,1.214,0,0,0-1.426-1.855l.156.106a1.186,1.186,0,0,0-1.459-1.114l.139.089a1.337,1.337,0,0,0-.446-.758,1.164,1.164,0,0,0-.824-.3.88.88,0,0,0-.707.557,1.476,1.476,0,0,0-.067.847,7.187,7.187,0,0,0,.557,1.5l.618,1.426.156-.134-2.061-1.342-1-.652a2.417,2.417,0,0,0-.557-.312.473.473,0,0,0-.362.056c-.095.05-.173.111-.245.145a1.782,1.782,0,0,1-.557.045.774.774,0,0,0-.585.279,1.275,1.275,0,0,0-.117,1.2,2.172,2.172,0,0,0,.763.891,7.15,7.15,0,0,1,.852.7l.061-.167-1.576.162.106.084a1.671,1.671,0,0,0-2.083-1.326l.123.067a1.081,1.081,0,0,0-.808-.7,3.961,3.961,0,0,0-1.014-.134,2.957,2.957,0,0,0-1.008.111,1.231,1.231,0,0,0-.752.674,1.833,1.833,0,0,0,.323,1.855,5.262,5.262,0,0,0,1.454,1.114l-.039-.095a.641.641,0,0,1-.557.4,1.621,1.621,0,0,1-.746-.061,5.014,5.014,0,0,0-.769-.189,1.159,1.159,0,0,0-.78.15c-.457.279-.724.73-1.114.925-.2.111-.44.078-.691.178a.908.908,0,0,0-.462.557c-.145.44-.279.875-.418,1.3a.8.8,0,0,0,.056.691.908.908,0,0,0,.557.373,1.516,1.516,0,0,0,.652,0,3.237,3.237,0,0,0,.563-.323,3.22,3.22,0,0,1,1.086-.384v-.117a7.3,7.3,0,0,0-1.292.618,2.368,2.368,0,0,0-.908,1,1.738,1.738,0,0,0-.089,1.214,1.114,1.114,0,0,0,.785.78h0a1.888,1.888,0,0,0,1.075.3l-.1-.067a9.364,9.364,0,0,1-.886,2.93h0a5.643,5.643,0,0,0-1.476.184,2.044,2.044,0,0,0-.9.524,1.459,1.459,0,0,0-.318.518,1.059,1.059,0,0,0-.045.195,1.482,1.482,0,0,1,.39-.691,2.016,2.016,0,0,1,.886-.5,5.321,5.321,0,0,1,1.465-.162h0a9.38,9.38,0,0,0,.919-2.947V126.7H338.1a1.821,1.821,0,0,1-1.014-.3h0a.991.991,0,0,1-.707-.719,1.671,1.671,0,0,1,.089-1.142,2.272,2.272,0,0,1,.869-.914,7.092,7.092,0,0,1,1.276-.6l.362-.145h-.39a3.2,3.2,0,0,0-1.114.39,2.742,2.742,0,0,1-.557.206,1.32,1.32,0,0,1-.59,0,.746.746,0,0,1-.485-.312.657.657,0,0,1-.033-.557l.412-1.287a.769.769,0,0,1,.39-.485,6.362,6.362,0,0,0,.691-.178c.473-.228.741-.685,1.153-.93a1.8,1.8,0,0,1,1.426.061,1.755,1.755,0,0,0,.819.067.808.808,0,0,0,.68-.512v-.061l-.056-.033a5.148,5.148,0,0,1-1.4-1.114,1.671,1.671,0,0,1-.3-1.671,1.059,1.059,0,0,1,.652-.557,2.785,2.785,0,0,1,.941-.1,3.767,3.767,0,0,1,.969.128.9.9,0,0,1,.674.557v.095l.095-.028a1.5,1.5,0,0,1,1.833,1.175v.095h.089l1.582-.156h.195l-.134-.145a7.088,7.088,0,0,0-.875-.724,2.044,2.044,0,0,1-.7-.808,1.069,1.069,0,0,1,.089-1,.557.557,0,0,1,.429-.206,1.671,1.671,0,0,0,.618-.061c.206-.1.334-.234.473-.189a3.055,3.055,0,0,1,.479.284l1.008.657,2.055,1.348.3.195-.145-.329-.613-1.432a7.237,7.237,0,0,1-.529-1.454,1.247,1.247,0,0,1,.056-.719.646.646,0,0,1,.524-.39,1.07,1.07,0,0,1,1.025.869v.123l.123-.033a.969.969,0,0,1,1.17.886v.173l.162-.067a.986.986,0,0,1,1.153,1.5l-.139.178h.228a3.03,3.03,0,0,1,1.526.457l.189.117V116.7a.841.841,0,0,1,1.342-.557l.189.189v-.267a1.56,1.56,0,0,1,.212-.875c.15-.212.557-.3.68-.106l.329.446-.117-.557a1,1,0,0,1,1.61-.975l.095.078.078-.095.557-.663-.089.039A1.365,1.365,0,0,1,361.3,114c.217.418-.111,1.114-.585,1.053v.245a.117.117,0,0,1,.128.106.558.558,0,0,1,0,.284,1.343,1.343,0,0,1-.3.557l-.819,1.114.184.167a1.114,1.114,0,0,1,1.37-.128l.089.067.078-.084a.824.824,0,0,1,1.192,0l.128.15.078-.178a.657.657,0,0,1,1.159.195l.05.624.189-.6c.05-.156.323-.195.557-.167a3.119,3.119,0,0,1,.741.145.7.7,0,0,1,.462.462c.056.212,0,.468-.189.524l.106.228c.167-.106.429.045.557.256a.707.707,0,0,1-.1.691c-.279.451-.869.7-1.181,1.27l-.3.557.49-.4c.368-.3.952-.195,1.476-.184a3.342,3.342,0,0,1,1.509.362l.128.078.05-.134c.067-.178.373-.206.624-.156a4.14,4.14,0,0,1,.8.24,4.535,4.535,0,0,1,1.415.891,1.862,1.862,0,0,1,.49.641.557.557,0,0,1-.1.657,5.979,5.979,0,0,1-.707.462l-.741.462-.9.568-.234.145.262.084a5.715,5.715,0,0,1,2.863,2.028h0c.473.267,1,.29,1.337.557a.674.674,0,0,1,.223.557c0,.206-.111.373-.273.362h-.4l.323.251a.785.785,0,0,1,.284.646.7.7,0,0,1-.345.557h-.028a1.32,1.32,0,0,1-.741.518h-.039l-.028.033a.986.986,0,0,1-.841.39l-.379-.033.284.256a3.855,3.855,0,0,1,1.114,1.459,1.61,1.61,0,0,1-.189,1.61h0v.028a.824.824,0,0,1-.357.518l-.1.056.056.106a.691.691,0,0,1,.067.44v.106l.1.033a2.005,2.005,0,0,1,1.081,1.014,1.9,1.9,0,0,1,.078,1.459,1.855,1.855,0,0,1-.914,1.075,1.114,1.114,0,0,1-.674.056.451.451,0,0,1-.39-.384l-.028-.485-.2.44a1.521,1.521,0,0,1-1.142.83h-.178l.089.162a1.454,1.454,0,0,1-.758,1.989l-.212.067.173.145a1.459,1.459,0,0,1,.423,1.437,1.437,1.437,0,0,1-.908,1.114l-.123.039.045.117a1.209,1.209,0,0,1-.763,1.5,1.225,1.225,0,0,1-1.443-.735l-.084-.262-.128.245a2.579,2.579,0,0,1-.947,1.175.83.83,0,0,1-1.114-.3l-.111-.334-.106.34a1.582,1.582,0,0,1-1.064.969,1.549,1.549,0,0,1-1.354-.189l-.184-.139v.234a1.03,1.03,0,0,1-2.05.184v-.095h-.128l-2.958-.028a7.341,7.341,0,0,1-2.785-.4,5.129,5.129,0,0,1-1.209-.674,4.3,4.3,0,0,0-.557-.418,1.03,1.03,0,0,0-.746-.089,6.94,6.94,0,0,1-1.326.3,4.74,4.74,0,0,1-3.6-1.242,2.662,2.662,0,0,0-.524-.429,1.514,1.514,0,0,0-.668-.15,10.486,10.486,0,0,1-1.264-.078,8.848,8.848,0,0,1-1.214-.245,2.908,2.908,0,0,1-1.064-.512,1.064,1.064,0,0,1-.418-.98.741.741,0,0,1,.668-.7h.078v-.078a1.565,1.565,0,0,0-.173-.964.958.958,0,0,0-.824-.49.68.68,0,0,0-.73.557.641.641,0,0,0,.474.752l-.033-.156a.964.964,0,0,1-1.075-.067,1.075,1.075,0,0,1-.512-.947,1.532,1.532,0,0,1,1.515-1.32h.1v-.1a3.581,3.581,0,0,1-.089-1.654l.072-.318-.2.256a1.242,1.242,0,0,1-1.671.189l-.061-.05-.045.067a2.4,2.4,0,0,1-1.081.936,1.432,1.432,0,0,1-1.3-.117.941.941,0,0,1-.451-1.081.869.869,0,0,1,.858-.663h.111l-.056-.1a1.114,1.114,0,0,1,.98-1.6h.067v-.067a1.771,1.771,0,0,1,1.069-1.877l-.039-.072a.919.919,0,0,1-1.3-.5v-.078l-.039.072a.891.891,0,0,1-.724.384,1.866,1.866,0,0,1-.741-.117,2.228,2.228,0,0,1-1.019-.607,1.036,1.036,0,0,1-.24-.657A1.117,1.117,0,0,1,334.533,131.047Z" transform="translate(-258.144 -112.509)" fill="#455a64"/>
        <path id="Path_8913" data-name="Path 8913" d="M367.408,142.267a9.391,9.391,0,0,0-9.219-9.9,9.675,9.675,0,0,0-9.8,8.84,98.255,98.255,0,0,0-.557,10.372c.373,4.785,3.342,6.467,4.54,6.952a6.392,6.392,0,0,0,1.3.234h0a.028.028,0,0,1,.028.033l-.724,5.57c-.262,3.632-1.058,15.992,2.64,16.276s9.469-11.937,9.781-15.6Z" transform="translate(-264.037 -121.306)" fill="#ffbe9d"/>
        <path id="Path_8914" data-name="Path 8914" d="M351.465,153.978a.763.763,0,0,0,.685.858.741.741,0,0,0,.852-.624.763.763,0,0,0-.68-.83.746.746,0,0,0-.858.6Z" transform="translate(-265.656 -130.61)" fill="#263238"/>
        <path id="Path_8915" data-name="Path 8915" d="M351,149.893c.089.106.713-.273,1.543-.206s1.415.524,1.509.429-.033-.228-.284-.44a2.139,2.139,0,0,0-1.2-.462,2.067,2.067,0,0,0-1.237.284A.651.651,0,0,0,351,149.893Z" transform="translate(-265.453 -128.765)" fill="#263238"/>
        <path id="Path_8916" data-name="Path 8916" d="M365.447,155.076a.758.758,0,0,0,.685.824.741.741,0,0,0,.852-.624.758.758,0,0,0-.68-.824.746.746,0,0,0-.858.624Z" transform="translate(-271.852 -131.085)" fill="#263238"/>
        <path id="Path_8917" data-name="Path 8917" d="M365.722,151.31c.089.106.707-.273,1.543-.206s1.409.524,1.51.429-.033-.228-.29-.44a2.167,2.167,0,0,0-1.2-.468,2.106,2.106,0,0,0-1.237.29C365.778,151.087,365.677,151.26,365.722,151.31Z" transform="translate(-271.97 -129.391)" fill="#263238"/>
        <path id="Path_8918" data-name="Path 8918" d="M357.737,156.94a5.1,5.1,0,0,0-1.331-.345c-.212-.039-.412-.1-.435-.245a1.059,1.059,0,0,1,.195-.607c.24-.49.5-1,.763-1.543a26.833,26.833,0,0,0,1.755-4.05,26.753,26.753,0,0,0-2.083,3.9l-.752,1.587a1.181,1.181,0,0,0-.178.808.524.524,0,0,0,.323.334,1.674,1.674,0,0,0,.357.078A5.675,5.675,0,0,0,357.737,156.94Z" transform="translate(-267.517 -129.183)" fill="#263238"/>
        <path id="Path_8919" data-name="Path 8919" d="M358.275,178.524a13.516,13.516,0,0,0,7.419-1.554c-.256.128-1.476,4.829-7.614,3.052Z" transform="translate(-268.59 -141.064)" fill="#eb996e"/>
        <path id="Path_8920" data-name="Path 8920" d="M359.64,165.554a1.526,1.526,0,0,1,1.392-.446,1.376,1.376,0,0,1,.9.557.835.835,0,0,1,0,.98,1.014,1.014,0,0,1-1.114.184,3.031,3.031,0,0,1-1.03-.68.858.858,0,0,1-.217-.256.279.279,0,0,1,0-.306" transform="translate(-269.231 -135.797)" fill="#eb996e"/>
        <path id="Path_8921" data-name="Path 8921" d="M361.454,163.7c-.134,0-.212.869-1.036,1.437s-1.782.4-1.8.524.2.189.607.228a2.29,2.29,0,0,0,1.5-.384,1.939,1.939,0,0,0,.808-1.209C361.616,163.923,361.516,163.694,361.454,163.7Z" transform="translate(-268.828 -135.185)" fill="#263238"/>
        <path id="Path_8922" data-name="Path 8922" d="M365.778,146.7c.061.228.9.189,1.872.384s1.738.512,1.883.323c.067-.089-.056-.312-.356-.557a3.141,3.141,0,0,0-1.365-.59,3.181,3.181,0,0,0-1.5.056C365.945,146.432,365.75,146.593,365.778,146.7Z" transform="translate(-271.998 -127.431)" fill="#263238"/>
        <path id="Path_8923" data-name="Path 8923" d="M351.8,145.993c.134.2.719.05,1.415.095s1.264.228,1.415.039c.067-.089,0-.279-.251-.479a2.094,2.094,0,0,0-2.278-.106C351.837,145.715,351.742,145.9,351.8,145.993Z" transform="translate(-265.8 -127.015)" fill="#263238"/>
        <path id="Path_8924" data-name="Path 8924" d="M346.239,133.46a6.233,6.233,0,0,1,.117-.8,2.4,2.4,0,0,1,.707-.992,8.266,8.266,0,0,1,3.342-2.351c.78-.2,1.587-.123,2.367-.318a13.927,13.927,0,0,0,1.415-.512,11.536,11.536,0,0,1,6.01-.323,9.469,9.469,0,0,1,3.225,1.047,11.508,11.508,0,0,1,2.891,2.629,17.561,17.561,0,0,1,3.225,5.191,8.605,8.605,0,0,1,.462,4.9,4.217,4.217,0,0,1-2.952,3.342c-.162-.228-.323-.451-.49-.674l-.785-.991c.128.4,0,.368-.334.557a.685.685,0,0,1-.936-.351c-.284.323-.836-.078-.719-.518-.334.15-.713-.312-.557-.7-.379.106-.557-.5-.707-.919-.089-.223-.217-.423-.323-.635a4.083,4.083,0,0,1-.418-2.256,4.038,4.038,0,0,1-.518-2.228c0-.49-.033-.98-.056-1.471l-.24-.362a.8.8,0,0,1-.59.713,1.71,1.71,0,0,1-.88-.089l-.858-.24-.557.111a2.228,2.228,0,0,1-.279,1.4,1.376,1.376,0,0,1-.557.752.418.418,0,0,1-.557-.49.457.457,0,0,1-.7-.167,1.521,1.521,0,0,1-.123-.914,3.838,3.838,0,0,1,.875-2.05l-1.626,1.292a.741.741,0,0,1-.39.195.407.407,0,0,1-.462.407,1.042,1.042,0,0,1-.529-.423c-.334-.418-.674-1.114-.312-1.521-.167-.045-.228-.34-.106-.49l-1.833,1.159c.178-.084.351.2.29.418a.936.936,0,0,1-.4.479,1.32,1.32,0,0,1,.128.83c.334-.251.758.3.618.735a.975.975,0,0,1-.964.635.685.685,0,0,1-.724-.557c-.384.045-.7-.5-.557-.914-.284.162-.485-.351-.474-.724a5.283,5.283,0,0,1,.434-1.883.1.1,0,0,1-.145.028.122.122,0,0,1-.028-.078l-1.086,2.133a5.458,5.458,0,0,0-.691,1.916c-.028.284-.095.663-.334.668a.312.312,0,0,1-.178-.061,3.5,3.5,0,0,1-1.4-1.927,2.7,2.7,0,0,1-.173-.847A11.7,11.7,0,0,1,346.239,133.46Z" transform="translate(-263.154 -119.333)" fill="#263238"/>
        <path id="Path_8925" data-name="Path 8925" d="M380.979,155.1c.084-.033,3.342-.769,3.036,2.5s-3.52,2.273-3.515,2.184S380.979,155.1,380.979,155.1Z" transform="translate(-278.521 -131.332)" fill="#ffbe9d"/>
        <path id="Path_8926" data-name="Path 8926" d="M382.487,159.512a1.045,1.045,0,0,0,.15.095.557.557,0,0,0,.423.05,1.415,1.415,0,0,0,.769-1.2,1.933,1.933,0,0,0-.084-.83.663.663,0,0,0-.384-.473.29.29,0,0,0-.351.123c-.05.089-.039.156-.056.156s-.067-.061-.028-.189a.373.373,0,0,1,.15-.195.418.418,0,0,1,.323-.05.8.8,0,0,1,.557.557,1.96,1.96,0,0,1,.106.93,1.476,1.476,0,0,1-.958,1.331.618.618,0,0,1-.512-.139C382.487,159.59,382.476,159.518,382.487,159.512Z" transform="translate(-279.4 -132.212)" fill="#eb996e"/>
        <path id="Path_8927" data-name="Path 8927" d="M359.967,134.414a.87.87,0,0,1-.184-.44.591.591,0,0,1,.189-.479.624.624,0,0,1,.641-.106l.134.056-.05-.134a.652.652,0,0,1,.234-.713.641.641,0,0,1,.808.1l.117-.089a.429.429,0,0,1-.039-.089.373.373,0,0,1,.078-.3.418.418,0,0,1,.284-.145.708.708,0,0,1,.323.039.819.819,0,0,0,.356.117c.161,0,.24-.128.323-.173a1.331,1.331,0,0,1,.267-.134,1.3,1.3,0,0,1,.557-.072,1.415,1.415,0,0,1,.746.245c.15.111.223.195.234.184a.664.664,0,0,0-.2-.228,1.354,1.354,0,0,0-.774-.306,1.415,1.415,0,0,0-.557.061,1.354,1.354,0,0,0-.3.145c-.1.056-.178.139-.256.139a.847.847,0,0,1-.3-.106.791.791,0,0,0-.4-.056.557.557,0,0,0-.373.195.513.513,0,0,0-.111.429.556.556,0,0,0,.061.139l.117-.095a.752.752,0,0,0-1.27.752l.084-.078a.724.724,0,0,0-.758.145.663.663,0,0,0-.2.557.647.647,0,0,0,.156.351.278.278,0,0,0,.056.089Z" transform="translate(-269.33 -121.028)" fill="#455a64"/>
        <path id="Path_8928" data-name="Path 8928" d="M353.236,133.9a.969.969,0,0,1-.245-.434.735.735,0,0,1,.084-.557.747.747,0,0,1,.607-.368h.106l-.061-.089a.9.9,0,0,1-.184-.813.479.479,0,0,1,.323-.306.379.379,0,0,1,.423.095l.379.479-.256-.557a.78.78,0,0,1,0-.641.7.7,0,0,1,.557-.384.735.735,0,0,1,.485.089l.162.095-.056-.178a.487.487,0,0,1,.457-.557,1.231,1.231,0,0,1,.758.256l.134.089-.028-.156a.557.557,0,0,1,.217-.507,1.019,1.019,0,0,1,.524-.178,2.556,2.556,0,0,1,.936.1,4.344,4.344,0,0,1,.758.351.875.875,0,0,0-.173-.145,2.546,2.546,0,0,0-1.532-.418,1.114,1.114,0,0,0-.585.189.663.663,0,0,0-.279.629l.106-.067a1.387,1.387,0,0,0-.847-.29.7.7,0,0,0-.446.217.557.557,0,0,0-.139.507l.106-.084a.908.908,0,0,0-.557-.111.847.847,0,0,0-.652.473.891.891,0,0,0,0,.763l.117-.072a.512.512,0,0,0-.557-.134.6.6,0,0,0-.4.39,1.014,1.014,0,0,0,.217.93l.039-.089a.847.847,0,0,0-.68.434.8.8,0,0,0-.067.607.853.853,0,0,0,.195.34C353.191,133.885,353.23,133.908,353.236,133.9Z" transform="translate(-266.319 -119.887)" fill="#455a64"/>
        <path id="Path_8929" data-name="Path 8929" d="M339.2,134.18a.557.557,0,0,1,.223-.384.7.7,0,0,1,.5-.134,2.228,2.228,0,0,1,.685.223l.078.039v-.089a.635.635,0,0,1,.557-.557,1.81,1.81,0,0,1,1.025.256l.44.206-.368-.323a.524.524,0,0,1,.106-.746,1.2,1.2,0,0,1,.93-.134h.045l.284.05-.228-.178a.557.557,0,0,1,.139-.88.852.852,0,0,1,.93.173l.278.262-.173-.34a1.281,1.281,0,0,1,.117-1.287,1.181,1.181,0,0,1,.913-.473,1.342,1.342,0,0,1,.68.145c.145.078.212.139.223.134l-.045-.05a1.172,1.172,0,0,0-.156-.123,1.3,1.3,0,0,0-.707-.189,1.27,1.27,0,0,0-1,.49,1.382,1.382,0,0,0-.139,1.415l.095-.111a1,1,0,0,0-1.114-.2.724.724,0,0,0-.362.507.629.629,0,0,0,.2.618l.061-.134h-.05a1.309,1.309,0,0,0-1.047.167.768.768,0,0,0-.262.462.557.557,0,0,0,.156.5l.078-.111a1.966,1.966,0,0,0-1.114-.256.752.752,0,0,0-.652.7l.072-.05a2.094,2.094,0,0,0-.719-.212.758.758,0,0,0-.557.173.557.557,0,0,0-.189.3C339.18,134.136,339.191,134.18,339.2,134.18Z" transform="translate(-260.195 -120.159)" fill="#455a64"/>
        <path id="Path_8930" data-name="Path 8930" d="M347.79,124.89a.557.557,0,0,0,.189.084,2.473,2.473,0,0,0,.557.078,1.772,1.772,0,0,1,.813.195.557.557,0,0,1,.256.384.4.4,0,0,1-.189.418l.095.078c.045-.184.29-.284.512-.39a2.445,2.445,0,0,1,.713-.24.88.88,0,0,1,.691.167.6.6,0,0,1,.256.557l-.039.178.145-.106a1.61,1.61,0,0,1,1-.312,1.749,1.749,0,0,1,.808.189,2.14,2.14,0,0,1,.6.457.843.843,0,0,0-.111-.173,1.521,1.521,0,0,0-.446-.362,1.833,1.833,0,0,0-.847-.228,1.738,1.738,0,0,0-1.081.318l.111.067a.719.719,0,0,0-.3-.707,1.014,1.014,0,0,0-.8-.2,2.378,2.378,0,0,0-.758.251,2.821,2.821,0,0,0-.34.178.557.557,0,0,0-.245.312l-.033.139.128-.056a.507.507,0,0,0,.256-.557.641.641,0,0,0-.318-.462,1.721,1.721,0,0,0-.869-.178,2.892,2.892,0,0,1-.557-.039A1.157,1.157,0,0,0,347.79,124.89Z" transform="translate(-264.031 -117.993)" fill="#455a64"/>
        <path id="Path_8931" data-name="Path 8931" d="M361.31,120.939a1.671,1.671,0,0,1,.384.089.926.926,0,0,1,.345.267.786.786,0,0,1,.195.512v.078h.078a.485.485,0,0,1,.512.345,1.471,1.471,0,0,1-.044.813l-.067.29.2-.223.033-.033a.629.629,0,0,1,.524-.167.707.707,0,0,1,.462.251,1.114,1.114,0,0,1,.223.891,2.034,2.034,0,0,1-.223.624c-.072.139-.117.217-.106.223a.741.741,0,0,0,.156-.195,1.771,1.771,0,0,0,.273-.629,1.214,1.214,0,0,0-.217-1,.824.824,0,0,0-1.2-.1l-.039.045.128.067a1.6,1.6,0,0,0,.028-.9.607.607,0,0,0-.674-.418l.078.061a.88.88,0,0,0-.24-.557.925.925,0,0,0-.4-.267.758.758,0,0,0-.306-.045A.228.228,0,0,0,361.31,120.939Z" transform="translate(-270.02 -116.243)" fill="#455a64"/>
        <path id="Path_8932" data-name="Path 8932" d="M372.16,126.983h.2a1.2,1.2,0,0,0,.468-.273,1.314,1.314,0,0,0,.4-.707.7.7,0,0,1,.128-.4c.095-.095.279-.145.407-.306a.735.735,0,0,0-.106-1.008v.106a2.412,2.412,0,0,0,.7-.819,1.065,1.065,0,0,0,.139-.39,2.457,2.457,0,0,0-.212.351,2.562,2.562,0,0,1-.713.746l-.072.056.072.056a.607.607,0,0,1,.072.808c-.084.123-.251.167-.39.3a.757.757,0,0,0-.162.468,1.254,1.254,0,0,1-.34.657,1.811,1.811,0,0,1-.6.351Z" transform="translate(-274.827 -117.24)" fill="#455a64"/>
        <path id="Path_8933" data-name="Path 8933" d="M375.36,131.051a.351.351,0,0,0,.123.028,2.4,2.4,0,0,0,.351,0,2.005,2.005,0,0,0,1.142-.524h-.095a1.3,1.3,0,0,0,1.381.512.791.791,0,0,0,.5-.329,1.243,1.243,0,0,0,.078-.206.3.3,0,0,1,.106-.128.969.969,0,0,1,.351-.123,1,1,0,0,0,.39-.123.412.412,0,0,0,.239-.345l-.095.061a1.32,1.32,0,0,0,.9.095,1.41,1.41,0,0,0,.618-.318,1.114,1.114,0,0,0,.279-.356.351.351,0,0,0,.05-.156,1.949,1.949,0,0,1-.379.451,1.443,1.443,0,0,1-.6.273,1.2,1.2,0,0,1-.808-.111l-.095-.05v.111a.273.273,0,0,1-.173.223,1.08,1.08,0,0,1-.351.106.97.97,0,0,0-.412.145.435.435,0,0,0-.156.189,1.192,1.192,0,0,1-.067.189.7.7,0,0,1-.407.262,1.242,1.242,0,0,1-.5,0,1.147,1.147,0,0,1-.746-.462l-.039-.061-.056.056a2.011,2.011,0,0,1-1.064.557C375.533,131.056,375.36,131.034,375.36,131.051Z" transform="translate(-276.244 -119.876)" fill="#455a64"/>
        <path id="Path_8934" data-name="Path 8934" d="M388.752,138.811v-.05a.932.932,0,0,0,.039-.15,1.559,1.559,0,0,0,0-.59,3.414,3.414,0,0,0-.323-.863,3.34,3.34,0,0,0-.29-.5.907.907,0,0,0-.239-.217.384.384,0,0,0-.357-.028l.084.067a.955.955,0,0,0-1.493-.969l.111.067a.669.669,0,0,0-.223-.557.652.652,0,0,0-.624-.128.618.618,0,0,0-.306.195l.128.061a.429.429,0,0,0-.128-.362.557.557,0,0,0-.318-.167,1.354,1.354,0,0,0-.646.106l.089.039a1.058,1.058,0,0,0-.6-.5,1.454,1.454,0,0,0-.719-.061,3.6,3.6,0,0,0-1.164.434l.072.072a.251.251,0,0,0,0-.256.4.4,0,0,0-.167-.156.775.775,0,0,0-.39-.095,2.313,2.313,0,0,0-.6.128,1.825,1.825,0,0,0-.345.167.329.329,0,0,0-.111.084,4.775,4.775,0,0,1,.479-.195,2.535,2.535,0,0,1,.585-.1.691.691,0,0,1,.334.095c.111.061.195.173.134.279l-.095.156.167-.084a3.637,3.637,0,0,1,1.114-.423,1.337,1.337,0,0,1,.657.061.925.925,0,0,1,.518.434l.028.056h.061a1.152,1.152,0,0,1,.557-.1.345.345,0,0,1,.329.356l-.05.256.178-.195a.558.558,0,0,1,.24-.15.5.5,0,0,1,.479.1.524.524,0,0,1,.178.451v.156l.134-.089a.852.852,0,0,1,.975,0,.886.886,0,0,1,.34.836v.123l.111-.056c.167-.078.345.067.457.206a3.005,3.005,0,0,1,.29.473,3.9,3.9,0,0,1,.345.83A1.9,1.9,0,0,1,388.752,138.811Z" transform="translate(-278.402 -122.111)" fill="#455a64"/>
        <path id="Path_8935" data-name="Path 8935" d="M387.924,145.306a.418.418,0,0,0,.084-.089,2.856,2.856,0,0,0,.195-.284,1.042,1.042,0,0,0,.167-.529.807.807,0,0,0-.084-.345.557.557,0,0,0-.3-.273v.078a.7.7,0,0,0,.089-.724.707.707,0,0,0-.735-.39l.061.106a.557.557,0,0,0,.033-.657.83.83,0,0,0-.6-.345,2.59,2.59,0,0,1-.329,0,.267.267,0,0,1-.189-.195,1.219,1.219,0,0,0-.162-.334.685.685,0,0,0-.334-.223,3.9,3.9,0,0,0-.78-.084.869.869,0,0,1-.624-.24c-.067-.084-.106-.195-.178-.3a.763.763,0,0,0-.969-.273l.078.095a.557.557,0,0,0,0-.685.819.819,0,0,0-.529-.318,2.6,2.6,0,0,0-.969.033,3.3,3.3,0,0,0-.6.184.9.9,0,0,0-.195.1,7.028,7.028,0,0,1,.808-.206,2.606,2.606,0,0,1,.936,0,.769.769,0,0,1,.457.284.479.479,0,0,1,0,.557l-.178.217.256-.117a.652.652,0,0,1,.557,0,.624.624,0,0,1,.223.212,2.775,2.775,0,0,0,.184.312.713.713,0,0,0,.334.223,1.56,1.56,0,0,0,.384.072,3.66,3.66,0,0,1,.752.084.518.518,0,0,1,.262.167,1.209,1.209,0,0,1,.145.306.423.423,0,0,0,.284.273,2.95,2.95,0,0,0,.351.033.663.663,0,0,1,.5.279.418.418,0,0,1,0,.49l-.128.145.189-.033a.59.59,0,0,1,.607.312.6.6,0,0,1-.067.613l-.045.056h.072a.557.557,0,0,1,.334.529,1.041,1.041,0,0,1-.134.5C388.013,145.167,387.912,145.295,387.924,145.306Z" transform="translate(-278.765 -124.361)" fill="#455a64"/>
        <path id="Path_8936" data-name="Path 8936" d="M392.761,158.9a.334.334,0,0,0,.15-.033,1.009,1.009,0,0,0,.357-.234,1.031,1.031,0,0,0,.3-.6,1.114,1.114,0,0,0-.228-.852v.084a2.105,2.105,0,0,0,.446-.7.852.852,0,0,0,0-.473.618.618,0,0,0-.317-.4v.128a.836.836,0,0,0,.429-.735.952.952,0,0,0-.106-.5.824.824,0,0,0-.356-.334.284.284,0,0,1-.189-.29,1.2,1.2,0,0,0-.061-.44,1.476,1.476,0,0,0-.5-.635c-.189-.162-.357-.312-.524-.446a2.356,2.356,0,0,0-.863-.5,1.026,1.026,0,0,0-.267-.05h-.095a3.145,3.145,0,0,1,.345.089,2.662,2.662,0,0,1,.8.524l.507.457a1.343,1.343,0,0,1,.451.585,1.032,1.032,0,0,1,.05.4.429.429,0,0,0,.061.251.557.557,0,0,0,.195.162.769.769,0,0,1,.039,1.315l-.134.067.134.067a.557.557,0,0,1,.24.7,1.9,1.9,0,0,1-.407.657l-.033.039.033.039a1.042,1.042,0,0,1,.223.763.98.98,0,0,1-.251.557A1.4,1.4,0,0,1,392.761,158.9Z" transform="translate(-283.146 -129.958)" fill="#455a64"/>
        <path id="Path_8937" data-name="Path 8937" d="M372,139.248a1.064,1.064,0,0,0,.451-.139,1.192,1.192,0,0,0,.423-.306.785.785,0,0,0,.2-.629.638.638,0,0,0-.045-.156l-.039.095a.7.7,0,0,0,.4-.451.674.674,0,0,0-.05-.49c-.145-.245-.334-.29-.329-.273a.862.862,0,0,1,.234.318.556.556,0,0,1,0,.407.591.591,0,0,1-.329.356h-.067l.028.072a.585.585,0,0,1,.033.117.707.707,0,0,1-.162.518,1.237,1.237,0,0,1-.368.306A3.082,3.082,0,0,1,372,139.248Z" transform="translate(-274.756 -123.311)" fill="#455a64"/>
        <path id="Path_8938" data-name="Path 8938" d="M365.974,136.132a.9.9,0,0,1-.056-.557.629.629,0,0,1,.384-.434.668.668,0,0,1,.7.173l.084.095.033-.123a1.421,1.421,0,0,1,.206-.423.557.557,0,0,1,.39-.228c.24,0,.485.228.407.418l.134.039a1.113,1.113,0,0,1,1.12-.886,1.821,1.821,0,0,1,.607.162.5.5,0,0,0-.134-.106,1.053,1.053,0,0,0-.468-.145,1.147,1.147,0,0,0-.724.173,1.231,1.231,0,0,0-.557.774l.139.039a.418.418,0,0,0-.111-.44.6.6,0,0,0-.429-.178.685.685,0,0,0-.5.29,1.326,1.326,0,0,0-.228.473h.123a.791.791,0,0,0-.841-.189.7.7,0,0,0-.429.524.735.735,0,0,0,.045.44C365.913,136.1,365.968,136.138,365.974,136.132Z" transform="translate(-272.01 -122.078)" fill="#455a64"/>
        <path id="Path_8939" data-name="Path 8939" d="M304.956,437.022l-1.877,9.241-6.177.579-2.6-3.064,2.378-11.029Z" transform="translate(-240.336 -254.37)" fill="#ffbe9d"/>
        <path id="Path_8940" data-name="Path 8940" d="M282.539,450.71v.724s-11.82,4.562-12.009,6.879l23.211.557-.134-8.1A12.709,12.709,0,0,1,282.539,450.71Z" transform="translate(-229.806 -262.326)" fill="#d16800"/>
        <g id="Group_1491" data-name="Group 1491" transform="translate(60.204 190.972)" opacity="0.6">
          <path id="Path_8941" data-name="Path 8941" d="M306.671,455.381a1,1,0,0,1,.629,1.147.908.908,0,0,1-1.114.663,1.053,1.053,0,0,1-.657-1.22.93.93,0,0,1,1.2-.557" transform="translate(-305.503 -455.356)" fill="#fff"/>
        </g>
        <path id="Path_8942" data-name="Path 8942" d="M293.568,463.85l-.033-1.95-22.231.161a2.117,2.117,0,0,0-1.114,1.911Z" transform="translate(-229.655 -267.283)" fill="#263238"/>
        <path id="Path_8943" data-name="Path 8943" d="M291.9,452.042c0,.123.557.189,1.114.585s.836.9.936.858-.044-.735-.719-1.2S291.877,451.936,291.9,452.042Z" transform="translate(-239.273 -262.873)" fill="#263238"/>
        <path id="Path_8944" data-name="Path 8944" d="M287.489,453.875c-.028.111.457.329.83.841s.473,1.042.557,1.042a1.278,1.278,0,0,0-.273-1.3C288.13,453.837,287.495,453.764,287.489,453.875Z" transform="translate(-237.318 -263.709)" fill="#263238"/>
        <path id="Path_8945" data-name="Path 8945" d="M284.2,457.684c.106.028.279-.557,0-1.22s-.8-.93-.852-.83.273.451.49.991S284.087,457.667,284.2,457.684Z" transform="translate(-235.481 -264.498)" fill="#263238"/>
        <path id="Path_8946" data-name="Path 8946" d="M370.776,436.521c.089.3,0,11.82,0,11.82l-3.465,2.156-4.523-2.846-.958-11.14Z" transform="translate(-270.251 -256.035)" fill="#ffbe9d"/>
        <path id="Path_8947" data-name="Path 8947" d="M362.145,454.71s6.166,4.579,9.152.613l.78,1.922,3.5,13.7a1.871,1.871,0,0,1-.986,2.2,1.638,1.638,0,0,1-1.794-.362c-2.534-2.523-11.82-11.87-11.731-13.134l.039-3.342a1.7,1.7,0,0,1,1.036-1.571Z" transform="translate(-269.914 -264.098)" fill="#d16800"/>
        <path id="Path_8948" data-name="Path 8948" d="M374.234,476.248l-13.24-14.778v.735a1.944,1.944,0,0,0,.629,1.621,141.878,141.878,0,0,0,11.124,12.422c.407.412,1.186.05,1.487-.034Z" transform="translate(-269.876 -267.092)" fill="#263238"/>
        <g id="Group_1492" data-name="Group 1492" transform="translate(91.584 192.028)" opacity="0.6">
          <path id="Path_8949" data-name="Path 8949" d="M363.321,457.412a1.114,1.114,0,0,1,.29,1.4.958.958,0,0,1-1.326.306,1.153,1.153,0,0,1-.3-1.482.98.98,0,0,1,1.409-.162" transform="translate(-361.839 -457.252)" fill="#fff"/>
        </g>
        <path id="Path_8950" data-name="Path 8950" d="M377.907,472.808c.095.05.468-.858,1.448-1.354a5.666,5.666,0,0,1,1.905-.39c.022-.106-.195-.178-.585-.228a2.511,2.511,0,0,0-1.482.279,2.668,2.668,0,0,0-1.114,1.069C377.891,472.54,377.868,472.8,377.907,472.808Z" transform="translate(-277.365 -271.233)" fill="#263238"/>
        <path id="Path_8951" data-name="Path 8951" d="M380.052,477.561c.078.078.607-.49,1.459-.752s1.593-.117,1.615-.223a1.771,1.771,0,0,0-1.721-.139C380.436,476.764,379.962,477.516,380.052,477.561Z" transform="translate(-278.318 -273.669)" fill="#263238"/>
        <path id="Path_8952" data-name="Path 8952" d="M373.993,467.427a17.6,17.6,0,0,1,2.184-1.32,20.292,20.292,0,0,1,2.456-.613,3.5,3.5,0,0,0-2.59.256A3.835,3.835,0,0,0,373.993,467.427Z" transform="translate(-275.635 -268.816)" fill="#263238"/>
        <path id="Path_8953" data-name="Path 8953" d="M373.438,460.995c.045.106.952-.3,2.145-.345s2.133.245,2.167.134a3.055,3.055,0,0,0-2.184-.518A3.261,3.261,0,0,0,373.438,460.995Z" transform="translate(-275.392 -266.556)" fill="#263238"/>
        <path id="Path_8954" data-name="Path 8954" d="M376.332,458.381a1.671,1.671,0,0,0-.095-.652,4.672,4.672,0,0,0-.791-1.587,1.949,1.949,0,0,0-.98-.791.669.669,0,0,0-.73.306,1.2,1.2,0,0,0-.117.819,2.406,2.406,0,0,0,2.468,1.877,2.785,2.785,0,0,0,2.417-2.022,1.036,1.036,0,0,0-.1-.836.646.646,0,0,0-.752-.228,2.338,2.338,0,0,0-.969.791,5.247,5.247,0,0,0-.875,1.543,1.67,1.67,0,0,0-.145.635,8.353,8.353,0,0,1,1.209-2,2.228,2.228,0,0,1,.863-.668.34.34,0,0,1,.407.123.7.7,0,0,1,.039.557,2.518,2.518,0,0,1-2.117,1.732,2.083,2.083,0,0,1-2.117-1.565.852.852,0,0,1,.056-.557.357.357,0,0,1,.4-.173,1.721,1.721,0,0,1,.847.652A6.9,6.9,0,0,1,376.332,458.381Z" transform="translate(-275.462 -264.326)" fill="#263238"/>
        <path id="Path_8955" data-name="Path 8955" d="M346.321,265.2a57.931,57.931,0,0,1,4.317,11.653c1.9,7.2,4.049,10.812,3.27,24.08-.4,6.768-5.994,25.138-7.286,31.605-1.064,5.325-4.378,30.33-6.066,36.941h-9.609l-.98-74.028s-15.324,43.2-17.268,48.193-8.756,24.782-8.756,24.782L291.9,365.238s7.325-35.41,9.146-44.227,6.779-33.694,8.884-41.18,4.094-15.39,4.094-15.39Z" transform="translate(-239.273 -179.812)" fill="#263238"/>
        <path id="Path_8956" data-name="Path 8956" d="M387.49,289.339a1.048,1.048,0,0,0,.1.368,5.327,5.327,0,0,0,.435.93,7.887,7.887,0,0,0,2.228,2.5,7.576,7.576,0,0,0,3.013,1.315,4.94,4.94,0,0,0,.991.095.991.991,0,0,0,.362-.028c0-.056-.512-.067-1.315-.262a8.416,8.416,0,0,1-2.9-1.348,8.913,8.913,0,0,1-2.228-2.367C387.729,289.818,387.535,289.317,387.49,289.339Z" transform="translate(-281.618 -190.841)" fill="#455a64"/>
        <path id="Path_8957" data-name="Path 8957" d="M322.5,295.815a1.113,1.113,0,0,0,.351.1,5.516,5.516,0,0,0,1,.111,6.426,6.426,0,0,0,1.476-.15,6.918,6.918,0,0,0,1.71-.652A8.416,8.416,0,0,0,329.552,293a4.6,4.6,0,0,0,.746-1.186c-.033,0-.334.412-.886,1.058a9.429,9.429,0,0,1-2.5,2.089,6.884,6.884,0,0,1-3.069.852C323.018,295.854,322.506,295.759,322.5,295.815Z" transform="translate(-252.828 -191.936)" fill="#455a64"/>
        <path id="Path_8958" data-name="Path 8958" d="M359.544,291.49a2.786,2.786,0,0,0-.106.6c-.05.384-.106.947-.162,1.638-.117,1.393-.212,3.342-.189,5.448s.145,4.049.279,5.436c.072.7.139,1.253.195,1.643a2.163,2.163,0,0,0,.117.59,2.977,2.977,0,0,0,0-.607c-.033-.446-.067-1-.111-1.671-.089-1.387-.184-3.3-.206-5.425s.05-4.038.117-5.425c.028-.646.056-1.2.078-1.671A2.884,2.884,0,0,0,359.544,291.49Z" transform="translate(-269.034 -191.794)" fill="#455a64"/>
        <path id="Path_8959" data-name="Path 8959" d="M357.34,188.35l8.734,4.161-1.22,15.92s-1.031,1.2-2.7,9.737,3.9,25.127,3.9,25.127L325,244.325s4.824-34.429,5.381-38.991l2.05-17.412,8.261-.451h2.378l2.055,14.839,10.338-14.388Z" transform="translate(-253.936 -145.715)" fill="#455a64"/>
        <path id="Path_8960" data-name="Path 8960" d="M313.27,239.879a2.407,2.407,0,0,0,.122-.941,6.684,6.684,0,0,0-.379-2.228,6.413,6.413,0,0,0-1.114-1.972c-.373-.446-.657-.652-.68-.629a11.223,11.223,0,0,1,1.537,2.7A11.98,11.98,0,0,1,313.27,239.879Z" transform="translate(-247.831 -166.375)" fill="#263238"/>
        <path id="Path_8961" data-name="Path 8961" d="M281.071,215.632,295.7,215.5l5.531-16.343h0a64.059,64.059,0,0,1,2.9-5.765c2.93-5.392,6.656-5.108,6.656-5.108l4.49,6.985-4.79,10.678s-4.562,20.181-9.848,21.066c-8.779,1.471-24.509-4.6-24.509-4.6Z" transform="translate(-232.287 -146.076)" fill="#455a64"/>
        <g id="Group_1493" data-name="Group 1493" transform="translate(74.423 72.972)" opacity="0.2">
          <path id="Path_8962" data-name="Path 8962" d="M331.052,245.1c0-.557-.15-1.27.329-1.509a1.621,1.621,0,0,1,1.242.095c12.126,4.295,19.139-.691,31.265,3.6l2.468,12.455c-5.381.045-7.837-1.214-13.129-2.908-5.392-1.727-10.8-3.454-16.087-5.5a14.562,14.562,0,0,1-4.161-2.178,5.286,5.286,0,0,1-1.927-4.055Z" transform="translate(-331.03 -243.514)"/>
        </g>
        <path id="Path_8963" data-name="Path 8963" d="M335.326,209.4a4.78,4.78,0,0,1-.284.824,13.6,13.6,0,0,0-.507,2.022c-.284,1.61-.345,2.941-.423,2.941a8.456,8.456,0,0,1,.139-3,8.863,8.863,0,0,1,.6-2.044A1.928,1.928,0,0,1,335.326,209.4Z" transform="translate(-257.939 -155.43)" fill="#263238"/>
        <path id="Path_8964" data-name="Path 8964" d="M0,0H3.342A3.476,3.476,0,0,1,6.818,3.476v.412A3.476,3.476,0,0,1,3.342,7.364H0Z" transform="translate(152.079 69.92) rotate(1.47)" fill="#d16800"/>
        <path id="Path_8965" data-name="Path 8965" d="M206.759,230l29.962-3,112.562,2.9a1.989,1.989,0,0,1,1.933,2.033l-.273,10.583a1.983,1.983,0,0,1-2.033,1.933l-112.991-2.963-29.3-6.01Z" transform="translate(-201.495 -163.226)" fill="#d16800"/>
        <path id="Path_8966" data-name="Path 8966" d="M202.639,235.1l-2.752-.067-2.339.791c-.195.145-.145.329,0,.557l2.356.769,2.7.067Z" transform="translate(-197.42 -166.783)" fill="#263238"/>
        <rect id="Rectangle_1189" data-name="Rectangle 1189" width="2.334" height="14.538" transform="translate(35.232 63.736) rotate(1.47)" fill="#263238"/>
        <path id="Path_8967" data-name="Path 8967" d="M418.1,230.049h0a2.59,2.59,0,0,1-2.657,2.518l-56.181-1.443a2.6,2.6,0,0,1-2.523-2.657h0a2.59,2.59,0,0,1,2.657-2.518l56.181,1.443A2.6,2.6,0,0,1,418.1,230.049Z" transform="translate(-267.995 -162.76)" fill="#d16800"/>
        <path id="Path_8968" data-name="Path 8968" d="M417.991,229.959a2.993,2.993,0,0,0-.318-1.248,2.579,2.579,0,0,0-1.114-1.075,2.466,2.466,0,0,0-.952-.273c-.351,0-.741,0-1.147-.028L400.7,227l-20.443-.49-12.071-.306-6.395-.139-1.626-.039a5.976,5.976,0,0,0-1.588.061,2.44,2.44,0,0,0-.123,4.679,5.853,5.853,0,0,0,1.582.145l1.627.039,6.389.167,12.071.323,20.443.557,13.781.4c.407,0,.791.033,1.147.033a2.523,2.523,0,0,0,.964-.223,2.551,2.551,0,0,0,1.147-1.019,2.94,2.94,0,0,0,.384-1.225,2.44,2.44,0,0,1,0,.329,2.536,2.536,0,0,1-.312.93,2.629,2.629,0,0,1-1.17,1.064,2.546,2.546,0,0,1-.992.24h-1.159l-13.781-.312-20.443-.5-12.076-.3-6.383-.162-1.626-.039h-.819a2.963,2.963,0,0,1-.852-.139,2.729,2.729,0,0,1,.139-5.23,2.819,2.819,0,0,1,.858-.095h.819l1.626.039,6.383.167,12.071.323,20.443.557,13.781.4a11.02,11.02,0,0,1,1.153.039,2.7,2.7,0,0,1,.98.3,2.573,2.573,0,0,1,1.114,1.114,2.025,2.025,0,0,1,.251,1.276Z" transform="translate(-267.886 -162.67)" fill="#263238"/>
        <path id="Path_8969" data-name="Path 8969" d="M466.005,234.52l2.885,1.465-.212,8.35L465.71,246Z" transform="translate(-316.268 -166.557)" fill="#263238"/>
        <path id="Path_8970" data-name="Path 8970" d="M397.379,223.364l-6.372-9.831h0l-.557-.88h0l-.858-1.326,3.743-15.257a14.445,14.445,0,0,1,4.963,3.9,58.721,58.721,0,0,1,3.9,6.963s6.239,14.271,7.241,16.4,2.685,6.077,0,8.283-20.61,2.284-20.61,2.284l-1.209-9.018Z" transform="translate(-281.675 -149.525)" fill="#455a64"/>
        <path id="Path_8971" data-name="Path 8971" d="M390.69,211.637c.05,0-.089-.668-.15-1.749a13.864,13.864,0,0,1,2.05-8.021c.557-.919,1-1.432.969-1.459s-.134.106-.34.334a8.076,8.076,0,0,0-.791,1.025,12.594,12.594,0,0,0-1.738,3.9,12.762,12.762,0,0,0-.34,4.25,8.814,8.814,0,0,0,.206,1.276,1.531,1.531,0,0,0,.134.446Z" transform="translate(-282.863 -151.444)" fill="#263238"/>
        <path id="Path_8972" data-name="Path 8972" d="M370.623,246.552a6.211,6.211,0,0,0-1.61-2.122c-1.175-1.019-3.754-1.81-4.089-2.785s-1.315-.223-1.086,1a12.2,12.2,0,0,0,1.743,2.785,4.92,4.92,0,0,1-3.125-.245c-1.253-.719-5.62-2.016-6.088-1.4s.618.925,1.114,1.2c.373.212,3.281,1.671,3.281,1.671s-5.782-.195-6.512.078,0,1,.384,1.014a9.156,9.156,0,0,1,1.922,1.548,2.635,2.635,0,0,0,1.749.707h1.348l-4.083.429s-.707.646.273.98c.44.15,11.759,1.175,12.717,1.114,2.178-.072,5.214-.223,5.214-.223l-.557-6.127Z" transform="translate(-266.756 -169.516)" fill="#ffbe9d"/>
        <path id="Path_8973" data-name="Path 8973" d="M355,253.053a8.845,8.845,0,0,0,2.752.836,8.683,8.683,0,0,0,2.869.167c0-.078-1.276-.15-2.824-.429S355,252.98,355,253.053Z" transform="translate(-267.225 -174.763)" fill="#eb996e"/>
        <g id="Group_1494" data-name="Group 1494" transform="translate(45.074 71.144)" opacity="0.3">
          <path id="Path_8974" data-name="Path 8974" d="M278.34,240.28c1.114-.245,2.189.462,3.1,1.114a14.631,14.631,0,0,1,1.643,1.342c1.409,1.409,2.15,3.342,3.342,4.946l-6.684-1.019Z" transform="translate(-278.34 -240.231)"/>
        </g>
        <path id="Path_8975" data-name="Path 8975" d="M285.532,247.489l-2.913-.607S280,242.7,278.625,242.2l-.774-.34s-1.014-2.228-2.384-1.933c-.819-.557-1.548-.323-1.626.49,0,0-.407-1.855-1.927-1.114s2.1,7.186,2.1,7.186,1.27,3.292,2.846,2.195a4.306,4.306,0,0,0,2.629-.223s.975,1.376,3.281.329Z" transform="translate(-230.254 -168.598)" fill="#ffbe9d"/>
        <path id="Path_8976" data-name="Path 8976" d="M285.271,254.252a.523.523,0,0,0,0,.312,1.376,1.376,0,0,0,.4.746,1.933,1.933,0,0,0,1.147.557,3.9,3.9,0,0,0,1.515-.167,9.686,9.686,0,0,0,2.5-1.114,3.114,3.114,0,0,0,.891-.7,17.141,17.141,0,0,1-3.459,1.532,3.961,3.961,0,0,1-1.42.178,1.8,1.8,0,0,1-1.042-.429A1.671,1.671,0,0,1,285.271,254.252Z" transform="translate(-236.326 -175.138)" fill="#eb996e"/>
        <path id="Path_8977" data-name="Path 8977" d="M278.115,246.942c.067-.045-.808-1.3-1.56-3.025s-1.114-3.214-1.175-3.2a3.076,3.076,0,0,0,.15,1,14.406,14.406,0,0,0,.78,2.306,13.506,13.506,0,0,0,1.17,2.133,3.044,3.044,0,0,0,.635.785Z" transform="translate(-231.955 -169.304)" fill="#eb996e"/>
        <path id="Path_8978" data-name="Path 8978" d="M281.2,246.732c.072-.039-.668-1.354-1.387-3.052s-1.153-3.142-1.225-3.119A16.121,16.121,0,0,0,281.2,246.732Z" transform="translate(-233.377 -169.233)" fill="#eb996e"/>
        <path id="Path_8979" data-name="Path 8979" d="M279.251,254.309c-.072,0,0,.557.462.93s1.008.368,1,.3-.429-.162-.824-.5S279.323,254.287,279.251,254.309Z" transform="translate(-233.659 -175.323)" fill="#eb996e"/>
        <path id="Path_8980" data-name="Path 8980" d="M284.985,247.448a10.767,10.767,0,0,0-.941-1.621,10.5,10.5,0,0,0-1.014-1.587A7.86,7.86,0,0,0,284.985,247.448Z" transform="translate(-235.344 -170.863)" fill="#eb996e"/>
      </g>
    </g>
    <circle id="Ellipse_119" data-name="Ellipse 119" cx="47" cy="47" r="47" transform="translate(163.564 3610.219)" fill="#fff" opacity="0.1"/>
  </g>
</svg>
