<svg xmlns="http://www.w3.org/2000/svg" xmlns:xlink="http://www.w3.org/1999/xlink" width="289" height="289" viewBox="0 0 289 289">
  <defs>
    <filter id="Ellipse_117" x="0" y="0" width="289" height="289" filterUnits="userSpaceOnUse">
      <feOffset dy="3" input="SourceAlpha"/>
      <feGaussianBlur stdDeviation="3" result="blur"/>
      <feFlood flood-color="#e2e2e2"/>
      <feComposite operator="in" in2="blur"/>
      <feComposite in="SourceGraphic"/>
    </filter>
  </defs>
  <g id="Group_1589" data-name="Group 1589" transform="translate(-503.021 -3838.691)">
    <g transform="matrix(1, 0, 0, 1, 503.02, 3838.69)" filter="url(#Ellipse_117)">
      <g id="Ellipse_117-2" data-name="Ellipse 117" transform="translate(9 6)" fill="#fff4ea" stroke="#b45d0e" stroke-width="1">
        <circle cx="135.5" cy="135.5" r="135.5" stroke="none"/>
        <circle cx="135.5" cy="135.5" r="135" fill="none"/>
      </g>
    </g>
    <g id="Firefighter-pana" transform="translate(443.371 3721.368)">
      <g id="freepik--Character--inject-105" transform="translate(133.298 141.86)">
        <path id="Path_8314" data-name="Path 8314" d="M193.389,420.114l.726,14.335S179.792,440,179.67,442.66l27.841-.409-.189-22.381Z" transform="translate(-144.955 -205.143)" fill="#263238"/>
        <path id="Path_8315" data-name="Path 8315" d="M216.591,441.568a1.141,1.141,0,0,1,.805,1.287,1.1,1.1,0,0,1-1.269.811,1.22,1.22,0,0,1-.848-1.366,1.135,1.135,0,0,1,1.415-.7" transform="translate(-158.836 -213.598)" fill="#e0e0e0"/>
        <path id="Path_8316" data-name="Path 8316" d="M207.5,455.117l-.11-2.257-26.651,1.22s-1.22.555-1.08,1.427Z" transform="translate(-144.947 -218.009)" fill="#455a64"/>
        <path id="Path_8317" data-name="Path 8317" d="M202.609,443.464c0,.134.689.183,1.36.61s1.043.994,1.165.939-.085-.836-.915-1.342S202.579,443.336,202.609,443.464Z" transform="translate(-153.901 -214.292)" fill="#fff"/>
        <path id="Path_8318" data-name="Path 8318" d="M197.85,445.563c0,.128.567.354,1.037.921s.61,1.171.744,1.165.214-.775-.384-1.47S197.85,445.428,197.85,445.563Z" transform="translate(-152.045 -215.14)" fill="#fff"/>
        <path id="Path_8319" data-name="Path 8319" d="M194.5,449.877c.122,0,.3-.659-.061-1.4s-1-1.025-1.055-.915.348.506.61,1.122S194.369,449.865,194.5,449.877Z" transform="translate(-150.302 -215.935)" fill="#fff"/>
        <path id="Path_8320" data-name="Path 8320" d="M202.927,437.848c.061.122.683-.073,1.452-.031s1.373.274,1.44.152-.512-.61-1.421-.61S202.86,437.75,202.927,437.848Z" transform="translate(-154.023 -211.964)" fill="#fff"/>
        <path id="Path_8321" data-name="Path 8321" d="M279.556,415.69l1.9,17.269,5.441,13.219a1.787,1.787,0,0,1-1.086,2.367h0a1.769,1.769,0,0,1-1.61-.25c-2.959-2.172-13.817-10.2-13.884-11.474-.079-1.47-3.215-18.068-3.215-18.068Z" transform="translate(-179.052 -203.512)" fill="#263238"/>
        <path id="Path_8322" data-name="Path 8322" d="M287.763,461.293,272.11,448.41l.1.732a2.7,2.7,0,0,0,.86,1.635c1.263,1.141,4.825,4.2,13.036,10.272A1.775,1.775,0,0,0,287.763,461.293Z" transform="translate(-181.006 -216.273)" fill="#455a64"/>
        <path id="Path_8323" data-name="Path 8323" d="M289.664,456.586c.1.037.372-.921,1.33-1.543a5.052,5.052,0,0,1,1.934-.61c.006-.079-.226-.146-.61-.152a2.836,2.836,0,0,0-2.519,1.69C289.615,456.317,289.621,456.58,289.664,456.586Z" transform="translate(-187.842 -218.562)" fill="#fff"/>
        <path id="Path_8324" data-name="Path 8324" d="M292.177,460.584c.1.061.573-.573,1.427-.945a14.683,14.683,0,0,1,1.653-.439,2.034,2.034,0,0,0-1.83.091C292.439,459.73,292.061,460.547,292.177,460.584Z" transform="translate(-188.824 -220.419)" fill="#fff"/>
        <path id="Path_8325" data-name="Path 8325" d="M285.294,452.074a16.771,16.771,0,0,1,2.1-1.6,23.621,23.621,0,0,1,2.477-.939,3.959,3.959,0,0,0-2.66.61A3.862,3.862,0,0,0,285.294,452.074Z" transform="translate(-186.144 -216.698)" fill="#fff"/>
        <path id="Path_8326" data-name="Path 8326" d="M283.628,444.507c.061.1.958-.427,2.19-.61s2.251-.043,2.275-.152a3.342,3.342,0,0,0-2.342-.226A3.6,3.6,0,0,0,283.628,444.507Z" transform="translate(-185.496 -214.334)" fill="#fff"/>
        <path id="Path_8327" data-name="Path 8327" d="M282.507,436.192a8.427,8.427,0,0,1,2.257-.72,10.706,10.706,0,0,1,2.361.268c.049-.1-.2-.232-.61-.409a3.855,3.855,0,0,0-3.471.342C282.647,435.93,282.47,436.162,282.507,436.192Z" transform="translate(-185.059 -211.07)" fill="#fff"/>
        <path id="Path_8328" data-name="Path 8328" d="M284.216,432.13a1.477,1.477,0,0,0-.061-.659,4.715,4.715,0,0,0-.744-1.635,2.08,2.08,0,0,0-1.025-.854.732.732,0,0,0-.781.262,1.184,1.184,0,0,0-.165.817,2.507,2.507,0,0,0,2.489,2.013,2.928,2.928,0,0,0,2.641-1.891,1.025,1.025,0,0,0-.067-.842.7.7,0,0,0-.775-.268,2.507,2.507,0,0,0-1.055.738,5.215,5.215,0,0,0-1,1.494,1.628,1.628,0,0,0-.183.61,8.175,8.175,0,0,1,1.372-1.934,2.392,2.392,0,0,1,.933-.61.39.39,0,0,1,.427.146.689.689,0,0,1,0,.555,2.617,2.617,0,0,1-2.312,1.616,2.184,2.184,0,0,1-2.135-1.684.842.842,0,0,1,.091-.573.4.4,0,0,1,.427-.153,1.83,1.83,0,0,1,.848.7A6.6,6.6,0,0,1,284.216,432.13Z" transform="translate(-184.639 -208.686)" fill="#fff"/>
        <path id="Path_8329" data-name="Path 8329" d="M199.81,277.8l-1.293,34.429-.159,28.756s-.939,23.924.421,29.89c0,0,17.69.61,17.69,0s2.44-40.26,2.44-40.26,4.636-30.232,4.789-33.819a93.4,93.4,0,0,1,1.122-9.278s6.655,29.475,6.808,37.259,9.278,46.238,9.278,46.238l14.817-1.22-3.745-62.251s-2.861-39.888-2.721-40.37-46.635,2.227-46.635,2.086S199.81,277.8,199.81,277.8Z" transform="translate(-152.12 -145.569)" fill="#d16800"/>
        <g id="Group_1462" data-name="Group 1462" transform="translate(47.422 126.49)" opacity="0.3">
          <path id="Path_8330" data-name="Path 8330" d="M200.5,282.442s1.336,1.391,11.1,2.525a107.1,107.1,0,0,0,12.542.47l.335-3,.842,3c3.843-.1,8.949-.714,12.2-.982a43.723,43.723,0,0,0,13.078-3.514H227.035l-3.05-5.722-1.885,6.234Z" transform="translate(-200.5 -275.22)"/>
        </g>
        <path id="Path_8331" data-name="Path 8331" d="M256.62,341.445l3.05,28.975a18.569,18.569,0,0,0,11.041,1.08c6.1-1.312,6.057-2.294,6.057-2.294L275.03,340.28A48.271,48.271,0,0,1,256.62,341.445Z" transform="translate(-174.965 -174.103)" fill="#263238"/>
        <path id="Path_8332" data-name="Path 8332" d="M217.178,341.217,215.689,370.3a18.508,18.508,0,0,1-10.98,1.678c-6.185-.976-6.179-1.958-6.179-1.958l.159-28.975A48.326,48.326,0,0,0,217.178,341.217Z" transform="translate(-152.31 -174.399)" fill="#263238"/>
        <path id="Path_8333" data-name="Path 8333" d="M260.91,403.91,279,402.22l.378,6.375-17.123,1.415-1.348-5.862" transform="translate(-176.638 -198.259)" fill="#e0e0e0"/>
        <path id="Path_8334" data-name="Path 8334" d="M280.758,416.48l-16.678,1.708,1.379,6.021,15.683-1.336Z" transform="translate(-177.874 -203.821)" fill="#e0e0e0"/>
        <path id="Path_8335" data-name="Path 8335" d="M261.65,407.557l17.775-1.677.122,2.092-17.422,1.653Z" transform="translate(-176.926 -199.687)" fill="#fff"/>
        <path id="Path_8336" data-name="Path 8336" d="M264.93,421.817l16.281-1.537.122,2.092-15.927,1.513Z" transform="translate(-178.206 -205.303)" fill="#fff"/>
        <path id="Path_8337" data-name="Path 8337" d="M197.61,403.02l.128,6.277,19.343,1.19.4-6.7Z" transform="translate(-151.951 -198.571)" fill="#e0e0e0"/>
        <path id="Path_8338" data-name="Path 8338" d="M197.66,405.8l19.709,1.287-.1,2.281-19.532-1.031Z" transform="translate(-151.971 -199.655)" fill="#fff"/>
        <path id="Path_8339" data-name="Path 8339" d="M197.92,417.63c0,1.934.116,4.1.25,6.411l18.489,1.055.323-5.3.037-.952Z" transform="translate(-152.072 -204.269)" fill="#e0e0e0"/>
        <path id="Path_8340" data-name="Path 8340" d="M197.98,420.41l18.977,1.305L216.811,424l-18.764-1.049Z" transform="translate(-152.095 -205.353)" fill="#fff"/>
        <g id="Group_1463" data-name="Group 1463" transform="translate(47.08 136.244)" opacity="0.3">
          <path id="Path_8341" data-name="Path 8341" d="M200.355,291.21l11.767,2.184q-1.671,8-3.343,16l-8.839-4.233.171-6.71,1.635-2.989-1.464-1.83Z" transform="translate(-199.94 -291.21)"/>
        </g>
        <path id="Path_8342" data-name="Path 8342" d="M288,188.685s.506-2.715.61-3.477-5.594-19.667-7.625-24.156a12.778,12.778,0,0,0-4.3-4.74,11.5,11.5,0,0,0-8.375-1.976h-.128l3.983,30.262-.439.037a99.14,99.14,0,0,1,2.562,10.132c1.067,5.447,4.319,23.223,4.319,23.79s12.645,2.422,12.645,2.422C292.324,212.249,288,188.685,288,188.685Z" transform="translate(-179.473 -101.534)" fill="#d16800"/>
        <path id="Path_8343" data-name="Path 8343" d="M283.894,262.313c.049.409.494,2.922.494,2.922l-1.684,2.44c-.732,1.055-3.294,7.656-3.294,7.656a1.263,1.263,0,0,0,1.434,1.257c1.427-.085,4.227-3.379,4.819-3.477s1.922,2.019,1.922,2.019.049,2.44-.689,3.148-3.6,3.343-3.4,4.575,2.214.884,3.349.537,2.9-.537,3.44-1.22,4.087-4.233,4.38-4.721-.049-5.954,0-7.479.543-5.661.543-5.661l.39-1.983-12.1-2.135Z" transform="translate(-183.853 -142.868)" fill="#263238"/>
        <path id="Path_8344" data-name="Path 8344" d="M285.24,259.74l.531,2.4,12.1,2.111v-2.111Z" transform="translate(-186.127 -142.693)" fill="#455a64"/>
        <path id="Path_8345" data-name="Path 8345" d="M295.4,233.578s-2.379-2.708-7.631-1.995c-4.709.641-6.576,3.172-6.576,3.172l.964,5.429s6.936-4.057,13.859-.61Z" transform="translate(-184.547 -131.665)" fill="#e0e0e0"/>
        <path id="Path_8346" data-name="Path 8346" d="M295.813,236.3s-2.44-2.348-7.686-1.635c-4.709.641-6.277,3.02-6.277,3.02l.3,1.873s6.954-4.538,13.884-1.122Z" transform="translate(-184.804 -132.86)" fill="#fff"/>
        <path id="Path_8347" data-name="Path 8347" d="M279.8,173.58a4.571,4.571,0,0,1,0,.909c0,.61-.073,1.421-.159,2.44a67.247,67.247,0,0,1-1.22,8.046,65.232,65.232,0,0,1-2.227,7.863c-.348.982-.653,1.769-.878,2.306a4.882,4.882,0,0,1-.378.824,5.119,5.119,0,0,1,.262-.866c.2-.549.464-1.348.781-2.336.641-1.976,1.446-4.734,2.123-7.832s1.08-5.941,1.318-8c.116-1.031.207-1.873.256-2.44a6.042,6.042,0,0,1,.122-.909Z" transform="translate(-182.11 -109.09)" fill="#263238"/>
        <path id="Path_8348" data-name="Path 8348" d="M282.368,192.85a8.54,8.54,0,0,1-.72,1.714,31.831,31.831,0,0,1-2.269,3.867,33.44,33.44,0,0,1-2.769,3.544,9.052,9.052,0,0,1-1.33,1.305,13.585,13.585,0,0,1,1.159-1.452c.726-.884,1.7-2.135,2.678-3.575s1.775-2.812,2.324-3.819a14.1,14.1,0,0,1,.927-1.586Z" transform="translate(-182.242 -116.606)" fill="#263238"/>
        <path id="Path_8349" data-name="Path 8349" d="M214.97,132.768a42.975,42.975,0,0,1,28.414-1.055,2.349,2.349,0,0,1,1.275.726c.61.854-.055,2.025-.72,2.849-2.977,3.66-6.24,7.32-10.541,9.254a6.942,6.942,0,0,1-4.27.726,8.906,8.906,0,0,1-3.526-2.044c-3.977-3.233-8-6.509-11.023-10.638" transform="translate(-158.569 -92.013)" fill="#d16800"/>
        <g id="Group_1464" data-name="Group 1464" transform="translate(56.011 37.779)" opacity="0.3">
          <path id="Path_8350" data-name="Path 8350" d="M214.97,132.768a42.975,42.975,0,0,1,28.414-1.055,2.349,2.349,0,0,1,1.275.726c.61.854-.055,2.025-.72,2.849-2.977,3.66-6.24,7.32-10.541,9.254a6.942,6.942,0,0,1-4.27.726,8.906,8.906,0,0,1-3.526-2.044c-3.977-3.233-8-6.509-11.023-10.638" transform="translate(-214.58 -129.792)"/>
        </g>
        <path id="Path_8351" data-name="Path 8351" d="M261.909,103.258a21,21,0,0,0,2.525-10.5,7.656,7.656,0,0,0-1.025-4.081c-.824-1.22-3.788-2.654-5.1-3.379l.683,4.831s2.69,3.142,2.855,3.489S261.909,103.258,261.909,103.258Z" transform="translate(-175.624 -74.662)" fill="#263238"/>
        <path id="Path_8352" data-name="Path 8352" d="M226.065,105.85a47.729,47.729,0,0,1-1.97-8.04,16.757,16.757,0,0,1,.769-8.162c.152-.39,1.434-3.007,1.83-2.959.3,0-.5,2.477-.354,2.739a14.213,14.213,0,0,1,1.482,8.308,37.819,37.819,0,0,1-1.775,8.113" transform="translate(-162.203 -75.203)" fill="#263238"/>
        <path id="Path_8353" data-name="Path 8353" d="M227.141,92.7c-.152-6.93,3.8-12.773,10.724-12.7l.61.043a12.377,12.377,0,0,1,11.547,12.2c.079,6,.085,12.639-.171,15.86-.537,6.625-7.235,7.2-7.235,7.2l.085,10.913-15.732.409Z" transform="translate(-163.401 -72.594)" fill="#e49384"/>
        <path id="Path_8354" data-name="Path 8354" d="M247.257,135.825a16.074,16.074,0,0,1-8.467-3.135,8.366,8.366,0,0,0,8.418,5.374Z" transform="translate(-168.011 -93.143)" fill="#a86b62"/>
        <path id="Path_8355" data-name="Path 8355" d="M258.251,108.331a.946.946,0,0,1-.976.9.9.9,0,0,1-.915-.921.946.946,0,0,1,.976-.9.909.909,0,0,1,.915.921Z" transform="translate(-174.863 -83.284)" fill="#263238"/>
        <path id="Path_8356" data-name="Path 8356" d="M259.775,103.687c-.122.116-.805-.464-1.83-.531s-1.8.39-1.9.256.085-.275.427-.488a2.58,2.58,0,0,1,1.531-.36,2.513,2.513,0,0,1,1.446.61C259.745,103.4,259.836,103.632,259.775,103.687Z" transform="translate(-174.728 -81.392)" fill="#263238"/>
        <path id="Path_8357" data-name="Path 8357" d="M243.347,107.841a.946.946,0,0,1-.976.891.9.9,0,0,1-.921-.921.946.946,0,0,1,.976-.891.909.909,0,0,1,.921.921Z" transform="translate(-169.048 -83.093)" fill="#263238"/>
        <path id="Path_8358" data-name="Path 8358" d="M243.372,103.278c-.128.116-.805-.464-1.83-.531s-1.83.39-1.9.262.079-.275.421-.488a2.653,2.653,0,0,1,1.537-.366,2.513,2.513,0,0,1,1.446.61C243.341,102.98,243.433,103.211,243.372,103.278Z" transform="translate(-168.335 -81.233)" fill="#263238"/>
        <path id="Path_8359" data-name="Path 8359" d="M250.89,111.768a6.5,6.5,0,0,1,1.678-.189c.262,0,.512-.043.567-.22a1.342,1.342,0,0,0-.122-.781c-.2-.647-.415-1.324-.61-2.037a34.108,34.108,0,0,1-1.379-5.3,35.78,35.78,0,0,1,1.83,5.179c.214.714.415,1.4.61,2.044a1.513,1.513,0,0,1,.067,1.031.677.677,0,0,1-.457.354,1.952,1.952,0,0,1-.445.031,6.759,6.759,0,0,1-1.739-.11Z" transform="translate(-172.73 -81.658)" fill="#263238"/>
        <path id="Path_8360" data-name="Path 8360" d="M245.767,118c.165,0,.091,1.1.982,1.958s2.08.805,2.08.964c0,.067-.275.2-.775.177a2.776,2.776,0,0,1-1.739-.744,2.4,2.4,0,0,1-.756-1.635C245.547,118.274,245.688,118,245.767,118Z" transform="translate(-170.651 -87.414)" fill="#263238"/>
        <path id="Path_8361" data-name="Path 8361" d="M243.145,96.61c-.122.268-1.129.067-2.336.128s-2.19.323-2.336.067c-.061-.122.128-.372.531-.61a3.959,3.959,0,0,1,1.763-.488,4.044,4.044,0,0,1,1.8.335C242.993,96.244,243.194,96.494,243.145,96.61Z" transform="translate(-167.883 -78.719)" fill="#263238"/>
        <path id="Path_8362" data-name="Path 8362" d="M259.659,98.052c-.2.22-.878-.073-1.726-.14s-1.568.049-1.714-.2c-.067-.122.061-.348.39-.549a2.44,2.44,0,0,1,1.427-.281,2.318,2.318,0,0,1,1.342.561C259.665,97.7,259.739,97.942,259.659,98.052Z" transform="translate(-174.802 -79.172)" fill="#263238"/>
        <path id="Path_8363" data-name="Path 8363" d="M224.627,108.726c-.11-.055-4.465-1.659-4.63,2.885s4.435,3.77,4.447,3.66S224.627,108.726,224.627,108.726Z" transform="translate(-160.68 -83.673)" fill="#e49384"/>
        <path id="Path_8364" data-name="Path 8364" d="M223.845,114.39a1.485,1.485,0,0,1-.22.11.787.787,0,0,1-.61,0,1.964,1.964,0,0,1-.842-1.793,2.58,2.58,0,0,1,.262-1.122.891.891,0,0,1,.61-.61.4.4,0,0,1,.458.232c.055.128,0,.22.049.226s.1-.067.073-.256a.531.531,0,0,0-.171-.293.61.61,0,0,0-.433-.134,1.116,1.116,0,0,0-.854.677,2.7,2.7,0,0,0-.317,1.257,2.056,2.056,0,0,0,1.086,2,.836.836,0,0,0,.726-.091C223.833,114.5,223.857,114.4,223.845,114.39Z" transform="translate(-161.405 -84.586)" fill="#a86b62"/>
        <path id="Path_8365" data-name="Path 8365" d="M246.232,84.09c.744-.384-1.4-2.83-3.184-3.7-2.7-1.318-6.85-2.19-9.388-1.543-3.05.775-5.618,2.214-7.216,4.935a17.861,17.861,0,0,0-2.251,9.1,5.411,5.411,0,0,0,.567,2.794c.61,1.019,1.83,1.684,1.714,3.05a1.928,1.928,0,0,0,.433,1.4c.811.909,1.83.1,2.342-.72A13.08,13.08,0,0,0,230.6,93.5a13.212,13.212,0,0,0-.171-4.331c-.2-.763-.537-1.488-.7-2.263a2.708,2.708,0,0,1,.384-2.257,2.75,2.75,0,0,1,.378-.366,4.758,4.758,0,0,1,4.728-.769c2.532.976,6.869,2.44,8.034,1.61a7.015,7.015,0,0,0,2.092-2.013Z" transform="translate(-162.314 -72.061)" fill="#263238"/>
        <path id="Path_8366" data-name="Path 8366" d="M235.967,77.684a9.974,9.974,0,0,1,7.662.61,5.179,5.179,0,0,1,2.66,3.093,2.98,2.98,0,0,1-1.586,3.489l-.092.049a6.851,6.851,0,0,1-5.124-.415c-1.61-.61-3.05-1.647-4.642-2.245a9.235,9.235,0,0,0-5.4-.305A15.049,15.049,0,0,1,235.967,77.684Z" transform="translate(-164.365 -71.499)" fill="#263238"/>
        <path id="Path_8367" data-name="Path 8367" d="M226.544,99.427a.481.481,0,0,1,0-.152v-.457c0-.421,0-1.019-.037-1.781,0-1.586-.055-3.861-.1-6.71h0l4.4-7.088.037-.061h.067l14.1-.787h.055l.049.049,5.594,5.813.049.049v.067c-.043.915-.085,1.891-.134,2.879-.134,2.94-.268,5.807-.4,8.577-.03.7-.061,1.379-.1,2.062a9.113,9.113,0,0,1-.244,2.031,7.838,7.838,0,0,1-1.83,3.483,7.436,7.436,0,0,1-3.2,1.958,10.657,10.657,0,0,1-1.757.421c-.61.061-1.171.11-1.739.134a12.2,12.2,0,0,1-6.063-1.7,20.588,20.588,0,0,1-4.16-3.148,29.7,29.7,0,0,1-2.647-2.91c-.671-.848-1.147-1.537-1.464-2.007-.152-.238-.268-.421-.342-.549a.97.97,0,0,1-.1-.2s.043.061.128.177.214.311.372.531c.329.458.824,1.135,1.507,1.964a30.5,30.5,0,0,0,2.672,2.861,21.064,21.064,0,0,0,4.148,3.05,12.017,12.017,0,0,0,5.948,1.623,16.488,16.488,0,0,0,1.708-.134,10.485,10.485,0,0,0,1.7-.415,7.192,7.192,0,0,0,3.081-1.9,7.485,7.485,0,0,0,1.769-3.355,8.376,8.376,0,0,0,.238-1.97c.03-.677.061-1.366.092-2.056.128-2.776.262-5.643.4-8.583.049-.988.1-1.97.14-2.885l.043.116-5.588-5.9.122.049-14.14.787.1-.061-4.453,7.058v8.912C226.55,99.372,226.544,99.427,226.544,99.427Z" transform="translate(-163.183 -73.527)" fill="#e0e0e0"/>
        <path id="Path_8368" data-name="Path 8368" d="M250.579,86.346l-4.734-1.983-.146-.043-7.686-1.641a.836.836,0,0,0-.458.037L232.163,84.7a.61.61,0,0,0-.171.085l-5.258,3.5a.824.824,0,0,0-.366.61l-.2,2.593a.293.293,0,0,0,0,.1l.5,10.645a.823.823,0,0,0,.824.793h0a.83.83,0,0,0,.83-.86L228.2,99.3c0-3.257-1-9.382,3.416-11.913s9.321-1.9,11.59-1.47,5.307,1.763,5.874,3.16c.482,1.183.647,10.327.683,13.127a.83.83,0,0,0,.83.817h0a.836.836,0,0,0,.83-.781l.738-12.353a.861.861,0,0,0-.055-.354l-1.1-2.757a.83.83,0,0,0-.427-.433Z" transform="translate(-163.086 -73.633)" fill="#455a64"/>
        <path id="Path_8369" data-name="Path 8369" d="M248.45,84.232c-.366-1.83-2.233-5.136-11.822-5.49-7.052-.268-9.9,2.495-11.639,4.453a4.191,4.191,0,0,0-1.019,2.641s-.165,2.971-.165,3.91l.037,3.05-2.824-1.22c-2.263-1.22-2.544-2.946-1.623-4.124h0s0-1.7.238-4.923c.3-4.05,2.44-8.54,5.856-10.266a32.38,32.38,0,0,1,7.82-2.519l.4-1.452a.61.61,0,0,1,.567-.433h3.343a.61.61,0,0,1,.567.433l.378,1.36s6.32,2.269,8.54,5.3,3.05,8.479,3.05,8.479a33.726,33.726,0,0,1,.049,4.813h0a2.556,2.556,0,0,1,.055,3.623c-.738.762-1.458,1.379-1.458,1.379l-.043-3.44Z" transform="translate(-160.255 -67.86)" fill="#d16800"/>
        <path id="Path_8370" data-name="Path 8370" d="M223.827,91a.982.982,0,0,1-.183-.214c-.11-.14-.262-.36-.451-.647a10.37,10.37,0,0,1-1.263-2.629,5.087,5.087,0,0,1,.964-4.179,13.065,13.065,0,0,1,1.781-1.83,22.7,22.7,0,0,1,2.135-1.714,21.826,21.826,0,0,1,2.349-1.434c.787-.421,1.574-.756,2.269-1.153a5.1,5.1,0,0,0,1.708-1.434,5.3,5.3,0,0,0,.744-1.8c.268-1.183.36-2.178.47-2.855.055-.342.1-.61.14-.781a.97.97,0,0,1,.079-.268s-.031.378-.092,1.061a26.381,26.381,0,0,1-.384,2.891,4.557,4.557,0,0,1-2.519,3.434c-.714.421-1.495.763-2.269,1.177a22.936,22.936,0,0,0-4.447,3.1,12.762,12.762,0,0,0-1.757,1.793,4.88,4.88,0,0,0-.982,3.947,11.3,11.3,0,0,0,1.177,2.623A9.3,9.3,0,0,1,223.827,91Z" transform="translate(-161.393 -68.718)" fill="#263238"/>
        <g id="Group_1465" data-name="Group 1465" transform="translate(59.498 1.342)" opacity="0.3">
          <path id="Path_8371" data-name="Path 8371" d="M223.233,91s-1.946-2.7-1.946-4.355a4.879,4.879,0,0,1,.085-.9,5.966,5.966,0,0,1,1.647-3.05,23.18,23.18,0,0,1,6.1-4.453,9.8,9.8,0,0,0,3.453-2.288c1.068-1.4,1.055-4.02,1.4-5.887,0,0-.946,3.91-2.007,5.246s-5.557,2.4-9.547,6.527-1.318,7.216-.238,8.217C222.641,90.459,223.233,91,223.233,91Z" transform="translate(-220.298 -70.06)"/>
        </g>
        <path id="Path_8372" data-name="Path 8372" d="M262.529,83.814a7.93,7.93,0,0,0-1.379-2.4,15.964,15.964,0,0,0-5.49-3.806,7.2,7.2,0,0,1-1.708-.976,4.423,4.423,0,0,1-1.1-1.482c-.494-1.061-.86-2.019-1.22-2.824a15.389,15.389,0,0,1-.7-1.94,3.006,3.006,0,0,1-.183-.738,3.659,3.659,0,0,1,.3.7c.177.451.445,1.1.793,1.9s.756,1.757,1.22,2.776a4.386,4.386,0,0,0,1.043,1.379,6.917,6.917,0,0,0,1.647.927,15.067,15.067,0,0,1,5.527,3.947,5.911,5.911,0,0,1,1.031,1.83,2.719,2.719,0,0,1,.152.543C262.535,83.741,262.541,83.808,262.529,83.814Z" transform="translate(-172.676 -68.558)" fill="#263238"/>
        <path id="Path_8373" data-name="Path 8373" d="M237.813,109.713a2.134,2.134,0,0,1-.22-.549c-.128-.36-.293-.885-.482-1.537-.384-1.312-.86-3.135-1.287-5.173-.47-2.208-.781-4.215-.946-5.557l.207-.037c.177.97.281,1.6.287,1.781h-.037v.128l-.049-.122c-.067-.159-.232-.781-.457-1.745l.207-.037c.232,1.33.58,3.318,1.049,5.527.427,2.025.866,3.855,1.19,5.173A17.312,17.312,0,0,1,237.813,109.713Z" transform="translate(-166.467 -79.17)" fill="#e0e0e0"/>
        <path id="Path_8374" data-name="Path 8374" d="M240.361,109.353a37.9,37.9,0,0,1-1.22-4.813,37.451,37.451,0,0,1-.891-4.88,39.11,39.11,0,0,1,1.22,4.819,39.907,39.907,0,0,1,.891,4.874Z" transform="translate(-167.801 -80.262)" fill="#e0e0e0"/>
        <path id="Path_8375" data-name="Path 8375" d="M262.471,111.028a42.092,42.092,0,0,1,0-5.069,39.6,39.6,0,0,1,.3-5.069,41.6,41.6,0,0,1,0,5.075,40.055,40.055,0,0,1-.3,5.063Z" transform="translate(-177.217 -80.742)" fill="#e0e0e0"/>
        <g id="Group_1466" data-name="Group 1466" transform="translate(78.306 1.739)" opacity="0.3">
          <path id="Path_8376" data-name="Path 8376" d="M260.243,79.689c-1.11-.848-2.44-1.4-3.593-2.147-2.44-1.543-4.044-4.374-5.521-6.832.824,2.153,1.281,4,2.44,5.49,1.3,1.684,3.593,2.172,5.4,3.288a8.442,8.442,0,0,1,3.245,3.66A4.449,4.449,0,0,0,260.243,79.689Z" transform="translate(-251.13 -70.71)"/>
        </g>
        <path id="Path_8377" data-name="Path 8377" d="M205.8,214v7.643a184.674,184.674,0,0,1,21.283,1.281,61.3,61.3,0,0,0,21.106-1.049V214.61Z" transform="translate(-155.145 -124.854)" fill="#263238"/>
        <path id="Path_8378" data-name="Path 8378" d="M209.759,142.135s-1.128-2.031-.348-3.367a5.887,5.887,0,0,1,1.83-1.976v-3.526s7.759.7,11.431,3.66a34.161,34.161,0,0,1,6.253,6.991,70.392,70.392,0,0,1,6.911-5.856c2.4-1.549,5.856-6.21,5.856-6.21l2.117,1.061-.427,1.763s3.813,4.093,4.307,6.558a1.293,1.293,0,0,1-.708,1.415c-.915.421-4.105,1.312-4.105,1.312s3.935,3.837,4.831,6.71,2.94,22.57,1.671,26.45a21.691,21.691,0,0,1-2.4,5.441l-38.186-.6-1.885-39.223,3.142-.61" transform="translate(-155.578 -92.816)" fill="#d16800"/>
        <path id="Path_8379" data-name="Path 8379" d="M208.5,180.882c19.179-10.175,41.56,0,41.56,0l-.61-6.991s-7.119-3.843-19.331-4.721a44.787,44.787,0,0,0-21.991,4.313Z" transform="translate(-156.054 -107.34)" fill="#e0e0e0"/>
        <path id="Path_8380" data-name="Path 8380" d="M210.82,179.268c18.447-8.29,39.888.921,39.888.921l-.159-3.843s-7.595-4.014-19.807-4.557a45.652,45.652,0,0,0-20.643,3.66Z" transform="translate(-156.822 -108.373)" fill="#fff"/>
        <path id="Path_8381" data-name="Path 8381" d="M210.815,148.494s-7.576-.348-9.1,3.05l2.489,41.383,5.673.708Z" transform="translate(-153.554 -99.303)" fill="#263238"/>
        <path id="Path_8382" data-name="Path 8382" d="M264,151.916a10.809,10.809,0,0,1,5.222.464c2.855,1.116,3.05,1.873,3.386,5.331s.579,8.211.579,13.829-2.513,20.289-2.513,23.351l-6.49-.183s3.05-20.4,2.349-25.7S264,151.916,264,151.916Z" transform="translate(-177.843 -100.59)" fill="#263238"/>
        <path id="Path_8383" data-name="Path 8383" d="M257.035,151.1a3.435,3.435,0,0,1-.732.207l-2.019.458c-1.7.39-4.05.927-6.637,1.58s-4.88,1.287-6.588,1.757l-1.995.549a4.081,4.081,0,0,1-.744.165,3.245,3.245,0,0,1,.708-.287c.464-.165,1.135-.384,1.964-.647,1.671-.525,3.989-1.22,6.582-1.83s4.947-1.159,6.667-1.488c.854-.165,1.555-.287,2.037-.36a3.434,3.434,0,0,1,.756-.1Z" transform="translate(-167.828 -100.323)" fill="#263238"/>
        <path id="Path_8384" data-name="Path 8384" d="M259.7,135.329a2.013,2.013,0,0,1-.244.555,11.593,11.593,0,0,1-.891,1.4,18.24,18.24,0,0,1-3.91,3.819A35.65,35.65,0,0,1,250,143.955c-.61.323-1.129.573-1.476.744a2.214,2.214,0,0,1-.567.226,18.174,18.174,0,0,1,1.934-1.165,48.554,48.554,0,0,0,4.575-2.91,20.654,20.654,0,0,0,3.922-3.7C259.251,136.068,259.654,135.3,259.7,135.329Z" transform="translate(-171.587 -94.173)" fill="#263238"/>
        <path id="Path_8385" data-name="Path 8385" d="M224.945,143.692c-.043.037-.5-.47-1.36-1.147a13.267,13.267,0,0,0-7.893-2.855,11.415,11.415,0,0,1-1.781,0,1.476,1.476,0,0,1,.47-.116,7.967,7.967,0,0,1,1.312-.116,11.974,11.974,0,0,1,8.034,2.91,8.259,8.259,0,0,1,.933.933A3.3,3.3,0,0,1,224.945,143.692Z" transform="translate(-158.308 -95.783)" fill="#263238"/>
        <path id="Path_8386" data-name="Path 8386" d="M222.076,153.808a8.3,8.3,0,0,1-1.36-1.342,14.079,14.079,0,0,0-3.386-3.05,9.071,9.071,0,0,0-4.355-1.049,17.6,17.6,0,0,0-1.885.177,1.409,1.409,0,0,1,.482-.183,6.711,6.711,0,0,1,1.391-.22,8.54,8.54,0,0,1,4.52,1,12.523,12.523,0,0,1,3.4,3.142A17.322,17.322,0,0,1,222.076,153.808Z" transform="translate(-157.208 -99.164)" fill="#263238"/>
        <path id="Path_8387" data-name="Path 8387" d="M268.088,282.233a1.133,1.133,0,0,1-.329.049l-.958.055-3.471.226-11.45.61-10.651.5h-.049v-.1c-.4-1.629-.732-2.965-.97-3.941-.1-.439-.183-.793-.25-1.08a1.769,1.769,0,0,1-.061-.384,1.671,1.671,0,0,1,.128.366c.085.281.183.61.311,1.061l1.074,3.922-.122-.092,10.645-.579,11.456-.537,3.477-.122h.945a1.99,1.99,0,0,1,.275.043Z" transform="translate(-168.444 -149.88)" fill="#263238"/>
        <path id="Path_8388" data-name="Path 8388" d="M203.306,224.815s-4.88,9.827-5.423,19.24a110.824,110.824,0,0,0,.451,17.8h23.589s1.22-6.8,1.22-6.46,1.617,6.46,1.617,6.46l26.84-1.36s-2.135-22.814-6.6-35.38l-10.187-2.684H204.086Z" transform="translate(-151.992 -128.142)" fill="#d16800"/>
        <path id="Path_8389" data-name="Path 8389" d="M222.895,267.727h-25.12c-.1-2.062-.091-4.191,0-6.387H222.84Z" transform="translate(-151.988 -143.317)" fill="#e0e0e0"/>
        <rect id="Rectangle_1121" data-name="Rectangle 1121" width="25.211" height="2.367" transform="translate(45.72 120.03)" fill="#fff"/>
        <path id="Path_8390" data-name="Path 8390" d="M265.971,260.84l-26.7.305q-.153,3.093,0,6.387l27.682-.079Z" transform="translate(-168.169 -143.122)" fill="#e0e0e0"/>
        <path id="Path_8391" data-name="Path 8391" d="M266.311,264.64H239.19v2.367h27.5Z" transform="translate(-168.167 -144.604)" fill="#fff"/>
        <path id="Path_8392" data-name="Path 8392" d="M230.761,144.5s-.061.067-.189.183l-.573.506-2.227,1.934-8.339,7.18.037-.085c.134,2.611.214,5.533.409,8.711s.445,6.619.683,10.26c.519,7.32,1.092,15.421,1.7,23.985.354,5.185.677,10.211.952,14.988s.5,9.3.445,13.481h0c-.421,2.044-.817,3.977-1.22,5.826v.1h-.1l-17.178-.055-4.746-.03h0l4.746-.03,17.178-.055-.122.1q.561-2.763,1.171-5.826h0c.043-4.16-.22-8.686-.476-13.457s-.61-9.8-.964-14.988c-.61-8.54-1.159-16.69-1.665-23.979-.25-3.66-.47-7.088-.647-10.266s-.256-6.1-.366-8.723v-.049l.043-.037,8.4-7.1,2.263-1.9.61-.482A.927.927,0,0,1,230.761,144.5Z" transform="translate(-152.4 -97.749)" fill="#263238"/>
        <g id="Group_1467" data-name="Group 1467" transform="translate(65.196 88.517)" opacity="0.3">
          <path id="Path_8393" data-name="Path 8393" d="M241.553,217.4a5.393,5.393,0,0,0-.97-3.245,3.819,3.819,0,0,0-2.983-1.177,9.5,9.5,0,0,0-3.2.793c-1.641.647-3.349,1.495-4.185,3.05-.891,1.659-.567,3.66-.214,5.539q1.318,6.942,2.641,13.9l-.848,2.849c1.763.268,3.386-1.22,3.959-2.922a14.584,14.584,0,0,0,.3-5.3c-.073-1.775,0-3.691,1.068-5.136.952-1.324,2.562-2.068,3.489-3.41A8.091,8.091,0,0,0,241.553,217.4Z" transform="translate(-229.639 -212.97)"/>
        </g>
        <path id="Path_8394" data-name="Path 8394" d="M215,209.519a23.607,23.607,0,0,1,1.5-5.691c1.013-2.074,13.579-1.385,15.25-1.007s2.837,3.77,3.4,6.631a19.973,19.973,0,0,1-.39,6.9l-13.39-2.22Z" transform="translate(-158.733 -120.331)" fill="#263238"/>
        <path id="Path_8395" data-name="Path 8395" d="M244.84,187.343l6.673-33.745,2.41-.567-7.881,36.381Z" transform="translate(-170.371 -101.076)" fill="#455a64"/>
        <path id="Path_8396" data-name="Path 8396" d="M215.062,186.983l-1.342-38.5h2.166l.586,36.6Z" transform="translate(-158.234 -99.302)" fill="#455a64"/>
        <rect id="Rectangle_1122" data-name="Rectangle 1122" width="19.795" height="15.762" rx="7.881" transform="translate(56.267 83.973)" fill="#e0e0e0"/>
        <path id="Path_8397" data-name="Path 8397" d="M227.055,221.108a12.256,12.256,0,0,0,2.233-.4,7.87,7.87,0,0,0,2.324-1.22,7.593,7.593,0,0,0,2.849-4.606,9.552,9.552,0,0,0,.116-2.19,7.485,7.485,0,0,0-6.21-7.058,16.738,16.738,0,0,0-2.843-.116H222.56a7.527,7.527,0,0,0-7.466,6.777,10.217,10.217,0,0,0,.079,2.489,7.6,7.6,0,0,0,.75,2.214,8.1,8.1,0,0,0,1.287,1.763,7.717,7.717,0,0,0,1.6,1.22,7.381,7.381,0,0,0,3.306,1.007c1.031.055,1.934.031,2.666.055h2.129a.457.457,0,0,1,.146,0,.39.39,0,0,1-.146,0h-.439l-1.69.031c-.732,0-1.623.043-2.678,0a7.656,7.656,0,0,1-3.41-.994,7.929,7.929,0,0,1-1.659-1.263,8.467,8.467,0,0,1-1.342-1.83,7.93,7.93,0,0,1-.793-2.288c0-.207-.073-.415-.092-.61l-.037-.641v-1.3a7.814,7.814,0,0,1,7.759-7.064h2.965a16.469,16.469,0,0,1,2.9.128,7.747,7.747,0,0,1,6.4,7.369,9.759,9.759,0,0,1-.134,2.251,7.808,7.808,0,0,1-5.362,5.911,7.48,7.48,0,0,1-1.678.281h-.61Z" transform="translate(-158.643 -121.373)" fill="#455a64"/>
        <path id="Path_8398" data-name="Path 8398" d="M232.39,229.39a3.66,3.66,0,1,0-7.32,0v9.662h7.32Z" transform="translate(-162.66 -129.429)" fill="#455a64"/>
        <rect id="Rectangle_1123" data-name="Rectangle 1123" width="9.577" height="1.507" rx="0.753" transform="translate(61.348 104.164)" fill="#455a64"/>
        <path id="Path_8399" data-name="Path 8399" d="M232.067,240a.491.491,0,0,0,.2-.067.7.7,0,0,0,.4-.378.714.714,0,0,0-.165-.8.653.653,0,0,0-.488-.165h-.671c-1.891,0-4.508.049-7.393.049a.6.6,0,0,0-.183,1.159.555.555,0,0,0,.2.03h1.708l3.325.03,2.239.049a3.573,3.573,0,0,1,.824.067,4.472,4.472,0,0,1-.824.061l-2.239.049-3.325.037h-1.708a1.043,1.043,0,0,1-.3-.043.915.915,0,0,1,.281-1.781c2.885,0,5.49,0,7.393.049h.671a.824.824,0,0,1,.61.238.848.848,0,0,1,.153.982.75.75,0,0,1-.494.384A.378.378,0,0,1,232.067,240Z" transform="translate(-161.874 -134.331)" fill="#263238"/>
        <circle id="Ellipse_107" data-name="Ellipse 107" cx="4.423" cy="4.423" r="4.423" transform="translate(61.714 106.202)" fill="#455a64"/>
        <path id="Path_8400" data-name="Path 8400" d="M232.446,212.67a3.7,3.7,0,0,1-.372.409,14.5,14.5,0,0,1-1.116,1.019,41.078,41.078,0,0,1-3.989,2.989,39.8,39.8,0,0,1-4.325,2.471c-.573.275-1.049.488-1.379.61a1.677,1.677,0,0,1-.525.177,18.3,18.3,0,0,1,1.8-1c1.116-.61,2.635-1.476,4.27-2.538a47.491,47.491,0,0,0,4.014-2.9A18.547,18.547,0,0,1,232.446,212.67Z" transform="translate(-160.972 -124.335)" fill="#fff"/>
        <path id="Path_8401" data-name="Path 8401" d="M229.2,214q-1.668,1.122-3.44,2.074a39.505,39.505,0,0,1-3.5,2.013A19.13,19.13,0,0,1,225.6,215.8,19.348,19.348,0,0,1,229.2,214Z" transform="translate(-161.565 -124.854)" fill="#fff"/>
        <path id="Path_8402" data-name="Path 8402" d="M232.468,245.64a1.652,1.652,0,0,1,.079.238,2.715,2.715,0,0,1,.043.726,5.149,5.149,0,0,1-.933,2.489,4.392,4.392,0,0,1-1.336,1.3,3.66,3.66,0,0,1-2.1.445,3.837,3.837,0,0,1-3.5-3.05,4.27,4.27,0,0,1,.86-3.66,4.331,4.331,0,0,1,2.946-1.507h0a5.24,5.24,0,0,1,2.129.561,3.435,3.435,0,0,1,1.257,1.128,3.4,3.4,0,0,1,.458.976,1.129,1.129,0,0,1,.073.372,6.509,6.509,0,0,0-.653-1.263,3.361,3.361,0,0,0-1.22-1.025,5.02,5.02,0,0,0-2.062-.519h0a4.069,4.069,0,0,0-2.739,1.434,3.983,3.983,0,0,0-.738,3.447,3.556,3.556,0,0,0,3.215,2.837,3.434,3.434,0,0,0,1.946-.384,4.172,4.172,0,0,0,1.281-1.22,5.325,5.325,0,0,0,.994-2.373A5.49,5.49,0,0,0,232.468,245.64Z" transform="translate(-162.482 -136.016)" fill="#263238"/>
        <g id="Group_1468" data-name="Group 1468" transform="translate(71.023 51.179)" opacity="0.3">
          <path id="Path_8403" data-name="Path 8403" d="M239.19,155.9a34.466,34.466,0,0,0,8.54-.647,15.214,15.214,0,0,0,7.448-3.489c-5.24,1.269-10.3,2.391-15.451,3.983" transform="translate(-239.19 -151.76)"/>
        </g>
        <path id="Path_8404" data-name="Path 8404" d="M191.362,153.47a21.773,21.773,0,0,0-4.545,4.2c-1.4,1.757-8.162,17.843-9.8,29.5s-1.861,31.11-1.861,31.11l13.054-.58,5.014-34.862-.281-2.989Z" transform="translate(-143.196 -101.248)" fill="#d16800"/>
        <path id="Path_8405" data-name="Path 8405" d="M175.9,231.8s2.855-1.989,8.107-1.275c4.709.61,6.4,3.111,6.4,3.111l-.787,5.49s-7.107-3.977-14.03-.555Z" transform="translate(-143.363 -131.237)" fill="#e0e0e0"/>
        <path id="Path_8406" data-name="Path 8406" d="M175.858,234.886s2.855-1.989,8.107-1.275c4.709.61,6.277,3.02,6.277,3.02l-.293,1.873S182.69,233.581,175.76,237Z" transform="translate(-143.43 -132.442)" fill="#fff"/>
        <path id="Path_8407" data-name="Path 8407" d="M196.14,164.32a6.033,6.033,0,0,1,.281.86c.159.561.372,1.379.61,2.385.506,2.019,1.153,4.825,1.83,7.93l1.793,7.93.561,2.4a4.8,4.8,0,0,1,.171.885,5.536,5.536,0,0,1-.293-.854c-.165-.561-.39-1.373-.653-2.379-.531-2.013-1.22-4.813-1.891-7.93s-1.287-5.85-1.745-7.93c-.214-.97-.4-1.781-.531-2.41a4.6,4.6,0,0,1-.134-.891Z" transform="translate(-151.378 -105.479)" fill="#263238"/>
        <path id="Path_8408" data-name="Path 8408" d="M126.713,239.46s-5.417,4.508-3.569,6.149,29.6,16.58,35.234,19.7c5.9,3.276,5.618,3.123,14.64,10.6l2.2-6.442s-19.014-8.863-23.363-12.353S126.713,239.46,126.713,239.46Z" transform="translate(-122.76 -134.783)" fill="#455a64"/>
        <path id="Path_8409" data-name="Path 8409" d="M203.981,282.874l2.721,1.7,4.233-6.96s2.1,5.386,1.281,7.54-6.338,11.316-7.412,13.695-1.885,4.27-1.885,4.27l-8.54-5.374a12.371,12.371,0,0,1,2.708-3.66C198.674,292.775,203.981,282.874,203.981,282.874Z" transform="translate(-150.691 -149.662)" fill="#e0e0e0"/>
        <path id="Path_8410" data-name="Path 8410" d="M203.868,282.671a1.974,1.974,0,0,1-.134.3l-.445.854c-.39.744-.97,1.83-1.732,3.19s-1.7,3.007-2.879,4.837c-.3.451-.61.921-.964,1.379a5.492,5.492,0,0,1-.61.677,8.211,8.211,0,0,0-.61.61,12.811,12.811,0,0,0-2.123,3.1l-.049-.177,8.54,5.356-.226.073,1.135-2.586c.39-.872.75-1.781,1.22-2.654,2.019-3.788,4.13-7.32,5.9-10.614.226-.415.439-.824.61-1.22a5.816,5.816,0,0,0,.5-1.22,7.125,7.125,0,0,0-.067-2.544,26.625,26.625,0,0,0-1.281-4.563h.214L206.6,284.4v.055l-.061-.037-1.983-1.281-.519-.342-.183-.128.171.091.525.3,2.062,1.22h-.091l4.191-6.985.122-.214.085.232a26.7,26.7,0,0,1,1.33,4.6,7.442,7.442,0,0,1,.079,2.66,6.3,6.3,0,0,1-.519,1.293q-.3.61-.61,1.22c-1.763,3.331-3.874,6.844-5.887,10.62-.458.86-.817,1.763-1.22,2.635l-1.135,2.58-.073.165-.153-.092-8.54-5.386-.1-.073.055-.11a13.208,13.208,0,0,1,2.184-3.16c.214-.22.458-.421.659-.61a5.678,5.678,0,0,0,.567-.641c.348-.451.659-.909.958-1.36,1.22-1.83,2.141-3.447,2.928-4.795l1.83-3.148.476-.83a1.864,1.864,0,0,1,.122-.22Z" transform="translate(-150.578 -149.459)" fill="#263238"/>
        <path id="Path_8411" data-name="Path 8411" d="M186.6,273.062l4.026,1.83a11.59,11.59,0,0,0-1.22-5.771c-1.165-2.4-2.916-5.49-2.916-5.49a5.081,5.081,0,0,1,.573-2.55l.4-.75a4.99,4.99,0,0,0-3.05-.659c-1.336.1-2.977-.079-4.27.159l-4.953.933s.342,4.636.342,6.527c0,.445-.342,5.588-.342,5.588l.378,2.2s6.277,5.49,7.119,5.35.842-.458.842-.458.909,1.293,1.616,1.293,1.94.714,2.2,0a4.286,4.286,0,0,0-.714-3.129,5.287,5.287,0,0,0-1.568-1.36A2.3,2.3,0,0,1,184,274.8l.049-4.27S186.518,271.329,186.6,273.062Z" transform="translate(-143.207 -142.655)" fill="#263238"/>
        <path id="Path_8412" data-name="Path 8412" d="M175.16,259.369V261.1l11.889-.293,1.165-2.013Z" transform="translate(-143.196 -142.322)" fill="#455a64"/>
      </g>
    </g>
  </g>
</svg>
