<svg xmlns="http://www.w3.org/2000/svg" xmlns:xlink="http://www.w3.org/1999/xlink" width="289" height="289" viewBox="0 0 289 289">
  <defs>
    <filter id="Ellipse_112" x="0" y="0" width="289" height="289" filterUnits="userSpaceOnUse">
      <feOffset dy="3" input="SourceAlpha"/>
      <feGaussianBlur stdDeviation="3" result="blur"/>
      <feFlood flood-color="#e2e2e2"/>
      <feComposite operator="in" in2="blur"/>
      <feComposite in="SourceGraphic"/>
    </filter>
    <clipPath id="clip-path">
      <path id="Path_9284" data-name="Path 9284" d="M0,0H65V33H0Z" transform="translate(0 0.328)" fill="#fff"/>
    </clipPath>
  </defs>
  <g id="Group_1585" data-name="Group 1585" transform="translate(-900.977 -3417.621)">
    <g transform="matrix(1, 0, 0, 1, 900.98, 3417.62)" filter="url(#Ellipse_112)">
      <g id="Ellipse_112-2" data-name="Ellipse 112" transform="translate(9 6)" fill="#fff4ea" stroke="#b45d0e" stroke-width="1">
        <circle cx="135.5" cy="135.5" r="135.5" stroke="none"/>
        <circle cx="135.5" cy="135.5" r="135" fill="none"/>
      </g>
    </g>
    <g id="Powerful-pana" transform="translate(888.801 3435.041)">
      <g id="freepik--Character--inject-485" transform="translate(38.5 37.734)">
        <path id="Path_9217" data-name="Path 9217" d="M164.112,117.53S178.943,149.3,167.78,178.9s-52.166,72.021-56.713,74.282c0,0,10.518-16.527-8.687-16.392s-28.849-4.542-30.915-11.275,9.345-28.48-1.149-33.7S47.065,188.153,38.5,180.906c0,0,19.976-1.663,34.723-3.168,15.481-1.579,62-33.98,65.759-57.815" transform="translate(-38.5 -80.243)" fill="#d16800"/>
        <g id="Group_1508" data-name="Group 1508" transform="translate(0 37.287)" opacity="0.4">
          <path id="Path_9218" data-name="Path 9218" d="M164.112,117.53S178.943,149.3,167.78,178.9s-52.166,72.021-56.713,74.282c0,0,10.518-16.527-8.687-16.392s-28.849-4.542-30.915-11.275,9.345-28.48-1.149-33.7S47.065,188.153,38.5,180.906c0,0,19.976-1.663,34.723-3.168,15.481-1.579,62-33.98,65.759-57.815" transform="translate(-38.5 -117.53)"/>
        </g>
        <path id="Path_9219" data-name="Path 9219" d="M158.8,234.62a2.094,2.094,0,0,1-.262.2l-.78.528c-.673.467-1.668,1.093-2.911,1.869-2.486,1.523-6,3.509-10.018,5.434a112.917,112.917,0,0,1-10.514,4.4c-1.374.491-2.491.869-3.271,1.107l-.9.276a1.493,1.493,0,0,1-.318.079,1.72,1.72,0,0,1,.3-.126l.883-.318c.771-.266,1.869-.668,3.243-1.182,2.729-1.019,6.458-2.537,10.472-4.458s7.523-3.878,10.032-5.364c1.252-.738,2.262-1.355,2.948-1.785l.8-.491A1.558,1.558,0,0,1,158.8,234.62Z" transform="translate(-87.154 -142.621)" fill="#263238"/>
        <path id="Path_9220" data-name="Path 9220" d="M184.863,272.32a3.245,3.245,0,0,1-.318.252l-.935.682c-.818.584-1.986,1.444-3.416,2.523-2.869,2.15-6.761,5.215-10.883,8.813s-7.682,7.046-10.2,9.6c-1.257,1.276-2.266,2.336-2.958,3.047l-.8.832a3.226,3.226,0,0,1-.294.28,3.264,3.264,0,0,1,.257-.313l.766-.864c.673-.748,1.663-1.808,2.906-3.1,2.486-2.589,6.037-6.074,10.159-9.663s8.046-6.654,10.943-8.771c1.444-1.061,2.631-1.9,3.462-2.463l.935-.645A1.871,1.871,0,0,1,184.863,272.32Z" transform="translate(-100.595 -162.705)" fill="#263238"/>
        <path id="Path_9221" data-name="Path 9221" d="M196.2,283.46a.932.932,0,0,1-.14.178l-.435.467c-.383.407-.935.981-1.654,1.678-1.4,1.4-3.411,3.271-5.715,5.257s-4.467,3.663-6.075,4.85c-.8.589-1.453,1.061-1.911,1.374l-.528.36a.882.882,0,0,1-.2.112,1.964,1.964,0,0,1,.168-.154l.5-.393,1.869-1.439c1.565-1.215,3.71-2.925,6-4.9s4.318-3.827,5.757-5.191l1.7-1.621.467-.439A.937.937,0,0,1,196.2,283.46Z" transform="translate(-113.641 -168.639)" fill="#263238"/>
        <path id="Path_9222" data-name="Path 9222" d="M201.982,444l-2.392,10.822-4.36,8.009a1.131,1.131,0,0,0,.523,1.575h0a1.131,1.131,0,0,0,1.037-.047c2.028-1.173,9.472-5.523,9.6-6.322.149-.935,3.271-11.247,3.271-11.247Z" transform="translate(-121.92 -254.163)" fill="#263238"/>
        <path id="Path_9223" data-name="Path 9223" d="M207.465,471.76a2.133,2.133,0,0,1-.411.322l-1.173.794L202,475.48l-3.878,2.607c-.467.3-.86.565-1.182.78a2.136,2.136,0,0,1-.467.257,2.431,2.431,0,0,1,.4-.336c.266-.206.654-.491,1.14-.846.967-.7,2.336-1.65,3.841-2.668s2.906-1.911,3.925-2.537c.509-.318.935-.57,1.215-.734a2.281,2.281,0,0,1,.477-.243Z" transform="translate(-122.655 -268.952)" fill="#455a64"/>
        <path id="Path_9224" data-name="Path 9224" d="M302.414,449.119l-.65,8.626s8.57,3.561,8.607,5.168H293.55l.467-14.163Z" transform="translate(-174.372 -256.694)" fill="#263238"/>
        <path id="Path_9225" data-name="Path 9225" d="M309.732,477.37a2.887,2.887,0,0,1-.645,0l-1.757-.056c-1.481-.047-3.528-.112-5.794-.14s-4.308-.028-5.794,0h-1.757a2.955,2.955,0,0,1-.645-.028,3.3,3.3,0,0,1,.645-.065c.411-.028,1.014-.056,1.757-.084,1.481-.051,3.533-.084,5.8-.051s4.318.117,5.8.21c.738.047,1.336.094,1.752.131a4.164,4.164,0,0,1,.64.084Z" transform="translate(-174.261 -271.707)" fill="#455a64"/>
        <path id="Path_9226" data-name="Path 9226" d="M214.975,263.31,200.12,355.04l13.644.822L234.82,263.31Z" transform="translate(-124.6 -157.905)" fill="#263238"/>
        <path id="Path_9227" data-name="Path 9227" d="M274.91,248.277l6.855,96.552H294.6V242.6Z" transform="translate(-164.442 -146.872)" fill="#263238"/>
        <path id="Path_9228" data-name="Path 9228" d="M302.109,351.067c-.07,0-1.1-19.116-2.313-42.7s-2.14-42.718-2.07-42.723,1.1,19.116,2.313,42.709S302.174,351.067,302.109,351.067Z" transform="translate(-176.595 -159.146)" fill="#455a64"/>
        <path id="Path_9229" data-name="Path 9229" d="M302.027,448.459h0l-.1.033c-.084,0-.215.047-.379.07-.332.056-.818.122-1.4.2-1.192.145-2.846.318-4.673.467-3.649.332-6.631.467-6.626.3h.519l1.4-.112,4.673-.407,4.673-.411C301.3,448.506,302.078,448.45,302.027,448.459Z" transform="translate(-171.869 -256.538)" fill="#263238"/>
        <path id="Path_9230" data-name="Path 9230" d="M231.145,267.93a1.55,1.55,0,0,1-.023.22c-.023.145-.051.36-.089.631-.084.565-.21,1.378-.369,2.42-.322,2.1-.808,5.14-1.43,8.878-1.238,7.5-3.042,17.859-5.229,29.261s-4.355,21.686-5.981,29.12c-.813,3.715-1.491,6.719-1.967,8.789-.238,1.028-.425,1.832-.556,2.388l-.15.617c-.037.14-.061.21-.061.21a.936.936,0,0,1,.037-.215c.037-.14.07-.36.126-.626.117-.556.29-1.36.509-2.392.467-2.093,1.093-5.1,1.892-8.808,1.584-7.439,3.738-17.728,5.911-29.13s4-21.7,5.3-29.228c.635-3.738,1.149-6.771,1.5-8.878.178-1.042.318-1.869.416-2.416.047-.266.084-.467.112-.626A1.781,1.781,0,0,1,231.145,267.93Z" transform="translate(-132.681 -160.366)" fill="#455a64"/>
        <path id="Path_9231" data-name="Path 9231" d="M216.2,447.723a2.414,2.414,0,0,1-.556.023l-1.509-.037-4.981-.2-4.976-.234-1.509-.07a4.882,4.882,0,0,1-.551-.033,9.915,9.915,0,0,1,2.065-.07c1.276,0,3.037.079,4.981.164s3.705.187,4.976.271c.64.042,1.154.079,1.509.112A2.736,2.736,0,0,1,216.2,447.723Z" transform="translate(-125.665 -255.803)" fill="#263238"/>
        <g id="Group_1509" data-name="Group 1509" transform="translate(89.655 106.919)" opacity="0.3">
          <path id="Path_9232" data-name="Path 9232" d="M230.37,269.5l.294-1.822,19.915-1.126-.752,3.322Z" transform="translate(-230.37 -266.55)"/>
        </g>
        <g id="Group_1510" data-name="Group 1510" transform="translate(110.468 105.933)" opacity="0.3">
          <path id="Path_9233" data-name="Path 9233" d="M275.475,268.748l-.565-3.336,19.691-.972,0,4.719Z" transform="translate(-274.91 -264.44)"/>
        </g>
        <path id="Path_9234" data-name="Path 9234" d="M234.65,114.653l13.9-3.093,11.682.481,10.187,3.238-5.794,29.055L242.449,146.3Z" transform="translate(-142.995 -77.063)" fill="#263238"/>
        <path id="Path_9235" data-name="Path 9235" d="M243.206,112.59l-14.626,3.238L235.893,155s-6.542,15.887-7.313,30.658l21.649-1.14s1.491-19.467.981-26.962-.85-20.607-.85-20.607Z" transform="translate(-139.761 -77.612)" fill="#d16800"/>
        <path id="Path_9236" data-name="Path 9236" d="M170.351,138.758a48.728,48.728,0,0,1,10.14-7.738c3.818-2,11.294-4.5,14.266-7.715a19.16,19.16,0,0,0,2.8-3.785l3.453,18.448L186.336,140.3s2.182,1.192.822,2.042l9.2,10.747-6.3,11.887S169.5,147.276,170.351,138.758Z" transform="translate(-108.727 -81.304)" fill="#d16800"/>
        <path id="Path_9237" data-name="Path 9237" d="M281.585,112.59a33.126,33.126,0,0,1,5.252,1.093c3.112,1.028,8.374,2.145,8.374,2.145l-7.476,39.685s10.163,12.56,7.476,27.929c0,0-14.042,1.107-20.4,1.075l-.084-48.288s5.322-6.775,6-13.42S281.585,112.59,281.585,112.59Z" transform="translate(-164.347 -77.612)" fill="#d16800"/>
        <path id="Path_9238" data-name="Path 9238" d="M314.635,119.52s8.378,8.677,12.99,11.953,10.416,8.177,10.416,10.785a16.693,16.693,0,0,1-.986,4.775,9.627,9.627,0,0,1-1.4,2.687c-2.117,2.8-7.724,10.121-11.429,13.593l-9.345-9.845,8.878-9.813s-11.915-4.916-12.5-6.252S314.635,119.52,314.635,119.52Z" transform="translate(-183.771 -81.304)" fill="#d16800"/>
        <path id="Path_9239" data-name="Path 9239" d="M259.117,142.161a1.5,1.5,0,0,1-.215-.192l-.584-.584-2.145-2.206-7.271-7.593-.042-.047v-.065l.963-4.037c.145-.6.285-1.2.425-1.785l.117.15H245.59l.047-.15c1.131-3.425,2.1-6.36,2.8-8.462.346-1.023.621-1.841.822-2.43.094-.266.168-.467.229-.64a1.122,1.122,0,0,1,.089-.22,1.4,1.4,0,0,1-.056.229c-.047.168-.112.383-.192.654l-.748,2.434c-.678,2.112-1.617,5.056-2.71,8.49l-.107-.15h4.785l-.033.15c-.14.589-.285,1.182-.425,1.785q-.5,2.1-.967,4.037l-.033-.107,7.21,7.654,2.093,2.257.556.617A1.455,1.455,0,0,1,259.117,142.161Z" transform="translate(-148.823 -78.31)" fill="#263238"/>
        <path id="Path_9240" data-name="Path 9240" d="M274.661,211.042c-.065,0-.154-10.892-.2-24.326s-.023-24.331.042-24.336.154,10.892.2,24.336S274.731,211.042,274.661,211.042Z" transform="translate(-164.193 -104.136)" fill="#263238"/>
        <path id="Path_9241" data-name="Path 9241" d="M284.648,113.35a1.269,1.269,0,0,1,.066.262c.033.2.079.467.14.766.117.7.28,1.663.467,2.864l1.579,9.78.023.159h-.159l-2.579-.346.126-.173.528,1.075c.355.724.706,1.439,1.042,2.117l.033.07-.047.056-6.794,8.486-2.037,2.509-.561.673a1.161,1.161,0,0,1-.206.22,2.05,2.05,0,0,1,.173-.248l.523-.7,1.981-2.556,6.743-8.56v.131c-.332-.678-.682-1.4-1.042-2.117l-.561-1.084-.1-.206.229.028,2.579.355-.131.136c-.6-3.911-1.121-7.327-1.5-9.813-.173-1.206-.313-2.177-.416-2.874q-.061-.467-.1-.771A1.472,1.472,0,0,1,284.648,113.35Z" transform="translate(-165.167 -78.017)" fill="#263238"/>
        <path id="Path_9242" data-name="Path 9242" d="M267.735,232c-.5-.6-1.463-.935-1.93-.327h0a1.5,1.5,0,0,0-.467,1.645,1.453,1.453,0,0,0,1.953.71,1.4,1.4,0,0,0,.444-2.028Z" transform="translate(-159.3 -140.879)" fill="#263238"/>
        <path id="Path_9243" data-name="Path 9243" d="M268.3,205c-.5-.607-1.463-.958-1.93-.327h0a1.509,1.509,0,0,0-.467,1.645,1.449,1.449,0,0,0,1.953.71A1.4,1.4,0,0,0,268.3,205Z" transform="translate(-159.6 -126.487)" fill="#263238"/>
        <path id="Path_9244" data-name="Path 9244" d="M339.716,202.78c-.5-.6-1.463-.935-1.93-.327h0a1.5,1.5,0,0,0-.467,1.645,1.448,1.448,0,0,0,1.953.71,1.4,1.4,0,0,0,.444-2.028Z" transform="translate(-197.647 -125.312)" fill="#263238"/>
        <path id="Path_9245" data-name="Path 9245" d="M209.486,205.246c-.5-.607-1.463-.958-1.93-.327h0a1.5,1.5,0,0,0-.467,1.645,1.449,1.449,0,0,0,1.953.71,1.4,1.4,0,0,0,.444-2.028Z" transform="translate(-128.269 -126.62)" fill="#263238"/>
        <path id="Path_9246" data-name="Path 9246" d="M198.034,167.23a12.149,12.149,0,0,0-3.7-1.047,12.318,12.318,0,0,0-3.818.393,3.5,3.5,0,0,1,1.07-.411,8.308,8.308,0,0,1,5.458.467A3.449,3.449,0,0,1,198.034,167.23Z" transform="translate(-119.485 -106.014)" fill="#263238"/>
        <path id="Path_9247" data-name="Path 9247" d="M190.52,163.142a2.861,2.861,0,0,1,.935-.4,8.332,8.332,0,0,1,2.463-.35,8.491,8.491,0,0,1,2.462.388,3.271,3.271,0,0,1,.935.416,14.741,14.741,0,0,0-3.406-.561A14.113,14.113,0,0,0,190.52,163.142Z" transform="translate(-119.485 -104.141)" fill="#263238"/>
        <path id="Path_9248" data-name="Path 9248" d="M232.142,141.257a5.776,5.776,0,0,1-.2-.78l-.467-2.14c-.439-1.836-1.028-4.308-1.678-7.042s-1.173-5.261-1.463-7.1c-.15-.935-.252-1.659-.3-2.173a4.673,4.673,0,0,1-.061-.8,5.581,5.581,0,0,1,.154.79c.079.509.21,1.248.378,2.159.332,1.822.878,4.322,1.533,7.07s1.238,5.247,1.607,7.065c.187.907.327,1.645.407,2.154A4.969,4.969,0,0,1,232.142,141.257Z" transform="translate(-139.436 -82.209)" fill="#263238"/>
        <path id="Path_9249" data-name="Path 9249" d="M313.385,121.44a4.754,4.754,0,0,1-.1.822c-.089.565-.21,1.313-.36,2.224-.313,1.911-.734,4.49-1.2,7.336s-.935,5.453-1.271,7.322c-.178.935-.327,1.691-.439,2.215a4.812,4.812,0,0,1-.2.8,6.338,6.338,0,0,1,.084-.836c.093-.565.215-1.313.36-2.224.313-1.916.738-4.49,1.2-7.336s.935-5.453,1.271-7.327c.178-.935.327-1.687.435-2.21a6.073,6.073,0,0,1,.215-.79Z" transform="translate(-183.04 -82.326)" fill="#263238"/>
        <path id="Path_9250" data-name="Path 9250" d="M344.272,160.71c0,.042-.519,0-1.341.042a4.785,4.785,0,0,0-2.939,1.042,6.454,6.454,0,0,0-1.645,2.7,11.313,11.313,0,0,1-.467,1.262,5.869,5.869,0,0,1,.308-1.318,6.1,6.1,0,0,1,1.649-2.827,3.954,3.954,0,0,1,1.621-.841,5.924,5.924,0,0,1,1.472-.187,7.48,7.48,0,0,1,.991.056A.934.934,0,0,1,344.272,160.71Z" transform="translate(-197.988 -103.177)" fill="#263238"/>
        <path id="Path_9251" data-name="Path 9251" d="M346.677,165.4c0,.042-.514,0-1.336.056a12.177,12.177,0,0,0-6.018,2,11.5,11.5,0,0,1-1.107.752c-.028-.033.075-.107.243-.266a7.68,7.68,0,0,1,.766-.631,10.71,10.71,0,0,1,6.112-2.033,7.73,7.73,0,0,1,.986.047A.976.976,0,0,1,346.677,165.4Z" transform="translate(-198.164 -105.68)" fill="#263238"/>
        <path id="Path_9252" data-name="Path 9252" d="M248.151,204.418a9.212,9.212,0,0,1-1.579-.551,9.045,9.045,0,0,1-1.551-.617,4.3,4.3,0,0,1,1.635.388A4.439,4.439,0,0,1,248.151,204.418Z" transform="translate(-148.519 -125.909)" fill="#263238"/>
        <path id="Path_9253" data-name="Path 9253" d="M247.9,195.7c.037.056-1.056.8-2.285,1.869s-2.135,2.028-2.187,1.977a10.233,10.233,0,0,1,2.028-2.163A10.076,10.076,0,0,1,247.9,195.7Z" transform="translate(-147.672 -121.887)" fill="#263238"/>
        <path id="Path_9254" data-name="Path 9254" d="M270.614,264.213c0,.07-9.406.617-21.027,1.229s-21.027,1.056-21.027.986,9.406-.617,21.027-1.229S270.61,264.147,270.614,264.213Z" transform="translate(-139.75 -158.382)" fill="#263238"/>
        <g id="Group_1511" data-name="Group 1511" transform="translate(139.316 56.732)" opacity="0.3">
          <path id="Path_9255" data-name="Path 9255" d="M336.869,164.511a4.472,4.472,0,0,1,1.645-5.018,1.551,1.551,0,0,1,1.131-.341.706.706,0,0,1,.579.883,1.322,1.322,0,0,1-.57.5,4.047,4.047,0,0,0-1.533,2,11.88,11.88,0,0,0-.584,2.486" transform="translate(-336.649 -159.144)"/>
        </g>
        <g id="Group_1512" data-name="Group 1512" transform="translate(96.926 47.351)" opacity="0.3">
          <path id="Path_9256" data-name="Path 9256" d="M245.93,139.079c.084.252,1.757.444,2.075,1.135a3.477,3.477,0,0,1,0,2.234,6.607,6.607,0,0,0-.341,2.243c.14,1.355,1.252,2.378,2.29,3.271,2.9,2.472,6.425,5.14,9.345,7.617-2.589-3.084-5.962-6.261-8.813-9.065a4.009,4.009,0,0,1-1.056-1.4,3.921,3.921,0,0,1,.131-2.206q.365-1.435.738-2.874c.061-.248.206-.664.238-.8a5.957,5.957,0,0,0-1.047-.089,26.174,26.174,0,0,0-3.561-.028" transform="translate(-245.93 -139.069)"/>
        </g>
        <path id="Path_9257" data-name="Path 9257" d="M211.49,198.952a1.633,1.633,0,0,1,.15-.383c.112-.238.285-.579.509-1a26.348,26.348,0,0,1,2.009-3.1,26.027,26.027,0,0,1,2.416-2.8c.336-.332.617-.593.818-.766s.313-.262.327-.248a13.823,13.823,0,0,1-1.019,1.135c-.635.692-1.486,1.668-2.336,2.8s-1.565,2.238-2.051,3.037A12.939,12.939,0,0,1,211.49,198.952Z" transform="translate(-130.657 -119.2)" fill="#263238"/>
        <path id="Path_9258" data-name="Path 9258" d="M210.8,183.64c.028.033-.509.551-1.313,1.449a28.639,28.639,0,0,0-5.032,7.9c-.467,1.107-.72,1.813-.757,1.8a2.621,2.621,0,0,1,.126-.514c.093-.327.252-.79.467-1.355a24.383,24.383,0,0,1,5.065-7.944c.421-.439.771-.776,1.028-1a2.72,2.72,0,0,1,.416-.341Z" transform="translate(-126.507 -115.462)" fill="#263238"/>
        <path id="Path_9259" data-name="Path 9259" d="M336.885,192.982a2.307,2.307,0,0,1-.374-.383l-.967-1.075c-.822-.9-1.986-2.131-3.3-3.448s-2.551-2.477-3.458-3.294l-1.079-.967a2.3,2.3,0,0,1-.383-.374,2.066,2.066,0,0,1,.444.3c.276.206.664.514,1.131.911.934.79,2.191,1.934,3.514,3.271s2.472,2.57,3.271,3.509c.4.467.706.855.935,1.126A2.209,2.209,0,0,1,336.885,192.982Z" transform="translate(-192.363 -115.356)" fill="#263238"/>
        <path id="Path_9260" data-name="Path 9260" d="M219.488,196.68l3.061,1.649,6.789,1.925s-1.4,9.289-2.285,10.084-10.8-7.551-10.8-7.551Z" transform="translate(-133.193 -122.409)" fill="#ffbe9d"/>
        <path id="Path_9261" data-name="Path 9261" d="M312.449,195.49l-2.21,1.72-6.369,3.033s2.944,8.92,3.934,9.556,9.392-9.243,9.392-9.243Z" transform="translate(-179.87 -121.775)" fill="#ffbe9d"/>
        <path id="Path_9262" data-name="Path 9262" d="M251.192,52c-.089,2.392-3.271,3.841-3.234,6.233,0,1.023.654,1.949.78,2.967.168,1.369-.6,2.659-.883,4.009a7.216,7.216,0,0,0,3.439,7.243,12.292,12.292,0,0,0,8.229,1.43" transform="translate(-149.967 -45.334)" fill="#263238"/>
        <path id="Path_9263" data-name="Path 9263" d="M285.3,50.78a4.9,4.9,0,0,0,1.607,3.392,6.658,6.658,0,0,1,1.986,3.252c.327,2.257-1.869,4.35-1.425,6.589.243,1.2,1.224,2.159,1.4,3.369a4.107,4.107,0,0,1-1.234,3.205c-.766.869-1.678.757-2.364,1.72a9.691,9.691,0,0,1-2.981,2.649c-2.477,1.36-5.448-.6-6.645-.935" transform="translate(-164.837 -44.684)" fill="#263238"/>
        <path id="Path_9264" data-name="Path 9264" d="M253.684,45.8a2.936,2.936,0,0,1,2.126-2.491,16.322,16.322,0,0,0,3.271-1.238,15.526,15.526,0,0,0,2.154-2.206,7.173,7.173,0,0,1,12.056,3.271,4.692,4.692,0,0,1-1.177,4.715c-1.514,1.28-3.762,1-5.705.6s-4.159-.78-5.761.36a8.362,8.362,0,0,0-2.135,2.846,5.066,5.066,0,0,1-2.481,2.481c-1.131.388-2.663-.28-2.71-1.477" transform="translate(-152.941 -37.734)" fill="#263238"/>
        <path id="Path_9265" data-name="Path 9265" d="M261.938,52.461a1.949,1.949,0,0,0-1.738,1.981h0l1.164,26.293c.047,3.1,4.589,4.85,7.916,4.771h0c3.355-.075,3.467-1.724,3.5-4.673.07-4.939.065-6.789.07-6.761s4.238-.715,5.107-6.252A59.515,59.515,0,0,0,278,56.858c-.215-3.318-2.425-7.388-5.733-7.032Z" transform="translate(-156.605 -44.164)" fill="#ffbe9d"/>
        <path id="Path_9266" data-name="Path 9266" d="M292.926,70.949a.706.706,0,0,1-.682.715.677.677,0,0,1-.734-.635.71.71,0,0,1,.7-.72.678.678,0,0,1,.72.64Z" transform="translate(-173.286 -55.086)" fill="#263238"/>
        <path id="Path_9267" data-name="Path 9267" d="M293,69.088c-.089.089-.631-.308-1.4-.3s-1.322.388-1.4.294.047-.21.294-.388a1.934,1.934,0,0,1,1.121-.35,1.9,1.9,0,0,1,1.107.355C292.959,68.877,293.039,69.046,293,69.088Z" transform="translate(-172.572 -54.039)" fill="#263238"/>
        <path id="Path_9268" data-name="Path 9268" d="M277.056,70.947a.706.706,0,0,1-.682.715.677.677,0,0,1-.734-.635.71.71,0,0,1,.682-.72.678.678,0,0,1,.734.64Z" transform="translate(-164.831 -55.085)" fill="#263238"/>
        <path id="Path_9269" data-name="Path 9269" d="M276.919,69.433c-.089.089-.626-.3-1.4-.3s-1.327.388-1.4.294.047-.206.29-.388a1.93,1.93,0,0,1,1.126-.346,1.869,1.869,0,0,1,1.107.35C276.881,69.223,276.961,69.391,276.919,69.433Z" transform="translate(-164.007 -54.225)" fill="#263238"/>
        <path id="Path_9270" data-name="Path 9270" d="M285.678,75.134a5.294,5.294,0,0,1,1.243-.229c.2,0,.379-.056.411-.192a1,1,0,0,0-.131-.579c-.187-.467-.379-.963-.579-1.481a23.673,23.673,0,0,1-1.3-3.883,23.832,23.832,0,0,1,1.612,3.766c.192.523.379,1.019.556,1.5a1.131,1.131,0,0,1,.1.766.467.467,0,0,1-.322.285,1.281,1.281,0,0,1-.327.047A5.182,5.182,0,0,1,285.678,75.134Z" transform="translate(-169.981 -54.267)" fill="#263238"/>
        <path id="Path_9271" data-name="Path 9271" d="M278.82,99.5a14.093,14.093,0,0,1-7.42-1.963,7.336,7.336,0,0,0,7.346,3.271Z" transform="translate(-162.573 -69.594)" fill="#eb996e"/>
        <path id="Path_9272" data-name="Path 9272" d="M282.814,85.741a1.4,1.4,0,0,0-1.234-.509,1.28,1.28,0,0,0-.869.467.79.79,0,0,0-.056.935.935.935,0,0,0,1,.252,2.907,2.907,0,0,0,.963-.607.837.837,0,0,0,.215-.229.248.248,0,0,0,0-.28" transform="translate(-167.436 -63.033)" fill="#d16800"/>
        <path id="Path_9273" data-name="Path 9273" d="M281.157,83.53c.126,0,.131.822.841,1.4s1.593.467,1.6.607-.2.164-.565.173a2.051,2.051,0,0,1-1.336-.467,1.79,1.79,0,0,1-.65-1.182C281.022,83.75,281.1,83.525,281.157,83.53Z" transform="translate(-167.709 -62.131)" fill="#263238"/>
        <path id="Path_9274" data-name="Path 9274" d="M276.9,66.781c-.075.21-.836.112-1.734.22s-1.621.36-1.738.173c-.056-.089.07-.285.364-.467a3,3,0,0,1,2.645-.3C276.766,66.519,276.93,66.682,276.9,66.781Z" transform="translate(-163.644 -52.914)" fill="#263238"/>
        <path id="Path_9275" data-name="Path 9275" d="M292.635,64.312c-.131.178-.659,0-1.29,0s-1.173.117-1.294-.061c-.056-.089.028-.266.262-.43a1.869,1.869,0,0,1,2.084.061C292.621,64.051,292.7,64.219,292.635,64.312Z" transform="translate(-172.499 -51.478)" fill="#263238"/>
        <path id="Path_9276" data-name="Path 9276" d="M257.515,69.655c1.523.308,1.659-.467,2.8-1.523a5.009,5.009,0,0,0,1.533-4.205c-.173-1.36-.907-2.743-.435-4.033.621-1.7,3.009-2.224,3.64-3.92.369-.991.037-2.145.467-3.112a3.6,3.6,0,0,1,2.28-1.766,9.588,9.588,0,0,0,2.715-1.178,2.126,2.126,0,0,0,.762-2.607,52.4,52.4,0,0,0-12.1,2.939A4.573,4.573,0,0,0,256.8,51.8a5.192,5.192,0,0,0-.491,2.967q.346,7.476.692,14.915" transform="translate(-154.524 -42.835)" fill="#263238"/>
        <path id="Path_9277" data-name="Path 9277" d="M241.755,66.613a4.248,4.248,0,0,0-8.042-1.472,6.032,6.032,0,0,0,.22,5.056c.85,1.869,2.6,3.607,4.673,3.514a4.865,4.865,0,0,0,4.075-3.663,14.245,14.245,0,0,0,.1-5.8" transform="translate(-142.25 -51.068)" fill="#263238"/>
        <path id="Path_9278" data-name="Path 9278" d="M248.273,75.246a1.088,1.088,0,0,1-.29-.322,2.692,2.692,0,0,1-.411-1.107,5.228,5.228,0,0,1,.051-1.752c.112-.65.332-1.332.467-2.056a5.183,5.183,0,0,0,.121-2.051c-.112-.617-.407-1.14-.533-1.626a2.094,2.094,0,0,1-.033-1.182c.089-.276.206-.388.215-.378a3.11,3.11,0,0,0-.121.4,2.2,2.2,0,0,0,.1,1.107,14.714,14.714,0,0,1,.589,1.635,5.178,5.178,0,0,1-.1,2.145c-.164.738-.388,1.4-.509,2.047a5.523,5.523,0,0,0-.1,1.687A3.649,3.649,0,0,0,248.273,75.246Z" transform="translate(-149.852 -52.136)" fill="#455a64"/>
        <path id="Path_9279" data-name="Path 9279" d="M240.8,72.994a2.729,2.729,0,0,1-.85.832,4.869,4.869,0,0,1-5.472.093,2.734,2.734,0,0,1-.874-.8c.028-.033.346.294.967.654a5.07,5.07,0,0,0,5.285-.093C240.441,73.284,240.749,72.943,240.8,72.994Z" transform="translate(-142.435 -56.515)" fill="#455a64"/>
        <path id="Path_9280" data-name="Path 9280" d="M242.137,74.809a2.5,2.5,0,0,1-.467.869,6.037,6.037,0,0,1-4.014,2.416,2.467,2.467,0,0,1-.986,0,8.876,8.876,0,0,1,.958-.178,6.967,6.967,0,0,0,2.154-.841,7.042,7.042,0,0,0,1.752-1.5C241.913,75.118,242.1,74.79,242.137,74.809Z" transform="translate(-144.071 -57.484)" fill="#455a64"/>
        <path id="Path_9281" data-name="Path 9281" d="M250.63,65.625s-.023,0-.061-.065a1.767,1.767,0,0,1-.154-.224,2.9,2.9,0,0,1-.365-.967,3.392,3.392,0,0,1,.089-1.635A3.121,3.121,0,0,1,251.429,61a7.8,7.8,0,0,0,2.056-1.523,1.664,1.664,0,0,0,.3-1.3,7.291,7.291,0,0,0-.467-1.435,4.126,4.126,0,0,1,.07-3.308,3.6,3.6,0,0,1,1.126-1.4,4.313,4.313,0,0,1,1.7-.706c.6-.136,1.2-.215,1.752-.383a3.435,3.435,0,0,0,1.453-.808,2.421,2.421,0,0,0,.64-1.453,12.264,12.264,0,0,1,.257-1.607,5.528,5.528,0,0,1,1.5-2.621,4.4,4.4,0,0,1,2.336-1.168,3.435,3.435,0,0,1,3.378,1.4,2.86,2.86,0,0,1,.43.935,1.348,1.348,0,0,1,.056.355,3.5,3.5,0,0,0-.565-1.238,3.331,3.331,0,0,0-1.22-1,3.388,3.388,0,0,0-2.056-.276,4.238,4.238,0,0,0-2.238,1.14,5.4,5.4,0,0,0-1.4,2.533,12.487,12.487,0,0,0-.252,1.6,2.692,2.692,0,0,1-.7,1.589,3.687,3.687,0,0,1-1.57.864c-.579.178-1.182.257-1.766.392a4.205,4.205,0,0,0-1.612.659,3.388,3.388,0,0,0-1.051,1.3,3.921,3.921,0,0,0-.075,3.126,7.223,7.223,0,0,1,.467,1.481,1.869,1.869,0,0,1-.346,1.453,7.7,7.7,0,0,1-2.121,1.547,2.986,2.986,0,0,0-1.257,1.631,3.317,3.317,0,0,0-.126,1.575A3.631,3.631,0,0,0,250.63,65.625Z" transform="translate(-151.167 -40.665)" fill="#455a64"/>
        <path id="Path_9282" data-name="Path 9282" d="M252.066,48.093a.631.631,0,0,1-.07-.257,1.192,1.192,0,0,1,.187-.734,1.869,1.869,0,0,1,.935-.766,2.916,2.916,0,0,1,1.589-.051c.579.112,1.182.341,1.841.467a2.449,2.449,0,0,0,2-.313,4.517,4.517,0,0,0,1.182-1.991,8.316,8.316,0,0,1,1.28-2.28,7.664,7.664,0,0,1,4.205-2.71,4.346,4.346,0,0,1,2.21.056,3.462,3.462,0,0,1,1.6,1.07,2.551,2.551,0,0,1,.612,1.467,2.459,2.459,0,0,1-.182,1.187,1.87,1.87,0,0,1-.416.631.734.734,0,0,1-.206.168,2.65,2.65,0,0,0,.533-.832,2.458,2.458,0,0,0,.136-1.14A2.411,2.411,0,0,0,268.9,40.7a3.327,3.327,0,0,0-1.547-.967,4.271,4.271,0,0,0-2.107-.033,7.528,7.528,0,0,0-4.047,2.645,8.035,8.035,0,0,0-1.257,2.191,4.616,4.616,0,0,1-1.271,2.084,2.089,2.089,0,0,1-1.093.411,3.761,3.761,0,0,1-1.084-.075c-.682-.145-1.276-.383-1.836-.5a2.827,2.827,0,0,0-1.509,0,1.8,1.8,0,0,0-.892.687,1.182,1.182,0,0,0-.215.682C252.048,48,252.08,48.088,252.066,48.093Z" transform="translate(-152.234 -38.59)" fill="#455a64"/>
      </g>
    </g>
    <g id="Mask_Group_68" data-name="Mask Group 68" transform="translate(1087.477 3436.33)" clip-path="url(#clip-path)">
      <path id="Path_9283" data-name="Path 9283" d="M31,0C48.121,0,62,14.1,62,31.5S48.121,63,31,63,1.326,50.741,1.326,33.344,13.879,0,31,0Z" transform="translate(2 1.328)" fill="#fff"/>
    </g>
    <g id="freepik--Stopwatch--inject-4" transform="translate(1085.572 3425.06)">
      <path id="Path_8797" data-name="Path 8797" d="M55.237,119.184H48.58a39.5,39.5,0,0,1,10.289-26C65.75,85.553,74.682,81.35,84,81.35c19.039,0,32.339,13.9,32.339,33.809h-6.643c0-16.233-10.321-27.139-25.682-27.139C68.953,88.007,55.237,102.865,55.237,119.184Z" transform="translate(-48.58 -71.564)" fill="#d16800"/>
      <path id="Path_8799" data-name="Path 8799" d="M79.021,127.256c.914.585,1.531,1.183,1.43,1.343s-.914-.164-1.828-.717-1.521-1.16-1.425-1.343S78.13,126.676,79.021,127.256Z" transform="translate(-64.118 -96.079)" fill="#263238"/>
      <path id="Path_8800" data-name="Path 8800" d="M104.931,104.264c.434.973.649,1.828.457,1.9s-.681-.635-1.147-1.59-.681-1.828-.457-1.9S104.5,103.277,104.931,104.264Z" transform="translate(-78.514 -83.142)" fill="#263238"/>
      <path id="Path_8801" data-name="Path 8801" d="M138.51,101.214c-.265,1.033-.626,1.827-.8,1.791s-.142-.914.087-1.96.585-1.828.8-1.786S138.775,100.186,138.51,101.214Z" transform="translate(-96.925 -81.289)" fill="#263238"/>
      <path id="Path_8802" data-name="Path 8802" d="M164.577,120.875c-.886.585-1.686.941-1.791.795s.512-.777,1.371-1.4,1.663-.978,1.791-.795S165.464,120.286,164.577,120.875Z" transform="translate(-110.601 -92.243)" fill="#263238"/>
      <path id="Path_8803" data-name="Path 8803" d="M173.363,153.558a5.616,5.616,0,0,1-1.923-.174,5.654,5.654,0,0,1,1.923-.2,4.849,4.849,0,0,1,1.928.174A4.823,4.823,0,0,1,173.363,153.558Z" transform="translate(-115.307 -110.58)" fill="#263238"/>
      <path id="Path_8804" data-name="Path 8804" d="M107.085,138.415a1.453,1.453,0,0,1-.914-.315l-11.189-8.681a1.484,1.484,0,1,1,1.828-2.339l10.207,7.913,14.095-12.943a1.481,1.481,0,1,1,2.015,2.17l-15.018,13.8A1.489,1.489,0,0,1,107.085,138.415Z" transform="translate(-73.472 -93.454)" fill="#d16800"/>
      <rect id="Rectangle_1185" data-name="Rectangle 1185" width="13.551" height="5.368" rx="0.79" transform="translate(28.012 0)" fill="#d16800"/>
      <rect id="Rectangle_1186" data-name="Rectangle 1186" width="7.004" height="6.351" transform="translate(31.283 2.686)" fill="#d16800"/>
      <rect id="Rectangle_1187" data-name="Rectangle 1187" width="9.553" height="5.803" rx="1.29" transform="matrix(0.628, -0.778, 0.778, 0.628, 0.244, 23.403)" fill="#d16800"/>
      <path id="Path_8805" data-name="Path 8805" d="M123.553,71.517c0,.078-2.874.137-6.4.137s-6.4-.059-6.4-.137,2.869-.137,6.4-.137S123.553,71.444,123.553,71.517Z" transform="translate(-82.351 -66.149)" fill="#263238"/>
      <path id="Path_8806" data-name="Path 8806" d="M56.007,111.769a12.627,12.627,0,0,1-2.239-1.558,12.327,12.327,0,0,1-2.111-1.722A7.948,7.948,0,0,1,54,109.9,7.965,7.965,0,0,1,56.007,111.769Z" transform="translate(-50.25 -86.299)" fill="#263238"/>
      <path id="Path_8807" data-name="Path 8807" d="M58.441,108.179a12.625,12.625,0,0,1-2.239-1.558,12.478,12.478,0,0,1-2.115-1.722,7.9,7.9,0,0,1,2.348,1.416A8.093,8.093,0,0,1,58.441,108.179Z" transform="translate(-51.57 -84.349)" fill="#263238"/>
      <path id="Path_8808" data-name="Path 8808" d="M61.438,105.169a12.887,12.887,0,0,1-2.234-1.558,13.455,13.455,0,0,1-2.115-1.722,8.094,8.094,0,0,1,2.344,1.416A8.092,8.092,0,0,1,61.438,105.169Z" transform="translate(-53.201 -82.714)" fill="#263238"/>
      <path id="Path_8809" data-name="Path 8809" d="M64.341,101.579a12.816,12.816,0,0,1-2.239-1.558A11.96,11.96,0,0,1,60,98.3a7.785,7.785,0,0,1,2.344,1.416A8.12,8.12,0,0,1,64.341,101.579Z" transform="translate(-54.779 -80.764)" fill="#263238"/>
      <rect id="Rectangle_1188" data-name="Rectangle 1188" width="9.553" height="5.802" rx="1.29" transform="translate(60.93 11.885) rotate(47.45)" fill="#d16800"/>
      <path id="Path_8810" data-name="Path 8810" d="M175.666,92.684a13.834,13.834,0,0,1,1.873-1.983,11.015,11.015,0,0,1,2.015-1.828,7.715,7.715,0,0,1-1.745,2.111A8.081,8.081,0,0,1,175.666,92.684Z" transform="translate(-117.6 -75.648)" fill="#263238"/>
      <path id="Path_8811" data-name="Path 8811" d="M178.855,95.624a13.63,13.63,0,0,1,1.869-1.983,10.785,10.785,0,0,1,2.019-1.828A7.822,7.822,0,0,1,181,93.925,8,8,0,0,1,178.855,95.624Z" transform="translate(-119.332 -77.244)" fill="#263238"/>
      <path id="Path_8812" data-name="Path 8812" d="M181.385,99.034a13.628,13.628,0,0,1,1.869-1.983,10.785,10.785,0,0,1,2.019-1.828,7.81,7.81,0,0,1-1.75,2.106A8.186,8.186,0,0,1,181.385,99.034Z" transform="translate(-120.706 -79.096)" fill="#263238"/>
      <path id="Path_8813" data-name="Path 8813" d="M184.5,102.464a13.627,13.627,0,0,1,1.869-1.983,10.785,10.785,0,0,1,2.019-1.828,7.789,7.789,0,0,1-1.75,2.111A8.471,8.471,0,0,1,184.5,102.464Z" transform="translate(-122.4 -80.959)" fill="#263238"/>
      <path id="Path_8814" data-name="Path 8814" d="M113.6,65.375a9.344,9.344,0,0,1-.192-2.645,9.39,9.39,0,0,1,.192-2.65,9.258,9.258,0,0,1,.2,2.65A9.023,9.023,0,0,1,113.6,65.375Z" transform="translate(-83.79 -60.012)" fill="#263238"/>
      <path id="Path_8815" data-name="Path 8815" d="M119.1,65.375a9.342,9.342,0,0,1-.192-2.645,9.389,9.389,0,0,1,.192-2.65,9.363,9.363,0,0,1,.192,2.65A9.317,9.317,0,0,1,119.1,65.375Z" transform="translate(-86.777 -60.012)" fill="#263238"/>
      <path id="Path_8816" data-name="Path 8816" d="M124.592,65.375a9.343,9.343,0,0,1-.192-2.645,9.389,9.389,0,0,1,.192-2.65,9.363,9.363,0,0,1,.192,2.65A9.122,9.122,0,0,1,124.592,65.375Z" transform="translate(-89.759 -60.012)" fill="#263238"/>
      <path id="Path_8817" data-name="Path 8817" d="M130.092,65.375a9.147,9.147,0,0,1-.192-2.645,9.193,9.193,0,0,1,.192-2.65,9.169,9.169,0,0,1,.192,2.65A9.319,9.319,0,0,1,130.092,65.375Z" transform="translate(-92.746 -60.012)" fill="#263238"/>
      <path id="Path_8818" data-name="Path 8818" d="M135.582,65.375a9.346,9.346,0,0,1-.192-2.645,9.392,9.392,0,0,1,.192-2.65,9.361,9.361,0,0,1,.192,2.65A10.185,10.185,0,0,1,135.582,65.375Z" transform="translate(-95.728 -60.012)" fill="#263238"/>
      <circle id="Ellipse_111" data-name="Ellipse 111" cx="3.354" cy="3.354" r="3.354" transform="translate(29.215 42.973) rotate(-45)" fill="#d16800"/>
      <path id="Path_8819" data-name="Path 8819" d="M122.038,149.841c-.032,0-.027-.3-.169-.8a3.326,3.326,0,0,0-1.229-1.764,3.2,3.2,0,1,0,0,5.135,3.345,3.345,0,0,0,1.229-1.764c.142-.507.137-.8.169-.8s0,.073,0,.215a2.284,2.284,0,0,1-.064.621,3.326,3.326,0,0,1-1.206,1.924,3.463,3.463,0,0,1-3.3.539,3.5,3.5,0,1,1,3.3-6.063,3.344,3.344,0,0,1,1.206,1.928,2.284,2.284,0,0,1,.064.621C122.061,149.759,122.052,149.841,122.038,149.841Z" transform="translate(-84.729 -106.863)" fill="#263238"/>
    </g>
    <rect id="Rectangle_1190" data-name="Rectangle 1190" width="100" height="18" transform="translate(1070.477 3486.658)" fill="#fff"/>
    <g id="freepik--Text--inject-4" transform="translate(1075.57 3478.687)">
      <path id="Path_8786" data-name="Path 8786" d="M49.046,199.354H59.868l-.953,4.854H39.42l.772-3.86,11.734-9.2c2.9-2.321,3.787-3.678,3.787-5.372s-1.29-2.834-3.787-2.834a7.129,7.129,0,0,0-5.471,2.689l-4.01-2.906c2.072-2.834,5.922-4.709,10.361-4.709,5.445,0,9.009,2.906,9.009,6.916,0,3.051-1.394,5.626-5.922,9.123Z" transform="translate(-39.42 -173.238)" fill="#263238"/>
      <path id="Path_8787" data-name="Path 8787" d="M106.453,199.214h-4.227l-1.067,5.4H95.345l1.1-5.4H82.58l.772-4.01L98.511,178.87h6.507L90.895,194.355h6.766l.958-4.818h5.554l-.958,4.818h4.233Z" transform="translate(-60.22 -173.648)" fill="#263238"/>
      <path id="Path_8788" data-name="Path 8788" d="M143.889,168.79h5.372l-18.9,34.648H125Z" transform="translate(-80.664 -168.79)" fill="#263238"/>
      <path id="Path_8789" data-name="Path 8789" d="M187.948,178.87l-.772,3.865-13.755,21.883H166.8L180,183.724h-8.346l-.85,4.2H165.51l1.808-9.051Z" transform="translate(-100.187 -173.648)" fill="#263238"/>
    </g>
  </g>
</svg>
