<svg xmlns="http://www.w3.org/2000/svg" xmlns:xlink="http://www.w3.org/1999/xlink" width="428.407" height="428.407" viewBox="0 0 428.407 428.407">
  <defs>
    <filter id="Ellipse_114" x="0" y="0" width="428.407" height="428.407" filterUnits="userSpaceOnUse">
      <feOffset dy="3" input="SourceAlpha"/>
      <feGaussianBlur stdDeviation="3" result="blur"/>
      <feFlood flood-color="#e2e2e2"/>
      <feComposite operator="in" in2="blur"/>
      <feComposite in="SourceGraphic"/>
    </filter>
  </defs>
  <g id="Group_1592" data-name="Group 1592" transform="translate(-61.72 -1011.012)">
    <g transform="matrix(1, 0, 0, 1, 61.72, 1011.01)" filter="url(#Ellipse_114)">
      <g id="Ellipse_114-2" data-name="Ellipse 114" transform="translate(9 6)" fill="#fff4ea" stroke="#b45d0e" stroke-width="1">
        <circle cx="205.203" cy="205.203" r="205.203" stroke="none"/>
        <circle cx="205.203" cy="205.203" r="204.703" fill="none"/>
      </g>
    </g>
    <g id="Hotel_Booking-pana" data-name="Hotel Booking-pana" transform="translate(162.072 1019.946)">
      <g id="freepik--Device--inject-104" transform="translate(0 0)">
        <path id="Path_8414" data-name="Path 8414" d="M278.77,407.177l-124.8-.069A27.188,27.188,0,0,1,126.8,379.946l.061-312.867A27.179,27.179,0,0,1,154.066,39.9l124.8.069a27.179,27.179,0,0,1,27.171,27.153L305.975,380A27.179,27.179,0,0,1,278.77,407.177Z" transform="translate(-126.8 -39.9)" fill="#263238"/>
        <path id="Path_8415" data-name="Path 8415" d="M281.219,52.682H257a6,6,0,0,0-5.874,6.133v4.394a6,6,0,0,1-5.882,6.133H198.081a6.055,6.055,0,0,1-5.874-6.142V58.772a6.055,6.055,0,0,0-5.874-6.142H156.671a19.031,19.031,0,0,0-19.031,19.031l-.061,305.358a19.031,19.031,0,0,0,19.031,19.031l124.565.069a19.031,19.031,0,0,0,19.031-19.031l.061-305.358a19.031,19.031,0,0,0-19.048-19.048Z" transform="translate(-128.255 -41.618)" fill="#fff"/>
        <path id="Path_8416" data-name="Path 8416" d="M281.173,52.646h.657a12.5,12.5,0,0,1,1.929.147,17.846,17.846,0,0,1,7.137,2.465,18.355,18.355,0,0,1,4.325,3.521,19.145,19.145,0,0,1,3.625,5.683,19.715,19.715,0,0,1,1.427,7.733v8.97c0,25.372,0,62.075.061,107.42s0,99.358,0,159.323v28.546a20.353,20.353,0,0,1-.727,5.8,19.239,19.239,0,0,1-2.431,5.363,20.451,20.451,0,0,1-3.971,4.4,19.2,19.2,0,0,1-10.934,4.308c-3.988.112-7.95,0-11.963.052H157.992a20.077,20.077,0,0,1-12.4-3.46,19.437,19.437,0,0,1-7.543-10.432,20.83,20.83,0,0,1-.8-6.436V200.265c0-29.991,0-58.477.043-85.146V71.945c0-.77.069-1.54.112-2.31a11.087,11.087,0,0,1,.389-2.266,19.319,19.319,0,0,1,19.524-14.991h28.494a6.055,6.055,0,0,1,3.746,1.047,6.315,6.315,0,0,1,2.336,3.054,10.181,10.181,0,0,1,.381,3.763v1.851a13.915,13.915,0,0,0,.061,1.817,6.055,6.055,0,0,0,1.419,3.192,5.6,5.6,0,0,0,2.967,1.843,6.263,6.263,0,0,0,1.73.173h8.65l25.086.043h13.668a5.519,5.519,0,0,0,2.327-.865,6.055,6.055,0,0,0,2.673-3.832,10.887,10.887,0,0,0,.147-2.31V59.9a12.586,12.586,0,0,1,.1-2.215,6.375,6.375,0,0,1,.718-2.041,5.986,5.986,0,0,1,3.036-2.69,9.386,9.386,0,0,1,3.78-.4h0a9.239,9.239,0,0,0-3.711.407,5.787,5.787,0,0,0-2.941,2.6,6.271,6.271,0,0,0-.692,1.981,13.03,13.03,0,0,0-.1,2.189v2.284a10.375,10.375,0,0,1-.147,2.353,6.254,6.254,0,0,1-2.751,3.979,5.977,5.977,0,0,1-2.422.865c-.865.078-1.73,0-2.6,0H198.45a6.626,6.626,0,0,1-1.791-.173,5.952,5.952,0,0,1-3.079-1.9,6.375,6.375,0,0,1-1.505-3.356,14.9,14.9,0,0,1-.061-1.86V60.284a9.855,9.855,0,0,0-.372-3.642,6,6,0,0,0-2.2-2.863,5.753,5.753,0,0,0-3.555-.977H157.395a18.91,18.91,0,0,0-15.173,6.721,19.126,19.126,0,0,0-3.919,7.9c-.19.727-.242,1.479-.372,2.223a14.118,14.118,0,0,0-.1,2.266V376.023a20.277,20.277,0,0,0,.779,6.289,18.883,18.883,0,0,0,7.335,10.13,19.507,19.507,0,0,0,12.111,3.33h112.29c4,0,8,.061,11.937-.052a18.729,18.729,0,0,0,10.7-4.152,19.945,19.945,0,0,0,3.858-4.282,18.623,18.623,0,0,0,2.37-5.19,19.9,19.9,0,0,0,.718-5.666V347.892c0-59.964.061-113.969.087-159.323s.086-82.049.112-107.42v-8.97a19.567,19.567,0,0,0-1.384-7.673,19.2,19.2,0,0,0-14.974-11.713,16.142,16.142,0,0,0-1.92-.173Z" transform="translate(-128.209 -41.582)" fill="#263238"/>
        <path id="Path_8417" data-name="Path 8417" d="M305.7,88.325c0,.087-3.149.173-7.033.208s-7.024,0-7.024-.1,3.14-.173,7.024-.2S305.7,88.247,305.7,88.325Z" transform="translate(-149.047 -46.423)" fill="#263238"/>
        <path id="Path_8418" data-name="Path 8418" d="M305.727,92.483c0,.078-3.14.173-7.024.208s-7.033,0-7.033-.1,3.149-.173,7.033-.208S305.727,92.4,305.727,92.483Z" transform="translate(-149.051 -46.982)" fill="#263238"/>
        <path id="Path_8419" data-name="Path 8419" d="M305.807,96.643c0,.078-3.149.173-7.033.2s-7.024,0-7.024-.087,3.14-.173,7.024-.208S305.807,96.557,305.807,96.643Z" transform="translate(-149.062 -47.544)" fill="#263238"/>
        <path id="Path_8420" data-name="Path 8420" d="M160.09,99.582H161.2l2.993-.069-.078.078V96.165a1.159,1.159,0,0,1,1.012-.926h1.436a1.168,1.168,0,0,1,.977,1.159c0,1.012,0,2.076,0,3.175l-.138-.138h3.789l-.147.147V93.657a1.228,1.228,0,0,0-.528-.865l-1.652-1.635-1.6-1.574-.779-.761a1.73,1.73,0,0,0-.779-.588,1.012,1.012,0,0,0-.865.164c-.234.2-.476.476-.709.7l-1.358,1.367c-.865.865-1.73,1.73-2.387,2.465a2.6,2.6,0,0,0-.19,1.41v5.355a2.767,2.767,0,0,1,0-.45c0-.372,0-.813-.043-1.358s0-1.341,0-2.163V93.613a1.523,1.523,0,0,1,.216-.787c.7-.865,1.531-1.618,2.4-2.535l1.349-1.384c.242-.234.441-.476.727-.718a1.272,1.272,0,0,1,1.1-.216,1.972,1.972,0,0,1,.908.649l.779.761,1.6,1.566,1.661,1.635a3.156,3.156,0,0,1,.424.458,1.237,1.237,0,0,1,.2.631c0,.407,0,.8,0,1.211v4.861h-4.066V96.433a.926.926,0,0,0-.77-.917H165.3a.908.908,0,0,0-.813.735V99.72h-3.927A1.255,1.255,0,0,1,160.09,99.582Z" transform="translate(-131.293 -46.382)" fill="#263238"/>
        <path id="Path_8421" data-name="Path 8421" d="M221.87,110.983c0,1-.8,1.583-2.318,1.583h-3v-5.8h2.829c1.453,0,2.2.606,2.2,1.505a1.393,1.393,0,0,1-.77,1.28A1.427,1.427,0,0,1,221.87,110.983Zm-3.988-3.2v1.367h1.332c.657,0,1.012-.234,1.012-.692s-.355-.675-1.012-.675Zm2.6,3.062c0-.484-.372-.718-1.073-.718h-1.566v1.436H219.4c.744,0,1.116-.216,1.116-.718Z" transform="translate(-138.913 -48.925)" fill="#263238"/>
        <path id="Path_8422" data-name="Path 8422" d="M223.389,110.491a2.457,2.457,0,1,1,2.457,2.292,2.3,2.3,0,0,1-2.457-2.292Zm3.59,0a1.133,1.133,0,1,0-.3.864,1.142,1.142,0,0,0,.3-.864Z" transform="translate(-139.835 -49.073)" fill="#263238"/>
        <path id="Path_8423" data-name="Path 8423" d="M229.669,110.491a2.457,2.457,0,1,1,2.448,2.292,2.292,2.292,0,0,1-2.448-2.292Zm3.59,0a1.133,1.133,0,1,0-.3.867,1.142,1.142,0,0,0,.3-.867Z" transform="translate(-140.683 -49.073)" fill="#263238"/>
        <path id="Path_8424" data-name="Path 8424" d="M238.242,110.763l-.623.614v1.133H236.33v-6.15h1.289v3.46l1.894-1.791h1.54l-1.86,1.886,2.024,2.6h-1.566Z" transform="translate(-141.582 -48.87)" fill="#263238"/>
        <path id="Path_8425" data-name="Path 8425" d="M242.43,106.656a.744.744,0,0,1,.8-.727.727.727,0,0,1,.8.7.8.8,0,1,1-1.609,0Zm.156,1.341h1.3v4.455h-1.3Z" transform="translate(-142.406 -48.811)" fill="#263238"/>
        <path id="Path_8426" data-name="Path 8426" d="M250.059,110.211v2.6h-1.3v-2.353c0-.718-.329-1.047-.865-1.047a1.072,1.072,0,0,0-1.1,1.159v2.2h-1.3v-4.455h1.237v.519a1.938,1.938,0,0,1,1.471-.588,1.73,1.73,0,0,1,1.851,1.972Z" transform="translate(-142.82 -49.122)" fill="#263238"/>
        <path id="Path_8427" data-name="Path 8427" d="M256.74,108.306v3.711c0,1.661-.865,2.422-2.509,2.422a3.694,3.694,0,0,1-2.189-.614l.519-.926a2.69,2.69,0,0,0,1.574.5c.865,0,1.306-.415,1.306-1.22v-.19a1.834,1.834,0,0,1-1.41.554,2.163,2.163,0,1,1,0-4.325,1.791,1.791,0,0,1,1.479.64v-.571Zm-1.3,2.085a1.176,1.176,0,1,0-1.168,1.1,1.081,1.081,0,0,0,1.168-1.1Z" transform="translate(-143.68 -49.12)" fill="#263238"/>
        <rect id="Rectangle_1124" data-name="Rectangle 1124" width="53.528" height="48.295" rx="2.55" transform="translate(25.527 138.103)" fill="#d16800"/>
        <path id="Path_8433" data-name="Path 8433" d="M258.472,205.83l.4.8.874.13-.632.623.147.874-.787-.415-.787.415.156-.874-.64-.623.882-.13Z" transform="translate(-144.399 -62.294)" fill="#d16800"/>
        <path id="Path_8434" data-name="Path 8434" d="M262.432,205.83l.389.8.882.13-.632.623.147.874-.787-.415-.787.415.156-.874-.64-.623.882-.13Z" transform="translate(-144.934 -62.294)" fill="#d16800"/>
        <path id="Path_8435" data-name="Path 8435" d="M266.392,205.83l.4.8.874.13-.631.623.147.874-.787-.415-.787.415.156-.874-.64-.623.882-.13Z" transform="translate(-145.468 -62.294)" fill="#d16800"/>
        <path id="Path_8436" data-name="Path 8436" d="M270.352,205.83l.4.8.874.13-.631.623.147.874-.787-.415-.787.415.156-.874-.64-.623.882-.13Z" transform="translate(-146.003 -62.294)" fill="#d16800"/>
        <path id="Path_8437" data-name="Path 8437" d="M274.312,205.83l.4.8.874.13-.631.623.147.874-.787-.415-.787.415.156-.874-.64-.623.882-.13Z" transform="translate(-146.537 -62.294)" fill="#d16800"/>
        <path id="Path_8438" data-name="Path 8438" d="M269.5,215.855c0,.13-8.3.225-18.529.225s-18.529-.1-18.529-.225,8.3-.225,18.529-.225S269.5,215.734,269.5,215.855Z" transform="translate(-141.057 -63.617)" fill="#e0e0e0"/>
        <path id="Path_8439" data-name="Path 8439" d="M298.544,223.125c0,.121-15.008.225-33.5.225s-33.512-.1-33.512-.225,15-.225,33.512-.225S298.544,222.986,298.544,223.125Z" transform="translate(-140.935 -64.598)" fill="#263238"/>
        <path id="Path_8440" data-name="Path 8440" d="M265.221,230.565c0,.121-7.37.225-16.436.225s-16.436-.1-16.436-.225,7.361-.225,16.436-.225S265.221,230.435,265.221,230.565Z" transform="translate(-141.045 -65.602)" fill="#263238"/>
        <rect id="Rectangle_1125" data-name="Rectangle 1125" width="39.1" height="12.439" rx="6.01" transform="translate(89.99 171.84)" fill="#d16800"/>
        <path id="Path_8441" data-name="Path 8441" d="M249.388,245.948c0,.6-.458.943-1.349.943H246.36V243.37h1.583c.8,0,1.263.346,1.263.917a.9.9,0,0,0,.182,1.661Zm-2.526-2.163v1.124H247.9c.51,0,.8-.19.8-.562s-.294-.562-.8-.562Zm2.016,2.119c0-.407-.294-.588-.865-.588h-1.159v1.194h1.159C248.583,246.51,248.877,246.311,248.877,245.9Z" transform="translate(-142.936 -67.361)" fill="#fff"/>
        <path id="Path_8442" data-name="Path 8442" d="M250.39,245.679a1.393,1.393,0,1,1,1.393,1.367,1.323,1.323,0,0,1-1.393-1.367Zm2.284,0a.9.9,0,1,0-.9.9A.9.9,0,0,0,252.674,245.679Z" transform="translate(-143.48 -67.481)" fill="#fff"/>
        <path id="Path_8443" data-name="Path 8443" d="M254.09,245.681a1.384,1.384,0,1,1,1.384,1.367,1.323,1.323,0,0,1-1.384-1.367Zm2.275,0a.9.9,0,1,0-.9.9A.9.9,0,0,0,256.365,245.681Z" transform="translate(-143.979 -67.484)" fill="#fff"/>
        <path id="Path_8444" data-name="Path 8444" d="M259.1,245.611l-.554.51v.727h-.484V243.12h.484v2.4L260,244.184h.606l-1.116,1.107,1.228,1.557h-.6Z" transform="translate(-144.515 -67.327)" fill="#fff"/>
        <path id="Path_8445" data-name="Path 8445" d="M192.27,241.1a4.678,4.678,0,0,1,0-.545v-1.522c0-1.358,0-3.278-.052-5.692,0-4.879-.061-11.739-.1-19.809l.208.2h-18.59c-.052,0,.424-.424.225-.225h0v27.56l-.182-.182,13.495.1h4.749a1.731,1.731,0,0,1,.355,0,2.048,2.048,0,0,1-.32,0h-4.671l-13.607.1H173.6V213.524h0c-.2.2.277-.277.234-.225h18.8v.208c-.043,8.123-.078,15.034-.1,19.948,0,2.387-.043,4.325-.061,5.64v1.488A3.387,3.387,0,0,1,192.27,241.1Z" transform="translate(-133.11 -63.302)" fill="#fff"/>
        <path id="Path_8446" data-name="Path 8446" d="M190.582,209.3a24.781,24.781,0,0,1,.208,3.668v.2h-2.664l-.225-.234h0V209.08h.182a13.4,13.4,0,0,1,2.457.182,18.364,18.364,0,0,1-2.457.182l.182-.182v3.685h0c.2.208-.277-.268-.225-.216H190.5l-.208.208a31.078,31.078,0,0,1,.294-3.642Z" transform="translate(-135.046 -62.733)" fill="#fff"/>
        <path id="Path_8447" data-name="Path 8447" d="M202.1,241.253a2.341,2.341,0,0,1-.441,0h-6.669v-.13c-.052-6.2-.087-16.245-.087-27.569v-.225h7.4v.225c0,7.906-.069,14.853-.1,19.9,0,2.431-.052,4.394-.069,5.8v1.54a3.611,3.611,0,0,1,0,.519,5.287,5.287,0,0,1,0-.571v-1.592c0-1.41,0-3.391-.061-5.848,0-4.974-.061-11.86-.1-19.706l.225.216h-6.92l.225-.225c0,11.323,0,21.366-.1,27.569l-.13-.138,5.078.182,1.375.061A3.626,3.626,0,0,1,202.1,241.253Z" transform="translate(-135.991 -63.307)" fill="#fff"/>
        <rect id="Rectangle_1126" data-name="Rectangle 1126" width="2.881" height="2.881" transform="translate(43.529 153.683)" fill="#fff"/>
        <rect id="Rectangle_1127" data-name="Rectangle 1127" width="2.881" height="2.881" transform="translate(48.425 153.683)" fill="#fff"/>
        <rect id="Rectangle_1128" data-name="Rectangle 1128" width="2.881" height="2.881" transform="translate(53.312 153.683)" fill="#fff"/>
        <rect id="Rectangle_1129" data-name="Rectangle 1129" width="2.881" height="2.881" transform="translate(43.529 158.639)" fill="#fff"/>
        <rect id="Rectangle_1130" data-name="Rectangle 1130" width="2.881" height="2.881" transform="translate(48.425 158.639)" fill="#fff"/>
        <rect id="Rectangle_1131" data-name="Rectangle 1131" width="2.881" height="2.881" transform="translate(53.312 158.639)" fill="#fff"/>
        <rect id="Rectangle_1132" data-name="Rectangle 1132" width="2.881" height="2.881" transform="translate(43.529 163.596)" fill="#fff"/>
        <rect id="Rectangle_1133" data-name="Rectangle 1133" width="2.881" height="2.881" transform="translate(48.425 163.596)" fill="#fff"/>
        <rect id="Rectangle_1134" data-name="Rectangle 1134" width="2.881" height="2.881" transform="translate(53.312 163.596)" fill="#fff"/>
        <rect id="Rectangle_1135" data-name="Rectangle 1135" width="2.881" height="2.881" transform="translate(43.529 168.552)" fill="#fff"/>
        <rect id="Rectangle_1136" data-name="Rectangle 1136" width="2.881" height="2.881" transform="translate(48.425 168.552)" fill="#fff"/>
        <rect id="Rectangle_1137" data-name="Rectangle 1137" width="2.881" height="2.881" transform="translate(53.312 168.552)" fill="#fff"/>
        <rect id="Rectangle_1138" data-name="Rectangle 1138" width="2.881" height="2.881" transform="translate(60.951 153.683)" fill="#fff"/>
        <rect id="Rectangle_1139" data-name="Rectangle 1139" width="2.881" height="2.881" transform="translate(60.951 158.639)" fill="#fff"/>
        <rect id="Rectangle_1140" data-name="Rectangle 1140" width="2.881" height="2.881" transform="translate(60.951 163.596)" fill="#fff"/>
        <rect id="Rectangle_1141" data-name="Rectangle 1141" width="2.881" height="2.881" transform="translate(60.951 168.552)" fill="#fff"/>
        <rect id="Rectangle_1142" data-name="Rectangle 1142" width="2.82" height="4.464" transform="translate(48.753 173.336)" fill="#fff"/>
        <path id="Path_8448" data-name="Path 8448" d="M204.116,245.4c0,.121-8.945.225-19.982.225s-19.974-.1-19.974-.225,8.944-.225,19.974-.225S204.116,245.284,204.116,245.4Z" transform="translate(-131.842 -67.605)" fill="#fff"/>
        <path id="Path_8449" data-name="Path 8449" d="M290.437,253.218a5.325,5.325,0,0,0,1.055-.156,4.325,4.325,0,0,0,2.491-1.73,4.2,4.2,0,0,0,.727-2.137v-9.758c0-10.493,0-25.666-.078-44.411a5.572,5.572,0,0,0-.156-1.73,4.265,4.265,0,0,0-.787-1.522,4.161,4.161,0,0,0-3.036-1.522H151.339a4.135,4.135,0,0,0-3.884,2.742,6.92,6.92,0,0,0-.242,2.6v53.6a4.161,4.161,0,0,0,2.6,3.521,4.323,4.323,0,0,0,1.107.268H163.89l65.864.052,44.376.087,12.111.043h0l-12.111.043-44.411.069-65.864.043H150.863a4.992,4.992,0,0,1-1.228-.294,4.576,4.576,0,0,1-2.855-3.884V194.162a4.325,4.325,0,0,1,.268-1.367,4.585,4.585,0,0,1,4.325-3.045H290.7a4.524,4.524,0,0,1,3.27,1.652,4.446,4.446,0,0,1,.865,1.644,6.055,6.055,0,0,1,.164,1.791c0,18.745-.052,33.918-.069,44.411v9.766a4.325,4.325,0,0,1-3.322,3.927,3.357,3.357,0,0,1-.787.112Z" transform="translate(-129.497 -60.124)" fill="#d16800"/>
        <rect id="Rectangle_1143" data-name="Rectangle 1143" width="53.528" height="48.295" rx="2.55" transform="translate(23.944 209.503)" fill="#d16800"/>
        <path id="Path_8455" data-name="Path 8455" d="M256.642,288.37l.389.8.882.13-.64.623.156.874-.787-.415-.787.415.147-.874-.631-.623.874-.13Z" transform="translate(-144.152 -73.434)" fill="#d16800"/>
        <path id="Path_8456" data-name="Path 8456" d="M260.6,288.37l.389.8.882.13-.64.623.156.874-.787-.415-.787.415.147-.874-.631-.623.874-.13Z" transform="translate(-144.687 -73.434)" fill="#d16800"/>
        <path id="Path_8457" data-name="Path 8457" d="M264.562,288.37l.389.8.882.13-.64.623.156.874-.787-.415-.787.415.147-.874-.631-.623.874-.13Z" transform="translate(-145.221 -73.434)" fill="#d16800"/>
        <path id="Path_8458" data-name="Path 8458" d="M268.522,288.37l.389.8.882.13-.64.623.156.874-.787-.415-.787.415.147-.874-.632-.623.874-.13Z" transform="translate(-145.756 -73.434)" fill="#e0e0e0"/>
        <path id="Path_8459" data-name="Path 8459" d="M272.482,288.37l.389.8.882.13-.64.623.156.874-.787-.415-.787.415.147-.874-.632-.623.874-.13Z" transform="translate(-146.29 -73.434)" fill="#e0e0e0"/>
        <path id="Path_8460" data-name="Path 8460" d="M267.659,298.395c0,.13-8.3.225-18.52.225s-18.529-.1-18.529-.225,8.3-.225,18.529-.225S267.659,298.274,267.659,298.395Z" transform="translate(-140.81 -74.757)" fill="#e0e0e0"/>
        <path id="Path_8461" data-name="Path 8461" d="M296.726,305.665c0,.121-15,.225-33.5.225s-33.5-.1-33.5-.225,15-.225,33.5-.225S296.726,305.535,296.726,305.665Z" transform="translate(-140.69 -75.738)" fill="#263238"/>
        <path id="Path_8462" data-name="Path 8462" d="M263.381,313.1c0,.121-7.362.225-16.436.225s-16.436-.1-16.436-.225,7.361-.225,16.436-.225S263.381,312.984,263.381,313.1Z" transform="translate(-140.797 -76.742)" fill="#263238"/>
        <path id="Path_8463" data-name="Path 8463" d="M262.861,333.458a5.026,5.026,0,0,0,.943-.13,5.234,5.234,0,0,0,2.4-1.194,5.087,5.087,0,0,0,1.73-3.746V325.7a5.19,5.19,0,0,0-1.142-2.682,5.086,5.086,0,0,0-2.7-1.67,6.3,6.3,0,0,0-1.73-.138H234.2a5,5,0,0,0-4.887,4.022,13.95,13.95,0,0,0-.1,2.266,6.731,6.731,0,0,0,.225,2.189,5,5,0,0,0,4.714,3.521l14.956.052,10.086.069,2.742.043h.952a.861.861,0,0,1-.242,0H259.2l-10.086.078-14.965.043a5.424,5.424,0,0,1-5.121-3.806,7.05,7.05,0,0,1-.251-2.318,13.615,13.615,0,0,1,.1-2.353,5.44,5.44,0,0,1,5.32-4.386h28.157a7.04,7.04,0,0,1,1.808.164,5.4,5.4,0,0,1,2.872,1.808,5.467,5.467,0,0,1,1.176,2.846c.052.995,0,1.868,0,2.725a5.286,5.286,0,0,1-1.877,3.875,5.1,5.1,0,0,1-2.491,1.15,4.283,4.283,0,0,1-.709.061A.813.813,0,0,1,262.861,333.458Z" transform="translate(-140.562 -77.787)" fill="#d16800"/>
        <path id="Path_8464" data-name="Path 8464" d="M247.528,328.479c0,.605-.458.952-1.349.952H244.5V325.91h1.574c.813,0,1.263.346,1.263.865a.936.936,0,0,0,.19,1.7ZM245,326.317v1.133h1.029c.51,0,.8-.2.8-.571s-.294-.562-.8-.562Zm2.016,2.128c0-.407-.3-.588-.865-.588h-1.159v1.168h1.159c.588,0,.891-.173.891-.58Z" transform="translate(-142.685 -78.501)" fill="#d16800"/>
        <path id="Path_8465" data-name="Path 8465" d="M248.56,328.221a1.384,1.384,0,1,1,1.393,1.367,1.324,1.324,0,0,1-1.393-1.367Zm2.284,0a.9.9,0,1,0-.9.9A.9.9,0,0,0,250.844,328.221Z" transform="translate(-143.233 -78.624)" fill="#d16800"/>
        <path id="Path_8466" data-name="Path 8466" d="M252.25,328.221a1.384,1.384,0,1,1,1.393,1.367,1.324,1.324,0,0,1-1.393-1.367Zm2.284,0a.9.9,0,1,0-.9.9A.9.9,0,0,0,254.534,328.221Z" transform="translate(-143.731 -78.624)" fill="#d16800"/>
        <path id="Path_8467" data-name="Path 8467" d="M257.259,328.164l-.554.51v.744h-.476V325.69h.476v2.388l1.453-1.324h.588l-1.125,1.1,1.237,1.566h-.6Z" transform="translate(-144.268 -78.471)" fill="#d16800"/>
        <path id="Path_8468" data-name="Path 8468" d="M190.427,323.663V321.6c0-1.358,0-3.279-.061-5.692,0-4.879-.061-11.739-.1-19.818l.2.208h-18.59l.225-.216h0v27.56l-.182-.182,13.486.1,3.763.043h.995a1.544,1.544,0,0,1,.346,0,1.843,1.843,0,0,1-.311,0h-.96l-3.72.052-13.6.1h-.182V296.1h0c-.2.2.277-.277.225-.233h18.8v.2c-.043,8.131-.078,15.043-.1,19.948,0,2.4,0,4.325-.052,5.649v1.488A3.389,3.389,0,0,1,190.427,323.663Z" transform="translate(-132.859 -74.446)" fill="#fff"/>
        <path id="Path_8469" data-name="Path 8469" d="M188.72,291.833a26.183,26.183,0,0,1,.208,3.659v.208h-2.673l-.225-.225h0V291.6h.173a13.7,13.7,0,0,1,2.465.182,18.782,18.782,0,0,1-2.465.182l.182-.182v3.685h0l-.225-.225h2.465l-.208.2A31.017,31.017,0,0,1,188.72,291.833Z" transform="translate(-134.794 -73.87)" fill="#fff"/>
        <path id="Path_8470" data-name="Path 8470" d="M200.257,323.792a3.84,3.84,0,0,1-.441,0h-6.661v-.13c-.052-6.2-.1-16.254-.1-27.577v-.225h7.4v.216c0,7.915-.078,14.853-.1,19.9,0,2.431-.043,4.394-.061,5.8v1.54a2.089,2.089,0,0,1,0,.519,5.3,5.3,0,0,1,0-.571c0-.407,0-.934,0-1.592,0-1.419,0-3.391-.061-5.848,0-4.974-.061-11.86-.1-19.714l.216.225h-6.92l.225-.225c0,11.323,0,21.375-.086,27.577l-.13-.138,5.078.182,1.375.061A3.369,3.369,0,0,1,200.257,323.792Z" transform="translate(-135.743 -74.445)" fill="#fff"/>
        <rect id="Rectangle_1144" data-name="Rectangle 1144" width="2.881" height="2.881" transform="translate(41.946 225.083)" fill="#fff"/>
        <rect id="Rectangle_1145" data-name="Rectangle 1145" width="2.881" height="2.881" transform="translate(46.833 225.083)" fill="#fff"/>
        <rect id="Rectangle_1146" data-name="Rectangle 1146" width="2.881" height="2.881" transform="translate(51.729 225.083)" fill="#fff"/>
        <rect id="Rectangle_1147" data-name="Rectangle 1147" width="2.881" height="2.881" transform="translate(41.946 230.039)" fill="#fff"/>
        <rect id="Rectangle_1148" data-name="Rectangle 1148" width="2.881" height="2.881" transform="translate(46.833 230.039)" fill="#fff"/>
        <rect id="Rectangle_1149" data-name="Rectangle 1149" width="2.881" height="2.881" transform="translate(51.729 230.039)" fill="#fff"/>
        <rect id="Rectangle_1150" data-name="Rectangle 1150" width="2.881" height="2.881" transform="translate(41.946 234.996)" fill="#fff"/>
        <rect id="Rectangle_1151" data-name="Rectangle 1151" width="2.881" height="2.881" transform="translate(46.833 234.996)" fill="#fff"/>
        <rect id="Rectangle_1152" data-name="Rectangle 1152" width="2.881" height="2.881" transform="translate(51.729 234.996)" fill="#fff"/>
        <rect id="Rectangle_1153" data-name="Rectangle 1153" width="2.881" height="2.881" transform="translate(41.946 239.953)" fill="#fff"/>
        <rect id="Rectangle_1154" data-name="Rectangle 1154" width="2.881" height="2.881" transform="translate(46.833 239.953)" fill="#fff"/>
        <rect id="Rectangle_1155" data-name="Rectangle 1155" width="2.881" height="2.881" transform="translate(51.729 239.953)" fill="#fff"/>
        <rect id="Rectangle_1156" data-name="Rectangle 1156" width="2.881" height="2.881" transform="translate(59.359 225.083)" fill="#fff"/>
        <rect id="Rectangle_1157" data-name="Rectangle 1157" width="2.881" height="2.881" transform="translate(59.359 230.039)" fill="#fff"/>
        <rect id="Rectangle_1158" data-name="Rectangle 1158" width="2.881" height="2.881" transform="translate(59.359 234.996)" fill="#fff"/>
        <rect id="Rectangle_1159" data-name="Rectangle 1159" width="2.881" height="2.881" transform="translate(59.359 239.953)" fill="#fff"/>
        <rect id="Rectangle_1160" data-name="Rectangle 1160" width="2.82" height="4.464" transform="translate(47.17 244.736)" fill="#fff"/>
        <path id="Path_8471" data-name="Path 8471" d="M202.285,327.965c0,.121-8.953.225-19.982.225s-19.982-.1-19.982-.225,8.944-.225,19.982-.225S202.285,327.818,202.285,327.965Z" transform="translate(-131.594 -78.748)" fill="#fff"/>
        <rect id="Rectangle_1161" data-name="Rectangle 1161" width="53.528" height="48.295" rx="2.55" transform="translate(24.602 280.428)" fill="#d16800"/>
        <path id="Path_8472" data-name="Path 8472" d="M234.737,369.39v4.766H233.63V372.2h-2.163v1.955H230.36V369.39h1.107v1.877h2.163V369.39Z" transform="translate(-140.777 -84.369)" fill="#263238"/>
        <path id="Path_8473" data-name="Path 8473" d="M236.319,372.447a2.016,2.016,0,1,1,2.016,1.894,1.894,1.894,0,0,1-2.016-1.894Zm2.95,0a.926.926,0,1,0-.238.72.934.934,0,0,0,.238-.72Z" transform="translate(-141.581 -84.493)" fill="#263238"/>
        <path id="Path_8474" data-name="Path 8474" d="M244.093,374.033a1.523,1.523,0,0,1-.865.234,1.211,1.211,0,0,1-1.367-1.324v-1.5h-.571v-.822h.614v-.865h1.055v.865h.917v.822h-.917v1.488a.432.432,0,0,0,.458.484.761.761,0,0,0,.433-.138Z" transform="translate(-142.252 -84.419)" fill="#263238"/>
        <path id="Path_8475" data-name="Path 8475" d="M248.609,372.788h-2.777a.977.977,0,0,0,1.047.735,1.219,1.219,0,0,0,.917-.355l.571.614a1.938,1.938,0,0,1-1.514.6,1.912,1.912,0,0,1-2.093-1.894A1.868,1.868,0,0,1,246.7,370.6a1.817,1.817,0,0,1,1.912,1.9A.786.786,0,0,1,248.609,372.788Zm-2.785-.623h1.808a.917.917,0,0,0-1.808,0Z" transform="translate(-142.72 -84.532)" fill="#263238"/>
        <path id="Path_8476" data-name="Path 8476" d="M250.06,369.06h1.055v5.052H250.06Z" transform="translate(-143.436 -84.324)" fill="#263238"/>
        <path id="Path_8477" data-name="Path 8477" d="M257.4,370.37l.389.8.882.121-.64.623.156.874-.787-.415-.787.415.156-.874-.64-.623.874-.121Z" transform="translate(-144.255 -84.501)" fill="#d16800"/>
        <path id="Path_8478" data-name="Path 8478" d="M261.362,370.37l.389.8.882.121-.64.623.156.874-.787-.415-.787.415.147-.874-.632-.623.882-.121Z" transform="translate(-144.789 -84.501)" fill="#d16800"/>
        <path id="Path_8479" data-name="Path 8479" d="M265.322,370.37l.389.8.882.121-.64.623.156.874-.787-.415-.787.415.156-.874-.64-.623.882-.121Z" transform="translate(-145.324 -84.501)" fill="#e0e0e0"/>
        <path id="Path_8480" data-name="Path 8480" d="M269.282,370.37l.389.8.882.121-.64.623.156.874-.787-.415-.787.415.156-.874-.64-.623.882-.121Z" transform="translate(-145.858 -84.501)" fill="#e0e0e0"/>
        <path id="Path_8481" data-name="Path 8481" d="M273.242,370.37l.389.8.882.121-.631.623.147.874-.787-.415-.787.415.156-.874-.64-.623.882-.121Z" transform="translate(-146.393 -84.501)" fill="#e0e0e0"/>
        <path id="Path_8482" data-name="Path 8482" d="M268.428,380.394c0,.121-8.3.225-18.529.225s-18.529-.1-18.529-.225,8.3-.234,18.529-.234S268.428,380.264,268.428,380.394Z" transform="translate(-140.913 -85.822)" fill="#e0e0e0"/>
        <path id="Path_8483" data-name="Path 8483" d="M297.544,387.655c0,.121-15.008.225-33.511.225s-33.5-.1-33.5-.225,15-.225,33.5-.225S297.544,387.534,297.544,387.655Z" transform="translate(-140.8 -86.804)" fill="#263238"/>
        <path id="Path_8484" data-name="Path 8484" d="M264.141,395.095c0,.121-7.361.225-16.436.225s-16.436-.1-16.436-.225,7.361-.225,16.436-.225S264.141,394.982,264.141,395.095Z" transform="translate(-140.9 -87.808)" fill="#263238"/>
        <path id="Path_8485" data-name="Path 8485" d="M263.672,415.46a4.808,4.808,0,0,0,.943-.138A5.191,5.191,0,0,0,267,414.128a5.1,5.1,0,0,0,1.73-3.746c0-.865,0-1.73-.043-2.69a5.026,5.026,0,0,0-3.841-4.325,6.985,6.985,0,0,0-1.73-.138H234.961a5,5,0,0,0-3.979,1.99,4.8,4.8,0,0,0-.908,2.033,12.36,12.36,0,0,0-.1,2.275,6.55,6.55,0,0,0,.216,2.189,5.129,5.129,0,0,0,1.047,1.843,4.957,4.957,0,0,0,3.668,1.669l14.956.052,10.086.078h3.7a1.378,1.378,0,0,1-.242,0h-.718l-2.742.043-10.086.069-14.965.043a5.4,5.4,0,0,1-3.979-1.8,5.475,5.475,0,0,1-1.142-2,6.86,6.86,0,0,1-.242-2.318,12.887,12.887,0,0,1,.1-2.362,5.441,5.441,0,0,1,5.329-4.386h28.157a7.075,7.075,0,0,1,1.808.164,5.337,5.337,0,0,1,4.04,4.663c.052.986,0,1.868,0,2.725a5.268,5.268,0,0,1-1.877,3.867,5.1,5.1,0,0,1-2.491,1.151,3.458,3.458,0,0,1-.709.061A1,1,0,0,1,263.672,415.46Z" transform="translate(-140.663 -88.857)" fill="#d16800"/>
        <path id="Path_8486" data-name="Path 8486" d="M248.318,410.478c0,.6-.458.943-1.349.943H245.29V407.9h1.583c.8,0,1.254.346,1.254.917a.813.813,0,0,1-.467.778A.865.865,0,0,1,248.318,410.478Zm-2.526-2.163v1.125h1.029c.519,0,.8-.19.8-.562s-.285-.562-.8-.562Zm2.016,2.119c0-.406-.3-.588-.865-.588h-1.159v1.168h1.159C247.5,411.014,247.807,410.841,247.807,410.435Z" transform="translate(-142.792 -89.566)" fill="#d16800"/>
        <path id="Path_8487" data-name="Path 8487" d="M249.32,410.209a1.393,1.393,0,1,1,1.393,1.367,1.323,1.323,0,0,1-1.393-1.367Zm2.284,0a.373.373,0,1,0,.035,0Z" transform="translate(-143.336 -89.686)" fill="#d16800"/>
        <path id="Path_8488" data-name="Path 8488" d="M253,410.209a1.393,1.393,0,1,1,1.393,1.367A1.323,1.323,0,0,1,253,410.209Zm2.284,0a.9.9,0,1,0-.9.9A.9.9,0,0,0,255.284,410.209Z" transform="translate(-143.832 -89.686)" fill="#d16800"/>
        <path id="Path_8489" data-name="Path 8489" d="M258.029,410.155l-.554.51v.753H257V407.69h.484v2.4l1.453-1.332h.58l-1.125,1.107,1.2,1.557H259Z" transform="translate(-144.372 -89.538)" fill="#d16800"/>
        <path id="Path_8490" data-name="Path 8490" d="M191.2,405.664a4.679,4.679,0,0,1,0-.545V403.6c0-1.358,0-3.278-.052-5.692,0-4.879-.061-11.739-.1-19.809l.208.208h-18.59c-.061.043.424-.424.216-.225h0v27.56l-.182-.182,13.495.1,3.754.043h1.349a1.257,1.257,0,0,1-.32,0h-.96l-3.711.043-13.607.1h-.173V378.1h0c-.2.2.277-.277.234-.225h18.8v.208c0,8.131-.069,15.034-.1,19.948,0,2.387-.043,4.325-.061,5.64v1.488A2.929,2.929,0,0,1,191.2,405.664Z" transform="translate(-132.964 -85.514)" fill="#fff"/>
        <path id="Path_8491" data-name="Path 8491" d="M189.482,373.825a24.782,24.782,0,0,1,.208,3.668v.2h-2.664l-.225-.225h0V373.6h.182a13.646,13.646,0,0,1,2.457.182,18.726,18.726,0,0,1-2.457.182l.173-.182v3.685h0l-.225-.225h2.457l-.208.208a31.254,31.254,0,0,1,.3-3.624Z" transform="translate(-134.898 -84.937)" fill="#fff"/>
        <path id="Path_8492" data-name="Path 8492" d="M201.037,405.785a2.341,2.341,0,0,1-.441,0h-6.609v-.121c-.052-6.2-.086-16.245-.086-27.569v-.225h7.387v.225c0,7.906-.069,14.853-.1,19.9,0,2.439-.052,4.394-.069,5.8v1.548a3.527,3.527,0,0,1,0,.51v-2.163c0-1.41,0-3.391-.061-5.848,0-4.974-.061-11.86-.1-19.706l.225.216h-6.92l.225-.225c0,11.323,0,21.366-.1,27.569l-.13-.13,4.913.1,1.375.061Z" transform="translate(-135.856 -85.513)" fill="#fff"/>
        <rect id="Rectangle_1162" data-name="Rectangle 1162" width="2.881" height="2.881" transform="translate(42.603 296.007)" fill="#fff"/>
        <rect id="Rectangle_1163" data-name="Rectangle 1163" width="2.881" height="2.881" transform="translate(47.491 296.007)" fill="#fff"/>
        <rect id="Rectangle_1164" data-name="Rectangle 1164" width="2.881" height="2.881" transform="translate(52.387 296.007)" fill="#fff"/>
        <rect id="Rectangle_1165" data-name="Rectangle 1165" width="2.881" height="2.881" transform="translate(42.603 300.964)" fill="#fff"/>
        <rect id="Rectangle_1166" data-name="Rectangle 1166" width="2.881" height="2.881" transform="translate(47.491 300.964)" fill="#fff"/>
        <rect id="Rectangle_1167" data-name="Rectangle 1167" width="2.881" height="2.881" transform="translate(52.387 300.964)" fill="#fff"/>
        <rect id="Rectangle_1168" data-name="Rectangle 1168" width="2.881" height="2.881" transform="translate(42.603 305.92)" fill="#fff"/>
        <rect id="Rectangle_1169" data-name="Rectangle 1169" width="2.881" height="2.881" transform="translate(47.491 305.92)" fill="#fff"/>
        <rect id="Rectangle_1170" data-name="Rectangle 1170" width="2.881" height="2.881" transform="translate(52.387 305.92)" fill="#fff"/>
        <rect id="Rectangle_1171" data-name="Rectangle 1171" width="2.881" height="2.881" transform="translate(42.603 310.877)" fill="#fff"/>
        <rect id="Rectangle_1172" data-name="Rectangle 1172" width="2.881" height="2.881" transform="translate(47.491 310.877)" fill="#fff"/>
        <rect id="Rectangle_1173" data-name="Rectangle 1173" width="2.881" height="2.881" transform="translate(52.387 310.877)" fill="#fff"/>
        <rect id="Rectangle_1174" data-name="Rectangle 1174" width="2.881" height="2.881" transform="translate(60.025 296.007)" fill="#fff"/>
        <rect id="Rectangle_1175" data-name="Rectangle 1175" width="2.881" height="2.881" transform="translate(60.025 300.964)" fill="#fff"/>
        <rect id="Rectangle_1176" data-name="Rectangle 1176" width="2.881" height="2.881" transform="translate(60.025 305.92)" fill="#fff"/>
        <rect id="Rectangle_1177" data-name="Rectangle 1177" width="2.881" height="2.881" transform="translate(60.025 310.877)" fill="#fff"/>
        <rect id="Rectangle_1178" data-name="Rectangle 1178" width="2.82" height="4.464" transform="translate(47.828 315.661)" fill="#fff"/>
        <path id="Path_8493" data-name="Path 8493" d="M203.045,409.965c0,.121-8.944.225-19.982.225s-19.982-.1-19.982-.225,8.944-.225,19.982-.225S203.045,409.818,203.045,409.965Z" transform="translate(-131.696 -89.815)" fill="#fff"/>
        <path id="Path_8494" data-name="Path 8494" d="M166.723,125.58H276.747a6.133,6.133,0,0,1,6.133,6.133v6.159a6.142,6.142,0,0,1-6.142,6.142H166.723a6.133,6.133,0,0,1-6.133-6.133v-6.159a6.133,6.133,0,0,1,6.133-6.142Z" transform="translate(-131.36 -51.464)" fill="#ebebeb"/>
        <path id="Path_8495" data-name="Path 8495" d="M290.181,134.424a1.977,1.977,0,0,0-.138-.606,2.491,2.491,0,0,0-3.235-1.67,2.431,2.431,0,1,0,2.3,4.221,2.474,2.474,0,0,0,.934-1.341c.113-.381.113-.606.138-.606s0,.052,0,.164a1.683,1.683,0,0,1-.043.467,2.526,2.526,0,0,1-.917,1.479,2.664,2.664,0,1,1,0-4.221,2.535,2.535,0,0,1,.917,1.471,1.732,1.732,0,0,1,.043.476C290.233,134.364,290.224,134.424,290.181,134.424Z" transform="translate(-148.142 -52.298)" fill="#263238"/>
        <path id="Path_8496" data-name="Path 8496" d="M292.3,139.534a4.929,4.929,0,0,1-1.246-1.133,4.87,4.87,0,0,1-1.038-1.341,5.065,5.065,0,0,1,1.254,1.142,5.127,5.127,0,0,1,1.029,1.332Z" transform="translate(-148.829 -53.013)" fill="#263238"/>
        <path id="Path_8497" data-name="Path 8497" d="M173.925,135.1H172.8v-.407h2.716v.407h-1.125v2.881h-.467Z" transform="translate(-133.008 -52.693)" fill="#263238"/>
        <path id="Path_8498" data-name="Path 8498" d="M175.89,136.845a1.3,1.3,0,1,1,1.3,1.28,1.237,1.237,0,0,1-1.3-1.28Zm2.137,0a.865.865,0,1,0-.865.865.822.822,0,0,0,.865-.865Z" transform="translate(-133.425 -52.806)" fill="#263238"/>
        <path id="Path_8499" data-name="Path 8499" d="M179.36,135.95a.311.311,0,0,1,.32-.32.3.3,0,0,1,.311.32.311.311,0,0,1-.311.32.32.32,0,0,1-.32-.32Zm0,1.894a.311.311,0,0,1,.32-.32.3.3,0,0,1,.311.32.311.311,0,0,1-.311.329.32.32,0,0,1-.32-.363Z" transform="translate(-133.893 -52.82)" fill="#263238"/>
        <path id="Path_8500" data-name="Path 8500" d="M253.479,137.135c0,.121-14.022.225-31.314.225s-31.314-.1-31.314-.225,14.022-.225,31.314-.225S253.479,136.988,253.479,137.135Z" transform="translate(-135.444 -52.993)" fill="#263238"/>
        <rect id="Rectangle_1179" data-name="Rectangle 1179" width="122.299" height="18.434" rx="7.09" transform="translate(29.221 98.891)" fill="#ebebeb"/>
        <path id="Path_8501" data-name="Path 8501" d="M290.179,164.048a1.977,1.977,0,0,0-.138-.606,2.535,2.535,0,0,0-.934-1.341,2.431,2.431,0,1,0,0,3.893,2.491,2.491,0,0,0,.934-1.332c.112-.381.112-.614.138-.614s0,.061,0,.164a1.728,1.728,0,0,1-.043.476,2.534,2.534,0,0,1-.917,1.471,2.638,2.638,0,0,1-2.517.415,2.673,2.673,0,0,1,0-5.043,2.639,2.639,0,0,1,2.612.381,2.509,2.509,0,0,1,.917,1.471,1.675,1.675,0,0,1,.043.467C290.231,164,290.222,164.048,290.179,164.048Z" transform="translate(-148.14 -56.29)" fill="#263238"/>
        <path id="Path_8502" data-name="Path 8502" d="M292.3,169.174a5.3,5.3,0,0,1-1.246-1.142,5.052,5.052,0,0,1-1.038-1.332,5.069,5.069,0,0,1,1.254,1.142A5.128,5.128,0,0,1,292.3,169.174Z" transform="translate(-148.829 -57.013)" fill="#263238"/>
        <path id="Path_8503" data-name="Path 8503" d="M173.34,162.259h1.436a1.652,1.652,0,1,1,0,3.287h-1.393Zm1.358,2.881a1.237,1.237,0,0,0,0-2.474h-.865v2.474Z" transform="translate(-133.081 -56.413)" fill="#263238"/>
        <path id="Path_8504" data-name="Path 8504" d="M179.661,164.162v1.505h-.432v-.329a.917.917,0,0,1-.813.355c-.562,0-.926-.3-.926-.735s.26-.727,1-.727h.718v-.087c0-.381-.225-.606-.675-.606a1.254,1.254,0,0,0-.787.268l-.19-.337a1.661,1.661,0,0,1,1.029-.32C179.307,163.15,179.661,163.479,179.661,164.162Zm-.45.744v-.346h-.7c-.441,0-.571.173-.571.381s.208.407.554.407a.727.727,0,0,0,.753-.441Z" transform="translate(-133.641 -56.534)" fill="#263238"/>
        <path id="Path_8505" data-name="Path 8505" d="M182.346,165.439a.8.8,0,0,1-.545.173.709.709,0,0,1-.787-.779v-1.367h-.424v-.372h.424v-.545h.45v.545h.718v.372h-.718v1.349a.363.363,0,0,0,.389.415.6.6,0,0,0,.355-.112Z" transform="translate(-134.06 -56.453)" fill="#263238"/>
        <path id="Path_8506" data-name="Path 8506" d="M185.358,164.569h-2.024a.865.865,0,0,0,.865.735.969.969,0,0,0,.727-.3l.242.285a1.22,1.22,0,0,1-.978.407,1.246,1.246,0,0,1-1.341-1.272,1.22,1.22,0,0,1,1.254-1.272,1.2,1.2,0,0,1,1.228,1.289A.65.65,0,0,1,185.358,164.569Zm-2.024-.32h1.6a.779.779,0,0,0-.8-.718A.787.787,0,0,0,183.334,164.249Z" transform="translate(-134.365 -56.534)" fill="#263238"/>
        <path id="Path_8507" data-name="Path 8507" d="M186.24,163.47a.32.32,0,0,1,.32-.32.329.329,0,0,1,0,.649.32.32,0,0,1-.32-.329Zm0,1.9a.311.311,0,0,1,.32-.32.3.3,0,0,1,.3.32.311.311,0,0,1-.3.32.32.32,0,0,1-.32-.32Z" transform="translate(-134.822 -56.534)" fill="#263238"/>
        <path id="Path_8508" data-name="Path 8508" d="M203.461,164.761a18.738,18.738,0,0,1-4.126.225,18.787,18.787,0,0,1-4.135-.225,19.435,19.435,0,0,1,4.135-.225,19.394,19.394,0,0,1,4.126.225Z" transform="translate(-136.031 -56.718)" fill="#263238"/>
        <path id="Path_8509" data-name="Path 8509" d="M237.1,164.835c0,.13-5.943.225-13.278.225s-13.27-.1-13.27-.225,5.943-.225,13.27-.225S237.1,164.714,237.1,164.835Z" transform="translate(-138.103 -56.731)" fill="#263238"/>
      </g>
      <g id="freepik--Character--inject-104" transform="translate(142.043 66.566)">
        <path id="Path_8510" data-name="Path 8510" d="M443.755,203.705h-9.247L420.46,244.025,441.9,275.772c6.644,1.393,14.4,2.517,19.481-1.981,4.178-3.7,4.9-9.887,5.112-15.476a222.305,222.305,0,0,0-.58-26.946c-.554-6.73-1.505-13.676-5.1-19.4s-10.476-9.87-17.059-8.261" transform="translate(-308.476 -128.527)" fill="#455a64"/>
        <path id="Path_8511" data-name="Path 8511" d="M456.876,276.414a7.532,7.532,0,0,0,.77-.156,4.326,4.326,0,0,0,1.877-1.151,6.34,6.34,0,0,0,1.617-3.08,29.912,29.912,0,0,0,.545-4.68,266.386,266.386,0,0,0,.554-27.4,137.79,137.79,0,0,0-1.133-15.034,46.616,46.616,0,0,0-3.227-11.825,32.378,32.378,0,0,0-4.178-7.128c-.614-.77-1.116-1.341-1.462-1.73l-.389-.441a.976.976,0,0,1-.13-.156s.061,0,.164.13l.424.407c.372.363.865.917,1.523,1.67a31.088,31.088,0,0,1,4.325,7.111,46.19,46.19,0,0,1,3.322,11.9,130.387,130.387,0,0,1,1.176,15.078,238.116,238.116,0,0,1-.692,27.448,27.845,27.845,0,0,1-.614,4.723,6.479,6.479,0,0,1-1.73,3.14,4.325,4.325,0,0,1-1.972,1.107,2.414,2.414,0,0,1-.77.069Z" transform="translate(-312.695 -128.564)" fill="#263238"/>
        <path id="Path_8512" data-name="Path 8512" d="M472.713,258.71a7.128,7.128,0,0,1-4.022,1.445,7.206,7.206,0,0,1-4.23-.666,22.209,22.209,0,0,0,4.187.216,23.635,23.635,0,0,0,4.066-.995Z" transform="translate(-314.415 -135.998)" fill="#263238"/>
        <path id="Path_8513" data-name="Path 8513" d="M472.031,235.638a8.978,8.978,0,0,1-4.074,1.592,8.8,8.8,0,0,1-4.377-.1c0-.138,1.964.087,4.325-.337S471.971,235.508,472.031,235.638Z" transform="translate(-314.296 -132.882)" fill="#263238"/>
        <path id="Path_8514" data-name="Path 8514" d="M448.332,202.808s-1.151-4.533.978-4.8,8.3,2.448,7.353,4.87a19.247,19.247,0,0,1-2.111,4l-.865-1.176s1.471-1.817,1.3-3.062-4.265-3.382-4.888-2.137a5.883,5.883,0,0,0-.623,2.379Z" transform="translate(-312.196 -127.803)" fill="#263238"/>
        <path id="Path_8515" data-name="Path 8515" d="M350.783,210.093l-36.963.718-5.977-.519s-13.521-.381-14.818-.58c-1.5-.234-1.972.432-2.016.986-.078.865.865,1.644,2.163,1.886.441.078,7.465,1.107,7.465,1.107a17.176,17.176,0,0,0-2.1,1.064c-1.471.865-2.6,3.157-2.907,5.666s-.173,3.244.8,3.408a1.263,1.263,0,0,0,1.021-.346,3.529,3.529,0,0,0,.952-1.851c.822-4.784,2.725-4.472,2.725-4.472h.865s-2.163,2.249-1.73,4.325a2.231,2.231,0,0,0,.363.865,3.166,3.166,0,0,0,4.247,3.46c.5-.19,1-.605.977-1.142a1.548,1.548,0,0,0-.32-.77,3.47,3.47,0,0,1-.208-.4l2.215-.121s4.965-.528,7.154-.51l34.731,1.15c4.939.519,10.294-.528,10.726-5.476h0C360.576,213.077,356.19,209.8,350.783,210.093Z" transform="translate(-291.005 -129.378)" fill="#ffbe9d"/>
        <path id="Path_8516" data-name="Path 8516" d="M315.029,212.083a1.842,1.842,0,0,1-1.28,1.73c-.709.3-1.505.346-2.232.588-2.189.727-3.547,3.105-5.77,3.728-.3.086-.718.1-.865-.19s.052-.571.234-.8l4.68-6.055" transform="translate(-292.871 -129.569)" fill="#ffbe9d"/>
        <path id="Path_8517" data-name="Path 8517" d="M309.764,211.1a3.038,3.038,0,0,0-.58.6c-.346.407-.865,1-1.427,1.73l-2.085,2.6-.6.761a1.47,1.47,0,0,0-.476,1.038.64.64,0,0,0,.493.528,1.4,1.4,0,0,0,.631,0,5.45,5.45,0,0,0,1.038-.424,28.132,28.132,0,0,0,3.261-2.517,5.66,5.66,0,0,1,1.505-.865c.5-.182,1.021-.26,1.488-.389a2.716,2.716,0,0,0,1.886-1.272,1,1,0,0,0,.1-.865,2.25,2.25,0,0,1-.251.753,2.6,2.6,0,0,1-1.808,1.064,15.213,15.213,0,0,0-1.531.337,5.847,5.847,0,0,0-1.618.865,35.831,35.831,0,0,1-3.227,2.457,5.12,5.12,0,0,1-.943.381c-.311.078-.6,0-.6-.147A1.776,1.776,0,0,1,305.4,217l.588-.761L308,213.565c.562-.761,1.021-1.384,1.323-1.825A3.583,3.583,0,0,0,309.764,211.1Z" transform="translate(-292.84 -129.572)" fill="#eb996e"/>
        <path id="Path_8518" data-name="Path 8518" d="M302.73,218.292a2.976,2.976,0,0,0-1.419.251,2.438,2.438,0,0,0-1.073,1.081,6.288,6.288,0,0,0-.562,1.851,10.105,10.105,0,0,1-.484,1.955,3.132,3.132,0,0,1-.96,1.358,1.272,1.272,0,0,1-1.1.234c-.26-.078-.372-.182-.363-.19a1.019,1.019,0,0,1,.389.087,1.211,1.211,0,0,0,.952-.285,3.158,3.158,0,0,0,.865-1.3,10.905,10.905,0,0,0,.45-1.912,6.151,6.151,0,0,1,.614-1.929,2.543,2.543,0,0,1,1.22-1.133,2.232,2.232,0,0,1,1.107-.173C302.6,218.214,302.739,218.275,302.73,218.292Z" transform="translate(-291.783 -130.527)" fill="#eb996e"/>
        <path id="Path_8519" data-name="Path 8519" d="M293,212.92a7.6,7.6,0,0,1,1.393.2l3.348.554,3.356.5a9.656,9.656,0,0,1,1.393.242,5.542,5.542,0,0,1-1.41-.043c-.865-.078-2.067-.216-3.382-.424s-2.491-.441-3.339-.64A6.509,6.509,0,0,1,293,212.92Z" transform="translate(-291.274 -129.818)" fill="#eb996e"/>
        <path id="Path_8520" data-name="Path 8520" d="M304.832,220.42a1.89,1.89,0,0,1-.225.381,1.315,1.315,0,0,0-.216,1.073.71.71,0,0,0,.528.45,3.7,3.7,0,0,0,.917.078,1.583,1.583,0,0,1,1.073.337,1.366,1.366,0,0,1,.389,1.151,1.54,1.54,0,0,1-.649,1.021,1.86,1.86,0,0,1-1.055.372,6.1,6.1,0,0,1-1.791-.311,3.608,3.608,0,0,1-1.1-.528,1,1,0,0,1-.294-.337s.121.1.355.242a4.325,4.325,0,0,0,1.1.433,6.66,6.66,0,0,0,1.73.242,1.505,1.505,0,0,0,1.427-1.168,1.073,1.073,0,0,0-.294-.917,1.341,1.341,0,0,0-.865-.277,4.085,4.085,0,0,1-.978-.112.917.917,0,0,1-.649-.614,1.367,1.367,0,0,1,.32-1.194C304.7,220.515,304.815,220.411,304.832,220.42Z" transform="translate(-292.544 -130.83)" fill="#eb996e"/>
        <path id="Path_8521" data-name="Path 8521" d="M306.407,225.308a.588.588,0,0,1,.389.1,1.211,1.211,0,0,1,.588.926,1.635,1.635,0,0,1-.709,1.462,2.725,2.725,0,0,1-1.955.4,3.244,3.244,0,0,1-1.773-.865,3.114,3.114,0,0,1-.813-1.4,2.993,2.993,0,0,1-.087-1.09c0-.251.087-.389.1-.381a4.785,4.785,0,0,0,.173,1.41,3.071,3.071,0,0,0,.8,1.28,3.105,3.105,0,0,0,1.635.8,2.5,2.5,0,0,0,1.73-.337,1.453,1.453,0,0,0,.657-1.228,1.185,1.185,0,0,0-.45-.865C306.537,225.36,306.4,225.334,306.407,225.308Z" transform="translate(-292.493 -131.375)" fill="#eb996e"/>
        <path id="Path_8522" data-name="Path 8522" d="M313,220.085a1.4,1.4,0,0,1,.112-.666,2.6,2.6,0,0,1,1.107-1.323v.242a7.008,7.008,0,0,1-.917-.294,6.055,6.055,0,0,1-2.7-1.9,14.7,14.7,0,0,0,2.8,1.635,8.924,8.924,0,0,0,.865.3l.3.1-.277.156a2.776,2.776,0,0,0-1.09,1.159A3.622,3.622,0,0,1,313,220.085Z" transform="translate(-293.649 -130.252)" fill="#eb996e"/>
        <path id="Path_8523" data-name="Path 8523" d="M299.549,218.719c.043-.061.5.285.675.943s-.061,1.185-.13,1.151,0-.51-.147-1.081S299.488,218.771,299.549,218.719Z" transform="translate(-292.157 -130.599)" fill="#eb996e"/>
        <path id="Path_8524" data-name="Path 8524" d="M382.588,183.17c-.571.8-25.83,20.8-28.962,21.626s-32.006,1.263-32.006,1.263-2.258,17.759-1.514,18.97c2.742,4.429,35.726,16.15,51.461.277l11.012-40.259" transform="translate(-294.912 -125.803)" fill="#d16800"/>
        <path id="Path_8525" data-name="Path 8525" d="M355.654,219.113a4.43,4.43,0,0,1-.311-1.557,14.2,14.2,0,0,1,1.436-7.474,4.489,4.489,0,0,1,.865-1.332,32.313,32.313,0,0,0-1.652,5.052A32.775,32.775,0,0,0,355.654,219.113Z" transform="translate(-299.682 -129.255)" fill="#263238"/>
        <path id="Path_8526" data-name="Path 8526" d="M358.773,219.693a5.866,5.866,0,0,1-.355-1.73,37.115,37.115,0,0,1-.173-8.313,5.651,5.651,0,0,1,.294-1.73c.13,0-.061,2.6,0,5.856S358.877,219.676,358.773,219.693Z" transform="translate(-300.059 -129.143)" fill="#263238"/>
        <g id="Group_1469" data-name="Group 1469" transform="translate(52.993 79.288)" opacity="0.3">
          <path id="Path_8527" data-name="Path 8527" d="M357.1,208.752a14.161,14.161,0,0,0-4.118,15.086c.277.813.753,1.73,1.592,1.86a1.869,1.869,0,0,0,1.877-1.081,5.459,5.459,0,0,0,.432-2.266l.649-13.841" transform="translate(-352.266 -208.51)"/>
        </g>
        <path id="Path_8528" data-name="Path 8528" d="M391.429,186.2l.666-4.256-5.372,4.732-2.673,9.273Z" transform="translate(-303.562 -125.637)" fill="#263238"/>
        <path id="Path_8529" data-name="Path 8529" d="M393.94,176.609l-3.772,2.119L378.057,199.1l.052,10.666s-2.855,7.465-3.028,13.451,0,27.906,0,27.906L359.71,352.748l13.105,4.23,25.951-118.328V175Z" transform="translate(-300.277 -124.7)" fill="#d16800"/>
        <g id="Group_1470" data-name="Group 1470" transform="translate(62.157 77.981)" opacity="0.3">
          <path id="Path_8530" data-name="Path 8530" d="M373.241,361.3l-10.38-3.348,14.827-110.24s-2.483-16.159,0-23.235,6.3-17.474,6.3-17.474l-4.325,19.74c.545,14.783-.363,32.43-1.946,51.444h3.962Z" transform="translate(-362.86 -207)"/>
        </g>
        <path id="Path_8531" data-name="Path 8531" d="M387.447,189.14a2.981,2.981,0,0,1-.311.536c-.2.355-.545.865-.934,1.514a46.482,46.482,0,0,0-2.906,5.839,61.29,61.29,0,0,0-2.933,9.221,99.687,99.687,0,0,0-1.946,11.7c-.476,4.2-.761,8.2-.865,11.851s-.113,6.92-.087,9.706,0,4.957,0,6.557v1.782a4.151,4.151,0,0,1,0,.614,2.717,2.717,0,0,1-.052-.614c0-.45,0-1.047-.061-1.782-.043-1.6-.1-3.823-.173-6.548s-.112-6.055,0-9.732.389-7.682.865-11.877a96.88,96.88,0,0,1,1.99-11.756,58.2,58.2,0,0,1,3.045-9.247,40.857,40.857,0,0,1,3.054-5.813c.407-.649.779-1.133,1.012-1.471A3.041,3.041,0,0,1,387.447,189.14Z" transform="translate(-302.626 -126.608)" fill="#263238"/>
        <g id="Group_1471" data-name="Group 1471" transform="translate(68.541 87.497)" opacity="0.3">
          <path id="Path_8532" data-name="Path 8532" d="M370.508,235.3a62.161,62.161,0,0,1,6.583-17.3,90.432,90.432,0,0,1-.718,11.652,4.472,4.472,0,0,1-.761,2.344,4.62,4.62,0,0,1-1.4,1.038l-3.971,2.206" transform="translate(-370.24 -218)"/>
        </g>
        <path id="Path_8533" data-name="Path 8533" d="M433.011,141.282a11.107,11.107,0,0,1,4.835-5.363,7.621,7.621,0,0,1,7.067-.078,5.83,5.83,0,0,1,2.924,6.194,7.994,7.994,0,1,1-7.1,14.325c2.016,2.664.294,7.015-2.863,8.088s-6.834-.787-8.408-3.728a11.031,11.031,0,0,1,.1-9.654" transform="translate(-309.548 -119.303)" fill="#263238"/>
        <path id="Path_8534" data-name="Path 8534" d="M431.631,143.881a3.564,3.564,0,0,1,2.742-2.154,2.863,2.863,0,0,1,2.941,1.73,2.413,2.413,0,0,1-1.272,3.028,3.348,3.348,0,0,1-1.306,6.4,3.1,3.1,0,0,1-4.593,3.979,4.161,4.161,0,0,1-1.427-2.837,12.459,12.459,0,0,1,.208-3.253c.251-1.626.493-3.261.744-4.887a5.267,5.267,0,0,1,.614-2.067,1.817,1.817,0,0,1,1.816-.926" transform="translate(-309.587 -120.207)" fill="#d16800"/>
        <path id="Path_8535" data-name="Path 8535" d="M385.424,127.153a5.636,5.636,0,0,1,1.3-6.566,9.247,9.247,0,0,1,6.652-2.214,27.015,27.015,0,0,1,7.033,1.462,7.664,7.664,0,0,1,13.443,2.6,4.862,4.862,0,0,1,6.531,5.605l-10.164,5.112-9.005,21.894a9.386,9.386,0,0,1-15.259-10.6,7.838,7.838,0,0,1-1.894-1.808,8.2,8.2,0,0,1-4.412-4.559,8.65,8.65,0,0,1,5.779-10.925Z" transform="translate(-302.913 -116.852)" fill="#263238"/>
        <path id="Path_8536" data-name="Path 8536" d="M399.791,170.138c.234-3.417.4-5.761.4-5.735s-6.592-1.635-7.292-10.467c-.346-4.394.441-11.479,1.263-17.3.744-5.19,4.714-11.349,9.887-10.38l15.951,5.4c1.566.294,2.016,1.678,1.86,3.261l.069.761-2.733,24.948-1.081,11.116a9.2,9.2,0,0,1-9.29,8.235h0a9.213,9.213,0,0,1-9.031-9.835Z" transform="translate(-304.745 -118.107)" fill="#ffbe9d"/>
        <path id="Path_8537" data-name="Path 8537" d="M396.29,146.145a1.142,1.142,0,0,0,.995,1.22,1.073,1.073,0,0,0,1.228-.917,1.125,1.125,0,0,0-.986-1.22,1.081,1.081,0,0,0-1.237.917Z" transform="translate(-305.214 -120.68)" fill="#263238"/>
        <path id="Path_8538" data-name="Path 8538" d="M396.058,143.632c.121.156,1.021-.407,2.223-.3s2.041.77,2.18.631-.052-.337-.415-.649a3.071,3.071,0,0,0-1.73-.683,2.985,2.985,0,0,0-1.782.424C396.136,143.3,396.006,143.563,396.058,143.632Z" transform="translate(-305.182 -120.33)" fill="#263238"/>
        <path id="Path_8539" data-name="Path 8539" d="M408.919,147.165a1.125,1.125,0,0,0,.995,1.211,1.073,1.073,0,0,0,1.228-.917,1.116,1.116,0,0,0-.986-1.211,1.073,1.073,0,0,0-1.237.917Z" transform="translate(-306.918 -120.817)" fill="#263238"/>
        <path id="Path_8540" data-name="Path 8540" d="M409.358,144.421c.13.156,1.029-.407,2.232-.311s2.033.77,2.18.631-.052-.329-.415-.64a3.106,3.106,0,0,0-1.73-.692,2.95,2.95,0,0,0-1.791.433C409.444,144.092,409.3,144.343,409.358,144.421Z" transform="translate(-306.976 -120.435)" fill="#263238"/>
        <path id="Path_8541" data-name="Path 8541" d="M403.135,152.446a7.7,7.7,0,0,0-1.92-.51c-.311-.061-.6-.138-.631-.355a1.626,1.626,0,0,1,.277-.865l1.1-2.275a40.77,40.77,0,0,0,2.526-5.951,40.007,40.007,0,0,0-3,5.735l-1.055,2.284a1.783,1.783,0,0,0-.26,1.194.77.77,0,0,0,.476.493,1.825,1.825,0,0,0,.51.112A8.385,8.385,0,0,0,403.135,152.446Z" transform="translate(-305.735 -120.312)" fill="#263238"/>
        <path id="Path_8542" data-name="Path 8542" d="M401.31,170.069a22.283,22.283,0,0,0,11.92-2.189s-3.46,5.917-12.11,4.412Z" transform="translate(-305.866 -123.739)" fill="#eb996e"/>
        <path id="Path_8543" data-name="Path 8543" d="M409.649,140.656c.121.329,1.323.164,2.742.329s2.6.536,2.751.242c.086-.138-.121-.45-.58-.761a4.49,4.49,0,0,0-2.042-.7,4.68,4.68,0,0,0-2.145.26C409.857,140.241,409.6,140.5,409.649,140.656Z" transform="translate(-307.017 -119.941)" fill="#263238"/>
        <path id="Path_8544" data-name="Path 8544" d="M396.315,140.894c.225.294,1.228.087,2.413.173s2.163.355,2.413.087c.112-.13,0-.415-.441-.709a3.755,3.755,0,0,0-1.92-.606,3.676,3.676,0,0,0-1.964.4C396.376,140.487,396.211,140.755,396.315,140.894Z" transform="translate(-305.214 -119.953)" fill="#263238"/>
        <path id="Path_8545" data-name="Path 8545" d="M414.785,126.151a5.986,5.986,0,0,1-7.491,5.355c-1.315-.346-2.725-1.133-3.927-.51s-1.462,2.474-2.6,3.33c-1.644,1.211-3.988-.225-5.986.2-1.54.337-2.6,1.73-3.685,2.837s-2.682,2.171-4.161,1.609a18.32,18.32,0,0,1,.908-3.979,5.977,5.977,0,0,1,2.535-3.1c.657-.363,1.4-.554,2.016-.978,1.332-.908,1.73-2.647,2.6-4A6.566,6.566,0,0,1,400.227,124c1.73-.043,3.46.606,5.19.32,1.254-.216,2.4-.943,3.668-1.081,2.474-.277,4.611,1.652,6.246,3.529" transform="translate(-303.953 -117.71)" fill="#263238"/>
        <path id="Path_8546" data-name="Path 8546" d="M409.794,129.216c1.116-.225,3.408-.761,4.066-1.67a6.722,6.722,0,0,1,6.055-2.889,5.536,5.536,0,0,1,4.628,4.74,7.958,7.958,0,0,1,6.479,4.913,9.221,9.221,0,0,1-.865,8.529,16.222,16.222,0,0,0-1.073,2.007,13.5,13.5,0,0,1,1.678,1.946c2.31,3.754-2.379,5.908-2.379,5.908.329,2.682-2.145,2.984-3.728,3.183s-1.92,4.533-3.175,4.524l-.424-13.209a1.731,1.731,0,0,1-.571.182c-2.976.433-2.924-5.32-2.145-6.92a16.99,16.99,0,0,1-2.7-3.322,12.275,12.275,0,0,1-.865-6.055C413.687,131.145,409.3,129.319,409.794,129.216Z" transform="translate(-307.032 -117.903)" fill="#263238"/>
        <path id="Path_8547" data-name="Path 8547" d="M422.3,151.279a2.6,2.6,0,0,1,3.893-1.886c.865.58,1.436,1.661,1.211,3.624-.623,5.233-5.753,3.529-5.744,3.382S422.032,153.442,422.3,151.279Z" transform="translate(-308.638 -121.195)" fill="#ffbe9d"/>
        <path id="Path_8548" data-name="Path 8548" d="M423.779,154.85a2.6,2.6,0,0,0,.225.156.934.934,0,0,0,.683.1,2.258,2.258,0,0,0,1.289-1.894,3.113,3.113,0,0,0-.1-1.341,1.047,1.047,0,0,0-.606-.779.458.458,0,0,0-.562.182c-.1.138-.069.251-.1.251s-.1-.1,0-.311a.545.545,0,0,1,.242-.3.7.7,0,0,1,.519-.069,1.289,1.289,0,0,1,.865.926,3.149,3.149,0,0,1,.147,1.5,2.4,2.4,0,0,1-1.6,2.1.986.986,0,0,1-.822-.242C423.77,154.971,423.762,154.85,423.779,154.85Z" transform="translate(-308.924 -121.436)" fill="#eb996e"/>
        <path id="Path_8549" data-name="Path 8549" d="M389.288,144.667a7.686,7.686,0,0,1-1.246-1,7.586,7.586,0,0,1-2.119-3.737,7.322,7.322,0,0,1-.1-2.958,6.366,6.366,0,0,1,1.445-3.036,7.439,7.439,0,0,1,7.059-2.336,6.24,6.24,0,0,1,.718.2c.234.078.45.182.666.268l.337.138-.043-.346a2.6,2.6,0,0,1,.424-1.73,4.075,4.075,0,0,1,1.323-1.228,5.389,5.389,0,0,1,3.356-.683c2.232.216,4.2.969,5.977.943a5.571,5.571,0,0,0,3.823-1.289,3.138,3.138,0,0,0,.675-.865,1.726,1.726,0,0,0,.13-.363,4.41,4.41,0,0,1-.865,1.133,5.571,5.571,0,0,1-3.728,1.133,13.955,13.955,0,0,1-2.742-.424,23.244,23.244,0,0,0-3.209-.614,7.017,7.017,0,0,0-1.8.052,5.483,5.483,0,0,0-1.782.657,4.437,4.437,0,0,0-1.462,1.349,2.967,2.967,0,0,0-.493,2.016l.294-.216-.709-.294a7.605,7.605,0,0,0-.761-.208,7.829,7.829,0,0,0-7.448,2.491,6.7,6.7,0,0,0-1.488,3.227,7.586,7.586,0,0,0,.147,3.088,7.422,7.422,0,0,0,2.266,3.78,5.372,5.372,0,0,0,.986.709A2.364,2.364,0,0,0,389.288,144.667Z" transform="translate(-303.749 -118.173)" fill="#455a64"/>
        <path id="Path_8550" data-name="Path 8550" d="M388.44,126.038a5.553,5.553,0,0,1,1.557-.77,4.421,4.421,0,0,1,1.964-.078,3.841,3.841,0,0,1,2.189,1.2l.225.251.078-.329a5.977,5.977,0,0,1,4.325-4.187,7.785,7.785,0,0,1,4.792.735,20.337,20.337,0,0,0,3.9,1.427,5.778,5.778,0,0,0,2.82,0A3.5,3.5,0,0,0,411,124c.147-.087.225-.138.216-.156a8.3,8.3,0,0,1-.969.294,5.986,5.986,0,0,1-2.708-.1,22.541,22.541,0,0,1-3.823-1.488,12.438,12.438,0,0,0-2.344-.8,6.055,6.055,0,0,0-2.69,0,6.254,6.254,0,0,0-4.567,4.516l.3-.078a4.074,4.074,0,0,0-2.4-1.246,4.325,4.325,0,0,0-2.076.164,3.547,3.547,0,0,0-1.168.632A1.4,1.4,0,0,0,388.44,126.038Z" transform="translate(-304.155 -117.494)" fill="#455a64"/>
        <path id="Path_8551" data-name="Path 8551" d="M404.427,156.908a1.73,1.73,0,0,1,1.341-.588,2.05,2.05,0,0,1,1.445.8h0l.052.061h0a1,1,0,0,1,.225.571,1.445,1.445,0,0,1-.692,1.176,1.834,1.834,0,0,1-2.1,0A1.5,1.5,0,0,1,404.427,156.908Z" transform="translate(-306.275 -122.179)" fill="#d16800"/>
        <path id="Path_8552" data-name="Path 8552" d="M407.419,155.83c-.069,0-.173.259-.432.623a2.829,2.829,0,0,1-3,1.159c-.432-.1-.7-.225-.735-.164s.173.285.64.484a2.664,2.664,0,0,0,3.382-1.315C407.488,156.159,407.479,155.839,407.419,155.83Z" transform="translate(-306.153 -122.113)" fill="#263238"/>
        <path id="Path_8553" data-name="Path 8553" d="M429.693,136.7a1.5,1.5,0,0,0,.225-.173,5.885,5.885,0,0,0,.588-.58,6.056,6.056,0,0,0,1.419-2.69,4.769,4.769,0,0,0,0-2.128,4.4,4.4,0,0,0-1.168-2.137,3.46,3.46,0,0,0-2.491-1.012,3.252,3.252,0,0,0-2.6,1.228l.242.13v-.061a7.214,7.214,0,0,0-.147-5.484,4.758,4.758,0,0,0-3.529-2.708,3.927,3.927,0,0,0-2.915.865,3.268,3.268,0,0,0-.562.614.867.867,0,0,0-.138.26,4.573,4.573,0,0,1,.77-.787,3.824,3.824,0,0,1,2.82-.709,4.55,4.55,0,0,1,3.33,2.6,7.033,7.033,0,0,1,.1,5.285v.061l-.268.8.51-.683a2.967,2.967,0,0,1,2.379-1.116,3.235,3.235,0,0,1,2.31.917,4.1,4.1,0,0,1,1.125,2.016,4.464,4.464,0,0,1,0,2.024,6.2,6.2,0,0,1-1.306,2.656C429.978,136.423,429.667,136.683,429.693,136.7Z" transform="translate(-308.228 -117.42)" fill="#263238"/>
        <path id="Path_8554" data-name="Path 8554" d="M440.66,155.352l.147.061.424.156c.372.13.926.32,1.652.545a23.552,23.552,0,0,0,2.682.675,12.457,12.457,0,0,0,3.659.164,8.443,8.443,0,0,0,4.135-1.566,6.532,6.532,0,0,0,2.474-4.36,10.1,10.1,0,0,0-.865-5.545,6.921,6.921,0,0,0-1.73-2.422,4.412,4.412,0,0,0-2.889-1.09,3.46,3.46,0,0,0-2.119.683l.19.208a6.124,6.124,0,0,0,1.384-2.6,6.99,6.99,0,0,0,.112-2.8,6.272,6.272,0,0,0-2.82-4.325A7.336,7.336,0,0,0,442.511,132a7.076,7.076,0,0,0-3.815,1.462,8.218,8.218,0,0,0-2.163,2.6,8.709,8.709,0,0,0-.865,2.4,7.563,7.563,0,0,0-.138,1.592v.554a10.21,10.21,0,0,1,.2-2.128,8.65,8.65,0,0,1,.865-2.344,7.907,7.907,0,0,1,2.137-2.509,7,7,0,0,1,3.72-1.4,7.232,7.232,0,0,1,4.42,1.1,6.055,6.055,0,0,1,2.69,4.178,6.788,6.788,0,0,1-.121,2.7,5.761,5.761,0,0,1-1.315,2.431l.182.2a3.14,3.14,0,0,1,1.946-.623,4.152,4.152,0,0,1,2.707,1.021,6.618,6.618,0,0,1,1.73,2.327,9.984,9.984,0,0,1,.865,5.4,6.306,6.306,0,0,1-2.388,4.221,8.391,8.391,0,0,1-4.022,1.557,12.544,12.544,0,0,1-3.607-.13,24.974,24.974,0,0,1-2.673-.623l-1.67-.493-.432-.13A.721.721,0,0,1,440.66,155.352Z" transform="translate(-310.51 -118.892)" fill="#263238"/>
        <path id="Path_8555" data-name="Path 8555" d="M432.23,167.378a4.717,4.717,0,0,0,.623.389,12.407,12.407,0,0,0,1.825.865,7.734,7.734,0,0,0,2.933.519A5.363,5.363,0,0,0,441,167.828a4.125,4.125,0,0,0,1.064-1.6,5.512,5.512,0,0,0,.3-1.73,7.657,7.657,0,0,0-.614-2.915,14.6,14.6,0,0,0-.865-1.8,3.348,3.348,0,0,0-.389-.623,4.52,4.52,0,0,0,.294.666c.2.433.5,1.038.8,1.825a7.69,7.69,0,0,1,.536,2.846,4.325,4.325,0,0,1-1.289,3.157,5.19,5.19,0,0,1-3.218,1.263,7.942,7.942,0,0,1-2.863-.441C433.156,167.871,432.256,167.317,432.23,167.378Z" transform="translate(-310.065 -122.562)" fill="#263238"/>
        <path id="Path_8556" data-name="Path 8556" d="M428.516,171.019a1.729,1.729,0,0,1-.666-.268,1.885,1.885,0,0,1-.727-1.73,1.565,1.565,0,0,1,.605-1.116,1.09,1.09,0,0,1,1.341,0,.986.986,0,0,1,.311.675.744.744,0,0,1-.372.64,1.246,1.246,0,0,1-.822.121,2.12,2.12,0,0,1-.865-.32,3.815,3.815,0,0,1-1.618-3.028,7.12,7.12,0,0,1,.554-2.9,6.057,6.057,0,0,1,.865-1.782.813.813,0,0,1,.631-.285.372.372,0,0,0-.19,0,.865.865,0,0,0-.519.242,2.336,2.336,0,0,0-.511.727c-.156.3-.329.657-.493,1.055a7.187,7.187,0,0,0-.631,2.984,4.532,4.532,0,0,0,.441,1.73,3.556,3.556,0,0,0,1.289,1.488,1.947,1.947,0,0,0,1.955.2.986.986,0,0,0,.493-.865,1.237,1.237,0,0,0-.4-.865,1.194,1.194,0,0,0-.865-.285,1.583,1.583,0,0,0-.8.285,1.73,1.73,0,0,0-.657,1.289,2,2,0,0,0,.865,1.834,1.341,1.341,0,0,0,.536.19C428.446,171.045,428.516,171.028,428.516,171.019Z" transform="translate(-309.145 -122.812)" fill="#263238"/>
        <path id="Path_8557" data-name="Path 8557" d="M448.347,157.571a.709.709,0,0,0,.242,0,1.944,1.944,0,0,0,.675-.086,2.768,2.768,0,0,0,1.73-1.73,3.607,3.607,0,0,0-.969-3.5,5.32,5.32,0,0,0-4.178-1.644,5.9,5.9,0,0,0-1.073.173l.164.182a4.23,4.23,0,0,0-.8-4.022,3.8,3.8,0,0,0-1.479-1.073,4.117,4.117,0,0,0-1.557-.277,3.953,3.953,0,0,0-2.154.631,2.715,2.715,0,0,0-.484.372c-.1.1-.147.156-.138.164a7.867,7.867,0,0,1,.675-.45,4.092,4.092,0,0,1,3.573-.234,3.46,3.46,0,0,1,1.375,1.029,3.988,3.988,0,0,1,.727,3.763l-.086.251.251-.069a5.47,5.47,0,0,1,1.021-.164,5.138,5.138,0,0,1,3.979,1.54,3.46,3.46,0,0,1,.969,3.27,2.716,2.716,0,0,1-1.583,1.73A3.112,3.112,0,0,1,448.347,157.571Z" transform="translate(-310.888 -120.731)" fill="#455a64"/>
        <path id="Path_8558" data-name="Path 8558" d="M448.949,140.725a1.047,1.047,0,0,0-.355-.138,2.934,2.934,0,0,0-1.055-.061,3.459,3.459,0,0,0-1.522.536,3.313,3.313,0,0,0-1.315,1.566l.225-.043a2.743,2.743,0,0,0-1.661-.865,3.9,3.9,0,0,0-2.6.606,5.9,5.9,0,0,0-1.566,1.54,9.745,9.745,0,0,0-.77,1.246,1.654,1.654,0,0,0-.225.493c.043,0,.407-.657,1.15-1.626a6.427,6.427,0,0,1,1.548-1.436,3.668,3.668,0,0,1,2.439-.545,2.509,2.509,0,0,1,1.5.753l.147.164.078-.2a3.149,3.149,0,0,1,1.194-1.471,3.565,3.565,0,0,1,1.419-.562A5.086,5.086,0,0,1,448.949,140.725Z" transform="translate(-310.859 -120.044)" fill="#455a64"/>
        <path id="Path_8559" data-name="Path 8559" d="M417.335,171.2l-19.576,2.777-.865,6.185s-9.732,17.015-10.6,22.007-5.19,17.3-4.325,26.626S380,273.335,380,273.335h4.974l19.29-46.946Z" transform="translate(-303.016 -124.187)" fill="#263238"/>
        <path id="Path_8560" data-name="Path 8560" d="M437.03,432.447l4.913,17.777s-16.7,9.654-16.116,13.027l35.095-6.981L454.4,428.26Z" transform="translate(-309.199 -158.881)" fill="#d16800"/>
        <g id="Group_1472" data-name="Group 1472" transform="translate(141.715 287.268)" opacity="0.6">
          <path id="Path_8561" data-name="Path 8561" d="M456.266,448.94a1.47,1.47,0,0,1,1.367,1.393,1.4,1.4,0,0,1-1.367,1.367,1.54,1.54,0,0,1-1.436-1.479,1.453,1.453,0,0,1,1.574-1.263" transform="translate(-454.83 -448.94)" fill="#fff"/>
        </g>
        <g id="Group_1473" data-name="Group 1473" transform="translate(116.495 294.569)" opacity="0.6">
          <path id="Path_8562" data-name="Path 8562" d="M460.9,460.2l-.657-2.82L426.6,465.3a2.457,2.457,0,0,0-.908,2.171Z" transform="translate(-425.675 -457.38)" fill="#fff"/>
        </g>
        <path id="Path_8563" data-name="Path 8563" d="M443.759,453.548c.052.164.917,0,1.886.389s1.583.96,1.73.865-.346-1.021-1.522-1.419S443.69,453.4,443.759,453.548Z" transform="translate(-311.621 -162.249)" fill="#263238"/>
        <path id="Path_8564" data-name="Path 8564" d="M440,456.329c0,.173.8.286,1.548.865s1.1,1.306,1.272,1.254,0-1.029-.865-1.73S439.93,456.164,440,456.329Z" transform="translate(-311.113 -162.65)" fill="#263238"/>
        <path id="Path_8565" data-name="Path 8565" d="M438.451,461.588c.156,0,.19-.908-.467-1.73s-1.54-1.012-1.574-.865.571.536,1.1,1.22S438.278,461.588,438.451,461.588Z" transform="translate(-310.629 -163.022)" fill="#263238"/>
        <path id="Path_8566" data-name="Path 8566" d="M443,448.6c.1.138.865-.277,1.808-.441s1.8-.043,1.851-.208-.813-.606-1.964-.389S442.868,448.486,443,448.6Z" transform="translate(-311.516 -161.478)" fill="#263238"/>
        <g id="Group_1474" data-name="Group 1474" transform="translate(128.809 273.142)" opacity="0.3">
          <path id="Path_8567" data-name="Path 8567" d="M439.91,436.555l.874,3.166,17.067-4.23-.666-2.881Z" transform="translate(-439.91 -432.61)"/>
        </g>
        <path id="Path_8568" data-name="Path 8568" d="M441.92,444a3.348,3.348,0,0,0,1.73-.424,8.278,8.278,0,0,0,1.687-.995,8.026,8.026,0,0,0,.865-.77,2.6,2.6,0,0,0,.424-.536.761.761,0,0,0-.138-.926.96.96,0,0,0-.865-.208,2.68,2.68,0,0,0-.632.242,7.5,7.5,0,0,0-.995.632,6.247,6.247,0,0,0-1.35,1.436c-.631.943-.761,1.643-.692,1.661s.355-.588,1.029-1.4a7.077,7.077,0,0,1,1.349-1.246,6.36,6.36,0,0,1,.926-.545c.346-.182.658-.259.8-.121s.06.078,0,.208a1.929,1.929,0,0,1-.32.389,9.017,9.017,0,0,1-.8.744,9.7,9.7,0,0,1-1.531,1.047,12.178,12.178,0,0,0-1.488.813Z" transform="translate(-311.373 -160.481)" fill="#263238"/>
        <path id="Path_8569" data-name="Path 8569" d="M441.727,444.015a2.837,2.837,0,0,0,.061-1.791,6.106,6.106,0,0,0-.692-1.86,6.229,6.229,0,0,0-.7-.952,1.479,1.479,0,0,0-1.315-.614.865.865,0,0,0-.614.657,2.336,2.336,0,0,0,0,.683,4.187,4.187,0,0,0,.277,1.176,4.064,4.064,0,0,0,1.176,1.626,2.283,2.283,0,0,0,1.652.709,7.31,7.31,0,0,1-1.367-1.029,4.072,4.072,0,0,1-.934-1.505,3.508,3.508,0,0,1-.208-1.012c0-.389,0-.718.182-.709a1.233,1.233,0,0,1,.744.424,6.5,6.5,0,0,1,.657.865,6.719,6.719,0,0,1,.753,1.661C441.658,443.3,441.632,444.007,441.727,444.015Z" transform="translate(-310.903 -160.302)" fill="#263238"/>
        <path id="Path_8570" data-name="Path 8570" d="M376.075,431.86,373.9,450.147s-19.117,2.6-19.844,5.951l35.12,6.825,4.559-28.347Z" transform="translate(-299.515 -159.366)" fill="#d16800"/>
        <g id="Group_1475" data-name="Group 1475" transform="translate(83.644 290.874)" opacity="0.6">
          <path id="Path_8571" data-name="Path 8571" d="M389.6,453.2a1.462,1.462,0,0,1,.744,1.808,1.4,1.4,0,0,1-1.782.744,1.531,1.531,0,0,1-.77-1.912,1.453,1.453,0,0,1,1.938-.571" transform="translate(-387.699 -453.108)" fill="#fff"/>
        </g>
        <g id="Group_1476" data-name="Group 1476" transform="translate(54.303 295.313)" opacity="0.6">
          <path id="Path_8572" data-name="Path 8572" d="M389.134,466.51l.458-2.863L355.45,458.24a2.482,2.482,0,0,0-1.669,1.669Z" transform="translate(-353.78 -458.24)" fill="#fff"/>
        </g>
        <path id="Path_8573" data-name="Path 8573" d="M376.36,452.705c0,.173.865.381,1.592,1.073s1.107,1.479,1.272,1.436.069-1.081-.865-1.894S376.351,452.541,376.36,452.705Z" transform="translate(-302.525 -162.167)" fill="#263238"/>
        <path id="Path_8574" data-name="Path 8574" d="M371.8,453.813c-.069.164.64.571,1.107,1.393s.528,1.618.7,1.644.433-.943-.173-1.955S371.825,453.648,371.8,453.813Z" transform="translate(-301.908 -162.323)" fill="#263238"/>
        <path id="Path_8575" data-name="Path 8575" d="M368.425,458.074c.147.061.528-.761.225-1.773s-1.047-1.523-1.142-1.384.329.709.562,1.549S368.252,458.031,368.425,458.074Z" transform="translate(-301.328 -162.475)" fill="#263238"/>
        <path id="Path_8576" data-name="Path 8576" d="M377.47,447.937c.052.164.865.052,1.843.268s1.678.64,1.791.51-.519-.865-1.661-1.107S377.409,447.746,377.47,447.937Z" transform="translate(-302.674 -161.481)" fill="#263238"/>
        <g id="Group_1477" data-name="Group 1477" transform="translate(75.739 276.118)" opacity="0.3">
          <path id="Path_8577" data-name="Path 8577" d="M378.958,436.05l-.4,3.261,17.4,2.552.476-2.924Z" transform="translate(-378.56 -436.05)"/>
        </g>
        <path id="Path_8578" data-name="Path 8578" d="M378.06,443.352a3.244,3.244,0,0,0,1.773.268,8.139,8.139,0,0,0,1.938-.277,8.738,8.738,0,0,0,1.1-.381,2.161,2.161,0,0,0,.605-.337.761.761,0,0,0,.216-.908.969.969,0,0,0-.692-.51,2.6,2.6,0,0,0-.683,0,6.123,6.123,0,0,0-1.159.208,6.322,6.322,0,0,0-1.8.813c-.934.632-1.315,1.237-1.263,1.28s.554-.415,1.488-.908a7.026,7.026,0,0,1,1.73-.64,6.06,6.06,0,0,1,1.073-.156c.389-.043.709,0,.778.182s0,.1-.069.2a2.522,2.522,0,0,1-.441.242c-.346.156-.692.277-1.021.389a10.8,10.8,0,0,1-1.817.389,13.785,13.785,0,0,0-1.756.147Z" transform="translate(-302.754 -160.625)" fill="#263238"/>
        <path id="Path_8579" data-name="Path 8579" d="M377.988,443.089a2.958,2.958,0,0,0,.735-1.635,5.684,5.684,0,0,0,.061-1.981,5.806,5.806,0,0,0-.285-1.142,1.471,1.471,0,0,0-.986-1.073.865.865,0,0,0-.865.381,2.6,2.6,0,0,0-.277.623,3.863,3.863,0,0,0-.19,1.194,4.169,4.169,0,0,0,.476,1.946c.545,1.021,1.237,1.341,1.254,1.28a7.245,7.245,0,0,1-.865-1.462,4.04,4.04,0,0,1-.3-1.73,3.859,3.859,0,0,1,.19-1.012c.112-.372.3-.649.441-.588a1.31,1.31,0,0,1,.528.675,5.93,5.93,0,0,1,.285,1.029,6.6,6.6,0,0,1,.069,1.817C378.187,442.448,377.9,443.089,377.988,443.089Z" transform="translate(-302.5 -160.093)" fill="#263238"/>
        <path id="Path_8580" data-name="Path 8580" d="M405.272,368.286c0,.649-8.036,63.45-8.036,63.45l-23.356-4.429,9.386-64.817Z" transform="translate(-302.19 -150.004)" fill="#263238"/>
        <path id="Path_8581" data-name="Path 8581" d="M439.182,361.43c.216.614,16.436,64.013,16.436,64.013l-22.2,5.112L414.39,362.347Z" transform="translate(-307.657 -149.861)" fill="#263238"/>
        <path id="Path_8582" data-name="Path 8582" d="M412.679,173.277l4.567-1.557,7.976,10.9,2.145,35.017-5.51,18.036S437.428,270,437.644,278.517s7.232,87.844,7.232,87.844L373,372.218l13.278-129.756s1.73-31.816,3.763-36.574S412.679,173.277,412.679,173.277Z" transform="translate(-302.071 -124.257)" fill="#d16800"/>
        <path id="Path_8583" data-name="Path 8583" d="M424.044,300.146a.867.867,0,0,1-.277.138,4.473,4.473,0,0,1-.865.234,6.126,6.126,0,0,1-3.287-.476,8.771,8.771,0,0,1-3.711-3.227,23.727,23.727,0,0,1-2.543-5.458,34.911,34.911,0,0,1-1.851-10.718,31.276,31.276,0,0,1,.147-3.3,5.271,5.271,0,0,1,.19-1.194,7.51,7.51,0,0,1,0,1.2c0,.779-.052,1.9,0,3.279a37.8,37.8,0,0,0,1.955,10.588,24.574,24.574,0,0,0,2.465,5.363,8.651,8.651,0,0,0,3.46,3.166,6.376,6.376,0,0,0,3.131.6C423.629,300.241,424.044,300.1,424.044,300.146Z" transform="translate(-307.268 -138.351)" fill="#263238"/>
        <path id="Path_8584" data-name="Path 8584" d="M444.835,381h-.355l-1.055.1-4.057.372-15.095,1.3-51.314,4.3H372.7V386.8c.571-5.64,1.168-11.479,1.782-17.465,2.543-24.628,4.853-46.92,6.522-63.07.865-8.053,1.54-14.585,2.024-19.109.251-2.24.441-3.988.571-5.19.069-.58.121-1.029.164-1.349a4.352,4.352,0,0,1,.069-.458v.458c0,.3-.061.779-.112,1.358-.112,1.2-.277,2.958-.493,5.19-.441,4.533-1.09,11.064-1.886,19.126-1.635,16.159-3.893,38.451-6.384,63.078-.614,5.986-1.211,11.825-1.791,17.465l-.242-.242,51.314-4.1,15.1-1.168,4.066-.294,1.047-.061a2.863,2.863,0,0,1,.381.026Z" transform="translate(-302.031 -138.893)" fill="#263238"/>
        <path id="Path_8585" data-name="Path 8585" d="M423.248,178.18a2.184,2.184,0,0,1-.19.138l-.571.355-2.214,1.349c-.96.58-2.137,1.3-3.46,2.163-.675.441-1.393.908-2.093,1.453a2.145,2.145,0,0,0-.424.415,5.469,5.469,0,0,1-.086.683c-.052.476-.113.969-.19,1.462a59,59,0,0,1-1.324,6.471,31.787,31.787,0,0,1-2.69,7.1c-1.306,2.422-3.642,4.161-5.8,6.055a14.7,14.7,0,0,0-2.906,3.218,6.314,6.314,0,0,0-.952,4.2,23.2,23.2,0,0,0,1.254,4.325,15.438,15.438,0,0,1,.865,4.377A20.84,20.84,0,0,1,401,230.2a39.158,39.158,0,0,1-3.391,6.791c-1.237,2.024-2.457,3.867-3.564,5.545-2.223,3.356-4,6.055-5.147,8.028-.571.969-1,1.73-1.289,2.24l-.329.588a1.142,1.142,0,0,1-.13.2.467.467,0,0,1,.087-.216l.285-.614c.268-.528.675-1.306,1.228-2.284,1.1-1.972,2.837-4.732,5.026-8.114,1.09-1.73,2.3-3.538,3.512-5.562a39.1,39.1,0,0,0,3.322-6.739,20.665,20.665,0,0,0,1.419-8.088,15.01,15.01,0,0,0-.865-4.265,22.951,22.951,0,0,1-1.272-4.4,6.67,6.67,0,0,1,1.012-4.49,14.9,14.9,0,0,1,3-3.313c2.18-1.9,4.455-3.6,5.718-5.925a32.047,32.047,0,0,0,2.69-6.99,59.064,59.064,0,0,0,1.375-6.419q.121-.735.208-1.453a3.564,3.564,0,0,1,.1-.718,1.731,1.731,0,0,1,.528-.571c.735-.554,1.462-1.012,2.137-1.436,1.358-.865,2.552-1.548,3.529-2.111l2.258-1.272.6-.32A1.527,1.527,0,0,1,423.248,178.18Z" transform="translate(-303.981 -125.129)" fill="#263238"/>
        <path id="Path_8586" data-name="Path 8586" d="M425.709,243.46a7.153,7.153,0,0,1-2.2-.242,16.6,16.6,0,0,1-4.965-2.007,16.826,16.826,0,0,1-4.057-3.46,6.659,6.659,0,0,1-1.22-1.851,24.3,24.3,0,0,0,5.51,4.957A24.85,24.85,0,0,0,425.709,243.46Z" transform="translate(-307.506 -132.919)" fill="#263238"/>
        <path id="Path_8587" data-name="Path 8587" d="M427.451,246.372a5.892,5.892,0,0,1-1.687.424,24.5,24.5,0,0,1-8.356-.061,5.464,5.464,0,0,1-1.678-.458c0-.13,2.6.381,5.856.4S427.425,246.233,427.451,246.372Z" transform="translate(-307.838 -134.317)" fill="#263238"/>
        <path id="Path_8588" data-name="Path 8588" d="M428.685,181.21s-5.943.087-8,3.6-6.194,29,6.185,51.037c.571,1.012,1.107,1.073,1.107,1.073l1.817-5.951s-3.365-24.584-3.867-27.292-1.315-18.6,1.055-18.9a15.7,15.7,0,0,1,1.773-.112,12.162,12.162,0,0,1,7.837,2.777l1.73,1.375A13.374,13.374,0,0,0,428.685,181.21Z" transform="translate(-308.189 -125.538)" fill="#263238"/>
        <g id="Group_1478" data-name="Group 1478" transform="translate(110.571 66.615)" opacity="0.3">
          <path id="Path_8589" data-name="Path 8589" d="M424.695,193.86c-6.41,11.842-6.92,26.1-4.611,39.368a9.567,9.567,0,0,0,1.618,4.516,3.571,3.571,0,0,0,4.325,1.185c1.081-.605,1.981-.329,2.387-1.5,1.306-3.676,2.439-8.425,3.746-12.111C429.72,214.742,427.091,204.465,424.695,193.86Z" transform="translate(-418.827 -193.86)"/>
        </g>
        <g id="Group_1479" data-name="Group 1479" transform="translate(103.836 141.285)" opacity="0.3">
          <path id="Path_8590" data-name="Path 8590" d="M411.758,280.18a42.534,42.534,0,0,0,3.235,25.683,15.182,15.182,0,0,0,3.287,4.9,6.791,6.791,0,0,0,5.415,1.938c2.465-.346,4.394-2.457,5.242-4.8.606-1.73.675-3.78-.554-5.1-1.488-1.609-4.04-1.341-6.2-1.73-3.953-.727-7.041-4.048-8.59-7.785s-1.834-7.785-2.094-11.825" transform="translate(-411.041 -280.18)"/>
        </g>
        <path id="Path_8591" data-name="Path 8591" d="M455.516,228.272c-.208-5.363-10.432-26.565-10.432-26.565s-4.732-10.536-5.848-12.664c-2.431-4.628-9.213-5.121-11.661-3.711l1.895,26.159,5.614,19.031L424.15,251.152l13.616,13.408C455.923,262.32,455.715,233.635,455.516,228.272Z" transform="translate(-308.974 -126)" fill="#d16800"/>
        <path id="Path_8592" data-name="Path 8592" d="M452.819,237.993a6.652,6.652,0,0,1-2.483-.355c-1.514-.381-3.46-1.263-5.735-1.791a9.515,9.515,0,0,0-3.218-.242,6.453,6.453,0,0,0-2.483.8,6.824,6.824,0,0,0-1.791,1.644,1.6,1.6,0,0,1,.285-.614,4.525,4.525,0,0,1,1.332-1.3,6.471,6.471,0,0,1,2.6-.952,9.386,9.386,0,0,1,3.365.216c2.336.554,4.265,1.479,5.727,1.92S452.828,237.924,452.819,237.993Z" transform="translate(-310.724 -132.815)" fill="#263238"/>
        <path id="Path_8593" data-name="Path 8593" d="M446.377,229.052a10.324,10.324,0,0,1-2,.355,13.2,13.2,0,0,0-4.567,1.41,6.133,6.133,0,0,0-2.872,3.607,7,7,0,0,0-.112,1.972,1.859,1.859,0,0,1-.2-.528,3.831,3.831,0,0,1,0-1.514,6.056,6.056,0,0,1,2.95-3.936,11.661,11.661,0,0,1,4.749-1.324,7.508,7.508,0,0,1,2.05-.043Z" transform="translate(-310.648 -131.988)" fill="#263238"/>
        <path id="Path_8594" data-name="Path 8594" d="M439.083,274.3a5.058,5.058,0,0,1-.995-.389,24.809,24.809,0,0,1-2.6-1.341,31.137,31.137,0,0,1-3.564-2.439,35.724,35.724,0,0,1-3.884-3.59,36.9,36.9,0,0,1-3.261-4.161,33.057,33.057,0,0,1-2.137-3.754,25.172,25.172,0,0,1-1.125-2.682,4.972,4.972,0,0,1-.3-1.021c.078,0,.588,1.393,1.73,3.555a36.14,36.14,0,0,0,2.2,3.668,41.322,41.322,0,0,0,3.244,4.092,38.841,38.841,0,0,0,3.815,3.573,35.638,35.638,0,0,0,3.46,2.483C437.734,273.588,439.118,274.219,439.083,274.3Z" transform="translate(-308.579 -135.486)" fill="#263238"/>
        <path id="Path_8595" data-name="Path 8595" d="M435.914,234.675a18.7,18.7,0,0,1-1.073-2.777c-.606-1.73-1.393-4.144-2.171-6.834s-1.41-5.147-1.817-6.92a18.038,18.038,0,0,1-.554-2.924,20.53,20.53,0,0,1,.865,2.846c.484,1.73,1.168,4.2,1.946,6.92s1.479,4.983,2.042,6.86A20.811,20.811,0,0,1,435.914,234.675Z" transform="translate(-309.804 -130.128)" fill="#263238"/>
        <path id="Path_8596" data-name="Path 8596" d="M424.149,258.34c-.113-.061,2.249-4.723,5.268-10.424s5.554-10.268,5.666-10.216-2.249,4.732-5.268,10.424S424.262,258.4,424.149,258.34Z" transform="translate(-308.974 -133.162)" fill="#263238"/>
        <path id="Path_8597" data-name="Path 8597" d="M415.738,379.2c-.121,0,.536-8.348,1.479-18.616s1.8-18.581,1.92-18.581-.536,8.348-1.471,18.616S415.867,379.2,415.738,379.2Z" transform="translate(-307.837 -147.239)" fill="#263238"/>
        <path id="Path_8598" data-name="Path 8598" d="M424.554,386.353a75.686,75.686,0,0,1-1.869-8.053,76.056,76.056,0,0,1-1.436-8.14,76.207,76.207,0,0,1,1.877,8.053A76.788,76.788,0,0,1,424.554,386.353Z" transform="translate(-308.583 -151.039)" fill="#263238"/>
        <path id="Path_8599" data-name="Path 8599" d="M411.922,363.792c0,.13-7.6-.069-16.955-.433s-16.946-.753-16.937-.865,7.6.069,16.955.424S411.922,363.628,411.922,363.792Z" transform="translate(-302.75 -150)" fill="#fafafa"/>
        <path id="Path_8600" data-name="Path 8600" d="M448.631,368.028c0,.13-6.99.052-15.571-.164s-15.571-.493-15.571-.623,6.99-.043,15.614.173S448.64,367.889,448.631,368.028Z" transform="translate(-308.076 -150.637)" fill="#fafafa"/>
        <path id="Path_8601" data-name="Path 8601" d="M412.685,353.2c0,.121-7.638-.13-17.041-.562s-17.033-.865-17.024-1.021,7.63.13,17.041.571S412.728,353.075,412.685,353.2Z" transform="translate(-302.83 -148.53)" fill="#fafafa"/>
        <path id="Path_8602" data-name="Path 8602" d="M447.989,357.924c0,.13-6.713,0-14.974-.251s-14.974-.58-14.965-.7,6.7,0,14.974.251S448,357.8,447.989,357.924Z" transform="translate(-308.151 -149.253)" fill="#fafafa"/>
      </g>
    </g>
  </g>
</svg>
