<svg xmlns="http://www.w3.org/2000/svg" xmlns:xlink="http://www.w3.org/1999/xlink" width="289" height="289" viewBox="0 0 289 289">
  <defs>
    <filter id="Ellipse_118" x="0" y="0" width="289" height="289" filterUnits="userSpaceOnUse">
      <feOffset dy="3" input="SourceAlpha"/>
      <feGaussianBlur stdDeviation="3" result="blur"/>
      <feFlood flood-color="#e2e2e2"/>
      <feComposite operator="in" in2="blur"/>
      <feComposite in="SourceGraphic"/>
    </filter>
  </defs>
  <g id="Group_1590" data-name="Group 1590" transform="translate(-900.477 -3838.691)">
    <g transform="matrix(1, 0, 0, 1, 900.48, 3838.69)" filter="url(#Ellipse_118)">
      <g id="Ellipse_118-2" data-name="Ellipse 118" transform="translate(9 6)" fill="#fff4ea" stroke="#b45d0e" stroke-width="1">
        <circle cx="135.5" cy="135.5" r="135.5" stroke="none"/>
        <circle cx="135.5" cy="135.5" r="135" fill="none"/>
      </g>
    </g>
    <g id="Privacy_policy-pana" data-name="Privacy policy-pana" transform="translate(894.264 3811.167)">
      <g id="freepik--Icon--inject-252" transform="translate(26.657 113.215)">
        <path id="Path_8675" data-name="Path 8675" d="M53.706,179.068l-16.678,8.369A3.377,3.377,0,0,0,35,190.548v7.8a36.221,36.221,0,0,0,5.943,19.978c3.007,4.579,6.993,10.43,13.622,13.774h2.991c7.384-2.251,12.893-8.249,16.259-13.382a36.227,36.227,0,0,0,5.949-19.978v-8.195a3.388,3.388,0,0,0-2.055-3.11l-19.027-8.1A11.659,11.659,0,0,0,53.706,179.068Z" transform="translate(-31.976 -178.9)" fill="#d16800"/>
        <path id="Path_8676" data-name="Path 8676" d="M53.706,179.068l-16.678,8.369A3.377,3.377,0,0,0,35,190.548v7.8a36.221,36.221,0,0,0,5.943,19.978c3.007,4.579,6.993,10.43,13.622,13.774h2.991c7.384-2.251,12.893-8.249,16.259-13.382a36.227,36.227,0,0,0,5.949-19.978v-8.195a3.388,3.388,0,0,0-2.055-3.11l-19.027-8.1A11.659,11.659,0,0,0,53.706,179.068Z" transform="translate(-31.976 -178.9)" opacity="0.3"/>
        <path id="Path_8677" data-name="Path 8677" d="M50.5,179.488l-19,8.1a3.388,3.388,0,0,0-2.055,3.11v7.8A36.53,36.53,0,0,0,52,232.25C59.38,230,64.889,224,68.26,218.868a36.226,36.226,0,0,0,5.949-19.978V190.7a3.388,3.388,0,0,0-2.05-3.11l-19.032-8.1A3.393,3.393,0,0,0,50.5,179.488Z" transform="translate(-29.44 -179.047)" fill="#d16800"/>
        <circle id="Ellipse_108" data-name="Ellipse 108" cx="12.458" cy="12.458" r="12.458" transform="translate(6.269 17.109) rotate(-21.2)" opacity="0.3"/>
        <circle id="Ellipse_109" data-name="Ellipse 109" cx="5.171" cy="5.171" r="5.171" transform="translate(17.211 14.568)" fill="#fff"/>
        <path id="Path_8678" data-name="Path 8678" d="M53.24,233.552a10.1,10.1,0,0,1,9.244-5.742,10.994,10.994,0,0,1,9.657,5.741,11.6,11.6,0,0,1-9.787,4.352,11.822,11.822,0,0,1-9.114-4.35Z" transform="translate(-40.298 -201.213)" fill="#fff"/>
        <path id="Path_8679" data-name="Path 8679" d="M72.515,212.874a1.087,1.087,0,0,1,0-.2,2.809,2.809,0,0,0-.049-.587v-.435a5.324,5.324,0,0,0-.082-.544,9.21,9.21,0,0,0-.261-1.278,12.039,12.039,0,0,0-1.387-3.3,12.409,12.409,0,0,0-3.154-3.5,12.23,12.23,0,0,0-5.2-2.295,12.371,12.371,0,0,0-6.476.544,11.9,11.9,0,0,0-1.631.707,13.162,13.162,0,0,0-1.512.968,15.131,15.131,0,0,0-1.4,1.191,14.514,14.514,0,0,0-1.207,1.425A12.3,12.3,0,0,0,48.4,216.74a11.963,11.963,0,0,0,1.756,3.393,14.58,14.58,0,0,0,1.207,1.43,14.267,14.267,0,0,0,1.4,1.185,11.321,11.321,0,0,0,3.116,1.68,12.345,12.345,0,0,0,14.829-5.258,11.844,11.844,0,0,0,1.365-3.274,9.434,9.434,0,0,0,.261-1.283c0-.185.065-.359.082-.544a3.836,3.836,0,0,0,0-.435l.049-.593a1.217,1.217,0,0,1,0-.2,1.153,1.153,0,0,1,0,.2c0,.152,0,.348,0,.6v.435a4.834,4.834,0,0,1-.071.544,7.935,7.935,0,0,1-.239,1.3,11.713,11.713,0,0,1-1.354,3.344A12.507,12.507,0,0,1,55.75,224.7a12.846,12.846,0,0,1-1.631-.718,12.59,12.59,0,0,1-1.533-1.017,13.668,13.668,0,0,1-1.436-1.213,14.547,14.547,0,0,1-1.207-1.436,12.311,12.311,0,0,1-1.805-3.469,13.518,13.518,0,0,1-.647-3.975,13.344,13.344,0,0,1,.653-3.975,12.159,12.159,0,0,1,1.8-3.469,15.228,15.228,0,0,1,1.24-1.457,13.717,13.717,0,0,1,1.43-1.213,13.22,13.22,0,0,1,1.517-1,12.881,12.881,0,0,1,1.631-.723,12.462,12.462,0,0,1,15.063,5.438,11.74,11.74,0,0,1,1.354,3.35,7.88,7.88,0,0,1,.239,1.294c0,.19.06.364.071.544v1.033A1.088,1.088,0,0,1,72.515,212.874Z" transform="translate(-37.675 -188.654)" fill="#263238"/>
        <path id="Path_8680" data-name="Path 8680" d="M99.984,211.5a1.756,1.756,0,0,1,.038.364,9.655,9.655,0,0,0,.043,1.033,10.12,10.12,0,0,1,0,1.631v1.022a6.377,6.377,0,0,1-.071,1.142c-.076.8-.131,1.68-.3,2.616-.071.468-.131.952-.228,1.446s-.218,1-.326,1.523a37.726,37.726,0,0,1-2.175,6.558,38.792,38.792,0,0,1-3.409,6.02c-.631.854-1.213,1.68-1.843,2.393-.3.359-.587.723-.886,1.044l-.865.914c-.544.6-1.088,1.088-1.555,1.517a15.021,15.021,0,0,1-1.234,1.088l-.8.653a1.631,1.631,0,0,1-.288.207,1.944,1.944,0,0,1,.256-.25l.767-.691c.343-.294.75-.658,1.2-1.088s.99-.935,1.517-1.539l.848-.924c.294-.321.544-.685.87-1.044.614-.712,1.185-1.539,1.811-2.4a39.7,39.7,0,0,0,3.361-5.982,38.368,38.368,0,0,0,2.175-6.525l.337-1.512c.1-.489.163-.973.245-1.436.174-.924.239-1.8.326-2.594.049-.4.082-.778.092-1.136l.049-1.017c.049-.636.038-1.185.038-1.631V211.87A2.458,2.458,0,0,1,99.984,211.5Z" transform="translate(-55.281 -193.773)" fill="#263238"/>
      </g>
      <g id="freepik--Device--inject-252" transform="translate(68.701 62.655)">
        <path id="Path_8681" data-name="Path 8681" d="M241.643,295.5H113.062a6.411,6.411,0,0,1-6.3-6.525V92.445a6.411,6.411,0,0,1,6.3-6.525H241.643a6.406,6.406,0,0,1,6.3,6.525V288.988a6.406,6.406,0,0,1-6.3,6.514Z" transform="translate(-106.758 -85.92)" fill="#263238"/>
        <path id="Path_8682" data-name="Path 8682" d="M231.074,448.878A5.982,5.982,0,1,1,225.092,443a5.982,5.982,0,0,1,5.982,5.878Z" transform="translate(-158.016 -248.828)" fill="#455a64"/>
        <path id="Path_8683" data-name="Path 8683" d="M237.312,102.81h-28.82a2.045,2.045,0,0,1-2.012-2.077h0a2.05,2.05,0,0,1,2.012-2.083h28.82a2.05,2.05,0,0,1,2.012,2.083h0a2.045,2.045,0,0,1-2.012,2.077Z" transform="translate(-152.253 -91.728)" fill="#455a64"/>
        <rect id="Rectangle_1180" data-name="Rectangle 1180" width="132.279" height="175.02" transform="translate(4.335 14.959)" fill="#fff"/>
        <rect id="Rectangle_1181" data-name="Rectangle 1181" width="5.644" height="175.02" transform="translate(130.97 14.959)" fill="#f5f5f5"/>
        <path id="Path_8684" data-name="Path 8684" d="M351.316,193.635h0a1.762,1.762,0,0,1-1.756-1.762V153.162a1.762,1.762,0,0,1,1.756-1.762h0a1.762,1.762,0,0,1,1.762,1.762v38.711A1.762,1.762,0,0,1,351.316,193.635Z" transform="translate(-217.53 -115.794)" fill="#e0e0e0"/>
        <path id="Path_8685" data-name="Path 8685" d="M242.078,181.972H144.546a2.806,2.806,0,0,1-2.806-2.806h0a2.806,2.806,0,0,1,2.806-2.806h97.532a2.806,2.806,0,0,1,2.806,2.806h0a2.806,2.806,0,0,1-2.806,2.806Z" transform="translate(-122.718 -127.181)" fill="#e0e0e0"/>
        <path id="Path_8686" data-name="Path 8686" d="M244.84,144.292H183.486a2.806,2.806,0,0,1-2.806-2.806h0a2.806,2.806,0,0,1,2.806-2.806H244.84a2.806,2.806,0,0,1,2.806,2.806h0A2.806,2.806,0,0,1,244.84,144.292Z" transform="translate(-140.483 -109.99)" fill="#d16800"/>
        <path id="Path_8687" data-name="Path 8687" d="M239.848,202.742H170.016a2.806,2.806,0,0,1-2.806-2.806h0a2.806,2.806,0,0,1,2.806-2.806h69.832a2.806,2.806,0,0,1,2.806,2.806h0a2.806,2.806,0,0,1-2.806,2.806Z" transform="translate(-134.338 -136.657)" fill="#e0e0e0"/>
        <path id="Path_8688" data-name="Path 8688" d="M195.376,293.292H141.646a2.806,2.806,0,0,1-2.806-2.806h0a2.806,2.806,0,0,1,2.806-2.806h53.731a2.806,2.806,0,0,1,2.806,2.806h0A2.806,2.806,0,0,1,195.376,293.292Z" transform="translate(-121.395 -177.968)" fill="#e0e0e0"/>
        <path id="Path_8689" data-name="Path 8689" d="M239.178,271.666H141.646a2.806,2.806,0,0,1-2.806-2.806h0a2.8,2.8,0,0,1,2.806-2.8h97.532a2.8,2.8,0,0,1,2.806,2.8h0A2.806,2.806,0,0,1,239.178,271.666Z" transform="translate(-121.395 -168.104)" fill="#e0e0e0"/>
        <rect id="Rectangle_1182" data-name="Rectangle 1182" width="90.979" height="5.612" rx="2.806" transform="translate(29.61 135.797)" fill="#e0e0e0"/>
        <path id="Path_8690" data-name="Path 8690" d="M239.178,363.3H141.646a2.806,2.806,0,0,1-2.806-2.806h0a2.806,2.806,0,0,1,2.806-2.8h97.532a2.806,2.806,0,0,1,2.806,2.806h0A2.806,2.806,0,0,1,239.178,363.3Z" transform="translate(-121.395 -209.912)" fill="#e0e0e0"/>
        <path id="Path_8691" data-name="Path 8691" d="M239.178,385.712H141.646a2.806,2.806,0,0,1-2.806-2.806h0a2.806,2.806,0,0,1,2.806-2.806h97.532a2.806,2.806,0,0,1,2.806,2.806h0A2.806,2.806,0,0,1,239.178,385.712Z" transform="translate(-121.395 -220.132)" fill="#e0e0e0"/>
        <path id="Path_8692" data-name="Path 8692" d="M147.179,338.365a2.915,2.915,0,1,1-2.909-2.915A2.915,2.915,0,0,1,147.179,338.365Z" transform="translate(-122.54 -199.761)" fill="#d16800"/>
        <path id="Path_8693" data-name="Path 8693" d="M249.379,251.512H164.006a2.806,2.806,0,0,1-2.806-2.806h0a2.806,2.806,0,0,1,2.806-2.806h85.373a2.806,2.806,0,0,1,2.806,2.806h0A2.806,2.806,0,0,1,249.379,251.512Z" transform="translate(-131.596 -158.907)" fill="#e0e0e0"/>
        <circle id="Ellipse_110" data-name="Ellipse 110" cx="2.915" cy="2.915" r="2.915" transform="translate(18.816 86.885)" fill="#d16800"/>
        <path id="Path_8694" data-name="Path 8694" d="M296.237,415.73H274.35a4.47,4.47,0,0,1-4.47-4.47h0a4.47,4.47,0,0,1,4.47-4.47h21.887a4.47,4.47,0,0,1,4.47,4.47h0A4.47,4.47,0,0,1,296.237,415.73Z" transform="translate(-181.178 -232.308)" fill="#d16800"/>
      </g>
      <g id="freepik--Padlock--inject-252" transform="translate(41.453 34.925)">
        <path id="Path_8695" data-name="Path 8695" d="M89.617,35.156,66.93,46.537a4.6,4.6,0,0,0-2.8,4.231V61.383a49.266,49.266,0,0,0,8.091,27.189c4.089,6.21,9.505,14.171,18.526,18.717h4.067c10.038-3.061,17.531-11.224,22.115-18.2A49.266,49.266,0,0,0,125.022,61.9V50.768a4.6,4.6,0,0,0-2.779-4.231L96.381,35.51C95.228,35.037,90.769,34.667,89.617,35.156Z" transform="translate(-60.062 -34.925)" fill="#d16800"/>
        <path id="Path_8696" data-name="Path 8696" d="M89.617,35.156,66.93,46.537a4.6,4.6,0,0,0-2.8,4.231V61.383a49.266,49.266,0,0,0,8.091,27.189c4.089,6.21,9.505,14.171,18.526,18.717h4.067c10.038-3.061,17.531-11.224,22.115-18.2A49.266,49.266,0,0,0,125.022,61.9V50.768a4.6,4.6,0,0,0-2.779-4.231L96.381,35.51C95.228,35.037,90.769,34.667,89.617,35.156Z" transform="translate(-60.062 -34.925)" opacity="0.3"/>
        <path id="Path_8697" data-name="Path 8697" d="M85.291,35.687,59.445,46.715a4.6,4.6,0,0,0-2.8,4.231V61.56a49.688,49.688,0,0,0,30.679,45.9c10.044-3.059,17.538-11.221,22.116-18.2a49.223,49.223,0,0,0,8.091-27.189V50.946a4.6,4.6,0,0,0-2.8-4.231L88.923,35.687A4.611,4.611,0,0,0,85.291,35.687Z" transform="translate(-56.65 -35.103)" fill="#d16800"/>
        <path id="Path_8698" data-name="Path 8698" d="M152.561,79.27a.392.392,0,0,1,0,.125v.364c0,.348.027.816.049,1.408a21.488,21.488,0,0,1,0,2.224c0,.435,0,.9-.044,1.387v.761a7.8,7.8,0,0,1-.076.8c-.109,1.088-.179,2.284-.408,3.551-.1.631-.185,1.294-.315,1.963s-.294,1.359-.446,2.066a50.922,50.922,0,0,1-2.985,8.912,53.038,53.038,0,0,1-4.622,8.184c-.859,1.164-1.631,2.289-2.5,3.263-.419.489-.8.984-1.207,1.419l-1.175,1.251c-.729.816-1.479,1.463-2.1,2.066-.321.294-.609.576-.886.821l-.761.614-1.088.892-.288.228c-.065.049-.1.071-.1.065s0-.033.082-.092l.272-.245,1.049-.93.767-.669c.277-.245.544-.544.87-.837.614-.609,1.349-1.262,2.066-2.083l1.158-1.262c.4-.435.778-.93,1.185-1.419.843-.968,1.631-2.094,2.469-3.263a53.694,53.694,0,0,0,4.584-8.157,52.452,52.452,0,0,0,2.985-8.858c.158-.7.3-1.387.457-2.05s.218-1.327.326-1.958c.239-1.262.321-2.452.44-3.535.033-.266.06-.544.087-.788s0-.511.033-.756q.033-.734.065-1.387c.06-.865.043-1.631.043-2.219V79.4A.326.326,0,0,1,152.561,79.27Z" transform="translate(-91.756 -55.156)" fill="#263238"/>
        <path id="Path_8699" data-name="Path 8699" d="M116.09,85.413h-2.757v-15a6.406,6.406,0,0,0-12.806,0v15H97.77v-15a9.163,9.163,0,0,1,18.32,0Z" transform="translate(-75.41 -47.036)" fill="#f5f5f5"/>
        <rect id="Rectangle_1183" data-name="Rectangle 1183" width="24.687" height="19.348" rx="5.81" transform="translate(19.179 28.197)" fill="#fff"/>
        <path id="Path_8700" data-name="Path 8700" d="M113.335,106a6.4,6.4,0,0,0,.821-.141,3.138,3.138,0,0,0,2.268-3.045V89.588a3.04,3.04,0,0,0-1.794-2.55,3.638,3.638,0,0,0-1.691-.261h-1.827l-16.145-.005a3.018,3.018,0,0,0-2.936,2.316,4.035,4.035,0,0,0-.087,1V100.91c.049,1.229-.207,2.5.424,3.464a3.056,3.056,0,0,0,2.746,1.506h6.117l8.858.049h3.029a1.153,1.153,0,0,1,.218,0,.972.972,0,0,1-.217,0h-3.029l-8.858.044H95.113a3.29,3.29,0,0,1-3.437-3.35V90.11a4.225,4.225,0,0,1,.092-1.088,3.263,3.263,0,0,1,1.169-1.794,3.328,3.328,0,0,1,2.055-.718h17.912a3.85,3.85,0,0,1,1.794.294,3.263,3.263,0,0,1,1.925,2.757V102.8a3.2,3.2,0,0,1-.479,1.686,3.138,3.138,0,0,1-1.909,1.414A2.447,2.447,0,0,1,113.335,106Z" transform="translate(-72.628 -58.455)" fill="#263238"/>
        <path id="Path_8701" data-name="Path 8701" d="M114.194,101.607a2.664,2.664,0,0,0,.783-1.892,2.719,2.719,0,1,0-3.458,2.6l-.582,2.577h2.583l-.544-2.577a2.719,2.719,0,0,0,1.191-.707" transform="translate(-80.779 -63.235)" fill="#d16800"/>
      </g>
      <g id="freepik--Character--inject-252" transform="translate(189.821 78.504)">
        <path id="Path_8702" data-name="Path 8702" d="M412.25,132.127v22.034c.049,3.806.609,9.788-5.438,9.592h0c-5.215-.544-6.6-5.508-6.639-9.065,0-1.686-.038-3.094-.054-3.263,0,0-5.71-.468-6.194-6.112-.234-2.719-.256-8.38-.217-13.5a10.549,10.549,0,0,1,9.788-10.43l.544-.038C409.95,121.262,412.348,126.227,412.25,132.127Z" transform="translate(-358.784 -117.932)" fill="#ffbf9d"/>
        <path id="Path_8703" data-name="Path 8703" d="M405.54,174.379a13.692,13.692,0,0,0,7.194-2.719s-1.49,4.258-7.162,4.16Z" transform="translate(-364.19 -140.885)" fill="#ff9a6c"/>
        <path id="Path_8704" data-name="Path 8704" d="M411.478,144.019c.114.114.767-.413,1.707-.435s1.631.435,1.751.315-.065-.266-.375-.479a2.376,2.376,0,0,0-1.4-.4,2.317,2.317,0,0,0-1.359.495C411.516,143.753,411.423,143.965,411.478,144.019Z" transform="translate(-366.892 -127.818)" fill="#263238"/>
        <path id="Path_8705" data-name="Path 8705" d="M411.46,149.145a.761.761,0,0,0,.794.718.729.729,0,0,0,.734-.745.767.767,0,0,0-.788-.718.74.74,0,0,0-.74.745Z" transform="translate(-366.89 -130.273)" fill="#263238"/>
        <path id="Path_8706" data-name="Path 8706" d="M405.26,150.909a5.879,5.879,0,0,0-1.43-.152c-.223,0-.435-.038-.484-.185a1.131,1.131,0,0,1,.1-.669c.174-.544.348-1.126.544-1.735a29.713,29.713,0,0,0,1.153-4.519,29.225,29.225,0,0,0-1.512,4.415q-.261.914-.506,1.746a1.289,1.289,0,0,0-.049.875.544.544,0,0,0,.386.3,1.631,1.631,0,0,0,.381,0A5.981,5.981,0,0,0,405.26,150.909Z" transform="translate(-363.04 -128.106)" fill="#263238"/>
        <path id="Path_8707" data-name="Path 8707" d="M412.225,136.865c.092.212.848.054,1.756.1s1.631.245,1.756.044c.043-.092-.1-.288-.4-.473a2.953,2.953,0,0,0-2.675-.109C412.339,136.582,412.187,136.767,412.225,136.865Z" transform="translate(-367.237 -124.687)" fill="#263238"/>
        <path id="Path_8708" data-name="Path 8708" d="M395.714,139.445c.1.174.837,0,1.735-.044s1.631.087,1.729-.092c.038-.087-.109-.239-.419-.375a3.115,3.115,0,0,0-1.321-.217,3.17,3.17,0,0,0-1.316.326C395.817,139.2,395.67,139.363,395.714,139.445Z" transform="translate(-359.703 -125.854)" fill="#263238"/>
        <path id="Path_8709" data-name="Path 8709" d="M379.974,123.888a.892.892,0,0,1,.43-.544,2.773,2.773,0,0,1,1.441-.234,8.119,8.119,0,0,0,4.241-1.289,19,19,0,0,1,1.974-2.393,14.435,14.435,0,0,1,4.573-3.551,12.839,12.839,0,0,1,6.993-.544,5.348,5.348,0,0,1,4,4.116,4.071,4.071,0,0,1,4.095-.381h.033c1.49.544,2.338,2.11,2.779,3.632a19.046,19.046,0,0,0,1.436,4.519c.169.283.37.625.223.924a.631.631,0,0,1-.658.283,1.794,1.794,0,0,1-.7-.315c.169.4.332.8.5,1.2a3.5,3.5,0,0,1-1.631-.1,35.129,35.129,0,0,1-1.06,4.013,2.333,2.333,0,0,0-1.582.386c-.544.473-.756,1.359-1.631,1.022-.44-.174-.843-1.088-1-1.55a22.1,22.1,0,0,1-.952-9.348,7.134,7.134,0,0,0-2.175-1.577l.065.06c-1.577-.544-3.361-1.088-4.856-.348-1.158.576-1.838,1.778-2.719,2.719a8.842,8.842,0,0,1-6.313,2.953c-.082,1.588.049,3.834-.033,5.438l-1.338-2.545h0q-.158-.264-.288-.544v-.054h0a9.4,9.4,0,0,0-.451-.908h0a1,1,0,0,1-1.452-1.327,2.245,2.245,0,0,1,.479-.484,1.555,1.555,0,0,1-1.5.386,1.229,1.229,0,0,1-.87-1.218,1.055,1.055,0,0,1,.625-.837,3.507,3.507,0,0,1-2.012-.446C380.218,124.764,379.827,124.388,379.974,123.888Z" transform="translate(-352.511 -115.066)" fill="#263238"/>
        <path id="Path_8710" data-name="Path 8710" d="M420.21,124.34a4.421,4.421,0,0,1,.544.544,4,4,0,0,1,.865,1.871,6.936,6.936,0,0,1,.147,1.436c0,.544-.038,1.088-.082,1.664a14.769,14.769,0,0,0-.038,1.849,6.112,6.112,0,0,0,.125.979,2.067,2.067,0,0,0,.4.946.854.854,0,0,0,.8.266,1.251,1.251,0,0,0,.712-.4,2.887,2.887,0,0,0,.544-1.436h-.114a4.626,4.626,0,0,0,.685,1.185,1.691,1.691,0,0,0,1.088.6,1.088,1.088,0,0,0,.582-.1.952.952,0,0,0,.4-.392,1.027,1.027,0,0,0,.12-.5.691.691,0,0,0-.185-.435l-.06.054a3.654,3.654,0,0,0,1.213.908,3.269,3.269,0,0,0,.375.147l.136.033-.125-.054c-.087-.038-.212-.087-.364-.163a3.806,3.806,0,0,1-1.175-.924l-.06.054a.723.723,0,0,1,.038.837.827.827,0,0,1-.353.343.962.962,0,0,1-.544.087,1.582,1.582,0,0,1-1.022-.544,4.688,4.688,0,0,1-.658-1.158l-.082-.179-.038.2a2.855,2.855,0,0,1-.544,1.37,1.185,1.185,0,0,1-.642.359.723.723,0,0,1-.68-.223,1.887,1.887,0,0,1-.364-.886,6.523,6.523,0,0,1-.13-.957,14.619,14.619,0,0,1,.038-1.838c.033-.587.071-1.142.065-1.669a6.971,6.971,0,0,0-.163-1.452,4.007,4.007,0,0,0-.919-1.892A2.174,2.174,0,0,0,420.21,124.34Z" transform="translate(-370.882 -119.297)" fill="#455a64"/>
        <path id="Path_8711" data-name="Path 8711" d="M388.1,127.174l.049.038a1.2,1.2,0,0,0,.141.1,1.4,1.4,0,0,0,.239.158q.167.1.343.179a5.008,5.008,0,0,0,2.414.435,6.4,6.4,0,0,0,3.4-1.262,10.93,10.93,0,0,0,2.926-3.371c.413-.68.745-1.381,1.088-2.028a7.615,7.615,0,0,1,1.305-1.718,3.861,3.861,0,0,1,1.631-.99,2.768,2.768,0,0,1,.859-.1,2.986,2.986,0,0,1,.772.163,3.263,3.263,0,0,1,1.18.707,3.215,3.215,0,0,1,.636.827,3.539,3.539,0,0,1,.288.848s0,0,0-.06a.414.414,0,0,0-.027-.174,2.652,2.652,0,0,0-.217-.636,3.263,3.263,0,0,0-1.827-1.6,3.2,3.2,0,0,0-.81-.169,2.975,2.975,0,0,0-.892.1,3.921,3.921,0,0,0-1.68,1.006,7.379,7.379,0,0,0-1.289,1.74c-.375.653-.712,1.349-1.115,2.028a11.043,11.043,0,0,1-2.887,3.339,6.335,6.335,0,0,1-3.339,1.267,5.063,5.063,0,0,1-2.387-.392A7.362,7.362,0,0,1,388.1,127.174Z" transform="translate(-356.233 -116.644)" fill="#455a64"/>
        <path id="Path_8712" data-name="Path 8712" d="M387.16,129.868a1.357,1.357,0,0,0,.2.141,4.538,4.538,0,0,0,.6.3,5.759,5.759,0,0,0,.952.31,6.286,6.286,0,0,0,1.213.163,6.731,6.731,0,0,0,1.224-.082,5.711,5.711,0,0,0,.962-.25,4.412,4.412,0,0,0,.62-.266,1.121,1.121,0,0,0,.212-.125s-.321.136-.859.3a7.455,7.455,0,0,1-.957.217,7.576,7.576,0,0,1-1.2.071,7.663,7.663,0,0,1-1.191-.147,6.529,6.529,0,0,1-.941-.283C387.475,130.026,387.171,129.847,387.16,129.868Z" transform="translate(-355.804 -121.818)" fill="#455a64"/>
        <path id="Path_8713" data-name="Path 8713" d="M395.635,144.02c.109.114.761-.413,1.707-.435s1.631.435,1.751.315-.071-.266-.375-.479a2.4,2.4,0,0,0-1.408-.4,2.3,2.3,0,0,0-1.354.495C395.668,143.753,395.576,143.965,395.635,144.02Z" transform="translate(-359.663 -127.818)" fill="#263238"/>
        <path id="Path_8714" data-name="Path 8714" d="M397.42,149.145a.767.767,0,0,0,.788.718.734.734,0,0,0,.74-.745.772.772,0,0,0-.794-.718.734.734,0,0,0-.734.745Z" transform="translate(-360.485 -130.273)" fill="#263238"/>
        <path id="Path_8715" data-name="Path 8715" d="M427.55,148.686c.092-.049,3.806-1.43,3.953,2.436s-3.758,3.225-3.768,3.116S427.55,148.686,427.55,148.686Z" transform="translate(-374.231 -130.277)" fill="#ffbf9d"/>
        <path id="Path_8716" data-name="Path 8716" d="M429.988,153.767a1.56,1.56,0,0,0,.185.092.7.7,0,0,0,.506,0,1.664,1.664,0,0,0,.707-1.528,2.176,2.176,0,0,0-.223-.957.772.772,0,0,0-.544-.495.348.348,0,0,0-.386.2c-.049.109,0,.185-.044.2s-.082-.06-.06-.223a.473.473,0,0,1,.141-.25.544.544,0,0,1,.37-.114.957.957,0,0,1,.729.571,2.268,2.268,0,0,1,.277,1.088,1.756,1.756,0,0,1-.914,1.707.723.723,0,0,1-.62-.076C429.988,153.859,429.95,153.772,429.988,153.767Z" transform="translate(-375.337 -131.317)" fill="#ff9a6c"/>
        <path id="Path_8717" data-name="Path 8717" d="M409.828,158.42c.033,0,.033.228-.1.544a2.371,2.371,0,0,1-.892,1.033,2.175,2.175,0,0,1-1.294.37.862.862,0,0,1-.544-.179,2.9,2.9,0,0,1,.544,0,2.474,2.474,0,0,0,1.164-.392,2.752,2.752,0,0,0,.865-.886C409.719,158.61,409.784,158.409,409.828,158.42Z" transform="translate(-364.856 -134.845)" fill="#263238"/>
        <path id="Path_8718" data-name="Path 8718" d="M439.551,439.59l1.153,13.051,4.089,10.092a1.327,1.327,0,0,1-.924,1.762h0a1.474,1.474,0,0,1-1.283-.217c-2.333-1.7-10.745-7.939-10.837-8.749-.12-1.055-2.268-13.9-2.268-13.9Z" transform="translate(-375.112 -263.121)" fill="#455a64"/>
        <path id="Path_8719" data-name="Path 8719" d="M445.635,476.647,433.28,466.19l.125.968c.082.544.092.816.462,1.147a116.961,116.961,0,0,0,10.332,8.342,1.669,1.669,0,0,0,1.414,0Z" transform="translate(-376.845 -275.257)" fill="#263238"/>
        <path id="Path_8720" data-name="Path 8720" d="M436.715,458.631a.794.794,0,0,1,.359,1.033.865.865,0,0,1-1.088.343.837.837,0,0,1-.37-1.088.892.892,0,0,1,1.169-.234" transform="translate(-377.877 -271.776)" fill="#fff"/>
        <path id="Path_8721" data-name="Path 8721" d="M448.921,474.087c.082.033.315-.685,1.088-1.131a4.731,4.731,0,0,1,1.561-.451c0-.033-.179-.114-.506-.125a2.349,2.349,0,0,0-1.223.332,2.126,2.126,0,0,0-.837.892C448.883,473.886,448.883,474.082,448.921,474.087Z" transform="translate(-383.971 -278.081)" fill="#263238"/>
        <path id="Path_8722" data-name="Path 8722" d="M451.113,477.6c.071.054.468-.419,1.164-.68a11.094,11.094,0,0,1,1.338-.3,1.664,1.664,0,0,0-1.452.033C451.369,476.961,451.048,477.575,451.113,477.6Z" transform="translate(-384.977 -279.948)" fill="#263238"/>
        <path id="Path_8723" data-name="Path 8723" d="M445.087,470.186a13.907,13.907,0,0,1,1.724-1.169,14.815,14.815,0,0,1,2.007-.658,3.328,3.328,0,0,0-2.148.4A3.155,3.155,0,0,0,445.087,470.186Z" transform="translate(-382.23 -276.229)" fill="#263238"/>
        <path id="Path_8724" data-name="Path 8724" d="M443.8,463.826c.044.076.778-.3,1.767-.435s1.811,0,1.833-.071a2.9,2.9,0,0,0-1.876-.217,2.822,2.822,0,0,0-1.724.723Z" transform="translate(-381.645 -273.818)" fill="#263238"/>
        <path id="Path_8725" data-name="Path 8725" d="M443,456.782a4.807,4.807,0,0,1,3.719-.25c0-.033-.147-.179-.489-.321a3.263,3.263,0,0,0-1.419-.217,3.1,3.1,0,0,0-1.37.408C443.11,456.586,442.964,456.755,443,456.782Z" transform="translate(-381.276 -270.601)" fill="#263238"/>
        <path id="Path_8726" data-name="Path 8726" d="M444.354,453.152a1.431,1.431,0,0,0-.033-.495,3.427,3.427,0,0,0-.544-1.251,1.6,1.6,0,0,0-.772-.658.6.6,0,0,0-.631.185.821.821,0,0,0-.152.614,1.979,1.979,0,0,0,1.958,1.571,2.349,2.349,0,0,0,2.175-1.376.729.729,0,0,0-.033-.636.593.593,0,0,0-.62-.223,2.072,2.072,0,0,0-.865.544,3.952,3.952,0,0,0-.832,1.088,1.174,1.174,0,0,0-.163.473,6.286,6.286,0,0,1,1.147-1.43,1.881,1.881,0,0,1,.761-.457.31.31,0,0,1,.337.12.506.506,0,0,1,0,.419,2.1,2.1,0,0,1-1.887,1.175,1.729,1.729,0,0,1-1.686-1.316.6.6,0,0,1,.087-.43.321.321,0,0,1,.348-.1,1.457,1.457,0,0,1,.669.544A4.894,4.894,0,0,1,444.354,453.152Z" transform="translate(-380.92 -268.201)" fill="#263238"/>
        <path id="Path_8727" data-name="Path 8727" d="M377.9,440.734l.511,11.066s-11.794,4.209-11.909,6.264l22.866-.169-.049-17.276Z" transform="translate(-346.379 -263.591)" fill="#455a64"/>
        <path id="Path_8728" data-name="Path 8728" d="M400.474,459.346a.875.875,0,0,1,.653,1,.9.9,0,0,1-1.044.615.919.919,0,0,1-.685-1.055.946.946,0,0,1,1.164-.544" transform="translate(-361.381 -272.121)" fill="#e0e0e0"/>
        <path id="Path_8729" data-name="Path 8729" d="M389.358,470.93l-.076-1.74-21.9.81s-1.011.424-.892,1.088Z" transform="translate(-346.37 -276.625)" fill="#263238"/>
        <path id="Path_8730" data-name="Path 8730" d="M387.719,460.915c0,.1.544.147,1.088.479s.848.772.952.729-.071-.647-.745-1.039S387.692,460.811,387.719,460.915Z" transform="translate(-356.059 -272.804)" fill="#263238"/>
        <path id="Path_8731" data-name="Path 8731" d="M383.32,462.7c0,.1.462.277.843.718s.5.914.609.908.179-.6-.31-1.142S383.325,462.6,383.32,462.7Z" transform="translate(-354.052 -273.643)" fill="#263238"/>
        <path id="Path_8732" data-name="Path 8732" d="M380.1,466.188c.1,0,.25-.5-.038-1.088s-.816-.794-.865-.707.283.392.511.865S379.99,466.183,380.1,466.188Z" transform="translate(-352.169 -274.429)" fill="#263238"/>
        <path id="Path_8733" data-name="Path 8733" d="M388.049,456.012c.049.1.544-.049,1.191,0s1.126.217,1.18.131-.413-.462-1.158-.495S388.022,455.931,388.049,456.012Z" transform="translate(-356.209 -270.446)" fill="#263238"/>
        <path id="Path_8734" data-name="Path 8734" d="M380.14,292.326c0,.636,2.654,89.1,2.654,89.1h14.138l2.866-75.672s3.344,39.565,3.344,40.419,2.947,35.677,2.947,35.677l13.105-1.006-.865-79.642-1.6-11.68Z" transform="translate(-352.601 -194.656)" fill="#263238"/>
        <path id="Path_8735" data-name="Path 8735" d="M416.676,306.241a2.285,2.285,0,0,1-.571.228c-.375.13-.924.31-1.6.544l-.125.038v-.125c-.076-1.06-.169-2.485-.25-4.046-.092-1.691-.158-3.219-.19-4.35,0-.544-.027-1.006-.027-1.316a1.464,1.464,0,0,1,.033-.484,1.931,1.931,0,0,1,.076.479c.038.31.076.761.114,1.311.087,1.088.185,2.637.272,4.35.087,1.561.147,2.985.179,4.051l-.136-.087c.685-.19,1.24-.343,1.631-.44A3.143,3.143,0,0,1,416.676,306.241Z" transform="translate(-368.007 -197.945)" fill="#455a64"/>
        <path id="Path_8736" data-name="Path 8736" d="M416.475,297.124a.355.355,0,0,1,.19-.12.919.919,0,0,1,.62.054.723.723,0,0,1,.473.723.9.9,0,0,1-.74.8,1.088,1.088,0,0,1-1.044-.44.772.772,0,0,1,0-.843.941.941,0,0,1,.468-.364c.141-.049.223-.038.228-.027a1.082,1.082,0,0,0-.517.473.587.587,0,0,0,.033.642.816.816,0,0,0,.767.315.685.685,0,0,0,.544-.544.544.544,0,0,0-.31-.544,1.169,1.169,0,0,0-.712-.13Z" transform="translate(-368.893 -198.024)" fill="#455a64"/>
        <path id="Path_8737" data-name="Path 8737" d="M428.712,297.54c-.076,0-.185-.381-.239-.859s-.038-.875.038-.881.185.375.239.854S428.789,297.54,428.712,297.54Z" transform="translate(-374.638 -197.521)" fill="#455a64"/>
        <path id="Path_8738" data-name="Path 8738" d="M430.621,297.277c-.076,0-.141-.408-.141-.914s.054-.914.136-.914.141.408.141.914S430.7,297.277,430.621,297.277Z" transform="translate(-375.568 -197.361)" fill="#455a64"/>
        <path id="Path_8739" data-name="Path 8739" d="M399.144,298.187a2.149,2.149,0,0,1-.266-1.022,2.322,2.322,0,0,1,0-1.055,2.281,2.281,0,0,1,.266,1.028C399.214,297.714,399.22,298.182,399.144,298.187Z" transform="translate(-361.127 -197.662)" fill="#455a64"/>
        <path id="Path_8740" data-name="Path 8740" d="M401.293,298.265a1.539,1.539,0,0,1-.348-1.088,1.523,1.523,0,0,1,.245-1.088c.082,0,0,.5.038,1.088S401.369,298.243,401.293,298.265Z" transform="translate(-362.085 -197.653)" fill="#455a64"/>
        <path id="Path_8741" data-name="Path 8741" d="M388.143,297.92a1.148,1.148,0,0,1-.049.386,7.223,7.223,0,0,1-.283,1.039,10.834,10.834,0,0,1-1.751,3.154,12.083,12.083,0,0,1-2.762,2.512,9.525,9.525,0,0,1-1,.576,1.959,1.959,0,0,1-.4.169c0-.033.511-.315,1.289-.875a13.241,13.241,0,0,0,2.664-2.512,12.392,12.392,0,0,0,1.789-3.072C387.974,298.453,388.1,297.909,388.143,297.92Z" transform="translate(-353.404 -198.488)" fill="#455a64"/>
        <path id="Path_8742" data-name="Path 8742" d="M442.8,304.432a1.582,1.582,0,0,1-.43.065,7.521,7.521,0,0,1-1.185,0,8.091,8.091,0,0,1-3.622-1.262,6.912,6.912,0,0,1-2.409-2.719,5.042,5.042,0,0,1-.37-1.006,1.017,1.017,0,0,1-.06-.381c.044,0,.163.544.593,1.321a7.308,7.308,0,0,0,2.4,2.6,8.489,8.489,0,0,0,3.491,1.283C442.185,304.448,442.8,304.388,442.8,304.432Z" transform="translate(-377.506 -199.04)" fill="#455a64"/>
        <path id="Path_8743" data-name="Path 8743" d="M398.507,389.176c0,.06-2.36-.451-5.231-1.131s-5.188-1.289-5.166-1.349,2.36.446,5.231,1.131S398.523,389.116,398.507,389.176Z" transform="translate(-356.237 -238.988)" fill="#455a64"/>
        <path id="Path_8744" data-name="Path 8744" d="M441.368,385.338c.033.054-2.007,1.115-4.551,2.376s-4.644,2.235-4.676,2.175,2.007-1.12,4.551-2.376S441.335,385.284,441.368,385.338Z" transform="translate(-376.325 -238.369)" fill="#455a64"/>
        <path id="Path_8745" data-name="Path 8745" d="M361.47,237.5l1.93,2.42v-4.16h6.09s.674,9.522.544,11.55a16.038,16.038,0,0,1-.745,3.1,3.573,3.573,0,0,1-5.927,1.479,21.031,21.031,0,0,1-1.9-2.121c-2.719-3.48-7.2-11.963-7.2-11.963l4.7-2.806Z" transform="translate(-340.794 -169.783)" fill="#ffbf9d"/>
        <path id="Path_8746" data-name="Path 8746" d="M366.81,238.768a7.2,7.2,0,0,0,.794,1.088c.544.636,1.229,1.512,2.039,2.458s1.582,1.784,2.175,2.355a4.437,4.437,0,0,0,1.033.837,10.248,10.248,0,0,0-.892-.979c-.544-.6-1.294-1.452-2.1-2.4A28.434,28.434,0,0,0,366.81,238.768Z" transform="translate(-346.52 -171.501)" fill="#ff9a6c"/>
        <path id="Path_8747" data-name="Path 8747" d="M393.06,183.122l6.422-2.523,11.827-.669,5.557,2.115-7.618,4.231-6.569-.239Z" transform="translate(-358.496 -144.658)" fill="#ffbf9d"/>
        <path id="Path_8748" data-name="Path 8748" d="M373.6,243.517c.582.1,39.331,1.746,39.331,1.746L411.59,210.4l-.114-6.841L409.3,182.837s-5.8-2-8.749-2.947a12.584,12.584,0,0,1-9.027,3.154c-5.78-.082-6.988-1.387-6.988-1.387l-8.081,3.1s-5.748,2.061-6.737,4.606S367,205.975,367,205.975h8.38l-.223,25Z" transform="translate(-346.607 -144.64)" fill="#455a64"/>
        <g id="Group_1484" data-name="Group 1484" transform="translate(51.356 51.938)" opacity="0.2">
          <path id="Path_8749" data-name="Path 8749" d="M423.94,211.015l1.2,8.787,5.813,2.594,4.3-3.66V210.58l-11.311.435" transform="translate(-423.94 -210.58)"/>
        </g>
        <path id="Path_8750" data-name="Path 8750" d="M435.4,215.871c0,.071-2.414.131-5.394.131s-5.4-.06-5.4-.131a107.2,107.2,0,0,1,10.794,0Z" transform="translate(-372.89 -160.986)" fill="#263238"/>
        <path id="Path_8751" data-name="Path 8751" d="M374.33,204a1.6,1.6,0,0,1,.065.234c.038.174.087.392.152.669a22.138,22.138,0,0,0,.772,2.474c.386,1.039.93,2.262,1.6,3.632a42.45,42.45,0,0,1,1.794,4.747h0c0,2.088,0,4.35-.044,6.759-.054,5.329-.109,10.152-.141,13.671-.033,1.729-.054,3.138-.076,4.144q0,.7-.033,1.126a2.221,2.221,0,0,1-.027.391,2.8,2.8,0,0,1,0-.4q0-.413,0-1.126v-4.144c0-3.518.043-8.342.071-13.665,0-2.387.043-4.671.06-6.759v.038c-.582-1.74-1.142-3.355-1.751-4.742a38.34,38.34,0,0,1-1.555-3.665,19.129,19.129,0,0,1-.712-2.5c-.054-.3-.1-.544-.12-.685A1.136,1.136,0,0,1,374.33,204Z" transform="translate(-349.951 -155.64)" fill="#263238"/>
        <path id="Path_8752" data-name="Path 8752" d="M449.165,196.52a4.9,4.9,0,0,1,0,.745c0,.544-.043,1.207-.076,2.023-.071,1.751-.163,4.089-.266,6.672s-.223,4.927-.3,6.678c-.049.816-.087,1.5-.12,2.023a3.807,3.807,0,0,1-.076.74,4.71,4.71,0,0,1,0-.745c0-.544,0-1.207.038-2.023.043-1.713.12-4.073.228-6.678s.228-4.97.337-6.672c.054-.854.109-1.544.158-2.023A4.223,4.223,0,0,1,449.165,196.52Z" transform="translate(-383.704 -152.227)" fill="#263238"/>
        <g id="Group_1485" data-name="Group 1485" transform="translate(24.39 49.638)" opacity="0.3">
          <path id="Path_8753" data-name="Path 8753" d="M374.361,206.35a14.54,14.54,0,0,0,3.806,10.381C377.379,213.136,375.41,209.792,374.361,206.35Z" transform="translate(-374.35 -206.35)"/>
        </g>
        <g id="Group_1486" data-name="Group 1486" transform="translate(41.421 69.91)" opacity="0.3">
          <path id="Path_8754" data-name="Path 8754" d="M405.67,257.85a7.254,7.254,0,0,0,4.649-2.588,22.042,22.042,0,0,0,3.127-4.519,17.814,17.814,0,0,0,1.827-7.113A33.485,33.485,0,0,1,405.67,257.85Z" transform="translate(-405.67 -243.63)"/>
        </g>
        <path id="Path_8755" data-name="Path 8755" d="M414.554,238.78a1.158,1.158,0,0,1-.033.223c-.038.174-.087.381-.141.631s-.141.6-.261.984-.234.816-.408,1.289a29.712,29.712,0,0,1-1.338,3.263,31.175,31.175,0,0,1-4.758,7.162,27.2,27.2,0,0,1-2.5,2.48c-.364.343-.729.614-1.039.865s-.582.451-.816.609l-.544.364c-.125.076-.19.12-.2.109a.9.9,0,0,1,.163-.152l.506-.4c.223-.163.489-.375.788-.636s.653-.544,1.011-.886a31.991,31.991,0,0,0,2.442-2.5,36.809,36.809,0,0,0,2.594-3.4,37.731,37.731,0,0,0,2.132-3.7,33.388,33.388,0,0,0,1.376-3.214c.185-.462.315-.9.44-1.272s.228-.7.3-.968.13-.446.185-.614S414.543,238.774,414.554,238.78Z" transform="translate(-362.812 -171.507)" fill="#263238"/>
        <path id="Path_8756" data-name="Path 8756" d="M407.512,218.72a2.754,2.754,0,0,1-.049.359c-.043.256-.1.593-.174,1.011s-.179.973-.337,1.588-.3,1.327-.544,2.088c-.109.381-.228.783-.353,1.2s-.288.843-.44,1.283c-.288.9-.68,1.822-1.088,2.8a46.58,46.58,0,0,1-7.123,11.686c-.691.794-1.338,1.566-2,2.229-.326.337-.631.674-.946.973s-.614.593-.908.865c-.544.544-1.131,1.017-1.631,1.43s-.9.756-1.262,1.022l-.821.62a1.5,1.5,0,0,1-.294.2,1.886,1.886,0,0,1,.261-.239l.788-.658c.348-.277.772-.62,1.234-1.049s1.022-.886,1.582-1.457l.892-.87c.31-.3.609-.642.93-.979.658-.669,1.294-1.441,1.979-2.24a48.026,48.026,0,0,0,7.113-11.626c.4-.973.794-1.887,1.088-2.773.158-.446.321-.865.451-1.278s.25-.81.37-1.191c.25-.756.408-1.457.576-2.072s.288-1.142.375-1.577.169-.745.223-1a1.686,1.686,0,0,1,.109-.348Z" transform="translate(-356.89 -162.355)" fill="#263238"/>
        <path id="Path_8757" data-name="Path 8757" d="M349.567,196.917,364.488,219.6a.669.669,0,0,1-.647,1.033l-17.183-2.175a.685.685,0,0,1-.457-.272l-16.411-22.414a.674.674,0,0,1,.593-1.088l17.678,1.305a1.99,1.99,0,0,1,1.506.924Z" transform="translate(-329.565 -151.39)" fill="#e0e0e0"/>
        <path id="Path_8758" data-name="Path 8758" d="M349.5,196.878a1.049,1.049,0,0,0-.136-.207,1.986,1.986,0,0,0-.544-.468,2.441,2.441,0,0,0-1.147-.277l-1.588-.13-10.19-.8-3.377-.261-1.794-.136h-.473a.772.772,0,0,0-.495.2.788.788,0,0,0-.13,1.011l4.774,6.553c3.371,4.606,7.069,9.668,10.957,14.986.25.332.473.653.745,1a.778.778,0,0,0,.3.207,1.186,1.186,0,0,0,.332.065l.609.076,2.4.3,4.7.587,8.885,1.088c.185,0,.337.049.544.06a.8.8,0,0,0,.571-.234.826.826,0,0,0,.234-.544.919.919,0,0,0-.207-.544l-1.153-1.762-2.175-3.263-3.893-5.889c-2.382-3.583-4.307-6.493-5.65-8.51l-1.55-2.311c-.174-.25-.31-.451-.413-.593a1.632,1.632,0,0,0-.147-.2,2.107,2.107,0,0,0,.125.217l.386.609c.348.544.854,1.332,1.5,2.338l5.579,8.564,3.866,5.905,2.175,3.29,1.131,1.724a.685.685,0,0,1,.163.408.576.576,0,0,1-.163.381.544.544,0,0,1-.381.158c-.147,0-.348-.043-.517-.06l-8.9-1.136-4.7-.593-2.4-.3-.6-.076a1.384,1.384,0,0,1-.266-.049.543.543,0,0,1-.2-.136c-.239-.326-.479-.647-.718-.979-3.893-5.307-7.613-10.364-10.973-14.97-1.691-2.295-3.29-4.481-4.791-6.525a.544.544,0,0,1,.435-.854,2.578,2.578,0,0,1,.446.027l1.794.131,3.382.239,10.223.707,1.6.109a2.349,2.349,0,0,1,1.126.245A2.175,2.175,0,0,1,349.5,196.878Z" transform="translate(-329.497 -151.351)" fill="#263238"/>
        <path id="Path_8759" data-name="Path 8759" d="M329.91,196.718a1.789,1.789,0,0,0,.359.054l1.044.109,3.883.343,13.2,1.088-.1-.06c.827,1.229,1.68,2.5,2.534,3.806,3.486,5.356,6.525,10.283,8.826,13.785,1.142,1.756,2.094,3.159,2.757,4.127l.772,1.088a2.319,2.319,0,0,0,.288.37,3.893,3.893,0,0,0-.239-.4l-.729-1.137-2.681-4.171c-2.251-3.529-5.269-8.467-8.755-13.828-.854-1.321-1.713-2.594-2.545-3.806l-.038-.054h-.038l-13.208-.979-3.888-.261-1.049-.06A2.629,2.629,0,0,0,329.91,196.718Z" transform="translate(-329.685 -152.316)" fill="#263238"/>
        <path id="Path_8760" data-name="Path 8760" d="M349.5,202.62Z" transform="translate(-338.623 -155.01)" fill="#fff"/>
        <path id="Path_8761" data-name="Path 8761" d="M348.718,202.866a.342.342,0,0,1,.424-.256.952.952,0,0,1,.462.256.468.468,0,0,1,.082.593c-.169.212-.544.131-.729-.044a.614.614,0,0,1-.239-.549Z" transform="translate(-338.264 -155)" fill="#fff"/>
        <path id="Path_8762" data-name="Path 8762" d="M354.974,224.869s.674-1.631-1.044-1.827a60.094,60.094,0,0,0-6.237,0s-2.474.261-1.952,2.034c0,0-1.457,1.305-.674,2.719s1.088.99,1.088.99-.207,1.724,1.088,1.979c0,0,1.414,1.669,2.719,1.566a27.712,27.712,0,0,0,7.189-3.263c.364-.5.886-.816.576-1.4,0,0,.674-1.528-.783-1.762C356.953,225.881,356.85,224.614,354.974,224.869Z" transform="translate(-336.494 -164.29)" fill="#ffbf9d"/>
        <path id="Path_8763" data-name="Path 8763" d="M349.06,226.956a4.47,4.47,0,0,0,1.164.087h2.8a16.241,16.241,0,0,0,2.817-.163c.74-.174,1.033-.609,1-.62a3.083,3.083,0,0,1-1.044.419c-.68.114-1.686.044-2.779.082s-2.083.049-2.8.082a4.856,4.856,0,0,0-1.158.114Z" transform="translate(-338.422 -165.795)" fill="#ff9a6c"/>
        <path id="Path_8764" data-name="Path 8764" d="M351.32,230.112a.957.957,0,0,0,.375.125,4.029,4.029,0,0,0,1.088.071,7.533,7.533,0,0,0,1.566-.288c.576-.158,1.191-.381,1.838-.576a8.3,8.3,0,0,1,1.854-.386,2.811,2.811,0,0,0,1.577-.315.908.908,0,0,0,.375-.544.74.74,0,0,0-.065-.489c-.136-.245-.321-.261-.315-.25a.61.61,0,0,1,.212.3.669.669,0,0,1-.321.81,2.855,2.855,0,0,1-1.479.223,7.65,7.65,0,0,0-1.92.37l-1.827.6a9.462,9.462,0,0,1-1.512.337A11.958,11.958,0,0,1,351.32,230.112Z" transform="translate(-339.453 -166.341)" fill="#ff9a6c"/>
        <path id="Path_8765" data-name="Path 8765" d="M354.72,234.286a4.5,4.5,0,0,0,1.164-.223c.707-.179,1.675-.457,2.719-.8s2-.7,2.675-.973a4.6,4.6,0,0,0,1.088-.506c-.033-.076-1.729.544-3.806,1.2A37.678,37.678,0,0,0,354.72,234.286Z" transform="translate(-341.004 -168.313)" fill="#ff9a6c"/>
        <path id="Path_8766" data-name="Path 8766" d="M353.91,238.115a2.436,2.436,0,0,0,.962-.109,11.555,11.555,0,0,0,2.2-.778c.827-.375,1.55-.761,2.072-1.039a3.355,3.355,0,0,0,.827-.5,18.645,18.645,0,0,0-3.018,1.278C355.329,237.751,353.9,238.034,353.91,238.115Z" transform="translate(-340.635 -170.097)" fill="#ff9a6c"/>
        <path id="Path_8767" data-name="Path 8767" d="M431.827,203.362s-3.513,14.073-7.9,19.271c-4.252,5.035-10.914,2.719-13.219-3.806s-6.417-21.376-6.417-21.376l5.046-3.861,8.7,16.906,3.932-11.523Z" transform="translate(-363.619 -150.89)" fill="#ffbf9d"/>
        <path id="Path_8768" data-name="Path 8768" d="M399.187,187.291l-3.7-5.367a9.361,9.361,0,0,1-1.577-.489c-.419-.245-.832-2.376-.821-2.79s-.718-1.387-.424-1.664,1.283-.294,1.229-.691c0-.087-.734-.979-.158-1.631a3.084,3.084,0,0,1,1.044-.44l-.06-2.05s1.088-2.414,2.235-1.539c0,0,4.258,3.263,4.687,3.806s2.072,7.336,2.36,8.613" transform="translate(-358.282 -140.328)" fill="#ffbf9d"/>
        <path id="Path_8769" data-name="Path 8769" d="M403.885,182.941a1.779,1.779,0,0,0-.054-.359c-.06-.261-.13-.6-.223-1.022-.2-.892-.495-2.175-.9-3.757-.207-.794-.43-1.631-.718-2.583-.071-.228-.147-.462-.245-.7a1.593,1.593,0,0,0-.5-.614c-.391-.343-.8-.68-1.218-1.022-.843-.68-1.74-1.387-2.67-2.11a3.261,3.261,0,0,0-.783-.517,1.088,1.088,0,0,0-.957.228,4.432,4.432,0,0,0-1.136,1.533h0v.658c0,.479,0,.957.043,1.425l.1-.131a4.671,4.671,0,0,0-.75.25,1.169,1.169,0,0,0-.364.239,1.054,1.054,0,0,0-.207.375,1.261,1.261,0,0,0,.065.816,2.106,2.106,0,0,0,.169.353l.092.158v.038h0a.092.092,0,0,1,0,.038c0,.044-.109.109-.212.147s-.218.076-.332.114a3.263,3.263,0,0,0-.348.114.658.658,0,0,0-.353.25.577.577,0,0,0,0,.435,2.333,2.333,0,0,0,.125.343c.092.217.2.424.272.625a.842.842,0,0,1,.065.288,2.359,2.359,0,0,0,.033.348c.033.223.071.44.12.658a8.955,8.955,0,0,0,.343,1.234,1.631,1.631,0,0,0,.326.571,2.018,2.018,0,0,0,.576.256c.375.114.745.207,1.088.288l-.06-.038,2.719,3.893.761,1.055a2.792,2.792,0,0,0,.283.359,3.649,3.649,0,0,0-.234-.392l-.718-1.088c-.647-.962-1.555-2.306-2.67-3.948v-.033h.005c-.348-.087-.712-.185-1.088-.3a1.989,1.989,0,0,1-.495-.217,1.452,1.452,0,0,1-.261-.484,8.356,8.356,0,0,1-.326-1.207c-.043-.212-.082-.424-.114-.642v-.315a1.147,1.147,0,0,0-.076-.37c-.082-.223-.185-.43-.272-.642a1.784,1.784,0,0,1-.114-.31.364.364,0,0,1,0-.25.5.5,0,0,1,.228-.136,2.957,2.957,0,0,1,.332-.109c.114-.038.234-.071.353-.12a.593.593,0,0,0,.348-.288.315.315,0,0,0,.027-.141.222.222,0,0,0-.027-.1v-.044l-.092-.158a2.466,2.466,0,0,1-.152-.321,1.028,1.028,0,0,1-.054-.647.718.718,0,0,1,.152-.283.935.935,0,0,1,.277-.169,4.693,4.693,0,0,1,.707-.239l.1-.027v-.1c0-.468-.027-.941-.044-1.419v-.566a4.144,4.144,0,0,1,1.049-1.436.8.8,0,0,1,.729-.19,3.214,3.214,0,0,1,.7.468c.935.723,1.833,1.425,2.675,2.1.424.337.832.669,1.218,1a1.37,1.37,0,0,1,.451.544c.092.223.169.457.245.68.288.914.544,1.778.74,2.561.408,1.561.745,2.828.979,3.736.114.419.2.756.266,1.011a1.7,1.7,0,0,0,.005.353Z" transform="translate(-358.168 -140.231)" fill="#ff9a6c"/>
        <path id="Path_8770" data-name="Path 8770" d="M396.61,177.273c0,.043.43,0,1.088.076a8.3,8.3,0,0,1,1.164.266,5.361,5.361,0,0,0,1.506,0,2.849,2.849,0,0,1,2.376.772,3.138,3.138,0,0,1,.571.908,1.414,1.414,0,0,0-.435-1.039,2.8,2.8,0,0,0-1.022-.712,3.138,3.138,0,0,0-1.506-.19,5.83,5.83,0,0,1-1.441,0,6.3,6.3,0,0,0-1.2-.212A2.817,2.817,0,0,0,396.61,177.273Z" transform="translate(-360.115 -143.383)" fill="#ff9a6c"/>
        <path id="Path_8771" data-name="Path 8771" d="M399.3,176.242c.06.033.234-.218.212-.571s-.223-.576-.277-.544,0,.272,0,.544S399.234,176.215,399.3,176.242Z" transform="translate(-361.304 -142.466)" fill="#ff9a6c"/>
        <path id="Path_8772" data-name="Path 8772" d="M394.74,180.775a9.348,9.348,0,0,0,3.208-.25,3.17,3.17,0,0,1,1.18-.152,1.283,1.283,0,0,1,.767.506,6.354,6.354,0,0,1,.424.8,1.452,1.452,0,0,0-.266-.924,1.414,1.414,0,0,0-.87-.631,3.04,3.04,0,0,0-1.283.125C396.176,180.639,394.74,180.7,394.74,180.775Z" transform="translate(-359.262 -144.737)" fill="#ff9a6c"/>
        <path id="Path_8773" data-name="Path 8773" d="M393.7,184.3a1.734,1.734,0,0,0,.789,0c.484-.054,1.136-.223,1.843-.364a4.132,4.132,0,0,1,1-.1,1.158,1.158,0,0,1,.712.261,1.175,1.175,0,0,1,.353.625.378.378,0,0,0,.043-.218.886.886,0,0,0-.266-.544,1.272,1.272,0,0,0-.821-.364,3.807,3.807,0,0,0-1.088.082c-.729.141-1.359.337-1.827.435a3.725,3.725,0,0,0-.734.185Z" transform="translate(-358.788 -146.33)" fill="#ff9a6c"/>
        <path id="Path_8774" data-name="Path 8774" d="M396,187.72c-.043.033.321.413.984.413l-.13-.114a1.055,1.055,0,0,0,.038.343,3.806,3.806,0,0,0,.3,1.354,3.7,3.7,0,0,0-.044-1.381l-.049-.343v-.12h-.114A4.506,4.506,0,0,1,396,187.72Z" transform="translate(-359.834 -148.212)" fill="#ff9a6c"/>
        <path id="Path_8775" data-name="Path 8775" d="M437.78,185.35s7.194,1.74,7.178,11.283-2.175,14.252-2.175,14.252l-13.263-7.238,2.98-7.412Z" transform="translate(-375.13 -147.131)" fill="#455a64"/>
        <path id="Path_8776" data-name="Path 8776" d="M442.637,212.556a1.137,1.137,0,0,1-.272-.12l-.772-.392-2.828-1.49-9.456-5.1-.109-.054.044-.114.712-1.86c.848-2.2,1.631-4.3,2.393-6.21q.555-1.427,1.049-2.719a16.424,16.424,0,0,1,1.049-2.316,7.21,7.21,0,0,1,2.393-2.768,2.849,2.849,0,0,1,.935-.375,1.532,1.532,0,0,1,.256-.033h.092a3.632,3.632,0,0,0-1.224.5,7.211,7.211,0,0,0-2.278,2.773,17.246,17.246,0,0,0-1.006,2.3q-.481,1.281-1.028,2.719l-2.371,6.221-.712,1.86-.065-.174,9.44,5.182,2.784,1.566.745.435a1.284,1.284,0,0,1,.228.163Z" transform="translate(-374.984 -148.801)" fill="#263238"/>
      </g>
    </g>
  </g>
</svg>
