<svg width="470" height="470" viewBox="0 0 470 470" fill="none" xmlns="http://www.w3.org/2000/svg">
<path d="M268.115 92.3269C268.012 92.2422 275.701 82.673 285.28 70.97C294.858 59.267 302.717 49.8388 302.82 49.9234C302.923 50.008 295.244 59.5678 285.656 71.2802C276.068 82.9926 268.247 92.4114 268.115 92.3269Z" fill="#263238"/>
<path d="M244.4 185.547C244.4 185.547 234.22 182.36 230.939 190.82L226.146 185.763C226.146 185.763 235.828 174.154 244.147 181.063L244.4 185.547Z" fill="#E0E0E0"/>
<path d="M297.2 348.975C297.2 348.975 299.287 359.456 308.301 358.281L306.149 364.917C306.149 364.917 291.325 361.947 293.43 351.334L297.2 348.975Z" fill="#E0E0E0"/>
<path d="M255.389 68.4226C255.471 69.4537 255.388 70.4912 255.145 71.4964C255.058 72.526 254.807 73.5351 254.402 74.4856C254.318 73.4638 254.4 72.4352 254.646 71.44C254.726 70.4002 254.977 69.3807 255.389 68.4226Z" fill="white"/>
<path d="M440.625 260.859C441.117 261.768 441.462 262.748 441.65 263.764C441.996 264.739 442.177 265.765 442.185 266.8C441.694 265.892 441.348 264.912 441.161 263.896C440.82 262.919 440.639 261.894 440.625 260.859Z" fill="white"/>
<path d="M210.955 355.508C210.955 355.508 202.984 357.144 203.915 363.968L198.857 362.351C198.857 362.351 201.048 351.071 209.141 352.603L210.955 355.508Z" fill="#E0E0E0"/>
<path d="M264.235 260.051C264.235 260.051 256.263 261.687 257.203 268.511L252.137 266.96C252.137 266.96 254.327 255.68 262.42 257.212L264.235 260.051Z" fill="#E0E0E0"/>
<path d="M439.995 403.984C439.995 403.984 432.024 405.619 432.964 412.444L427.897 410.836C427.897 410.836 430.088 399.556 438.181 401.089L439.995 403.984Z" fill="#E0E0E0"/>
<path d="M424.88 177.848C424.88 177.848 416.909 179.484 417.839 186.308L412.782 184.701C412.782 184.701 414.972 173.421 423.066 174.953L424.88 177.848Z" fill="#E0E0E0"/>
<path d="M377.269 305.744C377.269 305.744 382.476 311.995 388.079 307.935L389.019 313.152C389.019 313.152 378.021 316.564 375.567 308.696L377.269 305.744Z" fill="#E0E0E0"/>
<path d="M400.026 57.5468C400.026 57.5468 410.019 61.3068 413.807 53.063L418.3 58.4116C418.3 58.4116 407.96 69.4002 400.026 62.04V57.5468Z" fill="#E0E0E0"/>
<path d="M272.036 344.613L272.177 344.801L272.572 345.384C273.032 346.158 273.372 346.998 273.578 347.875C273.87 349.28 273.87 350.729 273.578 352.133C272.97 355.104 271.299 357.752 268.878 359.578C267.943 360.334 266.875 360.907 265.729 361.27C263.213 362.117 260.518 362.282 257.918 361.75C255.054 361.176 252.343 360.01 249.956 358.328C248.674 357.469 247.503 356.456 246.468 355.311C245.391 354.114 244.603 352.686 244.165 351.137C243.953 350.336 243.927 349.496 244.09 348.684C244.26 347.872 244.662 347.128 245.246 346.54C245.83 345.995 246.531 345.591 247.295 345.358C248.059 345.125 248.866 345.07 249.655 345.196C251.169 345.445 252.552 346.205 253.575 347.349C254.56 348.406 255.312 349.658 255.784 351.024C256.67 353.542 256.742 356.275 255.991 358.836C255.359 361.066 254.087 363.063 252.334 364.579C251.574 365.237 250.73 365.79 249.824 366.224C249.026 366.632 248.184 366.947 247.314 367.164C245.931 367.517 244.497 367.631 243.075 367.502C242.18 367.416 241.297 367.23 240.443 366.948L239.794 366.685C239.717 366.664 239.643 366.629 239.578 366.581C240.712 366.972 241.89 367.221 243.084 367.324C244.486 367.419 245.893 367.279 247.249 366.91C248.095 366.688 248.915 366.372 249.693 365.97C250.567 365.534 251.382 364.988 252.118 364.344C253.81 362.845 255.029 360.885 255.624 358.704C256.326 356.233 256.241 353.604 255.38 351.184C254.922 349.881 254.199 348.686 253.255 347.678C252.301 346.61 251.011 345.9 249.599 345.666C248.879 345.55 248.143 345.6 247.445 345.812C246.748 346.023 246.109 346.392 245.575 346.888C245.069 347.438 244.716 348.111 244.551 348.84C244.386 349.569 244.415 350.329 244.635 351.043C245.057 352.521 245.809 353.884 246.835 355.029C247.845 356.143 248.984 357.134 250.228 357.98C252.563 359.626 255.213 360.772 258.012 361.345C260.539 361.877 263.162 361.735 265.616 360.932C266.176 360.739 266.722 360.51 267.252 360.246C267.75 359.968 268.228 359.653 268.681 359.306C271.062 357.54 272.729 354.978 273.381 352.086C273.697 350.72 273.732 349.303 273.484 347.922C273.181 346.749 272.693 345.632 272.036 344.613Z" fill="#EBEBEB"/>
<path d="M421.75 360.481C421.806 360.536 421.854 360.599 421.891 360.669L422.285 361.251C422.745 362.027 423.088 362.866 423.301 363.742C423.587 365.147 423.587 366.596 423.301 368.001C422.901 369.857 422.099 371.603 420.951 373.114C420.269 373.985 419.483 374.768 418.61 375.445C418.141 375.793 417.647 376.107 417.134 376.385C416.591 376.667 416.029 376.909 415.452 377.109C412.935 377.952 410.24 378.115 407.64 377.579C404.778 377.009 402.066 375.846 399.678 374.167C398.399 373.305 397.228 372.292 396.191 371.15C395.116 369.949 394.332 368.518 393.897 366.967C393.686 366.169 393.657 365.333 393.813 364.523C393.986 363.713 394.387 362.969 394.969 362.379C395.554 361.832 396.256 361.426 397.021 361.191C397.787 360.956 398.596 360.9 399.387 361.026C400.901 361.282 402.282 362.045 403.307 363.188C404.287 364.243 405.037 365.492 405.506 366.854C406.397 369.371 406.47 372.105 405.713 374.665C405.084 376.899 403.812 378.9 402.057 380.418C401.296 381.072 400.452 381.622 399.547 382.054C398.751 382.46 397.912 382.775 397.046 382.994C395.66 383.349 394.223 383.466 392.798 383.341C391.902 383.252 391.019 383.063 390.166 382.777L389.517 382.524L389.301 382.42C390.439 382.805 391.619 383.051 392.816 383.153C394.218 383.253 395.626 383.113 396.981 382.74C397.826 382.522 398.643 382.206 399.415 381.8C400.296 381.375 401.113 380.828 401.84 380.174C403.534 378.676 404.753 376.715 405.347 374.534C406.048 372.063 405.966 369.436 405.112 367.014C404.65 365.708 403.923 364.511 402.978 363.498C402.021 362.434 400.732 361.725 399.321 361.486C398.602 361.374 397.866 361.425 397.17 361.637C396.473 361.848 395.833 362.215 395.298 362.708C394.789 363.259 394.435 363.934 394.27 364.665C394.105 365.396 394.135 366.157 394.358 366.873C394.776 368.35 395.525 369.713 396.548 370.858C397.565 371.968 398.707 372.955 399.951 373.8C402.282 375.45 404.928 376.599 407.725 377.175C410.256 377.704 412.882 377.558 415.339 376.752C415.898 376.566 416.441 376.336 416.965 376.066C418.417 375.271 419.696 374.194 420.725 372.898C421.863 371.431 422.668 369.734 423.084 367.925C423.399 366.559 423.438 365.143 423.197 363.761C422.897 362.596 422.408 361.488 421.75 360.481Z" fill="#EBEBEB"/>
<path d="M439.103 209.329C439.158 209.381 439.205 209.442 439.244 209.507L439.639 210.09C440.099 210.864 440.438 211.704 440.644 212.581C440.936 213.985 440.936 215.435 440.644 216.839C440.24 218.697 439.438 220.444 438.294 221.962C437.613 222.83 436.827 223.61 435.954 224.284C435.484 224.631 434.991 224.945 434.478 225.224C433.935 225.502 433.373 225.741 432.795 225.938C430.279 226.785 427.584 226.95 424.984 226.418C422.121 225.844 419.409 224.678 417.022 222.996C415.74 222.137 414.569 221.124 413.535 219.979C412.456 218.785 411.67 217.356 411.241 215.805C411.025 215.005 410.997 214.165 411.157 213.352C411.331 212.542 411.732 211.799 412.313 211.209C412.898 210.663 413.6 210.258 414.366 210.025C415.132 209.792 415.941 209.737 416.731 209.864C418.243 210.118 419.625 210.877 420.651 212.017C421.63 213.076 422.379 214.328 422.85 215.692C423.741 218.209 423.813 220.943 423.057 223.504C422.425 225.734 421.154 227.731 419.4 229.247C418.641 229.905 417.797 230.458 416.891 230.892C416.092 231.3 415.25 231.615 414.381 231.832C412.997 232.185 411.563 232.299 410.141 232.171C409.246 232.084 408.363 231.898 407.509 231.616L406.861 231.353C406.784 231.329 406.711 231.294 406.645 231.249C407.781 231.641 408.962 231.89 410.16 231.992C411.562 232.086 412.969 231.947 414.324 231.578C415.168 231.356 415.985 231.041 416.759 230.638C417.636 230.207 418.452 229.66 419.184 229.012C420.877 227.513 422.095 225.553 422.69 223.372C423.392 220.902 423.309 218.274 422.455 215.852C421.991 214.55 421.265 213.357 420.322 212.346C419.368 211.278 418.077 210.568 416.665 210.334C415.946 210.218 415.209 210.268 414.512 210.48C413.815 210.692 413.175 211.06 412.642 211.556C412.133 212.105 411.778 212.778 411.613 213.507C411.448 214.237 411.479 214.997 411.702 215.711C412.116 217.19 412.865 218.554 413.892 219.697C414.906 220.812 416.048 221.802 417.295 222.648C419.625 224.296 422.272 225.442 425.069 226.014C427.599 226.545 430.225 226.402 432.683 225.6C433.238 225.405 433.782 225.176 434.309 224.914C434.809 224.634 435.29 224.32 435.747 223.974C438.124 222.205 439.791 219.644 440.447 216.755C440.762 215.388 440.8 213.972 440.56 212.59C440.252 211.432 439.76 210.331 439.103 209.329Z" fill="#EBEBEB"/>
<path d="M395.553 256.545C395.553 257.024 395.41 257.493 395.144 257.892C394.877 258.291 394.499 258.602 394.055 258.785C393.612 258.969 393.125 259.017 392.654 258.923C392.184 258.83 391.752 258.599 391.412 258.26C391.073 257.92 390.842 257.488 390.749 257.018C390.655 256.547 390.703 256.06 390.887 255.617C391.07 255.174 391.381 254.795 391.78 254.528C392.179 254.262 392.648 254.12 393.127 254.12C393.77 254.122 394.385 254.378 394.839 254.833C395.294 255.287 395.55 255.902 395.553 256.545Z" fill="#EBEBEB"/>
<path d="M249.26 318.951C249.26 319.431 249.117 319.9 248.851 320.299C248.584 320.698 248.206 321.008 247.762 321.192C247.319 321.376 246.832 321.424 246.361 321.33C245.891 321.236 245.459 321.005 245.119 320.666C244.78 320.327 244.549 319.895 244.456 319.425C244.362 318.954 244.41 318.466 244.594 318.023C244.777 317.58 245.088 317.201 245.487 316.935C245.886 316.668 246.355 316.526 246.834 316.526C247.478 316.526 248.094 316.782 248.549 317.237C249.004 317.691 249.26 318.308 249.26 318.951Z" fill="#EBEBEB"/>
<path d="M411.579 351.4C411.579 351.88 411.437 352.349 411.17 352.748C410.904 353.146 410.525 353.457 410.082 353.641C409.639 353.824 409.151 353.872 408.681 353.779C408.21 353.685 407.778 353.454 407.439 353.115C407.1 352.776 406.869 352.344 406.775 351.873C406.682 351.403 406.73 350.915 406.913 350.472C407.097 350.029 407.408 349.65 407.806 349.384C408.205 349.117 408.674 348.975 409.154 348.975C409.473 348.974 409.788 349.036 410.083 349.157C410.378 349.279 410.646 349.457 410.871 349.683C411.097 349.908 411.275 350.176 411.397 350.471C411.518 350.765 411.58 351.081 411.579 351.4Z" fill="#EBEBEB"/>
<path d="M357.106 62.3596C357.108 62.8396 356.967 63.3094 356.702 63.7095C356.437 64.1096 356.059 64.4219 355.616 64.6069C355.173 64.7919 354.685 64.8412 354.214 64.7487C353.743 64.6562 353.31 64.426 352.97 64.0872C352.629 63.7484 352.397 63.3163 352.303 62.8456C352.209 62.3749 352.256 61.8868 352.44 61.4431C352.623 60.9994 352.934 60.6201 353.333 60.3532C353.732 60.0863 354.201 59.9438 354.681 59.9438C355.322 59.9462 355.936 60.2013 356.39 60.6535C356.844 61.1058 357.101 61.7188 357.106 62.3596Z" fill="#EBEBEB"/>
<path d="M425.924 123.319C425.924 123.798 425.781 124.267 425.515 124.666C425.248 125.065 424.87 125.376 424.427 125.559C423.983 125.743 423.496 125.791 423.025 125.697C422.555 125.604 422.123 125.373 421.784 125.033C421.444 124.694 421.213 124.262 421.12 123.792C421.026 123.321 421.074 122.834 421.258 122.39C421.441 121.947 421.752 121.569 422.151 121.302C422.55 121.036 423.019 120.893 423.498 120.893C424.142 120.893 424.759 121.149 425.213 121.604C425.668 122.059 425.924 122.675 425.924 123.319Z" fill="#EBEBEB"/>
<path d="M207.327 233.938C207.327 234.417 207.185 234.886 206.918 235.285C206.652 235.684 206.273 235.995 205.83 236.178C205.387 236.362 204.899 236.41 204.429 236.316C203.958 236.223 203.526 235.992 203.187 235.653C202.848 235.313 202.617 234.881 202.523 234.411C202.43 233.94 202.478 233.453 202.661 233.01C202.845 232.567 203.156 232.188 203.554 231.921C203.953 231.655 204.422 231.513 204.902 231.513C205.545 231.513 206.162 231.768 206.617 232.223C207.071 232.678 207.327 233.295 207.327 233.938Z" fill="#EBEBEB"/>
<path d="M82.7201 377.579C80.9811 370.999 82.8235 362.99 86.9783 357.585C87.2885 357.181 87.6927 356.758 88.1909 356.805C88.9617 356.871 89.1309 357.896 89.1309 358.685C88.8101 365.46 86.5884 372.008 82.7201 377.579Z" fill="#E0E0E0"/>
<path d="M83.1805 353.318C84.5531 349.199 85.4981 344.95 86.0005 340.637C86.3295 336.313 85.7185 331.792 83.4719 328.079C79.2795 336.191 78.8565 345.676 83.1053 353.76" fill="#E0E0E0"/>
<path d="M85.2021 322.091C88.2019 324.853 91.7457 326.958 95.6064 328.271C99.467 329.584 103.559 330.075 107.621 329.714C107.996 329.723 108.361 329.592 108.646 329.348C109.21 328.737 108.533 327.787 107.875 327.28C101.295 322.138 93.2955 320.004 85.2021 322.091Z" fill="#E0E0E0"/>
<path d="M88.6138 305.791C87.9746 299.211 88.3882 294.013 87.937 287.405C87.937 286.879 87.7866 286.249 87.2884 286.051C86.6022 285.788 86.0288 286.634 85.8032 287.339C84.8481 290.403 84.6056 293.645 85.0943 296.817C85.5831 299.988 86.7901 303.007 88.6232 305.641" fill="#E0E0E0"/>
<path d="M88.1436 306.515C92.4394 303.738 96.1422 300.138 99.0382 295.921C101.191 292.979 103.005 289.454 102.516 285.835C101.002 285.877 99.5148 286.248 98.1579 286.921C96.801 287.595 95.6067 288.555 94.6578 289.736C92.7818 292.12 91.4185 294.866 90.6534 297.801C89.7792 300.697 89.1682 303.667 88.1436 306.515Z" fill="#E0E0E0"/>
<path d="M108.1 295.207C107.998 295.336 107.885 295.455 107.762 295.564L106.747 296.504L102.987 299.963L90.2404 311.234C85.296 315.633 81.0284 319.826 78.0768 322.993C76.5916 324.573 75.426 325.879 74.6364 326.753L73.6964 327.806C73.4802 328.041 73.3674 328.163 73.3486 328.154C73.4247 328.01 73.5161 327.874 73.6212 327.75C73.8186 327.496 74.0912 327.111 74.4766 326.641C75.2286 325.701 76.3566 324.347 77.8136 322.74C81.6481 318.578 85.7021 314.624 89.9584 310.896C94.9122 306.506 99.4242 302.567 102.705 299.728L106.596 296.382L107.677 295.489C107.805 295.376 107.947 295.281 108.1 295.207Z" fill="#E0E0E0"/>
<path d="M84.9388 315.708C84.8072 315.643 85.8788 313.264 86.8188 310.256C87.7588 307.248 88.3416 304.701 88.4732 304.72C88.3652 306.652 87.9528 308.556 87.2512 310.36C86.8082 311.658 86.2968 312.932 85.719 314.176C85.5304 314.72 85.2679 315.236 84.9388 315.708Z" fill="#E0E0E0"/>
<path d="M96.3123 367.352C95.8906 367.628 95.451 367.876 94.9963 368.095C93.8086 368.766 92.6713 369.523 91.5936 370.36C89.9989 371.602 88.5029 372.966 87.1191 374.44C85.5493 376.103 83.9325 378.03 82.2781 380.08C78.9787 384.225 75.8955 387.882 74.0437 390.805C73.1037 392.262 72.4269 393.484 71.9757 394.339C71.7639 394.797 71.5221 395.239 71.252 395.665C71.2751 395.534 71.3162 395.408 71.3742 395.289C71.4776 395.054 71.6092 394.697 71.816 394.264C72.3926 393.016 73.0456 391.804 73.7712 390.636C75.5666 387.637 78.631 383.924 81.921 379.798C83.5754 377.73 85.2109 375.793 86.8089 374.158C88.2217 372.684 89.7562 371.332 91.3962 370.116C92.5014 369.295 93.678 368.574 94.9118 367.963C95.3442 367.747 95.7013 367.606 95.9363 367.512C96.0525 367.439 96.1794 367.385 96.3123 367.352Z" fill="#E0E0E0"/>
<path d="M96.8202 376.536C95.8914 376.74 94.9488 376.875 94.0002 376.94C91.7714 377.168 89.5687 377.602 87.4202 378.237C85.2947 378.927 83.3018 379.973 81.5264 381.33C80.1728 382.373 79.5336 383.21 79.4678 383.21C79.5789 382.979 79.7247 382.767 79.9002 382.58C80.3316 382.04 80.8166 381.546 81.3478 381.104C83.1036 379.641 85.1234 378.527 87.298 377.824C89.4766 377.176 91.7221 376.778 93.9908 376.639C94.9289 376.52 95.8758 376.485 96.8202 376.536Z" fill="#E0E0E0"/>
<path d="M80.2951 382.185C80.1541 382.101 81.4043 380.192 82.3725 377.626C83.3407 375.06 83.5005 372.757 83.6603 372.785C83.7431 373.277 83.7431 373.779 83.6603 374.27C83.5218 375.466 83.2506 376.642 82.8519 377.777C82.4295 378.904 81.8908 379.985 81.2445 381.001C80.9983 381.447 80.6771 381.848 80.2951 382.185Z" fill="#E0E0E0"/>
<path d="M104.425 342.705C104.286 342.8 104.138 342.879 103.983 342.94L102.676 343.532C102.103 343.786 101.407 344.096 100.627 344.472C99.8468 344.848 98.9256 345.3 97.9762 345.873L96.4628 346.728C95.9364 347.029 95.4193 347.386 94.8647 347.734C93.7461 348.411 92.6275 349.248 91.4337 350.103C86.3346 353.911 81.8898 358.524 78.2737 363.761C77.4653 364.983 76.6663 366.13 76.0271 367.267C75.7075 367.831 75.3597 368.367 75.0871 368.894L74.26 370.473C73.7242 371.413 73.32 372.353 72.9628 373.171C72.6056 373.988 72.286 374.665 72.0228 375.248C71.7596 375.831 71.6186 376.188 71.4776 376.564C71.4249 376.725 71.3489 376.877 71.252 377.015C71.2857 376.852 71.3329 376.691 71.3929 376.536L71.8536 375.182C72.0604 374.59 72.3236 373.876 72.6902 373.067C73.0568 372.259 73.414 371.309 73.931 370.322L74.7205 368.753C75.0025 368.217 75.3315 367.672 75.6605 367.098C76.2903 365.951 77.08 364.786 77.8884 363.545C81.5063 358.237 86.0009 353.583 91.1799 349.783C92.3831 348.937 93.5206 348.11 94.6486 347.443C95.2126 347.104 95.7389 346.747 96.2747 346.456L97.8163 345.61C98.7563 345.055 99.6963 344.67 100.505 344.275C101.183 343.926 101.88 343.612 102.592 343.335L103.936 342.818C104.094 342.764 104.258 342.726 104.425 342.705Z" fill="#E0E0E0"/>
<path d="M84.6006 355.997C84.7881 355.36 85.1652 354.796 85.6816 354.38C86.9052 353.32 88.4624 352.725 90.0808 352.697C91.6699 352.697 93.2428 353.016 94.7056 353.637C95.327 353.824 95.9142 354.11 96.4446 354.483C95.8028 354.358 95.1736 354.176 94.5646 353.938C93.1142 353.446 91.5936 353.192 90.062 353.186C88.5431 353.22 87.0746 353.737 85.8696 354.662C85.4139 355.075 84.9897 355.521 84.6006 355.997Z" fill="#E0E0E0"/>
<path d="M81.6299 359.08C82.2216 357.787 82.6419 356.421 82.8801 355.019C82.9663 353.6 82.8716 352.175 82.5981 350.78C82.8598 351.129 83.0368 351.535 83.1151 351.964C83.3818 352.979 83.4551 354.034 83.3313 355.076C83.2138 356.117 82.8945 357.126 82.3913 358.046C82.0153 358.723 81.6769 359.08 81.6299 359.08Z" fill="#E0E0E0"/>
<path d="M89.1403 419.823C89.1403 419.945 81.0939 420.048 71.1769 420.048C61.2599 420.048 53.2041 419.945 53.2041 419.823C53.2041 419.701 61.2411 419.588 71.1769 419.588C81.1127 419.588 89.1403 419.691 89.1403 419.823Z" fill="#FAFAFA"/>
<path d="M88.5949 424.213C88.5949 424.335 81.0749 424.438 71.7501 424.438C62.4253 424.438 54.9053 424.335 54.9053 424.213C54.9053 424.09 62.4253 423.987 71.7501 423.987C81.0749 423.987 88.5949 424.081 88.5949 424.213Z" fill="#FAFAFA"/>
<path d="M59.6902 408.157C60.0046 411.911 60.0046 415.684 59.6902 419.437C59.3884 415.683 59.3884 411.911 59.6902 408.157Z" fill="#FAFAFA"/>
<path d="M72.7842 408.157C73.0975 412.04 73.0975 415.941 72.7842 419.823C72.4834 415.94 72.4834 412.04 72.7842 408.157Z" fill="#FAFAFA"/>
<path d="M85.0791 408.063C85.3799 412.021 85.3799 415.996 85.0791 419.954C84.7783 415.996 84.7783 412.021 85.0791 408.063Z" fill="#FAFAFA"/>
<path d="M92.327 408.157C92.327 408.289 82.927 408.392 71.2522 408.392C59.5774 408.392 50.168 408.289 50.168 408.157C50.168 408.026 59.568 407.932 71.2522 407.932C82.9364 407.932 92.327 408.035 92.327 408.157Z" fill="#FAFAFA"/>
<path d="M437.269 437.307C437.269 437.448 346.7 437.551 235.009 437.551C123.318 437.551 32.7305 437.448 32.7305 437.307C32.7305 437.166 123.281 437.1 235 437.1C346.719 437.1 437.269 437.175 437.269 437.307Z" fill="#263238"/>
<path d="M324.213 438.234C330.712 434.734 336.152 429.552 339.964 423.231C343.776 416.911 345.821 409.682 345.885 402.301C345.948 394.92 344.029 387.657 340.327 381.271C336.625 374.885 331.276 369.61 324.839 365.998C318.402 362.386 311.112 360.568 303.733 360.736C296.353 360.903 289.154 363.049 282.887 366.949C276.62 370.849 271.516 376.361 268.107 382.908C264.698 389.455 263.11 396.798 263.508 404.168L254.353 409.094L271.479 440.903C271.479 440.903 276.725 438.328 281.349 435.931C287.592 440.218 294.896 442.701 302.458 443.107C310.02 443.514 317.547 441.827 324.213 438.234Z" fill="#FB9232"/>
<path d="M261.619 421.85C273.425 415.27 285.673 409.46 297.339 402.617C299.764 401.188 302.18 399.722 304.454 398.068C307.359 395.953 310.254 393.086 310.019 389.185C309.784 385.284 306.645 383.366 303.054 383.545C299.588 383.777 296.269 385.037 293.522 387.164C290.691 389.223 288.479 392.018 287.127 395.247C285.775 398.475 285.334 402.013 285.852 405.475C286.406 408.954 287.899 412.216 290.17 414.909C292.441 417.602 295.404 419.625 298.739 420.759C305.319 422.855 313.704 421.276 318.385 415.993C320.5 413.606 322.145 409.874 320.369 406.828C318.592 403.783 314.841 403.557 311.739 404.243C308.412 404.977 305.206 406.556 302.104 407.938C298.485 409.545 294.923 411.265 291.37 413.023C284.094 416.633 276.903 420.421 269.618 424.03C267.982 424.851 266.337 425.653 264.683 426.437C263.32 427.085 264.514 429.116 265.877 428.467C278.595 422.404 290.881 415.439 303.778 409.752C306.569 408.355 309.499 407.256 312.52 406.471C315.189 405.917 318.93 406.405 318.752 409.94C318.592 413.183 315.697 415.702 313.112 417.159C310.315 418.684 307.158 419.422 303.975 419.293C300.823 419.141 297.778 418.101 295.193 416.292C292.607 414.483 290.586 411.979 289.363 409.07C288.14 406.162 287.765 402.966 288.282 399.853C288.798 396.74 290.185 393.836 292.281 391.478C294.366 389.127 297.054 387.391 300.055 386.459C302.772 385.641 307.256 385.255 307.688 389.062C308.092 392.597 304.868 395.041 302.264 396.808C300.3 398.171 298.25 399.412 296.192 400.624C285.617 406.828 274.572 412.205 263.79 418.033L260.472 419.857C260.203 420.014 260.007 420.271 259.927 420.573C259.848 420.874 259.892 421.195 260.049 421.464C260.206 421.733 260.463 421.929 260.765 422.009C261.066 422.088 261.387 422.044 261.656 421.887L261.619 421.85Z" fill="white"/>
<path d="M240.684 427.903C240.59 428.954 240.346 429.986 239.96 430.968C239.816 431.307 239.751 431.674 239.769 432.042C239.786 432.41 239.887 432.769 240.063 433.092L243.523 439.493C243.708 439.843 243.977 440.143 244.304 440.366C244.632 440.588 245.009 440.728 245.403 440.772C246.484 440.841 247.507 441.29 248.288 442.041L240.684 427.903Z" fill="#E0E0E0"/>
<path d="M254.738 411.369C254.606 411.434 245.413 418.306 241.897 420.938C241.18 421.462 240.604 422.157 240.221 422.959C239.839 423.762 239.662 424.647 239.707 425.534C239.75 426.249 239.949 426.945 240.29 427.574L247.81 441.571C247.81 441.571 249.784 445.227 253.13 444.485C256.655 443.714 269.552 438.845 269.552 438.845L254.738 411.369Z" fill="#E0E0E0"/>
<path d="M242.159 419.221L242.084 419.261C241.701 419.469 241.56 419.949 241.768 420.332L255.003 444.657C255.211 445.04 255.691 445.182 256.074 444.973L256.148 444.933C256.531 444.724 256.673 444.245 256.464 443.862L243.229 419.537C243.021 419.154 242.542 419.012 242.159 419.221Z" fill="#E0E0E0"/>
<path d="M255.01 444.654C255.124 444.82 255.289 444.946 255.48 445.011C255.597 445.038 255.719 445.04 255.837 445.017C255.955 444.994 256.067 444.948 256.166 444.88C256.302 444.793 256.407 444.665 256.464 444.514C256.522 444.363 256.529 444.198 256.486 444.043C255.79 442.708 254.681 440.772 253.375 438.403L243.11 419.603C243.057 419.509 242.983 419.429 242.893 419.37C242.803 419.311 242.7 419.275 242.593 419.265C242.483 419.255 242.373 419.274 242.273 419.321C242.169 419.363 242.074 419.424 241.991 419.5C241.916 419.577 241.861 419.671 241.832 419.774C241.802 419.878 241.799 419.987 241.822 420.092C241.905 420.319 242.012 420.536 242.142 420.74L243.58 423.382C244.52 425.111 245.46 426.785 246.287 428.373L250.855 436.833L253.92 442.548C254.268 443.216 254.54 443.742 254.738 444.109L254.944 444.522L255.01 444.663C255.01 444.663 255.01 444.663 254.926 444.532C254.841 444.4 254.785 444.306 254.691 444.137L253.826 442.605L250.686 436.965C249.37 434.558 247.8 431.701 246.071 428.505C245.2 426.913 244.291 425.252 243.345 423.523L241.907 420.881L241.728 420.552C241.651 420.43 241.594 420.297 241.559 420.158C241.531 420.01 241.538 419.858 241.581 419.714C241.623 419.57 241.699 419.439 241.803 419.33C241.911 419.229 242.035 419.146 242.17 419.086C242.382 419 242.619 418.994 242.836 419.07C243.052 419.146 243.233 419.299 243.345 419.5L253.544 438.3C254.832 440.715 255.903 442.642 256.589 444.034C256.609 444.183 256.593 444.335 256.542 444.476C256.491 444.618 256.406 444.746 256.296 444.848C256.185 444.95 256.052 445.024 255.907 445.064C255.761 445.104 255.609 445.108 255.461 445.077C255.358 445.047 255.264 444.993 255.185 444.919C255.107 444.846 255.047 444.755 255.01 444.654Z" fill="#263238"/>
<path d="M245.027 417.006L244.952 417.047C244.569 417.255 244.428 417.735 244.636 418.118L258.433 443.475C258.641 443.858 259.121 444 259.504 443.791L259.578 443.751C259.961 443.542 260.103 443.063 259.894 442.68L246.098 417.323C245.889 416.94 245.41 416.798 245.027 417.006Z" fill="#E0E0E0"/>
<path d="M258.432 443.47C258.548 443.646 258.726 443.773 258.93 443.827C259.052 443.855 259.179 443.856 259.301 443.828C259.423 443.8 259.537 443.745 259.635 443.667C259.768 443.568 259.865 443.427 259.91 443.268C259.956 443.108 259.949 442.938 259.889 442.783L256.618 436.89C253.882 431.879 250.122 424.989 245.958 417.385C245.905 417.285 245.827 417.201 245.731 417.142C245.635 417.083 245.525 417.05 245.413 417.046C245.302 417.039 245.192 417.062 245.093 417.112C244.986 417.157 244.89 417.224 244.811 417.309C244.737 417.394 244.687 417.497 244.665 417.608C244.644 417.718 244.652 417.833 244.689 417.939C244.774 418.137 244.933 418.4 245.046 418.616L246.541 421.361C247.506 423.166 248.446 424.895 249.361 426.55L254.061 435.339C255.396 437.839 256.486 439.86 257.247 441.279L258.093 442.896L258.31 443.329C258.357 443.423 258.385 443.47 258.375 443.47L258.291 443.338L258.046 442.924L257.153 441.326L253.892 435.433C252.529 432.932 250.902 429.962 249.098 426.672L246.278 421.492L244.783 418.748C244.661 418.503 244.529 418.315 244.407 418.024C244.359 417.874 244.35 417.715 244.379 417.56C244.409 417.406 244.476 417.262 244.576 417.14C244.676 417.023 244.802 416.929 244.943 416.868C245.083 416.799 245.238 416.767 245.394 416.774C245.553 416.782 245.706 416.83 245.841 416.914C245.976 416.998 246.087 417.115 246.165 417.253L256.759 436.796C258.103 439.305 259.193 441.317 259.936 442.746C259.992 442.914 259.993 443.096 259.939 443.265C259.885 443.434 259.778 443.581 259.635 443.686C259.526 443.764 259.402 443.817 259.271 443.843C259.139 443.869 259.004 443.867 258.874 443.836C258.778 443.81 258.69 443.763 258.614 443.7C258.538 443.637 258.476 443.558 258.432 443.47Z" fill="#263238"/>
<path d="M261.76 442.107L247.603 416.087C247.554 415.996 247.523 415.896 247.512 415.793C247.501 415.689 247.511 415.585 247.541 415.485C247.57 415.386 247.619 415.293 247.685 415.212C247.751 415.132 247.831 415.065 247.923 415.016H247.998C248.18 414.918 248.394 414.896 248.593 414.954C248.791 415.012 248.959 415.145 249.06 415.326L263.198 441.308C263.249 441.398 263.282 441.498 263.294 441.601C263.306 441.704 263.297 441.809 263.268 441.909C263.239 442.008 263.191 442.102 263.125 442.182C263.06 442.263 262.979 442.33 262.888 442.379H262.813C262.635 442.475 262.428 442.5 262.233 442.45C262.037 442.399 261.868 442.277 261.76 442.107Z" fill="#E0E0E0"/>
<path d="M261.759 442.107C261.883 442.28 262.062 442.406 262.267 442.464C262.392 442.489 262.522 442.486 262.646 442.453C262.77 442.42 262.884 442.36 262.981 442.276C263.122 442.169 263.22 442.016 263.257 441.844C263.295 441.672 263.271 441.492 263.188 441.336L259.86 435.367L248.947 415.401C248.89 415.301 248.808 415.217 248.71 415.158C248.611 415.098 248.498 415.066 248.383 415.063C248.269 415.064 248.157 415.09 248.054 415.138C247.897 415.212 247.773 415.341 247.706 415.5C247.638 415.66 247.632 415.839 247.687 416.003C247.8 416.219 247.941 416.473 248.073 416.708L249.596 419.528L252.472 424.839L257.341 433.835C258.714 436.391 259.823 438.459 260.594 439.916L261.468 441.571L261.693 442.003C261.74 442.107 261.769 442.154 261.759 442.163L261.665 442.022C261.609 441.909 261.524 441.778 261.421 441.599L260.481 439.963L257.144 433.929L252.228 424.952L249.332 419.65L247.81 416.83C247.678 416.586 247.546 416.369 247.415 416.097C247.35 415.943 247.327 415.775 247.349 415.61C247.37 415.445 247.435 415.289 247.537 415.157C247.635 415.037 247.757 414.938 247.894 414.865C248.039 414.791 248.201 414.752 248.364 414.753C248.527 414.759 248.685 414.807 248.824 414.893C248.962 414.978 249.076 415.099 249.154 415.241L259.992 435.245L263.254 441.326C263.337 441.5 263.358 441.697 263.312 441.884C263.265 442.072 263.155 442.237 263 442.351C262.894 442.439 262.769 442.5 262.636 442.531C262.502 442.562 262.363 442.562 262.229 442.53C262.124 442.499 262.027 442.445 261.946 442.372C261.864 442.299 261.8 442.208 261.759 442.107Z" fill="#263238"/>
<path d="M250.859 412.756L250.784 412.796C250.401 413.005 250.26 413.484 250.468 413.867L265.199 440.942C265.408 441.325 265.887 441.466 266.27 441.258L266.344 441.218C266.727 441.009 266.869 440.53 266.661 440.147L251.93 413.072C251.721 412.689 251.242 412.547 250.859 412.756Z" fill="#E0E0E0"/>
<path d="M265.19 440.932C265.319 441.114 265.509 441.244 265.726 441.298C265.857 441.321 265.992 441.312 266.119 441.273C266.247 441.234 266.363 441.165 266.459 441.073C266.585 440.955 266.667 440.796 266.689 440.625C266.712 440.453 266.673 440.279 266.581 440.133L263.122 433.863L251.842 413.183C251.784 413.079 251.7 412.993 251.597 412.933C251.494 412.874 251.378 412.843 251.259 412.844C251.138 412.852 251.021 412.886 250.915 412.944C250.809 413.003 250.718 413.084 250.648 413.183C250.588 413.285 250.556 413.402 250.556 413.521C250.556 413.64 250.588 413.757 250.648 413.86C250.789 414.104 250.921 414.358 251.052 414.602L252.631 417.516C253.675 419.396 254.671 421.276 255.621 423.025L260.668 432.359L264.052 438.657C264.438 439.399 264.748 439.973 264.992 440.377L265.218 440.828C265.265 440.932 265.293 440.988 265.284 440.988L265.19 440.847C265.133 440.734 265.049 440.593 264.936 440.405C264.71 440.001 264.4 439.465 263.996 438.713C263.178 437.219 261.994 435.085 260.546 432.443C259.099 429.802 257.36 426.644 255.442 423.137C254.502 421.389 253.487 419.547 252.443 417.638C251.926 416.698 251.391 415.711 250.855 414.724L250.451 413.982C250.335 413.761 250.311 413.504 250.385 413.266C250.459 413.028 250.625 412.829 250.845 412.713C250.988 412.628 251.149 412.58 251.315 412.572C251.484 412.571 251.651 412.617 251.796 412.703C251.942 412.789 252.061 412.912 252.143 413.061L263.423 433.806L266.807 440.114C266.909 440.285 266.948 440.487 266.917 440.685C266.886 440.882 266.787 441.063 266.637 441.195C266.531 441.288 266.404 441.356 266.267 441.393C266.131 441.431 265.987 441.437 265.848 441.411C265.677 441.371 265.525 441.275 265.415 441.138C265.322 441.092 265.244 441.02 265.19 440.932Z" fill="#263238"/>
<path d="M261.487 403.181C261.233 403.322 255.424 407.204 252.434 409.197C251.896 409.559 251.448 410.037 251.122 410.598C250.796 411.158 250.602 411.785 250.554 412.431L250.395 414.311L264.993 441.364L266.666 442.304C267.238 442.617 267.874 442.796 268.525 442.827C269.177 442.858 269.827 442.74 270.426 442.483L280.428 437.877L261.487 403.181Z" fill="#FB9232"/>
<g opacity="0.3">
<path d="M242.32 421.201C243.249 424.134 244.51 426.95 246.08 429.595C247.34 431.908 248.496 434.201 249.906 436.683C250.931 438.497 251.937 440.142 253.008 441.928C253.398 442.666 253.947 443.308 254.615 443.808L242.32 421.201Z" fill="black"/>
</g>
<g opacity="0.3">
<path d="M244.961 418.531C245.989 421.676 247.35 424.701 249.022 427.555C250.375 430.046 251.626 432.519 253.139 435.198C254.248 437.153 255.32 438.958 256.467 440.838C256.891 441.627 257.47 442.324 258.168 442.887L244.961 418.531Z" fill="black"/>
</g>
<g opacity="0.3">
<path d="M248.082 416.839C249.112 419.988 250.476 423.016 252.152 425.873C253.506 428.354 254.756 430.836 256.269 433.506C257.369 435.47 258.45 437.266 259.588 439.146C260.013 439.935 260.591 440.632 261.289 441.195L248.082 416.839Z" fill="black"/>
</g>
<g opacity="0.3">
<path d="M251.213 415.157C252.241 418.304 253.602 421.332 255.274 424.19C256.627 426.672 257.878 429.144 259.391 431.823C260.5 433.788 261.572 435.583 262.718 437.463C263.134 438.256 263.714 438.952 264.42 439.503L251.213 415.157Z" fill="black"/>
</g>
<g opacity="0.3">
<path d="M261.487 403.181C261.233 403.322 255.424 407.204 252.434 409.197C251.896 409.559 251.448 410.037 251.122 410.598C250.796 411.158 250.602 411.785 250.554 412.431L250.395 414.311L264.993 441.364L266.666 442.304C267.238 442.617 267.874 442.796 268.525 442.827C269.177 442.858 269.827 442.74 270.426 442.483L280.428 437.877L261.487 403.181Z" fill="black"/>
</g>
<path d="M268.782 442.539C268.716 442.539 264.758 435.367 259.946 426.446C255.133 417.526 251.279 410.25 251.345 410.212C251.41 410.175 255.368 417.385 260.181 426.315C264.993 435.245 268.838 442.501 268.782 442.539Z" fill="#263238"/>
<path d="M280.446 437.895C280.371 437.895 276.047 430.122 270.773 420.449C265.5 410.776 261.289 402.899 261.373 402.852C261.458 402.805 265.773 410.626 271.046 420.299C276.319 429.971 280.521 437.848 280.446 437.895Z" fill="#263238"/>
<g opacity="0.3">
<path d="M331.507 377.952C332.165 376.072 331.836 372.979 325.792 369.68C320.303 366.578 314.206 364.704 307.923 364.187C301.639 363.669 295.318 364.52 289.395 366.681C287.619 367.249 285.982 368.184 284.592 369.426C283.902 370.053 283.379 370.842 283.069 371.721C282.759 372.601 282.672 373.543 282.815 374.464C283.454 377.388 286.979 378.826 289.95 378.469C292.92 378.111 295.59 376.513 298.41 375.461C301.983 374.157 305.813 373.709 309.591 374.155C313.369 374.601 316.989 375.927 320.161 378.027C322.286 379.456 324.429 381.326 327.005 381.251C327.996 381.204 328.952 380.866 329.752 380.279C330.553 379.692 331.163 378.883 331.507 377.952Z" fill="white"/>
</g>
<g opacity="0.3">
<path d="M293.277 432.547C293.136 434.107 294.011 436.438 299.322 437.783C304.169 439.081 309.239 439.312 314.184 438.46C319.129 437.608 323.83 435.693 327.963 432.848C329.22 432.059 330.296 431.015 331.122 429.783C331.525 429.162 331.768 428.451 331.83 427.713C331.892 426.975 331.772 426.233 331.479 425.553C330.407 423.419 327.409 423.015 325.19 423.88C322.972 424.745 321.242 426.503 319.297 427.875C316.801 429.599 313.936 430.711 310.931 431.122C307.927 431.534 304.867 431.233 302.001 430.244C300.121 429.567 298.053 428.552 296.097 429.125C295.342 429.353 294.671 429.8 294.169 430.409C293.667 431.018 293.357 431.762 293.277 432.547Z" fill="white"/>
</g>
<path d="M143.313 317.082C143.313 317.082 140.882 319.212 140.882 324.607H135.354C135.354 324.607 137.078 313.008 142.273 312.359C147.469 311.709 143.313 317.082 143.313 317.082Z" fill="#383634"/>
<path d="M144.095 298.839C144.095 298.839 142.688 305.523 140.929 307.282C139.169 309.041 137.059 316.781 140.929 319.243C144.798 321.706 149.724 322.057 152.186 320.298C154.649 318.539 156.056 315.373 153.945 313.966C151.834 312.559 150.075 315.021 150.075 315.021C150.075 315.021 147.261 316.78 145.854 315.725C144.447 314.67 147.261 311.152 147.261 311.152L153.593 310.8C153.593 310.8 157.463 308.689 155.704 305.171C153.945 301.653 144.095 298.839 144.095 298.839Z" fill="#D3833A"/>
<path d="M149.549 212.304H269.821L264.432 177.271L239.732 95.3786L179.283 94.7324L157.183 161.683L153.283 185.07L149.549 212.304Z" fill="#C1BFBD"/>
<path d="M184.975 196.74L185.423 197.243C184.562 194.488 185.109 190.559 184.441 187.469C184.458 190.946 181.764 194.907 184.975 196.74Z" fill="#EFD4B7"/>
<path d="M227.904 205.483L224.503 208.641L218.301 220.722L225.173 210.706L227.723 206.212L230.88 200.019C232.018 199.432 232.665 198.45 233.042 197.244L229.603 201.112L227.904 205.483Z" fill="#EFD4B7"/>
<path d="M207.927 235.843L209.232 233.941L200.164 220.722L207.927 235.843Z" fill="#EFD4B7"/>
<path d="M224.541 167.508V166.125H223.718V168.05C224.037 167.861 224.314 167.68 224.541 167.508Z" fill="#CCAC91"/>
<path d="M192.849 178.897C200.365 176.691 218.299 171.254 223.719 168.05V166.125H194.746V173.169L194.647 176.683C194.366 176.878 194.131 177.046 193.923 177.199V177.384C193.586 177.935 193.227 178.436 192.849 178.897Z" fill="#AD6533"/>
<path d="M210.536 235.843L218.299 220.722L209.231 233.941L210.536 235.843Z" fill="#EFD4B7"/>
<path d="M194.995 179.427C193.956 179.732 193.116 179.975 192.536 180.142C190.554 182.302 188.191 184.107 185.547 185.439C186.061 186.173 186.383 187.047 186.589 188C186.585 187.063 186.384 186.161 185.817 185.346C189.479 183.588 192.631 182.308 194.995 179.427Z" fill="#EFD4B7"/>
<path d="M190.561 205.483L188.86 201.112L185.422 197.243C185.799 198.45 186.446 199.431 187.584 200.019L190.741 206.212L193.291 210.705L200.163 220.722L193.961 208.641L190.561 205.483Z" fill="#EFD4B7"/>
<path d="M234.022 187.469C233.354 190.559 233.901 194.488 233.04 197.243L233.488 196.74C236.7 194.907 234.005 190.946 234.022 187.469Z" fill="#EFD4B7"/>
<path d="M234.795 184.816C230.548 182.776 226.984 181.382 224.543 177.384V177.199C224.335 177.046 224.099 176.877 223.819 176.683L223.719 173.168V168.05C218.3 171.254 200.365 176.691 192.849 178.897C190.485 181.778 187.332 183.057 183.671 184.816C184.238 185.631 184.438 186.533 184.443 187.469C185.111 190.559 184.563 194.488 185.424 197.244L188.863 201.112L190.563 205.483L193.963 208.641L200.166 220.722L209.233 233.941L218.301 220.722L224.503 208.641L227.904 205.483L229.603 201.112L233.042 197.244C233.903 194.488 233.356 190.559 234.024 187.469C234.028 186.533 234.229 185.631 234.795 184.816Z" fill="#D3833A"/>
<path d="M142.308 449.711C142.308 449.711 139.581 450.167 139.808 454.711C140.035 459.255 152.989 462.438 162.76 460.392C172.531 458.346 189.802 449.03 189.802 449.03C189.802 449.03 190.483 444.029 189.12 443.12C187.757 442.212 142.308 449.711 142.308 449.711Z" fill="#C3CBBC"/>
<path d="M169.184 432.668C169.184 432.668 165.258 431.985 159.35 435.848C153.442 439.712 141.625 439.711 140.716 451.301C140.716 451.301 143.215 455.62 153.896 455.62C164.576 455.62 188.438 445.393 188.438 445.393C188.438 445.393 191.846 434.714 185.483 433.577L169.184 432.668Z" fill="#565656"/>
<path d="M183.584 429.585C183.584 429.585 189.45 438.171 179.225 439.079C179.225 439.079 173.675 432.441 169.185 432.668V427.412L183.438 424.487L183.584 429.585Z" fill="#D3833A"/>
<path d="M277.669 449.711C277.669 449.711 280.396 450.167 280.169 454.711C279.942 459.255 266.988 462.438 257.217 460.392C247.445 458.346 230.175 449.03 230.175 449.03C230.175 449.03 229.494 444.029 230.857 443.12C232.22 442.212 277.669 449.711 277.669 449.711Z" fill="#C3CBBC"/>
<path d="M250.791 432.668C250.791 432.668 254.717 431.985 260.625 435.848C266.533 439.712 278.351 439.711 279.259 451.301C279.259 451.301 276.76 455.62 266.08 455.62C255.399 455.62 231.538 445.393 231.538 445.393C231.538 445.393 228.129 434.714 234.493 433.577L250.791 432.668Z" fill="#565656"/>
<path d="M236.392 429.585C236.392 429.585 230.525 438.171 240.751 439.079C240.751 439.079 246.3 432.441 250.791 432.668V427.412L236.538 424.487L236.392 429.585Z" fill="#D3833A"/>
<path d="M240.224 127.516C239.476 132.662 240.919 137.137 243.442 137.508C245.972 137.881 248.625 134.011 249.376 128.862C250.125 123.717 248.681 119.243 246.158 118.87C243.632 118.499 240.976 122.368 240.224 127.516Z" fill="#D3833A"/>
<path d="M177.268 127.096C177.763 132.176 176.273 136.478 173.957 136.702C171.64 136.929 169.365 132.995 168.874 127.913C168.386 122.833 169.87 118.532 172.185 118.305C174.504 118.082 176.783 122.016 177.268 127.096Z" fill="#AD6533"/>
<path d="M208.573 88.8679C177.921 88.0432 174.488 100.74 174.488 124.714C174.488 149.031 189.68 168.791 208.573 169.333C208.841 169.341 209.104 169.359 209.369 169.359C209.369 169.359 209.37 169.359 209.371 169.359V88.8538C209.104 88.8588 208.839 88.875 208.573 88.8679Z" fill="#AD6533"/>
<path d="M244.253 124.714C244.253 100.059 229.43 88.8401 210.161 88.8401C209.897 88.8401 209.634 88.8492 209.371 88.8538V169.359C228.637 169.358 244.253 149.371 244.253 124.714Z" fill="#D3833A"/>
<path d="M174.348 127.504C174.348 127.504 170.827 101.897 173.487 99.1259C176.147 96.3552 177.588 97.2418 177.588 97.2418C177.588 97.2418 174.263 92.1436 175.371 89.816C176.48 87.4886 186.122 70.9752 215.048 74.6323C243.975 78.2896 245.526 105.111 245.526 105.111C245.526 105.111 244.75 126.057 243.864 129.936L242.312 129.715L238.707 97.8729C238.707 97.8729 229.952 102.506 219.201 98.8482C208.451 95.1908 201.113 96.1873 181.245 97.6849C181.245 97.6849 178.142 101.564 178.031 103.337C177.92 105.111 174.706 124.173 176.036 129.161L174.348 127.504Z" fill="#232221"/>
<path d="M181.46 116.235C180.946 116.235 180.452 115.949 180.211 115.457C179.874 114.768 180.159 113.936 180.848 113.598C180.941 113.553 183.158 112.482 186.844 111.856C190.209 111.284 195.526 110.985 201.745 112.802C202.481 113.018 202.903 113.789 202.688 114.525C202.473 115.262 201.701 115.684 200.965 115.469C190.061 112.281 182.148 116.055 182.069 116.094C181.873 116.19 181.665 116.235 181.46 116.235Z" fill="#232221"/>
<path d="M234.38 116.235C234.176 116.235 233.969 116.19 233.773 116.095C233.729 116.074 231.724 115.123 228.419 114.576C225.365 114.07 220.536 113.814 214.875 115.469C214.139 115.684 213.367 115.262 213.152 114.525C212.936 113.789 213.359 113.018 214.096 112.802C220.314 110.985 225.631 111.284 228.996 111.856C232.682 112.482 234.899 113.553 234.992 113.598C235.681 113.936 235.966 114.768 235.629 115.457C235.388 115.949 234.894 116.235 234.38 116.235Z" fill="#232221"/>
<path d="M242.824 128.189C238.037 144.091 229.283 148.12 225.28 149.14C224.99 148.27 223.76 145.233 218.635 144.022C216.484 143.396 213.978 142.923 212.078 142.919C211.528 142.901 210.956 142.88 210.36 142.88H208.259C207.658 142.88 207.082 142.902 206.529 142.92C204.669 142.925 202.242 143.389 200.135 143.981C194.895 145.18 193.637 148.248 193.341 149.131C189.327 148.101 180.598 144.057 175.821 128.187L174.369 127.503C174.369 127.503 177.015 171.075 209.154 171.459V171.468C209.154 171.468 209.273 171.464 209.344 171.463C209.36 171.464 209.331 171.464 209.347 171.464C209.402 171.465 209.465 171.468 209.465 171.468V171.459C241.605 171.075 244.263 127.503 244.263 127.503L242.824 128.189Z" fill="#232221"/>
<path d="M208.472 139.354C208.472 140.802 206.776 141.976 204.685 141.976C202.594 141.976 200.898 140.802 200.898 139.354C200.898 137.906 202.593 136.733 204.685 136.733C206.776 136.733 208.472 137.907 208.472 139.354Z" fill="#AD6533"/>
<path d="M218.294 139.354C218.294 140.802 216.598 141.976 214.507 141.976C212.416 141.976 210.721 140.802 210.721 139.354C210.721 137.906 212.416 136.733 214.507 136.733C216.598 136.733 218.294 137.907 218.294 139.354Z" fill="#D3833A"/>
<path d="M205.704 140.742C205.704 142.162 207.336 143.318 209.372 143.362V138.122C207.336 138.166 205.704 139.322 205.704 140.742Z" fill="#AD6533"/>
<path d="M209.49 138.12C209.449 138.12 209.41 138.122 209.37 138.123V143.362C209.41 143.363 209.449 143.364 209.49 143.364C211.581 143.364 213.277 142.19 213.277 140.742C213.276 139.295 211.581 138.12 209.49 138.12Z" fill="#D3833A"/>
<path d="M199.337 123.209C199.337 123.209 196.133 126.259 192.182 126.259C188.23 126.259 185.026 123.209 185.026 123.209C185.026 123.209 188.23 120.159 192.182 120.159C196.133 120.159 199.337 123.209 199.337 123.209Z" fill="white"/>
<path d="M194.9 123.268C194.9 124.887 193.588 126.199 191.969 126.199C190.35 126.199 189.038 124.887 189.038 123.268C189.038 121.649 190.35 120.337 191.969 120.337C193.588 120.337 194.9 121.649 194.9 123.268Z" fill="#1C140F"/>
<path d="M193.639 122.486C193.639 123.029 193.199 123.469 192.656 123.469C192.113 123.469 191.673 123.029 191.673 122.486C191.673 121.943 192.113 121.503 192.656 121.503C193.199 121.502 193.639 121.943 193.639 122.486Z" fill="white"/>
<path d="M233.875 123.209C233.875 123.209 230.671 126.259 226.72 126.259C222.768 126.259 219.564 123.209 219.564 123.209C219.564 123.209 222.768 120.159 226.72 120.159C230.671 120.159 233.875 123.209 233.875 123.209Z" fill="white"/>
<path d="M229.716 123.268C229.716 124.887 228.403 126.199 226.785 126.199C225.166 126.199 223.854 124.887 223.854 123.268C223.854 121.649 225.166 120.337 226.785 120.337C228.403 120.337 229.716 121.649 229.716 123.268Z" fill="#1C140F"/>
<path d="M228.455 122.486C228.455 123.029 228.015 123.469 227.472 123.469C226.929 123.469 226.488 123.029 226.488 122.486C226.488 121.943 226.929 121.503 227.472 121.503C228.015 121.502 228.455 121.943 228.455 122.486Z" fill="white"/>
<path d="M199.619 149.509C199.619 149.509 199.72 149.932 199.967 150.572C200.515 151.993 201.792 154.557 204.317 156.295C205.671 157.227 207.383 157.927 209.536 158.086C211.689 157.927 213.402 157.232 214.755 156.3C217.281 154.562 218.558 151.992 219.106 150.571C219.353 149.931 219.454 149.509 219.454 149.509H199.619Z" fill="#EA7A7A"/>
<path d="M209.536 158.847C209.518 158.847 209.499 158.847 209.48 158.845C207.396 158.691 205.514 158.046 203.887 156.926C201.179 155.062 199.824 152.324 199.259 150.857C198.997 150.18 198.887 149.733 198.882 149.714C198.827 149.488 198.879 149.278 199.022 149.095C199.166 148.912 199.386 148.834 199.619 148.834H219.453C219.686 148.834 219.906 148.912 220.05 149.095C220.193 149.278 220.245 149.502 220.19 149.729C220.185 149.747 220.075 150.187 219.813 150.865C219.247 152.331 217.893 155.065 215.185 156.929C213.558 158.049 211.676 158.693 209.592 158.847C209.574 158.849 209.555 158.847 209.536 158.847ZM200.666 150.351C200.669 150.351 200.671 150.334 200.674 150.34C201.177 151.643 202.375 154.058 204.747 155.691C206.135 156.646 207.746 157.195 209.536 157.336C211.326 157.195 212.937 156.635 214.325 155.68C216.697 154.047 217.896 151.645 218.398 150.342C218.401 150.336 218.403 150.351 218.406 150.351H200.666V150.351Z" fill="#D3833A"/>
<path d="M214.752 156.301H204.314C205.668 157.233 207.381 157.93 209.533 158.089C211.686 157.93 213.399 157.233 214.752 156.301Z" fill="white"/>
<path d="M199.617 149.534C199.617 149.534 199.718 149.944 199.965 150.584C200.042 150.784 200.134 151.006 200.241 151.245H218.828C218.936 151.006 219.028 150.784 219.105 150.584C219.351 149.944 219.452 149.534 219.452 149.534H199.617Z" fill="white"/>
<path d="M200.239 151.245C200.895 152.708 202.143 154.807 204.314 156.301H214.752C216.923 154.807 218.17 152.708 218.826 151.245H200.239Z" fill="#EA7A7A"/>
<path d="M259.784 186.532C252.667 177.606 224.764 177.464 224.764 177.464L209.248 178.482L194.91 178.074C194.91 178.074 166.897 177.606 159.781 186.532C152.664 195.458 152.409 197.274 148.79 222.242C145.172 247.211 136.842 303.906 136.842 303.906L159.033 307.165L165.062 251.46L156.7 427.307L263.754 426.873L251.215 210.05C251.215 210.05 266.9 195.458 259.784 186.532Z" fill="#E8E7E6"/>
<path d="M194.475 171.776C194.475 171.776 207.788 180.485 224.258 171.582L224.853 177.768C224.853 177.768 210.722 184.688 193.799 177.957L194.475 171.776Z" fill="white"/>
<path d="M212.192 178.945H205.628V279.021H212.192V178.945Z" fill="white"/>
<path d="M248.98 97.2291C238.773 66.3592 212.077 67.9309 209.416 67.9309C207.074 67.9309 180.6 66.3592 170.394 97.2291C159.719 129.512 142.54 217.762 149.568 212.297C149.568 212.297 154.774 184.182 159.46 172.726C164.146 161.272 179.507 118.03 181.85 103.191C181.85 103.191 194.756 106.485 209.252 106.531C209.252 106.531 209.36 106.532 209.414 106.532C209.469 106.532 209.577 106.531 209.577 106.531C224.081 106.486 237.522 103.191 237.522 103.191C239.865 118.03 255.229 161.272 259.915 172.726C264.601 184.182 269.807 212.297 269.807 212.297C276.835 217.762 259.654 129.512 248.98 97.2291Z" fill="#E8E7E6"/>
<path d="M249.913 99.5029C249.686 99.5029 249.456 99.4684 249.229 99.3957C227.189 92.3553 206.922 92.714 193.802 94.255C179.542 95.9297 170.391 99.3243 170.301 99.3583C169.139 99.7946 167.843 99.2073 167.406 98.0461C166.968 96.8849 167.554 95.589 168.716 95.1511C169.102 95.0053 178.361 91.5584 193.123 89.8081C201.773 88.7825 210.526 88.5598 219.139 89.1458C229.912 89.8789 240.496 91.8867 250.596 95.1133C251.779 95.4912 252.432 96.7561 252.054 97.9387C251.749 98.8936 250.865 99.5029 249.913 99.5029Z" fill="#232221"/>
<path d="M246.486 91.0393C246.265 91.0393 246.04 91.0065 245.818 90.9373C225.841 84.7199 207.037 85.0382 194.781 86.3999C181.452 87.8808 172.754 90.8825 172.668 90.9126C171.497 91.3216 170.214 90.7045 169.805 89.5331C169.395 88.3619 170.011 87.0802 171.182 86.6695C171.55 86.5405 180.347 83.4943 194.144 81.9474C202.231 81.0404 210.365 80.8435 218.319 81.362C228.274 82.0107 237.975 83.7883 247.154 86.6448C248.339 87.0137 249.001 88.2736 248.632 89.4589C248.332 90.422 247.445 91.0393 246.486 91.0393Z" fill="#232221"/>
<path d="M145.342 315.24C145.342 315.24 147.562 320.381 146.912 324.787H154.533C154.533 324.787 153.685 312.517 149.974 310.939C149.974 310.939 145.905 309.237 145.342 315.24Z" fill="#383634"/>
<path d="M155.356 308.447C155.356 308.447 154.891 313.828 154.242 315.034C153.593 316.24 150.346 319.302 149.789 318.838C149.232 318.374 147.655 317.168 148.305 315.684C148.954 314.199 152.109 311.694 149.511 310.024C146.913 308.354 155.356 308.447 155.356 308.447Z" fill="#D3833A"/>
<path d="M134.694 324.584C130.452 324.172 126.668 327.285 126.233 331.53L118.557 373.717C118.218 375.354 118.007 376.561 117.878 377.445L117.502 379.506C117.467 379.849 118.008 379.905 118.718 379.725H143.479H147.839L155.077 324.822C146.423 323.757 138.487 324.234 134.694 324.584Z" fill="#383634"/>
<path d="M163.654 378.616L161.476 333.214C161.912 328.958 158.815 325.147 154.559 324.697H154.558C150.302 324.248 146.498 327.383 146.062 331.639L141.414 377.037C141.319 377.967 141.392 378.826 141.61 379.725H163.456C163.548 379.366 163.615 378.998 163.654 378.616Z" fill="#6D6966"/>
<path d="M123.996 344.166C123.996 344.166 132.531 348.897 144.592 345.836C144.592 345.836 131.14 351.402 123.996 344.166Z" fill="#6D6966"/>
<path d="M137.48 341.948C137.282 343.214 136.096 344.08 134.83 343.882L132.99 343.595C131.724 343.397 130.859 342.21 131.056 340.945L131.06 340.925C131.257 339.659 132.443 338.793 133.709 338.991L135.549 339.278C136.815 339.476 137.681 340.662 137.483 341.928L137.48 341.948Z" fill="#6D6966"/>
<path d="M149.928 327.778C149.928 327.778 149.911 327.98 149.878 328.359C149.844 328.738 149.799 329.294 149.732 330.001C149.665 330.707 149.583 331.565 149.489 332.549C149.393 333.533 149.285 334.643 149.157 335.853C149.033 337.063 148.898 338.374 148.745 339.76C148.594 341.145 148.438 342.607 148.263 344.117C148.087 345.627 147.918 347.189 147.725 348.774C147.536 350.359 147.342 351.969 147.15 353.579C146.948 355.188 146.747 356.798 146.549 358.382C146.354 359.966 146.141 361.523 145.947 363.031C145.753 364.539 145.552 365.995 145.363 367.376C145.177 368.757 144.993 370.062 144.821 371.266C144.652 372.471 144.49 373.574 144.346 374.552C144.198 375.53 144.071 376.382 143.965 377.084C143.86 377.786 143.769 378.336 143.71 378.712C143.651 379.088 143.619 379.288 143.619 379.288C143.619 379.288 143.637 379.086 143.67 378.707C143.703 378.329 143.748 377.772 143.815 377.066C143.882 376.359 143.964 375.501 144.057 374.517C144.153 373.533 144.261 372.423 144.389 371.213C144.513 370.003 144.648 368.692 144.801 367.307C144.952 365.921 145.108 364.46 145.284 362.95C145.459 361.439 145.628 359.877 145.822 358.293C146.012 356.708 146.205 355.097 146.397 353.487C146.599 351.878 146.8 350.269 146.999 348.685C147.194 347.101 147.406 345.544 147.601 344.036C147.795 342.528 147.997 341.072 148.185 339.691C148.37 338.31 148.556 337.005 148.727 335.8C148.895 334.596 149.059 333.493 149.202 332.515C149.349 331.537 149.477 330.685 149.582 329.983C149.687 329.281 149.778 328.73 149.837 328.355C149.897 327.979 149.928 327.778 149.928 327.778Z" fill="#383634"/>
<path d="M152.644 327.619C152.644 327.619 152.634 327.819 152.616 328.196C152.598 328.572 152.576 329.125 152.536 329.828C152.498 330.53 152.451 331.383 152.397 332.362C152.341 333.34 152.277 334.444 152.198 335.647C152.123 336.851 152.041 338.155 151.943 339.533C151.848 340.911 151.751 342.365 151.636 343.868C151.522 345.371 151.416 346.925 151.286 348.502C151.161 350.079 151.033 351.682 150.905 353.285C150.768 354.886 150.632 356.488 150.498 358.065C150.367 359.642 150.217 361.192 150.083 362.694C149.95 364.195 149.807 365.645 149.675 367.021C149.545 368.396 149.413 369.696 149.29 370.896C149.17 372.095 149.051 373.195 148.946 374.169C148.839 375.143 148.745 375.992 148.668 376.692C148.591 377.391 148.522 377.94 148.479 378.314C148.435 378.689 148.411 378.888 148.411 378.888C148.411 378.888 148.421 378.687 148.438 378.311C148.457 377.934 148.479 377.382 148.518 376.679C148.557 375.977 148.604 375.124 148.657 374.145C148.713 373.167 148.777 372.063 148.855 370.86C148.931 369.656 149.013 368.352 149.111 366.974C149.206 365.596 149.303 364.142 149.418 362.639C149.532 361.136 149.638 359.582 149.768 358.005C149.894 356.427 150.022 354.825 150.15 353.222C150.287 351.62 150.423 350.019 150.558 348.442C150.69 346.865 150.839 345.314 150.973 343.813C151.106 342.312 151.249 340.862 151.381 339.486C151.511 338.111 151.644 336.811 151.766 335.611C151.886 334.412 152.005 333.312 152.11 332.338C152.217 331.364 152.31 330.515 152.387 329.815C152.464 329.115 152.533 328.567 152.576 328.192C152.62 327.818 152.644 327.619 152.644 327.619Z" fill="#383634"/>
<path d="M155.118 327.858C155.118 327.858 155.123 328.055 155.13 328.424C155.137 328.792 155.151 329.333 155.159 330.021C155.168 330.709 155.178 331.545 155.189 332.503C155.198 333.462 155.209 334.543 155.211 335.723C155.215 336.902 155.221 338.18 155.215 339.531C155.212 340.883 155.213 342.308 155.199 343.782C155.186 345.256 155.183 346.78 155.16 348.327C155.139 349.875 155.119 351.448 155.098 353.02C155.069 354.592 155.04 356.164 155.011 357.712C154.986 359.26 154.94 360.782 154.907 362.256C154.874 363.73 154.829 365.154 154.788 366.505C154.751 367.856 154.706 369.133 154.663 370.312C154.623 371.491 154.579 372.571 154.539 373.529C154.497 374.487 154.46 375.321 154.43 376.009C154.4 376.697 154.368 377.237 154.349 377.605C154.33 377.973 154.32 378.17 154.32 378.17C154.32 378.17 154.316 377.973 154.308 377.604C154.302 377.236 154.287 376.695 154.279 376.007C154.27 375.319 154.26 374.483 154.248 373.524C154.239 372.566 154.229 371.484 154.227 370.305C154.221 369.125 154.217 367.848 154.222 366.496C154.224 365.145 154.224 363.719 154.239 362.245C154.252 360.771 154.254 359.248 154.278 357.7C154.299 356.152 154.319 354.58 154.34 353.008C154.369 351.436 154.399 349.863 154.428 348.316C154.454 346.768 154.499 345.245 154.532 343.772C154.565 342.298 154.611 340.873 154.651 339.522C154.689 338.172 154.734 336.894 154.777 335.715C154.816 334.537 154.861 333.456 154.9 332.499C154.942 331.541 154.979 330.706 155.009 330.018C155.039 329.331 155.071 328.791 155.089 328.422C155.108 328.055 155.118 327.858 155.118 327.858Z" fill="#383634"/>
<path d="M157.995 328.657C157.995 328.657 158.011 328.85 158.042 329.214C158.071 329.577 158.119 330.109 158.17 330.787C158.221 331.466 158.282 332.289 158.353 333.234C158.421 334.179 158.499 335.245 158.573 336.408C158.652 337.571 158.736 338.831 158.814 340.164C158.895 341.497 158.984 342.903 159.061 344.358C159.138 345.813 159.23 347.316 159.303 348.843C159.378 350.371 159.455 351.923 159.532 353.475C159.6 355.028 159.668 356.58 159.735 358.109C159.806 359.637 159.854 361.142 159.912 362.597C159.971 364.053 160.014 365.46 160.057 366.795C160.103 368.13 160.137 369.392 160.167 370.558C160.2 371.723 160.223 372.791 160.243 373.739C160.26 374.686 160.275 375.512 160.287 376.192C160.3 376.872 160.301 377.406 160.306 377.771C160.31 378.135 160.311 378.329 160.311 378.329C160.311 378.329 160.295 378.136 160.265 377.772C160.235 377.409 160.187 376.877 160.137 376.199C160.086 375.52 160.024 374.697 159.953 373.752C159.884 372.808 159.807 371.741 159.732 370.578C159.654 369.415 159.57 368.155 159.491 366.822C159.41 365.489 159.322 364.083 159.245 362.628C159.167 361.173 159.075 359.671 159.004 358.143C158.928 356.615 158.852 355.063 158.775 353.511C158.707 351.958 158.639 350.406 158.572 348.878C158.502 347.349 158.454 345.845 158.395 344.389C158.336 342.933 158.294 341.525 158.251 340.191C158.205 338.856 158.171 337.593 158.141 336.428C158.107 335.263 158.084 334.194 158.065 333.247C158.047 332.3 158.032 331.474 158.02 330.794C158.007 330.114 158.005 329.579 158.001 329.215C157.997 328.851 157.995 328.657 157.995 328.657Z" fill="#383634"/>
<path d="M323.352 120.651C323.351 120.651 323.35 120.651 323.35 120.652C323.302 120.679 323.255 120.708 323.209 120.74L323.209 120.74C323.186 120.756 323.163 120.773 323.14 120.79C323.117 120.807 323.094 120.825 323.072 120.844C323.067 120.804 323.061 120.765 323.054 120.726C323.052 120.717 323.051 120.707 323.049 120.698C323.043 120.663 323.035 120.627 323.027 120.592C323.026 120.589 323.002 120.586 323.001 120.584C322.98 120.5 323.002 120.418 322.903 120.337C322.41 118.776 320.239 117.87 318.956 118.912V118.912C318.956 118.912 318.948 118.913 318.948 118.913C318.897 118.953 318.844 118.997 318.796 119.043C318.795 119.044 318.793 119.044 318.793 119.044C318.77 119.066 318.746 119.089 318.724 119.112C318.722 119.114 318.72 119.116 318.719 119.117C318.695 119.142 318.672 119.168 318.649 119.195C318.652 119.158 318.654 119.122 318.655 119.085C318.656 119.074 318.656 119.063 318.656 119.052C318.656 119.027 318.657 119.001 318.657 118.976C318.657 118.964 318.656 118.953 318.656 118.941C318.655 118.916 318.654 118.891 318.653 118.865C318.652 118.855 318.651 118.845 318.651 118.835C318.649 118.807 318.647 118.78 318.644 118.752C318.643 118.745 318.642 118.738 318.641 118.73C318.637 118.697 318.633 118.664 318.628 118.631C318.627 118.63 318.627 118.628 318.627 118.627C318.619 118.578 318.609 118.529 318.597 118.481C318.594 118.467 318.591 118.453 318.587 118.439C318.583 118.421 318.579 118.403 318.574 118.385C318.567 118.359 318.559 118.332 318.551 118.306L318.541 118.307C318.085 116.848 316.292 115.921 314.91 116.529V116.529C314.91 116.53 314.914 116.532 314.911 116.533C314.877 116.549 314.849 116.565 314.816 116.583C314.809 116.586 314.805 116.59 314.799 116.594C314.764 116.612 314.731 116.632 314.697 116.653C314.697 116.653 314.716 116.654 314.715 116.654C314.64 116.701 314.516 116.754 314.516 116.812C314.417 116.825 314.467 116.837 314.451 116.85L316.383 107.49C317.023 104.637 312.309 103.082 311.631 106.573L309.011 119.466L309.009 119.468C308.197 118.031 306.826 117.677 305.726 117.598C305.603 117.589 305.503 117.583 305.419 117.582C305.279 117.577 305.145 117.576 305.02 117.577L305.085 127.886C305.09 128.903 305.721 132.769 306.655 134.587C306.894 135.546 307.313 136.528 307.907 137.434L307.328 140.284L305.01 148.493L305.49 149.266L317.824 151.808L318.533 151.954L320.462 142.451L321.35 139.304C323.177 137.806 324.375 135.622 324.869 133.264L326.94 123.383C327.366 121.349 324.922 119.763 323.352 120.651Z" fill="#D3833A"/>
<path d="M250.857 208.272L243.465 179.497C265.519 181.354 288.143 172.329 298.079 158.375C305.083 148.538 306.109 139.96 306.118 139.876L321.846 141.449C321.811 141.802 321.457 145.037 319.932 149.792C317.939 156.004 314.919 161.977 310.955 167.544C305.464 175.256 299.259 181.343 290.322 188.191C280.526 195.697 265.295 205.634 250.857 208.272Z" fill="#E8E7E6"/>
<path d="M254.984 84.1112C254.852 84.1112 256.121 74.1942 257.804 61.993C259.487 49.7918 260.981 39.9312 261.113 39.95C261.244 39.9688 259.985 49.867 258.293 62.0588C256.601 74.2506 255.087 84.13 254.984 84.1112Z" fill="#263238"/>
<path d="M282.808 102.122C282.761 101.999 290.441 99.2359 299.963 95.9553C309.485 92.6747 317.231 90.1273 317.278 90.2495C317.325 90.3717 309.645 93.1447 300.123 96.4159C290.6 99.6871 282.855 102.253 282.808 102.122Z" fill="#263238"/>
<path d="M116.031 377.522C110.903 374.767 105.129 373.439 99.3131 373.677C93.4967 373.916 87.8513 375.713 82.9669 378.88C78.0826 382.047 74.1386 386.468 71.5474 391.681C68.9561 396.894 67.8127 402.707 68.2367 408.512C68.6607 414.318 70.6364 419.904 73.9575 424.685C77.2785 429.466 81.8228 433.267 87.1154 435.691C92.4081 438.114 98.2546 439.072 104.044 438.463C109.833 437.855 115.353 435.702 120.026 432.23L127.254 436.103L140.725 411.015C140.725 411.015 136.748 408.683 133.158 406.681C133.256 400.717 131.71 394.841 128.689 389.697C125.667 384.553 121.288 380.341 116.031 377.522Z" fill="#FB9232"/>
<path d="M132.669 425.65C123.034 420.668 113.756 415.028 104.008 410.291C99.7877 408.242 93.0103 404.369 89.0247 408.693C86.8439 411.062 87.8779 414.211 89.8143 416.354C91.755 418.42 94.242 419.893 96.9865 420.603C99.7098 421.364 102.591 421.352 105.308 420.567C108.025 419.781 110.468 418.254 112.365 416.156C114.217 414.119 115.489 411.621 116.048 408.925C116.607 406.228 116.432 403.431 115.542 400.825C113.662 395.834 109.084 391.425 103.642 390.758C101.339 390.494 98.6033 391.021 97.1839 393.032C95.4543 395.486 96.6951 398.372 98.5469 400.317C100.728 402.611 103.708 404.294 106.377 405.957C109.376 407.837 112.44 409.642 115.523 411.41C121.671 414.944 127.903 418.337 133.985 421.994C134.254 422.151 134.575 422.195 134.876 422.115C135.178 422.036 135.435 421.84 135.592 421.571C135.749 421.302 135.793 420.981 135.714 420.68C135.634 420.378 135.439 420.121 135.169 419.964C125.845 414.324 116.144 409.379 106.969 403.542C104.883 402.326 102.896 400.946 101.029 399.415C99.4399 398.014 97.3249 395.091 100.023 393.596C104.037 391.369 109.423 395.185 111.622 398.353C113.03 400.34 113.849 402.684 113.985 405.115C114.121 407.546 113.568 409.967 112.39 412.098C111.212 414.229 109.456 415.985 107.325 417.164C105.194 418.342 102.774 418.896 100.342 418.76C97.8791 418.603 95.5044 417.781 93.4709 416.382C91.6943 415.16 88.6769 412.218 90.9423 410.094C93.0667 408.12 96.3379 409.435 98.6221 410.375C100.418 411.109 102.175 411.955 103.914 412.81C113.314 417.454 122.226 422.849 131.513 427.653C132.848 428.348 134.041 426.318 132.697 425.622L132.669 425.65Z" fill="white"/>
<path d="M145.565 436.93C146.299 436.536 147.083 436.245 147.897 436.066C148.183 436.017 148.455 435.903 148.689 435.731C148.924 435.56 149.116 435.337 149.25 435.079L151.948 430.021C152.101 429.744 152.181 429.432 152.181 429.114C152.181 428.797 152.101 428.485 151.948 428.207C151.519 427.47 151.369 426.602 151.525 425.763L145.565 436.93Z" fill="#E0E0E0"/>
<path d="M128.561 434.881C128.664 434.938 137.19 437.993 140.442 439.158C141.099 439.405 141.806 439.483 142.501 439.387C143.195 439.29 143.854 439.021 144.418 438.604C144.869 438.264 145.241 437.831 145.509 437.335L151.431 426.28C151.431 426.28 152.972 423.394 151.036 421.514C149.1 419.634 140.207 413.148 140.207 413.148L128.561 434.881Z" fill="#E0E0E0"/>
<path d="M149.188 419.586L138.942 438.88C138.782 439.182 138.897 439.558 139.199 439.719L139.257 439.749C139.56 439.91 139.936 439.795 140.096 439.493L150.342 420.199C150.503 419.896 150.388 419.52 150.085 419.36L150.027 419.329C149.724 419.168 149.349 419.283 149.188 419.586Z" fill="#E0E0E0"/>
<path d="M150.349 420.245C150.404 420.094 150.404 419.927 150.349 419.775C150.318 419.687 150.267 419.606 150.2 419.54C150.133 419.473 150.053 419.422 149.964 419.39C149.849 419.336 149.719 419.321 149.595 419.348C149.471 419.375 149.359 419.443 149.278 419.54C148.704 420.574 147.915 422.144 146.9 424.052C144.879 427.878 142.096 433.142 139.013 438.961C138.974 439.038 138.953 439.123 138.953 439.21C138.953 439.297 138.974 439.382 139.013 439.459C139.054 439.532 139.112 439.593 139.182 439.638C139.255 439.689 139.339 439.725 139.427 439.741C139.509 439.758 139.595 439.755 139.675 439.73C139.756 439.705 139.829 439.661 139.887 439.6C139.999 439.446 140.096 439.283 140.179 439.111L141.288 437.015C142.021 435.652 142.726 434.327 143.393 433.067L146.975 426.374L149.4 421.881L150.067 420.659L150.246 420.349L150.312 420.245C150.312 420.245 150.312 420.245 150.265 420.358L150.105 420.678L149.475 421.919C148.902 423 148.103 424.541 147.106 426.449C146.11 428.358 144.897 430.632 143.563 433.161C142.895 434.421 142.2 435.746 141.466 437.119C141.109 437.805 140.733 438.5 140.357 439.205L140.216 439.478C140.173 439.578 140.113 439.671 140.038 439.75C139.952 439.834 139.847 439.895 139.733 439.93C139.618 439.964 139.497 439.97 139.38 439.948C139.268 439.926 139.163 439.881 139.069 439.816C138.967 439.75 138.883 439.66 138.825 439.553C138.767 439.448 138.737 439.33 138.737 439.21C138.737 439.09 138.767 438.972 138.825 438.867L146.768 423.977C147.802 422.097 148.601 420.537 149.221 419.484C149.315 419.377 149.441 419.304 149.581 419.277C149.721 419.249 149.865 419.269 149.992 419.334C150.087 419.37 150.173 419.428 150.241 419.503C150.31 419.578 150.36 419.668 150.387 419.766C150.416 419.844 150.427 419.927 150.421 420.01C150.414 420.093 150.39 420.173 150.349 420.245Z" fill="#263238"/>
<path d="M146.925 417.853L136.247 437.96C136.086 438.263 136.201 438.639 136.504 438.799L136.562 438.83C136.865 438.991 137.24 438.876 137.401 438.573L148.079 418.466C148.24 418.163 148.124 417.787 147.822 417.627L147.764 417.596C147.461 417.435 147.086 417.55 146.925 417.853Z" fill="#E0E0E0"/>
<path d="M148.085 418.506C148.147 418.35 148.147 418.175 148.085 418.018C148.049 417.926 147.994 417.844 147.922 417.778C147.85 417.711 147.765 417.661 147.671 417.632C147.549 417.586 147.415 417.583 147.291 417.622C147.166 417.661 147.058 417.741 146.985 417.848C146.393 418.976 145.556 420.574 144.513 422.548C142.416 426.525 139.521 431.995 136.325 438.04C136.282 438.117 136.259 438.205 136.259 438.293C136.259 438.382 136.282 438.47 136.325 438.547C136.373 438.623 136.437 438.687 136.513 438.735C136.592 438.781 136.678 438.813 136.767 438.829C136.855 438.837 136.943 438.825 137.025 438.792C137.106 438.759 137.179 438.708 137.237 438.641C137.331 438.491 137.425 438.275 137.528 438.105C137.914 437.372 138.299 436.639 138.685 435.934C139.437 434.505 140.167 433.136 140.875 431.826C142.266 429.213 143.526 426.863 144.588 424.88L147.107 420.18L147.803 418.92C147.878 418.779 147.944 418.676 147.991 418.591C148.038 418.506 148.056 418.478 148.056 418.488C148.044 418.527 148.029 418.565 148.009 418.6L147.84 418.939L147.182 420.227C146.59 421.345 145.753 422.953 144.719 424.927L141.044 431.901L138.891 435.99L137.745 438.199C137.632 438.387 137.566 438.566 137.425 438.763C137.349 438.86 137.25 438.936 137.136 438.984C137.023 439.032 136.899 439.05 136.776 439.036C136.656 439.023 136.54 438.981 136.438 438.914C136.331 438.852 136.24 438.765 136.175 438.66C136.112 438.551 136.079 438.428 136.079 438.303C136.079 438.177 136.112 438.054 136.175 437.946L144.419 422.483C145.481 420.499 146.299 418.911 146.947 417.783C147.024 417.682 147.127 417.605 147.245 417.559C147.363 417.513 147.491 417.499 147.616 417.521C147.741 417.542 147.857 417.597 147.953 417.679C148.049 417.762 148.12 417.869 148.16 417.989C148.191 418.075 148.2 418.167 148.187 418.257C148.174 418.348 148.139 418.433 148.085 418.506Z" fill="#263238"/>
<path d="M144.582 416.258L133.626 436.888C133.465 437.191 133.58 437.566 133.883 437.727L133.941 437.758C134.244 437.919 134.619 437.804 134.78 437.501L145.736 416.87C145.896 416.568 145.781 416.192 145.479 416.032L145.42 416.001C145.118 415.84 144.742 415.955 144.582 416.258Z" fill="#E0E0E0"/>
<path d="M145.735 416.908C145.774 416.825 145.794 416.734 145.794 416.641C145.793 416.549 145.773 416.458 145.733 416.375C145.694 416.291 145.636 416.218 145.565 416.159C145.494 416.1 145.411 416.057 145.322 416.034C145.193 415.99 145.054 415.992 144.927 416.04C144.8 416.089 144.693 416.179 144.626 416.297L142.107 421.11L133.722 436.93C133.676 437.009 133.652 437.098 133.652 437.189C133.652 437.28 133.676 437.369 133.722 437.447C133.768 437.528 133.837 437.593 133.92 437.635C133.997 437.689 134.089 437.718 134.183 437.72C134.273 437.727 134.363 437.709 134.444 437.67C134.525 437.63 134.594 437.57 134.643 437.494C134.737 437.335 134.841 437.128 134.944 436.94C135.339 436.188 135.734 435.445 136.129 434.721L138.366 430.51L142.126 423.404C143.216 421.392 144.09 419.757 144.711 418.61L145.425 417.322L145.613 416.984C145.632 416.944 145.654 416.907 145.679 416.871C145.679 416.871 145.679 416.918 145.632 416.993L145.463 417.341C145.303 417.651 145.068 418.093 144.786 418.657C144.184 419.804 143.32 421.477 142.267 423.47L138.507 430.604C137.802 431.948 137.05 433.358 136.279 434.815L135.095 437.043C134.991 437.231 134.907 437.41 134.784 437.617C134.713 437.721 134.615 437.805 134.502 437.861C134.388 437.917 134.262 437.943 134.136 437.936C134.014 437.92 133.896 437.882 133.788 437.823C133.678 437.759 133.584 437.668 133.515 437.56C133.451 437.451 133.417 437.326 133.417 437.198C133.417 437.071 133.451 436.946 133.515 436.836L141.975 421.007C143.066 418.995 143.94 417.36 144.56 416.213C144.638 416.083 144.758 415.985 144.9 415.933C145.043 415.882 145.198 415.881 145.341 415.931C145.445 415.962 145.54 416.018 145.618 416.093C145.697 416.168 145.756 416.261 145.792 416.363C145.833 416.451 145.85 416.548 145.84 416.644C145.83 416.74 145.794 416.832 145.735 416.908Z" fill="#263238"/>
<path d="M142.309 414.504L130.908 435.973C130.747 436.275 130.863 436.651 131.165 436.812L131.223 436.842C131.526 437.003 131.901 436.888 132.062 436.586L143.463 415.117C143.624 414.814 143.509 414.438 143.206 414.278L143.148 414.247C142.845 414.086 142.47 414.201 142.309 414.504Z" fill="#E0E0E0"/>
<path d="M143.478 415.16C143.537 414.996 143.537 414.817 143.478 414.652C143.431 414.559 143.365 414.476 143.284 414.409C143.203 414.343 143.109 414.295 143.008 414.267C142.872 414.233 142.728 414.249 142.603 414.311C142.477 414.373 142.378 414.477 142.322 414.605C141.692 415.799 140.808 417.51 139.709 419.606L131.004 436.056C130.955 436.137 130.929 436.23 130.929 436.324C130.929 436.419 130.955 436.511 131.004 436.592C131.061 436.669 131.135 436.731 131.219 436.775C131.304 436.819 131.398 436.843 131.493 436.846C131.585 436.844 131.676 436.818 131.755 436.77C131.834 436.722 131.9 436.654 131.944 436.573L132.254 435.981C132.677 435.201 133.082 434.43 133.486 433.678L135.864 429.316C137.349 426.496 138.684 424.034 139.812 421.937L142.491 416.965L143.224 415.621C143.309 415.48 143.375 415.367 143.422 415.273C143.469 415.179 143.487 415.16 143.497 415.16L143.384 415.31L143.205 415.668L142.5 417.031L139.887 422.031C138.778 424.146 137.453 426.647 135.986 429.429C135.244 430.82 134.473 432.249 133.674 433.8C133.27 434.552 132.856 435.323 132.442 436.113L132.132 436.695C132.07 436.812 131.979 436.91 131.866 436.98C131.754 437.049 131.625 437.087 131.493 437.09C131.371 437.066 131.258 437.011 131.164 436.93C131.044 436.877 130.94 436.792 130.863 436.686C130.794 436.573 130.758 436.443 130.758 436.31C130.758 436.177 130.794 436.047 130.863 435.934L139.624 419.54L142.303 414.568C142.369 414.425 142.484 414.31 142.627 414.245C142.77 414.179 142.932 414.167 143.083 414.211C143.192 414.238 143.293 414.291 143.377 414.365C143.462 414.438 143.529 414.53 143.572 414.634C143.619 414.764 143.619 414.907 143.572 415.038C143.548 415.084 143.516 415.125 143.478 415.16Z" fill="#263238"/>
<path d="M120.261 434.016C120.468 434.129 125.544 436.263 128.147 437.353C128.619 437.554 129.13 437.644 129.642 437.616C130.153 437.588 130.652 437.444 131.099 437.194L132.434 436.46L143.883 415.094L143.751 413.59C143.71 413.074 143.55 412.574 143.284 412.129C143.018 411.684 142.654 411.306 142.219 411.024L134.84 406.456L120.261 434.016Z" fill="#FB9232"/>
<g opacity="0.3">
<path d="M140.442 438.81C141.974 436.929 143.286 434.879 144.353 432.7C145.293 430.877 146.327 429.11 147.342 427.06C148.094 425.594 148.733 424.24 149.448 422.746C149.758 422.164 149.94 421.524 149.983 420.866L140.442 438.81Z" fill="black"/>
</g>
<g opacity="0.3">
<path d="M137.537 438.218C139.157 436.178 140.556 433.973 141.711 431.638C142.754 429.674 143.835 427.765 144.944 425.613C145.753 424.034 146.448 422.558 147.219 420.96C147.555 420.34 147.763 419.659 147.83 418.958L137.537 438.218Z" fill="black"/>
</g>
<g opacity="0.3">
<path d="M135.075 436.93C136.693 434.889 138.092 432.684 139.249 430.35C140.292 428.376 141.373 426.478 142.473 424.316C143.281 422.736 143.977 421.261 144.757 419.672C145.092 419.049 145.297 418.365 145.359 417.66L135.075 436.93Z" fill="black"/>
</g>
<g opacity="0.3">
<path d="M132.604 435.567C134.226 433.529 135.625 431.323 136.777 428.987C137.821 427.013 138.902 425.115 140.011 422.962C140.819 421.383 141.515 419.898 142.286 418.309C142.623 417.687 142.831 417.002 142.897 416.297L132.604 435.567Z" fill="black"/>
</g>
<g opacity="0.3">
<path d="M120.261 434.016C120.468 434.129 125.544 436.263 128.147 437.353C128.619 437.554 129.13 437.644 129.642 437.616C130.153 437.588 130.652 437.444 131.099 437.194L132.434 436.46L143.883 415.094L143.751 413.59C143.71 413.074 143.55 412.574 143.284 412.129C143.018 411.684 142.654 411.306 142.219 411.024L134.84 406.456L120.261 434.016Z" fill="black"/>
</g>
<path d="M142.971 412.105C143.027 412.105 140 417.867 136.231 424.917C132.462 431.967 129.35 437.664 129.294 437.635C129.237 437.607 132.264 431.864 136.043 424.814C139.822 417.764 142.924 412.077 142.971 412.105Z" fill="#263238"/>
<path d="M134.841 406.456C134.897 406.456 131.644 412.725 127.574 420.396C123.504 428.066 120.158 434.27 120.101 434.242C120.045 434.214 123.297 427.972 127.367 420.292C131.438 412.613 134.784 406.427 134.841 406.456Z" fill="#263238"/>
<g opacity="0.3">
<path d="M73.213 398.945C71.709 399.321 69.8008 400.881 70.2614 406.296C70.6131 411.259 72.0385 416.086 74.4389 420.443C76.8393 424.801 80.1574 428.585 84.164 431.535C85.3084 432.456 86.6345 433.126 88.0556 433.499C88.7686 433.682 89.5159 433.684 90.2298 433.505C90.9438 433.326 91.6019 432.972 92.1446 432.475C93.7896 430.783 93.1974 427.85 91.6746 426.045C90.1518 424.24 87.9146 423.225 86.0346 421.815C83.6144 420.035 81.6471 417.71 80.2917 415.029C78.9363 412.348 78.2309 409.385 78.2326 406.38C78.2326 404.35 78.5428 402.132 77.3772 400.477C76.9131 399.838 76.2694 399.351 75.528 399.078C74.7866 398.805 73.9808 398.759 73.213 398.945Z" fill="white"/>
</g>
<g opacity="0.3">
<path d="M125.779 400.327C126.86 399.744 128.016 398.155 126.588 394.076C125.334 390.323 123.282 386.887 120.572 384.005C117.861 381.123 114.558 378.863 110.89 377.381C109.822 376.902 108.666 376.652 107.496 376.648C106.912 376.651 106.337 376.798 105.824 377.077C105.31 377.356 104.874 377.757 104.554 378.246C103.614 379.872 104.667 382.006 106.199 383.106C107.731 384.206 109.639 384.563 111.388 385.249C113.606 386.14 115.583 387.54 117.161 389.337C118.738 391.133 119.871 393.275 120.468 395.589C120.854 397.15 121.07 398.917 122.301 399.97C122.782 400.363 123.368 400.606 123.987 400.67C124.605 400.733 125.228 400.614 125.779 400.327Z" fill="white"/>
</g>
</svg>
