<svg xmlns="http://www.w3.org/2000/svg" width="7.604" height="6.707" viewBox="0 0 7.604 6.707">
  <g id="Group_1600" data-name="Group 1600" transform="translate(-319.819 -349.046)">
    <g id="Group_1416" data-name="Group 1416" transform="translate(319.871 349.485)">
      <path id="Path_7483" data-name="Path 7483" d="M8.876,74.1h1.911a.121.121,0,0,1,.093.2l-.955,1.147a.121.121,0,0,1-.187,0L8.783,74.3a.121.121,0,0,1,.093-.2Zm-5.346.972H5.441a.121.121,0,0,0,.093-.2l-.955-1.147a.121.121,0,0,0-.187,0l-.955,1.147a.121.121,0,0,0,.093.2Z" transform="translate(-3.409 -71.67)" fill="#a3a4a8" stroke="#a3a4a8" stroke-linecap="round" stroke-width="0.1"/>
      <path id="Path_7484" data-name="Path 7484" d="M27.872,24.509A2.424,2.424,0,0,0,26,25.392a.243.243,0,1,1-.375-.309,2.917,2.917,0,0,1,5.125,1.37h-.494a2.431,2.431,0,0,0-2.381-1.944ZM25.49,27.425a2.431,2.431,0,0,0,4.256,1.06.243.243,0,1,1,.375.309A2.917,2.917,0,0,1,25,27.425Z" transform="translate(-24.122 -24.024)" fill="#a3a4a8" stroke="#a3a4a8" stroke-linecap="round" stroke-width="0.1" fill-rule="evenodd"/>
    </g>
    <line id="Line_25" data-name="Line 25" x1="6" y2="6" transform="translate(320.621 349.4)" fill="none" stroke="#a3a4a8" stroke-linecap="round" stroke-width="0.5"/>
  </g>
</svg>
