<svg xmlns="http://www.w3.org/2000/svg" width="59.5" height="46" viewBox="0 0 59.5 46">
    <g id="Group_1599" data-name="Group 1599" transform="translate(-35.75 -329)">
      <g id="Rectangle_919" data-name="Rectangle 919" transform="translate(35.75 329)" fill="#e5e5e5" stroke="#e5e5e5" stroke-width="1">
        <path d="M6,0H29.75a0,0,0,0,1,0,0V46a0,0,0,0,1,0,0H6a6,6,0,0,1-6-6V6A6,6,0,0,1,6,0Z" stroke="none"/>
        <path d="M6,.5H29.25a0,0,0,0,1,0,0v45a0,0,0,0,1,0,0H6A5.5,5.5,0,0,1,.5,40V6A5.5,5.5,0,0,1,6,.5Z" fill="none"/>
      </g>
      <g id="Rectangle_923" data-name="Rectangle 923" transform="translate(65.5 329)" stroke="#000" stroke-width="1">
        <path d="M0,0H23.75a6,6,0,0,1,6,6V40a6,6,0,0,1-6,6H0a0,0,0,0,1,0,0V0A0,0,0,0,1,0,0Z" stroke="none"/>
        <path d="M.5.5H23.75A5.5,5.5,0,0,1,29.25,6V40a5.5,5.5,0,0,1-5.5,5.5H.5a0,0,0,0,1,0,0V.5A0,0,0,0,1,.5.5Z" fill="none"/>
      </g>
      <path id="Rectangle_918" data-name="Rectangle 918" d="M2,0H25a0,0,0,0,1,0,0V39a0,0,0,0,1,0,0H2a2,2,0,0,1-2-2V2A2,2,0,0,1,2,0Z" transform="translate(40.5 335)" fill="#fff"/>
      <path id="Rectangle_924" data-name="Rectangle 924" d="M2,0H25a0,0,0,0,1,0,0V38a2,2,0,0,1-2,2H2a2,2,0,0,1-2-2V2A2,2,0,0,1,2,0Z" transform="translate(70.25 335)" fill="#434343"/>
      <path id="نعتذر_:_لا_توجد_نتائج_لما_تبحث_عنه_" data-name="نعتذر :( لا توجد نتائج لما تبحث عنه ! " d="M3.92,6.776H1.536L1.1,8H.128l2.08-5.56H3.256L5.328,8H4.352Zm-.256-.7-.936-2.64-.936,2.64ZM7.776,3.536a1.744,1.744,0,0,1,1.024.3,1.593,1.593,0,0,1,.6.784V3.592h.912V8H9.4V6.976a1.593,1.593,0,0,1-.6.784,1.744,1.744,0,0,1-1.024.3,1.955,1.955,0,0,1-1.028-.272A1.859,1.859,0,0,1,6.04,7a2.671,2.671,0,0,1-.256-1.208,2.652,2.652,0,0,1,.256-1.2,1.859,1.859,0,0,1,.708-.784A1.955,1.955,0,0,1,7.776,3.536Zm.28.8a1.269,1.269,0,0,0-.972.388A1.5,1.5,0,0,0,6.72,5.792,1.5,1.5,0,0,0,7.084,6.86a1.269,1.269,0,0,0,.972.388,1.325,1.325,0,0,0,.688-.18,1.279,1.279,0,0,0,.48-.508A1.6,1.6,0,0,0,9.4,5.792a1.607,1.607,0,0,0-.176-.764,1.272,1.272,0,0,0-.48-.512A1.325,1.325,0,0,0,8.056,4.336Z" transform="translate(44 336)" fill="#272727"/>
      <path id="نعتذر_:_لا_توجد_نتائج_لما_تبحث_عنه_2" data-name="نعتذر :( لا توجد نتائج لما تبحث عنه ! " d="M3.92,6.776H1.536L1.1,8H.128l2.08-5.56H3.256L5.328,8H4.352Zm-.256-.7-.936-2.64-.936,2.64ZM7.776,3.536a1.744,1.744,0,0,1,1.024.3,1.593,1.593,0,0,1,.6.784V3.592h.912V8H9.4V6.976a1.593,1.593,0,0,1-.6.784,1.744,1.744,0,0,1-1.024.3,1.955,1.955,0,0,1-1.028-.272A1.859,1.859,0,0,1,6.04,7a2.671,2.671,0,0,1-.256-1.208,2.652,2.652,0,0,1,.256-1.2,1.859,1.859,0,0,1,.708-.784A1.955,1.955,0,0,1,7.776,3.536Zm.28.8a1.269,1.269,0,0,0-.972.388A1.5,1.5,0,0,0,6.72,5.792,1.5,1.5,0,0,0,7.084,6.86a1.269,1.269,0,0,0,.972.388,1.325,1.325,0,0,0,.688-.18,1.279,1.279,0,0,0,.48-.508A1.6,1.6,0,0,0,9.4,5.792a1.607,1.607,0,0,0-.176-.764,1.272,1.272,0,0,0-.48-.512A1.325,1.325,0,0,0,8.056,4.336Z" transform="translate(73.75 336)" fill="#fff"/>
    </g>
  </svg>
  