<svg width="28" height="14" viewBox="0 0 28 14" fill="none" xmlns="http://www.w3.org/2000/svg">
    <path d="M0 1C0 0.447716 0.447715 0 1 0H27C27.5523 0 28 0.447715 28 1V13C28 13.5523 27.5523 14 27 14H1C0.447715 14 0 13.5523 0 13V1Z" fill="#D1D1D1"/>
    <path d="M7.56148 8.75287H7.13651L7.49037 7.38076H7L7.07657 7.08667H8.48398L8.40724 7.38076H7.91549L7.56148 8.75287ZM9.01652 8.11348L8.85054 8.75287H8.42561L8.85603 7.08666H9.35634C9.57626 7.08666 9.74172 7.12536 9.85237 7.20295C9.96266 7.28038 10.0182 7.39411 10.0182 7.54364C10.0182 7.66388 9.97947 7.76681 9.90256 7.85313C9.82532 7.93929 9.71432 8.00335 9.56942 8.04497L9.93305 8.7527H9.47043L9.18217 8.11332L9.01652 8.11348ZM9.09014 7.82625H9.19889C9.32049 7.82625 9.4154 7.80468 9.48324 7.76134C9.55109 7.718 9.58497 7.65189 9.58497 7.56299C9.58497 7.50066 9.5629 7.45407 9.51869 7.42289C9.4747 7.39172 9.40513 7.37613 9.31041 7.37613H9.20729L9.09014 7.82625ZM11.3336 8.35619H10.6746L10.435 8.7527H9.98919L11.0563 7.07965H11.5761L11.7808 8.7527H11.3671L11.3336 8.35619ZM11.3127 8.06004L11.2767 7.66113C11.2675 7.56532 11.2628 7.46912 11.2627 7.37286L11.2627 7.33177C11.2217 7.42287 11.1712 7.51949 11.1109 7.62105L10.849 8.05987L11.3127 8.06004ZM13.7609 8.75287H13.2846L12.7886 7.49242H12.78L12.7744 7.5289C12.7446 7.69299 12.7139 7.8396 12.6826 7.96875L12.4805 8.75287H12.0973L12.5277 7.08666H13.0251L13.4989 8.31405H13.5045C13.5157 8.25649 13.5338 8.17393 13.559 8.06688C13.584 7.95984 13.6678 7.63303 13.8098 7.08682H14.1916L13.7609 8.75287ZM15.5671 8.26061C15.5671 8.4194 15.4984 8.54494 15.3609 8.63726C15.2234 8.72957 15.037 8.77565 14.8022 8.77565C14.5966 8.77565 14.4314 8.7414 14.3061 8.67305V8.3608C14.4853 8.44284 14.6516 8.48394 14.8047 8.48394C14.9087 8.48394 14.9901 8.46785 15.0486 8.43547C15.1072 8.40327 15.1365 8.35908 15.1365 8.30289C15.1365 8.27018 15.1302 8.24157 15.1175 8.21674C15.105 8.19208 15.087 8.16913 15.0641 8.14789C15.0406 8.12665 14.9831 8.08794 14.8912 8.03142C14.7631 7.9564 14.6727 7.88189 14.6208 7.80807C14.5687 7.73459 14.5427 7.65512 14.5427 7.57C14.5427 7.47202 14.5715 7.38451 14.6292 7.30726C14.6866 7.23019 14.7688 7.17024 14.875 7.12725C14.9815 7.08443 15.1036 7.06302 15.2422 7.06302C15.4436 7.06302 15.6281 7.10054 15.7953 7.17572L15.6435 7.44138C15.4986 7.38521 15.3649 7.35694 15.2422 7.35694C15.165 7.35694 15.1018 7.37407 15.0528 7.40833C15.0033 7.44258 14.9788 7.48781 14.9788 7.54381C14.9788 7.59023 14.994 7.63065 15.0249 7.66525C15.0554 7.69983 15.1241 7.74558 15.2311 7.8026C15.3433 7.8634 15.4274 7.93038 15.4832 8.00386C15.5394 8.07682 15.5671 8.16246 15.5671 8.26061ZM16.331 8.75287H15.9061L16.3365 7.08666H17.4707L17.3955 7.37613H16.6878L16.5777 7.80587H17.2367L17.1586 8.09413H16.4996L16.331 8.75287ZM18.6303 8.75287H17.4919L17.9224 7.08666H19.0621L18.9869 7.37613H18.2735L18.18 7.74197H18.8447L18.7682 8.03127H18.1035L17.9919 8.46101H18.7053L18.6303 8.75287ZM19.7008 8.11348L19.5348 8.75287H19.1099L19.5403 7.08666H20.0406C20.2605 7.08666 20.426 7.12536 20.5366 7.20295C20.6471 7.28038 20.7024 7.39411 20.7024 7.54364C20.7024 7.66388 20.6637 7.76681 20.5868 7.85313C20.5096 7.93929 20.3986 8.00335 20.2537 8.04497L20.6173 8.7527H20.1547L19.8664 8.11332L19.7008 8.11348ZM19.7744 7.82625H19.8832C20.0048 7.82625 20.0997 7.80468 20.1676 7.76134C20.2354 7.718 20.2693 7.65189 20.2693 7.56299C20.2693 7.50066 20.2472 7.45407 20.203 7.42289C20.159 7.39172 20.0894 7.37613 19.9947 7.37613H19.8916L19.7744 7.82625ZM13.3352 4.50068C13.5482 4.50068 13.7091 4.53236 13.818 4.59573C13.9267 4.65928 13.9812 4.75383 13.9812 4.87972C13.9812 4.99637 13.9427 5.09261 13.8654 5.16867C13.7882 5.24437 13.6784 5.2949 13.536 5.31973V5.32675C13.629 5.34697 13.7034 5.38448 13.7585 5.43946C13.814 5.49427 13.8414 5.56449 13.8414 5.64996C13.8414 5.82826 13.7703 5.96546 13.628 6.06189C13.4857 6.15831 13.2889 6.20662 13.0376 6.20662H12.3097L12.7408 4.50085L13.3352 4.50068ZM12.8105 5.90775H13.0616C13.1704 5.90775 13.2559 5.88515 13.3177 5.84009C13.3797 5.79505 13.4105 5.73235 13.4105 5.65237C13.4105 5.5263 13.3256 5.46328 13.1551 5.46328H12.925L12.8105 5.90775ZM12.9962 5.1762H13.204C13.3165 5.1762 13.4009 5.15718 13.4571 5.11951C13.5135 5.08166 13.5415 5.02753 13.5415 4.95679C13.5415 4.85025 13.4624 4.79682 13.3043 4.79682H13.0925L12.9962 5.1762ZM15.254 5.80035H14.594L14.3541 6.20645H13.9076L14.9762 4.49365H15.4967L15.7017 6.20645H15.2874L15.254 5.80035ZM15.2331 5.49701L15.197 5.08868C15.1876 4.98677 15.1828 4.88845 15.1828 4.79356V4.75159C15.1418 4.84494 15.0913 4.94376 15.0308 5.04774L14.7684 5.49701H15.2331ZM17.685 6.20645H17.208L16.7112 4.91603H16.7027L16.697 4.95338C16.6672 5.12142 16.6366 5.27146 16.605 5.40368L16.4028 6.20647H16.0191L16.4502 4.5007H16.9483L17.4227 5.75719H17.4284C17.4395 5.69828 17.4579 5.61383 17.4829 5.50404C17.508 5.39443 17.5916 5.05989 17.734 4.50068H18.1163L17.685 6.20645ZM19.7659 6.20645H19.294L18.9997 5.51568L18.8252 5.59739L18.6733 6.20645H18.2478L18.6789 4.50068H19.106L18.8939 5.31974L19.1144 5.08047L19.6849 4.50068H20.1886L19.3598 5.31735L19.7659 6.20645ZM11.4533 4.66493C11.4533 4.57038 11.3766 4.49365 11.282 4.49365H7.51386C7.4193 4.49365 7.34258 4.57038 7.34258 4.66493C7.34258 4.75947 7.41932 4.83621 7.51386 4.83621H11.282C11.3766 4.83621 11.4533 4.75947 11.4533 4.66493ZM10.4256 5.35005C10.4256 5.25552 10.3489 5.17878 10.2543 5.17878H7.51386C7.4193 5.17878 7.34258 5.25552 7.34258 5.35005C7.34258 5.44461 7.41932 5.52134 7.51386 5.52134H10.2543C10.3489 5.52134 10.4256 5.44461 10.4256 5.35005ZM9.39794 6.03518C9.39794 5.94062 9.3212 5.8639 9.22666 5.8639H7.51386C7.4193 5.8639 7.34258 5.94062 7.34258 6.03518C7.34258 6.12973 7.41932 6.20646 7.51386 6.20646H9.22666C9.32121 6.20646 9.39794 6.12971 9.39794 6.03518Z" fill="#1B1B1B" stroke="#1B1B1B" stroke-width="0.2"/>
    </svg>
    