<svg width="42" height="72" viewBox="0 0 42 72" fill="none" xmlns="http://www.w3.org/2000/svg">
<path fill-rule="evenodd" clip-rule="evenodd" d="M28.3208 49.4487H13.4307V59.3758H13.6474L15.636 61.364L18.806 61.7109V62.1249L20.6991 61.9177L22.592 62.1249V61.7109L25.7619 61.364L27.7504 59.3758H28.3208V49.4487Z" fill="#A4A2A2"/>
<path d="M30.5976 52.9287C30.5976 53.8996 29.8108 54.6865 28.8395 54.6865H12.5597C11.5895 54.6865 10.8027 53.8996 10.8027 52.9287C10.8027 51.9585 11.5895 51.1717 12.5597 51.1717H28.8395C29.8108 51.1719 30.5976 51.9585 30.5976 52.9287Z" fill="#CAC9C7"/>
<path d="M30.5976 57.8278C30.5976 58.7984 29.8108 59.5851 28.8395 59.5851H12.5597C11.5895 59.5851 10.8027 58.7984 10.8027 57.8278C10.8027 56.857 11.5895 56.0706 12.5597 56.0706H28.8395C29.8108 56.0708 30.5976 56.857 30.5976 57.8278Z" fill="#CAC9C7"/>
<path d="M26.3364 62.2992C26.3364 63.2696 25.5499 64.0564 24.5788 64.0564H16.8193C15.8484 64.0564 15.0615 63.2696 15.0615 62.2992C15.0615 61.3281 15.8484 60.5417 16.8193 60.5417H24.5788C25.5497 60.5417 26.3364 61.3281 26.3364 62.2992Z" fill="#CAC9C7"/>
<path d="M20.7001 0.52832H20.699C9.47789 0.52832 0.349609 9.48515 0.349609 20.4956C0.349609 26.1492 2.73915 32.3478 6.73871 37.0777L6.90722 37.2983C7.4284 37.9616 12.0037 43.8951 12.0037 48.0349C12.0037 48.7979 12.533 49.4358 13.245 49.6126V49.6624H16.3398H16.8354H17.3439H20.1747H20.7002H21.5252H23.5268H24.0358H26.4667H27.1278V49.5557L28.4684 49.5329C29.0734 49.2788 29.4652 48.6901 29.4652 48.037C29.4652 44.3755 33.1441 39.0459 34.5615 37.301C34.6311 37.212 34.6854 37.1245 34.7027 37.0854L34.836 36.8721C38.733 32.14 41.0495 26.0336 41.0495 20.496C41.0493 9.48533 31.9214 0.528674 20.7001 0.52832Z" fill="#FCAE68"/>
<path d="M28.6216 29.7986C28.6251 29.6197 28.615 28.5045 27.8967 27.757C27.4731 27.3161 26.8988 27.0928 26.1893 27.0928C25.2576 27.0928 24.5142 27.3938 23.9803 27.9875C22.9618 29.1186 23.0892 30.9154 23.1095 31.1403V31.416H20.9677H20.4566H18.3152V31.1403C18.3355 30.9154 18.4626 29.1186 17.4446 27.9875C16.9102 27.394 16.167 27.0928 15.2355 27.0928C14.5258 27.0928 13.9516 27.3161 13.5283 27.757C12.81 28.5046 12.7998 29.6198 12.8028 29.7986C12.7931 29.9573 12.774 30.775 13.3507 31.409C13.7946 31.8971 14.46 32.1446 15.329 32.1446H17.5863V49.6361H18.3152V32.1446H20.4566H20.9677H23.1095V49.6361H23.8384V32.1446H26.0954C26.9649 32.1446 27.6303 31.8973 28.0742 31.409C28.6507 30.775 28.6317 29.9573 28.6216 29.7986ZM17.5883 31.084L17.5863 31.4157H15.329C14.6773 31.4157 14.1947 31.25 13.8947 30.9239C13.4828 30.476 13.53 29.8454 13.5305 29.8412L13.5327 29.8168L13.532 29.7929C13.5317 29.7835 13.5055 28.829 14.0562 28.2591C14.3407 27.9647 14.7265 27.8213 15.2355 27.8213C15.9502 27.8213 16.5105 28.0406 16.9008 28.4726C17.7484 29.4114 17.5897 31.0679 17.5883 31.084ZM27.5303 30.9239C27.2303 31.2502 26.7474 31.4157 26.0956 31.4157H23.8386L23.8365 31.084C23.8348 31.0679 23.6764 29.4114 24.5241 28.4726C24.9143 28.0406 25.4745 27.8213 26.1895 27.8213C26.6983 27.8213 27.0842 27.9647 27.3685 28.2591C27.919 28.829 27.8932 29.7835 27.8932 29.7929L27.8925 29.8168L27.8943 29.8412C27.8948 29.8454 27.9424 30.476 27.5303 30.9239Z" fill="white"/>
<path d="M7.05764 29.4033C6.73394 29.3891 6.42116 29.2247 6.2304 28.9327C6.1839 28.8616 5.08617 27.1654 4.309 24.4904C3.27901 20.9443 3.30008 17.3213 4.3702 14.013C4.98137 12.1238 6.02176 10.42 7.46155 8.94911C8.59868 7.78812 9.98401 6.77192 11.5794 5.92844C14.274 4.50402 16.6401 4.06169 16.7392 4.04366C17.3053 3.94059 17.8475 4.31556 17.9508 4.8813C18.054 5.44686 17.6794 5.98872 17.1142 6.0925C17.0737 6.1001 14.9071 6.51486 12.4999 7.79802C9.34863 9.47772 7.28036 11.7845 6.35203 14.6542C4.07212 21.7034 7.93464 27.7331 7.97371 27.7931C8.2884 28.2746 8.15359 28.9199 7.67218 29.2346C7.48249 29.3582 7.26749 29.4123 7.05764 29.4033Z" fill="#F4E5A9"/>
</svg>
