<svg xmlns="http://www.w3.org/2000/svg" width="20.175" height="19.753" viewBox="0 0 20.175 19.753">
    <g id="cart_outline" transform="translate(0 0)">
      <path id="Path_6677" data-name="Path 6677" d="M5.274,13.593a4.631,4.631,0,0,0-.533-.013H3.19a.79.79,0,0,1,0-1.58h1.6a5.212,5.212,0,0,1,.7.028,2.9,2.9,0,0,1,2.365,2c.016.052.031.106.044.163l11.462,1.618.106.015a5.442,5.442,0,0,1,1.36.3,2.9,2.9,0,0,1,1.738,2.416,5.439,5.439,0,0,1-.151,1.383l-.02.105-.018.1a7.579,7.579,0,0,1-.407,1.624,3.95,3.95,0,0,1-2.718,2.261,7.576,7.576,0,0,1-1.671.1H9.572c.041.217.081.4.123.557a1.367,1.367,0,0,0,.263.579,1.32,1.32,0,0,0,.288.244,1.368,1.368,0,0,0,.614.164c.353.035.813.036,1.5.036H20.4a.79.79,0,1,1,0,1.58H12.325c-.642,0-1.181,0-1.622-.044A2.717,2.717,0,0,1,8.774,26.3a2.9,2.9,0,0,1-.6-1.212c-.116-.428-.2-.96-.31-1.592L6.449,15.027a4.627,4.627,0,0,0-.1-.523A1.317,1.317,0,0,0,5.274,13.593ZM9.3,22.535h8.18a7.031,7.031,0,0,0,1.412-.062,2.37,2.37,0,0,0,1.631-1.356,7.036,7.036,0,0,0,.318-1.377,5.007,5.007,0,0,0,.15-1.067,1.317,1.317,0,0,0-.79-1.1,5.007,5.007,0,0,0-1.06-.2L8.185,15.83Z" transform="translate(-2.4 -12)" fill="#410b5f" fill-rule="evenodd"/>
      <path id="Path_6678" data-name="Path 6678" d="M147.16,164.78a1.58,1.58,0,1,1-1.58-1.58A1.58,1.58,0,0,1,147.16,164.78Z" transform="translate(-128.461 -146.608)" fill="#410b5f"/>
      <path id="Path_6679" data-name="Path 6679" d="M60.76,164.78a1.58,1.58,0,1,1-1.58-1.58A1.58,1.58,0,0,1,60.76,164.78Z" transform="translate(-51.542 -146.608)" fill="#410b5f"/>
    </g>
  </svg>
  