<svg xmlns="http://www.w3.org/2000/svg" width="14.965" height="14.965" viewBox="0 0 14.965 14.965">
    <g id="archive_outline" transform="translate(-9.6 -9.6)">
      <path id="Path_7468" data-name="Path 7468" d="M19.6,58.22c.191,2.576.286,3.864,1.053,4.711a3.321,3.321,0,0,0,.421.391c.9.7,2.193.7,4.776.7s3.874,0,4.776-.7a3.318,3.318,0,0,0,.421-.391c.767-.847.862-2.135,1.053-4.711l.4-5.42H31.255l-.1,1.247-.3,4.081a28.05,28.05,0,0,1-.292,2.861,2.143,2.143,0,0,1-.442,1.1,2.08,2.08,0,0,1-.263.244,2.142,2.142,0,0,1-1.134.36,28.054,28.054,0,0,1-2.875.079,28.054,28.054,0,0,1-2.875-.079,2.142,2.142,0,0,1-1.134-.36,2.076,2.076,0,0,1-.263-.244,2.143,2.143,0,0,1-.442-1.1,28.051,28.051,0,0,1-.292-2.861l-.3-4.081-.1-1.247H19.2Z" transform="translate(-8.769 -39.459)" fill="#d16800"/>
      <path id="Path_7469" data-name="Path 7469" d="M67.2,72.624A.624.624,0,0,1,67.824,72h3.741a.624.624,0,1,1,0,1.247H67.824A.624.624,0,0,1,67.2,72.624Z" transform="translate(-52.612 -56.996)" fill="#d16800" fill-rule="evenodd"/>
      <path id="Path_7470" data-name="Path 7470" d="M9.6,10.847A1.247,1.247,0,0,1,10.847,9.6H23.318a1.247,1.247,0,1,1,0,2.494H10.847A1.247,1.247,0,0,1,9.6,10.847Z" fill="#d16800"/>
    </g>
  </svg>
  