<svg xmlns="http://www.w3.org/2000/svg" width="39.746" height="45.424" viewBox="0 0 39.746 45.424">
    <path id="Icon_metro-files-empty" data-name="Icon metro-files-empty" d="M42.373,17.768a40.215,40.215,0,0,0-3.867-4.423,40.232,40.232,0,0,0-4.423-3.867C31.8,7.8,30.686,7.606,30.05,7.606H13.726a3.553,3.553,0,0,0-3.549,3.549V43.8a3.553,3.553,0,0,0,3.549,3.549H40.7A3.553,3.553,0,0,0,44.245,43.8v-22c0-.636-.194-1.746-1.872-4.033ZM36.5,15.352a38.72,38.72,0,0,1,3.22,3.61H32.889V12.133a38.691,38.691,0,0,1,3.61,3.219ZM41.406,43.8a.719.719,0,0,1-.71.71H13.726a.719.719,0,0,1-.71-.71V11.155a.719.719,0,0,1,.71-.71H30.05v9.937a1.419,1.419,0,0,0,1.42,1.42h9.937Zm-13-40c-2.288-1.678-3.4-1.872-4.033-1.872H8.048A3.553,3.553,0,0,0,4.5,5.477V38.125A3.555,3.555,0,0,0,7.338,41.6V5.477a.719.719,0,0,1,.71-.71h21.6c-.428-.351-.844-.677-1.24-.967Z" transform="translate(-4.499 -1.928)" fill="#a2a2a2"/>
  </svg>
  