<svg xmlns="http://www.w3.org/2000/svg" width="35.484" height="24.839" viewBox="0 0 35.484 24.839">
    <g id="delete_outline" transform="translate(0 -28.8)">
      <path id="Path_7168" data-name="Path 7168" d="M6.263,46.417l.458.535c2.244,2.624,2.873,3.272,3.628,3.62s1.652.4,5.1.4h7.647c2.541,0,4.246,0,5.546-.136a4.69,4.69,0,0,0,2.216-.61,4.428,4.428,0,0,0,1.22-1.223,4.733,4.733,0,0,0,.611-2.228c.132-1.3.136-3.015.136-5.562s0-4.257-.136-5.562a4.734,4.734,0,0,0-.611-2.228,4.427,4.427,0,0,0-1.22-1.223,4.688,4.688,0,0,0-2.216-.61c-1.3-.133-3-.136-5.546-.136H15.448c-3.448,0-4.346.057-5.1.4s-1.384,1-3.628,3.62l-.458.535a43.122,43.122,0,0,0-2.98,3.7,2.725,2.725,0,0,0-.621,1.5,2.725,2.725,0,0,0,.621,1.5A43.116,43.116,0,0,0,6.263,46.417ZM9.234,29.449C7.825,30.1,6.783,31.318,4.7,33.756l-.458.535C1.413,37.6,0,39.25,0,41.219s1.413,3.622,4.24,6.928l.458.535c2.085,2.439,3.128,3.658,4.536,4.307s3.01.649,6.214.649h7.647c4.971,0,7.457,0,9.243-1.2a7.091,7.091,0,0,0,1.953-1.958c1.193-1.79,1.193-4.282,1.193-9.265s0-7.475-1.193-9.265A7.088,7.088,0,0,0,32.337,30c-1.786-1.2-4.271-1.2-9.243-1.2H15.448C12.244,28.8,10.642,28.8,9.234,29.449Z" transform="translate(0 0)" fill="#410b5f" fill-rule="evenodd"/>
      <path id="Path_7169" data-name="Path 7169" d="M98.79,69.99a1.33,1.33,0,0,1,1.882,0l2.608,2.608,2.608-2.608a1.331,1.331,0,1,1,1.882,1.882l-2.607,2.608,2.607,2.607a1.331,1.331,0,0,1-1.882,1.882l-2.607-2.607-2.607,2.607a1.331,1.331,0,1,1-1.882-1.882l2.607-2.607L98.79,71.872A1.331,1.331,0,0,1,98.79,69.99Z" transform="translate(-80.215 -33.26)" fill="#410b5f" fill-rule="evenodd"/>
    </g>
  </svg>
  