<svg xmlns="http://www.w3.org/2000/svg" width="59" height="46" viewBox="0 0 59 46">
    <g id="Group_1597" data-name="Group 1597" transform="translate(-35.75 -133)">
      <g id="Rectangle_836" data-name="Rectangle 836" transform="translate(35.75 133)" fill="#e5e5e5" stroke="#e5e5e5" stroke-width="1">
        <rect width="59" height="46" rx="6" stroke="none"/>
        <rect x="0.5" y="0.5" width="58" height="45" rx="5.5" fill="none"/>
      </g>
      <rect id="Rectangle_911" data-name="Rectangle 911" width="50" height="39" rx="5" transform="translate(43.75 139)" fill="#fff"/>
      <path id="نعتذر_:_لا_توجد_نتائج_لما_تبحث_عنه_" data-name="نعتذر :( لا توجد نتائج لما تبحث عنه ! " d="M3.92,6.776H1.536L1.1,8H.128l2.08-5.56H3.256L5.328,8H4.352Zm-.256-.7-.936-2.64-.936,2.64ZM7.776,3.536a1.744,1.744,0,0,1,1.024.3,1.593,1.593,0,0,1,.6.784V3.592h.912V8H9.4V6.976a1.593,1.593,0,0,1-.6.784,1.744,1.744,0,0,1-1.024.3,1.955,1.955,0,0,1-1.028-.272A1.859,1.859,0,0,1,6.04,7a2.671,2.671,0,0,1-.256-1.208,2.652,2.652,0,0,1,.256-1.2,1.859,1.859,0,0,1,.708-.784A1.955,1.955,0,0,1,7.776,3.536Zm.28.8a1.269,1.269,0,0,0-.972.388A1.5,1.5,0,0,0,6.72,5.792,1.5,1.5,0,0,0,7.084,6.86a1.269,1.269,0,0,0,.972.388,1.325,1.325,0,0,0,.688-.18,1.279,1.279,0,0,0,.48-.508A1.6,1.6,0,0,0,9.4,5.792a1.607,1.607,0,0,0-.176-.764,1.272,1.272,0,0,0-.48-.512A1.325,1.325,0,0,0,8.056,4.336Z" transform="translate(49 142)" fill="#272727"/>
    </g>
  </svg>
  