<svg id="journals" xmlns="http://www.w3.org/2000/svg" width="17.989" height="19.188" viewBox="0 0 17.989 19.188">
  <g id="Group_8" data-name="Group 8">
    <path id="Path_11" data-name="Path 11" d="M7.8,0h9.594a2.4,2.4,0,0,1,2.4,2.4V14.391a2.4,2.4,0,0,1-2.4,2.4,2.4,2.4,0,0,1-2.4,2.4H5.4a2.4,2.4,0,0,1-2.4-2.4H4.2a1.2,1.2,0,0,0,1.2,1.2h9.594a1.2,1.2,0,0,0,1.2-1.2V4.8a1.2,1.2,0,0,0-1.2-1.2H5.4A1.2,1.2,0,0,0,4.2,4.8H3A2.4,2.4,0,0,1,5.4,2.4h9.594a2.4,2.4,0,0,1,2.4,2.4V15.59a1.2,1.2,0,0,0,1.2-1.2V2.4a1.2,1.2,0,0,0-1.2-1.2H7.8A1.2,1.2,0,0,0,6.6,2.4H5.4A2.4,2.4,0,0,1,7.8,0Z" transform="translate(-1.801 0)" fill="#a3a4a8"/>
    <path id="Path_12" data-name="Path 12" d="M1.2,16.2v-.6a.6.6,0,1,1,1.2,0v.6H3a.6.6,0,0,1,0,1.2H.6a.6.6,0,1,1,0-1.2Zm0,3.6v-.6a.6.6,0,1,1,1.2,0v.6H3A.6.6,0,1,1,3,21H.6a.6.6,0,1,1,0-1.2Zm0,3v.6H.6a.6.6,0,1,0,0,1.2H3a.6.6,0,1,0,0-1.2H2.4v-.6a.6.6,0,1,0-1.2,0Z" transform="translate(0 -9.004)" fill="#a3a4a8"/>
  </g>
</svg>
