<svg xmlns="http://www.w3.org/2000/svg" width="234.283" height="236.173" viewBox="0 0 234.283 236.173">
    <g id="Tablet_login-pana" data-name="Tablet login-pana" transform="translate(-11.42 -13.29)">
      <g id="freepik--background-complete--inject-221" transform="translate(11.42 13.29)">
        <ellipse id="Ellipse_12" data-name="Ellipse 12" cx="47.224" cy="8.613" rx="47.224" ry="8.613" transform="translate(81.255 214.184)" fill="#f5f5f5"/>
        <path id="Path_6817" data-name="Path 6817" d="M268.819,455.525a1.3,1.3,0,0,0-.1-.387,2.257,2.257,0,0,0-.829-.824,14.954,14.954,0,0,0-4.267-1.573,102.957,102.957,0,0,0-16.661-2.213,246.837,246.837,0,0,0-24.947-.362c-4.694.169-9.62.466-14.7,1.047-2.54.293-5.115.655-7.7,1.186a34.7,34.7,0,0,0-3.84.992,11.521,11.521,0,0,0-1.836.779,3.968,3.968,0,0,0-.8.556,1.161,1.161,0,0,0-.422.779,1.136,1.136,0,0,0,.417.784,3.969,3.969,0,0,0,.8.561,11.64,11.64,0,0,0,1.831.774,34.026,34.026,0,0,0,3.845.992c2.58.531,5.16.893,7.7,1.191,5.081.576,10.007.873,14.7,1.042a246.935,246.935,0,0,0,24.952-.362,105.521,105.521,0,0,0,16.661-2.208,15.1,15.1,0,0,0,4.262-1.578,2.223,2.223,0,0,0,.829-.824,1.26,1.26,0,0,0,.1-.387.8.8,0,0,1-.079.4,2.2,2.2,0,0,1-.824.853,14.444,14.444,0,0,1-4.267,1.632,100.5,100.5,0,0,1-16.676,2.3,244.44,244.44,0,0,1-24.971.417c-4.7-.159-9.63-.451-14.721-1.032-2.54-.293-5.125-.655-7.72-1.191a32.669,32.669,0,0,1-3.87-.992,11.517,11.517,0,0,1-1.875-.8,4,4,0,0,1-.853-.6,1.191,1.191,0,0,1,0-1.94,4.715,4.715,0,0,1,.853-.6,11.49,11.49,0,0,1,1.875-.794,32.664,32.664,0,0,1,3.87-.992c2.595-.536,5.175-.9,7.72-1.191,5.086-.576,10.017-.868,14.716-1.032a244.439,244.439,0,0,1,24.971.417,99.97,99.97,0,0,1,16.671,2.3,14.825,14.825,0,0,1,4.272,1.632,2.2,2.2,0,0,1,.824.853.8.8,0,0,1,.084.392Z" transform="translate(-102.638 -233.218)" fill="#ebebeb"/>
        <path id="Path_6818" data-name="Path 6818" d="M269.876,456.91a.993.993,0,0,0-.074-.238,1.3,1.3,0,0,0-.521-.5,9.5,9.5,0,0,0-2.7-.992,65.922,65.922,0,0,0-10.548-1.389c-4.465-.293-9.849-.422-15.793-.213-2.977.1-6.088.293-9.3.66-1.608.189-3.24.417-4.867.754a22.632,22.632,0,0,0-2.426.635,7.225,7.225,0,0,0-1.156.5c-.347.189-.729.466-.749.8s.4.615.749.809a6.948,6.948,0,0,0,1.151.5,20.763,20.763,0,0,0,2.426.635c1.632.342,3.265.571,4.867.759,3.215.367,6.331.551,9.3.66,5.954.208,11.307.079,15.793-.213a65.838,65.838,0,0,0,10.548-1.389,9.5,9.5,0,0,0,2.7-.992,1.3,1.3,0,0,0,.521-.5.929.929,0,0,0,.074-.243.615.615,0,0,1-.05.253,1.325,1.325,0,0,1-.5.551,9.331,9.331,0,0,1-2.7,1.042,63.459,63.459,0,0,1-10.558,1.488,152.008,152.008,0,0,1-15.812.273c-2.977-.1-6.1-.283-9.328-.65-1.608-.184-3.245-.412-4.892-.754a22.086,22.086,0,0,1-2.456-.64,7.6,7.6,0,0,1-1.2-.5,3.049,3.049,0,0,1-.551-.382.8.8,0,0,1,0-1.295,3.161,3.161,0,0,1,.551-.387,7.848,7.848,0,0,1,1.2-.5,21.051,21.051,0,0,1,2.481-.64c1.642-.342,3.28-.571,4.892-.754,3.22-.367,6.346-.551,9.323-.65a152.077,152.077,0,0,1,15.812.273,63.465,63.465,0,0,1,10.558,1.488,9.392,9.392,0,0,1,2.7,1.042,1.325,1.325,0,0,1,.5.551A.611.611,0,0,1,269.876,456.91Z" transform="translate(-117.27 -235)" fill="#ebebeb"/>
        <path id="Path_6819" data-name="Path 6819" d="M272.237,458.633a.561.561,0,0,0-.3-.367,4.863,4.863,0,0,0-1.35-.5,33.963,33.963,0,0,0-5.249-.66c-2.238-.139-4.922-.2-7.889-.094-1.488.06-3.041.154-4.644.337-.8.094-1.617.208-2.431.377a10.526,10.526,0,0,0-1.206.318,3.124,3.124,0,0,0-.561.238c-.174.089-.342.233-.347.347s.169.253.342.347a4.113,4.113,0,0,0,.566.238,11.043,11.043,0,0,0,1.206.318c.814.169,1.627.283,2.431.377,1.6.184,3.16.278,4.644.332,2.977.109,5.651.05,7.894-.094a34.075,34.075,0,0,0,5.269-.67,5.031,5.031,0,0,0,1.35-.5.57.57,0,0,0,.3-.367.2.2,0,0,1,0,.129.655.655,0,0,1-.258.283,4.423,4.423,0,0,1-1.35.531,30.86,30.86,0,0,1-5.319.784,76.53,76.53,0,0,1-7.938.149c-1.488-.05-3.051-.139-4.664-.323-.809-.089-1.627-.2-2.451-.377a10.129,10.129,0,0,1-1.24-.322,3.362,3.362,0,0,1-.605-.258.779.779,0,0,1-.5-.576c.04-.332.3-.456.5-.571a4.323,4.323,0,0,1,.61-.258,12.22,12.22,0,0,1,1.235-.323c.824-.169,1.642-.283,2.451-.377,1.612-.184,3.175-.273,4.664-.323a75.033,75.033,0,0,1,7.938.154,31.44,31.44,0,0,1,5.284.754,4.534,4.534,0,0,1,1.35.536.625.625,0,0,1,.258.283.2.2,0,0,1,.01.119Z" transform="translate(-130.59 -236.723)" fill="#ebebeb"/>
        <rect id="Rectangle_635" data-name="Rectangle 635" width="14.984" height="5.924" transform="translate(9.566 57.593)" fill="#f5f5f5"/>
        <path id="Path_6820" data-name="Path 6820" d="M29.986,146.939a.358.358,0,0,1,0-.1v-1.474c0-1.022,0-2.481-.035-4.346l.06.069-18.487.045.094-.114h0v5.914l-.094-.109,13.173.05,3.88.035h.04l-3.865.035-13.237.05H11.42v-5.964h0c.189-.228.055-.06.094-.114L30,140.955h.064v.069c0,1.87-.025,3.359-.03,4.391v1.439a.566.566,0,0,1-.05.084Z" transform="translate(-11.42 -77.586)" fill="#e0e0e0"/>
        <rect id="Rectangle_636" data-name="Rectangle 636" width="24.138" height="6.385" transform="translate(140.029 187.705)" fill="#ebebeb"/>
        <path id="Path_6821" data-name="Path 6821" d="M297.107,411.395v-1.7c0-1.1,0-2.689-.04-4.689l.074.079L273,405.128l.124-.124h0v6.385l-.119-.124,17.2.055,5.046.074h1.737a.357.357,0,0,1,.124,0h-1.8l-5.051.035-17.286.055h-.119v-6.475h0l.124-.119,24.138.045h.074v.074c0,2.019-.03,3.617-.04,4.733V411.3A.422.422,0,0,1,297.107,411.395Z" transform="translate(-143.146 -210.597)" fill="#e0e0e0"/>
        <rect id="Rectangle_637" data-name="Rectangle 637" width="24.138" height="6.385" transform="translate(95.232 59.836)" fill="#f5f5f5"/>
        <path id="Path_6822" data-name="Path 6822" d="M206.842,153.713v-1.7c0-1.1,0-2.684-.045-4.684l.074.074-24.133.05c.05-.055-.124.119.119-.124h0v6.39l-.119-.119,17.2.055,5.081.035h.055l-5.051.035-17.286.055h-.119v-6.435h0c.248-.248.069-.069.129-.124l24.133.05h.079v.074c0,2.014-.035,3.617-.045,4.728v1.553A.084.084,0,0,1,206.842,153.713Z" transform="translate(-97.679 -80.763)" fill="#e0e0e0"/>
        <path id="Path_6823" data-name="Path 6823" d="M322.122,39.678a.669.669,0,0,1,0-.119V37.976c0-1.1,0-2.689-.045-4.689l.074.079-24.133.045.119-.119h0V39.7l-.119-.124,17.2.055,5.081.035h.055l-5.051.035-17.286.055H297.9v-6.46h0c.248-.248.069-.069.129-.124l24.133.045h.079v.074c0,2.019-.035,3.622-.045,4.733v1.553A.828.828,0,0,1,322.122,39.678Z" transform="translate(-155.762 -23.3)" fill="#e0e0e0"/>
        <rect id="Rectangle_638" data-name="Rectangle 638" width="24.138" height="6.385" transform="translate(208.374 89.69)" fill="#f5f5f5"/>
        <path id="Path_6824" data-name="Path 6824" d="M442.367,213.819a1.017,1.017,0,0,1,0-.114v-1.588c0-1.1-.025-2.684-.045-4.684l.074.074-24.138.05.124-.124h0v6.376l-.119-.119,17.2.055,5.081.035h.02l-5.051.035-17.286.055h-.119v-6.495h0l.124-.124,24.138.05h.074v.074c0,2.019-.03,3.617-.04,4.728v1.558A.353.353,0,0,1,442.367,213.819Z" transform="translate(-216.33 -111.016)" fill="#e0e0e0"/>
        <rect id="Rectangle_639" data-name="Rectangle 639" width="45.036" height="74.552" transform="translate(34.547 23.279)" fill="#e0e0e0"/>
        <rect id="Rectangle_640" data-name="Rectangle 640" width="45.036" height="74.552" transform="translate(33.049 23.279)" fill="#ebebeb"/>
        <rect id="Rectangle_641" data-name="Rectangle 641" width="41.201" height="71.525" transform="translate(34.969 24.793)" fill="#fff"/>
        <rect id="Rectangle_642" data-name="Rectangle 642" width="25.334" height="52.94" transform="translate(42.813 34.086)" fill="#ebebeb"/>
        <path id="Path_6825" data-name="Path 6825" d="M97.709,131.1c-.06-4.962,4.386-9.769,9.283-10.459,2.337-.332,4.818.134,7-.764,3.895-1.6,5.135-6.768,9.055-8.306l.179,38.263H97.709Z" transform="translate(-54.896 -62.808)" fill="#e0e0e0"/>
        <path id="Path_6826" data-name="Path 6826" d="M122.582,32.778a.669.669,0,0,1,0-.119V31.076c0-1.1,0-2.689-.04-4.684l.074.074-24.138.045.119-.119h0v6.385l-.119-.124,17.2.055,5.076.035h.03l-5.046.035-17.286.055H98.33V26.4h0c.243-.248.069-.069.124-.124l24.138.045h.074V26.4c0,2.014-.03,3.617-.04,4.728v1.553a.824.824,0,0,1-.045.094Z" transform="translate(-55.209 -19.828)" fill="#e0e0e0"/>
        <path id="Path_6827" data-name="Path 6827" d="M139.007,19.854a.382.382,0,0,1,0-.124v-.337c0-.318,0-.744-.025-1.28,0-1.121-.025-2.7-.045-4.649l.084.089-14.5.035c-.109.109.149-.149.124-.119h0v6.376l-.119-.119,10.375.055,3.027.035h.05L135,19.849l-10.454.055h-.114v-6.49h0l.124-.124,14.5.035h.045v.084c0,1.985-.035,3.567-.045,4.7v1.26A1.6,1.6,0,0,1,139.007,19.854Z" transform="translate(-68.36 -13.29)" fill="#e0e0e0"/>
        <path id="Path_6828" data-name="Path 6828" d="M448.772,110.924a.658.658,0,0,1,0-.129c0-.094,0-.213,0-.362v-1.394c0-1.226-.03-2.977-.05-5.2l.084.084-26.792.055c.06-.064-.139.134.134-.139h0v7.085l-.134-.134,19.1.06,5.636.04h2.064a.5.5,0,0,1-.124,0h-1.87l-5.607.04-19.191.06h-.134v-7.2h0c.273-.273.079-.074.139-.134l26.792.05h.084v.119c0,2.238-.035,4.019-.045,5.254v1.722A.147.147,0,0,1,448.772,110.924Z" transform="translate(-218.234 -58.808)" fill="#e0e0e0"/>
        <path id="Path_6829" data-name="Path 6829" d="M466.919,96.684a.564.564,0,0,1,0-.134c0-.1,0-.228,0-.377,0-.347,0-.824-.025-1.419,0-1.245-.03-3-.05-5.16l.094.1-16.125.045.134-.134h0v7.085l-.129-.129,11.521.06,3.354.04h1.23a2.112,2.112,0,0,1-.293,0h-.878l-3.329.035-11.605.06h-.129V89.619h0l.139-.139,16.1.04h.1v.1c0,2.183-.04,3.969-.05,5.22,0,.585,0,1.052-.025,1.4S466.924,96.709,466.919,96.684Z" transform="translate(-232.745 -51.678)" fill="#e0e0e0"/>
      </g>
      <g id="freepik--Floor--inject-221" transform="translate(22.851 222.394)">
        <path id="Path_6830" data-name="Path 6830" d="M249.334,434.869c0,.069-48.127.129-107.432.129s-107.442-.05-107.442-.129,48.1-.129,107.442-.129S249.334,434.8,249.334,434.869Z" transform="translate(-34.46 -434.74)" fill="#263238"/>
      </g>
      <g id="freepik--Device--inject-221" transform="translate(106.98 25.511)">
        <rect id="Rectangle_643" data-name="Rectangle 643" width="116.65" height="167.402" rx="5" transform="translate(0.063 0.123)" fill="#263238"/>
        <path id="Path_6831" data-name="Path 6831" d="M315.527,205.447l.362-.025a2.846,2.846,0,0,0,.447-.055,4.66,4.66,0,0,0,.615-.134,5.225,5.225,0,0,0,3.175-2.6,5.554,5.554,0,0,0,.5-1.384,8.276,8.276,0,0,0,.1-1.632V186.419c0-14.15,0-34.622-.035-59.915V43.914a7.831,7.831,0,0,0-.084-1.528,4.886,4.886,0,0,0-.5-1.434,5.13,5.13,0,0,0-2.1-2.163,5.78,5.78,0,0,0-1.444-.521,7.616,7.616,0,0,0-1.548-.094H209.335a5.076,5.076,0,0,0-5.011,4.143,9.074,9.074,0,0,0-.094,1.771V199.662a8.544,8.544,0,0,0,.06,1.34,5.21,5.21,0,0,0,.357,1.27,5.115,5.115,0,0,0,3.969,3.036,8.755,8.755,0,0,0,1.3.055h23.766l59.91.04h0l-59.91.04H209.921a9.229,9.229,0,0,1-1.33-.055,5.274,5.274,0,0,1-4.5-4.465,8.433,8.433,0,0,1-.06-1.364V44.078a9.735,9.735,0,0,1,.094-1.816,5.329,5.329,0,0,1,5.244-4.336H315.051a8.161,8.161,0,0,1,1.588.1,5.557,5.557,0,0,1,1.488.541,5.393,5.393,0,0,1,2.193,2.253,5.179,5.179,0,0,1,.5,1.488,8.306,8.306,0,0,1,.084,1.563v82.634c0,25.3-.025,45.765-.035,59.915v13.193a8.032,8.032,0,0,1-.1,1.642,5.571,5.571,0,0,1-.5,1.394,5.264,5.264,0,0,1-1.608,1.841,5.081,5.081,0,0,1-1.6.764,4.11,4.11,0,0,1-.615.134,3.525,3.525,0,0,1-.452.045Z" transform="translate(-204.023 -37.922)" fill="#263238"/>
        <circle id="Ellipse_13" data-name="Ellipse 13" cx="4.475" cy="4.475" r="4.475" transform="translate(52.059 159.11) rotate(-45)" fill="#acacac"/>
        <path id="Path_6832" data-name="Path 6832" d="M319.922,52.624H296.107a1.657,1.657,0,0,1-1.657-1.662h0a1.657,1.657,0,0,1,1.657-1.662h23.815a1.662,1.662,0,0,1,1.662,1.662h0A1.662,1.662,0,0,1,319.922,52.624Z" transform="translate(-249.584 -43.655)" fill="#acacac"/>
        <rect id="Rectangle_644" data-name="Rectangle 644" width="109.293" height="139.801" transform="translate(3.64 12.066)" fill="#fff"/>
        <rect id="Rectangle_645" data-name="Rectangle 645" width="73.837" height="12.756" rx="1.45" transform="translate(21.383 78.114)" fill="#f5f5f5"/>
        <path id="Path_6833" data-name="Path 6833" d="M320.13,207.889a.843.843,0,0,0,.412-.144.709.709,0,0,0,.278-.442,7.329,7.329,0,0,0,0-.749c0-1.151,0-2.838-.025-5.011v-5.691a.655.655,0,0,0-.625-.645H308.54l-60.789.035a.6.6,0,0,0-.6.571v11.412a.59.59,0,0,0,.63.5h19.846l27.328.03,18.427.04,5.011.064h-5.006l-18.427.045-27.328.025H247.8a.858.858,0,0,1-.576-.189.833.833,0,0,1-.308-.531,5.319,5.319,0,0,1,0-.556V195.734a.853.853,0,0,1,.853-.824l60.789.04h11.64a.789.789,0,0,1,.749.784c0,.719,0,1.409,0,2.074v3.617c0,2.173,0,3.86-.025,5.011v.759a.774.774,0,0,1-.3.456.71.71,0,0,1-.313.119A.665.665,0,0,1,320.13,207.889Z" transform="translate(-225.629 -117.02)" fill="#263238"/>
        <rect id="Rectangle_646" data-name="Rectangle 646" width="73.837" height="12.756" rx="1.45" transform="translate(21.457 95.633)" fill="#f5f5f5"/>
        <path id="Path_6834" data-name="Path 6834" d="M320.262,243.194a.834.834,0,0,0,.407-.144.72.72,0,0,0,.278-.442,7.226,7.226,0,0,0,0-.749c0-1.151,0-2.838-.025-5.011v-5.691a.665.665,0,0,0-.625-.65H308.662l-60.789.04a.6.6,0,0,0-.6.571v11.411a.625.625,0,0,0,.218.372.6.6,0,0,0,.417.129h19.841l27.328.025,18.422.045,5.011.025h0l-5.011.025-18.422.04-27.328.03H247.908a.868.868,0,0,1-.58-.189.858.858,0,0,1-.308-.531c0-.218,0-.367,0-.556V231.029a.858.858,0,0,1,.853-.819l60.789.04H320.3a.8.8,0,0,1,.754.789v5.691c0,2.173,0,3.86-.025,5.011a7.24,7.24,0,0,1,0,.759.724.724,0,0,1-.615.571A.452.452,0,0,1,320.262,243.194Z" transform="translate(-225.687 -134.805)" fill="#263238"/>
        <rect id="Rectangle_647" data-name="Rectangle 647" width="73.837" height="12.756" rx="1.45" transform="translate(21.571 115.39)" fill="#fff" stroke="#d16800" stroke-width="1"/>
        <path id="Path_6839" data-name="Path 6839" d="M308.48,280.56h.834v2.292h1.409v.66H308.48Z" transform="translate(-256.653 -160.174)" fill="#d16800"/>
        <path id="Path_6840" data-name="Path 6840" d="M313.265,282.774a1.295,1.295,0,1,1,1.29,1.186,1.191,1.191,0,0,1-1.29-1.186Zm1.771,0a.5.5,0,1,0-.125.387A.5.5,0,0,0,315.037,282.774Z" transform="translate(-259.062 -160.582)" fill="#d16800"/>
        <path id="Path_6841" data-name="Path 6841" d="M321.55,281.867v1.866a1.171,1.171,0,0,1-1.34,1.275,2.014,2.014,0,0,1-1.136-.3l.293-.561a1.31,1.31,0,0,0,.774.248c.427,0,.61-.194.61-.556v-.074a.848.848,0,0,1-.68.268,1.1,1.1,0,1,1,0-2.2.829.829,0,0,1,.719.318v-.278Zm-.789,1.062a.5.5,0,1,0-.5.466.466.466,0,0,0,.5-.466Z" transform="translate(-261.939 -160.812)" fill="#d16800"/>
        <path id="Path_6842" data-name="Path 6842" d="M327.75,280.56h.839v2.952h-.839Z" transform="translate(-266.362 -160.174)" fill="#d16800"/>
        <path id="Path_6843" data-name="Path 6843" d="M332.991,282.845v1.3h-.8v-1.176c0-.327-.144-.466-.377-.466s-.456.159-.456.541v1.1h-.8v-2.282h.759v.248a.992.992,0,0,1,.729-.288.893.893,0,0,1,.943,1.017Z" transform="translate(-267.778 -160.812)" fill="#d16800"/>
        <path id="Path_6852" data-name="Path 6852" d="M380.479,240.241h-.288v-.407a1.374,1.374,0,1,0-2.749,0v.407h-.417a.5.5,0,0,0-.5.5v2.233a.5.5,0,0,0,.5.5H380.5a.5.5,0,0,0,.5-.5v-2.233a.5.5,0,0,0-.516-.5Zm-1.2,2.52h-1.027l.273-.685a.561.561,0,0,1-.323-.5.573.573,0,1,1,.819.5Zm.5-2.52H377.86v-.407a.958.958,0,0,1,1.915,0Z" transform="translate(-290.94 -138.962)" fill="#e0e0e0"/>
        <circle id="Ellipse_14" data-name="Ellipse 14" cx="22.069" cy="22.069" r="22.069" transform="translate(36.421 27.218)" fill="#fafafa"/>
        <path id="Path_6853" data-name="Path 6853" d="M321.442,114.728a3.243,3.243,0,0,0-.03-.357c-.03-.238-.035-.59-.065-1.047,0-.233-.03-.5-.045-.769s-.089-.59-.139-.923-.109-.695-.169-1.077-.194-.779-.288-1.2a21.126,21.126,0,0,0-2.436-5.86,21.831,21.831,0,0,0-5.592-6.237l-.948-.709c-.332-.218-.685-.417-1.032-.63a9.883,9.883,0,0,0-1.072-.62l-1.141-.546-.581-.278-.62-.218-1.235-.447c-.422-.139-.858-.228-1.295-.347a11.515,11.515,0,0,0-1.33-.3,20.343,20.343,0,0,0-2.773-.323c-.5,0-.953-.06-1.434-.055l-1.454.074a3.559,3.559,0,0,0-.729.05l-.734.114c-.5.079-.992.134-1.488.238a23.88,23.88,0,0,0-5.79,2.119c-.461.248-.908.541-1.364.814-.223.144-.466.268-.68.432l-.645.5a24.944,24.944,0,0,0-2.481,2.114c-.367.412-.739.819-1.111,1.23l-.283.308-.253.337-.5.67-.5.675-.442.724-.442.724-.218.367-.189.382q-.372.769-.744,1.548l-.6,1.6a21.712,21.712,0,0,0,0,13.848l.6,1.627c.253.5.5,1.032.749,1.548l.184.382.223.367.442.724.442.724.5.675.5.67.253.337.278.308,1.116,1.23a24.946,24.946,0,0,0,2.481,2.114l.645.5c.213.159.456.283.68.427.456.273.9.566,1.364.819a24.142,24.142,0,0,0,5.79,2.114c.5.1.992.159,1.488.243l.734.109c.243.035.5.035.734.05l1.449.074c.5,0,.958-.04,1.434-.055a20.347,20.347,0,0,0,2.778-.323,10.976,10.976,0,0,0,1.33-.3c.432-.114.873-.2,1.29-.342l1.235-.452.61-.223.581-.273,1.141-.551c.382-.174.719-.417,1.072-.62s.7-.412,1.032-.63l.953-.709a21.87,21.87,0,0,0,5.6-6.247,21.167,21.167,0,0,0,2.446-5.855c.1-.427.238-.819.288-1.206s.114-.739.169-1.072.109-.64.139-.923.03-.541.045-.774c.03-.452.05-.8.065-1.047s.03-.357.03-.357v.357c0,.233,0,.6-.04,1.052q0,.352-.03.774c-.025.283-.084.59-.129.928s-.1.695-.159,1.077a10.528,10.528,0,0,1-.278,1.216,20.837,20.837,0,0,1-2.416,5.9,21.905,21.905,0,0,1-5.6,6.306l-.977.719c-.332.223-.69.427-1.037.64a11.614,11.614,0,0,1-1.082.63l-1.146.556-.585.278-.615.228-1.245.456c-.422.144-.868.233-1.3.357a11.934,11.934,0,0,1-1.34.308,20.8,20.8,0,0,1-2.8.327c-.5,0-.963.069-1.449.06l-1.488-.069a3.705,3.705,0,0,1-.739-.05l-.739-.109c-.5-.084-.992-.139-1.488-.243a24.4,24.4,0,0,1-5.86-2.128c-.466-.253-.918-.551-1.384-.824-.223-.144-.466-.268-.685-.432l-.655-.5a24.88,24.88,0,0,1-2.52-2.138l-1.126-1.24-.283-.313-.258-.337-.5-.68-.5-.685-.452-.729-.447-.734-.223-.367-.189-.387c-.253-.5-.5-1.042-.754-1.568s-.4-1.1-.605-1.642a21.985,21.985,0,0,1,0-14.011c.2-.551.407-1.1.605-1.642a15.677,15.677,0,0,1,.754-1.568l.189-.387.228-.367.447-.734.447-.734.5-.68.5-.68.258-.337.283-.313,1.131-1.24a24.984,24.984,0,0,1,2.52-2.138l.65-.5c.218-.164.461-.288.69-.437.461-.273.913-.566,1.379-.824a23.619,23.619,0,0,1,2.9-1.265,23.094,23.094,0,0,1,2.977-.863c.5-.1.992-.159,1.488-.238l.739-.114c.243-.03.5-.03.739-.045l1.488-.074c.5,0,.967.04,1.444.06a20.61,20.61,0,0,1,2.8.332,11.232,11.232,0,0,1,1.345.308c.437.119.878.208,1.3.352l1.245.456.615.228.585.278,1.146.556c.382.174.724.427,1.082.63s.7.422,1.037.64l.958.719a21.98,21.98,0,0,1,5.6,6.306,20.84,20.84,0,0,1,2.416,5.909,11.321,11.321,0,0,1,.278,1.211c.06.382.109.744.159,1.082s.1.64.129.923l.03.774.04,1.052C321.447,114.6,321.442,114.728,321.442,114.728Z" transform="translate(-240.883 -65.441)" fill="#263238"/>
        <path id="Path_6854" data-name="Path 6854" d="M315.077,128a5.051,5.051,0,1,0-3.667,0c-7.765,1.1-7.413,9.025-7.413,9.025l18.358.079S322.772,129.093,315.077,128Z" transform="translate(-254.394 -78.392)" fill="#e0e0e0"/>
        <path id="Path_6882" data-name="Path 6882" d="M380.03,205.4a1.558,1.558,0,0,0,.923-1.434,1.454,1.454,0,1,0-2.9,0,1.548,1.548,0,0,0,.923,1.449c-2.233.332-2.133,2.764-2.133,2.764h5.284S382.242,205.734,380.03,205.4Z" transform="translate(-291.096 -120.808)" fill="#e0e0e0"/>
        <path id="Path_6883" data-name="Path 6883" d="M406.193,78.5h5.314a.313.313,0,0,0,0-.62h-5.314a.313.313,0,0,0,0,.62Z" transform="translate(-305.748 -58.054)" fill="#263238"/>
        <path id="Path_6884" data-name="Path 6884" d="M406.193,81.87h5.314a.313.313,0,0,0,0-.62h-5.314a.313.313,0,0,0,0,.62Z" transform="translate(-305.748 -59.752)" fill="#263238"/>
        <path id="Path_6885" data-name="Path 6885" d="M406.193,85.24h5.314a.313.313,0,0,0,0-.62h-5.314a.313.313,0,0,0,0,.62Z" transform="translate(-305.748 -61.45)" fill="#263238"/>
      </g>
      <g id="freepik--Plant--inject-221" transform="translate(195.493 152.6)">
        <path id="Path_6886" data-name="Path 6886" d="M399.461,350.3a3.186,3.186,0,0,1,.213,1.359,4.56,4.56,0,0,1,.62-1.538c.109-.174.288-.362.5-.313s.268.3.273.5a3.359,3.359,0,0,1-.372,1.657,3.711,3.711,0,0,1,1.4-1.087.347.347,0,0,1,.3-.025.337.337,0,0,1,.089.342,2.833,2.833,0,0,1-1.746,2.178l-.293.045a2.635,2.635,0,0,1-1.89-3.031c.045-.243.184-.526.432-.531S399.376,350.1,399.461,350.3Z" transform="translate(-390.525 -322.151)" fill="#410b5f"/>
        <path id="Path_6887" data-name="Path 6887" d="M403.794,366.611a8.4,8.4,0,0,0-2.813-1.136,11.57,11.57,0,0,0,.079-6.222,5.9,5.9,0,0,0-1.052-2.243,3.061,3.061,0,0,0-2.114-1.181,2.977,2.977,0,0,0-2.352,1.092l-1.037,2.4a9.581,9.581,0,0,0-.124,1.057A12.7,12.7,0,0,0,395.9,367.1,7.041,7.041,0,0,0,394,372.738h12.339A6.811,6.811,0,0,0,403.794,366.611Z" transform="translate(-388.22 -325.187)" fill="#acacac"/>
        <path id="Path_6888" data-name="Path 6888" d="M396.79,377.691a.542.542,0,0,1,.094-.134,3.277,3.277,0,0,1,.3-.352,5.655,5.655,0,0,1,1.369-1.047,6.494,6.494,0,0,1,2.431-.779,5.894,5.894,0,0,1,5.537,2.387,6.5,6.5,0,0,1,1.106,2.3,5.9,5.9,0,0,1,.179,1.717,4.509,4.509,0,0,1-.05.461.556.556,0,0,1-.035.164,7.443,7.443,0,0,0-.223-2.307,6.575,6.575,0,0,0-1.116-2.233,5.815,5.815,0,0,0-5.378-2.317,6.569,6.569,0,0,0-2.387.719,7.572,7.572,0,0,0-1.831,1.419Z" transform="translate(-389.66 -335.012)" fill="#263238"/>
        <path id="Path_6889" data-name="Path 6889" d="M394.681,361.817a2.977,2.977,0,0,1,0-.819,7.041,7.041,0,0,1,.337-1.95,4.039,4.039,0,0,1,1.052-1.682,1.682,1.682,0,0,1,.7-.437c0,.025-.263.179-.605.531a4.465,4.465,0,0,0-.992,1.647,9.034,9.034,0,0,0-.377,1.9A4.137,4.137,0,0,1,394.681,361.817Z" transform="translate(-388.584 -325.742)" fill="#263238"/>
        <path id="Path_6890" data-name="Path 6890" d="M409.09,384.4q1.129-1.2,2.342-2.317A8.578,8.578,0,0,1,409.09,384.4Z" transform="translate(-395.858 -338.413)" fill="#263238"/>
        <path id="Path_6891" data-name="Path 6891" d="M406.32,382.856a4.233,4.233,0,0,1,.2-1.226,4.337,4.337,0,0,1,.382-1.181,4.232,4.232,0,0,1-.2,1.225A4.148,4.148,0,0,1,406.32,382.856Z" transform="translate(-394.462 -337.592)" fill="#263238"/>
        <path id="Path_6892" data-name="Path 6892" d="M398.93,382.54a3.141,3.141,0,0,1,.7,1.116,3.226,3.226,0,0,1,.377,1.26,7.721,7.721,0,0,1-.551-1.186,8.539,8.539,0,0,1-.531-1.191Z" transform="translate(-390.739 -338.645)" fill="#263238"/>
        <path id="Path_6893" data-name="Path 6893" d="M406.92,368.476a11.937,11.937,0,0,1,1.821-2.406,6.064,6.064,0,0,1-.839,1.26,6.233,6.233,0,0,1-.982,1.146Z" transform="translate(-394.764 -330.347)" fill="#263238"/>
        <path id="Path_6894" data-name="Path 6894" d="M405.16,360.117a18.029,18.029,0,0,1,2.044-2.977,8.485,8.485,0,0,1-.943,1.543,8.681,8.681,0,0,1-1.1,1.434Z" transform="translate(-393.878 -325.848)" fill="#263238"/>
        <path id="Path_6895" data-name="Path 6895" d="M402.346,365.18a4.758,4.758,0,0,1,.179,1.31,4.536,4.536,0,0,1,0,1.32,9.484,9.484,0,0,1-.164-2.63Z" transform="translate(-392.453 -329.898)" fill="#263238"/>
        <path id="Path_6896" data-name="Path 6896" d="M391.19,368.72a7.938,7.938,0,0,1,1.751.9,8.2,8.2,0,0,1,1.6,1.146,14.432,14.432,0,0,1-1.7-.992A14.044,14.044,0,0,1,391.19,368.72Z" transform="translate(-386.839 -331.682)" fill="#263238"/>
        <g id="Group_1380" data-name="Group 1380" transform="translate(7.73 39.859)" opacity="0.3">
          <path id="Path_6897" data-name="Path 6897" d="M399.062,374.909a4.351,4.351,0,0,1,1.985-.5,2.505,2.505,0,0,1,2.009.571v.025A7.442,7.442,0,0,0,398,376.591,2.024,2.024,0,0,1,399.062,374.909Z" transform="translate(-398 -374.405)"/>
        </g>
        <path id="Path_6898" data-name="Path 6898" d="M411.616,324.244a2.436,2.436,0,0,1,1.087-.04,3.592,3.592,0,0,1-1.146-.63c-.129-.1-.258-.258-.2-.412s.263-.179.427-.164a2.615,2.615,0,0,1,1.255.452,2.977,2.977,0,0,1-.714-1.2.253.253,0,0,1,0-.238c.06-.074.179-.065.273-.04a2.238,2.238,0,0,1,1.548,1.553v.233a2.074,2.074,0,0,1-2.53,1.2c-.189-.06-.4-.2-.377-.392S411.427,324.289,411.616,324.244Z" transform="translate(-396.94 -308.119)" fill="#410b5f"/>
        <path id="Path_6899" data-name="Path 6899" d="M461.239,294.422a2.48,2.48,0,0,1-.065,1.1,3.548,3.548,0,0,1,.719-1.087c.114-.119.283-.233.427-.164s.159.278.129.442a2.66,2.66,0,0,1-.551,1.216,2.9,2.9,0,0,1,1.25-.615.253.253,0,0,1,.238.03.258.258,0,0,1,0,.273,2.233,2.233,0,0,1-1.672,1.414h-.238a2.061,2.061,0,0,1-.963-2.615c.074-.184.223-.382.417-.342A.384.384,0,0,1,461.239,294.422Z" transform="translate(-421.691 -294.07)" fill="#410b5f"/>
        <path id="Path_6900" data-name="Path 6900" d="M420.329,328.685c.184,0,.357.03.531.045.318-3.528-.749-7.1.327-10.474l-.144.184a7.973,7.973,0,0,1-3.865-.347,4.827,4.827,0,0,1-2.8-2.595,3.473,3.473,0,0,1,.6-3.662c1.221-1.275,3.369-1.211,4.9-.332a11.134,11.134,0,0,1,3.473,3.677,6.356,6.356,0,0,1,1.687-.992c-1.7-2.342-3.349-4.8-3.885-7.631-.571-3.086.571-6.738,3.458-8.048a6.4,6.4,0,0,1,7.239,1.95c.134.159.248.332.367.5l-.055-.169a4.465,4.465,0,0,1,2.322-2.451,3.811,3.811,0,0,1,3.344.164,3.294,3.294,0,0,1,1.637,2.863,3.672,3.672,0,0,1-2.124,3.051,5.75,5.75,0,0,1-3.662.342,11.043,11.043,0,0,1,0,3.285,18.924,18.924,0,0,1-2.783,6.882,6.4,6.4,0,0,1,.992.829c2.218,2.322,2.362,6.048,1.2,9.04s-4.307,5.2-6.49,7.556h0a14.389,14.389,0,0,1,1.677,5.264,4.783,4.783,0,0,1,4.222-2.709,2.355,2.355,0,0,1,2.317,1.335,2.438,2.438,0,0,1-.749,2.282,6.058,6.058,0,0,1-5.587,1.637v-.585a24.949,24.949,0,0,1-.094,4.024h-14.1S410.5,328.323,420.329,328.685Z" transform="translate(-398.112 -296.063)" fill="#acacac"/>
        <rect id="Rectangle_648" data-name="Rectangle 648" width="33.317" height="5.904" transform="translate(33.327 53.456) rotate(180)" fill="#d16800"/>
        <path id="Path_6901" data-name="Path 6901" d="M415.8,399.45,411.742,417.1H391.886L387.45,399.45Z" transform="translate(-384.954 -347.165)" fill="#d16800"/>
        <path id="Path_6902" data-name="Path 6902" d="M382.48,401.709c0,.065,7.512.114,16.78.114s16.785-.05,16.785-.114-7.512-.119-16.785-.119S382.48,401.645,382.48,401.709Z" transform="translate(-382.45 -348.243)" fill="#263238"/>
        <path id="Path_6903" data-name="Path 6903" d="M421.94,360.34a.9.9,0,0,1,.193-.109,4.087,4.087,0,0,1,.585-.253,5.7,5.7,0,0,1,2.317-.263,7.035,7.035,0,0,1,3.26,1.141,8.673,8.673,0,0,1,2.8,3.17,12.95,12.95,0,0,1,1.345,4.024,21.777,21.777,0,0,1,.223,3.473c0,.992-.035,1.776-.055,2.327a3.942,3.942,0,0,1-.03.635.938.938,0,0,1,0,.218,1.244,1.244,0,0,1,0-.218V371.5a23.106,23.106,0,0,0-.268-3.428,12.776,12.776,0,0,0-1.335-3.969,8.639,8.639,0,0,0-2.734-3.116,7.045,7.045,0,0,0-3.18-1.156,5.954,5.954,0,0,0-2.282.2C422.218,360.206,421.97,360.34,421.94,360.34Z" transform="translate(-402.332 -327.132)" fill="#263238"/>
        <path id="Path_6904" data-name="Path 6904" d="M427.9,337.906a.611.611,0,0,1-.025-.164,3.21,3.21,0,0,1,0-.5,8.374,8.374,0,0,1,1.191-4.212,6.639,6.639,0,0,1,.943-1.245,5.512,5.512,0,0,1,1.32-1.047,5.6,5.6,0,0,1,1.573-.605,6.51,6.51,0,0,1,1.563-.114,7.641,7.641,0,0,1,2.56.61,8.489,8.489,0,0,1,1.563.848c.174.114.3.218.387.288s.129.1.124.109a5.355,5.355,0,0,1-.551-.337,10.336,10.336,0,0,0-1.573-.789,7.785,7.785,0,0,0-2.52-.556,6.683,6.683,0,0,0-1.518.119,5.6,5.6,0,0,0-1.518.59,5.459,5.459,0,0,0-1.275.992,6.761,6.761,0,0,0-.933,1.211,8.559,8.559,0,0,0-.992,2.386,9.052,9.052,0,0,0-.263,1.737A2.837,2.837,0,0,1,427.9,337.906Z" transform="translate(-405.319 -312.181)" fill="#263238"/>
        <path id="Path_6905" data-name="Path 6905" d="M451.679,308.692a7.113,7.113,0,0,1-.119-1.131c-.025-.352-.065-.764-.139-1.216a6,6,0,0,0-.4-1.429,14.522,14.522,0,0,0-1.29-2.4c-.382-.585-.675-.9-.655-.923s.094.06.233.2a6.712,6.712,0,0,1,.531.645,11.807,11.807,0,0,1,1.354,2.4,5.566,5.566,0,0,1,.392,1.488,10.248,10.248,0,0,1,.1,1.235,7.027,7.027,0,0,1-.015,1.126Z" transform="translate(-416.005 -297.861)" fill="#263238"/>
        <path id="Path_6906" data-name="Path 6906" d="M450.66,379.71a7.637,7.637,0,0,1,1.8,1.563,4.109,4.109,0,0,1-.963-.71A3.756,3.756,0,0,1,450.66,379.71Z" transform="translate(-416.803 -337.219)" fill="#263238"/>
        <path id="Path_6907" data-name="Path 6907" d="M453,377.074a4.2,4.2,0,0,1,1.2-.213,3.786,3.786,0,0,1,1.211,0,7.982,7.982,0,0,1-2.406.233Z" transform="translate(-417.982 -335.759)" fill="#263238"/>
        <path id="Path_6908" data-name="Path 6908" d="M451.23,371.276a7.7,7.7,0,0,1,.67-.923,6.879,6.879,0,0,1,.675-.923,2.48,2.48,0,0,1-.521,1.032A2.381,2.381,0,0,1,451.23,371.276Z" transform="translate(-417.09 -332.04)" fill="#263238"/>
        <path id="Path_6909" data-name="Path 6909" d="M447.43,371.23a5.334,5.334,0,0,1-.218,1.364,5.238,5.238,0,0,1-.4,1.32,5.079,5.079,0,0,1,.218-1.364A4.876,4.876,0,0,1,447.43,371.23Z" transform="translate(-414.863 -332.947)" fill="#263238"/>
        <path id="Path_6910" data-name="Path 6910" d="M445.926,379.793c-.035-.035.189-.293.5-.571s.59-.471.625-.437-.189.3-.5.576S445.961,379.833,445.926,379.793Z" transform="translate(-414.416 -336.752)" fill="#263238"/>
        <path id="Path_6911" data-name="Path 6911" d="M436.06,377.571a2.58,2.58,0,0,1,.605-.769c.372-.382.7-.67.739-.635a2.581,2.581,0,0,1-.605.769A3.957,3.957,0,0,1,436.06,377.571Z" transform="translate(-409.446 -335.433)" fill="#263238"/>
        <path id="Path_6912" data-name="Path 6912" d="M433.92,368.087a2.842,2.842,0,0,1,.452-.913,2.9,2.9,0,0,1,.61-.824,2.793,2.793,0,0,1-.452.918,2.744,2.744,0,0,1-.61.819Z" transform="translate(-408.368 -330.488)" fill="#263238"/>
        <path id="Path_6913" data-name="Path 6913" d="M427.543,362.43a3.913,3.913,0,0,1,.109,1.176,3.76,3.76,0,0,1-.079,1.176,3.9,3.9,0,0,1-.109-1.171,3.656,3.656,0,0,1,.079-1.181Z" transform="translate(-405.106 -328.513)" fill="#263238"/>
        <path id="Path_6914" data-name="Path 6914" d="M414.45,365a8.481,8.481,0,0,1,.933,1.087,8.815,8.815,0,0,1,.888,1.116,4,4,0,0,1-1.032-.992A4.2,4.2,0,0,1,414.45,365Z" transform="translate(-398.558 -329.808)" fill="#263238"/>
        <path id="Path_6915" data-name="Path 6915" d="M412.76,377.9a3.7,3.7,0,0,1,1.166.129,3.845,3.845,0,0,1,1.131.313,3.537,3.537,0,0,1-1.166-.129A3.677,3.677,0,0,1,412.76,377.9Z" transform="translate(-397.707 -336.303)" fill="#263238"/>
        <path id="Path_6916" data-name="Path 6916" d="M426.44,379.966a3.329,3.329,0,0,1,.452-1.285,3.379,3.379,0,0,1,.769-1.121q-.6,1.208-1.221,2.406Z" transform="translate(-404.599 -336.136)" fill="#263238"/>
        <path id="Path_6917" data-name="Path 6917" d="M421.746,374.265a2.545,2.545,0,0,1-.114-.953,2.482,2.482,0,0,1,.069-.953,2.48,2.48,0,0,1,.119.953A2.555,2.555,0,0,1,421.746,374.265Z" transform="translate(-402.168 -333.516)" fill="#263238"/>
        <path id="Path_6918" data-name="Path 6918" d="M436.6,385.326a2.089,2.089,0,0,1,.4-.992,2.129,2.129,0,0,1,.7-.8,5.459,5.459,0,0,1-.546.9A5.606,5.606,0,0,1,436.6,385.326Z" transform="translate(-409.718 -339.144)" fill="#263238"/>
        <path id="Path_6919" data-name="Path 6919" d="M420.159,386.115a3.061,3.061,0,0,1-.5-.913,2.977,2.977,0,0,1-.332-.992,5.756,5.756,0,0,1,.838,1.9Z" transform="translate(-401.017 -339.487)" fill="#263238"/>
        <path id="Path_6920" data-name="Path 6920" d="M445.25,359.1a4.5,4.5,0,0,1,1.295-.055,4.416,4.416,0,0,1,1.285.139,4.62,4.62,0,0,1-1.295.05,4.748,4.748,0,0,1-1.285-.134Z" transform="translate(-414.077 -326.796)" fill="#263238"/>
        <path id="Path_6921" data-name="Path 6921" d="M450.92,347.626a6.371,6.371,0,0,1,1.235-.992,7.055,7.055,0,0,1,1.35-.843,6.613,6.613,0,0,1-1.24.992,6.945,6.945,0,0,1-1.345.843Z" transform="translate(-416.934 -320.129)" fill="#263238"/>
        <path id="Path_6922" data-name="Path 6922" d="M450.295,335.645a7.8,7.8,0,0,1,.992-.665,7.546,7.546,0,0,1,.992-.67,4.019,4.019,0,0,1-2.019,1.335Z" transform="translate(-416.601 -314.345)" fill="#263238"/>
        <path id="Path_6923" data-name="Path 6923" d="M444,329.617a12.479,12.479,0,0,1,.729-2.977,6.185,6.185,0,0,1-.273,1.488A5.824,5.824,0,0,1,444,329.617Z" transform="translate(-413.447 -310.48)" fill="#263238"/>
        <path id="Path_6924" data-name="Path 6924" d="M433.38,329.51a3.1,3.1,0,0,1,.615.9,3.24,3.24,0,0,1,.447.992,3.23,3.23,0,0,1-.61-.9A3.334,3.334,0,0,1,433.38,329.51Z" transform="translate(-408.096 -311.926)" fill="#263238"/>
        <path id="Path_6925" data-name="Path 6925" d="M424.25,350.5c.035-.04.635.422,1.424.9a16.11,16.11,0,0,1,1.444.873,4.8,4.8,0,0,1-1.543-.714A4.673,4.673,0,0,1,424.25,350.5Z" transform="translate(-403.496 -322.5)" fill="#263238"/>
        <path id="Path_6926" data-name="Path 6926" d="M439.06,354.036a6.593,6.593,0,0,1,1.905-1.176,6.891,6.891,0,0,1-1.905,1.176Z" transform="translate(-410.958 -323.691)" fill="#263238"/>
        <path id="Path_6927" data-name="Path 6927" d="M441.538,342.675c-.04-.04.437-.5.878-1.186s.685-1.3.739-1.28a3.15,3.15,0,0,1-.58,1.379A3.076,3.076,0,0,1,441.538,342.675Z" transform="translate(-412.205 -317.317)" fill="#263238"/>
        <path id="Path_6928" data-name="Path 6928" d="M436.609,340.476a3.88,3.88,0,0,1-.04-1.211,3.968,3.968,0,0,1,.149-1.2,3.826,3.826,0,0,1,.04,1.206,4.036,4.036,0,0,1-.149,1.2Z" transform="translate(-409.688 -316.239)" fill="#263238"/>
        <path id="Path_6929" data-name="Path 6929" d="M433.686,350.341a4.143,4.143,0,0,1-.233-1.221,4.024,4.024,0,0,1-.05-1.24,4.34,4.34,0,0,1,.233,1.221A4.216,4.216,0,0,1,433.686,350.341Z" transform="translate(-408.094 -321.182)" fill="#263238"/>
        <path id="Path_6930" data-name="Path 6930" d="M426.476,322.94a10.829,10.829,0,0,1,.392,1.379,11.636,11.636,0,0,1,.4,1.374,3.657,3.657,0,0,1-.576-1.325A3.721,3.721,0,0,1,426.476,322.94Z" transform="translate(-404.615 -308.616)" fill="#263238"/>
        <path id="Path_6931" data-name="Path 6931" d="M421.19,338.773a10.026,10.026,0,0,1,1.077-.794,9.012,9.012,0,0,1,1.087-.779,3.473,3.473,0,0,1-.992.933,3.339,3.339,0,0,1-1.171.64Z" transform="translate(-401.954 -315.801)" fill="#263238"/>
        <path id="Path_6932" data-name="Path 6932" d="M414,334.486a8.249,8.249,0,0,1,1.315-.268,9.029,9.029,0,0,1,1.32-.238,5.324,5.324,0,0,1-2.635.5Z" transform="translate(-398.332 -314.178)" fill="#263238"/>
        <path id="Path_6933" data-name="Path 6933" d="M421,328.993c.025-.045.362.119.749.367s.68.5.65.531a1.984,1.984,0,0,1-.749-.372C421.261,329.29,420.968,329.057,421,328.993Z" transform="translate(-401.856 -311.662)" fill="#263238"/>
        <path id="Path_6934" data-name="Path 6934" d="M417.51,322.58a2.287,2.287,0,0,1,.853.7,2.317,2.317,0,0,1,.581.943,5.677,5.677,0,0,1-.724-.819,5.6,5.6,0,0,1-.71-.829Z" transform="translate(-400.1 -308.435)" fill="#263238"/>
        <path id="Path_6935" data-name="Path 6935" d="M412.75,328.74a6.777,6.777,0,0,1,1.211.3,7.149,7.149,0,0,1,1.206.347,3.082,3.082,0,0,1-1.25-.164A3.255,3.255,0,0,1,412.75,328.74Z" transform="translate(-397.702 -311.538)" fill="#263238"/>
        <path id="Path_6936" data-name="Path 6936" d="M445.708,317.17c-.04-.03.5-.729,1.062-1.622a17.681,17.681,0,0,1,1.087-1.608,7.294,7.294,0,0,1-.928,1.712A6.945,6.945,0,0,1,445.708,317.17Z" transform="translate(-414.306 -304.081)" fill="#263238"/>
        <path id="Path_6937" data-name="Path 6937" d="M443.578,310.109a5.458,5.458,0,0,1,.089-1.4,4.991,4.991,0,0,1,.278-1.369,5.428,5.428,0,0,1-.089,1.394,5.291,5.291,0,0,1-.278,1.374Z" transform="translate(-413.229 -300.756)" fill="#263238"/>
        <path id="Path_6938" data-name="Path 6938" d="M436.27,314.09c.055,0,.208.71.566,1.533s.774,1.429.729,1.464a3.84,3.84,0,0,1-.9-1.389A3.731,3.731,0,0,1,436.27,314.09Z" transform="translate(-409.552 -304.157)" fill="#263238"/>
        <path id="Path_6939" data-name="Path 6939" d="M427.67,315.909c.04-.035.571.6,1.3,1.28s1.389,1.186,1.359,1.23a5.457,5.457,0,0,1-1.488-1.092,5.333,5.333,0,0,1-1.176-1.419Z" transform="translate(-405.219 -305.072)" fill="#263238"/>
        <path id="Path_6940" data-name="Path 6940" d="M431,300.29c.055,0,.218.779.5,1.722s.6,1.687.546,1.712a5.556,5.556,0,0,1-.729-1.657A5.631,5.631,0,0,1,431,300.29Z" transform="translate(-406.897 -297.204)" fill="#263238"/>
        <path id="Path_6941" data-name="Path 6941" d="M440.857,295.15a5.329,5.329,0,0,1,.174,1.379,5.264,5.264,0,0,1,0,1.389,4.962,4.962,0,0,1-.179-1.379A4.9,4.9,0,0,1,440.857,295.15Z" transform="translate(-411.837 -294.614)" fill="#263238"/>
        <path id="Path_6942" data-name="Path 6942" d="M461.36,308.359a5.759,5.759,0,0,1,1.057.074,5.363,5.363,0,0,1,1.057.1,2.193,2.193,0,0,1-1.072.089A2.114,2.114,0,0,1,461.36,308.359Z" transform="translate(-422.194 -301.268)" fill="#263238"/>
        <path id="Path_6943" data-name="Path 6943" d="M460.76,301.588a7.881,7.881,0,0,1,1.454-.878,7.791,7.791,0,0,1,1.538-.71,7.88,7.88,0,0,1-1.454.878A7.792,7.792,0,0,1,460.76,301.588Z" transform="translate(-421.891 -297.058)" fill="#263238"/>
        <path id="Path_6944" data-name="Path 6944" d="M455.23,300.8a9.3,9.3,0,0,1,.8-2.55,4.784,4.784,0,0,1-.313,1.3A5.071,5.071,0,0,1,455.23,300.8Z" transform="translate(-419.105 -296.176)" fill="#263238"/>
        <g id="Group_1381" data-name="Group 1381" transform="translate(22.669 32.246)" opacity="0.3">
          <path id="Path_6945" data-name="Path 6945" d="M433.88,363.135a4.4,4.4,0,0,0-1.88-3.443,4.176,4.176,0,0,0-3.89-.263,6.043,6.043,0,0,1,3.414,1.176,9.615,9.615,0,0,1,2.357,2.53" transform="translate(-428.11 -359.063)"/>
        </g>
        <g id="Group_1382" data-name="Group 1382" transform="translate(26.921 17.008)" opacity="0.3">
          <path id="Path_6946" data-name="Path 6946" d="M442.54,330.478a3.8,3.8,0,0,0-2.679-2.089,3.617,3.617,0,0,0-3.18,1.141,5.225,5.225,0,0,1,3.116-.248,8.435,8.435,0,0,1,2.744,1.2" transform="translate(-436.68 -328.349)"/>
        </g>
        <g id="Group_1383" data-name="Group 1383" transform="translate(33.986 4.833)" opacity="0.3">
          <path id="Path_6947" data-name="Path 6947" d="M452.587,307.9a3.012,3.012,0,0,0,.184-2.6,2.55,2.55,0,0,0-1.851-1.488,7.829,7.829,0,0,1,1.642,4.138" transform="translate(-450.92 -303.81)"/>
        </g>
        <path id="Path_6948" data-name="Path 6948" d="M415.73,362.62a4.753,4.753,0,0,0-.382.407,7.445,7.445,0,0,0-.838,1.27,13.664,13.664,0,0,0-1.221,4.823,22.087,22.087,0,0,0,.248,5c.1.635.193,1.151.263,1.488a3.918,3.918,0,0,1,.084.556,2.546,2.546,0,0,1-.164-.536c-.089-.352-.208-.863-.327-1.488a19.9,19.9,0,0,1-.308-5.041,12.787,12.787,0,0,1,1.3-4.877,6.219,6.219,0,0,1,.918-1.23,1.488,1.488,0,0,1,.427-.372Z" transform="translate(-397.849 -328.609)" fill="#263238"/>
        <path id="Path_6949" data-name="Path 6949" d="M415.747,389.794H414.2l-4.207.045-13.867.03-13.7-.025.065-.069v5.5c0-.283,0-.675-.025-1.176,0-1.037-.025-2.51-.045-4.326v-.065h.069l13.7-.03,13.867.03,4.2.03h1.444A.4.4,0,0,1,415.747,389.794Z" transform="translate(-382.42 -342.243)" fill="#263238"/>
      </g>
      <g id="freepik--Character--inject-221" transform="translate(18.34 75.222)">
        <path id="Path_6950" data-name="Path 6950" d="M71.09,408.17l-2.53,21.454h3.885L79.4,408.17Z" transform="translate(-47.129 -274.181)" fill="#e0e0e0"/>
        <path id="Path_6951" data-name="Path 6951" d="M99.685,391.61,97.16,413.064h3.885L108,391.61Z" transform="translate(-61.539 -265.838)" fill="#e0e0e0"/>
        <path id="Path_6952" data-name="Path 6952" d="M198.9,408.17l2.759,21.454h-4.232L189.84,408.17Z" transform="translate(-108.236 -274.181)" fill="#e0e0e0"/>
        <path id="Path_6953" data-name="Path 6953" d="M172.33,392.67l2.759,21.454h-4.232L163.27,392.67Z" transform="translate(-94.849 -266.372)" fill="#e0e0e0"/>
        <path id="Path_6954" data-name="Path 6954" d="M60.952,248.47s-10.618.749-17.737,4.411c-5.587,2.878-8.306,6.911-9.427,17.053s-8.226,12.22-8.41,15.693c-.179,3.389,1.558,17.862,14.041,46.852a3.632,3.632,0,0,0,3.334,2.193H86.018V247.79Z" transform="translate(-25.366 -193.374)" fill="#d5b79a"/>
        <path id="Path_6955" data-name="Path 6955" d="M154.69,248.47s10.618.749,17.737,4.411c5.587,2.878,8.306,6.911,9.427,17.053s8.226,12.22,8.41,15.693c.179,3.4-1.568,17.966-14.165,47.135a3.146,3.146,0,0,1-2.888,1.9H129.6V247.79Z" transform="translate(-77.884 -193.374)" fill="#d5b79a"/>
        <path id="Path_6956" data-name="Path 6956" d="M201.75,393.345a4.513,4.513,0,0,1,.769-.144,7.115,7.115,0,0,1,2.128.1,5.458,5.458,0,0,1,2.769,1.518,8.812,8.812,0,0,1,1.945,3.349,18.953,18.953,0,0,1,.829,3.776c.149,1.181.208,2.248.238,3.146s0,1.622,0,2.124a3.675,3.675,0,0,1-.05.774,4.806,4.806,0,0,1-.05-.774c0-.5-.045-1.226-.094-2.114s-.129-1.955-.288-3.121a20.185,20.185,0,0,0-.839-3.726,8.747,8.747,0,0,0-1.871-3.265,5.378,5.378,0,0,0-2.64-1.488,10.037,10.037,0,0,0-2.848-.154Z" transform="translate(-114.237 -266.62)" fill="#263238"/>
        <path id="Path_6957" data-name="Path 6957" d="M137.6,368.509c0,.074-16.065.129-35.872.129s-35.877-.055-35.877-.129,16.06-.129,35.877-.129S137.6,368.44,137.6,368.509Z" transform="translate(-45.764 -254.133)" fill="#263238"/>
        <path id="Path_6958" data-name="Path 6958" d="M64.819,392.253a4.845,4.845,0,0,1-.739.084,7.315,7.315,0,0,0-.853.139c-.164.03-.332.094-.5.139a3.032,3.032,0,0,0-.571.2,5.8,5.8,0,0,0-2.337,1.737,8.638,8.638,0,0,0-1.578,3.25,16.944,16.944,0,0,0-.5,3.612,27.322,27.322,0,0,0,.05,2.977c.06.853.139,1.538.2,2.014a5.9,5.9,0,0,1,.079.739,3.071,3.071,0,0,1-.179-.724c-.089-.471-.2-1.156-.278-2.014a23.318,23.318,0,0,1-.109-3.012,16.294,16.294,0,0,1,.5-3.672,8.633,8.633,0,0,1,1.608-3.334,5.86,5.86,0,0,1,2.481-1.761,3.1,3.1,0,0,1,.59-.184,4.845,4.845,0,0,1,.536-.124c.337-.04.63-.1.873-.1A3.6,3.6,0,0,1,64.819,392.253Z" transform="translate(-41.557 -266.144)" fill="#263238"/>
        <path id="Path_6959" data-name="Path 6959" d="M48.877,355a.579.579,0,0,1-.05-.114c-.035-.094-.079-.208-.129-.347-.114-.308-.278-.759-.451-1.354-.372-1.181-.843-2.907-1.4-5.046s-1.211-4.694-1.935-7.517-1.548-5.954-2.525-9.159a42.331,42.331,0,0,0-1.637-4.629,9.431,9.431,0,0,0-.5-1.062c-.169-.342-.357-.68-.551-.992-.382-.665-.749-1.315-1.126-1.935a9.884,9.884,0,0,0-2.684-3.061,7.814,7.814,0,0,0-3.314-1.245,9.1,9.1,0,0,0-5.066.729,11.275,11.275,0,0,0-1.647.968.815.815,0,0,1,.089-.084l.293-.233a7.131,7.131,0,0,1,1.221-.739,9.06,9.06,0,0,1,5.135-.824,7.993,7.993,0,0,1,3.409,1.25,9.923,9.923,0,0,1,2.764,3.116c.392.62.759,1.275,1.141,1.935.194.327.387.665.561,1.022a10.156,10.156,0,0,1,.5,1.077,48.293,48.293,0,0,1,1.647,4.649c.992,3.235,1.791,6.346,2.511,9.179s1.354,5.344,1.89,7.512.992,3.875,1.325,5.061c.164.6.308,1.057.4,1.364l.109.357A.467.467,0,0,1,48.877,355Z" transform="translate(-25.615 -228.886)" fill="#263238"/>
        <path id="Path_6960" data-name="Path 6960" d="M124.835,349.288h-25.2L86.9,349.263l-7.07-.04c-1.221,0-2.456,0-3.7.065a6.352,6.352,0,0,0-.908.1,6.13,6.13,0,0,0-.843.392c-.556.3-1.1.63-1.637.992-1.082.69-2.148,1.439-3.19,2.238a28.59,28.59,0,0,0-3.012,2.595,6.539,6.539,0,0,0-1.211,1.568,1.364,1.364,0,0,0-.119.442,2.922,2.922,0,0,0,.094.471l.243.992c.327,1.335.68,2.674,1.032,4.029s.734,2.714,1.106,4.088c.2.685.392,1.369.59,2.059.1.342.208.685.327.992,0,.045.03.06.04.094s0,.035,0,.035h0s.164.025.253.03c.174,0,.357.03.536.04,2.883.139,5.82.164,8.787.213,11.878.139,23.2.154,33.49.129,5.145,0,10.037-.045,14.612-.1,2.287-.035,4.5-.069,6.619-.149.531,0,1.057-.045,1.568-.084l.387-.035a.368.368,0,0,0,.179-.03.183.183,0,0,0,.119-.069,2.094,2.094,0,0,0,.352-.63,24.847,24.847,0,0,0,.848-2.823c.5-1.885.863-3.7,1.221-5.413.089-.432.179-.853.263-1.27a4.858,4.858,0,0,0,.174-1.216,4.227,4.227,0,0,0-1.082-2.054,22.467,22.467,0,0,0-3.17-2.888c-1.042-.819-2.019-1.528-2.9-2.173a17.366,17.366,0,0,0-2.372-1.632,8.391,8.391,0,0,0-1.985-.7,8.479,8.479,0,0,0-1.285-.184h0a7.361,7.361,0,0,1,1.295.159,8.119,8.119,0,0,1,1.985.69,16.04,16.04,0,0,1,2.4,1.617c.883.64,1.866,1.345,2.917,2.153a22.823,22.823,0,0,1,3.2,2.893,4.4,4.4,0,0,1,1.126,2.133,4.828,4.828,0,0,1-.169,1.26c-.084.422-.174.844-.258,1.27-.357,1.722-.734,3.538-1.206,5.428a25.134,25.134,0,0,1-.868,2.868,2.263,2.263,0,0,1-.4.7.367.367,0,0,1-.208.119,1.388,1.388,0,0,1-.2.035l-.392.04c-.521.04-1.047.065-1.578.084-2.128.084-4.336.124-6.629.164-4.575.069-9.467.109-14.612.129-10.3.035-21.612.03-33.5-.109-2.977-.05-5.9-.074-8.8-.213a2.53,2.53,0,0,1-.546-.04l-.283-.04a.646.646,0,0,1-.124-.05c-.03-.025-.03-.055-.05-.079a.823.823,0,0,1-.069-.154c-.129-.347-.233-.69-.332-1.032-.2-.69-.4-1.379-.59-2.064l-1.106-4.093c-.357-1.355-.7-2.7-1.032-4.034L65,358.169a2.644,2.644,0,0,1-.1-.536,1.488,1.488,0,0,1,.144-.541,6.713,6.713,0,0,1,1.255-1.637,30.052,30.052,0,0,1,3.041-2.615c1.052-.8,2.119-1.548,3.21-2.243.546-.347,1.092-.68,1.657-.992a6.459,6.459,0,0,1,.878-.407,5.609,5.609,0,0,1,.992-.109C77.353,349,78.594,349,79.834,349l7.09.06,12.731.055,18.442.1,5.011.04h1.3Z" transform="translate(-45.285 -244.369)" fill="#263238"/>
        <path id="Path_6961" data-name="Path 6961" d="M207.31,355.388a.466.466,0,0,1,.025-.124c.03-.094.06-.213.1-.352.089-.313.233-.769.372-1.364.318-1.186.69-2.922,1.131-5.076s.948-4.723,1.513-7.571,1.226-5.954,2.084-9.223a38.663,38.663,0,0,1,1.518-4.669c.164-.367.352-.714.526-1.067a10.935,10.935,0,0,1,.6-.992,20.8,20.8,0,0,1,1.295-1.831,11.977,11.977,0,0,1,3.056-2.8,8.484,8.484,0,0,1,3.4-1.2,9.075,9.075,0,0,1,5.105.829,8.236,8.236,0,0,1,1.216.739l.288.228c.06.055.094.084.089.089a11.44,11.44,0,0,0-1.637-.992,9.174,9.174,0,0,0-5.036-.739,8.434,8.434,0,0,0-3.319,1.2,11.872,11.872,0,0,0-2.977,2.764,20.709,20.709,0,0,0-1.275,1.816c-.2.323-.412.645-.585.992s-.352.685-.5,1.042a39.284,39.284,0,0,0-1.488,4.634c-.853,3.24-1.488,6.366-2.1,9.209s-1.1,5.408-1.568,7.556-.868,3.885-1.211,5.066c-.159.6-.318,1.047-.422,1.354-.055.139-.094.253-.129.347a.581.581,0,0,1-.079.129Z" transform="translate(-117.038 -229.279)" fill="#263238"/>
        <path id="Path_6962" data-name="Path 6962" d="M199.133,263.62c.069,0-2.193,9.586-5.056,21.374s-5.239,21.335-5.309,21.31,2.193-9.586,5.056-21.374S199.064,263.605,199.133,263.62Z" transform="translate(-107.695 -201.35)" fill="#263238"/>
        <path id="Path_6963" data-name="Path 6963" d="M66.48,269.76a2.321,2.321,0,0,1,.144.4c.084.283.2.66.352,1.141.308,1.022.734,2.456,1.26,4.217,1.047,3.567,2.481,8.5,3.969,13.972s2.823,10.419,3.756,14.031c.451,1.786.819,3.235,1.082,4.267.114.5.208.878.278,1.166a2.437,2.437,0,0,1,.079.412,2.417,2.417,0,0,1-.129-.4c-.084-.283-.189-.665-.327-1.151-.283-1.027-.675-2.481-1.161-4.242-.992-3.607-2.337-8.549-3.825-14.011l-3.895-13.992-1.176-4.237c-.129-.5-.233-.873-.313-1.156A2.666,2.666,0,0,1,66.48,269.76Z" transform="translate(-46.081 -204.444)" fill="#263238"/>
        <path id="Path_6964" data-name="Path 6964" d="M105.549,145.823a3.041,3.041,0,0,1,2.8-2.769,3.1,3.1,0,0,1,1.295-4.143,4.078,4.078,0,0,1,4.51.714,3.126,3.126,0,0,1,5.8,1.722,2.554,2.554,0,0,1,3.061,2.019,3.677,3.677,0,0,1-1.632,3.557,1.622,1.622,0,0,1,.055,2.257,3.746,3.746,0,0,1-2.243,1.057l-5.229,1.553a5,5,0,0,1-4.138.541,2.87,2.87,0,0,1-1.8-3.443A3.046,3.046,0,0,1,105.549,145.823Z" transform="translate(-65.766 -138.115)" fill="#263238"/>
        <path id="Path_6965" data-name="Path 6965" d="M105.64,149.515a.992.992,0,0,1,.184-.174,2.109,2.109,0,0,1,.66-.332,2.431,2.431,0,0,1,1.171-.05,2.252,2.252,0,0,1,1.345.794l-.154.05a3.1,3.1,0,0,1,.824-1.9,3.969,3.969,0,0,1,2.1-1.211,4.644,4.644,0,0,1,2.684.3,6.753,6.753,0,0,1,2.382,1.692,3.265,3.265,0,0,1,.734,1.245,1.667,1.667,0,0,1-.213,1.4,1.29,1.29,0,0,1-.541.5,1.047,1.047,0,0,1-.714.06,1.335,1.335,0,0,1-.923-.948,1.553,1.553,0,0,1,.233-1.23,2.034,2.034,0,0,1,.908-.749,3.592,3.592,0,0,1,2.044-.169,4.639,4.639,0,0,1,2.565,1.409,3.864,3.864,0,0,1,.5.64.993.993,0,0,1,.124.248,8.342,8.342,0,0,0-.68-.819,4.709,4.709,0,0,0-2.525-1.3,3.473,3.473,0,0,0-1.93.184,1.781,1.781,0,0,0-.8.675,1.34,1.34,0,0,0-.2,1.052,1.111,1.111,0,0,0,.754.769.918.918,0,0,0,.992-.437,1.409,1.409,0,0,0,.174-1.2,3.041,3.041,0,0,0-.68-1.141,5.411,5.411,0,0,0-4.828-1.935,3.766,3.766,0,0,0-1.985,1.116,2.942,2.942,0,0,0-.8,1.771v.228l-.139-.179a2.109,2.109,0,0,0-1.235-.769,2.391,2.391,0,0,0-1.116,0A2.977,2.977,0,0,0,105.64,149.515Z" transform="translate(-65.812 -142.397)" fill="#455a64"/>
        <path id="Path_6966" data-name="Path 6966" d="M107.76,154.069a.377.377,0,0,1-.055.129,1.052,1.052,0,0,1-.268.313,1.4,1.4,0,0,1-.605.278,1.29,1.29,0,0,1-.893-.154l-.5-.293.536.164.566.169.7.213-.734-.055a1.419,1.419,0,0,1-.888-2.416l.169.139a3.061,3.061,0,0,1-5.418-.9,2.883,2.883,0,0,1,.213-2.411,1.543,1.543,0,0,1,2.089-.61l-.144.193a2.173,2.173,0,0,1-.729-1.488,2.386,2.386,0,0,1,.332-1.464,1.91,1.91,0,0,1,1.042-.829,2.247,2.247,0,0,1,1.136-.065,2.282,2.282,0,0,1,1.354.8,1.355,1.355,0,0,1,.263.5,2.424,2.424,0,0,0-.323-.447,2.253,2.253,0,0,0-1.325-.7,2.139,2.139,0,0,0-1.047.084,1.771,1.771,0,0,0-.933.769,2.247,2.247,0,0,0-.283,1.34,1.985,1.985,0,0,0,.665,1.32l-.144.189a1.3,1.3,0,0,0-1.741.546,2.649,2.649,0,0,0-.179,2.193,2.843,2.843,0,0,0,2.411,1.985,2.878,2.878,0,0,0,2.58-1.141l.164.139a1.25,1.25,0,0,0-.253,1.379,1.27,1.27,0,0,0,.992.719l-.035.159-.561-.189.064-.129a1.126,1.126,0,0,0,.794.164,1.355,1.355,0,0,0,.581-.223,2.093,2.093,0,0,0,.4-.362Z" transform="translate(-63.075 -141.554)" fill="#263238"/>
        <path id="Path_6967" data-name="Path 6967" d="M139.544,148.317a6.05,6.05,0,0,0,.442-.65,3.061,3.061,0,0,0,.308-2.039,2.868,2.868,0,0,0-2.9-2.238.938.938,0,0,0-.754.322.407.407,0,0,0,.139.65,1.23,1.23,0,0,0,.9-.069,2.421,2.421,0,0,0,1.354-1.3,1.985,1.985,0,0,0-.129-1.717,2.917,2.917,0,0,0-2.555-1.464,3.1,3.1,0,0,0-1.945.7c-.387.322-.536.571-.556.551s0-.064.1-.179a2.663,2.663,0,0,1,.392-.447,3.081,3.081,0,0,1,2.009-.814,3.18,3.18,0,0,1,1.488.332,2.932,2.932,0,0,1,1.28,1.2,2.2,2.2,0,0,1,.154,1.93,2.63,2.63,0,0,1-1.488,1.439,1.488,1.488,0,0,1-1.1.069.64.64,0,0,1-.382-.466.749.749,0,0,1,.139-.566,1.186,1.186,0,0,1,.948-.427,3.061,3.061,0,0,1,3.091,2.451,3.017,3.017,0,0,1-.4,2.124,2.614,2.614,0,0,1-.362.471.875.875,0,0,1-.174.134Z" transform="translate(-80.024 -138.877)" fill="#263238"/>
        <path id="Path_6968" data-name="Path 6968" d="M113.453,161.712c.59-1.126,2.213-1.27,3.384-.769a2.3,2.3,0,0,1,3.572-2.188c.278.189.556.452.893.427s.6-.347.848-.59a2.332,2.332,0,1,1,2.977,3.567l-.159-.62a13.222,13.222,0,0,1-7.164,3.473,5.036,5.036,0,0,1-3.3-.417A2.309,2.309,0,0,1,113.453,161.712Z" transform="translate(-69.65 -148.091)" fill="#410b5f"/>
        <path id="Path_6969" data-name="Path 6969" d="M106.842,173.132a4.2,4.2,0,0,1,.189-4.852,4.024,4.024,0,0,1,1.6-1.181,5.081,5.081,0,0,1,1.151-2.922,3.084,3.084,0,0,1,4.183-.5,3.8,3.8,0,0,1,5.215-1.6,4.052,4.052,0,0,1,6.058.213,2.813,2.813,0,0,1,4.361,2.764,3.071,3.071,0,0,1,3.369,4.128,2.267,2.267,0,0,1,1.345,3.969,3.225,3.225,0,0,1-.685,4.649,2.684,2.684,0,0,1-1.791,3.091l-18.76,5.577a4.047,4.047,0,0,1-4.133-4.178,2.888,2.888,0,0,1-1.583-4.093,3.23,3.23,0,0,1-.5-5.105Z" transform="translate(-65.912 -149.557)" fill="#263238"/>
        <path id="Path_6970" data-name="Path 6970" d="M120.363,174.523l11.506-2.535c3.672-.278,5.954,4.3,6.1,7.973a65.473,65.473,0,0,1-.427,12.111c-1.151,6.073-5.865,6.708-5.865,6.708s0,.089-.1,1.905l-.084,2.977a5.11,5.11,0,0,1-1.221,3.255c-1.811,2.044-4.862,2.124-8.345.556-2.019-.908-1.9-2.054-2.143-4.872l-1.637-26.643A3.185,3.185,0,0,1,120.363,174.523Z" transform="translate(-72.11 -155.176)" fill="#f5c2a5"/>
        <path id="Path_6971" data-name="Path 6971" d="M151.668,198.409a.784.784,0,0,1-.784.769.739.739,0,0,1-.784-.729.784.784,0,0,1,.779-.769.754.754,0,0,1,.789.729Z" transform="translate(-88.213 -168.126)" fill="#263238"/>
        <path id="Path_6972" data-name="Path 6972" d="M152.05,193.467c-.1.1-.685-.357-1.528-.377s-1.488.382-1.563.273.06-.228.337-.417a2.158,2.158,0,0,1,1.255-.347,2.059,2.059,0,0,1,1.211.432C152.016,193.239,152.1,193.422,152.05,193.467Z" transform="translate(-87.628 -165.566)" fill="#263238"/>
        <path id="Path_6973" data-name="Path 6973" d="M136.878,197.923a.784.784,0,0,1-.779.769.754.754,0,0,1-.789-.729.789.789,0,0,1,.779-.774.749.749,0,0,1,.789.734Z" transform="translate(-80.761 -167.879)" fill="#263238"/>
        <path id="Path_6974" data-name="Path 6974" d="M135.949,193.467c-.1.1-.68-.357-1.523-.377s-1.488.382-1.568.273.06-.228.337-.417a2.168,2.168,0,0,1,1.255-.347,2.059,2.059,0,0,1,1.211.432C135.894,193.239,136,193.422,135.949,193.467Z" transform="translate(-79.514 -165.566)" fill="#263238"/>
        <path id="Path_6975" data-name="Path 6975" d="M143.727,198.605a5.542,5.542,0,0,1,1.379-.208c.218,0,.422-.05.461-.2a1.1,1.1,0,0,0-.124-.645c-.189-.526-.382-1.082-.59-1.657a27.6,27.6,0,0,1-1.3-4.336,28.094,28.094,0,0,1,1.652,4.217c.193.585.382,1.141.561,1.672a1.25,1.25,0,0,1,.089.848.551.551,0,0,1-.367.308,1.721,1.721,0,0,1-.367.04A5.457,5.457,0,0,1,143.727,198.605Z" transform="translate(-84.907 -165.043)" fill="#263238"/>
        <path id="Path_6976" data-name="Path 6976" d="M137.212,223.536a15.525,15.525,0,0,1-8.132-2.426s1.9,4.341,8.043,3.969Z" transform="translate(-77.622 -179.932)" fill="#a36d64"/>
        <path id="Path_6977" data-name="Path 6977" d="M137.972,208.619A1.216,1.216,0,0,1,139,208.1a1.578,1.578,0,0,1,1.429.759.953.953,0,0,1,.045.714c-.055.124,0,.064-.109.144a2.818,2.818,0,0,1-1.161.675,1.206,1.206,0,0,1-1.25-.5A1.23,1.23,0,0,1,137.972,208.619Z" transform="translate(-82.009 -173.375)" fill="#8d250a"/>
        <path id="Path_6978" data-name="Path 6978" d="M138.4,206.84c.139,0,.119.913.888,1.583s1.746.59,1.751.719-.223.174-.635.174a2.287,2.287,0,0,1-1.488-.546,1.985,1.985,0,0,1-.685-1.325C138.23,207.058,138.334,206.835,138.4,206.84Z" transform="translate(-82.232 -172.742)" fill="#263238"/>
        <path id="Path_6979" data-name="Path 6979" d="M135.456,186.333c-.074.233-.923.149-1.91.3s-1.781.437-1.92.238c-.06-.1.074-.318.392-.551a3.255,3.255,0,0,1,1.409-.541,3.294,3.294,0,0,1,1.488.134C135.3,186.051,135.491,186.224,135.456,186.333Z" transform="translate(-78.898 -162.114)" fill="#263238"/>
        <path id="Path_6980" data-name="Path 6980" d="M151.62,187.3c-.174.184-.814-.05-1.593-.1s-1.449.05-1.593-.159c-.06-.1.055-.288.352-.452a2.421,2.421,0,0,1,1.315-.243,2.382,2.382,0,0,1,1.255.456C151.62,187,151.684,187.207,151.62,187.3Z" transform="translate(-87.366 -162.406)" fill="#263238"/>
        <path id="Path_6981" data-name="Path 6981" d="M146,170.64a1.241,1.241,0,0,1,0,.134h0Z" transform="translate(-86.147 -154.503)" fill="#263238"/>
        <path id="Path_6982" data-name="Path 6982" d="M117.81,198.182a.794.794,0,0,0-.63-.829c-.992-.213-2.739-.213-2.912,2.272-.243,3.438,3.26,2.977,3.275,2.873S117.731,199.5,117.81,198.182Z" transform="translate(-70.153 -167.919)" fill="#f5c2a5"/>
        <path id="Path_6983" data-name="Path 6983" d="M117.539,202.208a1.572,1.572,0,0,1-.169.074.6.6,0,0,1-.451,0,1.488,1.488,0,0,1-.59-1.379,1.94,1.94,0,0,1,.228-.848.69.69,0,0,1,.5-.427.308.308,0,0,1,.342.189c.04.1,0,.169.03.174s.079-.055.06-.2a.4.4,0,0,0-.119-.223.447.447,0,0,0-.322-.109.848.848,0,0,0-.665.5,2.019,2.019,0,0,0-.278.948,1.6,1.6,0,0,0,.774,1.548.635.635,0,0,0,.551-.055A.487.487,0,0,0,117.539,202.208Z" transform="translate(-71.082 -169.023)" fill="#6f4439"/>
        <path id="Path_6984" data-name="Path 6984" d="M145.176,181.014a2.138,2.138,0,0,1-2.133-2.575,2.228,2.228,0,0,1-2.193-2.823,2.769,2.769,0,0,1-3.915-1.861.794.794,0,0,1-.432.665,1.488,1.488,0,0,1-.814.144,2.59,2.59,0,0,1-2.138-1.488,2.327,2.327,0,0,1-2.838.913c-.367-.159-.719-.5-.66-.893a1.042,1.042,0,0,1,.179-.392,6.348,6.348,0,0,1,4.833-2.62,13.713,13.713,0,0,1,5.577.9,7.358,7.358,0,0,1,2.917,1.578,8.072,8.072,0,0,1,1.7,3.141,13.891,13.891,0,0,1,.739,2.511,4.56,4.56,0,0,1-.263,2.575h-.238" transform="translate(-78.109 -154.215)" fill="#263238"/>
        <path id="Path_6985" data-name="Path 6985" d="M122.255,173.456a3.24,3.24,0,0,1-2.664,3.076,1.6,1.6,0,0,1-.883,3.071,3.88,3.88,0,0,1,.4,1.563,1.34,1.34,0,0,1-.834,1.27,1.528,1.528,0,0,1,.392,1.354,1.27,1.27,0,0,1-1.25.992c-.5,0-.918-.625-1.419-.719a2.431,2.431,0,0,0-2.109.64l-.63-6.415.774-5.145,3.007-2.193,5.785,1.017Z" transform="translate(-69.651 -154.659)" fill="#263238"/>
        <path id="Path_6986" data-name="Path 6986" d="M112,174.894a4.509,4.509,0,0,0,.61-.069,1.667,1.667,0,0,0,1.146-.992l.144-.382.055.407a1.985,1.985,0,0,0,.739,1.26,1.836,1.836,0,0,0,1.627.322,1.915,1.915,0,0,0,.953-.576l.114-.129.089.144a2.694,2.694,0,0,0,1.315,1.052,2.65,2.65,0,0,0,1.359.124,4.163,4.163,0,0,0,1.176-.452,1.009,1.009,0,0,1-.258.233,2.57,2.57,0,0,1-.888.377,2.664,2.664,0,0,1-1.459-.074,2.833,2.833,0,0,1-1.459-1.126h.2a2.173,2.173,0,0,1-1.077.665,2.074,2.074,0,0,1-1.851-.387,2.158,2.158,0,0,1-.789-1.424l.2.025a1.746,1.746,0,0,1-1.315,1.052,1.022,1.022,0,0,1-.635-.05Z" transform="translate(-69.016 -155.918)" fill="#455a64"/>
        <path id="Path_6987" data-name="Path 6987" d="M127.5,162.782a11.936,11.936,0,0,0-1.275.695,2.679,2.679,0,0,0-.943,1.186,1.647,1.647,0,0,0,.268,1.7,1.255,1.255,0,0,0,.5.347l.154.055-.089.139a1.612,1.612,0,0,0,0,1.523,2.947,2.947,0,0,0,.843.992,10.539,10.539,0,0,1,.992.734c-.035.04-.119-.03-.313-.129a5.2,5.2,0,0,1-.8-.5,2.828,2.828,0,0,1-.943-1.052,1.821,1.821,0,0,1,0-1.761l.065.193a1.528,1.528,0,0,1-.605-.417,1.851,1.851,0,0,1-.3-1.985,2.719,2.719,0,0,1,1.057-1.25,3.969,3.969,0,0,1,.992-.461A2.012,2.012,0,0,1,127.5,162.782Z" transform="translate(-75.511 -150.54)" fill="#455a64"/>
        <path id="Path_6988" data-name="Path 6988" d="M163.821,199.056a.478.478,0,0,1-.119.064,1.671,1.671,0,0,1-.382.089,1.985,1.985,0,0,1-1.369-.407,1.945,1.945,0,0,1,.089-3.056,1.22,1.22,0,0,1,.68-.238.868.868,0,0,1,.69.332.744.744,0,0,1,.045.769,1.26,1.26,0,0,1-.5.521,1.811,1.811,0,0,1-1.285.169,2.178,2.178,0,0,1-1.583-1.384,2.8,2.8,0,0,1-.129-1.419,1.225,1.225,0,0,1,.154-.5s-.03.184-.055.5a2.932,2.932,0,0,0,.2,1.345,2.163,2.163,0,0,0,.531.754,2.049,2.049,0,0,0,.933.466,1.6,1.6,0,0,0,1.106-.154c.327-.179.6-.62.372-.918a.605.605,0,0,0-.5-.228.938.938,0,0,0-.536.189,1.682,1.682,0,0,0-.64.923,1.712,1.712,0,0,0,.521,1.786,1.92,1.92,0,0,0,1.25.442C163.642,199.105,163.816,199.031,163.821,199.056Z" transform="translate(-93.162 -166.272)" fill="#263238"/>
        <path id="Path_6989" data-name="Path 6989" d="M108.208,189.844a1.265,1.265,0,0,1-.447.238,3.766,3.766,0,0,1-1.354.233,5.483,5.483,0,0,1-2.014-.372,1.553,1.553,0,0,1-.878-.9.992.992,0,0,1,0-.7.933.933,0,0,1,.531-.5.7.7,0,0,1,.452,0l-.089.238a2.094,2.094,0,0,1-1.126-2.054,1.8,1.8,0,0,1,.4-.992,2.059,2.059,0,0,1,2.014-.685.933.933,0,0,1,.432.2,2.86,2.86,0,0,0-.452-.1,1.985,1.985,0,0,0-1.186.193,1.682,1.682,0,0,0-.992,1.4,1.88,1.88,0,0,0,.992,1.8l-.094.238a.5.5,0,0,0-.293,0,.7.7,0,0,0-.382.362.764.764,0,0,0,0,.526,1.31,1.31,0,0,0,.739.759,5.457,5.457,0,0,0,1.915.407A5.12,5.12,0,0,0,108.208,189.844Z" transform="translate(-64.619 -161.387)" fill="#263238"/>
        <path id="Path_6990" data-name="Path 6990" d="M160.88,274.363c.154.233,5.691,7.671,5.691,7.671l6.7-6.222-4.292-10.8-2.585-4.4Z" transform="translate(-93.645 -199.834)" fill="#f5c2a5"/>
        <g id="Group_1384" data-name="Group 1384" transform="translate(35.576 107.583)" opacity="0.3">
          <path id="Path_6991" data-name="Path 6991" d="M106.929,388.664l-2.793-.055-.992-24.287-6.073-2.58L108.1,354.95l29.417,20.8,5.874,12.915Z" transform="translate(-97.07 -354.95)" fill="#e6c09a"/>
        </g>
        <path id="Path_6992" data-name="Path 6992" d="M156,400.825l5.19,9.834,7.71-4.292-3.389-10.717Z" transform="translate(-91.186 -267.873)" fill="#f5c2a5"/>
        <path id="Path_6993" data-name="Path 6993" d="M164.7,418.262s7.938.243,8.1-4.872l.427,1.032,11.838,7.78c1.88,1.34,1.732,2.873,1.235,3.662a1.8,1.8,0,0,1-1.746.829c-3.681-.466-17.221-2.262-17.9-3.354l-.7-.953c-1.131-1.335-1.488-2.977-1.121-3.572Z" transform="translate(-95.559 -276.811)" fill="#263238"/>
        <g id="Group_1385" data-name="Group 1385" transform="translate(70.381 145.574)" opacity="0.6">
          <path id="Path_6994" data-name="Path 6994" d="M187.369,435.261,167.22,431.52l.442.6c.422.695.893.739,1.488.933,1.821.561,6.376,1.459,16.611,2.813a1.8,1.8,0,0,0,1.588-.6Z" transform="translate(-167.22 -431.52)" fill="#fff"/>
        </g>
        <g id="Group_1386" data-name="Group 1386" transform="translate(70.788 143.013)" opacity="0.6">
          <path id="Path_6995" data-name="Path 6995" d="M169.042,426.36a1.087,1.087,0,0,1,1.087.963,1.047,1.047,0,0,1-.948,1.087,1.146,1.146,0,0,1-1.141-1.032,1.087,1.087,0,0,1,1.106-1.017" transform="translate(-168.04 -426.36)" fill="#fff"/>
        </g>
        <path id="Path_6996" data-name="Path 6996" d="M188.622,425.928a5.583,5.583,0,0,1,.427-2.014,6.291,6.291,0,0,1,1.394-1.513c-.045-.1-.273,0-.64.179a2.863,2.863,0,0,0-1.4,2.724C188.448,425.714,188.577,425.943,188.622,425.928Z" transform="translate(-107.504 -281.331)" fill="#fff"/>
        <path id="Path_6997" data-name="Path 6997" d="M193.33,428.453a14.56,14.56,0,0,1,.8-1.533c.571-.749,1.29-1.092,1.25-1.2s-.918.1-1.558.963A2.048,2.048,0,0,0,193.33,428.453Z" transform="translate(-109.965 -283.014)" fill="#fff"/>
        <path id="Path_6998" data-name="Path 6998" d="M183.692,423.711a14.986,14.986,0,0,1,.933-2.124,22.553,22.553,0,0,1,1.488-1.766,3.269,3.269,0,0,0-1.786,1.593A3.494,3.494,0,0,0,183.692,423.711Z" transform="translate(-105.119 -280.047)" fill="#fff"/>
        <path id="Path_6999" data-name="Path 6999" d="M180.374,417.64a2.253,2.253,0,0,0-.471-.466,4.61,4.61,0,0,0-1.627-.8,2.059,2.059,0,0,0-1.315-.03.729.729,0,0,0-.442.7,1.181,1.181,0,0,0,.392.744,2.535,2.535,0,0,0,3.24,0,2.937,2.937,0,0,0,.853-3.165,1.022,1.022,0,0,0-.59-.62.71.71,0,0,0-.779.288,2.481,2.481,0,0,0-.352,1.255,5.08,5.08,0,0,0,.179,1.806,1.563,1.563,0,0,0,.273.605,8.087,8.087,0,0,1-.164-2.391,2.322,2.322,0,0,1,.332-1.087.382.382,0,0,1,.422-.159.7.7,0,0,1,.362.432,2.63,2.63,0,0,1-.769,2.739,2.208,2.208,0,0,1-2.749.055.853.853,0,0,1-.293-.5.382.382,0,0,1,.233-.392,1.811,1.811,0,0,1,1.111,0A7,7,0,0,1,180.374,417.64Z" transform="translate(-101.524 -277.108)" fill="#fff"/>
        <path id="Path_7000" data-name="Path 7000" d="M122.31,432.12c.04,0,.094,12.121.094,12.121s8.4,1.315,8.4,1.1,2.481-11.794,2.481-11.794Z" transform="translate(-74.211 -286.249)" fill="#f5c2a5"/>
        <path id="Path_7001" data-name="Path 7001" d="M125.548,452s-6.108,4.6-9.1.451l-.114,1.106-5.5,13.059c-.819,2.163.159,3.354.992,3.731a1.8,1.8,0,0,0,1.915-.283c2.793-2.441,13.034-11.476,12.994-12.761l.055-1.186c.193-1.737-.412-3.3-1.057-3.587Z" transform="translate(-68.275 -296.265)" fill="#263238"/>
        <g id="Group_1387" data-name="Group 1387" transform="translate(43.891 159.843)" opacity="0.6">
          <path id="Path_7002" data-name="Path 7002" d="M113.83,474.614l14.646-14.334-.035.744a2.073,2.073,0,0,1-.734,1.612c-1.2,1.488-4.465,4.768-12.225,11.59a1.791,1.791,0,0,1-1.652.387Z" transform="translate(-113.83 -460.28)" fill="#fff"/>
        </g>
        <g id="Group_1388" data-name="Group 1388" transform="translate(55.455 158.37)" opacity="0.6">
          <path id="Path_7003" data-name="Path 7003" d="M137.625,457.444a1.087,1.087,0,0,0-.367,1.4,1.047,1.047,0,0,0,1.389.377,1.146,1.146,0,0,0,.377-1.488,1.087,1.087,0,0,0-1.488-.228" transform="translate(-137.137 -457.311)" fill="#fff"/>
        </g>
        <path id="Path_7004" data-name="Path 7004" d="M120.753,468.528a5.3,5.3,0,0,0-1.488-1.439,7.43,7.43,0,0,0-1.985-.5c0-.124.213-.169.625-.208a2.878,2.878,0,0,1,2.689,1.488C120.783,468.256,120.8,468.514,120.753,468.528Z" transform="translate(-71.677 -303.51)" fill="#fff"/>
        <path id="Path_7005" data-name="Path 7005" d="M118.22,473.26c-.084.069-.62-.526-1.488-.829s-1.682-.189-1.7-.3a1.945,1.945,0,0,1,1.826-.064C117.868,472.431,118.314,473.215,118.22,473.26Z" transform="translate(-70.543 -306.292)" fill="#fff"/>
        <path id="Path_7006" data-name="Path 7006" d="M123.222,464.292a15.333,15.333,0,0,0-1.985-1.245,20.01,20.01,0,0,0-2.228-.63,3.323,3.323,0,0,1,2.367.327A3.694,3.694,0,0,1,123.222,464.292Z" transform="translate(-72.548 -301.467)" fill="#fff"/>
        <path id="Path_7007" data-name="Path 7007" d="M121.228,458.047a1.6,1.6,0,0,1,.129-.655,4.649,4.649,0,0,1,.9-1.573,2.074,2.074,0,0,1,1.077-.754.724.724,0,0,1,.759.342,1.166,1.166,0,0,1,.089.833,2.545,2.545,0,0,1-2.7,1.791,2.977,2.977,0,0,1-2.481-2.158,1.027,1.027,0,0,1,.144-.839.709.709,0,0,1,.809-.2,2.535,2.535,0,0,1,.992.843,5.076,5.076,0,0,1,.858,1.6,1.489,1.489,0,0,1,.124.65,7.992,7.992,0,0,0-1.191-2.079,2.366,2.366,0,0,0-.883-.714.377.377,0,0,0-.442.1.7.7,0,0,0-.065.556,2.63,2.63,0,0,0,2.168,1.846,2.213,2.213,0,0,0,2.317-1.488.888.888,0,0,0-.04-.585.392.392,0,0,0-.417-.194,1.835,1.835,0,0,0-.923.62A6.846,6.846,0,0,0,121.228,458.047Z" transform="translate(-72.529 -297.668)" fill="#fff"/>
        <path id="Path_7008" data-name="Path 7008" d="M100.15,234.749l10.474-4.029s2.64,4.56,7.293,4.163c4.758-.407,4.6-3.88,4.6-3.88l13.163,3.736s.868,17.8,0,20.575a30.921,30.921,0,0,1-3.334,6.4s2.6,6.048,2.669,7.715-.665,1.25-.665,1.25l-31.754.382Z" transform="translate(-63.046 -184.774)" fill="#d16800"/>
        <g id="Group_1389" data-name="Group 1389" transform="translate(39.391 68.027)" opacity="0.3">
          <path id="Path_7009" data-name="Path 7009" d="M130.406,275.41c-.407-.367-1.047-.124-1.533.139-2.734,1.488-5.458,2.977-8.072,4.674-3.28,2.158-6.3,4.674-9.511,6.946q-2.838,1.985-5.85,3.726l-.68,1.186a3.86,3.86,0,0,0,3.592,1.6,8.568,8.568,0,0,0,3.815-1.488c5.393-3.414,9.189-8.931,14.577-12.349,1.335-.843,2.818-1.612,3.627-2.977C130.644,276.413,130.793,275.763,130.406,275.41Z" transform="translate(-104.76 -275.223)"/>
        </g>
        <path id="Path_7010" data-name="Path 7010" d="M149.886,292.464a8.57,8.57,0,0,1-1.31.069c-.8,0-1.92.06-3.146.149s-2.337.223-3.136.322a7.2,7.2,0,0,1-1.3.124,5.84,5.84,0,0,1,1.275-.308,32.053,32.053,0,0,1,6.311-.471,5.658,5.658,0,0,1,1.31.114Z" transform="translate(-83.623 -215.821)" fill="#263238"/>
        <path id="Path_7011" data-name="Path 7011" d="M90.54,277.443s2.932,8.276,4.232,10.384,1.856,4.828,6.018,3.721,6.276-3.83,10.816-7.556,7.487-6.549,7.487-6.549l-3.205-3.88-13.277,6.053-3.165-6.946Z" transform="translate(-58.204 -205.91)" fill="#f5c2a5"/>
        <path id="Path_7012" data-name="Path 7012" d="M154.606,257.25l-9.124,4.837L138,266.816s3.706,3.285,4.753,3.205a5.639,5.639,0,0,0,2.481-1.528,1.087,1.087,0,0,0,.615.59c.456.159.992-.377.992-.377a3.209,3.209,0,0,0,.992.213c.456,0,.992-1.746,1.255-2.9a2.049,2.049,0,0,0-.184-1.712l.357-.2.5.878-.779,2.783c-.412,1.528,1.067,1.32,1.067,1.32a16.042,16.042,0,0,0,1.786-4.426,3.13,3.13,0,0,0-1.434-2.63s3.374-2.9,4.2-3.473S154.606,257.25,154.606,257.25Z" transform="translate(-82.117 -198.141)" fill="#f5c2a5"/>
        <path id="Path_7013" data-name="Path 7013" d="M112.272,292.733a2.481,2.481,0,0,1-.3-.918,6.053,6.053,0,0,1,.953-4.465,2.312,2.312,0,0,1,.645-.709,9.139,9.139,0,0,0-1.3,2.9A9.328,9.328,0,0,0,112.272,292.733Z" transform="translate(-68.956 -212.949)" fill="#6f4439"/>
        <path id="Path_7014" data-name="Path 7014" d="M93.965,238.42a10.591,10.591,0,0,0-7,7.938c-.675,3.667.958,15.669.958,15.669l11.337-4.217Z" transform="translate(-56.32 -188.653)" fill="#d16800"/>
        <path id="Path_7015" data-name="Path 7015" d="M105.08,255a12.323,12.323,0,0,1,.447,1.667c.268,1.106.605,2.506.992,4.054s.754,3.007,1.042,4.034a15.905,15.905,0,0,1,.447,1.662,1.707,1.707,0,0,1-.2-.417c-.114-.278-.258-.69-.427-1.2-.332-1.017-.724-2.441-1.111-4.024s-.695-3.027-.9-4.073A10.629,10.629,0,0,1,105.08,255Z" transform="translate(-65.53 -197.007)" fill="#263238"/>
        <path id="Path_7016" data-name="Path 7016" d="M98.325,311.814S90.834,320.61,91,327.69a26.643,26.643,0,0,0,3.344,12.215l9.923.585s.878-4.738,4.431-4.738c.769,0,13.719,24.808,13.719,24.808l12.687-5.8s-8.32-21.91-10.365-27.07-3.969-7.636-6.683-8.37l-3.036-7.69Z" transform="translate(-58.433 -225.54)" fill="#263238"/>
        <path id="Path_7017" data-name="Path 7017" d="M102.467,328.733c0,.045-.466-.084-1.221-.144a7.363,7.363,0,0,0-2.888.347,6.341,6.341,0,0,0-2.481,1.488c-.531.531-.779.938-.819.908s.035-.114.144-.3a4.387,4.387,0,0,1,.541-.739,5.919,5.919,0,0,1,2.52-1.627,6.683,6.683,0,0,1,2.977-.278A3.25,3.25,0,0,1,102.467,328.733Z" transform="translate(-60.475 -233.955)" fill="#455a64"/>
        <path id="Path_7018" data-name="Path 7018" d="M134.332,318.507a44.966,44.966,0,0,1,0-6.807,44.966,44.966,0,0,1,0,6.807Z" transform="translate(-80.195 -225.575)" fill="#455a64"/>
        <path id="Path_7019" data-name="Path 7019" d="M108.073,311.649a1.181,1.181,0,0,1-.129.4,6.164,6.164,0,0,1-.551.992,7.527,7.527,0,0,1-6.42,3.364,6.381,6.381,0,0,1-1.131-.114,1.2,1.2,0,0,1-.4-.119c0-.045.59.074,1.533.055a7.938,7.938,0,0,0,6.271-3.289C107.805,312.175,108.033,311.63,108.073,311.649Z" transform="translate(-62.688 -225.55)" fill="#455a64"/>
        <path id="Path_7020" data-name="Path 7020" d="M142.844,311.26a20.5,20.5,0,0,1,5.115,10.211c1.027,6.147,1.092,14.165-.66,17.132l-5.011,1.126-4.411,4.465-6.261,34.016-14.18-1.95s-1.33-29.551-.873-32.364.546-3.582.546-3.582a11.2,11.2,0,0,1,3.031-7.983,82.764,82.764,0,0,1,8.137-6.847l-.437-14.031Z" transform="translate(-71.268 -225.354)" fill="#263238"/>
        <path id="Path_7021" data-name="Path 7021" d="M165.027,316.193a1.984,1.984,0,0,1-.466.194,7.44,7.44,0,0,1-1.335.3,7.531,7.531,0,0,1-4.426-.714,5.844,5.844,0,0,1-1.072-.739c-.318-.268-.615-.536-.893-.8a18.2,18.2,0,0,1-1.369-1.488c-.372-.442-.655-.814-.848-1.067a1.807,1.807,0,0,1-.278-.417,16.372,16.372,0,0,1,1.26,1.359c.387.427.848.923,1.4,1.439a10.038,10.038,0,0,0,1.925,1.488,7.8,7.8,0,0,0,4.282.764C164.337,316.4,165.012,316.139,165.027,316.193Z" transform="translate(-90.349 -225.454)" fill="#455a64"/>
        <path id="Path_7022" data-name="Path 7022" d="M111.507,347.337a2.571,2.571,0,0,1,.074-.5,3.548,3.548,0,0,1,.139-.581,4.5,4.5,0,0,1,.288-.779,4.827,4.827,0,0,1,1.409-1.831,5.626,5.626,0,0,1,2.917-1.181h.04v.04c2.937,5.458,7.666,14.24,13.4,24.808l-.159-.05,12.682-5.81-.064.164c-.65-1.652-1.335-3.4-2.034-5.18l-6.842-17.45c-1.062-2.719-2.084-5.324-3.046-7.795a7.938,7.938,0,0,0-2.079-3.151,7.229,7.229,0,0,0-3.091-1.7h0a25.883,25.883,0,0,0-8.375-.992,26.454,26.454,0,0,0-6.336,1.047,27.627,27.627,0,0,0-3.82,1.449c-.422.2-.739.372-.953.5l-.332.159s.1-.069.318-.184.5-.293.943-.5a25.193,25.193,0,0,1,3.815-1.488,26.177,26.177,0,0,1,14.8-.139h0a7.442,7.442,0,0,1,3.2,1.742,8.186,8.186,0,0,1,2.143,3.225c.992,2.481,1.985,5.076,3.066,7.79,2.133,5.458,4.441,11.322,6.852,17.46.695,1.776,1.384,3.528,2.029,5.18l.045.114-.109.05-12.692,5.8-.1.045-.05-.1c-5.661-10.608-10.36-19.419-13.272-24.882l.06.035a5.532,5.532,0,0,0-2.858,1.131,4.808,4.808,0,0,0-1.414,1.781,4.357,4.357,0,0,0-.3.764,3.151,3.151,0,0,0-.154.576C111.547,347.178,111.507,347.337,111.507,347.337Z" transform="translate(-65.651 -232.376)" fill="#455a64"/>
        <path id="Path_7023" data-name="Path 7023" d="M164.518,330.945c-.03.045-.576-.342-1.553-.759a10.8,10.8,0,0,0-1.771-.571,11.761,11.761,0,0,0-2.262-.258,11.483,11.483,0,0,0-2.262.233,9.964,9.964,0,0,0-1.776.546c-.992.407-1.533.784-1.563.739a1.986,1.986,0,0,1,.372-.288,4.683,4.683,0,0,1,.466-.288c.189-.1.4-.228.65-.332a9.4,9.4,0,0,1,1.8-.61,9.953,9.953,0,0,1,4.629.03,9.223,9.223,0,0,1,1.791.655,6.368,6.368,0,0,1,.645.342,3.886,3.886,0,0,1,.466.293A2.183,2.183,0,0,1,164.518,330.945Z" transform="translate(-89.84 -234.342)" fill="#455a64"/>
        <g id="Group_1390" data-name="Group 1390" transform="translate(50.684 110.173)" opacity="0.3">
          <path id="Path_7024" data-name="Path 7024" d="M127.52,360.17s3.756,16.041,7.849,20.531,5.19,5.433,5.19,5.433l.283-1.106Z" transform="translate(-127.52 -360.17)"/>
        </g>
        <path id="Path_7025" data-name="Path 7025" d="M172.15,292.42a9.517,9.517,0,0,1,1.632-3.915,27.531,27.531,0,0,1,3.473-3.1h.625l1.647-3.7,4.629-.223s-.992,9.02-3.215,11.764-4.5,2.6-5.458,2.322S172.15,292.42,172.15,292.42Z" transform="translate(-99.323 -210.354)" fill="#f5c2a5"/>
        <path id="Path_7026" data-name="Path 7026" d="M152.325,232.005l-3.657,18.025a1.608,1.608,0,0,0,1.573,1.92h25.135a1.608,1.608,0,0,0,1.563-1.255l4.039-18.025a1.6,1.6,0,0,0-1.563-1.95H153.893A1.593,1.593,0,0,0,152.325,232.005Z" transform="translate(-87.477 -184.774)" fill="#263238"/>
        <path id="Path_7027" data-name="Path 7027" d="M152.219,231.918a.854.854,0,0,1,.055-.248,1.593,1.593,0,0,1,.4-.625,1.642,1.642,0,0,1,1.111-.452h1.637l10.459-.045H179.23a1.741,1.741,0,0,1,1.732,1.216,2.128,2.128,0,0,1-.05,1.146c-.079.357-.159.719-.243,1.087-.159.729-.327,1.488-.5,2.213-.332,1.488-.675,3.012-1.017,4.56l-2.148,9.6a2.6,2.6,0,0,1-.189.63,1.623,1.623,0,0,1-.407.541,1.762,1.762,0,0,1-1.235.447H150.418a2.129,2.129,0,0,1-.992-.154,1.687,1.687,0,0,1-.744-.66,1.637,1.637,0,0,1-.253-.943,8.114,8.114,0,0,1,.159-.913l.7-3.394c.888-4.317,1.613-7.814,2.114-10.241.253-1.2.452-2.133.59-2.783.069-.308.119-.546.159-.719a1.887,1.887,0,0,1,.064-.243,1.186,1.186,0,0,1-.04.248c-.04.164-.074.417-.134.724-.124.65-.308,1.588-.541,2.793-.5,2.431-1.176,5.954-2.034,10.255-.218,1.082-.447,2.218-.68,3.4a7.255,7.255,0,0,0-.154.878,1.488,1.488,0,0,0,.878,1.4,1.875,1.875,0,0,0,.9.134h24.768a1.488,1.488,0,0,0,1.067-.382,1.419,1.419,0,0,0,.342-.456,2.787,2.787,0,0,0,.169-.576c.739-3.285,1.459-6.495,2.153-9.6.347-1.548.69-3.071,1.022-4.56.169-.744.337-1.488.5-2.213.079-.362.164-.724.243-1.087a1.826,1.826,0,0,0,.05-1.027,1.488,1.488,0,0,0-1.488-1.092H165.888l-10.459-.04h-1.637a1.573,1.573,0,0,0-1.077.412A1.7,1.7,0,0,0,152.219,231.918Z" transform="translate(-87.37 -184.687)" fill="#455a64"/>
        <path id="Path_7028" data-name="Path 7028" d="M179.292,249.757s3.031,5.16,3.344,5.845,1.221,1.737,1.28,2.387a52.249,52.249,0,0,1,.719,5.711,10.092,10.092,0,0,1-.8,3.007l-4.168-1.037a6.7,6.7,0,0,1-1.553-2.124,4.828,4.828,0,0,0-1.6-2.158,19.223,19.223,0,0,1-2.873-2.2.992.992,0,0,1,0-1.017s-.992-.466-1.131-.992,0-1.345,1.1-.843,5.125,3.379,5.532,3.066-.094-1.072-.094-1.072-4.282-3.9-4.5-4.589.407-1.657,1.4-.814,4.287,4.158,4.629,4.158-.03-.967-.03-.967-1.687-3.627-1.985-4.594S178.449,249.256,179.292,249.757Z" transform="translate(-99.479 -194.309)" fill="#f5c2a5"/>
        <path id="Path_7029" data-name="Path 7029" d="M182.06,232.713h-.481l-1.384.025-5.086.04-16.77.04h-2.426a1.26,1.26,0,0,0-.992.332,1.156,1.156,0,0,0-.288.437c-.05.159-.084.372-.129.551-.342,1.488-.66,2.977-.958,4.351-.585,2.769-1.111,5.269-1.553,7.378s-.834,3.791-1.111,4.962c-.139.566-.253.992-.332,1.34l-.094.347a.372.372,0,0,1-.04.119.392.392,0,0,1,0-.124,2.167,2.167,0,0,1,.069-.352l.283-1.354,1.032-4.962c.427-2.109.933-4.614,1.488-7.388.288-1.389.6-2.848.943-4.356.05-.193.069-.367.139-.58a1.369,1.369,0,0,1,.347-.536,1.528,1.528,0,0,1,1.181-.407h2.426l16.77.04,5.086.04,1.384.025h.357a.431.431,0,0,1,.139.035Z" transform="translate(-88.369 -185.705)" fill="#455a64"/>
        <path id="Path_7030" data-name="Path 7030" d="M173.37,289.377a1.354,1.354,0,0,1,.129-.407,5.369,5.369,0,0,1,.581-.992,5.741,5.741,0,0,1,3.111-2.153,5.458,5.458,0,0,1,1.136-.174l-.1.06c.566-1.032.992-2.014,1.34-2.679a10.78,10.78,0,0,1,.556-1.072,4.891,4.891,0,0,1-.407,1.141c-.3.695-.695,1.657-1.275,2.749l-.03.05h-.074a5.617,5.617,0,0,0-1.082.169,5.954,5.954,0,0,0-3.031,2.019C173.628,288.827,173.415,289.422,173.37,289.377Z" transform="translate(-99.938 -210.591)" fill="#6f4439"/>
        <path id="Path_7031" data-name="Path 7031" d="M179.534,269.573a13.894,13.894,0,0,1-2.386-1.3,13.728,13.728,0,0,1-2.248-1.523,14.239,14.239,0,0,1,2.382,1.3A14.808,14.808,0,0,1,179.534,269.573Z" transform="translate(-100.708 -202.927)" fill="#6f4439"/>
        <path id="Path_7032" data-name="Path 7032" d="M185.393,240.439a.829.829,0,1,1-.5-1.131A.883.883,0,0,1,185.393,240.439Z" transform="translate(-105.198 -189.08)" fill="#e0e0e0"/>
        <path id="Path_7033" data-name="Path 7033" d="M111.548,195.758a1.414,1.414,0,0,1-.273-.5,2.977,2.977,0,0,1-.119-1.558,2.893,2.893,0,0,1,1.295-1.905,3.066,3.066,0,0,1,1.315-.466,1.984,1.984,0,0,1,.759.04.794.794,0,0,1,.6.58.585.585,0,0,1-.089.447.878.878,0,0,1-.323.283,1.24,1.24,0,0,1-.774.109,1.439,1.439,0,0,1-.992-2.153,1.7,1.7,0,0,1,.789-.754,1.856,1.856,0,0,1,1.553.124,1.126,1.126,0,0,1,.437.372,2.5,2.5,0,0,0-.5-.283,1.781,1.781,0,0,0-1.434-.045,1.488,1.488,0,0,0-.7.68,1.315,1.315,0,0,0-.064,1.087,1.275,1.275,0,0,0,.933.719.992.992,0,0,0,.615-.089.442.442,0,0,0,.278-.451.556.556,0,0,0-.412-.387,1.985,1.985,0,0,0-.665-.03,2.868,2.868,0,0,0-1.211.422,2.719,2.719,0,0,0-1.245,1.742,3.141,3.141,0,0,0,.035,1.488C111.469,195.569,111.548,195.748,111.548,195.758Z" transform="translate(-68.564 -164.141)" fill="#263238"/>
      </g>
    </g>
  </svg>
  