<svg xmlns="http://www.w3.org/2000/svg" width="216.133" height="203.156" viewBox="0 0 216.133 203.156">
    <g id="Empty-pana" transform="translate(-22.926 -41.247)">
      <g id="freepik--background-complete--inject-290" transform="translate(22.926 41.247)">
        <rect id="Rectangle_664" data-name="Rectangle 664" width="49.683" height="38.32" transform="translate(68.733 161)" fill="#ebebeb"/>
        <path id="Path_7037" data-name="Path 7037" d="M244.934,416.683c-.067,0-.124-8.544-.124-19.081s.057-19.081.124-19.081.124,8.544.124,19.081S245,416.683,244.934,416.683Z" transform="translate(-138.964 -217.63)" fill="#e0e0e0"/>
        <rect id="Rectangle_665" data-name="Rectangle 665" width="3.807" height="4.308" transform="translate(110.397 190.6)" fill="#fafafa"/>
        <rect id="Rectangle_666" data-name="Rectangle 666" width="5.643" height="8.176" transform="translate(83.893 161.1)" fill="#e0e0e0"/>
        <rect id="Rectangle_667" data-name="Rectangle 667" width="5.643" height="8.176" transform="translate(83.893 191.029)" fill="#e0e0e0"/>
        <rect id="Rectangle_668" data-name="Rectangle 668" width="62.649" height="48.319" transform="translate(145.922 151.393)" fill="#ebebeb"/>
        <path id="Path_7038" data-name="Path 7038" d="M427.1,406.444c-.067,0-.124-10.767-.124-24.052s.057-24.052.124-24.052.124,10.767.124,24.052S427.176,406.444,427.1,406.444Z" transform="translate(-234.233 -207.076)" fill="#e0e0e0"/>
        <rect id="Rectangle_669" data-name="Rectangle 669" width="4.804" height="5.429" transform="translate(198.453 188.711)" fill="#fafafa"/>
        <rect id="Rectangle_670" data-name="Rectangle 670" width="7.117" height="10.309" transform="translate(165.032 151.517)" fill="#e0e0e0"/>
        <rect id="Rectangle_671" data-name="Rectangle 671" width="7.117" height="10.309" transform="translate(165.032 189.255)" fill="#e0e0e0"/>
        <path id="Path_7039" data-name="Path 7039" d="M78.132,360.222a13.439,13.439,0,0,1,8.339-1.011,6.917,6.917,0,0,1,4.117,1.837c1.03,1.135,1.221,3.134.043,4.112a3.953,3.953,0,0,1-2.6.658c-2.2-.029-4.646-.415-6.407.911-1.007.758-1.674,2.013-2.862,2.385a2.815,2.815,0,0,1-3.12-1.388,4.842,4.842,0,0,1-.353-3.582,5.462,5.462,0,0,1,2.843-3.921Z" transform="translate(-50.21 -207.408)" fill="#ebebeb"/>
        <path id="Path_7040" data-name="Path 7040" d="M67.68,312.9c1.55,2.213,4.565,1.484,5.963.129a11.241,11.241,0,0,0,2.523-5.176c1.231-4.269,2.466-8.749,1.555-13.095a7.246,7.246,0,0,0-1.674-3.559,3.816,3.816,0,0,0-3.6-1.2c-1.522.4-2.466,1.908-3.148,3.306a31.146,31.146,0,0,0-3.082,13.39,10.878,10.878,0,0,0,1.46,6.2" transform="translate(-45.567 -171.296)" fill="#ebebeb"/>
        <path id="Path_7041" data-name="Path 7041" d="M40.783,323.874a8.053,8.053,0,0,0,1.255-7.413,14.3,14.3,0,0,0-4.393-6.373,23.661,23.661,0,0,0-7.862-4.637,8.386,8.386,0,0,0-3.54-.6,3.706,3.706,0,0,0-2.967,1.794c-.83,1.579-.033,3.492.825,5.057a60.048,60.048,0,0,0,5.162,7.866c1.55,1.994,3.339,3.964,5.681,4.866s4.813.8,6.063-.84" transform="translate(-22.926 -179.097)" fill="#ebebeb"/>
        <path id="Path_7042" data-name="Path 7042" d="M69.031,385.77a4.8,4.8,0,0,0,.143-1c.072-.735.157-1.655.267-2.748a40.069,40.069,0,0,1,.615-4.026,30.821,30.821,0,0,1,1.464-4.77,17.651,17.651,0,0,1,2.428-4.293,9.168,9.168,0,0,1,3.067-2.552,8.632,8.632,0,0,1,2.586-.8,4.714,4.714,0,0,0,1-.148,4.637,4.637,0,0,0-1.016,0,7.81,7.81,0,0,0-2.7.7,9.034,9.034,0,0,0-3.239,2.576,17.015,17.015,0,0,0-2.519,4.384,29.171,29.171,0,0,0-1.431,4.832A34.992,34.992,0,0,0,69.165,382c-.086,1.169-.119,2.113-.134,2.767A4.771,4.771,0,0,0,69.031,385.77Z" transform="translate(-47.024 -210.769)" fill="#e0e0e0"/>
        <path id="Path_7043" data-name="Path 7043" d="M69.235,353.888a2.028,2.028,0,0,0,.029-.477v-1.336c0-1.159,0-2.838.057-4.909.1-4.141.477-8.587,1.15-14.879.654-5.91,1.527-12.784,2.452-17.254.2-1.016.4-1.932.587-2.733s.329-1.5.477-2.056.229-.954.315-1.3a1.956,1.956,0,0,0,.081-.477,1.908,1.908,0,0,0-.162.439c-.1.339-.234.759-.391,1.278s-.348,1.245-.549,2.042-.429,1.713-.644,2.729a151.221,151.221,0,0,0-2.581,16.009c-.687,6.3-1,12.031-1.026,16.181,0,2.075,0,3.759.072,4.918.033.539.062.983.081,1.331a2.056,2.056,0,0,0,.052.491Z" transform="translate(-47.037 -180.996)" fill="#e0e0e0"/>
        <path id="Path_7044" data-name="Path 7044" d="M53.311,346.565a8.969,8.969,0,0,0,0-1.4c-.052-.9-.176-2.19-.429-3.778a49.718,49.718,0,0,0-1.25-5.5,45.473,45.473,0,0,0-2.3-6.516,34.641,34.641,0,0,0-6.76-10.523,16.731,16.731,0,0,0-1.593-1.479c-.243-.21-.477-.415-.677-.577l-.592-.425a8.46,8.46,0,0,0-1.178-.754,41.944,41.944,0,0,1,3.85,3.435,36.54,36.54,0,0,1,6.593,10.495,50.632,50.632,0,0,1,2.314,6.454q.787,2.69,1.3,5.448c.286,1.569.477,2.862.553,3.74A8.758,8.758,0,0,0,53.311,346.565Z" transform="translate(-31.084 -184.73)" fill="#e0e0e0"/>
        <path id="Path_7045" data-name="Path 7045" d="M45.56,417.86l1.107,15.184H66.173l1.107-15.184Z" transform="translate(-34.763 -238.203)" fill="#ebebeb"/>
        <rect id="Rectangle_672" data-name="Rectangle 672" width="25.927" height="5.982" transform="translate(8.913 173.675)" fill="#ebebeb"/>
        <path id="Path_7046" data-name="Path 7046" d="M41.61,448.47v1.655h25.5V448.47Z" transform="translate(-32.697 -254.211)" fill="#e0e0e0"/>
        <path id="Path_7047" data-name="Path 7047" d="M45.363,454.479,44.17,451.56H67.521l-1.393,2.919Z" transform="translate(-34.036 -255.827)" fill="#e0e0e0"/>
        <path id="Path_7048" data-name="Path 7048" d="M67.278,425.933a.7.7,0,0,1-.091.143c-.076.1-.177.229-.291.386l-1.135,1.431-.052.067-.048-.067-2.791-3.859h.157l-2.748,3.888-.086.124-.1-.115-3.258-3.878h.186l-.176.229-2.915,3.649-.1.124-.086-.129L51,424.039h.162l-3.387,3.854-.057.072-.048-.081-1.059-1.755c-.114-.191-.2-.348-.272-.477a.74.74,0,0,1-.086-.172.733.733,0,0,1,.114.153l.3.453,1.111,1.751h-.1l3.339-3.9.081-.1.076.1,2.776,3.873h-.181l2.905-3.659c.062-.076.124-.153.177-.224l.1-.119.1.115,3.249,3.888H60.1l2.776-3.869.081-.114.076.114c1.1,1.57,2.037,2.9,2.733,3.9h-.1l1.183-1.431c.129-.148.234-.267.315-.367A1.082,1.082,0,0,1,67.278,425.933Z" transform="translate(-35.124 -241.315)" fill="#f5f5f5"/>
        <path id="Path_7049" data-name="Path 7049" d="M67.729,417.519c0,.067-4.89.124-10.915.124s-10.915-.057-10.915-.124,4.885-.119,10.915-.119S67.729,417.452,67.729,417.519Z" transform="translate(-34.941 -237.962)" fill="#f5f5f5"/>
        <rect id="Rectangle_673" data-name="Rectangle 673" width="3.998" height="19.892" transform="matrix(1, -0.005, 0.005, 1, 165.587, 7.442)" fill="#e0e0e0"/>
        <rect id="Rectangle_674" data-name="Rectangle 674" width="10.352" height="10.981" transform="matrix(1, -0.005, 0.005, 1, 130.955, 7.529)" fill="#ebebeb"/>
        <rect id="Rectangle_675" data-name="Rectangle 675" width="10.352" height="10.981" transform="matrix(1, -0.005, 0.005, 1, 141.258, 7.473)" fill="#f5f5f5"/>
        <path id="Path_7050" data-name="Path 7050" d="M297.389,63.039q10.323.086,20.656-.1a.11.11,0,1,0,0-.219c-6.879-.038-13.777,0-20.656.129a.1.1,0,0,0,0,.186Z" transform="translate(-166.422 -52.472)" fill="#e0e0e0"/>
        <rect id="Rectangle_676" data-name="Rectangle 676" width="18.809" height="8.949" transform="matrix(1, -0.005, 0.005, 1, 124.502, 18.373)" fill="#ebebeb"/>
        <rect id="Rectangle_677" data-name="Rectangle 677" width="18.809" height="8.949" transform="matrix(1, -0.005, 0.005, 1, 143.22, 18.272)" fill="#f5f5f5"/>
        <path id="Path_7051" data-name="Path 7051" d="M283.835,84.516c12.494.138,25.03,0,37.528-.186a.11.11,0,0,0,0-.219c-12.493-.067-25.035-.062-37.528.215a.1.1,0,0,0,0,.191Z" transform="translate(-159.323 -63.645)" fill="#e0e0e0"/>
        <rect id="Rectangle_678" data-name="Rectangle 678" width="72.872" height="3.206" transform="translate(117.476 27.331)" fill="#e0e0e0"/>
        <rect id="Rectangle_679" data-name="Rectangle 679" width="2.958" height="10.938" transform="translate(129.407 28.871)" fill="#e0e0e0"/>
        <rect id="Rectangle_680" data-name="Rectangle 680" width="2.958" height="10.938" transform="translate(173.566 28.871)" fill="#e0e0e0"/>
        <rect id="Rectangle_681" data-name="Rectangle 681" width="3.998" height="27.358" transform="matrix(1, -0.005, 0.005, 1, 169.487, 0.022)" fill="#ebebeb"/>
        <rect id="Rectangle_682" data-name="Rectangle 682" width="6.211" height="22.173" transform="matrix(1, -0.005, 0.005, 1, 173.517, 5.128)" fill="#f5f5f5"/>
        <path id="Path_7052" data-name="Path 7052" d="M392.8,60.785a44.006,44.006,0,0,1-6.2,0,46,46,0,0,1,6.2,0Z" transform="translate(-213.115 -51.41)" fill="#e0e0e0"/>
        <path id="Path_7053" data-name="Path 7053" d="M392.791,58.88a46,46,0,0,1-6.211,0,44.007,44.007,0,0,1,6.2,0Z" transform="translate(-213.105 -50.411)" fill="#e0e0e0"/>
        <path id="Path_7054" data-name="Path 7054" d="M392.8,91.315a44.006,44.006,0,0,1-6.2,0,46,46,0,0,1,6.2,0Z" transform="translate(-213.115 -67.376)" fill="#e0e0e0"/>
        <path id="Path_7055" data-name="Path 7055" d="M392.8,89.36a46,46,0,0,1-6.2,0,44.006,44.006,0,0,1,6.2,0Z" transform="translate(-213.115 -66.351)" fill="#e0e0e0"/>
        <path id="Path_7056" data-name="Path 7056" d="M393.185,74.264c-.057,0-.1-2.237-.1-4.995s.048-5,.1-5,.11,2.237.11,5S393.247,74.264,393.185,74.264Z" transform="translate(-216.504 -53.287)" fill="#e0e0e0"/>
        <rect id="Rectangle_683" data-name="Rectangle 683" width="6.76" height="16.734" transform="translate(179.758 10.549)" fill="#ebebeb"/>
        <circle id="Ellipse_17" data-name="Ellipse 17" cx="1.15" cy="1.15" r="1.15" transform="translate(170.274 3.531)" fill="#e0e0e0"/>
        <rect id="Rectangle_684" data-name="Rectangle 684" width="0.711" height="16.276" transform="translate(171.071 7.844)" fill="#e0e0e0"/>
      </g>
      <g id="freepik--Floor--inject-290" transform="translate(28.848 240.572)">
        <path id="Path_7057" data-name="Path 7057" d="M240.14,459.214c0,.072-45.852.124-102.4.124s-102.4-.052-102.4-.124,45.843-.124,102.4-.124S240.14,459.147,240.14,459.214Z" transform="translate(-35.34 -459.09)" fill="#263238"/>
      </g>
      <g id="freepik--Character--inject-290" transform="translate(42.237 62.405)">
        <path id="Path_7058" data-name="Path 7058" d="M141.135,92.35a15.265,15.265,0,0,1,3.444,9.76c-.024,2.013-.4,4.231.778,5.868.887,1.24,2.509,1.865,3.23,3.21.868,1.617.129,3.664.663,5.419.754,2.49,3.673,3.535,5.4,5.476a6.927,6.927,0,0,1,1.431,6.335,7.117,7.117,0,0,1-4.475,4.732,4.637,4.637,0,0,1-3.54-.057,6.088,6.088,0,0,1-2.481-2.948c-1.15-2.3-11.248-14.726-11.821-17.235" transform="translate(-100.205 -89.13)" fill="#263238"/>
        <path id="Path_7059" data-name="Path 7059" d="M112.523,86.1c-4.131-.668-8.11,2.075-9.841,5.882s-1.789,8.11-1.908,12.307-.425,8.548-2.557,12.145c-1.355,2.285-3.454,4.293-3.783,6.922-.3,2.357.925,4.732.52,7.074-.353,2.042-1.908,3.816-1.846,5.882.076,2.49,2.638,4.365,5.123,4.432s4.813-1.236,6.764-2.781a26,26,0,0,0,7.427-9.44" transform="translate(-78.939 -85.809)" fill="#263238"/>
        <path id="Path_7060" data-name="Path 7060" d="M119.494,97.215a7.819,7.819,0,0,1,7.031-8.754,7.972,7.972,0,0,1,8.5,6.845,82.05,82.05,0,0,1,1,8.625c-.052,4.012-2.385,5.572-3.339,6.044a5.374,5.374,0,0,1-1.059.262h0v.029l.887,4.608c.405,3.02-1.278,5.724-4.293,6.149s-5.386-1.879-5.848-4.9Z" transform="translate(-92.708 -87.079)" fill="#ffbe9d"/>
        <path id="Path_7061" data-name="Path 7061" d="M147.624,105.954c-.067.1-.6-.186-1.274-.086s-1.131.51-1.216.439,0-.191.21-.382a1.755,1.755,0,0,1,.954-.477,1.67,1.67,0,0,1,1.03.172C147.567,105.773,147.657,105.916,147.624,105.954Z" transform="translate(-106.131 -95.97)" fill="#263238"/>
        <path id="Path_7062" data-name="Path 7062" d="M134.964,109.037c-.067.1-.6-.191-1.278-.091s-1.126.515-1.212.444,0-.2.21-.382a1.756,1.756,0,0,1,.954-.477,1.708,1.708,0,0,1,1.03.177C134.9,108.856,135,108.994,134.964,109.037Z" transform="translate(-99.51 -97.583)" fill="#263238"/>
        <path id="Path_7063" data-name="Path 7063" d="M141.665,111.084a4.48,4.48,0,0,1,1.073-.358c.172-.043.329-.1.343-.224a.892.892,0,0,0-.191-.477l-.711-1.269a22.492,22.492,0,0,1-1.655-3.287,20.118,20.118,0,0,1,1.908,3.148c.243.439.477.859.687,1.255a1.035,1.035,0,0,1,.191.668.434.434,0,0,1-.248.3,1.213,1.213,0,0,1-.291.086A4.293,4.293,0,0,1,141.665,111.084Z" transform="translate(-103.735 -95.99)" fill="#263238"/>
        <path id="Path_7064" data-name="Path 7064" d="M138.158,133.177a10.941,10.941,0,0,1-6.158-.9s1.541,3.315,6.4,2.137Z" transform="translate(-99.279 -110.012)" fill="#eb996e"/>
        <path id="Path_7065" data-name="Path 7065" d="M133.65,105.507c-.038.2-.73.205-1.512.42s-1.4.52-1.527.372c-.057-.072.029-.262.262-.477a2.729,2.729,0,0,1,2.314-.6C133.5,105.292,133.65,105.416,133.65,105.507Z" transform="translate(-98.544 -95.833)" fill="#263238"/>
        <path id="Path_7066" data-name="Path 7066" d="M146.665,102.776c-.1.172-.587.081-1.15.153s-1.026.258-1.159.11c-.057-.072,0-.234.181-.41a1.584,1.584,0,0,1,.9-.391,1.627,1.627,0,0,1,.954.177C146.618,102.542,146.708,102.69,146.665,102.776Z" transform="translate(-105.73 -94.295)" fill="#263238"/>
        <path id="Path_7067" data-name="Path 7067" d="M134.634,110.774a.563.563,0,0,0,.644.477.544.544,0,0,0,.477-.611.568.568,0,0,0-.644-.477.539.539,0,0,0-.477.611Z" transform="translate(-100.654 -98.443)" fill="#263238"/>
        <path id="Path_7068" data-name="Path 7068" d="M147.244,108.044a.568.568,0,0,0,.644.477.544.544,0,0,0,.477-.611.568.568,0,0,0-.644-.477.539.539,0,0,0-.477.611Z" transform="translate(-107.249 -97.015)" fill="#263238"/>
        <path id="Path_7069" data-name="Path 7069" d="M143.954,119.958a.84.84,0,0,0-.992.41.873.873,0,0,0,.119,1.007.768.768,0,0,0,.992.072.954.954,0,0,0,.31-.649.916.916,0,0,0-.153-.649.52.52,0,0,0-.606-.181" transform="translate(-104.956 -103.548)" fill="#eb996e"/>
        <path id="Path_7070" data-name="Path 7070" d="M138.891,90.561a6.144,6.144,0,0,0-2.614-3.673,6.821,6.821,0,0,0-3.654-1.283,5.014,5.014,0,0,0-3.6,1.307,3.74,3.74,0,0,0-1.107,2.6l.076-.668a2.433,2.433,0,0,0,0,1.684h0c.11.291.243.587.358.878a3.769,3.769,0,0,0,1.784,1.942,2.452,2.452,0,0,0,1.193.291,1.431,1.431,0,0,0,1.083-.53,2.385,2.385,0,0,0,.258-1.708,4.079,4.079,0,0,0,1.3,1.431,1.431,1.431,0,0,0,1.794-.205,1.872,1.872,0,0,0,0-1.822,3.606,3.606,0,0,0,1.493,1.283,1.331,1.331,0,0,0,1.064.114,1.035,1.035,0,0,0,.553-.716A2.184,2.184,0,0,0,138.891,90.561Z" transform="translate(-97.106 -85.6)" fill="#263238"/>
        <path id="Path_7071" data-name="Path 7071" d="M136.778,92.5c-.043,0-.033-.568-.219-1.431a5.457,5.457,0,0,0-1.646-2.991,3.907,3.907,0,0,0-1.651-.892,3.587,3.587,0,0,0-1.536-.038,4.432,4.432,0,0,0-1.326.549,1.282,1.282,0,0,1,.291-.272,2.929,2.929,0,0,1,1-.448,3.568,3.568,0,0,1,1.627,0,4.04,4.04,0,0,1,1.765.954,5.338,5.338,0,0,1,1.655,3.144,6.9,6.9,0,0,1,.086,1.078A1.022,1.022,0,0,1,136.778,92.5Z" transform="translate(-98.443 -86.271)" fill="#455a64"/>
        <path id="Path_7072" data-name="Path 7072" d="M198.447,193.505,180.1,186.23s-9.393-12.322-9.2-12.56l-6.6,7.222,9.588,12.971,22.225,5.209,3.816-1.059C199.1,193.963,198.447,193.505,198.447,193.505Z" transform="translate(-116.176 -131.658)" fill="#ffbe9d"/>
        <path id="Path_7073" data-name="Path 7073" d="M124,140.514l-2.5-.954-10.791,1.369v1.908l-.31.038a22.1,22.1,0,0,0-6.607,2.566,11.277,11.277,0,0,0-5.247,11.482c.439,2.729,1.288,6.044,2.929,7.962,3.134,3.668,6-.863,6-.863s1.965,4.484,1.851,6.607a57.85,57.85,0,0,1-1.131,6.636.348.348,0,0,0,.281.42l22.764,4.212.11-5.567-.725-22.9-1.026-8.892S129.624,140.295,124,140.514Z" transform="translate(-81.701 -113.819)" fill="#d5b79a"/>
        <path id="Path_7074" data-name="Path 7074" d="M163.07,146.9l8.682,12.541-6.989,8.51Z" transform="translate(-115.528 -117.658)" fill="#d5b79a"/>
        <path id="Path_7075" data-name="Path 7075" d="M164.181,179.915a5.477,5.477,0,0,1-.033-.811c0-.563,0-1.3-.029-2.2a66.861,66.861,0,0,0-.52-7.237c-.358-2.814-.906-5.328-1.321-7.156l-.506-2.147a5.528,5.528,0,0,1-.162-.792,4.555,4.555,0,0,1,.258.768c.148.477.348,1.226.577,2.132a58.466,58.466,0,0,1,1.4,7.156,56.143,56.143,0,0,1,.448,7.27c0,.954-.024,1.689-.052,2.209A4.769,4.769,0,0,1,164.181,179.915Z" transform="translate(-114.764 -124.284)" fill="#263238"/>
        <path id="Path_7076" data-name="Path 7076" d="M109.722,162.156c0,.038-.658.033-1.713.086a27.736,27.736,0,0,0-4.093.529,28.363,28.363,0,0,0-3.969,1.14c-.992.367-1.589.639-1.608.6a1.7,1.7,0,0,1,.4-.234c.262-.143.654-.324,1.145-.53A22.221,22.221,0,0,1,108,162.07c.534,0,.954,0,1.264.029A1.508,1.508,0,0,1,109.722,162.156Z" transform="translate(-81.676 -125.591)" fill="#fafafa"/>
        <path id="Path_7077" data-name="Path 7077" d="M156.118,174.28a4.221,4.221,0,0,1-1.083.239,24.076,24.076,0,0,1-5.328.181,4.294,4.294,0,0,1-1.1-.162,6.257,6.257,0,0,1,1.107,0h2.652c1.035,0,1.97-.1,2.648-.167A6.093,6.093,0,0,1,156.118,174.28Z" transform="translate(-107.966 -131.977)" fill="#fafafa"/>
        <path id="Path_7078" data-name="Path 7078" d="M168.259,162.386a6.755,6.755,0,0,1-1.86,1.5,6.545,6.545,0,0,1-2.19.954c-.029-.067.954-.477,2.061-1.183A21.51,21.51,0,0,1,168.259,162.386Z" transform="translate(-116.123 -125.755)" fill="#fafafa"/>
        <path id="Path_7079" data-name="Path 7079" d="M159.383,150.2a9,9,0,0,1-5.443,2.29c0-.076,1.312-.277,2.819-.921S159.335,150.134,159.383,150.2Z" transform="translate(-110.753 -119.38)" fill="#fafafa"/>
        <path id="Path_7080" data-name="Path 7080" d="M152.508,194.636a2.274,2.274,0,0,1-.448.234c-.3.143-.735.32-1.288.525a23.8,23.8,0,0,1-4.432,1.126,23.4,23.4,0,0,1-4.565.253c-.587-.024-1.059-.067-1.383-.11a2.26,2.26,0,0,1-.5-.091,17.694,17.694,0,0,1,1.908.029,28.04,28.04,0,0,0,8.935-1.374C151.821,194.87,152.493,194.6,152.508,194.636Z" transform="translate(-103.406 -142.62)" fill="#fafafa"/>
        <path id="Path_7081" data-name="Path 7081" d="M142.167,208.19a1.86,1.86,0,0,1-.205.119l-.611.267c-.525.248-1.3.572-2.275.954a35.224,35.224,0,0,1-3.478,1.111,41,41,0,0,1-8.825,1.369c-1.374.052-2.609.048-3.649,0s-1.875-.124-2.452-.205l-.663-.091a.882.882,0,0,1-.229-.048.745.745,0,0,1,.234,0l.668.043c.577.048,1.431.1,2.447.124s2.271,0,3.635-.048a35.117,35.117,0,0,0,4.422-.477c1.56-.258,3.029-.568,4.355-.9s2.5-.711,3.473-1.059,1.765-.639,2.3-.859l.62-.243a1.149,1.149,0,0,1,.234-.057Z" transform="translate(-92.889 -149.711)" fill="#fafafa"/>
        <path id="Path_7082" data-name="Path 7082" d="M70.846,420.78l-2.581,11.654-4.708,8.63a1.226,1.226,0,0,0,.563,1.7h0a1.217,1.217,0,0,0,1.116-.052c2.185-1.259,10.2-5.949,10.342-6.812.167-1,3.54-12.112,3.54-12.112Z" transform="translate(-63.408 -260.888)" fill="#d16800"/>
        <g id="Group_1391" data-name="Group 1391" transform="translate(0.712 174.241)" opacity="0.6">
          <path id="Path_7083" data-name="Path 7083" d="M64.9,458.492l11.654-7.633-.124.477a1.841,1.841,0,0,1-.706,1.059c-.954.682-3.611,2.514-9.669,6.054a1.221,1.221,0,0,1-1.154.043Z" transform="translate(-64.9 -450.86)" fill="#fff"/>
        </g>
        <g id="Group_1392" data-name="Group 1392" transform="translate(10.446 169.863)" opacity="0.6">
          <path id="Path_7084" data-name="Path 7084" d="M85.761,441.724a.739.739,0,0,0-.425.892.711.711,0,0,0,.878.429.782.782,0,0,0,.448-.954.739.739,0,0,0-.954-.348" transform="translate(-85.306 -441.683)" fill="#fff"/>
        </g>
        <path id="Path_7085" data-name="Path 7085" d="M70.79,455.646a3.816,3.816,0,0,0-.8-1.15,3.706,3.706,0,0,0-1.274-.568c0-.033.167-.086.448-.057a1.908,1.908,0,0,1,.992.439,1.851,1.851,0,0,1,.6.887C70.843,455.469,70.819,455.646,70.79,455.646Z" transform="translate(-66.186 -278.189)" fill="#263238"/>
        <path id="Path_7086" data-name="Path 7086" d="M68.334,459.069c-.067.038-.348-.429-.906-.749a8.961,8.961,0,0,0-1.1-.425,1.364,1.364,0,0,1,1.231.2C68.2,458.458,68.4,459.055,68.334,459.069Z" transform="translate(-64.936 -280.263)" fill="#263238"/>
        <path id="Path_7087" data-name="Path 7087" d="M74.079,451.944a11.633,11.633,0,0,0-1.317-1.25,11.831,11.831,0,0,0-1.622-.825,2.724,2.724,0,0,1,1.775.611A2.671,2.671,0,0,1,74.079,451.944Z" transform="translate(-67.452 -276.101)" fill="#263238"/>
        <path id="Path_7088" data-name="Path 7088" d="M76.312,445.866c-.048.062-.625-.362-1.431-.6s-1.536-.2-1.541-.277a3.043,3.043,0,0,1,2.991.873Z" transform="translate(-68.602 -273.5)" fill="#263238"/>
        <path id="Path_7089" data-name="Path 7089" d="M77.915,438.715a6.032,6.032,0,0,0-1.493-.663,6.047,6.047,0,0,0-1.631,0c0-.029.148-.143.453-.234a2.667,2.667,0,0,1,2.347.477C77.833,438.524,77.934,438.7,77.915,438.715Z" transform="translate(-69.36 -269.749)" fill="#263238"/>
        <path id="Path_7090" data-name="Path 7090" d="M76.928,434.613a1.069,1.069,0,0,1,.1-.439,3.054,3.054,0,0,1,.63-1.064,1.4,1.4,0,0,1,.735-.506.506.506,0,0,1,.515.238.8.8,0,0,1,.052.572,1.732,1.732,0,0,1-1.851,1.193,2.013,2.013,0,0,1-1.665-1.488.715.715,0,0,1,.11-.572.477.477,0,0,1,.549-.129,1.741,1.741,0,0,1,.668.587,3.524,3.524,0,0,1,.568,1.1,1.1,1.1,0,0,1,.081.448,5.476,5.476,0,0,0-.8-1.431,1.613,1.613,0,0,0-.592-.477.258.258,0,0,0-.3.072.477.477,0,0,0-.048.377,1.8,1.8,0,0,0,1.45,1.25,1.5,1.5,0,0,0,1.589-.987.6.6,0,0,0,0-.4.267.267,0,0,0-.281-.134,1.254,1.254,0,0,0-.634.41,4.9,4.9,0,0,0-.873,1.379Z" transform="translate(-69.69 -266.955)" fill="#263238"/>
        <g id="Group_1393" data-name="Group 1393" transform="translate(6.565 159.892)" opacity="0.3">
          <path id="Path_7091" data-name="Path 7091" d="M77.728,422.044l-.558,2.671,8.439,1.4.706-2.333-8.286-3.005Z" transform="translate(-77.17 -420.78)"/>
        </g>
        <path id="Path_7092" data-name="Path 7092" d="M147.53,429.407l-.7,9.312s9.235,3.816,9.274,5.572l-18.127-.7.477-14.559Z" transform="translate(-102.407 -265.202)" fill="#d16800"/>
        <g id="Group_1394" data-name="Group 1394" transform="translate(38.318 172.504)" opacity="0.6">
          <path id="Path_7093" data-name="Path 7093" d="M144.285,447.229a.744.744,0,0,0-.544.825.716.716,0,0,0,.811.549.782.782,0,0,0,.572-.878.739.739,0,0,0-.906-.477" transform="translate(-143.734 -447.219)" fill="#fff"/>
        </g>
        <g id="Group_1395" data-name="Group 1395" transform="translate(35.583 176.917)" opacity="0.6">
          <path id="Path_7094" data-name="Path 7094" d="M138,457.939l.1-1.469,17.34,1.207s.8.382.682.954Z" transform="translate(-138 -456.47)" fill="#fff"/>
        </g>
        <path id="Path_7095" data-name="Path 7095" d="M155.332,449.07c0,.091-.448.114-.892.382s-.692.63-.773.592.072-.544.615-.859S155.356,448.989,155.332,449.07Z" transform="translate(-110.6 -275.635)" fill="#263238"/>
        <path id="Path_7096" data-name="Path 7096" d="M159.729,450.952c0,.091-.372.224-.687.587s-.415.754-.506.749-.124-.511.277-.954S159.729,450.857,159.729,450.952Z" transform="translate(-113.127 -276.644)" fill="#263238"/>
        <path id="Path_7097" data-name="Path 7097" d="M163.077,454.185c-.081,0-.186-.434.057-.906s.668-.654.7-.577-.229.324-.425.716S163.163,454.18,163.077,454.185Z" transform="translate(-115.483 -277.573)" fill="#263238"/>
        <path id="Path_7098" data-name="Path 7098" d="M154.9,444.3c-.038.076-.439-.062-.954-.048s-.9.157-.954.081.343-.377.954-.386S154.959,444.236,154.9,444.3Z" transform="translate(-110.256 -273.005)" fill="#263238"/>
        <g id="Group_1396" data-name="Group 1396" transform="translate(35.974 165.364)" opacity="0.3">
          <path id="Path_7099" data-name="Path 7099" d="M147.841,432.937l-.124,1.66-8.9-.429.062-1.918Z" transform="translate(-138.82 -432.25)"/>
        </g>
        <path id="Path_7100" data-name="Path 7100" d="M154.269,439.04a1.646,1.646,0,0,1-.906-.038,3.975,3.975,0,0,1-.954-.329,4.383,4.383,0,0,1-.51-.3,1.189,1.189,0,0,1-.267-.224.391.391,0,0,1,0-.477.477.477,0,0,1,.4-.186,1.353,1.353,0,0,1,.339.057,3.19,3.19,0,0,1,.553.219,3.113,3.113,0,0,1,.816.577c.405.405.534.744.506.758s-.234-.258-.649-.6a3.818,3.818,0,0,0-.792-.477,5.015,5.015,0,0,0-.515-.181c-.191-.057-.353-.062-.405,0s0,.048,0,.1a.9.9,0,0,0,.2.162,4.641,4.641,0,0,0,.477.291,4.846,4.846,0,0,0,.863.372A6.268,6.268,0,0,1,154.269,439.04Z" transform="translate(-109.503 -269.626)" fill="#263238"/>
        <path id="Path_7101" data-name="Path 7101" d="M156.77,437.873a1.5,1.5,0,0,1-.205-.887,3.2,3.2,0,0,1,.162-.987,3.423,3.423,0,0,1,.253-.539.759.759,0,0,1,.6-.439.429.429,0,0,1,.372.272,1.188,1.188,0,0,1,.076.334,1.994,1.994,0,0,1,0,.611,2.089,2.089,0,0,1-.425.921c-.372.477-.744.549-.754.52a3.957,3.957,0,0,0,.577-.649,2.061,2.061,0,0,0,.32-.84,1.908,1.908,0,0,0,0-.525c-.024-.191-.091-.353-.162-.334a.672.672,0,0,0-.329.286,3.514,3.514,0,0,0-.243.477,3.391,3.391,0,0,0-.21.9C156.736,437.524,156.817,437.873,156.77,437.873Z" transform="translate(-112.123 -268.335)" fill="#263238"/>
        <path id="Path_7102" data-name="Path 7102" d="M95.453,217.9s-2.862.129-4.77,9.918S74.23,316.926,74.23,316.926l10.547.1,19.873-75.409-1.321,77.756,10.714.821s8.038-86,8.11-91.008c.1-6.24-3.487-12.551-3.487-12.551Z" transform="translate(-69.068 -154.124)" fill="#263238"/>
        <path id="Path_7103" data-name="Path 7103" d="M143.48,217.55c.067,0-1.03,5.605-2.447,12.489s-2.619,12.455-2.686,12.441,1.026-5.605,2.442-12.489S143.427,217.536,143.48,217.55Z" transform="translate(-102.597 -154.606)" fill="#455a64"/>
        <path id="Path_7104" data-name="Path 7104" d="M151.655,220.443c0-.029.286-.115.615.176a.873.873,0,0,1,.286.673.844.844,0,0,1-.539.725.854.854,0,0,1-.9-.119.892.892,0,0,1-.281-.677c0-.439.3-.592.3-.563a1.359,1.359,0,0,0-.124.558.73.73,0,0,0,.253.506.682.682,0,0,0,1.059-.444.725.725,0,0,0-.181-.534C151.913,220.471,151.65,220.481,151.655,220.443Z" transform="translate(-109.132 -156.1)" fill="#455a64"/>
        <path id="Path_7105" data-name="Path 7105" d="M150.419,228.55c0-.029.3,0,.477.4a.811.811,0,0,1-1.512.587.83.83,0,0,1,.081-.7c.224-.358.53-.348.52-.32a.922.922,0,0,0-.367.4.706.706,0,0,0,0,.534.634.634,0,0,0,1.069.086.711.711,0,0,0,.062-.534C150.61,228.678,150.4,228.583,150.419,228.55Z" transform="translate(-108.348 -160.334)" fill="#455a64"/>
        <path id="Path_7106" data-name="Path 7106" d="M119.585,220.68a1.828,1.828,0,0,1-.124.477,7.952,7.952,0,0,1-.558,1.264,9.269,9.269,0,0,1-7.337,4.832,7.936,7.936,0,0,1-1.379,0,1.909,1.909,0,0,1-.477-.076c0-.048.72.033,1.86-.11a9.679,9.679,0,0,0,7.2-4.746C119.332,221.357,119.542,220.665,119.585,220.68Z" transform="translate(-87.622 -156.242)" fill="#455a64"/>
        <path id="Path_7107" data-name="Path 7107" d="M169.677,226.223a2.48,2.48,0,0,1-.32-.191,5.724,5.724,0,0,1-.763-.658,8.11,8.11,0,0,1-2.333-6.054,5.244,5.244,0,0,1,.129-1c.052-.234.086-.358.1-.353s-.057.52-.057,1.355a8.844,8.844,0,0,0,2.285,5.93C169.281,225.87,169.7,226.184,169.677,226.223Z" transform="translate(-117.193 -154.825)" fill="#455a64"/>
        <path id="Path_7108" data-name="Path 7108" d="M240.19,222.61c.157-.382.115-.229-2.414-1.908,0,0,3.625,2.385,3.249,1.25a4.627,4.627,0,0,0-1.178-1.092c.954.563,1.507.625,1.674.4.286-.4-1.789-1.908-2.776-2.59a23.775,23.775,0,0,0,2.834,1.741c.587.181.305-.506-.091-1.007s-3.468-3.458-4.293-4.341a.716.716,0,0,1,0-1.088,4.524,4.524,0,0,0,2.108-2.977.539.539,0,0,0-1.011-.172A6.545,6.545,0,0,1,237,212.044a4.227,4.227,0,0,1-1.25.673,10.044,10.044,0,0,1-3.659-.253l-1.76,5.968s6.387,2.986,7.6,3.568C239.417,222.705,240.081,222.9,240.19,222.61Z" transform="translate(-150.703 -150.936)" fill="#ffbe9d"/>
        <path id="Path_7109" data-name="Path 7109" d="M243.527,229.989a8.4,8.4,0,0,0,1.851,1.36,8.762,8.762,0,0,0,2.018,1.1,8.778,8.778,0,0,0-1.856-1.36A7.982,7.982,0,0,0,243.527,229.989Z" transform="translate(-157.603 -161.105)" fill="#eb996e"/>
        <path id="Path_7110" data-name="Path 7110" d="M244.788,227.544a9.773,9.773,0,0,0,1.908,1.56,10.507,10.507,0,0,0,2.07,1.312,9.794,9.794,0,0,0-1.908-1.56A10.509,10.509,0,0,0,244.788,227.544Z" transform="translate(-158.263 -159.83)" fill="#eb996e"/>
        <path id="Path_7111" data-name="Path 7111" d="M246.118,225.064a9.089,9.089,0,0,0,1.77,1.507,9.3,9.3,0,0,0,1.946,1.259,9.33,9.33,0,0,0-1.765-1.507A8.863,8.863,0,0,0,246.118,225.064Z" transform="translate(-158.958 -158.532)" fill="#eb996e"/>
        <path id="Path_7112" data-name="Path 7112" d="M104.6,151.524l4.684.258a23.529,23.529,0,0,0,1.326,3.816,78.526,78.526,0,0,0,7.423-18.843q-.157-.52-.386-1.173a4.98,4.98,0,0,1,.057-1.984c.129-.782.348-1.841.41-2.328.205-1.488.444-1.727.954-1.555.706.229-.291,4.184.286,4.269.315.043.692-1.312.806-2.423s.611-4.527.978-4.77c.539-.334,1.007.2.873,1.3s-.31,4.46.277,4.5,1.064-5.624,1.064-5.624-.091-1.231.587-1.2c1.226.052.272,6.03.167,6.6-.076.391.563.477.62.038s.353-5.672,1.6-5.629c.954.033-.739,4.923-.2,6.058s.911-3.85,1.827-3.783c.339.029.592.1-.033,2.915a64.3,64.3,0,0,1-2.19,6.612c-1.431,7.823-7.819,32.849-17.8,28.269-5.581-2.562-8.191-15.265-8.191-15.265Z" transform="translate(-82.408 -106.607)" fill="#ffbe9d"/>
        <path id="Path_7113" data-name="Path 7113" d="M145.182,138.476a.673.673,0,0,1,.048-.172c.043-.124.1-.286.167-.477.157-.453.372-1.083.654-1.908s.62-1.827.954-3.01c.172-.587.315-1.226.444-1.908.067-.343.129-.7.172-1.059a4.076,4.076,0,0,0,0-.539c0-.186-.043-.339-.191-.343s-.253.086-.358.243a2.962,2.962,0,0,0-.234.53c-.134.377-.239.778-.343,1.183s-.2.83-.324,1.259a1.961,1.961,0,0,1-.286.658.262.262,0,0,1-.129.081.215.215,0,0,1-.181-.043.615.615,0,0,1-.134-.176,1.364,1.364,0,0,1-.1-.367,11.792,11.792,0,0,1,.286-2.862c.081-.477.167-.954.229-1.431a7.256,7.256,0,0,0,.062-.735c0-.258-.033-.53-.134-.572s-.343.091-.477.291a2.92,2.92,0,0,0-.31.677,9.894,9.894,0,0,0-.367,1.526c-.091.525-.162,1.059-.224,1.6-.024.272-.052.544-.076.82l-.038.415a.606.606,0,0,1-.191.477.477.477,0,0,1-.563,0,.391.391,0,0,1-.172-.272.539.539,0,0,1,0-.153v-.1l.129-.835c.081-.563.148-1.126.2-1.7s.1-1.15.1-1.727a5.726,5.726,0,0,0-.172-1.7.568.568,0,0,0-.239-.343.286.286,0,0,0-.32.1,1.56,1.56,0,0,0-.181.925h0c-.1,1.121-.224,2.223-.386,3.306-.081.539-.172,1.078-.305,1.608-.038.129-.076.262-.124.4a.8.8,0,0,1-.272.41.286.286,0,0,1-.348-.076.572.572,0,0,1-.129-.215,1.94,1.94,0,0,1-.11-.41,15.949,15.949,0,0,1-.029-3.125,8.247,8.247,0,0,0,.081-1.464.811.811,0,0,0-.267-.544.32.32,0,0,0-.248-.038.756.756,0,0,0-.129.057c-.043.038-.038,0-.067.081a6.511,6.511,0,0,0-.377,1.331c-.1.477-.176.911-.248,1.36s-.138.887-.2,1.326-.086.868-.172,1.3a7.093,7.093,0,0,1-.334,1.231,2.383,2.383,0,0,1-.138.3c-.067.091-.1.205-.286.262a.238.238,0,0,1-.243-.1.706.706,0,0,1-.076-.176,1.908,1.908,0,0,1-.038-.315c0-.816.11-1.56.153-2.28a5.755,5.755,0,0,0,0-1.035c0-.153-.072-.334-.157-.367a.439.439,0,0,0-.386,0,1.341,1.341,0,0,0-.353.782c-.072.291-.1.587-.153.868-.2,1.126-.41,2.1-.51,2.891a3.921,3.921,0,0,0,0,1.049c.067.286.167.544.219.744s.1.343.138.477a.84.84,0,0,1,.038.157.624.624,0,0,1-.067-.148l-.162-.477c-.067-.205-.167-.434-.248-.749a3.816,3.816,0,0,1,0-1.078c.091-.806.281-1.77.477-2.9.052-.281.081-.577.143-.883a4.5,4.5,0,0,1,.129-.477.811.811,0,0,1,.3-.434.6.6,0,0,1,.563,0,.644.644,0,0,1,.3.553,5.811,5.811,0,0,1,0,1.078c-.033.725-.148,1.484-.129,2.256a1.632,1.632,0,0,0,.033.272c0,.091.067.129.057.11s.091-.076.129-.153a2.208,2.208,0,0,0,.124-.262,6.428,6.428,0,0,0,.31-1.193c.081-.415.11-.844.167-1.288s.114-.883.186-1.336.153-.906.243-1.369a6.2,6.2,0,0,1,.4-1.407.477.477,0,0,1,.167-.186.925.925,0,0,1,.2-.081.582.582,0,0,1,.477.072,1.03,1.03,0,0,1,.386.725,2.861,2.861,0,0,1,0,.782c-.024.243-.048.477-.062.744a15.2,15.2,0,0,0,.029,3.053,1.91,1.91,0,0,0,.1.353.325.325,0,0,0,.072.124h.024v0a.955.955,0,0,0,.138-.262,3.178,3.178,0,0,0,.115-.372c.129-.506.215-1.04.3-1.574.162-1.073.281-2.175.382-3.292v.024a1.842,1.842,0,0,1,.243-1.131.6.6,0,0,1,.663-.2.854.854,0,0,1,.41.525,5.982,5.982,0,0,1,.186,1.8c0,.592-.052,1.174-.1,1.751s-.124,1.145-.205,1.708c-.043.286-.086.563-.129.844-.038.177-.029.181,0,.234a.2.2,0,0,0,.224,0c.057-.043.067-.124.081-.281l.033-.415.086-.825c.057-.544.134-1.088.224-1.617a10.913,10.913,0,0,1,.382-1.569,3.48,3.48,0,0,1,.348-.739,1.064,1.064,0,0,1,.305-.315.525.525,0,0,1,.477-.072.558.558,0,0,1,.262.42,2.342,2.342,0,0,1,.024.405,6.756,6.756,0,0,1-.062.768c-.067.477-.157.983-.243,1.464a12.027,12.027,0,0,0-.3,2.762,1.232,1.232,0,0,0,.076.291.548.548,0,0,0,.062.1h0v-.033a1.908,1.908,0,0,0,.234-.558c.124-.415.224-.835.334-1.245a12.183,12.183,0,0,1,.358-1.207,2.978,2.978,0,0,1,.258-.563.911.911,0,0,1,.219-.253.4.4,0,0,1,.167-.086.6.6,0,0,1,.186,0,.367.367,0,0,1,.3.219.877.877,0,0,1,.062.315,3.758,3.758,0,0,1-.033.577c-.043.372-.114.725-.181,1.073a17.965,17.965,0,0,1-.477,1.908c-.358,1.183-.716,2.185-1.007,3s-.539,1.431-.706,1.87c-.081.2-.148.358-.2.477A1.036,1.036,0,0,1,145.182,138.476Z" transform="translate(-101.852 -106.462)" fill="#eb996e"/>
        <path id="Path_7114" data-name="Path 7114" d="M99.65,176.222c.906,3.2,2.681,8.138,4.584,13.357a.9.9,0,0,0,1.665.081l4.665-9.87s-1.126-8.11-1.03-7.819-9.627,1.049-9.627,1.049Z" transform="translate(-82.361 -130.766)" fill="#d5b79a"/>
        <path id="Path_7115" data-name="Path 7115" d="M111.534,177.56c0,.038-.582.21-1.5.563a21.224,21.224,0,0,0-3.463,1.689,21.726,21.726,0,0,0-3.1,2.29c-.739.654-1.164,1.1-1.193,1.073s.081-.134.262-.348a11.485,11.485,0,0,1,.811-.854,17.894,17.894,0,0,1,3.091-2.385,18.2,18.2,0,0,1,3.53-1.641,11.046,11.046,0,0,1,1.135-.324A1.364,1.364,0,0,1,111.534,177.56Z" transform="translate(-83.732 -133.692)" fill="#fafafa"/>
        <path id="Path_7116" data-name="Path 7116" d="M121.951,173.966a5.062,5.062,0,0,1-.782-1.021,17.439,17.439,0,0,1-1.431-2.738,17.171,17.171,0,0,1-.921-2.958,4.875,4.875,0,0,1-.167-1.269,8.814,8.814,0,0,1,.339,1.226,23.851,23.851,0,0,0,.954,2.905,24.384,24.384,0,0,0,1.364,2.743,10.017,10.017,0,0,1,.644,1.111Z" transform="translate(-92.298 -127.636)" fill="#263238"/>
        <path id="Path_7117" data-name="Path 7117" d="M124.257,90.046a10.5,10.5,0,0,0-.911,8.973c.477,1.312,1.24,2.6,1.1,4s-1.226,2.772-.844,4.145c.229.816.925,1.431,1.2,2.223a6.168,6.168,0,0,1-.167,2.939c-.382,2.5.42,5.014.615,7.532s-.477,5.472-2.729,6.569a1.963,1.963,0,0,1-2.142-.081c-.725-.644-.525-1.808-.324-2.762,1.975-9.541-4.126-18.852-2.733-28.508.224-1.546,1.088-4.169,2.2-5.247s4.2-.954,5.247.191" transform="translate(-91.493 -87.422)" fill="#263238"/>
        <path id="Path_7118" data-name="Path 7118" d="M112.39,116.952a10.074,10.074,0,0,0,.72-1.021,9.249,9.249,0,0,0,1.245-3.125,9.5,9.5,0,0,0,.148-2.318,24.557,24.557,0,0,1-.1-2.714,5.867,5.867,0,0,1,.272-1.46,8.137,8.137,0,0,1,.658-1.4c.534-.9,1.207-1.741,1.827-2.638a7.241,7.241,0,0,0,1.3-2.862,8.926,8.926,0,0,0-.167-2.924,11.12,11.12,0,0,1-.21-2.71,9.116,9.116,0,0,1,.477-2.328,8.849,8.849,0,0,1,1.689-2.972,6.2,6.2,0,0,1,.649-.663,1.279,1.279,0,0,1,.248-.205,10.432,10.432,0,0,0-.825.954,9.159,9.159,0,0,0-2.013,5.247,10.862,10.862,0,0,0,.234,2.662,9.064,9.064,0,0,1,.181,3.005,7.5,7.5,0,0,1-1.336,2.943c-.625.911-1.3,1.746-1.822,2.624a7.44,7.44,0,0,0-.639,1.355,5.529,5.529,0,0,0-.272,1.4,25.863,25.863,0,0,0,.076,2.686,9.541,9.541,0,0,1-.181,2.361,8.94,8.94,0,0,1-1.336,3.144,6.929,6.929,0,0,1-.572.735A1.528,1.528,0,0,1,112.39,116.952Z" transform="translate(-89.024 -86.651)" fill="#455a64"/>
        <path id="Path_7119" data-name="Path 7119" d="M102.91,117.637a1.751,1.751,0,0,1,.148-.32c.119-.224.272-.52.477-.892.4-.778,1-1.908,1.584-3.339a14.554,14.554,0,0,0,1.174-5.281,10.257,10.257,0,0,0-.119-1.565c-.081-.534-.205-1.073-.286-1.636a4.637,4.637,0,0,1,.038-1.755,3.139,3.139,0,0,1,.954-1.531c.9-.816,1.98-1.35,2.543-2.309a7.809,7.809,0,0,0,.844-3.058,11.955,11.955,0,0,1,.658-2.862,10.347,10.347,0,0,1,3.859-4.875,7.985,7.985,0,0,1,.873-.51,1.43,1.43,0,0,1,.324-.143,11.758,11.758,0,0,0-1.14.735,10.423,10.423,0,0,0-2.562,2.619,10.138,10.138,0,0,0-1.164,2.247,12.141,12.141,0,0,0-.62,2.862,7.967,7.967,0,0,1-.868,3.158,13.24,13.24,0,0,1-2.581,2.385,2.92,2.92,0,0,0-.9,1.431,4.418,4.418,0,0,0-.033,1.66c.076.549.2,1.092.277,1.631a9.68,9.68,0,0,1,.114,1.6,14.482,14.482,0,0,1-1.236,5.367,32,32,0,0,1-1.66,3.339l-.506.749A1.647,1.647,0,0,1,102.91,117.637Z" transform="translate(-84.066 -86.625)" fill="#455a64"/>
      </g>
      <g id="freepik--Plant--inject-290" transform="translate(205.04 147.617)">
        <path id="Path_7120" data-name="Path 7120" d="M424.948,344.825a1.123,1.123,0,0,1,.086-.2c.067-.143.157-.334.267-.577a14.1,14.1,0,0,0,.8-2.309,20.343,20.343,0,0,0-.067-8.906,48.127,48.127,0,0,0-1.655-5.987c-.7-2.123-1.512-4.374-2.175-6.812a26.414,26.414,0,0,1-1.073-7.833,30.71,30.71,0,0,1,1.822-8.291,39.88,39.88,0,0,0,2.109-8.162,12.456,12.456,0,0,0-1.5-7.537c-1.193-2.2-2.7-4.083-3.816-6.03a20.989,20.989,0,0,1-2.294-5.8,21.623,21.623,0,0,1-.148-8.978,16.539,16.539,0,0,1,.954-3.172,1.228,1.228,0,0,1-.057.21l-.191.606a24.389,24.389,0,0,0-.582,2.385,21.943,21.943,0,0,0,.234,8.916,20.752,20.752,0,0,0,2.3,5.724c1.121,1.908,2.628,3.816,3.85,6.025a12.709,12.709,0,0,1,1.541,7.694,40.056,40.056,0,0,1-2.118,8.224,30.48,30.48,0,0,0-1.813,8.21,26.059,26.059,0,0,0,1.049,7.757c.653,2.423,1.455,4.675,2.147,6.807a46.877,46.877,0,0,1,1.622,6.02,20.448,20.448,0,0,1,0,8.973,13.278,13.278,0,0,1-.854,2.3l-.3.568A.984.984,0,0,1,424.948,344.825Z" transform="translate(-411.076 -264.23)" fill="#263238"/>
        <path id="Path_7121" data-name="Path 7121" d="M425.366,293.108s-2.28-7.3,1.813-11.578a.253.253,0,0,1,.434.124C427.832,282.862,428.1,286.535,425.366,293.108Z" transform="translate(-415.171 -273.235)" fill="#d16800"/>
        <path id="Path_7122" data-name="Path 7122" d="M427.336,286.72a6.982,6.982,0,0,1-.153,1.345c-.153.93-.329,2.018-.52,3.22s-.367,2.295-.515,3.22a8.024,8.024,0,0,1-.238,1.336,5.66,5.66,0,0,1,.029-1.355c.076-.835.224-1.98.429-3.239s.429-2.385.606-3.21a5.916,5.916,0,0,1,.363-1.317Z" transform="translate(-415.773 -275.992)" fill="#263238"/>
        <path id="Path_7123" data-name="Path 7123" d="M431.68,331.7s1.4-7.523,7.017-9.383a.253.253,0,0,1,.324.315C438.649,323.789,437.175,327.161,431.68,331.7Z" transform="translate(-418.805 -294.599)" fill="#d16800"/>
        <path id="Path_7124" data-name="Path 7124" d="M437.124,326.38a7.065,7.065,0,0,1-.763,1.121l-1.97,2.6-1.956,2.609a7.629,7.629,0,0,1-.835,1.064,5.654,5.654,0,0,1,.668-1.183c.477-.7,1.126-1.646,1.908-2.662s1.493-1.908,2.032-2.557a6.145,6.145,0,0,1,.916-.992Z" transform="translate(-418.763 -296.732)" fill="#263238"/>
        <path id="Path_7125" data-name="Path 7125" d="M428.437,369.4s-.849-7.6,3.988-11.015a.248.248,0,0,1,.4.205C432.811,359.813,432.377,363.467,428.437,369.4Z" transform="translate(-417.079 -313.441)" fill="#d16800"/>
        <path id="Path_7126" data-name="Path 7126" d="M431.575,363.26a6.357,6.357,0,0,1-.405,1.293l-1.126,3.063c-.42,1.145-.8,2.18-1.116,3.063a7.837,7.837,0,0,1-.477,1.264,5.575,5.575,0,0,1,.3-1.326c.234-.8.6-1.908,1.04-3.1s.878-2.266,1.207-3.034A6.645,6.645,0,0,1,431.575,363.26Z" transform="translate(-417.116 -316.019)" fill="#263238"/>
        <path id="Path_7127" data-name="Path 7127" d="M437.348,409.348s-.572-7.633,4.379-10.867a.253.253,0,0,1,.4.219C442.066,399.927,441.5,403.566,437.348,409.348Z" transform="translate(-421.758 -334.416)" fill="#d16800"/>
        <path id="Path_7128" data-name="Path 7128" d="M440.709,403.29a6.61,6.61,0,0,1-.453,1.278c-.353.868-.773,1.908-1.236,3.02s-.868,2.147-1.221,3.02a7.42,7.42,0,0,1-.539,1.245,5.72,5.72,0,0,1,.348-1.317c.262-.792.663-1.88,1.15-3.058s.954-2.237,1.312-2.991A6.37,6.37,0,0,1,440.709,403.29Z" transform="translate(-421.723 -336.954)" fill="#263238"/>
        <path id="Path_7129" data-name="Path 7129" d="M411.6,281.785s-6.764-3.549-6.912-9.46a.258.258,0,0,1,.4-.219C406.092,272.8,408.888,275.207,411.6,281.785Z" transform="translate(-404.69 -268.328)" fill="#d16800"/>
        <path id="Path_7130" data-name="Path 7130" d="M407.64,276.87a6.554,6.554,0,0,1,.844,1.064c.553.758,1.2,1.655,1.908,2.643l1.908,2.633a7.476,7.476,0,0,1,.773,1.111,5.608,5.608,0,0,1-.93-.987c-.539-.639-1.245-1.555-1.989-2.59s-1.4-1.994-1.846-2.7A6.518,6.518,0,0,1,407.64,276.87Z" transform="translate(-406.233 -270.84)" fill="#263238"/>
        <path id="Path_7131" data-name="Path 7131" d="M426.254,315.115s-6.984-3.125-7.475-9.025a.253.253,0,0,1,.382-.239C420.205,306.485,423.139,308.708,426.254,315.115Z" transform="translate(-412.058 -285.977)" fill="#d16800"/>
        <path id="Path_7132" data-name="Path 7132" d="M422,310.47a6.476,6.476,0,0,1,.906,1.007l2.07,2.524,2.075,2.514a7.638,7.638,0,0,1,.84,1.064,5.809,5.809,0,0,1-.992-.93c-.572-.611-1.336-1.479-2.142-2.466s-1.512-1.908-2.008-2.581A6.124,6.124,0,0,1,422,310.47Z" transform="translate(-413.743 -288.412)" fill="#263238"/>
        <path id="Path_7133" data-name="Path 7133" d="M422.563,349.277s-4.77-5.963-2.543-11.449a.253.253,0,0,1,.448-.038C421.132,338.825,422.72,342.145,422.563,349.277Z" transform="translate(-412.397 -302.637)" fill="#d16800"/>
        <path id="Path_7134" data-name="Path 7134" d="M421.68,343.08a6.508,6.508,0,0,1,.353,1.312c.2.916.434,1.994.692,3.187s.5,2.266.7,3.182a7.474,7.474,0,0,1,.262,1.331,5.724,5.724,0,0,1-.477-1.278c-.234-.806-.52-1.908-.787-3.177s-.477-2.385-.611-3.206a6.2,6.2,0,0,1-.134-1.35Z" transform="translate(-413.575 -305.466)" fill="#263238"/>
        <path id="Path_7135" data-name="Path 7135" d="M427.971,394.781s-6.931-3.239-7.323-9.145a.253.253,0,0,1,.386-.238C422.061,386.051,424.956,388.326,427.971,394.781Z" transform="translate(-413.035 -327.576)" fill="#d16800"/>
        <path id="Path_7136" data-name="Path 7136" d="M423.77,390.06a7.1,7.1,0,0,1,.887,1.026l2.027,2.552,2.032,2.552a7.48,7.48,0,0,1,.821,1.078,5.619,5.619,0,0,1-.954-.954c-.568-.62-1.312-1.5-2.1-2.5s-1.479-1.932-1.965-2.614a5.834,5.834,0,0,1-.744-1.135Z" transform="translate(-414.668 -330.035)" fill="#263238"/>
        <path id="Path_7137" data-name="Path 7137" d="M450.434,342.07v.644c0,.477-.048,1.083-.081,1.856-.086,1.631-.215,3.907-.363,6.626h0a25.193,25.193,0,0,1-3.816,8.816c-1.388,2.194-2.862,4.188-4.1,6.044a42.63,42.63,0,0,0-3.043,5.1,21.418,21.418,0,0,0-1.431,3.73c-.119.453-.215.811-.267,1.054a2.219,2.219,0,0,1-.1.372,1.733,1.733,0,0,1,.048-.382c.033-.248.1-.611.215-1.073a19.491,19.491,0,0,1,1.36-3.792,40.956,40.956,0,0,1,3.039-5.138c1.25-1.87,2.7-3.869,4.079-6.049a26.489,26.489,0,0,0,3.816-8.711h0c.191-2.714.348-4.985.477-6.616.062-.773.114-1.388.153-1.851a3.633,3.633,0,0,1,.048-.477.628.628,0,0,1-.029-.157Z" transform="translate(-421.707 -304.938)" fill="#263238"/>
        <path id="Path_7138" data-name="Path 7138" d="M454.576,365.6s2.934-7.06-.754-11.692a.253.253,0,0,0-.444.086C453.05,355.181,452.444,358.811,454.576,365.6Z" transform="translate(-429.976 -311.079)" fill="#410b5f"/>
        <path id="Path_7139" data-name="Path 7139" d="M455.119,359.19a6.2,6.2,0,0,1,.234,1.336c.1.83.219,1.98.31,3.253s.134,2.428.134,3.268a5.529,5.529,0,0,1-.081,1.355,7.164,7.164,0,0,1-.119-1.35c-.062-.954-.138-2.037-.219-3.253s-.157-2.318-.224-3.253A6.9,6.9,0,0,1,455.119,359.19Z" transform="translate(-431.053 -313.891)" fill="#263238"/>
        <g id="Group_1397" data-name="Group 1397" transform="translate(23.065 42.734)" opacity="0.3">
          <path id="Path_7140" data-name="Path 7140" d="M454.576,365.6s2.934-7.06-.754-11.692a.253.253,0,0,0-.444.086C453.05,355.181,452.444,358.811,454.576,365.6Z" transform="translate(-453.041 -353.813)" fill="#d16800"/>
        </g>
        <path id="Path_7141" data-name="Path 7141" d="M434.708,401.422s2.352-7.28-1.7-11.592a.253.253,0,0,0-.434.119C432.342,391.151,432.032,394.824,434.708,401.422Z" transform="translate(-419.195 -329.872)" fill="#410b5f"/>
        <path id="Path_7142" data-name="Path 7142" d="M434.52,395a5.852,5.852,0,0,1,.343,1.317c.172.816.377,1.956.572,3.215s.329,2.409.4,3.244a5.722,5.722,0,0,1,.024,1.36,8.159,8.159,0,0,1-.229-1.336c-.138-.93-.3-2.018-.477-3.225s-.348-2.294-.477-3.225a6.907,6.907,0,0,1-.157-1.35Z" transform="translate(-420.29 -332.618)" fill="#263238"/>
        <g id="Group_1398" data-name="Group 1398" transform="translate(13.231 59.876)" opacity="0.3">
          <path id="Path_7143" data-name="Path 7143" d="M434.708,401.422s2.352-7.28-1.7-11.592a.253.253,0,0,0-.434.119C432.342,391.151,432.032,394.824,434.708,401.422Z" transform="translate(-432.426 -389.748)" fill="#d16800"/>
        </g>
        <path id="Path_7144" data-name="Path 7144" d="M464.1,348.927s6.264-4.389,5.634-10.275a.253.253,0,0,0-.42-.162C468.4,339.31,465.96,342.039,464.1,348.927Z" transform="translate(-435.759 -303.032)" fill="#410b5f"/>
        <g id="Group_1399" data-name="Group 1399" transform="translate(28.341 35.394)" opacity="0.3">
          <path id="Path_7145" data-name="Path 7145" d="M464.1,348.927s6.264-4.389,5.634-10.275a.253.253,0,0,0-.42-.162C468.4,339.31,465.96,342.039,464.1,348.927Z" transform="translate(-464.1 -338.425)" fill="#d16800"/>
        </g>
        <path id="Path_7146" data-name="Path 7146" d="M468.666,343.51a5.883,5.883,0,0,1-.52,1.255c-.358.754-.878,1.784-1.484,2.91s-1.188,2.123-1.636,2.829a5.657,5.657,0,0,1-.8,1.1,7.027,7.027,0,0,1,.62-1.2c.448-.825.978-1.789,1.56-2.862l1.555-2.862a6.966,6.966,0,0,1,.7-1.164Z" transform="translate(-435.827 -305.691)" fill="#263238"/>
        <path id="Path_7147" data-name="Path 7147" d="M442.51,391.325s7.556-1.178,9.579-6.741a.253.253,0,0,0-.3-.334C450.61,384.6,447.194,385.963,442.51,391.325Z" transform="translate(-424.469 -326.993)" fill="#410b5f"/>
        <g id="Group_1400" data-name="Group 1400" transform="translate(18.041 57.25)" opacity="0.3">
          <path id="Path_7148" data-name="Path 7148" d="M442.51,391.325s7.556-1.178,9.579-6.741a.253.253,0,0,0-.3-.334C450.61,384.6,447.194,385.963,442.51,391.325Z" transform="translate(-442.51 -384.243)" fill="#d16800"/>
        </g>
        <path id="Path_7149" data-name="Path 7149" d="M450.151,388.05a6.128,6.128,0,0,1-1.021.892c-.654.525-1.574,1.221-2.609,1.965s-2,1.379-2.719,1.818a5.517,5.517,0,0,1-1.2.634,7.361,7.361,0,0,1,1.092-.806l2.662-1.88,2.657-1.908a6.338,6.338,0,0,1,1.14-.716Z" transform="translate(-424.516 -328.984)" fill="#263238"/>
        <path id="Path_7150" data-name="Path 7150" d="M424.974,428.25l-2.2,14.836h13.739l-1.779-14.836Z" transform="translate(-414.145 -350.007)" fill="#455a64"/>
        <path id="Path_7151" data-name="Path 7151" d="M436.852,437.7a107.386,107.386,0,0,1-11.081,0,107.295,107.295,0,0,1,11.081,0Z" transform="translate(-415.714 -354.868)" fill="#263238"/>
        <path id="Path_7152" data-name="Path 7152" d="M437.009,440.2a114.546,114.546,0,0,1-11.449,0,114.595,114.595,0,0,1,11.449,0Z" transform="translate(-415.604 -356.183)" fill="#263238"/>
      </g>
      <g id="freepik--Boxes--inject-290" transform="translate(108.336 81.879)">
        <path id="Path_7153" data-name="Path 7153" d="M307.451,126.478h-.377a9.166,9.166,0,0,0-1.088,0,12.221,12.221,0,0,0-4.069.954,12.493,12.493,0,0,0-5.161,4.021,11.273,11.273,0,0,0-1.8,3.687,12.4,12.4,0,0,0,1.255,9.369,10.6,10.6,0,0,0,1.622,2.156,8.816,8.816,0,0,0,2.194,1.717,5.39,5.39,0,0,0,2.753.692A3.955,3.955,0,0,0,305.443,148a3.85,3.85,0,0,0,1.064-2.748,5.067,5.067,0,0,0-.954-2.924,9.967,9.967,0,0,0-5.371-3.54,13.19,13.19,0,0,0-6.774-.1,14.2,14.2,0,0,0-3.263,1.3,11.758,11.758,0,0,0-2.8,2.2c-.2.224-.42.429-.6.677l-.539.725a13.616,13.616,0,0,0-.878,1.593A12.925,12.925,0,0,0,284.3,148.7a13.328,13.328,0,0,0,.954,7.155,11.053,11.053,0,0,0,4.6,5.247,7.633,7.633,0,0,0,3.263.987,5.763,5.763,0,0,0,3.22-.773,5.033,5.033,0,0,0,2.175-2.385,4.322,4.322,0,0,0,.081-3.134,6.311,6.311,0,0,0-1.794-2.538,8.215,8.215,0,0,0-2.638-1.531,10.223,10.223,0,0,0-5.81-.1,11.32,11.32,0,0,0-4.77,2.657,10.9,10.9,0,0,0-2.733,4.231,12.259,12.259,0,0,0,.129,8.587,13.018,13.018,0,0,0,3.926,5.247,14.125,14.125,0,0,0,3.611,2.1c.448.167.8.291,1.035.358l.353.114s-.124-.024-.363-.091a10.259,10.259,0,0,1-1.04-.339,13.513,13.513,0,0,1-3.654-2.07,13.076,13.076,0,0,1-4-5.271,12.4,12.4,0,0,1-.157-8.677,10.938,10.938,0,0,1,2.762-4.293,11.539,11.539,0,0,1,4.842-2.719,10.442,10.442,0,0,1,5.934.1,8.357,8.357,0,0,1,2.714,1.569,6.478,6.478,0,0,1,1.86,2.628,4.57,4.57,0,0,1-.048,3.287,5.343,5.343,0,0,1-2.275,2.485,6.02,6.02,0,0,1-3.339.811,7.757,7.757,0,0,1-3.339-1.021,11.277,11.277,0,0,1-4.718-5.338,13.6,13.6,0,0,1-.983-7.289,13.291,13.291,0,0,1,1.059-3.587,13.8,13.8,0,0,1,.9-1.627l.553-.739a7.133,7.133,0,0,1,.606-.7,12.083,12.083,0,0,1,2.862-2.242,14.373,14.373,0,0,1,3.339-1.317,13.424,13.424,0,0,1,6.9.1,10.225,10.225,0,0,1,5.5,3.64,5.247,5.247,0,0,1,1,3.053,4.074,4.074,0,0,1-1.131,2.905,4.174,4.174,0,0,1-2.815,1.131,5.548,5.548,0,0,1-2.862-.72,8.868,8.868,0,0,1-2.242-1.76,10.971,10.971,0,0,1-1.646-2.2,12.579,12.579,0,0,1-1.259-9.541,11.4,11.4,0,0,1,1.846-3.726,12.556,12.556,0,0,1,5.247-4.031,11.926,11.926,0,0,1,4.1-.9,8.331,8.331,0,0,1,1.1,0Z" transform="translate(-242.765 -126.422)" fill="#263238"/>
        <rect id="Rectangle_685" data-name="Rectangle 685" width="66.885" height="51.586" transform="translate(13.729 47.788)" fill="#d16800"/>
        <path id="Path_7154" data-name="Path 7154" d="M230.75,226.6l12.355,11.525h65.75L297.635,226.6Z" transform="translate(-217.021 -178.812)" fill="#d16800"/>
        <path id="Path_7155" data-name="Path 7155" d="M230.75,226.469l66.9-.119h.052l.038.033,11.105,11.406.114.119.205.21h-.3l-65.75-.052H243.1l-12.346-11.6,12.4,11.449H243.1l65.75-.048-.086.21-.119-.119-11.1-11.406.086.038Z" transform="translate(-217.021 -178.681)" fill="#263238"/>
        <path id="Path_7156" data-name="Path 7156" d="M271.408,276.47a1.383,1.383,0,1,0,.1,0" transform="translate(-237.587 -204.892)" fill="#263238"/>
        <path id="Path_7157" data-name="Path 7157" d="M304.546,276.47a1.379,1.379,0,1,0,.1,0" transform="translate(-254.92 -204.892)" fill="#263238"/>
        <path id="Path_7158" data-name="Path 7158" d="M288.467,294.754a9.883,9.883,0,0,0-1.326-2.962,8.705,8.705,0,0,0-2.528-2.423,7.714,7.714,0,0,0-8.172-.224,8.81,8.81,0,0,0-2.657,2.28,9.778,9.778,0,0,0-1.484,2.891.989.989,0,0,1,.038-.229,5.335,5.335,0,0,1,.176-.634,7.633,7.633,0,0,1,1.131-2.132,8.678,8.678,0,0,1,2.686-2.385,7.847,7.847,0,0,1,8.405.229,8.654,8.654,0,0,1,2.547,2.519,7.632,7.632,0,0,1,1.016,2.194,5.613,5.613,0,0,1,.138.644A1.327,1.327,0,0,1,288.467,294.754Z" transform="translate(-238.75 -210.83)" fill="#263238"/>
        <path id="Path_7159" data-name="Path 7159" d="M231.07,227.79l11.83,15h54.9v-4.04h-54.53Z" transform="translate(-217.188 -179.434)" opacity="0.5"/>
        <path id="Path_7160" data-name="Path 7160" d="M343.174,290.571c-.067,0-.124-8.973-.124-20.035s.057-20.035.124-20.035.129,8.968.129,20.035S343.246,290.571,343.174,290.571Z" transform="translate(-275.75 -191.311)" fill="#263238"/>
        <rect id="Rectangle_686" data-name="Rectangle 686" width="5.896" height="6.664" transform="translate(72.032 87.563)" fill="#f5f5f5"/>
        <path id="Path_7161" data-name="Path 7161" d="M215.7,226.6,201.97,238.125H215.7Z" transform="translate(-201.97 -178.812)" fill="#410b5f"/>
        <g id="Group_1401" data-name="Group 1401" transform="translate(0 47.788)" opacity="0.4">
          <path id="Path_7162" data-name="Path 7162" d="M215.7,226.6,201.97,238.125H215.7Z" transform="translate(-201.97 -226.6)" fill="#d16800"/>
        </g>
        <rect id="Rectangle_687" data-name="Rectangle 687" width="76.903" height="59.314" transform="translate(5.686 99.375)" fill="#410b5f"/>
        <rect id="Rectangle_688" data-name="Rectangle 688" width="76.903" height="59.314" transform="translate(5.686 99.375)" fill="#d5b79a"/>
        <path id="Path_7163" data-name="Path 7163" d="M334.574,393.462c-.067,0-.124-13.219-.124-29.524s.057-29.528.124-29.528.124,13.219.124,29.528S334.641,393.462,334.574,393.462Z" transform="translate(-271.253 -235.193)" fill="#263238"/>
        <rect id="Rectangle_689" data-name="Rectangle 689" width="5.896" height="6.664" transform="translate(70.172 145.189)" fill="#f5f5f5"/>
        <rect id="Rectangle_690" data-name="Rectangle 690" width="8.734" height="12.656" transform="translate(29.147 99.532)" fill="#263238"/>
        <rect id="Rectangle_691" data-name="Rectangle 691" width="8.734" height="12.656" transform="translate(29.147 145.857)" fill="#263238"/>
        <path id="Path_7164" data-name="Path 7164" d="M290.125,334.662h-.778l-2.218.024-8.172.038-26.948.062-26.957-.033-8.167-.038-2.218-.024h0l2.218-.024,8.167-.038,26.957-.038,26.948.038,8.172.038,2.218.024h.577Z" transform="translate(-208.204 -235.287)" fill="#263238"/>
      </g>
      <g id="freepik--speech-bubble--inject-290" transform="translate(28.684 50.639)">
        <path id="Path_7165" data-name="Path 7165" d="M64.775,88.858,56.4,86.8h.062a13.905,13.905,0,0,1-7.227,2.171,15.2,15.2,0,0,1-4.479-.654,14.044,14.044,0,0,1-9.646-11.659,13.834,13.834,0,0,1,3.6-11.177,14.349,14.349,0,0,1,2.428-2.128c.448-.281.9-.572,1.364-.816l.711-.343.353-.172.372-.134a14,14,0,0,1,18.309,8.477,14.531,14.531,0,0,1,.773,4.522,13.877,13.877,0,0,1-2.008,7.256v-.076c2.328,4.2,3.5,6.325,3.764,6.793-.272-.477-1.488-2.562-3.9-6.721v-.076a13.767,13.767,0,0,0,1.908-7.156A14.206,14.206,0,0,0,62,70.459a13.737,13.737,0,0,0-17.965-8.3l-.363.129-.348.172-.7.334c-.477.243-.9.525-1.34.8a14.173,14.173,0,0,0-2.385,2.07,13.591,13.591,0,0,0-3.535,10.972,13.8,13.8,0,0,0,5.166,9.173,13.581,13.581,0,0,0,4.293,2.29,14.864,14.864,0,0,0,4.4.663,13.777,13.777,0,0,0,7.155-2.094h.081Z" transform="translate(-34.997 -60.935)" fill="#263238"/>
        <path id="Path_7166" data-name="Path 7166" d="M62,76.259l.425,7.012a1.135,1.135,0,0,0,1.064,1.064h0a1.14,1.14,0,0,0,1.2-1.011l.778-7.027a.892.892,0,0,0-.9-.987h-1.7a.887.887,0,0,0-.859.949Z" transform="translate(-49.116 -68.453)" fill="#d16800"/>
        <path id="Path_7167" data-name="Path 7167" d="M65.351,99.975a1.708,1.708,0,1,1-.093-1.305A1.708,1.708,0,0,1,65.351,99.975Z" transform="translate(-49.13 -80.176)" fill="#d16800"/>
      </g>
    </g>
  </svg>
  