<svg xmlns="http://www.w3.org/2000/svg" width="95.074" height="90.926" viewBox="0 0 95.074 90.926">
    <g id="Cyber_Monday-pana" data-name="Cyber Monday-pana" transform="translate(-23.282 -29.486)">
      <g id="freepik--background-complete--inject-185" transform="translate(23.282 29.486)">
        <rect id="Rectangle_607" data-name="Rectangle 607" width="23.1" height="21.909" rx="6.79" transform="translate(72.349 0) rotate(10.35)" fill="#e0e0e0"/>
        <path id="Path_6680" data-name="Path 6680" d="M400.733,74.874a1.406,1.406,0,0,1-.154-.018l-.444-.07-1.631-.277-5.475-.969h-.043v-.045c.01-.3.023-.616.035-.928.115-2.719.218-5.147.285-6.732l.027.033-1.462-.288-.38-.076a.675.675,0,0,1-.131-.033.671.671,0,0,1,.135.014l.388.062,1.456.248h.029v.029c-.057,1.588-.146,4.013-.246,6.734-.012.318-.025.633-.037.928l-.043-.053,5.469,1,1.627.31.437.088A.8.8,0,0,1,400.733,74.874Z" transform="translate(-315.768 -58.08)" fill="#410b5f"/>
        <path id="Path_6681" data-name="Path 6681" d="M399.8,78.053h.039l.115.016.442.07,1.643.283,5.68,1-.055.031c.339-.924.709-1.924,1.088-2.961.205-.532.39-1.056.573-1.553l.041.068-6.689-1.232-1.972-.359-.534-.107-.136-.029a.206.206,0,0,1-.047-.014h.047l.14.021.536.088,1.984.341,6.7,1.187.06.012-.021.058c-.185.5-.376,1.027-.573,1.555l-1.093,2.959-.014.041h-.043l-5.672-1.041-1.643-.31-.437-.088-.113-.025Z" transform="translate(-322.475 -64.278)" fill="#410b5f"/>
        <path id="Path_6682" data-name="Path 6682" d="M400.814,112.627v-.191a.789.789,0,0,0-.205-.452.754.754,0,0,0-.674-.22.735.735,0,0,0-.244,1.357.754.754,0,0,0,.706.029.782.782,0,0,0,.355-.349c.053-.109.068-.177.076-.175a.371.371,0,0,1-.039.191.78.78,0,0,1-.357.4.826.826,0,1,1,.23-1.282.774.774,0,0,1,.205.5A.411.411,0,0,1,400.814,112.627Z" transform="translate(-322.01 -94.784)" fill="#fafafa"/>
        <path id="Path_6683" data-name="Path 6683" d="M424.916,117.007a1.462,1.462,0,0,1-.01-.191.785.785,0,0,0-.205-.45.737.737,0,1,0-.205,1.164.782.782,0,0,0,.355-.349c.053-.109.066-.177.076-.175a.412.412,0,0,1-.039.191.791.791,0,0,1-.357.4.821.821,0,1,1,.23-1.271.791.791,0,0,1,.205.5A.41.41,0,0,1,424.916,117.007Z" transform="translate(-341.157 -98.272)" fill="#410b5f"/>
        <circle id="Ellipse_8" data-name="Ellipse 8" cx="2.23" cy="2.23" r="2.23" transform="matrix(0.559, -0.829, 0.829, 0.559, 83.533, 10.437)" fill="#fafafa"/>
        <path id="Path_6684" data-name="Path 6684" d="M444.265,74.771v.053h-.035a9.468,9.468,0,0,1,.175-1.113,5.448,5.448,0,0,1,.292-1.142,5.4,5.4,0,0,1-.166,1.166,9.1,9.1,0,0,1-.265,1.095h-.035C444.248,74.786,444.259,74.769,444.265,74.771Z" transform="translate(-357.78 -63.722)" fill="#e0e0e0"/>
        <path id="Path_6685" data-name="Path 6685" d="M442.1,77.345a5.394,5.394,0,0,1-1.162-.166,5.511,5.511,0,0,1-1.138-.292,10.806,10.806,0,0,1,2.3.458Z" transform="translate(-354.26 -67.146)" fill="#e0e0e0"/>
        <path id="Path_6686" data-name="Path 6686" d="M62.47,81.75s-.17.053-.505.152a5.874,5.874,0,0,0-.616.222,7.842,7.842,0,0,0-.821.374A9.1,9.1,0,0,0,58.5,83.976a9.723,9.723,0,0,0-1.043,1.206,10.473,10.473,0,0,0-.936,1.565,9.037,9.037,0,0,0-.657,1.93,8.09,8.09,0,0,0-.148,2.239,8.831,8.831,0,0,0,.509,2.386,9.2,9.2,0,0,0,1.263,2.321,10.707,10.707,0,0,0,4.68,3.419,31.121,31.121,0,0,0,6.377,1.614,112.015,112.015,0,0,0,15.047,1.477c2.717.078,5.533.07,8.42-.066,1.438-.062,2.912-.164,4.4-.281s2.992-.248,4.518-.339a36.289,36.289,0,0,1,9.373.423,20.82,20.82,0,0,1,8.831,4.107,18.689,18.689,0,0,1,3.471,3.645c.121.175.255.341.368.522l.337.542.17.271c.053.092.1.189.152.281l.3.567c.107.185.181.386.273.581l.261.587.218.616c.07.205.154.411.205.616a15.562,15.562,0,0,1,.626,5.149,15.787,15.787,0,0,1-1.16,5.124,6.411,6.411,0,0,1-.271.606l-.292.573-.329.573a5.109,5.109,0,0,1-.343.565,12.872,12.872,0,0,1-.766,1.074l-.411.515-.446.481a14.6,14.6,0,0,1-1.935,1.754,20.43,20.43,0,0,1-2.138,1.45,36.091,36.091,0,0,1-4.6,2.259c-1.565.647-3.14,1.232-4.7,1.813-6.237,2.333-12.289,4.485-18.1,6.4q-4.358,1.438-8.527,2.692t-8.108,2.321c-1.312.361-2.608.688-3.879,1.027l-3.75.93a23.534,23.534,0,0,1-3.666.585,15.1,15.1,0,0,1-1.8.039c-.3,0-.591-.035-.883-.058a6.777,6.777,0,0,1-.867-.125,8.582,8.582,0,0,1-3.165-1.2,7.217,7.217,0,0,1-2.214-2.312,9.365,9.365,0,0,1-1.078-2.838,8.785,8.785,0,0,1-.136-2.859,19.863,19.863,0,0,1,1.279-4.951c.55-1.46,1.166-2.781,1.727-3.947,1.125-2.329,2.064-4.107,2.549-5.381a4.424,4.424,0,0,0,.364-1.487.77.77,0,0,0-.148-.495l.021.027a.468.468,0,0,1,.053.084.822.822,0,0,1,.084.384,4.338,4.338,0,0,1-.357,1.5c-.474,1.279-1.409,3.062-2.528,5.393-.557,1.169-1.158,2.475-1.715,3.947a19.561,19.561,0,0,0-1.269,4.939,8.677,8.677,0,0,0,.14,2.826,9.309,9.309,0,0,0,1.072,2.816,7.169,7.169,0,0,0,2.2,2.288,8.541,8.541,0,0,0,3.134,1.177c.283.06.573.084.86.123a7.316,7.316,0,0,0,.879.055A14.949,14.949,0,0,0,62.082,150a23.673,23.673,0,0,0,3.654-.587l3.748-.934c1.269-.333,2.565-.659,3.877-1.027,2.627-.706,5.329-1.489,8.1-2.325s5.619-1.735,8.523-2.694c5.81-1.914,11.86-4.07,18.1-6.4,1.559-.583,3.134-1.167,4.7-1.813a36,36,0,0,0,4.588-2.243,20.636,20.636,0,0,0,2.138-1.438,14.419,14.419,0,0,0,1.922-1.742l.442-.479.411-.511a13.006,13.006,0,0,0,.76-1.066,6.466,6.466,0,0,0,.341-.561l.324-.571.285-.594c.092-.205.2-.392.269-.6a15.668,15.668,0,0,0,1.152-5.089,15.509,15.509,0,0,0-.616-5.112c-.051-.205-.133-.411-.205-.616l-.216-.6-.261-.585c-.09-.193-.162-.392-.269-.577l-.3-.563c-.051-.092-.1-.187-.152-.279l-.168-.269-.335-.538c-.111-.181-.244-.345-.364-.52a18.538,18.538,0,0,0-3.458-3.619,20.714,20.714,0,0,0-8.782-4.079,36.249,36.249,0,0,0-9.346-.425c-1.526.09-3.029.22-4.518.337s-2.953.218-4.4.279c-2.9.133-5.713.14-8.432.06a111.408,111.408,0,0,1-15.058-1.481,29.036,29.036,0,0,1-6.391-1.627,10.946,10.946,0,0,1-4.7-3.444,9.389,9.389,0,0,1-1.267-2.339,8.917,8.917,0,0,1-.509-2.407,8.184,8.184,0,0,1,.154-2.259,9.139,9.139,0,0,1,.665-1.93,10.752,10.752,0,0,1,.947-1.571,9.586,9.586,0,0,1,1.058-1.206,9.162,9.162,0,0,1,2.054-1.477,8.7,8.7,0,0,1,.821-.37,5.68,5.68,0,0,1,.616-.205C62.3,81.8,62.47,81.75,62.47,81.75Z" transform="translate(-46.016 -71.017)" fill="#e0e0e0"/>
        <path id="Path_6687" data-name="Path 6687" d="M35.3,212.277h0a7.3,7.3,0,0,0,4.569-9.264L37.9,197.2a7.305,7.305,0,0,0-9.264-4.572h0a7.307,7.307,0,0,0-4.572,9.266l1.974,5.816A7.307,7.307,0,0,0,35.3,212.277Z" transform="translate(-23.594 -158.812)" fill="#ebebeb"/>
        <path id="Path_6688" data-name="Path 6688" d="M35.128,212.038s-.047.018-.144.047l-.423.125a7.446,7.446,0,0,1-1.678.234A7.319,7.319,0,0,1,30.244,212a7.5,7.5,0,0,1-2.929-1.98c-.109-.123-.205-.257-.318-.388l-.16-.205-.142-.216c-.092-.146-.205-.288-.283-.442s-.164-.316-.246-.476a20.886,20.886,0,0,1-.778-2.1c-.5-1.466-1.039-3.025-1.585-4.678a7.3,7.3,0,0,1,.355-5.356,7.3,7.3,0,0,1,10.016-3.387,7.313,7.313,0,0,1,3.543,4.029c.573,1.643,1.093,3.214,1.59,4.68a21.358,21.358,0,0,1,.661,2.142c.033.179.064.353.094.528s.029.351.045.524l.018.257v.257c0,.168,0,.335-.016.5a7.49,7.49,0,0,1-1.123,3.35,7.322,7.322,0,0,1-1.824,1.957,7.487,7.487,0,0,1-1.479.836l-.411.158c-.092.035-.142.049-.142.049s.045-.023.138-.06l.411-.168a7.633,7.633,0,0,0,1.458-.848,7.37,7.37,0,0,0,1.8-1.957,7.449,7.449,0,0,0,1.1-3.323c0-.164,0-.329.014-.5v-.253c0-.084-.014-.168-.021-.255-.016-.17-.021-.343-.045-.518s-.064-.345-.094-.522a21.481,21.481,0,0,0-.663-2.13c-.5-1.464-1.027-3.035-1.6-4.674a7.25,7.25,0,0,0-13.729,4.658c.544,1.643,1.084,3.214,1.575,4.68a21.889,21.889,0,0,0,.766,2.1l.244.47c.084.154.187.294.277.439.047.07.092.142.14.205l.158.205c.1.129.205.261.312.384a7.451,7.451,0,0,0,2.9,1.972,7.356,7.356,0,0,0,2.616.458,7.974,7.974,0,0,0,1.674-.205l.425-.115A1.372,1.372,0,0,1,35.128,212.038Z" transform="translate(-23.418 -158.574)" fill="#e0e0e0"/>
        <path id="Path_6689" data-name="Path 6689" d="M40.86,220.25,27,224.955" transform="translate(-26.236 -181.073)" fill="#e0e0e0"/>
        <path id="Path_6690" data-name="Path 6690" d="M27,224.953c0-.029,3.081-1.1,6.915-2.4s6.939-2.329,6.948-2.3-3.081,1.1-6.913,2.4S27,224.98,27,224.953Z" transform="translate(-26.236 -181.071)" fill="#410b5f"/>
        <path id="Path_6691" data-name="Path 6691" d="M48.35,193.9q1.312,3.869,2.627,7.736" transform="translate(-43.202 -160.134)" fill="#e0e0e0"/>
        <path id="Path_6692" data-name="Path 6692" d="M50.973,201.636c-.029.01-.639-1.715-1.364-3.851s-1.29-3.877-1.263-3.886.639,1.715,1.364,3.851S51,201.628,50.973,201.636Z" transform="translate(-43.198 -160.134)" fill="#410b5f"/>
        <path id="Path_6693" data-name="Path 6693" d="M23.766,289.214l.2-.54a.037.037,0,0,1,.068,0l.177.511a.045.045,0,0,0,.025.023l.55.173a.037.037,0,0,1,0,.07l-.515.187a.035.035,0,0,0-.021.025l-.17.577a.037.037,0,0,1-.068,0l-.23-.579a.039.039,0,0,0-.021-.021l-.452-.154a.037.037,0,0,1,0-.068l.444-.187A.035.035,0,0,0,23.766,289.214Z" transform="translate(-23.282 -235.427)" fill="#e0e0e0"/>
        <path id="Path_6694" data-name="Path 6694" d="M41.364,304.791l.411-1.166a.078.078,0,0,1,.148,0l.378,1.1a.078.078,0,0,0,.049.049l1.187.368a.078.078,0,0,1,0,.148l-1.109.411a.076.076,0,0,0-.049.051L42.009,307a.078.078,0,0,1-.148,0l-.487-1.243a.074.074,0,0,0-.047-.045l-.971-.331a.078.078,0,0,1,0-.146l.959-.411a.084.084,0,0,0,.049-.033Z" transform="translate(-36.809 -247.283)" fill="#e0e0e0"/>
        <path id="Path_6695" data-name="Path 6695" d="M65.835,45.629l.651-1.8a.121.121,0,0,1,.228,0l.581,1.7a.115.115,0,0,0,.078.076l1.83.569a.121.121,0,0,1,0,.228l-1.715.633a.125.125,0,0,0-.074.08l-.571,1.922a.119.119,0,0,1-.226,0l-.754-1.918a.123.123,0,0,0-.074-.07l-1.5-.509a.121.121,0,0,1,0-.226l1.477-.628A.119.119,0,0,0,65.835,45.629Z" transform="translate(-55.807 -40.821)" fill="#e0e0e0"/>
        <path id="Path_6696" data-name="Path 6696" d="M288.107,37.033l.374-1.027a.068.068,0,0,1,.129,0l.335.978a.078.078,0,0,0,.045.043l1.052.324a.07.07,0,0,1,0,.131l-.984.364a.072.072,0,0,0-.043.045l-.327,1.1a.07.07,0,0,1-.131,0l-.433-1.1a.064.064,0,0,0-.041-.039l-.86-.292a.07.07,0,0,1,0-.129l.848-.361A.076.076,0,0,0,288.107,37.033Z" transform="translate(-232.982 -34.629)" fill="#e0e0e0"/>
        <path id="Path_6697" data-name="Path 6697" d="M463.9,192.558l.374-1.027a.07.07,0,0,1,.131,0l.335.978a.066.066,0,0,0,.043.043l1.052.327a.07.07,0,0,1,0,.131l-.984.364a.072.072,0,0,0-.043.045l-.327,1.1a.068.068,0,0,1-.129,0l-.433-1.1a.07.07,0,0,0-.041-.039l-.863-.294a.07.07,0,0,1,0-.129l.848-.359A.07.07,0,0,0,463.9,192.558Z" transform="translate(-372.67 -158.215)" fill="#e0e0e0"/>
        <path id="Path_6698" data-name="Path 6698" d="M330.156,31.962l.667-1.848a.123.123,0,0,1,.232,0l.6,1.742a.115.115,0,0,0,.08.076l1.871.581a.123.123,0,0,1,0,.234l-1.754.647a.125.125,0,0,0-.076.082l-.583,1.965a.123.123,0,0,1-.232.01l-.772-1.961a.121.121,0,0,0-.074-.072l-1.526-.518a.123.123,0,0,1,0-.23l1.511-.643a.136.136,0,0,0,.06-.066Z" transform="translate(-265.822 -29.92)" fill="#e0e0e0"/>
      </g>
      <g id="freepik--Plant--inject-185" transform="translate(27.67 78.983)">
        <path id="Path_6699" data-name="Path 6699" d="M89.961,341.242c-.542-.027-.7-.793-.5-1.3a4.43,4.43,0,0,0,.606-1.5c0-.472-.294-.9-.322-1.37-.051-.848.768-1.54.8-2.391.027-.661-.433-1.292-.32-1.945.119-.7.85-1.16,1.027-1.848.179-.735-.331-1.514-.136-2.245s1.054-1.263.93-2.006a6.85,6.85,0,0,0-.255-.7,1.831,1.831,0,0,1,.518-1.577A5.894,5.894,0,0,0,93.355,323c.349-.821.107-1.8.518-2.588.343-.653,1.107-1.09,1.2-1.822.388.657.01,1.5.1,2.259a7.256,7.256,0,0,0,.472,1.411,3.678,3.678,0,0,1-.29,2.943c-.331.581-.842,1.132-.821,1.8.033.811.844,1.4.988,2.2.205,1.144-1.012,2.173-.844,3.321.043.3.179.575.205.875.086,1.015-1.066,1.733-1.232,2.738-.129.739.3,1.5.121,2.232-.136.563-.616,1.066-.5,1.633a4.147,4.147,0,0,0,.31.682,1.3,1.3,0,0,1-.205,1.347,1.132,1.132,0,0,1-1.31.269" transform="translate(-80.191 -308.714)" fill="#410b5f"/>
        <g id="Group_1373" data-name="Group 1373" transform="translate(9.173 9.866)" opacity="0.5">
          <path id="Path_6700" data-name="Path 6700" d="M93.511,340.634a4.145,4.145,0,0,1-.31-.682c-.119-.567.368-1.07.5-1.633.177-.729-.251-1.493-.121-2.232.175-1,1.327-1.723,1.232-2.738-.025-.3-.16-.577-.205-.875-.168-1.148,1.049-2.177.844-3.321-.144-.8-.955-1.388-.988-2.2-.025-.669.487-1.22.821-1.8a3.678,3.678,0,0,0,.29-2.943A7.544,7.544,0,0,1,95.1,320.8c-.086-.758.292-1.6-.1-2.259-.094.731-.858,1.169-1.2,1.822-.411.785-.168,1.774-.518,2.588a6.078,6.078,0,0,1-1.045,1.368,1.833,1.833,0,0,0-.515,1.577,6.852,6.852,0,0,1,.255.7c.123.743-.735,1.277-.93,2.007s.314,1.509.136,2.245c-.166.692-.9,1.152-1.027,1.848-.113.653.347,1.284.32,1.945-.035.85-.854,1.542-.8,2.39.029.47.329.9.322,1.37,0,.542-.411.99-.606,1.5s-.043,1.269.5,1.3l2.087,1.047a1.132,1.132,0,0,0,1.31-.269A1.3,1.3,0,0,0,93.511,340.634Z" transform="translate(-89.314 -318.54)" fill="#fff"/>
        </g>
        <path id="Path_6701" data-name="Path 6701" d="M94.224,341.895a1.507,1.507,0,0,1-.205-.8c.055-.31.581-.583.711-1.111.17-.682-.136-1.891,0-2.579.177-.936,1.146-1.553,1.107-2.483-.012-.273.027-1,0-1.273-.1-1.047.821-1.752.682-2.791-.094-.727-.846-1.577-.848-2.323a4.011,4.011,0,0,1,.735-1.713,3.84,3.84,0,0,0,.32-2.731,6.632,6.632,0,0,1-.345-1.269c-.049-.692.29-1.489,0-2.068-.1.678-.748,1.132-1.051,1.756-.368.748-.205,1.643-.511,2.415a6.518,6.518,0,0,1-.908,1.327,1.981,1.981,0,0,0-.479,1.487,6.135,6.135,0,0,1,.189.628c.078.678-.649,1.232-.834,1.91s.205,1.37.043,2.054c-.162.647-.795,1.526-.916,2.179-.113.616.44,1,.4,1.616-.058.785-.842,1.733-.821,2.512,0,.431.37.569.349,1a9.125,9.125,0,0,1-.616,1.971,1.351,1.351,0,0,0,.129,1.343l2.331,1.156A1.454,1.454,0,0,0,94.224,341.895Z" transform="translate(-81.56 -310.43)" fill="#410b5f"/>
        <path id="Path_6702" data-name="Path 6702" d="M101.186,338a.275.275,0,0,1,0,.053v.152c0,.134,0,.331-.023.583a2.875,2.875,0,0,1-.205.9,4.611,4.611,0,0,1-.7,1,1.847,1.847,0,0,0-.333.616,2.023,2.023,0,0,0-.084.746c.025.526.187,1.074.263,1.672a2.533,2.533,0,0,1-.029.928,1.848,1.848,0,0,1-.183.45,3.861,3.861,0,0,0-.246.411,1.526,1.526,0,0,0-.014.945,4.942,4.942,0,0,1,.09.5,1.961,1.961,0,0,1-.012.526,4.279,4.279,0,0,1-.32.98,8.058,8.058,0,0,0-.361.916,2.352,2.352,0,0,0-.08.93,4.249,4.249,0,0,1,.033.926,2.82,2.82,0,0,1-.3.832,3.285,3.285,0,0,0-.294.756,8.189,8.189,0,0,0,.037,1.466,3.869,3.869,0,0,1-.267,1.193,4.139,4.139,0,0,0-.228.885,1.272,1.272,0,0,0,.06.569c.047.121.082.183.078.185a.9.9,0,0,1-.1-.179,1.259,1.259,0,0,1-.078-.577,4.044,4.044,0,0,1,.222-.91,3.96,3.96,0,0,0,.251-1.177c0-.224-.031-.458-.055-.7a2.669,2.669,0,0,1,0-.776c.1-.54.5-1,.579-1.585a4.106,4.106,0,0,0-.037-.906,2.485,2.485,0,0,1,.082-.963,17.553,17.553,0,0,0,.678-1.885,1.951,1.951,0,0,0,.012-.5c-.018-.164-.055-.329-.088-.495a1.622,1.622,0,0,1,.021-1,4.491,4.491,0,0,1,.253-.411,1.732,1.732,0,0,0,.175-.425,2.528,2.528,0,0,0,.031-.9c-.074-.587-.234-1.14-.257-1.678a2.13,2.13,0,0,1,.092-.772,1.932,1.932,0,0,1,.349-.616,4.691,4.691,0,0,0,.706-.982,2.907,2.907,0,0,0,.222-.883c.029-.251.035-.446.041-.579v-.152A.179.179,0,0,1,101.186,338Z" transform="translate(-86.956 -324.138)" fill="#263238"/>
        <path id="Path_6703" data-name="Path 6703" d="M68.425,303.3c-.76.111-1.189-.908-1.047-1.659a6.312,6.312,0,0,0,.431-2.239c-.123-.653-.655-1.164-.821-1.809-.3-1.16.643-2.343.458-3.53-.144-.924-.953-1.672-.978-2.606-.027-1,.86-1.848.9-2.844.045-1.07-.875-2.006-.8-3.081s1.113-2.039.739-3.035a9.961,9.961,0,0,0-.546-.9,2.588,2.588,0,0,1,.283-2.327,8.546,8.546,0,0,0,1.072-2.181c.261-1.222-.347-2.528,0-3.725.3-1,1.232-1.815,1.164-2.855.717.805.411,2.07.752,3.095a10.353,10.353,0,0,0,1.039,1.828,5.192,5.192,0,0,1,.411,4.155c-.3.9-.856,1.8-.637,2.721.265,1.115,1.551,1.709,1.97,2.777.6,1.528-.809,3.286-.261,4.832.142.4.411.747.522,1.154.4,1.384-1,2.694-.969,4.134.025,1.06.821,2,.78,3.06-.035.822-.569,1.643-.249,2.4a5.127,5.127,0,0,0,.616.861,1.848,1.848,0,0,1,.088,1.922,1.6,1.6,0,0,1-1.742.731" transform="translate(-61.986 -270.5)" fill="#410b5f"/>
        <g id="Group_1374" data-name="Group 1374" transform="translate(4.481 0.006)" opacity="0.5">
          <path id="Path_6704" data-name="Path 6704" d="M73.259,301.545a5.122,5.122,0,0,1-.616-.86c-.32-.752.205-1.583.248-2.4.045-1.06-.756-2-.78-3.06-.031-1.438,1.368-2.75.969-4.134-.117-.411-.38-.756-.522-1.154-.548-1.546.856-3.3.261-4.832-.411-1.068-1.7-1.661-1.969-2.777-.22-.922.337-1.824.637-2.721a5.192,5.192,0,0,0-.411-4.155,10.634,10.634,0,0,1-1.039-1.828c-.331-1.027-.035-2.29-.752-3.095.068,1.039-.869,1.848-1.164,2.855-.357,1.2.251,2.5,0,3.725a8.475,8.475,0,0,1-1.072,2.181,2.585,2.585,0,0,0-.288,2.327,9.974,9.974,0,0,1,.546.9c.374,1-.669,1.974-.739,3.035s.848,2,.8,3.081c-.043,1-.93,1.848-.9,2.844.025.934.834,1.682.978,2.606.185,1.187-.762,2.37-.458,3.53.168.645.7,1.156.821,1.809a6.32,6.32,0,0,1-.431,2.239c-.142.754.288,1.77,1.047,1.659l3.179.879a1.6,1.6,0,0,0,1.742-.731,1.848,1.848,0,0,0-.086-1.928Z" transform="translate(-66.467 -270.53)" fill="#fff"/>
        </g>
        <path id="Path_6705" data-name="Path 6705" d="M73.839,303.539a2.147,2.147,0,0,1-.511-1.056c0-.446.645-.967.682-1.733.047-.992-.706-2.581-.715-3.573-.012-1.345,1.162-2.465.852-3.742-.092-.376-.238-1.4-.349-1.764-.431-1.423.651-2.649.181-4.054-.329-.98-1.606-1.953-1.811-2.986a5.678,5.678,0,0,1,.548-2.573,5.434,5.434,0,0,0-.288-3.871,8.825,8.825,0,0,1-.821-1.663c-.259-.945,0-2.14-.581-2.863.045.969-.725,1.774-.978,2.721-.3,1.138.179,2.333-.045,3.491a9.165,9.165,0,0,1-.9,2.087,2.79,2.79,0,0,0-.255,2.191,8.714,8.714,0,0,1,.435.822c.294.918-.565,1.877-.633,2.875s.67,1.848.616,2.84c-.045.941-.682,2.333-.672,3.272,0,.873.883,1.271.99,2.13.138,1.1-.69,2.631-.456,3.7.131.6.67.688.762,1.294a12.779,12.779,0,0,1-.324,2.9,1.934,1.934,0,0,0,.548,1.826l3.545.963A2.053,2.053,0,0,0,73.839,303.539Z" transform="translate(-63.68 -273.011)" fill="#410b5f"/>
        <path id="Path_6706" data-name="Path 6706" d="M77.474,298.35a8.97,8.97,0,0,1,.181,1.095,4.072,4.072,0,0,1-.047,1.3,3.34,3.34,0,0,1-.277.768c-.127.259-.281.522-.423.807a2.619,2.619,0,0,0-.3.939,2.9,2.9,0,0,0,.086,1.062c.179.725.554,1.438.821,2.247a3.61,3.61,0,0,1,.205,1.286,2.491,2.491,0,0,1-.127.667,5.516,5.516,0,0,0-.23.637,2.183,2.183,0,0,0,.24,1.327c.092.218.189.437.263.67a2.792,2.792,0,0,1,.123.727,5.866,5.866,0,0,1-.175,1.438,11,11,0,0,0-.248,1.37,3.35,3.35,0,0,0,0,.674,3.664,3.664,0,0,0,.138.647,5.881,5.881,0,0,1,.3,1.267,3.889,3.889,0,0,1-.179,1.232,4.685,4.685,0,0,0-.189,1.13,3.638,3.638,0,0,0,.191,1.056c.1.333.205.651.265.967a3.584,3.584,0,0,1,.045.916c-.021.288-.055.557-.086.809a5.852,5.852,0,0,0-.07,1.29,1.805,1.805,0,0,0,.24.772c.1.156.168.23.164.234a1.493,1.493,0,0,1-.179-.224,1.758,1.758,0,0,1-.263-.778,5.83,5.83,0,0,1,.055-1.3c.029-.253.062-.522.078-.807a3.456,3.456,0,0,0-.051-.9,9.339,9.339,0,0,0-.269-.959,3.7,3.7,0,0,1-.205-1.076,4.641,4.641,0,0,1,.205-1.152,3.919,3.919,0,0,0,.17-1.2,5.711,5.711,0,0,0-.292-1.249,3.9,3.9,0,0,1-.142-.661,3.519,3.519,0,0,1,0-.69,11.586,11.586,0,0,1,.248-1.384,5.75,5.75,0,0,0,.175-1.417,2.692,2.692,0,0,0-.121-.7c-.072-.226-.166-.444-.259-.663a4.079,4.079,0,0,1-.232-.674,1.559,1.559,0,0,1-.012-.708,5.842,5.842,0,0,1,.234-.647,2.378,2.378,0,0,0,.109-.641,3.529,3.529,0,0,0-.205-1.255c-.263-.8-.637-1.518-.821-2.259a2.992,2.992,0,0,1-.084-1.088,2.687,2.687,0,0,1,.308-.959c.144-.287.3-.548.429-.805a3.177,3.177,0,0,0,.294-.739,4.107,4.107,0,0,0,.064-1.288c-.031-.355-.078-.628-.1-.822-.014-.09-.025-.16-.033-.205A.274.274,0,0,1,77.474,298.35Z" transform="translate(-69.965 -292.631)" fill="#263238"/>
        <path id="Path_6707" data-name="Path 6707" d="M50.612,356.081c-.431.205-.885-.312-.947-.791a3.972,3.972,0,0,0-.175-1.423c-.205-.368-.616-.571-.842-.924-.411-.635-.068-1.526-.411-2.2-.263-.526-.893-.822-1.088-1.372-.205-.6.16-1.269,0-1.877-.181-.649-.912-1.027-1.076-1.684s.273-1.437-.144-1.961a5.961,5.961,0,0,0-.507-.423,1.625,1.625,0,0,1-.279-1.448,5.387,5.387,0,0,0,.22-1.514c-.082-.78-.7-1.438-.715-2.232-.016-.653.386-1.323.146-1.933.583.343.651,1.156,1.047,1.707a6.412,6.412,0,0,0,.976.893,3.273,3.273,0,0,1,1.045,2.409,3.315,3.315,0,0,0,.144,1.752c.376.616,1.259.721,1.715,1.279.653.8.152,2.123.778,2.943.162.205.388.37.536.589.507.752-.078,1.807.22,2.67.22.63.881,1.039,1.058,1.682.138.495-.023,1.095.314,1.483a3.549,3.549,0,0,0,.536.4,1.158,1.158,0,0,1,.423,1.134,1,1,0,0,1-.9.774" transform="translate(-44.648 -322.787)" fill="#410b5f"/>
        <g id="Group_1375" data-name="Group 1375" transform="translate(0 13.501)" opacity="0.5">
          <path id="Path_6708" data-name="Path 6708" d="M53.163,354.037a3.544,3.544,0,0,1-.536-.39c-.337-.388-.177-.988-.314-1.483-.177-.643-.838-1.051-1.058-1.682-.3-.854.288-1.91-.22-2.67-.148-.22-.374-.378-.536-.589-.616-.822-.125-2.144-.778-2.943-.456-.559-1.339-.663-1.715-1.279a3.254,3.254,0,0,1-.144-1.752,3.274,3.274,0,0,0-1.045-2.409,6.413,6.413,0,0,1-.976-.893c-.4-.55-.464-1.364-1.047-1.707.24.616-.162,1.279-.146,1.932.018.787.635,1.452.715,2.232a5.473,5.473,0,0,1-.22,1.514,1.63,1.63,0,0,0,.279,1.448,5.977,5.977,0,0,1,.5.433c.411.526-.018,1.31.144,1.961s.9,1.027,1.076,1.684c.168.616-.205,1.282,0,1.877.2.555.821.846,1.088,1.372.341.674,0,1.565.411,2.2.226.353.643.557.842.924a3.972,3.972,0,0,1,.175,1.423c.062.478.515,1,.947.791l2.074-.088a1,1,0,0,0,.9-.774A1.158,1.158,0,0,0,53.163,354.037Z" transform="translate(-44.648 -336.24)" fill="#fff"/>
        </g>
        <path id="Path_6709" data-name="Path 6709" d="M53.3,355.427a1.335,1.335,0,0,1-.509-.532c-.09-.265.205-.7.074-1.168-.164-.6-.922-1.411-1.119-2-.267-.8.22-1.7-.205-2.4-.127-.205-.411-.791-.548-.99-.534-.768-.123-1.711-.676-2.464-.386-.524-1.339-.858-1.661-1.438a3.579,3.579,0,0,1-.17-1.643,3.407,3.407,0,0,0-.92-2.259,6.329,6.329,0,0,1-.821-.836c-.337-.516-.411-1.279-.9-1.6.205.571-.092,1.2-.06,1.818.039.739.557,1.362.647,2.1a5.721,5.721,0,0,1-.133,1.421,1.739,1.739,0,0,0,.271,1.36,5.571,5.571,0,0,1,.411.411c.353.493.025,1.232.177,1.848s.758.971.922,1.581c.154.571.041,1.526.23,2.086.175.52.774.589,1,1.082.3.633.094,1.709.444,2.306.193.331.532.281.7.626a7.58,7.58,0,0,1,.368,1.8,1.2,1.2,0,0,0,.68.986l2.31-.109A1.3,1.3,0,0,0,53.3,355.427Z" transform="translate(-45.545 -324.209)" fill="#410b5f"/>
        <path id="Path_6710" data-name="Path 6710" d="M51.32,352.71s0,.012.027.037l.068.117c.055.1.142.257.234.462a2.633,2.633,0,0,1,.226.791,4.143,4.143,0,0,1-.113,1.08,1.628,1.628,0,0,0,0,.616,1.824,1.824,0,0,0,.255.616c.246.4.616.752.928,1.183a2.259,2.259,0,0,1,.378.735,1.576,1.576,0,0,1,.051.429,3.679,3.679,0,0,0-.012.423,1.331,1.331,0,0,0,.4.737,3.633,3.633,0,0,1,.288.351,1.808,1.808,0,0,1,.205.411,3.668,3.668,0,0,1,.175.9,6.835,6.835,0,0,0,.115.867,2.1,2.1,0,0,0,.339.756,3.8,3.8,0,0,1,.425.7,2.485,2.485,0,0,1,.131.776,2.83,2.83,0,0,0,.1.713,7.192,7.192,0,0,0,.659,1.121,3.545,3.545,0,0,1,.308,1.043,3.684,3.684,0,0,0,.205.784,1.138,1.138,0,0,0,.3.425c.09.076.144.107.142.113a.994.994,0,0,1-.142-.113,1.094,1.094,0,0,1-.31-.411,3.562,3.562,0,0,1-.222-.789,3.58,3.58,0,0,0-.314-1.027,6.729,6.729,0,0,1-.676-1.13c-.158-.466-.049-.994-.236-1.479a3.615,3.615,0,0,0-.411-.686,2.19,2.19,0,0,1-.353-.787,16.077,16.077,0,0,0-.288-1.754,1.782,1.782,0,0,0-.205-.392c-.086-.121-.185-.232-.283-.347a1.423,1.423,0,0,1-.411-.789,3.762,3.762,0,0,1,.014-.435,1.47,1.47,0,0,0-.047-.411,2.213,2.213,0,0,0-.361-.706c-.31-.425-.674-.785-.924-1.193a1.937,1.937,0,0,1-.261-.641,1.756,1.756,0,0,1,0-.639,4.066,4.066,0,0,0,.125-1.066,2.616,2.616,0,0,0-.205-.78c-.086-.205-.164-.361-.205-.468-.025-.047-.043-.088-.06-.119Z" transform="translate(-49.95 -335.827)" fill="#263238"/>
        <path id="Path_6711" data-name="Path 6711" d="M57.56,423.73l.9,1.826H69.4l1.234-1.826Z" transform="translate(-54.908 -392.261)" fill="#455a64"/>
        <path id="Path_6712" data-name="Path 6712" d="M63.2,429.56l1.639,5.652,7.367.006,1.485-5.65Z" transform="translate(-59.39 -396.894)" fill="#455a64"/>
        <path id="Path_6713" data-name="Path 6713" d="M72.821,432.367c0,.027-2.44.047-5.451.047s-5.451-.021-5.451-.047,2.44-.047,5.451-.047S72.821,432.343,72.821,432.367Z" transform="translate(-58.373 -399.087)" fill="#263238"/>
      </g>
      <g id="freepik--Device--inject-185" transform="translate(40.919 37.191)">
        <rect id="Rectangle_608" data-name="Rectangle 608" width="55.828" height="80.117" rx="11.55" transform="translate(0 0)" fill="#263238"/>
        <rect id="Rectangle_609" data-name="Rectangle 609" width="52.308" height="66.907" rx="7" transform="translate(1.76 5.481)" fill="#fff"/>
        <path id="Path_6714" data-name="Path 6714" d="M238.934,429.222a2.142,2.142,0,1,1-2.142-2.142,2.142,2.142,0,0,1,2.142,2.142Z" transform="translate(-208.878 -353.131)" fill="#455a64"/>
        <rect id="Rectangle_610" data-name="Rectangle 610" width="16.814" height="0.885" rx="0.443" transform="translate(19.506 2.306)" fill="#455a64"/>
        <path id="Path_6738" data-name="Path 6738" d="M248.368,137.5l-2.812-4.958a13.256,13.256,0,1,0-3.178,3.54h0Z" transform="translate(-206.773 -98.794)" fill="#e0e0e0"/>
        <path id="Path_6739" data-name="Path 6739" d="M248.028,131.625a.128.128,0,0,0-.1-.043l-7.566-.038h-2.879l-.057-.433-.114-.852a.129.129,0,0,0-.129-.109h-2.1c-.167,0-.276,0-.276.138s.109.133.276.138l1.9.038,1.075,8.3a.133.133,0,0,0,.128.109l6.186.029H246.7c.2,0,.3,0,.3-.133s-.1-.133-.3-.143l-8.289-.1-.2-1.47,8.717.114h0a.124.124,0,0,0,.124-.1l.642-3.469.343-1.865A.119.119,0,0,0,248.028,131.625Zm-10.506.2,10.116.128-.894,4.853-6.186-.029h-2.341Z" transform="translate(-214.009 -108.13)" fill="#fff"/>
        <path id="Path_6740" data-name="Path 6740" d="M244.579,151.693a1.018,1.018,0,0,0-.352-.58,1.037,1.037,0,1,0-.994,1.789.951.951,0,0,0,.347.067,1.018,1.018,0,0,0,.633-.219.952.952,0,0,0,.362-.576.768.768,0,0,0,0-.238A.809.809,0,0,0,244.579,151.693Zm-1.223.871a.685.685,0,0,1,0-1.28.7.7,0,0,1,.918.481,1.082,1.082,0,0,1,.033.143v.024a1.114,1.114,0,0,1-.033.148.771.771,0,0,1-.276.381A.7.7,0,0,1,243.356,152.564Z" transform="translate(-218.063 -119)" fill="#fff"/>
        <path id="Path_6741" data-name="Path 6741" d="M256.249,151.781a.98.98,0,0,0-.352-.58,1.031,1.031,0,1,0-.628,1.851.99.99,0,0,0,.633-.219.952.952,0,0,0,.362-.571.687.687,0,0,0,0-.243A.756.756,0,0,0,256.249,151.781Zm-1.223.871a.68.68,0,0,1,0-1.28.669.669,0,0,1,.233-.043.719.719,0,0,1,.68.519,1.1,1.1,0,0,1,.033.147h0v.024a1.085,1.085,0,0,1-.033.143.732.732,0,0,1-.276.381A.685.685,0,0,1,255.026,152.652Z" transform="translate(-224.185 -119.046)" fill="#fff"/>
        <rect id="Rectangle_611" data-name="Rectangle 611" width="31.549" height="11.213" rx="5.607" transform="translate(12.45 50.854)" fill="#410b5f"/>
        <path id="Path_6750" data-name="Path 6750" d="M299.61,352.75l1.24,5.35,4.05-3.9Z" transform="translate(-260.497 -294.066)" fill="#e0e0e0"/>
        <rect id="Rectangle_612" data-name="Rectangle 612" width="4.726" height="1.998" transform="translate(42.074 60.409) rotate(45.53)" fill="#e0e0e0"/>
        <path id="Path_6751" data-name="Path 6751" d="M150.321,311.024a.976.976,0,0,1-.2-.107c-.119-.074-.292-.187-.5-.331-.411-.288-.986-.7-1.606-1.167l-1.585-1.191-.481-.359a.887.887,0,0,1-.173-.14.837.837,0,0,1,.2.1c.121.074.294.187.5.333.411.288.984.7,1.6,1.167s1.16.871,1.585,1.191l.483.359A.91.91,0,0,1,150.321,311.024Z" transform="translate(-138.259 -258.291)" fill="#263238"/>
        <path id="Path_6752" data-name="Path 6752" d="M148.607,327.441a19.2,19.2,0,0,1-1.984-.343,18.8,18.8,0,0,1-1.963-.448,37.986,37.986,0,0,1,3.947.791Z" transform="translate(-137.369 -273.326)" fill="#263238"/>
        <path id="Path_6753" data-name="Path 6753" d="M167.57,308.666a8.355,8.355,0,0,1-.663-1.158,8.675,8.675,0,0,1-.567-1.208,8.364,8.364,0,0,1,.663,1.158A8.557,8.557,0,0,1,167.57,308.666Z" transform="translate(-154.597 -257.155)" fill="#263238"/>
        <path id="Path_6754" data-name="Path 6754" d="M139.587,271.524l.32-.891a.158.158,0,0,1,.3,0l.285.822a.166.166,0,0,0,.1.1l.9.281a.158.158,0,0,1,0,.3l-.821.3a.158.158,0,0,0-.1.1l-.277.953a.16.16,0,0,1-.3.012l-.382-.967a.164.164,0,0,0-.1-.092l-.719-.244a.16.16,0,0,1-.01-.3l.711-.3a.162.162,0,0,0,.088-.084Z" transform="translate(-132.627 -228.727)" fill="#410b5f"/>
        <path id="Path_6755" data-name="Path 6755" d="M335.2,135.647l.154-.431a.078.078,0,0,1,.146,0l.138.411a.078.078,0,0,0,.051.049l.433.136a.076.076,0,0,1,0,.146l-.4.148a.08.08,0,0,0-.047.049l-.135.462a.078.078,0,0,1-.146,0l-.185-.468a.07.07,0,0,0-.047-.045l-.347-.119a.076.076,0,0,1,0-.144l.343-.146A.084.084,0,0,0,335.2,135.647Z" transform="translate(-288.429 -121.166)" fill="#410b5f"/>
        <path id="Path_6756" data-name="Path 6756" d="M320.395,149.052l.32-.893a.16.16,0,0,1,.3,0l.285.821a.158.158,0,0,0,.1.1l.9.281a.16.16,0,0,1,0,.3l-.821.3a.158.158,0,0,0-.1.1l-.281.955a.158.158,0,0,1-.3.014l-.374-.959a.154.154,0,0,0-.1-.092l-.719-.246a.158.158,0,0,1-.01-.3l.711-.3A.169.169,0,0,0,320.395,149.052Z" transform="translate(-276.308 -131.409)" fill="#410b5f"/>
      </g>
      <g id="freepik--Floor--inject-185" transform="translate(24.294 117.254)">
        <path id="Path_6757" data-name="Path 6757" d="M119.308,456.9c0,.029-20.393.053-45.547.053s-45.551-.025-45.551-.053,20.389-.053,45.551-.053S119.308,456.881,119.308,456.9Z" transform="translate(-28.21 -456.85)" fill="#263238"/>
      </g>
      <g id="freepik--Stars--inject-185" transform="translate(30.609 47.812)">
        <path id="Path_6758" data-name="Path 6758" d="M60.8,120.862l.737-2.054a.138.138,0,0,1,.259,0l.665,1.949a.138.138,0,0,0,.088.086l2.091.655a.136.136,0,0,1,0,.259l-1.941.715a.136.136,0,0,0-.086.09l-.641,2.189a.138.138,0,0,1-.261.012l-.867-2.189a.131.131,0,0,0-.082-.08l-1.713-.587a.138.138,0,0,1,0-.257l1.682-.709A.152.152,0,0,0,60.8,120.862Z" transform="translate(-58.961 -118.718)" fill="#410b5f"/>
        <path id="Path_6759" data-name="Path 6759" d="M89.457,162.785l.3-.842a.055.055,0,0,1,.107,0l.275.8a.06.06,0,0,0,.037.037l.86.269a.055.055,0,0,1,0,.107l-.8.3a.053.053,0,0,0-.035.037l-.263.9a.057.057,0,0,1-.107,0l-.357-.9a.051.051,0,0,0-.035-.033l-.7-.242a.055.055,0,0,1,0-.1l.694-.294A.06.06,0,0,0,89.457,162.785Z" transform="translate(-82.592 -153.034)" fill="#410b5f"/>
      </g>
      <g id="freepik--Character--inject-185" transform="translate(88.123 46.082)">
        <path id="Path_6760" data-name="Path 6760" d="M410.82,434.037l-.168-2.187H406.83l.158,2.676,1.419.787Z" transform="translate(-392.902 -365.812)" fill="#f5c2a5"/>
        <path id="Path_6761" data-name="Path 6761" d="M390.979,441.405l.01.251s-4.171,1.908-4.179,2.717l8.441-.439-.261-2.8A4.832,4.832,0,0,1,390.979,441.405Z" transform="translate(-376.994 -373.186)" fill="#410b5f"/>
        <g id="Group_1376" data-name="Group 1376" transform="translate(16.794 68.876)" opacity="0.6">
          <path id="Path_6762" data-name="Path 6762" d="M421.181,445.679a.343.343,0,0,1,.259.38.331.331,0,0,1-.374.261.366.366,0,0,1-.273-.411.345.345,0,0,1,.421-.228" transform="translate(-420.789 -445.669)" fill="#fff"/>
        </g>
        <g id="Group_1377" data-name="Group 1377" transform="translate(9.81 70.074)" opacity="0.6">
          <path id="Path_6763" data-name="Path 6763" d="M395.229,452.174l-.064-.674-8.065.667s-.368.183-.312.446Z" transform="translate(-386.782 -451.5)" fill="#fff"/>
        </g>
        <path id="Path_6764" data-name="Path 6764" d="M407,443.642c0,.041.205.049.421.17s.327.29.364.271-.037-.253-.294-.4S407,443.6,407,443.642Z" transform="translate(-393.037 -375.145)" fill="#263238"/>
        <path id="Path_6765" data-name="Path 6765" d="M402.8,445.749c0,.041.175.1.325.269s.205.349.24.345.055-.238-.134-.441S402.8,445.71,402.8,445.749Z" transform="translate(-389.7 -376.842)" fill="#263238"/>
        <path id="Path_6766" data-name="Path 6766" d="M399.208,448.423c.039,0,.086-.205-.033-.423s-.314-.3-.331-.263.111.148.205.331S399.167,448.421,399.208,448.423Z" transform="translate(-386.556 -378.429)" fill="#263238"/>
        <path id="Path_6767" data-name="Path 6767" d="M436.3,418.74l.183,6.553-3.029-.1-.9-6.358Z" transform="translate(-413.34 -355.394)" fill="#f5c2a5"/>
        <path id="Path_6768" data-name="Path 6768" d="M434.914,443.9s2.179,1.4,3.163.086l.292.616,1.364,4.35a.585.585,0,0,1-.316.719.6.6,0,0,1-.616-.094c-.9-.778-4.212-3.664-4.2-4.07l-.025-1.08a.548.548,0,0,1,.341-.517Z" transform="translate(-414.953 -375.387)" fill="#410b5f"/>
        <g id="Group_1378" data-name="Group 1378" transform="translate(19.637 69.735)" opacity="0.6">
          <path id="Path_6769" data-name="Path 6769" d="M439.353,454.424l-4.724-4.574v.236a.643.643,0,0,0,.234.511,40.264,40.264,0,0,0,3.949,3.7.6.6,0,0,0,.536.125Z" transform="translate(-434.629 -449.85)" fill="#fff"/>
        </g>
        <g id="Group_1379" data-name="Group 1379" transform="translate(19.773 68.964)" opacity="0.6">
          <path id="Path_6770" data-name="Path 6770" d="M435.794,446.144a.339.339,0,0,1,.113.446.343.343,0,0,1-.452.115.355.355,0,0,1-.119-.472.359.359,0,0,1,.485-.07" transform="translate(-435.291 -446.098)" fill="#fff"/>
        </g>
        <path id="Path_6771" data-name="Path 6771" d="M450.785,457.948c.033.014.15-.283.483-.452a1.836,1.836,0,0,1,.653-.15c0-.012-.07-.053-.205-.066a.945.945,0,0,0-.509.107.912.912,0,0,0-.37.357C450.777,457.862,450.77,457.944,450.785,457.948Z" transform="translate(-427.825 -386.018)" fill="#263238"/>
        <path id="Path_6772" data-name="Path 6772" d="M452.917,462.442a4.6,4.6,0,0,1,.5-.259,4.853,4.853,0,0,1,.555-.092.66.66,0,0,0-.6-.025C453.04,462.179,452.888,462.423,452.917,462.442Z" transform="translate(-429.522 -389.782)" fill="#263238"/>
        <path id="Path_6773" data-name="Path 6773" d="M446.931,453.25a5.77,5.77,0,0,1,.739-.452,7.285,7.285,0,0,1,.838-.224,1.283,1.283,0,0,0-.889.113A1.341,1.341,0,0,0,446.931,453.25Z" transform="translate(-424.766 -382.252)" fill="#263238"/>
        <path id="Path_6774" data-name="Path 6774" d="M446.216,448.477c.016.033.327-.109.737-.138s.737.051.75.016a1.168,1.168,0,0,0-.76-.14A1.151,1.151,0,0,0,446.216,448.477Z" transform="translate(-424.199 -378.805)" fill="#263238"/>
        <path id="Path_6775" data-name="Path 6775" d="M447.19,444.783a.434.434,0,0,0-.039-.205,1.438,1.438,0,0,0-.292-.5.649.649,0,0,0-.347-.24.238.238,0,0,0-.248.1.363.363,0,0,0-.031.265.821.821,0,0,0,.875.573.957.957,0,0,0,.811-.68.318.318,0,0,0-.045-.265.234.234,0,0,0-.263-.066.821.821,0,0,0-.324.267,1.653,1.653,0,0,0-.285.505.452.452,0,0,0-.041.205,2.617,2.617,0,0,1,.394-.655.76.76,0,0,1,.29-.226.123.123,0,0,1,.142.035.218.218,0,0,1,.018.177.85.85,0,0,1-.708.581.717.717,0,0,1-.75-.476.255.255,0,0,1,.014-.185.129.129,0,0,1,.136-.062.6.6,0,0,1,.3.205A2.1,2.1,0,0,1,447.19,444.783Z" transform="translate(-424.203 -375.269)" fill="#263238"/>
        <path id="Path_6776" data-name="Path 6776" d="M382.961,248.34l-.027.725-1.585,3.255a31.129,31.129,0,0,0,.066,7.929c.682,3.311,1.643,10.626,1.766,12.238s2.75,14.569,2.75,14.569l4.664-.312s-1.438-14.581-1.606-16.475-.448-10.123-.448-10.123l-.411-10.915-5.481-1.062" transform="translate(-372.465 -219.854)" fill="#263238"/>
        <path id="Path_6777" data-name="Path 6777" d="M414.661,282.89,411.848,255.9l-1.368-10.16,5.98-1.939.285,1.247s2.518,5.34,2.532,6.954c.039,4.506.125,15.834.125,15.834l-.191,14.953Z" transform="translate(-395.803 -216.382)" fill="#263238"/>
        <path id="Path_6778" data-name="Path 6778" d="M380.463,172.572s-4.533.877-4.533,2.286a45.638,45.638,0,0,0,2.144,8.506,11.647,11.647,0,0,1,.355,4.243c-.035.957.879,1.111,1.688,1.357s4.405.953,6.412.318,3.048-.955,3.253-1.46c.446-1.1-.01-1.041-.082-1.957s-.16-9.1-.16-9.1-.546-3.974-1.92-4.4S380.463,172.572,380.463,172.572Z" transform="translate(-368.348 -159.501)" fill="#410b5f"/>
        <path id="Path_6779" data-name="Path 6779" d="M339.03,173.555s-.205-.561.772-.1a16.157,16.157,0,0,1,2.378,1.583l.754-.205s.986.7,1.14,1.082a8.548,8.548,0,0,1,.446,2.3,2.61,2.61,0,0,0,.187,1.027l-1.945,1.027-.234-.571a26.194,26.194,0,0,1-1.951-2.089.522.522,0,0,1,.269-.694s-.205-.871.1-1.142c0,0-.251-.544-.154-.735Z" transform="translate(-339.012 -160.34)" fill="#f5c2a5"/>
        <path id="Path_6780" data-name="Path 6780" d="M352.367,184.725a.648.648,0,0,1-.039-.127,2.093,2.093,0,0,1-.035-.368,2.442,2.442,0,0,1,.32-1.22l.014.068a.9.9,0,0,1-.329-.485v-.025l.072.037a1.21,1.21,0,0,1-.91-.01,1.124,1.124,0,0,1-.339-.22.2.2,0,0,1-.064-.092.109.109,0,0,1,.051-.119.924.924,0,0,1,.162-.057,4.631,4.631,0,0,1,.647-.177,4.059,4.059,0,0,1-.616.248,1.207,1.207,0,0,0-.142.055c-.016.012-.016.016-.014.027a.158.158,0,0,0,.041.051,1.153,1.153,0,0,0,.316.193,1.13,1.13,0,0,0,.832,0l.057-.023.014.06v.023a.822.822,0,0,0,.288.431l.037.027-.023.039a2.584,2.584,0,0,0-.345,1.169C352.346,184.538,352.383,184.723,352.367,184.725Z" transform="translate(-348.583 -167.218)" fill="#83534b"/>
        <path id="Path_6781" data-name="Path 6781" d="M347.659,190.632a.857.857,0,0,0,.084-.039.317.317,0,0,0,.154-.187l.012-.045.037.033a4.2,4.2,0,0,0,.594.45c.123.072.279.191.388.119a.224.224,0,0,0,.086-.183.533.533,0,0,0-.076-.232,2.093,2.093,0,0,0-.481-.645.669.669,0,0,0-.6-.131,1.711,1.711,0,0,0-.411.189c-.092.055-.144.086-.15.08s.039-.047.125-.115a1.413,1.413,0,0,1,.411-.226.723.723,0,0,1,.331-.029.8.8,0,0,1,.349.154,2.115,2.115,0,0,1,.516.674.59.59,0,0,1,.086.281.32.32,0,0,1-.136.271.3.3,0,0,1-.287,0q-.106-.056-.205-.123a3.445,3.445,0,0,1-.583-.487l.049-.012a.325.325,0,0,1-.205.205A.157.157,0,0,1,347.659,190.632Z" transform="translate(-345.596 -173.363)" fill="#83534b"/>
        <path id="Path_6782" data-name="Path 6782" d="M349.632,186.714c0-.01.047,0,.109-.031a.263.263,0,0,0,.142-.238.853.853,0,0,0-.148-.425,2.138,2.138,0,0,0-.361-.446,5.022,5.022,0,0,0-.441-.376,1.028,1.028,0,0,0-.411-.205.559.559,0,0,0-.411.08.214.214,0,0,1,.084-.09.514.514,0,0,1,.333-.064.992.992,0,0,1,.452.205,4.276,4.276,0,0,1,.46.38,2.11,2.11,0,0,1,.372.472.9.9,0,0,1,.138.481.3.3,0,0,1-.205.271A.115.115,0,0,1,349.632,186.714Z" transform="translate(-346.242 -169.588)" fill="#83534b"/>
        <path id="Path_6783" data-name="Path 6783" d="M348.421,180.9a1.549,1.549,0,0,1-.148-.1.716.716,0,0,0-.378-.113.7.7,0,0,0-.374.125c-.086.058-.131.111-.146.1s.012-.078.1-.16a.616.616,0,0,1,.846-.012C348.407,180.823,348.433,180.893,348.421,180.9Z" transform="translate(-345.655 -166.146)" fill="#83534b"/>
        <path id="Path_6784" data-name="Path 6784" d="M380.614,125.195a1.269,1.269,0,0,1-.064-2.214l1.5-.411q.138,2.875.32,5.73a2.15,2.15,0,0,1-1.109-.384.959.959,0,0,1-.355-1.052,1.006,1.006,0,0,1-.294-1.678Z" transform="translate(-371.529 -120.049)" fill="#263238"/>
        <path id="Path_6785" data-name="Path 6785" d="M392.63,127.092l-.014-.68-4.107-.616a2.715,2.715,0,0,0-2.6,2.493,22.455,22.455,0,0,0,.189,4.159,2.616,2.616,0,0,0,2.037,2.294l.016,2.078c.035,1.214,1.066,1.438,2.28,1.409h0a2.2,2.2,0,0,0,2.142-2.185Z" transform="translate(-376.266 -122.609)" fill="#f5c2a5"/>
        <path id="Path_6786" data-name="Path 6786" d="M390.48,143.614a.271.271,0,0,0,.271.263.259.259,0,0,0,.269-.255.271.271,0,0,0-.271-.263.261.261,0,0,0-.269.255Z" transform="translate(-379.91 -136.568)" fill="#263238"/>
        <path id="Path_6787" data-name="Path 6787" d="M388.283,141.041c.035.035.234-.125.524-.136s.509.127.538.09-.021-.078-.117-.144a.744.744,0,0,0-.431-.115.709.709,0,0,0-.411.154C388.3,140.963,388.267,141.027,388.283,141.041Z" transform="translate(-378.161 -134.484)" fill="#263238"/>
        <path id="Path_6788" data-name="Path 6788" d="M402.533,143.421c.035.033.234-.125.524-.138s.509.127.538.09-.02-.078-.117-.142a.742.742,0,0,0-.433-.115.707.707,0,0,0-.411.152C402.545,143.341,402.517,143.4,402.533,143.421Z" transform="translate(-389.484 -136.375)" fill="#263238"/>
        <path id="Path_6789" data-name="Path 6789" d="M394.6,143.243a1.914,1.914,0,0,0-.474-.068c-.074,0-.144-.016-.158-.066a.37.37,0,0,1,.041-.222c.062-.183.127-.372.2-.573a9.913,9.913,0,0,0,.435-1.5,9.688,9.688,0,0,0-.554,1.458c-.064.205-.127.392-.187.575a.423.423,0,0,0-.027.292.191.191,0,0,0,.125.1.6.6,0,0,0,.127.012A1.882,1.882,0,0,0,394.6,143.243Z" transform="translate(-382.596 -134.55)" fill="#263238"/>
        <path id="Path_6790" data-name="Path 6790" d="M396.82,166.039a5.565,5.565,0,0,0,2.857-.869,2.787,2.787,0,0,1-2.834,1.394Z" transform="translate(-384.948 -153.9)" fill="#a36d64"/>
        <path id="Path_6791" data-name="Path 6791" d="M398.233,154.49a.587.587,0,0,0-.411-.205c-.224-.014-.45,0-.561.205a.3.3,0,0,0,.019.269c.025.041,0,.023.047.051a1.389,1.389,0,0,0,.491.234.433.433,0,0,0,.462-.136A.372.372,0,0,0,398.233,154.49Z" transform="translate(-385.28 -145.247)" fill="#a0032d"/>
        <path id="Path_6792" data-name="Path 6792" d="M398.223,153.43c-.047,0-.035.314-.3.548s-.6.205-.6.257.076.057.218.055a.778.778,0,0,0,.5-.205.688.688,0,0,0,.228-.46C398.289,153.5,398.244,153.428,398.223,153.43Z" transform="translate(-385.353 -144.571)" fill="#263238"/>
        <path id="Path_6793" data-name="Path 6793" d="M401.715,137.067c.033.076.32.029.663.055s.616.109.663.037c.018-.035-.033-.107-.146-.179a1.161,1.161,0,0,0-1.01-.072C401.772,136.958,401.7,137.024,401.715,137.067Z" transform="translate(-388.836 -131.377)" fill="#263238"/>
        <path id="Path_6794" data-name="Path 6794" d="M388.111,136.134c.053.064.251-.012.491-.025s.446.027.489-.045c.019-.033-.014-.1-.107-.158a.713.713,0,0,0-.791.055C388.111,136.033,388.078,136.1,388.111,136.134Z" transform="translate(-378.018 -130.571)" fill="#263238"/>
        <path id="Path_6795" data-name="Path 6795" d="M379.737,114.122a1.306,1.306,0,0,1-.563-1.329,1.5,1.5,0,0,1,.971-1.095,1.687,1.687,0,0,1,.3-.068,1.368,1.368,0,0,1,.647-.205.706.706,0,0,1,.515-.573,1.711,1.711,0,0,1,.809,0,1.372,1.372,0,0,1,2.212,0,27,27,0,0,1,2.51.963,3.522,3.522,0,0,1,.411.688,1.265,1.265,0,0,1,.661,2.278,1.156,1.156,0,0,1-.181,1.848,1.473,1.473,0,0,1-.068,1.16.713.713,0,0,1-.355.359.223.223,0,0,1-.031.08c-.117.205-.429.129-.616-.01a2.542,2.542,0,0,1-.867-1.427c-.148-.548-.205-1.119-.343-1.668v-.039a1.534,1.534,0,0,0-.327-.616,4.207,4.207,0,0,1-.491.343,1.676,1.676,0,0,1-1.961-.31,2.45,2.45,0,0,1-1.54.633,2.368,2.368,0,0,1-1.577-.411.8.8,0,0,1-.261-.343A.24.24,0,0,1,379.737,114.122Z" transform="translate(-370.908 -110.293)" fill="#263238"/>
        <path id="Path_6796" data-name="Path 6796" d="M417.57,145.316c.027-.016,1.111-.476,1.21.674a.868.868,0,0,1-1.08.98C417.7,146.936,417.57,145.316,417.57,145.316Z" transform="translate(-401.437 -138.04)" fill="#f5c2a5"/>
        <path id="Path_6797" data-name="Path 6797" d="M419.726,147.9a.336.336,0,0,0,.055.025.205.205,0,0,0,.15-.01.5.5,0,0,0,.191-.464.642.642,0,0,0-.08-.281.232.232,0,0,0-.164-.142.1.1,0,0,0-.113.066c-.012.033,0,.055-.01.058s-.025-.016-.021-.066a.142.142,0,0,1,.039-.076.16.16,0,0,1,.109-.039.286.286,0,0,1,.224.16.708.708,0,0,1,.1.316.524.524,0,0,1-.25.522.23.23,0,0,1-.187-.014C419.73,147.927,419.722,147.9,419.726,147.9Z" transform="translate(-403.149 -139.437)" fill="#83534b"/>
        <path id="Path_6798" data-name="Path 6798" d="M379.447,121.54a.085.085,0,0,0,0,.027.676.676,0,0,0-.016.084.891.891,0,0,0,.292.76.914.914,0,0,0,.628.222l-.021-.016a1.982,1.982,0,0,0,.532.976,1.529,1.529,0,0,0,.528.353,1.265,1.265,0,0,0,.667.062,2.279,2.279,0,0,0,.63-.205,1.749,1.749,0,0,0,.515-.351h-.035a2.08,2.08,0,0,0,.994.485,1.643,1.643,0,0,0,.863-.121,1.672,1.672,0,0,0,.483-.308,1.286,1.286,0,0,0,.107-.107.5.5,0,0,0,.035-.041s-.051.051-.152.136a1.806,1.806,0,0,1-.485.292,1.63,1.63,0,0,1-.844.109,2.074,2.074,0,0,1-.967-.481l-.018-.014-.016.016a1.745,1.745,0,0,1-.5.337,2.245,2.245,0,0,1-.616.191,1.232,1.232,0,0,1-.657-.049,1.5,1.5,0,0,1-.511-.341,1.967,1.967,0,0,1-.526-.949v-.018h-.019a.871.871,0,0,1-.6-.205.844.844,0,0,1-.267-.411.921.921,0,0,1-.035-.316A.936.936,0,0,0,379.447,121.54Z" transform="translate(-371.125 -119.23)" fill="#455a64"/>
        <path id="Path_6799" data-name="Path 6799" d="M418.038,120.85a2.354,2.354,0,0,1,.125.388,1.655,1.655,0,0,1-.119,1.037v.016l.014.012a1.053,1.053,0,0,1,.337.448,1.027,1.027,0,0,1,.047.616,1.072,1.072,0,0,1-.452.643l-.021.014.012.021a1.325,1.325,0,0,1,.179.711,1.453,1.453,0,0,1-.129.569,1.617,1.617,0,0,1-.3.429l.029-.023a.694.694,0,0,0,.078-.072,1.207,1.207,0,0,0,.222-.322,1.437,1.437,0,0,0,.146-.581,1.372,1.372,0,0,0-.179-.737v.035a1.1,1.1,0,0,0,.474-.674,1.05,1.05,0,0,0-.049-.643,1.092,1.092,0,0,0-.355-.466v.029a1.643,1.643,0,0,0,.1-1.064,1.438,1.438,0,0,0-.1-.288c-.014-.033-.029-.055-.037-.072A.094.094,0,0,0,418.038,120.85Z" transform="translate(-401.564 -118.682)" fill="#455a64"/>
        <path id="Path_6800" data-name="Path 6800" d="M417.424,152.541c0-.012.09.014.222.1a1.466,1.466,0,0,1,.446.509,1.281,1.281,0,0,1,.08,1.012,1.1,1.1,0,0,1-.361.509,1.055,1.055,0,0,1-.639.218.93.93,0,0,1-.635-.242,1.369,1.369,0,0,1-.345-.513,1.46,1.46,0,0,1,.023-1.027,1.136,1.136,0,0,1,.45-.509c.136-.084.22-.107.226-.094s-.062.064-.175.164a1.2,1.2,0,0,0-.353.5,1.364,1.364,0,0,0,.023.883.915.915,0,0,0,.787.616.854.854,0,0,0,.505-.17.907.907,0,0,0,.3-.411,1.152,1.152,0,0,0-.029-.873,1.693,1.693,0,0,0-.357-.509C417.483,152.606,417.413,152.555,417.424,152.541Z" transform="translate(-400.276 -143.836)" fill="#e0e0e0"/>
        <path id="Path_6801" data-name="Path 6801" d="M368.524,179.14s-1.573.491-2,3.081a37.752,37.752,0,0,0,.257,6.633,14.388,14.388,0,0,0-1.643.969c.107.035,1.119,4.773,3.15,4.3s2.214-3.5,2.214-3.5Z" transform="translate(-359.772 -165.001)" fill="#410b5f"/>
        <path id="Path_6802" data-name="Path 6802" d="M382.633,206.146a.424.424,0,0,1-.058-.1,2.1,2.1,0,0,1-.127-.312,5.255,5.255,0,0,1-.228-1.216,17.694,17.694,0,0,0-.181-1.815,3.4,3.4,0,0,0-.349-1c-.185-.316-.46-.6-.672-.945a4.376,4.376,0,0,1-.437-1.088,5.981,5.981,0,0,1-.154-1.078,17.422,17.422,0,0,1,.049-1.834c.035-.52.051-.941.045-1.232a2.12,2.12,0,0,1,0-.452.445.445,0,0,1,.021.115c0,.076.025.189.029.335a11.541,11.541,0,0,1-.01,1.232c-.021.522-.064,1.142-.027,1.826a5.968,5.968,0,0,0,.158,1.058,4.339,4.339,0,0,0,.425,1.058c.205.335.479.616.672.949a3.438,3.438,0,0,1,.357,1.027,16.547,16.547,0,0,1,.156,1.828,5.659,5.659,0,0,0,.2,1.21,2.628,2.628,0,0,0,.107.316A.755.755,0,0,1,382.633,206.146Z" transform="translate(-371.918 -177.659)" fill="#263238"/>
        <path id="Path_6803" data-name="Path 6803" d="M347.206,232.88c-.066.016-.491-.115-.54.246s.2.361.639.427,2.3.674,2.3.674-.706.279-.641.655.205.345.526.345h.476s0,.822.361.852a.536.536,0,0,0,.641.526,23.984,23.984,0,0,0,2.629-.616l.132-2.464a11.4,11.4,0,0,0-2.119-.559,1.071,1.071,0,0,0-.542.312Z" transform="translate(-345.089 -207.696)" fill="#f5c2a5"/>
        <path id="Path_6804" data-name="Path 6804" d="M380.571,236.12l5.492.076-.209,3.079-5.414-.692Z" transform="translate(-371.932 -210.279)" fill="#f5c2a5"/>
        <path id="Path_6805" data-name="Path 6805" d="M378.487,224.589a2.565,2.565,0,0,1-.24-.363c-.144-.226-.351-.534-.585-.873a14.443,14.443,0,0,1-.821-1.232,1.616,1.616,0,0,1,.292.327c.166.205.392.511.616.85s.433.657.563.9A1.311,1.311,0,0,1,378.487,224.589Z" transform="translate(-369.071 -199.154)" fill="#263238"/>
        <path id="Path_6806" data-name="Path 6806" d="M406.332,222.4a.555.555,0,0,1-.166.037,2.814,2.814,0,0,1-.464.037,4.237,4.237,0,0,1-2.832-1.051,2.805,2.805,0,0,1-.327-.331.588.588,0,0,1-.1-.138c.014-.014.177.168.479.411a4.758,4.758,0,0,0,1.308.743,4.837,4.837,0,0,0,1.475.292C406.089,222.413,406.33,222.38,406.332,222.4Z" transform="translate(-389.414 -198.229)" fill="#263238"/>
        <path id="Path_6807" data-name="Path 6807" d="M358.886,208.273l-1.616-4.9,1.945-1.027,2.177,4.276S360.453,208.93,358.886,208.273Z" transform="translate(-353.52 -183.444)" fill="#f5c2a5"/>
        <path id="Path_6808" data-name="Path 6808" d="M407.009,185.832c.043-.035,3.157-.651,3.157-.651l.577-1.2s.719-7.161.848-7.96c.15-.912.382-3.286.382-3.286a3.282,3.282,0,0,1,2.67,2.335,67.3,67.3,0,0,1-.205,9.784,5.14,5.14,0,0,1-1.918,3.8c-.928.684-5.72.255-5.72.255Z" transform="translate(-392.879 -159.915)" fill="#410b5f"/>
        <path id="Path_6809" data-name="Path 6809" d="M414.3,203.242a.267.267,0,0,1,0,.053c0,.043-.012.094-.019.162-.018.14-.045.349-.086.616s-.1.6-.179.976a5.951,5.951,0,0,1-.386,1.267,3.286,3.286,0,0,1-.984,1.273,3.407,3.407,0,0,1-1.76.594c-.329.033-.667.041-1.012.049l-1.058.021a13.492,13.492,0,0,1-2.241-.125h-.049v-.047c.033-.493.066-1.01.1-1.536s.074-1.091.109-1.618v-.041h.041l3.2-.706-.035.027a5.05,5.05,0,0,0,.38-1.532c.055-.507.1-.99.154-1.438.1-.91.181-1.711.251-2.376s.129-1.179.171-1.546c.021-.173.037-.31.049-.411a.641.641,0,0,1,.014-.107c0-.029,0-.035,0-.035v.142c0,.1-.021.238-.035.411-.033.368-.08.891-.142,1.548s-.142,1.468-.228,2.378q-.068.686-.146,1.45a5.185,5.185,0,0,1-.38,1.563l-.01.023H410l-3.2.715.041-.049q-.054.795-.107,1.618c-.035.526-.07,1.045-.1,1.536l-.045-.055a13.476,13.476,0,0,0,2.224.127l1.056-.016c.345,0,.682-.014,1.006-.043a3.333,3.333,0,0,0,1.719-.569,3.243,3.243,0,0,0,.969-1.232,6.092,6.092,0,0,0,.4-1.247c.084-.378.146-.7.193-.971s.08-.466.1-.616c.012-.066.021-.117.029-.158A.174.174,0,0,1,414.3,203.242Z" transform="translate(-392.664 -179.002)" fill="#263238"/>
        <path id="Path_6810" data-name="Path 6810" d="M430.742,176.63a8.806,8.806,0,0,0-.616,1.027,9.109,9.109,0,0,0-.376,1.136,3.064,3.064,0,0,1,.99-2.16Z" transform="translate(-411.115 -163.006)" fill="#263238"/>
        <path id="Path_6811" data-name="Path 6811" d="M425.117,232.8a2.567,2.567,0,0,0-2.037-.337.661.661,0,0,1,.3-.123,1.912,1.912,0,0,1,.774-.029,1.966,1.966,0,0,1,.725.277C425.05,232.693,425.132,232.788,425.117,232.8Z" transform="translate(-405.815 -207.228)" fill="#263238"/>
        <path id="Path_6812" data-name="Path 6812" d="M413.461,257.47a.521.521,0,0,1,.021.1c.012.076.025.171.041.286.033.251.076.616.119,1.058.088.9.183,2.134.279,3.5s.185,2.592.249,3.5c.035.435.064.795.084,1.062,0,.115.016.205.023.288a.327.327,0,0,1,0,.1.429.429,0,0,1-.023-.1,2.524,2.524,0,0,0-.041-.288c-.033-.249-.074-.616-.117-1.058-.09-.9-.185-2.134-.281-3.5s-.183-2.59-.248-3.491c-.035-.435-.062-.795-.084-1.062,0-.115-.014-.205-.021-.288A.332.332,0,0,1,413.461,257.47Z" transform="translate(-398.168 -227.244)" fill="#455a64"/>
        <path id="Path_6813" data-name="Path 6813" d="M434.542,263.382a.594.594,0,0,1-.156.07,1.443,1.443,0,0,1-.193.062,2.6,2.6,0,0,1-.261.06,3.386,3.386,0,0,1-.7.049,3.793,3.793,0,0,1-.846-.127,3.877,3.877,0,0,1-.793-.322,3.224,3.224,0,0,1-.573-.4,2.487,2.487,0,0,1-.2-.183,1.337,1.337,0,0,1-.134-.152c-.07-.086-.1-.136-.1-.14s.17.175.474.411a3.852,3.852,0,0,0,.573.37,4.164,4.164,0,0,0,.774.306,4.109,4.109,0,0,0,.822.131,3.7,3.7,0,0,0,.68-.027C434.306,263.446,434.536,263.362,434.542,263.382Z" transform="translate(-411.788 -231.082)" fill="#455a64"/>
        <path id="Path_6814" data-name="Path 6814" d="M384.995,260.67a1.249,1.249,0,0,1-.173.4,3.114,3.114,0,0,1-.672.821,3.17,3.17,0,0,1-.9.552,1.219,1.219,0,0,1-.423.115,5.184,5.184,0,0,0,1.251-.748A5.249,5.249,0,0,0,384.995,260.67Z" transform="translate(-373.831 -229.787)" fill="#455a64"/>
        <path id="Path_6815" data-name="Path 6815" d="M399.7,366.667a2.725,2.725,0,0,1-.542-.205,13.825,13.825,0,0,1-1.253-.633c-.476-.271-.893-.542-1.185-.75a2.848,2.848,0,0,1-.458-.359,3.632,3.632,0,0,1,.5.3c.3.191.723.452,1.2.721s.912.495,1.232.657A3.618,3.618,0,0,1,399.7,366.667Z" transform="translate(-384.503 -312.468)" fill="#455a64"/>
      </g>
      <path id="Path_6816" data-name="Path 6816" d="M4.369,2.018a.575.575,0,0,1,.341.2.563.563,0,0,1,.13.369.579.579,0,0,1-.194.459.832.832,0,0,1-.563.17H3.158V.892h.909a.81.81,0,0,1,.535.156.531.531,0,0,1,.186.43.535.535,0,0,1-.115.357A.559.559,0,0,1,4.369,2.018Zm-.836-.125H4A.44.44,0,0,0,4.3,1.8a.326.326,0,0,0,.1-.257.322.322,0,0,0-.1-.254A.462.462,0,0,0,3.984,1.2H3.533Zm.474,1.014a.5.5,0,0,0,.331-.1.334.334,0,0,0,.117-.272.336.336,0,0,0-.119-.273A.505.505,0,0,0,4,2.166H3.533v.741ZM6.246,1.379a1,1,0,0,1,.474.112.8.8,0,0,1,.329.323.991.991,0,0,1,.119.494,1,1,0,0,1-.119.5.8.8,0,0,1-.329.323,1.057,1.057,0,0,1-.947,0A.814.814,0,0,1,5.445,2.8a.989.989,0,0,1-.12-.5.98.98,0,0,1,.12-.494.817.817,0,0,1,.329-.323A.985.985,0,0,1,6.246,1.379Zm0,.326a.552.552,0,0,0-.267.066.485.485,0,0,0-.2.2.693.693,0,0,0-.074.334.691.691,0,0,0,.074.336.487.487,0,0,0,.2.2.573.573,0,0,0,.533,0,.487.487,0,0,0,.2-.2.691.691,0,0,0,.074-.336.693.693,0,0,0-.074-.334.485.485,0,0,0-.2-.2A.552.552,0,0,0,6.246,1.705Zm2.338-.326a1,1,0,0,1,.474.112.8.8,0,0,1,.329.323.991.991,0,0,1,.119.494,1,1,0,0,1-.119.5.8.8,0,0,1-.329.323,1.057,1.057,0,0,1-.947,0A.814.814,0,0,1,7.783,2.8a.989.989,0,0,1-.12-.5.98.98,0,0,1,.12-.494.817.817,0,0,1,.329-.323A.985.985,0,0,1,8.585,1.379Zm0,.326a.552.552,0,0,0-.267.066.485.485,0,0,0-.2.2.693.693,0,0,0-.074.334.691.691,0,0,0,.074.336.487.487,0,0,0,.2.2.573.573,0,0,0,.533,0,.487.487,0,0,0,.2-.2.691.691,0,0,0,.074-.336.693.693,0,0,0-.074-.334.485.485,0,0,0-.2-.2A.552.552,0,0,0,8.585,1.705ZM11.12,3.217l-.652-.807v.807h-.375V.78h.375v1.4l.645-.774h.451l-.79.9.81.912Zm3.807,0h-.375L13.422,1.5V3.217h-.375V.9h.375l1.13,1.722V.9h.375Zm1.508-1.838a1,1,0,0,1,.474.112.8.8,0,0,1,.329.323.991.991,0,0,1,.119.494,1,1,0,0,1-.119.5.8.8,0,0,1-.329.323,1.057,1.057,0,0,1-.947,0,.814.814,0,0,1-.329-.324.989.989,0,0,1-.12-.5.98.98,0,0,1,.12-.494.817.817,0,0,1,.329-.323A.985.985,0,0,1,16.435,1.379Zm0,.326a.552.552,0,0,0-.267.066.485.485,0,0,0-.2.2.693.693,0,0,0-.074.334.691.691,0,0,0,.074.336.487.487,0,0,0,.2.2.573.573,0,0,0,.533,0,.487.487,0,0,0,.2-.2.691.691,0,0,0,.074-.336.693.693,0,0,0-.074-.334.485.485,0,0,0-.2-.2A.552.552,0,0,0,16.435,1.705Zm4.051-.3-.5,1.815h-.415l-.448-1.4-.454,1.4h-.412l-.5-1.815h.379l.346,1.469L18.928,1.4h.4l.461,1.469L20.13,1.4Zm2-.583-.049,1.67h-.316L22.073.82ZM22.5,2.8v.415H22.07V2.8Z" transform="translate(56.886 91.491)" fill="#fff"/>
    </g>
  </svg>
  