<svg width="28" height="14" viewBox="0 0 28 14" fill="none" xmlns="http://www.w3.org/2000/svg">
    <path d="M0 1C0 0.447716 0.447715 0 1 0H27C27.5523 0 28 0.447715 28 1V13C28 13.5523 27.5523 14 27 14H1C0.447715 14 0 13.5523 0 13V1Z" fill="#D1D1D1"/>
    <path d="M9.34522 8.99986H5.82422V8.06186H8.36522C8.36522 7.08186 7.83322 6.64786 6.58722 6.64786V5.82886C7.20322 5.82886 7.63722 5.87086 7.89622 5.96186C8.84822 6.29786 9.34522 6.99786 9.34522 8.05486V8.99986ZM11.0392 8.99986H10.0592V4.48486H11.0392V8.99986ZM16.3312 8.99986H11.7952V8.06186H14.3362C14.3362 7.08186 13.8042 6.64786 12.5582 6.64786V5.82886C13.1742 5.82886 13.6082 5.87086 13.8672 5.96186C14.8332 6.30486 15.3162 6.99786 15.3162 8.05486H16.3312V8.99986ZM15.9812 8.99986V8.06186H16.8632C17.0872 8.06186 17.2412 7.95686 17.3182 7.75386C17.3462 7.69786 17.3602 7.57886 17.3602 7.38986V5.82886H18.3472V7.35486C18.3472 7.61386 18.3052 7.85186 18.2282 8.06186H18.8512C19.1802 8.06186 19.3482 7.85186 19.3482 7.43186V5.82886H20.3282V7.35486C20.3282 7.61386 20.2862 7.85186 20.2092 8.06186H20.8322C21.1612 8.06186 21.3292 7.85186 21.3292 7.43186V5.82886H22.3162V7.34786C22.3162 7.89386 22.1482 8.32086 21.8052 8.62886C21.5322 8.87386 21.2172 8.99986 20.8672 8.99986H15.9812Z" fill="black"/>
    </svg>
    