<svg width="9" height="10" viewBox="0 0 9 10" fill="none" xmlns="http://www.w3.org/2000/svg">
<path d="M5.4957 8.61316C5.34668 8.94957 5.24819 9.31465 5.21045 9.69749L8.36385 9.01499C8.51286 8.67866 8.61129 8.31351 8.6491 7.93066L5.4957 8.61316Z" fill="#4B840A"/>
<path d="M8.36382 6.97136C8.51283 6.63503 8.61133 6.26988 8.64907 5.88703L6.19267 6.41895V5.39641L8.36374 4.92666C8.51276 4.59033 8.61126 4.22518 8.64899 3.84233L6.19259 4.3738V0.69644C5.8162 0.911612 5.48192 1.19803 5.2102 1.53587V4.58647L4.2278 4.79907V0.196289C3.85141 0.411385 3.51713 0.697877 3.2454 1.03572V5.0116L1.04729 5.48717C0.898273 5.8235 0.799699 6.18865 0.761889 6.5715L3.2454 6.03414V7.32184L0.583832 7.8977C0.43482 8.23403 0.33632 8.59918 0.298584 8.98203L3.0845 8.37924C3.31129 8.33122 3.50621 8.1947 3.63294 8.00683L4.14386 7.23562V7.23547C4.1969 7.15568 4.2278 7.05947 4.2278 6.95586V5.82154L5.2102 5.60894V7.65401L8.36374 6.97121L8.36382 6.97136Z" fill="#4B840A"/>
</svg>
