<svg xmlns="http://www.w3.org/2000/svg" width="19.188" height="19.188" viewBox="0 0 19.188 19.188">
    <g id="gear" transform="translate(-0.001 -0.002)">
      <g id="Group_6" data-name="Group 6" transform="translate(0.001 0.002)">
        <path id="Path_7" data-name="Path 7" d="M18.155,14.262a3.893,3.893,0,1,0,3.893,3.893,3.893,3.893,0,0,0-3.893-3.893Zm-2.694,3.893a2.694,2.694,0,1,1,2.694,2.694A2.694,2.694,0,0,1,15.461,18.155Z" transform="translate(-8.561 -8.561)" fill="#a3a4a8"/>
        <path id="Path_8" data-name="Path 8" d="M11.749,1.612a2.246,2.246,0,0,0-4.308,0l-.113.383a1.047,1.047,0,0,1-1.505.624l-.35-.192A2.246,2.246,0,0,0,2.427,5.473l.191.35a1.047,1.047,0,0,1-.624,1.505l-.383.113a2.246,2.246,0,0,0,0,4.308l.383.113a1.047,1.047,0,0,1,.624,1.505l-.192.35a2.246,2.246,0,0,0,3.047,3.046l.35-.191a1.047,1.047,0,0,1,1.505.624l.113.383a2.246,2.246,0,0,0,4.308,0l.113-.383a1.047,1.047,0,0,1,1.505-.624l.35.192a2.246,2.246,0,0,0,3.046-3.047l-.191-.35a1.047,1.047,0,0,1,.624-1.505l.383-.113a2.246,2.246,0,0,0,0-4.308L17.2,7.329a1.047,1.047,0,0,1-.624-1.505l.192-.35a2.246,2.246,0,0,0-3.047-3.046l-.35.191a1.047,1.047,0,0,1-1.505-.624l-.113-.383Zm-3.158.339a1.046,1.046,0,0,1,2.008,0l.113.383a2.246,2.246,0,0,0,3.23,1.337l.349-.192A1.047,1.047,0,0,1,15.711,4.9l-.191.35a2.246,2.246,0,0,0,1.338,3.229l.381.113a1.046,1.046,0,0,1,0,2.008l-.383.113a2.246,2.246,0,0,0-1.337,3.23l.192.349a1.047,1.047,0,0,1-1.421,1.42l-.349-.191a2.246,2.246,0,0,0-3.23,1.338l-.113.381a1.046,1.046,0,0,1-2.008,0l-.113-.383A2.246,2.246,0,0,0,5.25,15.52l-.35.192a1.047,1.047,0,0,1-1.42-1.421l.191-.349a2.246,2.246,0,0,0-1.337-3.231L1.951,10.6a1.046,1.046,0,0,1,0-2.008l.383-.113A2.246,2.246,0,0,0,3.671,5.25L3.479,4.9A1.047,1.047,0,0,1,4.9,3.48l.35.191A2.246,2.246,0,0,0,8.479,2.334l.113-.383Z" transform="translate(-0.001 -0.002)" fill="#a3a4a8"/>
      </g>
    </g>
  </svg>
  