<svg xmlns="http://www.w3.org/2000/svg" width="21.929" height="19.188" viewBox="0 0 21.929 19.188">
    <g id="collection" transform="translate(0 -1.5)">
      <g id="Group_4" data-name="Group 4" transform="translate(0 1.5)">
        <path id="Path_5" data-name="Path 5" d="M3.426,5.612a.685.685,0,0,1,0-1.371H18.5a.685.685,0,0,1,0,1.371ZM6.168,2.871a.685.685,0,0,1,0-1.371h9.594a.685.685,0,0,1,0,1.371ZM0,18.632a2.056,2.056,0,0,0,2.056,2.056H19.873a2.056,2.056,0,0,0,2.056-2.056V9.038a2.056,2.056,0,0,0-2.056-2.056H2.056A2.056,2.056,0,0,0,0,9.038Zm2.056.685a.685.685,0,0,1-.685-.685V9.038a.685.685,0,0,1,.685-.685H19.873a.685.685,0,0,1,.685.685v9.594a.685.685,0,0,1-.685.685Z" transform="translate(0 -1.5)" fill="#a3a4a8"/>
      </g>
    </g>
  </svg>
  