<svg xmlns="http://www.w3.org/2000/svg" width="28" height="14" viewBox="0 0 28 14">
    <g id="Group_1600" data-name="Group 1600" transform="translate(-35 -258)">
      <rect id="Rectangle_908" data-name="Rectangle 908" width="28" height="14" rx="1" transform="translate(35 258)" fill="#d1d1d1"/>
      <g id="_294654_visa_icon" data-name="294654_visa_icon" transform="translate(40.188 262.942)">
        <g id="形状_1_3_" transform="translate(1.366)">
          <g id="形状_1">
            <g id="Group_1421" data-name="Group 1421">
              <path id="Path_7507" data-name="Path 7507" d="M70.251,181.951l-.8,4.886h1.272l.8-4.886Zm-1.865,0-1.213,3.361-.143-.724h0L67,184.427A4.052,4.052,0,0,0,65.869,183a5.089,5.089,0,0,0-.566-.392l1.1,4.234h1.325l2.024-4.886Zm4.965,1.357c0-.552,1.239-.481,1.783-.181l.182-1.049a3.672,3.672,0,0,0-1.144-.213c-.631,0-2.13.276-2.13,1.618,0,1.262,1.76,1.278,1.76,1.941s-1.578.544-2.1.126l-.189,1.1a3.563,3.563,0,0,0,1.436.276c.868,0,2.178-.45,2.178-1.673C75.125,183.979,73.35,183.86,73.35,183.308Zm5.191-1.357H77.518a.585.585,0,0,0-.587.364l-1.9,4.522H76.36l.265-.726h1.617l.149.726H79.56Zm-1.549,3.158.668-1.829.376,1.829Z" transform="translate(-65.303 -181.864)" fill-rule="evenodd"/>
            </g>
          </g>
        </g>
        <g id="形状_1_2_" transform="translate(0 0.106)">
          <g id="形状_1_1_">
            <g id="Group_1422" data-name="Group 1422">
              <path id="Path_7508" data-name="Path 7508" d="M27.69,185.448a.552.552,0,0,0-.615-.441H25.033l-.024.083a5.061,5.061,0,0,1,1.923.95,3.816,3.816,0,0,1,1.194,1.61Z" transform="translate(-25.009 -185.007)" fill-rule="evenodd"/>
            </g>
          </g>
        </g>
      </g>
    </g>
  </svg>
  