<svg id="Group_1371" data-name="Group 1371" xmlns="http://www.w3.org/2000/svg" width="33.245" height="47.907" viewBox="0 0 33.245 47.907">
  <path id="Path_6647" data-name="Path 6647" d="M530.048,164.644H513.429c-.192-8.5,6.346-13.431,11.96-15.272a28.876,28.876,0,0,0,.339-5.447h8.639a28.867,28.867,0,0,0,.339,5.447c5.614,1.841,12.152,6.774,11.96,15.272Z" transform="translate(-513.425 -116.911)" fill="#fdd6c0" fill-rule="evenodd"/>
  <path id="Path_6648" data-name="Path 6648" d="M566.81,174.252c-2.313,3.222-5.939,3.158-8.211-.016l-.837.327-1.724,4.276v9.02h13.539v-9.02l-1.97-4.276Z" transform="translate(-546.062 -140.125)" fill="#f7f7f7" fill-rule="evenodd"/>
  <path id="Path_6649" data-name="Path 6649" d="M536.748,113.279c-.04-.444-1.858-.969-2.464.485a2.816,2.816,0,0,0,2.544,3.675c2.06.162,1.454-.2,1.454-.2Z" transform="translate(-529.273 -93.079)" fill="#fdd6c0" fill-rule="evenodd"/>
  <path id="Path_6650" data-name="Path 6650" d="M618.4,113.279c.04-.444,1.858-.969,2.463.485a2.816,2.816,0,0,1-2.544,3.675c-2.059.162-1.454-.2-1.454-.2Z" transform="translate(-592.581 -93.079)" fill="#fdd6c0" fill-rule="evenodd"/>
  <path id="Path_6651" data-name="Path 6651" d="M574.465,150.6a4.843,4.843,0,0,1-8.755.137c.054-.78.072-1.514.075-2.08H574.4C574.4,149.186,574.417,149.868,574.465,150.6Z" transform="translate(-553.469 -120.531)" fill="#f2b3a4" fill-rule="evenodd"/>
  <path id="Path_6652" data-name="Path 6652" d="M551.168,73.207c-10.716.257-16.127-26.169,0-25.492C567.3,47.038,561.885,73.465,551.168,73.207Z" transform="translate(-534.546 -43.215)" fill="#fdd6c0" fill-rule="evenodd"/>
  <path id="Path_6653" data-name="Path 6653" d="M564.06,103.655a.96.96,0,1,1-1.342.216A.958.958,0,0,1,564.06,103.655Z" transform="translate(-551.038 -85.929)" fill="#20201e" fill-rule="evenodd"/>
  <path id="Path_6654" data-name="Path 6654" d="M598.758,103.655a.96.96,0,1,0,1.342.216A.958.958,0,0,0,598.758,103.655Z" transform="translate(-578.475 -85.929)" fill="#20201e" fill-rule="evenodd"/>
  <path id="Path_6655" data-name="Path 6655" d="M556.467,117.943c.547.42.571,1.035.053,1.373a1.791,1.791,0,0,1-1.927-.147c-.547-.42-.571-1.035-.053-1.373A1.791,1.791,0,0,1,556.467,117.943Z" transform="translate(-544.628 -96.733)" fill="#f8c6b6" fill-rule="evenodd"/>
  <path id="Path_6656" data-name="Path 6656" d="M603.722,117.943c-.547.42-.57,1.035-.053,1.373a1.791,1.791,0,0,0,1.927-.147c.547-.42.571-1.035.053-1.373A1.791,1.791,0,0,0,603.722,117.943Z" transform="translate(-582.255 -96.733)" fill="#f8c6b6" fill-rule="evenodd"/>
  <path id="Path_6657" data-name="Path 6657" d="M560.466,92.418c-.036-.016-.071-.03-.108-.044a2.763,2.763,0,0,0-1.226-.159,2.718,2.718,0,0,0-1.145.359c-.173.112-.85.66-.658.861a10.1,10.1,0,0,0,.95-.387,2.692,2.692,0,0,1,.884-.119,2.384,2.384,0,0,1,.81.165c.008,0,.057.024.068.029.565.275.514.451.9.187C561.534,92.994,560.923,92.656,560.466,92.418Z" transform="translate(-547.024 -77.298)" fill="#3f2716" fill-rule="evenodd"/>
  <path id="Path_6658" data-name="Path 6658" d="M595.656,92.418c.035-.016.071-.03.108-.044a2.763,2.763,0,0,1,1.226-.159,2.714,2.714,0,0,1,1.145.359c.174.112.85.66.658.861a10.1,10.1,0,0,1-.95-.387,2.691,2.691,0,0,0-.884-.119,2.386,2.386,0,0,0-.81.165c-.007,0-.057.024-.068.029-.565.275-.514.451-.9.187C594.587,92.994,595.2,92.656,595.656,92.418Z" transform="translate(-575.852 -77.298)" fill="#3f2716" fill-rule="evenodd"/>
  <path id="Path_6659" data-name="Path 6659" d="M578.534,129.855a.116.116,0,0,1,.2.116,2.206,2.206,0,0,1-1.079.9,4.5,4.5,0,0,1-1.731.317h-.011a4.415,4.415,0,0,1-1.723-.314,2.223,2.223,0,0,1-1.086-.9.116.116,0,0,1,.2-.117,2,2,0,0,0,.976.8,4.181,4.181,0,0,0,1.632.295h.01a4.268,4.268,0,0,0,1.641-.3A1.981,1.981,0,0,0,578.534,129.855Z" transform="translate(-559.121 -106.09)" fill="#4e2c0b" fill-rule="evenodd"/>
  <path id="Path_6660" data-name="Path 6660" d="M582.088,140.931a.116.116,0,1,1,.117-.2,1.142,1.142,0,0,0,.567.14,1.088,1.088,0,0,0,.556-.14.116.116,0,1,1,.12.2,1.321,1.321,0,0,1-.676.174A1.374,1.374,0,0,1,582.088,140.931Z" transform="translate(-565.969 -114.452)" fill="#d67f54" fill-rule="evenodd"/>
  <path id="Path_6661" data-name="Path 6661" d="M583.673,113.8a.116.116,0,0,1,0-.232,5.673,5.673,0,0,0,.87-.046c.211-.036.367-.093.367-.19,0-.334-.339-2.412-.34-2.418a.116.116,0,1,1,.229-.036c0,.006.343,2.106.343,2.454,0,.245-.238.363-.561.418A5.808,5.808,0,0,1,583.673,113.8Z" transform="translate(-567.138 -91.523)" fill="#d67f54" fill-rule="evenodd"/>
  <path id="Path_6662" data-name="Path 6662" d="M624.248,118.4a.116.116,0,1,1-.232,0,1.131,1.131,0,0,0-.159-.7.278.278,0,0,0-.216-.107.636.636,0,0,0-.316.1,2.089,2.089,0,0,0-.795.938,4.356,4.356,0,0,0-.2.539.822.822,0,0,1,.541-.157.515.515,0,0,1,.251.09.411.411,0,0,1,.156.219.761.761,0,0,1-.16.629.116.116,0,1,1-.192-.129.553.553,0,0,0,.131-.434.183.183,0,0,0-.069-.1.285.285,0,0,0-.138-.048.638.638,0,0,0-.5.208.248.248,0,0,1-.118.074.127.127,0,0,1-.168-.112v-.006a.4.4,0,0,1,0-.136,3.63,3.63,0,0,1,.246-.734,2.341,2.341,0,0,1,.893-1.047.864.864,0,0,1,.435-.127.5.5,0,0,1,.391.193A1.329,1.329,0,0,1,624.248,118.4Z" transform="translate(-596.629 -96.57)" fill="#d67f54" fill-rule="evenodd"/>
  <path id="Path_6663" data-name="Path 6663" d="M537.69,118.4a.116.116,0,1,1-.232,0,1.333,1.333,0,0,1,.212-.841.5.5,0,0,1,.391-.193.866.866,0,0,1,.436.127,2.341,2.341,0,0,1,.893,1.047,3.641,3.641,0,0,1,.246.734.39.39,0,0,1,0,.136v.006a.127.127,0,0,1-.168.112.247.247,0,0,1-.118-.074.638.638,0,0,0-.5-.208.284.284,0,0,0-.138.048.182.182,0,0,0-.069.1.551.551,0,0,0,.13.434.116.116,0,1,1-.193.129.761.761,0,0,1-.16-.629.409.409,0,0,1,.156-.219.513.513,0,0,1,.25-.09.822.822,0,0,1,.541.157,4.359,4.359,0,0,0-.2-.539,2.091,2.091,0,0,0-.8-.938.636.636,0,0,0-.316-.1.277.277,0,0,0-.216.107A1.128,1.128,0,0,0,537.69,118.4Z" transform="translate(-531.831 -96.57)" fill="#d67f54" fill-rule="evenodd"/>
  <path id="Path_6664" data-name="Path 6664" d="M540.3,58.191c-1.164-8.069.277-16.24,10.069-16.24s11.233,8.171,10.069,16.24c-.77,2.329-.957-2.125-.958-2.633,0-1.422-1.265-1.136-1.316-4.314-.058-3.594-15.531-3.588-15.589,0-.051,3.178-1.316,2.893-1.316,4.314C541.256,55.978,540.984,60.73,540.3,58.191Z" transform="translate(-533.744 -38.81)" fill="#3b220f" fill-rule="evenodd"/>
  <path id="Path_6665" data-name="Path 6665" d="M544.359,39.056c-.512,1.635-4,1.946-4.638.905-.295.9-2.694,1.21-3.041.7-.719.936-1.746.2-1.078-.689a2.4,2.4,0,0,1,0-3.442c-.5-2.307,1.559-4.021,2.712-3.443a2.372,2.372,0,0,1,4.131-1.81c2.831-4.4,7.936-2.838,7.886,0,1.673-1.038,4.711-.917,4.131,1.81,2-.145,4.051.573,2.711,3.443,1.07,1.15,1.339,2.664-.013,3.442.619.851-.322,1.575-1.066.689-.351.514-2.745.2-3.041-.7-.633,1.039-4.023,1.055-4.638-.905C547.783,40.576,544.992,40.576,544.359,39.056Z" transform="translate(-529.854 -28.535)" fill="#232221" fill-rule="evenodd"/>
  <path id="Path_6666" data-name="Path 6666" d="M527.3,180.7c.01-2.811.02-7.7-.012-8.836-.017-.614-1.759-1.5-2.068-2.479-.446-1.415.578-3.18.266-4.495-.028.182-.058.362-.092.538-5.614,1.841-12.152,6.774-11.96,15.272Z" transform="translate(-513.425 -132.97)" fill="#e28121" fill-rule="evenodd"/>
  <path id="Path_6667" data-name="Path 6667" d="M560.184,162.293a20.364,20.364,0,0,0,1.671,7.355C558.441,170.026,557.413,163.388,560.184,162.293Z" transform="translate(-548.017 -130.978)" fill="#ac5500" fill-rule="evenodd"/>
  <path id="Path_6668" data-name="Path 6668" d="M596.15,180.7c-.011-2.811-.02-7.7.012-8.836.018-.614,1.759-1.5,2.068-2.479.446-1.415-.578-3.18-.266-4.495.028.182.058.362.092.538,5.614,1.841,12.152,6.774,11.96,15.272Z" transform="translate(-576.775 -132.97)" fill="#e28121" fill-rule="evenodd"/>
  <path id="Path_6669" data-name="Path 6669" d="M597.993,162.293a20.361,20.361,0,0,1-1.672,7.355C599.735,170.026,600.763,163.388,597.993,162.293Z" transform="translate(-576.914 -130.978)" fill="#ac5500" fill-rule="evenodd"/>
  <path id="Path_6670" data-name="Path 6670" d="M533.049,211.313a.174.174,0,0,1,.347,0l-.043,4.809a.174.174,0,0,1-.347,0Z" transform="translate(-528.423 -168.39)" fill="#141632" fill-rule="evenodd"/>
  <path id="Path_6671" data-name="Path 6671" d="M635.275,211.313a.174.174,0,0,1,.347,0l-.043,4.809a.174.174,0,0,1-.347,0Z" transform="translate(-606.715 -168.39)" fill="#141632" fill-rule="evenodd"/>
  <path id="Path_6672" data-name="Path 6672" d="M572.481,37.584a.116.116,0,0,1-.2-.12,4.634,4.634,0,0,1,1.8-1.592,3.447,3.447,0,0,1,2.132-.429c1.377.262,1.446,1.084,1.446,1.086a.116.116,0,1,1-.23.022s-.054-.652-1.259-.881a3.218,3.218,0,0,0-1.983.407A4.387,4.387,0,0,0,572.481,37.584Z" transform="translate(-558.49 -33.796)" fill="#3d3d3c" fill-rule="evenodd"/>
  <path id="Path_6673" data-name="Path 6673" d="M556.409,44.323a.116.116,0,1,1-.223-.063,2,2,0,0,1,.7-1.066,1.748,1.748,0,0,1,.744-.329,1.779,1.779,0,0,1,.808.04,1.964,1.964,0,0,1,1.024.717.116.116,0,1,1-.184.14,1.736,1.736,0,0,0-.9-.634,1.546,1.546,0,0,0-.7-.035,1.514,1.514,0,0,0-.646.285A1.773,1.773,0,0,0,556.409,44.323Z" transform="translate(-546.171 -39.488)" fill="#3d3d3c" fill-rule="evenodd"/>
  <path id="Path_6674" data-name="Path 6674" d="M599.048,44.008a.116.116,0,0,1-.154-.173,4.155,4.155,0,0,1,2.039-1.055,1.7,1.7,0,0,1,.859.066.946.946,0,0,1,.546.507,1.386,1.386,0,0,1,.049.854.116.116,0,1,1-.227-.048,1.163,1.163,0,0,0-.035-.713.717.717,0,0,0-.416-.384,1.477,1.477,0,0,0-.742-.052A3.922,3.922,0,0,0,599.048,44.008Z" transform="translate(-578.855 -39.426)" fill="#3d3d3c" fill-rule="evenodd"/>
  <path id="Path_6675" data-name="Path 6675" d="M576.282,64.456a.116.116,0,0,1,.206-.106,1.79,1.79,0,0,0,.922.87,1.657,1.657,0,0,0,.708.116,1.743,1.743,0,0,0,.7-.192,1.975,1.975,0,0,0,.921-1.045.116.116,0,0,1,.215.086,2.2,2.2,0,0,1-1.029,1.165,1.976,1.976,0,0,1-.8.217,1.894,1.894,0,0,1-.807-.132A2.02,2.02,0,0,1,576.282,64.456Z" transform="translate(-561.556 -55.717)" fill="#3d3d3c" fill-rule="evenodd"/>
  <path id="Path_6676" data-name="Path 6676" d="M598.215,65.795a.116.116,0,0,1,.206.106,2.021,2.021,0,0,1-1.043.979,1.893,1.893,0,0,1-.807.132,1.971,1.971,0,0,1-.8-.217,2.2,2.2,0,0,1-1.03-1.165.116.116,0,0,1,.215-.086,1.975,1.975,0,0,0,.92,1.045,1.747,1.747,0,0,0,.7.192,1.658,1.658,0,0,0,.707-.115A1.791,1.791,0,0,0,598.215,65.795Z" transform="translate(-575.702 -56.823)" fill="#3d3d3c" fill-rule="evenodd"/>
</svg>
